<?xml version='1.0' encoding='utf-8'?>
<!-- Generator: Adobe Illustrator 27.2.0, SVG Export Plug-In . SVG Version: 6.00 Build 0)  --><svg xmlns="http://www.w3.org/2000/svg" xmlns:xlink="http://www.w3.org/1999/xlink" version="1.1" id="Vrstva_1" x="0px" y="0px" viewBox="0 0 904.6 566.9" style="enable-background:new 0 0 904.6 566.9;" xml:space="preserve" width="638.2783" height="400.0">
<g>
	<path d="M4.4,310.8v-54.6h163.5v54.7L4.4,310.8L4.4,310.8z M33.8,93l15.1-44.6L212,107.7c-7.6,5-24.4,41.8-24.4,44.6L33.8,93   L33.8,93z M48.9,518.4l-15.1-49.6l153.9-54.2c0,0,6.7,15.7,10.9,22.7c4.2,7,8.7,14.1,13.5,21.4L48.9,518.4L48.9,518.4z    M291.5,127.5c16,5,30.8,12.6,44.6,22.7c13.7,10.1,25.8,21.9,36.2,35.5c10.4,13.6,18.5,28.5,24.4,44.8s8.8,33.2,8.8,50.9   s-2.9,35.9-8.8,52.3c-5.9,16.4-14,31.3-24.4,44.6c-10.4,13.3-22.4,24.7-36.2,34.3c-13.7,9.5-28.6,16.7-44.6,21.4   c-7.6,2.8-14.4,3.4-20.4,1.9c-6-1.5-11.5-3.9-16.4-7.1c-4.9-3.2-8.8-7.1-11.8-11.8c-2.9-4.6-5-8.8-6.1-12.4   c-4.8-19.9-9.2-39.9-13.5-59.9c-4.2-20-6.3-41.1-6.3-63.3s2.1-44.3,6.3-64.1c4.2-19.8,8.7-39.7,13.5-59.9c1.1-4.2,3.1-8.5,6.1-12.8   c2.9-4.3,6.9-8.2,11.8-11.6c4.9-3.4,10.4-5.7,16.4-7.2C277.1,124.4,283.9,125,291.5,127.5L291.5,127.5L291.5,127.5z M281.4,375.1   c0,2.2,1.3,4.2,3.8,5.9c2.5,1.7,6.3,1.3,11.4-1.3c17.4-10.1,31.5-23.5,42.5-40.1c10.9-16.7,16.4-36.1,16.4-58.2   c0-10.1-1.4-20-4.2-29.8c-2.8-9.8-6.9-19-12.2-27.5c-5.3-8.5-11.6-16.4-18.9-23.5c-7.3-7.1-15.1-13.1-23.5-17.9   c-3.4-2.2-6.2-2.7-8.4-1.5c-2.2,1.3-3.9,2.5-5,3.8c-1.1,1.3-1.7,2-1.7,2.3c-4.8,14.6-7.6,29.5-8.6,44.8c-1,15.3-1.5,31.7-1.5,49.4   s0.5,33.6,1.5,48.6C273.8,344.9,276.6,360,281.4,375.1L281.4,375.1L281.4,375.1z M613.1,127.5c7.3-2.5,14-3.1,20.2-1.7   c6.2,1.4,11.5,3.8,16,7.1s8.3,7.2,11.6,11.6c3.2,4.4,5.5,8.6,6.9,12.8c5,20.2,8.8,40.1,11.2,59.9c2.4,19.8,3.6,41.1,3.6,64.1   s-1.2,43.2-3.6,63.3c-2.4,20-6.1,40-11.2,59.9c-1.4,3.6-3.7,7.8-6.9,12.4c-3.2,4.6-7.1,8.5-11.6,11.8c-4.5,3.2-9.8,5.6-16,7.1   c-6.2,1.5-12.9,0.9-20.2-1.9c-16.3-4.8-31.4-11.9-45.4-21.5c-14-9.5-26.1-21-36.2-34.3c-10.1-13.3-18-28.2-23.8-44.6   c-5.8-16.4-8.6-33.8-8.6-52.3s2.9-34.6,8.6-50.9c5.7-16.2,13.7-31.2,23.8-44.8c10.1-13.6,22.1-25.4,36.2-35.5   C581.7,140.1,596.8,132.5,613.1,127.5L613.1,127.5L613.1,127.5z M623.2,375.1c2.2-15.1,4.3-30.2,6.3-45.2c2-15,2.9-31.2,2.9-48.6   s-1-34.1-2.9-49.4c-2-15.3-4.1-30.2-6.3-44.8c0-0.3-0.6-1.1-1.7-2.3s-2.8-2.5-5-3.8c-2.2-1.3-4.9-0.8-8,1.5   c-9,4.8-17.1,10.7-24.4,17.9c-7.3,7.1-13.6,15-18.9,23.5c-5.3,8.6-9.5,17.7-12.4,27.5c-2.9,9.8-4.4,19.8-4.4,29.8   c0,22.1,5.7,41.5,17,58.2c11.3,16.7,25.7,30.1,43.1,40.1c4.8,2.5,8.4,2.9,10.9,1.3C621.9,379.3,623.2,377.3,623.2,375.1   L623.2,375.1L623.2,375.1z M870.8,93l-153.9,59.3c0-2.8-7.1-20.5-11.2-27.1c-4.1-6.6-8.8-12.4-14.1-17.5l164-59.3L870.8,93   L870.8,93z M855.7,518.5l-164-59.7c5.3-7.3,10-14.4,14.1-21.5c4.1-7,11.2-22.7,11.2-22.7l153.9,54.2L855.7,518.5z M900.2,310.8   H731.6v-54.6h168.6V310.8z"></path>
</g>
</svg>