<?xml version='1.0' encoding='utf-8'?>
<!-- Generator: Adobe Illustrator 27.2.0, SVG Export Plug-In . SVG Version: 6.00 Build 0)  --><svg xmlns="http://www.w3.org/2000/svg" xmlns:xlink="http://www.w3.org/1999/xlink" version="1.1" id="Vrstva_1" x="0px" y="0px" viewBox="0 0 684.4 566.9" style="enable-background:new 0 0 684.4 566.9;" xml:space="preserve" width="482.907" height="400.0">
<g>
	<path d="M128.7,72l-25.8-25.8C40.5,108.7,3.7,198.9,3.7,285.4s36.8,176.5,99.2,238.9l25.8-25.8c-55.2-55.2-88.2-134.2-88.2-213.3   S73.6,127.1,128.7,72L128.7,72z" fill="#F54C4C"></path>
	<path d="M581.1,44.5l-25.8,25.8c55.2,55.2,88.2,134.2,88.2,213.3S610.5,440,555.3,496.9l25.8,25.8c62.6-62.6,99.2-152.6,99.2-239.1   S641.8,107,581.1,44.5L581.1,44.5z" fill="#F54C4C"></path>
</g>
<path d="M342,20.5c-145.2,0-263,117.6-263,263s117.6,263,263,263s263-117.6,263-263C606.7,138.3,487.2,20.5,342,20.5z M342,509.6  c-125,0-226.2-101.1-226.2-226.2S217,57.3,342,57.3s226.2,101.1,226.2,226.2S467,509.6,342,509.6L342,509.6z" fill="#F54C4C"></path>
<g>
	<circle cx="342" cy="415.9" r="36.8" fill="#F54C4C"></circle>
	<rect x="314.4" y="114.4" width="57" height="226.2" fill="#F54C4C"></rect>
</g>
</svg>