<?xml version='1.0' encoding='utf-8'?>
<!-- Generator: Adobe Illustrator 27.2.0, SVG Export Plug-In . SVG Version: 6.00 Build 0)  --><svg xmlns="http://www.w3.org/2000/svg" xmlns:xlink="http://www.w3.org/1999/xlink" version="1.1" id="Vrstva_1" x="0px" y="0px" viewBox="0 0 810.4 566.9" style="enable-background:new 0 0 810.4 566.9;" xml:space="preserve" width="571.8116" height="400.0">
<style type="text/css">
	.st0{fill-rule:evenodd;clip-rule:evenodd;}
</style>
<g>
	<path d="M490,26.8h-42.9v219.1H490V26.8z" fill="#FFCE63"></path>
	<path class="st0" d="M442.8,333.9V291h53.8v42.9H442.8z" fill="#FFCE63"></path>
	<path class="st0" d="M221.7,325.4h-8.5c-17.2,2.2-45.1,6.5-70.8,10.7c-27.9,4.4-49.4,10.7-55.8,12.9c-15.4,6.5-38.9,27.9-38.9,64.5   c0,10.7,0,17.2,2.2,21.5H110c0,32.2,21.6,57.9,49.4,62.3c4.4,2.2,8.5,2.2,12.9,2.2c6.5,0,12.9-2.2,19.4-4.4   c23.5-8.5,42.9-32.2,42.9-62.3h330.8c0,32.2,21.5,57.9,51.6,64.5c4.3,0,6.5,2.2,10.7,2.2l0,0c34.4,0,62.3-30.1,62.3-64.5v-2.2   l70.8-30.1v-88c-21.5-8.5-51.6-21.5-83.8-34.4l-8.5-4.4l-6.5-2.2c-53.8-21.6-79.5-32.2-122.4-32.2v-40.7   c51.6,0,83.8,12.9,137.4,34.4l6.5,2.2c4.3,2.2,6.5,2.2,10.7,4.4c51.6,19.4,94.5,38.6,109.5,45.1v141.8l-75.1,32   c-4.3,34.4-42.9,79.5-94.5,79.5c-55.8,0-90.2-42.9-96.7-64.5H262.4c-4.4,21.5-38.6,64.5-90.2,64.5s-83.8-40.7-90.2-64.5H43.3   c-17.2,0-36.6-6.5-36.6-62.3s34.4-92.3,64.5-103c23.5-8.5,100.8-21.5,137.4-27.9c4.4-2.2,6.5-4.4,10.7-6.5   c51.6-27.9,137.4-77.3,161.1-77.3H404v40.7h-23.5c-4.4,0-8.5,2.2-12.9,4.4c-12.9,4.4-25.7,12.9-42.9,21.6   c-27.9,15-57.9,32.2-81.7,45.1c-4.4,2.2-6.5,4.4-10.7,6.5L221.7,325.4L221.7,325.4z" fill="#FFCE63"></path>
</g>
</svg>