<?xml version='1.0' encoding='utf-8'?>
<!-- Generator: Adobe Illustrator 27.2.0, SVG Export Plug-In . SVG Version: 6.00 Build 0)  --><svg xmlns="http://www.w3.org/2000/svg" xmlns:xlink="http://www.w3.org/1999/xlink" version="1.1" id="Vrstva_1" x="0px" y="0px" viewBox="0 0 532.4 566.9" style="enable-background:new 0 0 532.4 566.9;" xml:space="preserve" width="375.6571" height="400.0">
<path d="M49,427.8c-14.5-21.1-25.3-43.6-32.7-67.7c-7.4-24-11.1-48.9-11.2-74.5c-0.1-26.5,3.4-52.3,10.8-77.1s18.5-48.1,33.1-69.8  l29.9,19.6c-12.6,19-22.2,39.1-28.4,60.4c-6.3,21.3-9.4,42.9-9.4,64.4s3.1,43.2,9.4,64.4c6.3,21.3,15.7,41.5,28.4,60.4L49,427.8  L49,427.8z M266.8,545.6c-25.7,0-51-3.7-75.5-10.9c-24.5-7.4-47.5-18.3-68.8-33l19.6-30.2c19,12.6,39,22.2,60.4,28.5  c21.3,6.3,42.9,9.6,64.4,9.6s43.2-3.1,64.4-9.4s41.5-15.7,60.7-28.4l19.3,29.9c-21.1,14.2-43.6,25.1-67.7,32.4  c-24,7.4-48.9,11.2-74.5,11.6L266.8,545.6L266.8,545.6z M392.1,95.2c-19-12.6-39.1-22.2-60.4-28.5c-21.3-6.3-42.9-9.6-64.4-9.6  s-43.2,3.2-64.6,9.6s-41.6,15.7-60.6,28.2L122.8,65c21.1-14.3,43.6-25.1,67.7-32.4c24-7.4,48.9-11.1,74.5-11.3  c26.4-0.5,52,3.2,76.9,10.6c25,7.5,48.2,18.6,69.8,33.3L392.1,95.2L392.1,95.2z M485.1,428.1l-29.6-19.6  c12.5-19,21.9-39.1,28.2-60.4s9.6-42.9,9.6-64.4s-3.2-43.2-9.6-64.4s-15.7-41.5-28.2-60.7l29.9-19.3c14.5,21,25.3,43.5,32.7,67.5  c7.4,24.2,11.1,49,11.2,74.6c0.2,26.4-3.4,52-10.8,76.8C511.1,382.8,500,406.2,485.1,428.1L485.1,428.1L485.1,428.1z" fill="#FFCE63"></path>
<path d="M443.2,228.1c0-1.9-1.7-3.4-4.9-4.3c-3.2-0.9-6.6-1.4-9.9-1.4h-29c-2.9-5.1-5.7-9.2-8.3-12.5s-4.6-5.9-6-7.6  c-0.9-1.5-2-3.4-3.5-5.4c-1.5-2-3.1-4-4.6-5.9c-1.7-1.9-3.2-3.7-4.8-5.4c-1.5-1.7-2.9-3.1-4.2-3.9c-2.2-2.3-4-4.5-5.7-6.6  c-1.7-2.2-3.8-4.2-6.2-5.9c-2.3-1.7-5.2-3.2-8.8-4.6c-3.5-1.2-8.3-2.3-14.2-2.9c-16-1.4-29.4-2.2-40.7-2.5  c-11.1-0.3-19.7-0.5-26-0.5s-15,0.1-26.5,0.5s-24.8,1.1-39.6,2.5c-6.5,0.9-11.6,2-15.3,3.2c-3.7,1.2-6.8,2.8-8.9,4.6  c-2.3,1.7-4,3.7-5.4,5.7c-1.4,2.2-2.9,4.3-4.6,6.5c-2.3,2.5-5.1,5.4-8.3,9.1s-7.2,8.3-11.7,13.9c-1.2,3.1-2.9,6.2-5.2,8.9  c-2.3,2.9-4,5.7-5.4,8.8h-32.5c-0.9,0-1.9,0.1-3.1,0.5c-1.2,0.3-2.5,0.6-3.9,1.1c-1.2,0.5-2.3,1.1-3.2,1.7c-0.9,0.8-1.2,1.5-1.2,2.6  l-5.4,20c0,1.2,0.6,2.9,2,5.2c1.2,2.3,3.4,3.4,6.3,3.4h20c-0.5,1.7-1.4,4.3-2.6,8c-1.2,3.5-2.2,8.3-2.9,14.2s-1.1,13-0.9,21.3  c0.1,8.2,1.2,17.9,3.4,28.8v51.8c0,5.9,2.9,8.8,8.8,8.8h37c5.9,0,8.8-2.9,8.8-8.8v-31H368v31c0,5.9,2.9,8.8,8.8,8.8h37.5  c1.4,0,3.2-0.6,5.4-2c2.3-1.2,3.4-3.5,3.4-6.9v-51.8c2.2-10.9,3.1-20.5,2.9-29c-0.2-8.3-0.8-15.4-1.8-21.4c-1.1-5.9-2.5-10.6-4-14.2  c-1.5-3.5-2.6-6.2-3.4-7.7h23c0.6,0,1.5-0.3,2.5-1.1c0.9-0.6,1.8-1.5,2.9-2.3c0.9-0.9,1.8-1.9,2.5-2.9s1.1-1.9,1.1-2.3L443.2,228.1  L443.2,228.1L443.2,228.1z M180.8,207.7c2.9-5.4,6.5-10.2,11.1-14.6c1.2,0,2.8-0.5,4.6-1.4s4.3-1.4,7.4-1.4  c14.3-1.4,27-2.3,37.5-2.8c10.6-0.5,19-0.6,25-0.6h10.2c6.6,0,14.3,0.3,23.4,0.9c9.1,0.6,19.3,1.4,30.7,2.5c0.5,0,1.2,0.1,2.2,0.5  s1.9,0.6,2.9,1.1c0.9,0.5,1.9,0.8,2.5,1.1s0.9,0.5,0.8,0.5c4.5,4.3,8.8,8.8,12.8,13.3c4,4.5,7.4,9.9,10.5,15.9H171.7  C174.9,218,177.9,213.1,180.8,207.7L180.8,207.7L180.8,207.7z M396.5,320.5H137.6v-31.8h54.1v-29.1h-45.9c0-1.4,1.1-3.4,3.4-6  c2.3-2.6,4-5.4,5.4-8.3h224.7c1.8,2.9,3.5,5.7,4.6,8.3c1.2,2.6,2.5,4.6,3.8,6h-45.3v29.1h54L396.5,320.5L396.5,320.5L396.5,320.5z" fill="#FFCE63"></path>
</svg>