<?xml version='1.0' encoding='utf-8'?>
<!-- Generator: Adobe Illustrator 27.2.0, SVG Export Plug-In . SVG Version: 6.00 Build 0)  --><svg xmlns="http://www.w3.org/2000/svg" xmlns:xlink="http://www.w3.org/1999/xlink" version="1.1" id="Vrstva_1" x="0px" y="0px" viewBox="0 0 1022.6 566.9" style="enable-background:new 0 0 1022.6 566.9;" xml:space="preserve" width="721.53815" height="400.0">
<g>
	<path d="M197.1,402.7H84.6l-15.9,50H5.3l112.5-338.4h50.5l111,338.4H213L197.1,402.7L197.1,402.7L197.1,402.7z M175.5,335.4   l-34.6-109.1l-34.6,109.1H175.5L175.5,335.4z"></path>
	<path d="M278.6,320V114.2h62v207.7c0,39.4,21.3,61.5,51.9,61.5s50.5-22.1,50.5-61.5V114.2h62V320c0,84.6-46.9,138.5-112.5,138.5   S278.6,404.6,278.6,320L278.6,320L278.6,320z"></path>
	<path d="M744.4,189.2h-79.3v263.4h-62V189.2h-80.8v-75h222.1L744.4,189.2L744.4,189.2L744.4,189.2z"></path>
	<path d="M740.4,283.5c0-98.6,63.5-175,138.5-175s138.4,75.9,138.4,175s-63.5,175-138.5,175S740.4,382.5,740.4,283.5L740.4,283.5   L740.4,283.5z M952.4,283.5c0-54.8-33.9-98.1-73.5-98.1s-73.5,44.2-73.5,98.1s33.9,98.1,73.5,98.1S952.4,338.3,952.4,283.5   L952.4,283.5z"></path>
</g>
</svg>