<?xml version='1.0' encoding='utf-8'?>
<!-- Generator: Adobe Illustrator 27.2.0, SVG Export Plug-In . SVG Version: 6.00 Build 0)  --><svg xmlns="http://www.w3.org/2000/svg" xmlns:xlink="http://www.w3.org/1999/xlink" version="1.1" id="Vrstva_1" x="0px" y="0px" viewBox="0 0 1067.6 566.9" style="enable-background:new 0 0 1067.6 566.9;" xml:space="preserve" width="753.2898" height="400.0">
<g>
	<path d="M17,415.9c15.6,2.5,29.1,4.4,40.6,5.4c11.4,1.1,23.1,1.5,34.9,1.5c19.8,0,35.4-1.2,46.9-4c11.6-2.6,20.4-6.5,26.3-11.4   c6-5.1,9.8-11.2,11.5-18.5c1.7-7.5,2.6-15.9,2.6-25.1c0-8.6-0.8-15.6-2.4-21.1c-1.5-5.8-4.8-10.9-9.8-15.6c-5-4.7-12-9.4-21.1-14.1   c-9.1-4.7-21.1-10.3-36.2-16.8l-30.9-13.2c-13.8-5.9-25.3-11.7-34.7-17.5c-9.4-5.8-16.9-12.2-22.8-19.1c-5.8-6.9-10-14.6-12.5-23.3   c-2.5-8.6-3.7-18.6-3.7-30.2c0-15.1,2.2-27.8,6.8-38.5c4.5-10.6,11.7-19.3,21.4-26c9.7-6.7,22.2-11.7,37.7-14.8   c15.5-3.1,34.2-4.7,56.1-4.7c14.1,0,27.9,0.7,41.3,2.2c13.5,1.4,25.1,3.3,34.7,5.8l-6.1,32.9c-4.6-1-10-1.8-15.9-2.4   c-6-0.7-11.9-1.2-17.8-1.6c-6-0.5-11.8-0.9-17.4-1c-5.6-0.1-10.8-0.2-15.5-0.2c-16,0-29.5,0.7-40.6,2.2c-11.1,1.4-20.1,3.9-27,7.5   c-6.9,3.6-11.9,8.5-15,14.6c-3.2,6.2-4.7,13.8-4.7,23.3s1.3,16.6,3.7,22.8c2.5,6.2,6.4,11.4,11.7,16c5.3,4.6,12.1,8.7,20.4,12.6   c8.3,4,18.4,8.3,30.3,12.9l36.1,15.1c14.4,6,26.3,11.9,35.7,17.8c9.4,6,16.7,12.4,22,19.5c5.3,7,9.1,15,11.3,24   c2.2,8.8,3.3,19.2,3.3,30.6c0,15.2-1.6,28.4-4.7,40.3c-3.1,11.7-9.2,21.5-18.3,29.8c-9,8-21.7,14.2-38,18.5   c-16.2,4.1-37.4,6.3-63.3,6.3c-15.3,0-30.6-0.8-45.8-2.6c-15.1-1.8-28.1-4-38.7-6.9L17,415.9L17,415.9L17,415.9z"></path>
	<path d="M272.8,267.5c0-30,3-55.2,8.9-75.5c5.9-20.4,14.7-36.7,26.3-49.1c11.5-12.4,25.5-21.1,42-26.2c16.4-5.2,35.3-7.8,56.6-7.8   c15,0,29.1,0.9,42.4,2.6c13.3,1.8,24.5,4,33.6,6.9l-6.2,33.3c-10.3-2.5-21.5-4.2-33.5-5.1c-12.1-1-23.8-1.4-35.5-1.4   c-15.3,0-29.1,2-41.1,5.8c-12,4-22.2,10.5-30.2,19.7c-8.2,9.3-14.4,21.6-18.8,36.9c-4.4,15.3-6.6,34.6-6.6,57.7v36.7   c0,23.1,2.1,42.4,6.4,57.7c4.2,15.3,10.5,27.6,18.8,36.8c8.3,9.4,18.4,15.9,30.3,19.7c11.9,4,25.6,6.1,41.3,6.1   c14,0,26.9-0.7,38.7-2.1c11.7-1.1,22.6-2.6,32.6-4.1l5.6,33.8c-9.1,2.5-20.5,4.4-34.2,5.9c-13.8,1.7-28.4,2.5-43.7,2.5   c-21.3,0-40.2-2.6-56.6-7.7c-16.5-5.4-30.5-14.1-42-26.5c-11.6-12.4-20.4-28.7-26.3-48.9c-5.9-20.4-8.9-45.7-8.9-75.6L272.8,267.5   L272.8,267.5L272.8,267.5z"></path>
	<path d="M624,114.5h51.7l111.7,337.9h-41l-28.5-89.1H581.8l-28.7,89.1h-40.4L624,114.5L624,114.5L624,114.5z M649.8,150.7   l-57.4,178.7H707l-56.8-178.7L649.8,150.7L649.8,150.7z"></path>
	<path d="M831,114.5h41.7l138.1,248.3c2.2,4,4,7.6,5.5,10.5c1.7,2.9,3.1,5.8,4.3,8.3c1.1,2.6,2.2,5.1,3.3,7h0.9V114.5h37v337.9   h-42.3l-137-246.7c-4.4-7.6-7.9-14-10.4-19.3c-1.1-2.9-2.5-5.5-3.7-8H868v274h-37L831,114.5L831,114.5z"></path>
</g>
</svg>