<?xml version='1.0' encoding='utf-8'?>
<!-- Generator: Adobe Illustrator 27.2.0, SVG Export Plug-In . SVG Version: 6.00 Build 0)  --><svg xmlns="http://www.w3.org/2000/svg" xmlns:xlink="http://www.w3.org/1999/xlink" version="1.1" id="Vrstva_1" x="0px" y="0px" viewBox="0 0 1608.3 566.9" style="enable-background:new 0 0 1608.3 566.9;" xml:space="preserve" width="1134.8032" height="400.0">
<g>
	<path d="M653.3,213.7c-11.9-5.9-47.4-20.7-88.7-38.5c-3,0-5.9-3-8.9-3c-47.4-17.6-73.9-29.6-118.2-29.6H313.2   c-20.7,0-88.7,38.5-130,62c-3,3-5.9,3-8.9,5.9c-29.6,3-94.7,14.8-112.4,20.7c-26.7,11.9-56.3,41.3-56.3,85.7s14.8,50.4,29.6,50.4   h32.6c5.9,17.6,32.6,53.2,73.9,53.2s71.1-35.6,73.9-53.2h221.7c5.9,17.6,32.6,53.2,80,53.2c41.3,0,73.9-44.3,76.9-65l62-26.7V213.2   h-2.8L653.3,213.7L653.3,213.7z M620.7,308.5l-59.3,23.7v3c0,29.6-23.7,53.2-50.4,53.2h-8.9c-23.7-5.9-41.3-26.7-41.3-53.2H188.9   c0,23.7-14.8,44.3-35.6,50.4c-5.9,3-8.9,3-14.8,3h-8.9c-23.7-5.9-41.3-26.7-41.3-53.2h-47v-17.6c0-32.6,17.6-47.4,32.6-53.2   c5.9-3,23.7-5.9,47.4-11.9c20.7-3,44.3-8.9,59.3-8.9h5.9l5.9-3c3-3,5.9-3,8.9-5.9c20.7-11.9,44.3-23.7,68-35.6   c14.8-5.9,26.7-11.9,35.6-17.6c5.9-3,8.9-3,11.9-3H438c38.5,0,59.3,8.9,106.3,26.7l8.9,3c26.7,11.9,50.4,20.7,68,29.6L620.7,308.5   L620.7,308.5L620.7,308.5z"></path>
	<path d="M1507.7,178.5c-3,0-5.9-3-8.9-3c-47.4-17.6-73.9-29.6-118.2-29.6h-123.9c-20.7,0-88.7,38.5-130,62c-3,3-5.9,3-8.9,5.9   c-29.6,3-94.7,14.8-112.4,20.7c-23.7,8.9-53.2,38.5-53.2,85.7s14.8,50.4,29.6,50.4h32.6c5.9,17.6,32.6,53.2,73.9,53.2   s71.1-35.6,73.9-53.2h221.7c5.9,17.6,32.6,53.2,80,53.2c41.3,0,73.9-44.3,76.9-65l62-26.7V213.7   C1584.8,208,1549.4,193.1,1507.7,178.5L1507.7,178.5z M1567,308.5l-59.3,23.7v3c0,29.6-23.7,53.2-50.4,53.2h-8.9   c-23.7-5.9-41.3-26.7-41.3-53.2h-271.9c0,23.7-14.8,44.3-35.6,50.4c-5.9,3-8.9,3-14.8,3h-8.9c-23.7-5.9-41.3-26.7-41.3-53.2h-47.4   v-17.6c0-32.6,17.6-47.4,32.6-53.2c5.9-3,23.7-5.9,47.4-11.9c20.7-3,44.3-8.9,59.3-8.9h5.9l5.9-3c3-3,5.9-3,8.9-5.9   c20.7-11.9,44.3-23.7,68-35.6c14.8-5.9,26.7-11.9,35.6-17.6c5.9-3,8.9-3,11.9-3H1390c38.5,0,59.3,8.9,106.3,26.7l8.9,3   c26.7,11.9,50.4,20.7,68,29.6v71.6h-5.5v-0.9L1567,308.5L1567,308.5z"></path>
	<polygon points="919.3,450.4 685.9,450.4 685.9,414.8 653.3,414.8 653.3,515.6 685.9,515.6 685.9,482.8 919.3,482.8 919.3,515.6    951.9,515.6 951.9,414.8 919.3,414.8  "></polygon>
	<g>
		<rect x="777.6" y="320.4" width="50.4" height="50.4"></rect>
		<rect x="777.6" y="51.3" width="50.4" height="233.6"></rect>
	</g>
</g>
</svg>