<?xml version='1.0' encoding='utf-8'?>
<!-- Generator: Adobe Illustrator 27.2.0, SVG Export Plug-In . SVG Version: 6.00 Build 0)  --><svg xmlns="http://www.w3.org/2000/svg" xmlns:xlink="http://www.w3.org/1999/xlink" version="1.1" id="Vrstva_1" x="0px" y="0px" viewBox="0 0 541.4 566.9" style="enable-background:new 0 0 541.4 566.9;" xml:space="preserve" width="382.00742" height="400.0">
<path d="M55.7,283.5C55.7,180,128.8,93.5,226,72.6V20.7C100.5,42.4,4.7,151.9,4.7,283.5S100.5,524.7,226,546.2v-51.9  C128.8,473.4,55.7,386.9,55.7,283.5L55.7,283.5L55.7,283.5z" fill="#F54C4C"></path>
<path d="M537.8,283.5c0-131.9-96.3-241.7-222.4-262.9v51.9c97.8,20.5,171.4,107.3,171.4,211s-73.6,190.5-171.4,211v51.9  C441.5,525.3,537.8,415.4,537.8,283.5L537.8,283.5z" fill="#F54C4C"></path>
<path d="M331.4,227.5h-23.4v-66.8h-16v66.8h-42.3v-66.8h-16v66.8H211v58.8c0,0-1,50,47,57.7v90.4h25.4v-90.2  c49.3-7.3,47.8-57.9,47.8-57.9L331.4,227.5L331.4,227.5z" fill="#F54C4C"></path>
</svg>