<?xml version='1.0' encoding='utf-8'?>
<!-- Generator: Adobe Illustrator 27.2.0, SVG Export Plug-In . SVG Version: 6.00 Build 0)  --><svg xmlns="http://www.w3.org/2000/svg" xmlns:xlink="http://www.w3.org/1999/xlink" version="1.1" id="Vrstva_1" x="0px" y="0px" viewBox="0 0 794.4 566.9" style="enable-background:new 0 0 794.4 566.9;" xml:space="preserve" width="560.5221" height="400.0">
<style type="text/css">
	.st0{fill-rule:evenodd;clip-rule:evenodd;}
</style>
<g>
	<rect x="707.2" y="21.3" width="70.3" height="279.3"></rect>
	<circle cx="743.5" cy="394.3" r="47"></circle>
	<g>
		<polygon class="st0" points="44.4,232.4 206.3,232.4 206.3,68.1 161.4,68.1 161.4,153.4 37.9,29.9 3.9,61.8 127.5,185.4     44.4,185.4   "></polygon>
		<path class="st0" d="M464.3,430.5c-8.5,0-15,2.2-21.3,4.3l-68.3-68.3l-31.9,32.1l68.3,68.3c-2.2,6.5-4.3,12.8-4.3,21.3    c0,32.1,25.6,57.5,57.5,57.5s57.5-25.6,57.5-57.5S496.4,430.5,464.3,430.5L464.3,430.5L464.3,430.5z"></path>
		<path class="st0" d="M464.3,162C283.2,162,138.1,309,138.1,488.2v23.4h91.7v-47h-44.7c4.3-59.8,27.8-113,64-157.9l36.2,36.2    l34.1-32.1l-36.2-36.2c42.5-36.2,98-59.8,157.9-66v47h47V211c51.2,4.3,100.3,23.4,140.7,51.2v-55.5C579.5,179.1,524,162,464.3,162    L464.3,162L464.3,162z"></path>
	</g>
</g>
</svg>