<?xml version='1.0' encoding='utf-8'?>
<!-- Generator: Adobe Illustrator 27.2.0, SVG Export Plug-In . SVG Version: 6.00 Build 0)  --><svg xmlns="http://www.w3.org/2000/svg" xmlns:xlink="http://www.w3.org/1999/xlink" version="1.1" id="Vrstva_1" x="0px" y="0px" viewBox="0 0 273.4 566.9" style="enable-background:new 0 0 273.4 566.9;" xml:space="preserve" width="192.9088" height="400.0">
<path d="M270,376.2c0,82.5-54.1,141.7-133.4,141.7C65.2,518,3.3,466.4,3.8,373.7h80.7c3.9,36.1,29,46.4,50.2,46.4  c29,0,48.3-18,48.3-46.4s-19.3-46.4-50.2-46.4h-29v-85h27.1c29,0,46.4-18,46.4-46.4s-15.5-49-46.4-49c-29,0-46.4,18-48.3,54.1H3.3  C3.3,118.5,42,49,136.7,49c77.3,0,123.7,64.4,123.7,131.4c0,40.6-13,72.8-39.1,92.8C255.1,295.1,270.1,335,270,376.2L270,376.2z"></path>
</svg>