<?xml version='1.0' encoding='utf-8'?>
<!-- Generator: Adobe Illustrator 27.2.0, SVG Export Plug-In . SVG Version: 6.00 Build 0)  --><svg xmlns="http://www.w3.org/2000/svg" xmlns:xlink="http://www.w3.org/1999/xlink" version="1.1" id="Vrstva_1" x="0px" y="0px" viewBox="0 0 481.4 566.9" style="enable-background:new 0 0 481.4 566.9;" xml:space="preserve" width="339.67188" height="400.0">
<style type="text/css">
	.st0{fill-rule:evenodd;clip-rule:evenodd;}
</style>
<path d="M237.2,283.5c19,0,33.2-5.7,42.8-15.7c9.5-11.4,14.2-25.7,14.2-44.5s-4.7-33-15.8-42.9c-9.5-10-23.9-15.7-42.8-15.7h-47.4  v118.8L237.2,283.5L237.2,283.5z"></path>
<path class="st0" d="M7.8,47.3C7.8,31.6,22.1,20,39.4,20h403.7c17.4,0,31.6,12.9,31.6,27.3v472.3c0,15.7-14.2,27.3-31.6,27.3H39.5  c-17.4,0-31.6-12.9-31.6-27.3L7.8,47.3L7.8,47.3z M246.9,100.3c28.5,0,52.2,5.7,71.3,15.7c20.5,11.4,34.8,25.7,45.8,44.5  c11.1,18.6,15.8,40.2,15.8,63s-4.7,44.5-15.8,63c-9.5,18.6-25.3,33-45.9,44.5c-20.5,11.4-44.4,15.7-72.7,15.7h-57.1V480h-82.5V100.6  h140.9v-0.3H246.9L246.9,100.3z"></path>
</svg>