<?xml version='1.0' encoding='utf-8'?>
<!-- Generator: Adobe Illustrator 27.2.0, SVG Export Plug-In . SVG Version: 6.00 Build 0)  --><svg xmlns="http://www.w3.org/2000/svg" xmlns:xlink="http://www.w3.org/1999/xlink" version="1.1" id="Vrstva_1" x="0px" y="0px" viewBox="0 0 638.4 566.9" style="enable-background:new 0 0 638.4 566.9;" xml:space="preserve" width="450.44983" height="400.0">
<g>
	<path d="M503.5,121.6c0,9.8-1.3,19.2-4,28.2s-6.4,17.3-11.2,25c-4.8,7.7-10.6,14.6-17.4,20.8c-6.8,6.1-14.2,11.3-22.3,15.6v42.6   c0,4.9-0.1,9.9-0.3,14.9c-0.2,5-0.9,10.1-2,15.2c-1.1,5.1-2.8,10.2-5.2,15.1c-2.3,4.9-5.8,9.6-10.2,14.1   c-4.9,4.7-10.1,8.3-15.6,10.9c-5.5,2.6-10.9,4.4-16.2,5.5s-10.6,1.8-15.8,2s-9.8,0.3-14.1,0.3H5.2v-91.1h351.8v-29.5   c-8-4.2-15.4-9.4-22.1-15.6c-6.7-6.1-12.5-13.1-17.3-20.8c-4.8-7.7-8.5-16-11.2-25c-2.7-8.9-4-18.3-4-28.2   c0-13.8,2.6-26.9,7.9-39.2s12.4-22.9,21.5-32c9-9,19.6-16.2,31.8-21.4c12.2-5.2,25.1-7.9,38.7-7.9c13.6,0,27.2,2.6,39.5,7.9   c12.3,5.3,23,12.4,32.2,21.4c9.2,9,16.4,19.7,21.6,32C500.9,94.7,503.5,107.7,503.5,121.6L503.5,121.6L503.5,121.6z M589.9,272.4   c-0.7,30.2-6.7,59-18.1,86.4c-12.1,27.7-28.7,52.4-49.9,74c-21.7,21.7-46.3,38.3-74,49.9c-28.8,12.1-59.1,18.1-90.8,18.1h-3v44.9   l-90.1-74l90.1-74.4v41.9c0.7,0.2,1.7,0.3,3,0.3c23.2,0,45.1-4.4,65.7-13.1c20.5-8.7,38.6-20.7,54.1-35.9   c15.5-15.2,27.9-32.9,37-53.1c9.2-20.2,14-41.9,14.4-65.2h-43.2l74-90.1l74,90.1L589.9,272.4L589.9,272.4L589.9,272.4L589.9,272.4z   "></path>
</g>
</svg>