<?xml version='1.0' encoding='utf-8'?>
<!-- Generator: Adobe Illustrator 27.2.0, SVG Export Plug-In . SVG Version: 6.00 Build 0)  --><svg xmlns="http://www.w3.org/2000/svg" xmlns:xlink="http://www.w3.org/1999/xlink" version="1.1" id="Vrstva_1" x="0px" y="0px" viewBox="0 0 429.4 566.9" style="enable-background:new 0 0 429.4 566.9;" xml:space="preserve" width="302.9811" height="400.0">
<g>
	<path d="M207.5,138.5c32.7,0,58.4-25.6,58.4-58.4s-25.6-58.3-58.4-58.3s-58.4,25.6-58.4,58.4S176.2,138.5,207.5,138.5z" fill="#F54C4C"></path>
	<path d="M103.7,405.8c-41.2,22.7-69.8,49.8-72.5,52.5L5.6,432.7l89.6-99.6L103.7,405.8z" fill="#F54C4C"></path>
	<path d="M351.3,110l-76.9,84c-8.6-8.6-20-14.2-32.7-17.1l81.1-93.8C322.8,83.1,351.3,110,351.3,110z" fill="#F54C4C"></path>
	<path d="M423.8,444.2l-25.6,25.6l-11.3-11.4c0,0-28.5-28.5-72.5-52.5l5.8-38.4c55.5,25.6,89.6,64,93.8,64L423.8,444.2L423.8,444.2z   " fill="#F54C4C"></path>
	<path d="M240.2,174l-11.4,11.4l-8.6,11.4l-99.5,108.1L106.6,319l-14.2,14.2v-32.7c0-72.5,55.5-133.7,116.7-133.7   C220.4,168.3,231.7,171.2,240.2,174L240.2,174z" fill="#F54C4C"></path>
	<path d="M324.2,299.1l-8.6,66.9c-5.8-2.9-8.6-2.9-14.2-5.8c-5.6-3-8.6-2.9-14.2-5.8c-22.7-8.6-52.5-14.2-81.1-14.2   s-55.5,5.8-81.1,14.2v-2.9l128-139.4l8.6-11.4l8.6-11.4C304.2,216.7,324.2,255.1,324.2,299.1L324.2,299.1z" fill="#F54C4C"></path>
	<path d="M312.8,405.8l-17.1,139.4h-58.4V428.5h-58.4v116.7h-58.1l-17.1-139.4c2.9-2.9,8.6-5.8,14.2-5.8c2.9-2.9,8.6-5.8,14.2-5.8   c22.7-8.6,49.8-17.1,75.4-17.1s52.5,5.8,75.4,17.1c5.8,2.9,8.6,2.9,14.2,5.8C304.2,400.1,307.1,403,312.8,405.8z" fill="#F54C4C"></path>
</g>
</svg>