<?xml version='1.0' encoding='utf-8'?>
<!-- Generator: Adobe Illustrator 27.2.0, SVG Export Plug-In . SVG Version: 6.00 Build 0)  --><svg xmlns="http://www.w3.org/2000/svg" xmlns:xlink="http://www.w3.org/1999/xlink" version="1.1" id="Vrstva_1" x="0px" y="0px" viewBox="0 0 537.4 566.9" style="enable-background:new 0 0 537.4 566.9;" xml:space="preserve" width="379.18506" height="400.0">
<style type="text/css">
	.st0{fill:none;}
	.st1{fill:#070909;}
	.st2{fill:#080909;}
	.st3{fill:#090A0B;}
	.st4{fill:#0A0B0C;}
	.st5{fill:#0B0C0D;}
	.st6{fill:#0D0D0E;}
	.st7{fill:#0E0F0F;}
	.st8{fill:#121212;}
	.st9{fill:#131415;}
	.st10{fill:#161617;}
	.st11{fill:#1A1A1A;}
	.st12{fill:#1D1D1D;}
	.st13{fill:#202020;}
	.st14{fill:#202121;}
	.st15{fill:#242424;}
	.st16{fill:#252525;}
	.st17{fill:#2A292A;}
	.st18{fill:#2B2C2C;}
	.st19{fill:#2E2F2F;}
	.st20{fill:#313131;}
	.st21{fill:#343435;}
	.st22{fill:#363636;}
	.st23{fill:#383938;}
	.st24{fill:#3B3B3B;}
	.st25{fill:#3D3E3E;}
	.st26{fill:#404040;}
	.st27{fill:#434342;}
	.st28{fill:#464545;}
	.st29{fill:#484848;}
	.st30{fill:#4B4A4B;}
	.st31{fill:#4F4E4E;}
	.st32{fill:#50504F;}
	.st33{fill:#535353;}
	.st34{fill:#565555;}
	.st35{fill:#595858;}
	.st36{fill:#5B5B5B;}
	.st37{fill:#5E5E5E;}
	.st38{fill:#60605F;}
	.st39{fill:#646362;}
	.st40{fill:#666664;}
	.st41{fill:#686867;}
	.st42{fill:#6B6B6B;}
	.st43{fill:#6D6D6D;}
	.st44{fill:#6F6F6E;}
	.st45{fill:#727171;}
	.st46{fill:#747474;}
	.st47{fill:#767676;}
	.st48{fill:#797879;}
	.st49{fill:#7A7B7B;}
	.st50{fill:#7D7D7E;}
	.st51{fill:#808181;}
	.st52{fill:#828383;}
	.st53{fill:#868686;}
	.st54{fill:#878787;}
	.st55{fill:#8A8A8A;}
	.st56{fill:#8B8B8C;}
	.st57{fill:#8F8F8F;}
	.st58{fill:#909090;}
	.st59{fill:#949494;}
	.st60{fill:#979797;}
	.st61{fill:#9A9A9A;}
	.st62{fill:#9D9D9C;}
	.st63{fill:#9E9E9D;}
	.st64{fill:#A2A0A0;}
	.st65{fill:#A3A1A1;}
	.st66{fill:#A6A5A4;}
	.st67{fill:#A7A6A6;}
	.st68{fill:#ABABAB;}
	.st69{fill:#AEADAD;}
	.st70{fill:#B2B1B0;}
	.st71{fill:#B4B4B4;}
	.st72{fill:#B6B6B5;}
	.st73{fill:#B8B8B8;}
	.st74{fill:#BABAB9;}
	.st75{fill:#BDBCBC;}
	.st76{fill:#BFBEBF;}
	.st77{fill:#C3C2C2;}
	.st78{fill:#C6C4C4;}
	.st79{fill:#C9C7C7;}
	.st80{fill:#CBC9C9;}
	.st81{fill:#CDCCCC;}
	.st82{fill:#CFCECF;}
	.st83{fill:#D1D1D1;}
	.st84{fill:#D6D6D6;}
	.st85{fill:#D6D8D7;}
	.st86{fill:#D9D9D9;}
	.st87{fill:#DBDBDB;}
	.st88{fill:#DEDEDD;}
	.st89{fill:#E0E0DF;}
	.st90{fill:#E3E2E2;}
	.st91{fill:#E8E6E6;}
	.st92{fill:#E9E8E8;}
	.st93{fill:#EBEBEB;}
	.st94{fill:#EEEDED;}
	.st95{fill:#F0F0F0;}
	.st96{fill:#F2F2F2;}
	.st97{fill:#F5F4F4;}
	.st98{fill:#F9F9F8;}
	.st99{fill:#FCFCFC;}
	.st100{fill:#FEFEFE;}
	.st101{fill:#FFFFFF;}
</style>
<g>
	<path class="st0" d="M271.6,137.7h30c1.4,0,2.9,0,2.9,1.4c1.4,0,2.9,0,2.9,1.4c1.4,0,2.9,0,2.9,1.4c1.4,0,2.9,0,2.9,1.4   c1.4,0,2.9,1.4,2.9,1.4c1.4,0,2.9,1.4,2.9,1.4c1.4,0,2.9,1.4,2.9,1.4c1.4,0,2.9,1.4,2.9,1.4c1.4,0,2.9,1.4,2.9,1.4   c1.4,0,2.9,1.4,2.9,1.4c1.4,0,2.9,1.4,2.9,1.4c1.4,0,1.4,1.4,2.9,1.4s1.4,1.4,2.9,1.4s1.4,1.4,2.9,1.4s1.4,1.4,2.9,1.4   s1.4,1.4,2.9,1.4s1.4,1.4,2.9,1.4s1.4,1.4,2.9,2.9c1,1,1.9,1.9,2.9,2.9c1,1,1.9,1.9,2.9,2.9c1,1,1.9,1.9,2.9,2.9   c1,1,1.9,1.9,2.9,2.9c1,1,1.9,1.9,2.9,2.9c1,1,1.9,1.9,2.9,2.9c1,1,1.9,1.9,2.9,2.9c1,1,1.9,1.9,2.9,2.9c1,1,1.9,1.9,2.9,2.9   c1,1,1.9,1.9,2.9,2.9c1,1,1.9,1.9,2.9,2.9c1,1,1.9,1.9,2.9,2.9c0,1.4,1.4,1.4,1.4,2.9s1.4,1.4,1.4,2.9s1.4,1.4,1.4,2.9   s1.4,1.4,1.4,2.9s1.4,1.4,1.4,2.9s1.4,1.4,1.4,2.9s1.4,1.4,1.4,2.9s1.4,2.9,1.4,2.9c0,1.4,1.4,2.9,1.4,2.9c0,1.4,1.4,2.9,1.4,2.9   c0,1.4,1.4,2.9,1.4,2.9c0,1.4,1.4,2.9,1.4,2.9c0,1.4,1.4,2.9,1.4,2.9c0,1.4,0,2.9,1.4,2.9c0,1.4,0,2.9,1.4,2.9c0,1.4,0,2.9,1.4,2.9   c0,1.4,0,2.9,1.4,2.9v62.9c0,1.4,0,2.9-1.4,2.9c0,1.4,0,2.9-1.4,2.9c0,1.4,0,2.9-1.4,2.9c0,1.4,0,2.9-1.4,2.9   c0,1.4-1.4,2.9-1.4,2.9c0,1.4-1.4,2.9-1.4,2.9c0,1.4-1.4,2.9-1.4,2.9c0,1.4-1.4,2.9-1.4,2.9c0,1.4-1.4,2.9-1.4,2.9   c0,1.4-1.4,2.9-1.4,2.9c0,1.4-1.4,2.9-1.4,2.9c0,1.4-1.4,1.4-1.4,2.9s-1.4,1.4-1.4,2.9s-1.4,1.4-1.4,2.9s-1.4,1.4-1.4,2.9   s-1.4,1.4-1.4,2.9s-1.4,1.4-1.4,2.9s-1.4,1.4-2.9,2.9l-2.9,2.9l-2.9,2.9l-2.9,2.9c-1,1-1.9,1.9-2.9,2.9c-1,1-1.9,1.9-2.9,2.9   c-1,1-1.9,1.9-2.9,2.9c-1,1-1.9,1.9-2.9,2.9c-1,1-1.9,1.9-2.9,2.9c-1,1-1.9,1.9-2.9,2.9c-1,1-1.9,1.9-2.9,2.9c-1,1-1.9,1.9-2.9,2.9   c-1,1-1.9,1.9-2.9,2.9c-1.4,0-1.4,1.4-2.9,1.4s-1.4,1.4-2.9,1.4s-1.4,1.4-2.9,1.4s-1.4,1.4-2.9,1.4s-1.4,1.4-2.9,1.4   s-1.4,1.4-2.9,1.4s-2.9,1.4-2.9,1.4c-1.4,0-2.9,1.4-2.9,1.4c-1.4,0-2.9,1.4-2.9,1.4c-1.4,0-2.9,1.4-2.9,1.4c-1.4,0-2.9,1.4-2.9,1.4   c-1.4,0-2.9,1.4-2.9,1.4c-1.4,0-2.9,1.4-2.9,1.4c-1.4,0-2.9,1.4-2.9,1.4c-1.4,0-2.9,0-2.9,1.4c-1.4,0-2.9,0-2.9,1.4   c-1.4,0-2.9,0-2.9,1.4h-62.9c-1.4,0-2.9,0-2.9-1.4c-1.4,0-2.9,0-2.9-1.4c-1.4,0-2.9,0-2.9-1.4c-1.4,0-2.9,0-2.9-1.4   c-1.4,0-2.9-1.4-2.9-1.4c-1.4,0-2.9-1.4-2.9-1.4c-1.4,0-2.9-1.4-2.9-1.4c-1.4,0-2.9-1.4-2.9-1.4c-1.4,0-2.9-1.4-2.9-1.4   c-1.4,0-2.9-1.4-2.9-1.4c-1.4,0-2.9-1.4-2.9-1.4c-1.4,0-1.4-1.4-2.9-1.4s-1.4-1.4-2.9-1.4s-1.4-1.4-2.9-1.4s-1.4-1.4-2.9-1.4   s-1.4-1.4-2.9-1.4s-1.4-1.4-2.9-1.4s-1.4-1.4-2.9-2.9c-1-1-1.9-1.9-2.9-2.9c-1-1-1.9-1.9-2.9-2.9c-1-1-1.9-1.9-2.9-2.9   c-1-1-1.9-1.9-2.9-2.9c-1-1-1.9-1.9-2.9-2.9c-1-1-1.9-1.9-2.9-2.9c-1-1-1.9-1.9-2.9-2.9c-1-1-1.9-1.9-2.9-2.9c-1-1-1.9-1.9-2.9-2.9   c-1-1-1.9-1.9-2.9-2.9c-1-1-1.9-1.9-2.9-2.9c-1-1-1.9-1.9-2.9-2.9c0-1.4-1.4-1.4-1.4-2.9s-1.4-1.4-1.4-2.9s-1.4-1.4-1.4-2.9   s-1.4-1.4-1.4-2.9s-1.4-1.4-1.4-2.9s-1.4-1.4-1.4-2.9s-1.4-1.4-1.4-2.9s-1.4-2.9-1.4-2.9c0-1.4-1.4-2.9-1.4-2.9   c0-1.4-1.4-2.9-1.4-2.9c0-1.4-1.4-2.9-1.4-2.9c0-1.4-1.4-2.9-1.4-2.9c0-1.4-1.4-2.9-1.4-2.9c0-1.4,0-2.9-1.4-2.9   c0-1.4,0-2.9-1.4-2.9c0-1.4,0-2.9-1.4-2.9c0-1.4,0-2.9-1.4-2.9v-62.9c0-1.4,0-2.9,1.4-2.9c0-1.4,0-2.9,1.4-2.9c0-1.4,0-2.9,1.4-2.9   c0-1.4,0-2.9,1.4-2.9c0-1.4,1.4-2.9,1.4-2.9c0-1.4,1.4-2.9,1.4-2.9c0-1.4,1.4-2.9,1.4-2.9c0-1.4,1.4-2.9,1.4-2.9   c0-1.4,1.4-2.9,1.4-2.9c0-1.4,1.4-2.9,1.4-2.9l1.4-2.9c0-1.4,1.4-1.4,1.4-2.9s1.4-1.4,1.4-2.9s1.4-1.4,1.4-2.9s1.4-1.4,1.4-2.9   s1.4-1.4,1.4-2.9s1.4-1.4,1.4-2.9s1.4-1.4,2.9-2.9c1-1,1.9-1.9,2.9-2.9c1-1,1.9-1.9,2.9-2.9s1.9-1.9,2.9-2.9c1-1,1.9-1.9,2.9-2.9   c1-1,1.9-1.9,2.9-2.9s1.9-1.9,2.9-2.9s1.9-1.9,2.9-2.9l2.9-2.9l2.9-2.9c1-1,1.9-1.9,2.9-2.9s1.9-1.9,2.9-2.9c1-1,1.9-1.9,2.9-2.9   c1.4,0,1.4-1.4,2.9-1.4s1.4-1.4,2.9-1.4s1.4-1.4,2.9-1.4s1.4-1.4,2.9-1.4s1.4-1.4,2.9-1.4s1.4-1.4,2.9-1.4s2.9-1.4,2.9-1.4   c1.4,0,2.9-1.4,2.9-1.4c1.4,0,2.9-1.4,2.9-1.4c1.4,0,2.9-1.4,2.9-1.4c1.4,0,2.9-1.4,2.9-1.4c1.4,0,2.9-1.4,2.9-1.4   c1.4,0,2.9-1.4,2.9-1.4c1.4,0,2.9-1.4,2.9-1.4c1.4,0,2.9,0,2.9-1.4c1.4,0,2.9,0,2.9-1.4c1.4,0,2.9,0,2.9-1.4H271.6L271.6,137.7z"></path>
	<path class="st1" d="M415.9,279.2l115.8-4.3v7.1l-115.8,1.4L415.9,279.2L415.9,279.2L415.9,279.2z"></path>
	<path class="st2" d="M415.9,274.9l115.8-7.1v7.1l-115.8,4.3L415.9,274.9L415.9,274.9L415.9,274.9z"></path>
	<path class="st2" d="M415.9,272l115.8-10v5.7l-115.8,7.1L415.9,272L415.9,272L415.9,272z"></path>
	<g>
		<path class="st3" d="M415.9,267.7l115.8-12.9v7.2l-115.8,10L415.9,267.7L415.9,267.7L415.9,267.7z"></path>
		<path class="st3" d="M414.5,264.9l115.8-15.7c0,1.4,0,4.3,1.4,5.7l-115.8,12.9C415.9,266.3,414.5,264.9,414.5,264.9L414.5,264.9z"></path>
		<path class="st3" d="M414.5,260.6L528.8,242c0,1.4,0,4.3,1.4,5.7l-115.8,17.2V260.6L414.5,260.6z"></path>
	</g>
	<path class="st4" d="M414.5,257.7l114.3-21.4c0,1.4,1.4,4.3,1.4,5.7l-114.3,18.6C414.5,259.2,414.5,257.7,414.5,257.7z"></path>
	<path class="st4" d="M413.1,253.4l114.3-24.3c0,1.4,1.4,4.3,1.4,5.7l-114.3,21.4C413.1,256.3,413.1,254.9,413.1,253.4L413.1,253.4z   "></path>
	<g>
		<path class="st5" d="M413.1,250.6L526,223.4c0,1.4,1.4,4.3,1.4,5.7l-114.3,24.3V250.6L413.1,250.6z"></path>
		<path class="st5" d="M411.6,246.3l112.9-30c0,1.4,1.4,4.3,1.4,5.7l-112.9,28.6C411.6,249.2,411.6,247.7,411.6,246.3z"></path>
		<path class="st5" d="M410.2,243.4l111.5-32.9c0,1.4,1.4,4.3,1.4,5.7l-112.9,30C411.6,244.9,410.2,244.9,410.2,243.4z"></path>
	</g>
	<g>
		<path class="st6" d="M410.2,239.1l111.5-35.7c0,1.4,1.4,4.3,1.4,5.7L411.6,242C410.2,242,410.2,240.6,410.2,239.1L410.2,239.1z"></path>
		<path class="st6" d="M408.8,236.3l110.1-37.2c0,1.4,1.4,4.3,1.4,5.7l-111.5,35.7V236.3L408.8,236.3L408.8,236.3z"></path>
		<path class="st6" d="M407.3,233.4l108.6-40c1.4,1.4,1.4,4.3,2.9,5.7l-110.1,37.2C407.3,234.9,407.3,233.4,407.3,233.4L407.3,233.4    z"></path>
	</g>
	<path class="st7" d="M405.9,229.1l108.6-42.9c1.4,1.4,1.4,4.3,2.9,5.7l-110.1,41.4C407.3,232,405.9,230.6,405.9,229.1z"></path>
	<path class="st7" d="M404.5,226.3l107.2-45.7c1.4,1.4,1.4,4.3,2.9,5.7l-108.6,42.9C405.9,227.7,404.5,227.7,404.5,226.3   L404.5,226.3L404.5,226.3z"></path>
	<g>
		<path class="st8" d="M403.1,223.4l105.8-48.6c1.4,1.4,1.4,4.3,2.9,5.7l-107.2,45.7C404.5,224.9,403.1,223.4,403.1,223.4    L403.1,223.4z"></path>
		<path class="st8" d="M401.6,219.1L506,167.7c1.4,1.4,1.4,4.3,2.9,5.7L403.1,222C403.1,222,401.6,220.6,401.6,219.1L401.6,219.1z"></path>
		<path class="st8" d="M400.2,216.3L503.1,162c1.4,1.4,1.4,4.3,2.9,5.7l-104.3,51.5C401.6,219.1,400.2,217.7,400.2,216.3    L400.2,216.3z"></path>
	</g>
	<path class="st9" d="M398.8,213.4l101.5-55.8c1.4,1.4,1.4,4.3,2.9,5.7l-102.9,54.3C399.2,215.8,398.8,214.4,398.8,213.4z"></path>
	<path class="st9" d="M395.9,210.6L496,151.9c1.4,1.4,2.9,4.3,2.9,5.7l-101.5,55.8C397.3,212,397.3,210.6,395.9,210.6L395.9,210.6z"></path>
	<g>
		<path class="st10" d="M394.5,207.7l98.6-61.5c1.4,1.4,2.9,4.3,2.9,5.7l-100.1,58.6C395.9,209.1,394.5,207.7,394.5,207.7    L394.5,207.7L394.5,207.7z"></path>
		<path class="st10" d="M393.1,203.4l97.2-62.9c1.4,1.4,2.9,4.3,2.9,5.7l-98.6,61.5C394.5,206.3,393.1,204.8,393.1,203.4    L393.1,203.4z"></path>
		<path class="st10" d="M390.2,200.6l95.8-65.8c1.4,1.4,2.9,4.3,4.3,5.7l-97.2,62.9C391.6,203.4,391.6,202,390.2,200.6L390.2,200.6z    "></path>
	</g>
	<path class="st11" d="M388.8,197.7l94.3-68.6c1.4,1.4,2.9,2.9,4.3,5.7l-95.8,65.8C390.2,200.6,388.8,199.1,388.8,197.7L388.8,197.7   L388.8,197.7z"></path>
	<path class="st11" d="M385.9,194.8l92.9-70c1.4,1.4,2.9,2.9,4.3,5.7l-94.3,68.6C387.3,197.7,387.3,196.3,385.9,194.8L385.9,194.8z"></path>
	<g>
		<path class="st12" d="M384.5,192l91.5-72.9c1.4,1.4,2.9,2.9,4.3,5.7l-92.9,70C385.9,194.8,384.5,193.4,384.5,192L384.5,192z"></path>
		<path class="st12" d="M381.6,189.1l88.6-74.3c1.4,1.4,2.9,2.9,4.3,5.7L383,193.4C383,192,383,190.5,381.6,189.1L381.6,189.1    L381.6,189.1z"></path>
		<path class="st12" d="M378.8,186.3l87.2-77.2c1.4,1.4,2.9,2.9,4.3,4.3l-88.6,74.3C381.6,189.1,380.2,187.7,378.8,186.3    L378.8,186.3L378.8,186.3z"></path>
	</g>
	<path class="st13" d="M377.3,183.4l85.8-78.6c1.4,1.4,2.9,2.9,4.3,4.3l-88.6,77.2C378.8,186.3,377.3,184.8,377.3,183.4L377.3,183.4   z"></path>
	<path class="st13" d="M374.5,182l82.9-81.5c1.4,1.4,2.9,2.9,4.3,4.3l-85.8,78.6C375.9,183.4,375.9,182,374.5,182L374.5,182z"></path>
	<g>
		<path class="st14" d="M371.6,179.1l81.5-82.9c1.4,1.4,2.9,2.9,4.3,4.3L374.5,182C373,180.5,373,179.1,371.6,179.1z"></path>
		<path class="st14" d="M368.8,176.3l78.6-85.8c1.4,1.4,2.9,2.9,4.3,4.3l-80,84.3C371.6,177.7,370.2,177.7,368.8,176.3z"></path>
		<path class="st14" d="M367.3,173.4l77.2-87.2c1.4,1.4,2.9,2.9,4.3,4.3l-78.6,85.8C368.8,176.3,367.3,174.8,367.3,173.4z"></path>
	</g>
	<path class="st15" d="M364.5,172l74.3-88.6c1.4,1.4,2.9,2.9,4.3,4.3l-77.2,87.2C365.9,173.4,364.5,172,364.5,172L364.5,172z"></path>
	<path class="st15" d="M361.6,169.1l72.9-91.5c1.4,1.4,2.9,2.9,4.3,4.3L364.5,172C363,170.5,361.6,170.5,361.6,169.1L361.6,169.1z"></path>
	<g>
		<path class="st16" d="M358.7,167.7l70-92.9c1.4,1.4,2.9,2.9,5.7,4.3l-72.9,91.5C360.2,169.1,358.7,167.7,358.7,167.7L358.7,167.7z    "></path>
		<path class="st16" d="M355.9,164.8l68.6-94.3c1.4,1.4,2.9,2.9,5.7,4.3l-70,92.9C357.3,166.2,355.9,166.2,355.9,164.8L355.9,164.8z    "></path>
		<path class="st16" d="M353,163.4l65.8-95.8c1.4,1.4,2.9,2.9,5.7,4.3l-68.6,92.9C354.5,164.8,353,163.4,353,163.4L353,163.4    L353,163.4z"></path>
	</g>
	<g>
		<path class="st17" d="M350.2,160.5l62.9-97.2c1.4,1.4,4.3,2.9,5.7,4.3L353,163.4C351.6,162,350.2,162,350.2,160.5L350.2,160.5z"></path>
		<path class="st17" d="M345.9,159.1l61.5-98.6c1.4,1.4,4.3,2.9,5.7,2.9l-62.9,97.2C348.7,160.5,347.3,159.1,345.9,159.1    L345.9,159.1L345.9,159.1z"></path>
		<path class="st17" d="M343,157.7l58.6-100.1c1.4,1.4,4.3,2.9,5.7,2.9l-61.5,98.6C345.9,157.7,344.5,157.7,343,157.7L343,157.7    L343,157.7z"></path>
	</g>
	<path class="st18" d="M340.2,154.8l55.8-101.5c1.4,1.4,4.3,1.4,5.7,2.9L343,156.2C343,156.2,341.6,156.2,340.2,154.8L340.2,154.8z"></path>
	<path class="st18" d="M337.3,153.4l52.9-102.9c1.4,1.4,4.3,1.4,5.7,2.9l-55.8,101.5C339.2,154.8,338.3,154.3,337.3,153.4   L337.3,153.4z"></path>
	<g>
		<path class="st19" d="M334.4,152l51.5-104.3c1.4,1.4,4.3,1.4,5.7,2.9l-52.9,102.9C335.9,153.4,334.4,152,334.4,152L334.4,152    L334.4,152z"></path>
		<path class="st19" d="M330.2,150.5l48.6-105.8c1.4,1.4,4.3,1.4,5.7,2.9L333,152C333,152,331.6,150.5,330.2,150.5L330.2,150.5z"></path>
		<path class="st19" d="M327.3,149.1L373,41.9c1.4,1.4,4.3,1.4,5.7,2.9l-48.6,105.8C330.2,150.5,328.7,149.1,327.3,149.1    L327.3,149.1L327.3,149.1z"></path>
	</g>
	<path class="st20" d="M324.4,147.7L367.3,39c1.4,1.4,4.3,1.4,5.7,2.9l-45.7,107.2C325.9,149.1,324.4,147.7,324.4,147.7L324.4,147.7   z"></path>
	<path class="st20" d="M320.2,146.2l40-108.6c1.4,1.4,4.3,1.4,5.7,2.9L323,149.1C323,147.7,321.6,146.2,320.2,146.2L320.2,146.2   L320.2,146.2z"></path>
	<g>
		<path class="st21" d="M317.3,144.8l37.2-110.1c1.4,0,4.3,1.4,5.7,2.9l-40,108.6C320.2,146.2,318.7,144.8,317.3,144.8L317.3,144.8    L317.3,144.8z"></path>
		<path class="st21" d="M314.4,143.4l35.7-111.5c1.4,0,4.3,1.4,5.7,1.4l-37.2,110.1C315.9,144.8,314.4,144.8,314.4,143.4    L314.4,143.4L314.4,143.4z"></path>
		<path class="st21" d="M310.1,143.4L343,31.9c1.4,0,4.3,1.4,5.7,1.4L313,144.8C313,143.4,311.6,143.4,310.1,143.4L310.1,143.4    L310.1,143.4z"></path>
	</g>
	<path class="st22" d="M307.3,141.9l30-112.9c1.4,0,4.3,1.4,5.7,1.4l-32.9,111.5C308.7,141.9,307.3,141.9,307.3,141.9L307.3,141.9z"></path>
	<path class="st22" d="M303,140.5l27.2-112.9c1.4,0,4.3,1.4,5.7,1.4l-28.6,112.9C305.9,141.9,304.4,141.9,303,140.5L303,140.5   L303,140.5z"></path>
	<g>
		<path class="st23" d="M300.1,140.5l24.3-114.3c1.4,0,4.3,1.4,5.7,1.4L303,140.5H300.1z"></path>
		<path class="st23" d="M295.9,139.1l21.4-114.3c1.4,0,4.3,1.4,5.7,1.4l-24.3,114.3C298.7,140.5,297.3,140.5,295.9,139.1    L295.9,139.1L295.9,139.1z"></path>
		<path class="st23" d="M293,139.1l18.6-114.3c1.4,0,4.3,0,5.7,1.4l-21.4,114.3C294.9,139.6,293.9,139.1,293,139.1L293,139.1z"></path>
	</g>
	<path class="st24" d="M288.7,139.1l15.7-115.8c1.4,0,4.3,0,5.7,1.4l-18.6,114.3H288.7L288.7,139.1z"></path>
	<path class="st24" d="M285.8,137.7l12.9-115.8c2.9,0,4.3,0,5.7,1.4l-15.7,115.8C287.8,138.1,286.8,137.7,285.8,137.7L285.8,137.7z"></path>
	<g>
		<path class="st25" d="M281.6,137.7l10-115.8h7.1l-12.9,115.8H281.6L281.6,137.7z"></path>
		<path class="st25" d="M278.7,137.7l7.1-115.8h5.7l-10,115.8H278.7z"></path>
		<path class="st25" d="M274.4,137.7l4.3-117.2h7.1l-7.1,117.2H274.4z"></path>
	</g>
	<g>
		<path class="st26" d="M271.6,137.7L273,21.9h7.1l-4.3,115.8H271.6L271.6,137.7z"></path>
		<path class="st26" d="M268.7,137.7h-1.4l-1.4-115.8h5.7l-1.4,115.8H268.7L268.7,137.7z"></path>
		<path class="st26" d="M267.3,137.7H263l-4.3-115.8h7.1L267.3,137.7L267.3,137.7z"></path>
	</g>
	<path class="st27" d="M260.1,137.7L253,21.9h7.1l4.3,115.8H260.1z"></path>
	<path class="st27" d="M257.3,137.7l-10-115.8h5.7l7.1,115.8H257.3z"></path>
	<g>
		<path class="st28" d="M253,137.7L240.1,21.9h7.1l10,115.8H253L253,137.7z"></path>
		<path class="st28" d="M250.1,139.1L234.4,23.3c1.4,0,4.3,0,5.7-1.4L253,137.7C251.5,137.7,250.1,137.7,250.1,139.1z"></path>
		<path class="st28" d="M245.8,139.1L227.2,24.7c1.4,0,4.3,0,5.7-1.4l15.7,115.8H245.8L245.8,139.1z"></path>
	</g>
	<path class="st29" d="M243,139.1L221.5,24.7c1.4,0,4.3-1.4,5.7-1.4l18.6,114.4C244.4,139.1,243,139.1,243,139.1z"></path>
	<path class="st29" d="M238.7,140.5L214.4,26.2c1.4,0,4.3-1.4,5.7-1.4l21.4,114.3C241.5,140.5,240.1,140.5,238.7,140.5L238.7,140.5   L238.7,140.5z"></path>
	<g>
		<path class="st30" d="M235.8,140.5L208.7,27.6c1.4,0,4.3-1.4,5.7-1.4l24.3,114.3H235.8z"></path>
		<path class="st30" d="M231.5,141.9L201.5,29c1.4,0,4.3-1.4,5.7-1.4l27.2,112.9C234.4,141.9,233,141.9,231.5,141.9L231.5,141.9    L231.5,141.9z"></path>
		<path class="st30" d="M228.7,143.4L195.8,31.9c1.4,0,4.3-1.4,5.7-1.4l30,112.9C230.6,142.4,229.6,142.4,228.7,143.4z"></path>
	</g>
	<path class="st31" d="M224.4,143.4L188.6,31.9c1.4,0,4.3-1.4,5.7-1.4l32.9,111.5C227.2,143.4,225.8,143.4,224.4,143.4L224.4,143.4z   "></path>
	<path class="st31" d="M221.5,144.8L184.4,34.7c1.4,0,4.3-1.4,5.7-1.4l35.7,111.5H221.5L221.5,144.8z"></path>
	<g>
		<path class="st32" d="M218.7,146.2l-40-108.6c1.4-1.4,4.3-1.4,5.7-2.9l37.2,110.1C220.1,144.8,218.7,146.2,218.7,146.2    L218.7,146.2z"></path>
		<path class="st32" d="M214.4,147.7L171.5,39c1.4-1.4,4.3-1.4,5.7-2.9l40,108.6C217.2,146.2,215.8,147.7,214.4,147.7L214.4,147.7z"></path>
		<path class="st32" d="M211.5,149.1L165.8,41.9c1.4-1.4,4.3-1.4,5.7-2.9l42.9,108.6C212.9,147.7,212.9,149.1,211.5,149.1    L211.5,149.1L211.5,149.1z"></path>
	</g>
	<path class="st33" d="M208.7,150.5L160.1,44.7c1.4-1.4,4.3-1.4,5.7-2.9l45.7,107.2C210.1,149.1,208.7,150.5,208.7,150.5z"></path>
	<path class="st33" d="M204.4,152L152.9,47.6c1.4-1.4,4.3-1.4,5.7-2.9l48.6,105.8C207.2,150.5,205.8,152,204.4,152L204.4,152   L204.4,152z"></path>
	<g>
		<path class="st34" d="M201.5,153.4L148.6,50.5c1.4-1.4,4.3-1.4,5.7-2.9L205.8,152C204.4,152,202.9,153.4,201.5,153.4L201.5,153.4z    "></path>
		<path class="st34" d="M198.7,154.8L142.9,53.3c1.4-1.4,4.3-1.4,5.7-2.9l54.3,102.9C201,154.3,199.6,154.8,198.7,154.8L198.7,154.8    z"></path>
		<path class="st34" d="M195.8,157.7L137.2,57.6c1.4-1.4,4.3-2.9,5.7-2.9l55.8,101.5C197.2,156.2,195.8,156.2,195.8,157.7    L195.8,157.7L195.8,157.7z"></path>
	</g>
	<path class="st35" d="M192.9,159.1l-61.5-98.6c1.4-1.4,4.3-2.9,5.7-2.9l58.6,100.1C194.4,157.7,192.9,157.7,192.9,159.1   L192.9,159.1z"></path>
	<path class="st35" d="M188.6,160.5l-62.9-97.2c1.4-1.4,4.3-2.9,5.7-2.9l61.5,98.6C191.5,159.1,190.1,160.5,188.6,160.5L188.6,160.5   L188.6,160.5z"></path>
	<g>
		<path class="st36" d="M185.8,163.4L120,67.6c1.4-1.4,2.9-2.9,5.7-4.3l62.9,97.2C188.6,162,187.2,162,185.8,163.4L185.8,163.4    L185.8,163.4z"></path>
		<path class="st36" d="M182.9,164.8l-68.6-94.3c1.4-1.4,2.9-2.9,5.7-4.3l65.8,95.8C185.8,163.4,184.4,164.8,182.9,164.8    L182.9,164.8z"></path>
		<path class="st36" d="M180.1,167.7l-70-92.9c1.4-1.4,2.9-2.9,5.7-4.3l68.6,94.3C182.9,166.2,181.5,166.2,180.1,167.7L180.1,167.7z    "></path>
	</g>
	<g>
		<path class="st37" d="M177.2,169.1l-72.9-90.1c1.4-1.4,2.9-2.9,5.7-4.3l70,92.9C180.1,167.7,178.6,169.1,177.2,169.1L177.2,169.1z    "></path>
		<path class="st37" d="M174.4,172L100,83.3c1.4-1.4,2.9-2.9,4.3-4.3l72.9,91.5C177.2,170.5,175.8,170.5,174.4,172L174.4,172z"></path>
		<path class="st37" d="M171.5,173.4L94.3,86.2c1.4-1.4,2.9-2.9,4.3-4.3l74.3,88.6C174.4,172,172.9,173.4,171.5,173.4L171.5,173.4z"></path>
	</g>
	<path class="st38" d="M168.6,176.3L90,90.5c1.4-1.4,2.9-2.9,4.3-4.3l77.2,87.2C171.5,174.8,170.1,176.3,168.6,176.3z"></path>
	<path class="st38" d="M167.2,179.1L85.7,96.2c1.4-1.4,2.9-2.9,4.3-4.3l78.6,85.8C168.6,177.7,167.2,177.7,167.2,179.1L167.2,179.1z   "></path>
	<g>
		<path class="st39" d="M164.3,182l-82.9-81.5c1.4-1.4,2.9-2.9,4.3-4.3l81.5,82.9C165.8,179.1,164.3,180.5,164.3,182L164.3,182z"></path>
		<path class="st39" d="M161.5,183.4l-85.8-78.6c1.4-1.4,2.9-2.9,4.3-4.3l82.9,81.5C162.9,182,162.9,183.4,161.5,183.4L161.5,183.4z    "></path>
		<path class="st39" d="M158.6,186.3l-87.2-77.2c1.4-1.4,2.9-2.9,4.3-4.3l85.8,78.6C161.5,184.8,160.1,186.3,158.6,186.3z"></path>
	</g>
	<path class="st40" d="M157.2,189.1l-88.6-74.3c1.4-1.4,2.9-2.9,4.3-4.3l87.2,77.2C158.6,187.7,157.2,189.1,157.2,189.1L157.2,189.1   z"></path>
	<path class="st40" d="M154.3,192l-90.1-72.9c1.4-1.4,2.9-2.9,4.3-5.7l88.6,74.3C155.8,190.5,155.8,192,154.3,192L154.3,192z"></path>
	<g>
		<path class="st41" d="M152.9,194.8l-92.9-70c1.4-1.4,2.9-2.9,4.3-5.7l91.5,72.9C154.3,193.4,152.9,194.8,152.9,194.8L152.9,194.8z    "></path>
		<path class="st41" d="M150.1,197.7l-94.3-68.6c1.4-1.4,2.9-2.9,4.3-5.7l92.9,70C151.5,196.3,151.5,197.7,150.1,197.7L150.1,197.7z    "></path>
		<path class="st41" d="M148.6,200.6l-95.8-65.8c1.4-1.4,2.9-2.9,4.3-5.7l94.3,68.6C150.1,199.1,148.6,200.6,148.6,200.6z"></path>
	</g>
	<path class="st42" d="M145.8,203.4l-97.2-62.9c1.4-1.4,2.9-4.3,4.3-5.7l95.8,65.8C147.2,202,147.2,203.4,145.8,203.4z"></path>
	<path class="st42" d="M144.3,207.7l-98.6-61.5c1.4-1.4,2.9-4.3,2.9-5.7l97.2,62.9C145.8,204.8,144.3,206.3,144.3,207.7L144.3,207.7   z"></path>
	<g>
		<path class="st43" d="M142.9,210.6L42.8,151.9c1.4-1.4,2.9-4.3,2.9-5.7l98.6,61.5C142.9,207.7,142.9,209.1,142.9,210.6    L142.9,210.6L142.9,210.6z"></path>
		<path class="st43" d="M140,213.4L38.6,157.7c1.4-1.4,1.4-4.3,2.9-5.7l100.1,58.6C141.5,210.6,141.5,212,140,213.4z"></path>
		<path class="st43" d="M138.6,216.3L35.7,163.4c1.4-1.4,1.4-4.3,2.9-5.7L140,213.4C140,214.4,139.6,215.3,138.6,216.3z"></path>
	</g>
	<path class="st44" d="M137.2,219.1L32.8,167.7c1.4-1.4,1.4-4.3,2.9-5.7l102.9,54.3C138.6,217.7,137.2,219.1,137.2,219.1   L137.2,219.1z"></path>
	<path class="st44" d="M135.8,223.4L30,174.8c1.4-1.4,1.4-4.3,2.9-5.7l104.3,51.5C137.2,220.6,135.8,222,135.8,223.4L135.8,223.4   L135.8,223.4z"></path>
	<g>
		<path class="st45" d="M134.3,226.3L27.1,180.5c1.4-1.4,1.4-4.3,2.9-5.7l105.8,48.6C135.8,223.4,134.3,224.9,134.3,226.3    L134.3,226.3L134.3,226.3z"></path>
		<path class="st45" d="M132.9,229.1L24.3,186.3c1.4-1.4,1.4-4.3,2.9-5.7l107.2,45.7C134.3,227.7,132.9,227.7,132.9,229.1    L132.9,229.1L132.9,229.1z"></path>
		<path class="st45" d="M131.5,233.4l-108.6-40c1.4-1.4,1.4-4.3,2.9-5.7l108.6,42.9C132.9,230.6,131.5,232,131.5,233.4L131.5,233.4z    "></path>
	</g>
	<g>
		<path class="st46" d="M130,236.3L20,199.1c0-1.4,1.4-4.3,2.9-5.7l108.6,40C131.5,233.4,130,234.9,130,236.3z"></path>
		<path class="st46" d="M128.6,239.1L17.1,203.4c0-1.4,1.4-4.3,1.4-5.7l110.1,37.2C130,237.7,130,239.1,128.6,239.1L128.6,239.1    L128.6,239.1z"></path>
		<path class="st46" d="M128.6,243.4L17.1,210.6c0-1.4,1.4-4.3,1.4-5.7L130,240.6C128.6,240.6,128.6,242,128.6,243.4L128.6,243.4z"></path>
	</g>
	<path class="st47" d="M127.2,246.3l-112.9-30c0-1.4,1.4-4.3,1.4-5.7l111.5,32.9C127.2,244.4,127.2,245.3,127.2,246.3z"></path>
	<path class="st47" d="M125.8,250.6L12.8,223.4c0-1.4,1.4-4.3,1.4-5.7l112.9,30C127.2,247.7,127.2,249.2,125.8,250.6z"></path>
	<g>
		<path class="st48" d="M125.8,253.4L11.4,229.1c0-1.4,1.4-4.3,1.4-5.7l112.9,27.2V253.4L125.8,253.4z"></path>
		<path class="st48" d="M124.3,257.7L10,236.3c0-1.4,1.4-4.3,1.4-5.7l114.4,24.3C125.8,254.9,125.8,256.3,124.3,257.7L124.3,257.7z"></path>
		<path class="st48" d="M124.3,260.6L10,242c0-1.4,0-4.3,1.4-5.7l114.4,21.4C124.3,257.7,124.3,259.2,124.3,260.6L124.3,260.6z"></path>
	</g>
	<path class="st49" d="M124.3,264.9L8.5,249.2c0-1.4,0-4.3,1.4-5.7L124.3,262V264.9L124.3,264.9z"></path>
	<path class="st49" d="M122.9,267.7L7.1,254.9c0-2.9,0-4.3,1.4-5.7l115.8,15.7C122.9,264.9,122.9,266.3,122.9,267.7L122.9,267.7   L122.9,267.7z"></path>
	<g>
		<path class="st50" d="M122.9,272L7.1,262v-7.2l115.8,12.9V272L122.9,272L122.9,272z"></path>
		<path class="st50" d="M122.9,274.9L7.1,267.7V262l115.8,10C122.9,272,122.9,273.5,122.9,274.9L122.9,274.9z"></path>
		<path class="st50" d="M122.9,279.2L7.1,274.9v-7.1l115.8,7.1V279.2L122.9,279.2z"></path>
	</g>
	<path class="st51" d="M122.9,282L7.1,280.6v-7.1l115.8,4.3V282L122.9,282L122.9,282z"></path>
	<path class="st51" d="M122.9,283.5v1.4L7.1,286.3v-5.7l115.8,1.4V283.5L122.9,283.5z"></path>
	<g>
		<path class="st52" d="M122.9,289.2L5.7,293.5v-7.1l115.8-1.4C122.4,286.8,122.9,288.2,122.9,289.2L122.9,289.2L122.9,289.2z"></path>
		<path class="st52" d="M122.9,293.5L7.1,300.6v-7.1l115.8-4.3V293.5z"></path>
		<path class="st52" d="M122.9,296.3l-115.8,10v-5.7l115.8-7.1V296.3L122.9,296.3z"></path>
	</g>
	<path class="st53" d="M122.9,300.6L7.1,313.5v-7.1l115.8-10V300.6L122.9,300.6L122.9,300.6z"></path>
	<path class="st53" d="M124.3,303.5L8.5,319.2c0-1.4,0-4.3-1.4-5.7l115.8-12.9C122.9,301.6,123.4,302.5,124.3,303.5z"></path>
	<g>
		<path class="st54" d="M124.3,307.8L10,326.3c0-1.4,0-4.3-1.4-5.7l115.8-15.7V307.8L124.3,307.8z"></path>
		<path class="st54" d="M124.3,310.6L10,332.1c0-1.4-1.4-4.3-1.4-5.7l114.4-18.6C123.8,308.7,124.3,309.7,124.3,310.6L124.3,310.6z"></path>
		<path class="st54" d="M125.8,314.9L11.4,339.2c0-1.4-1.4-4.3-1.4-5.7L124.3,312C125.8,312,125.8,313.5,125.8,314.9L125.8,314.9    L125.8,314.9z"></path>
	</g>
	<path class="st55" d="M125.8,317.8L12.8,344.9c0-1.4-1.4-4.3-1.4-5.7l114.3-24.3V317.8z"></path>
	<path class="st55" d="M127.2,322.1L14.3,350.6c0-1.4-1.4-4.3-1.4-5.7l112.9-27.2C127.2,319.2,127.2,320.6,127.2,322.1z"></path>
	<g>
		<path class="st56" d="M128.6,324.9L17.1,357.8c0-1.4-1.4-4.3-1.4-5.7l112.9-30C127.2,322.1,127.2,323.5,128.6,324.9z"></path>
		<path class="st56" d="M128.6,329.2L17.1,364.9c0-1.4-1.4-4.3-1.4-5.7l111.5-32.9C128.6,326.3,128.6,327.8,128.6,329.2L128.6,329.2    L128.6,329.2z"></path>
		<path class="st56" d="M130,332.1L20,369.2c0-1.4-1.4-4.3-1.4-5.7L130,327.8V332.1L130,332.1L130,332.1z"></path>
	</g>
	<g>
		<path class="st57" d="M131.5,334.9l-108.6,40c-1.4-1.4-1.4-4.3-2.9-5.7L130,332.1C130,333.5,131.5,334.9,131.5,334.9L131.5,334.9z    "></path>
		<path class="st57" d="M132.9,339.2L24.3,382.1c-1.4-1.4-1.4-4.3-2.9-5.7l108.6-40C131.5,336.3,132.9,337.8,132.9,339.2    L132.9,339.2L132.9,339.2z"></path>
		<path class="st57" d="M134.3,342.1L27.1,387.8c-1.4-1.4-1.4-4.3-2.9-5.7l108.6-42.9C132.9,339.2,134.3,340.6,134.3,342.1    L134.3,342.1z"></path>
	</g>
	<path class="st58" d="M135.8,344.9L30,393.5c-1.4-1.4-1.4-4.3-2.9-5.7l107.2-45.7C134.3,343.5,135.8,344.9,135.8,344.9z"></path>
	<path class="st58" d="M137.2,349.2L32.8,400.7c-1.4-1.4-1.4-4.3-2.9-5.7l105.8-48.6C135.8,346.4,137.2,347.8,137.2,349.2   L137.2,349.2L137.2,349.2z"></path>
	<g>
		<path class="st59" d="M138.6,352.1L35.7,405c-1.4-1.4-1.4-4.3-2.9-5.7l104.4-51.5C137.2,349.2,138.6,350.6,138.6,352.1z"></path>
		<path class="st59" d="M140,354.9L38.6,410.7c-1.4-1.4-1.4-4.3-2.9-5.7l102.9-54.3C139.6,352.5,140,354,140,354.9L140,354.9z"></path>
		<path class="st59" d="M142.9,357.8L42.8,416.4c-1.4-1.4-2.9-4.3-2.9-5.7l101.5-55.8C141.5,356.4,141.5,357.8,142.9,357.8    L142.9,357.8z"></path>
	</g>
	<path class="st60" d="M144.3,360.6l-98.6,61.5c-1.4-1.4-2.9-4.3-2.9-5.7l100.1-58.6C142.9,359.2,142.9,360.6,144.3,360.6   L144.3,360.6L144.3,360.6z"></path>
	<path class="st60" d="M145.8,364.9l-97.2,62.9c-1.4-1.4-2.9-4.3-2.9-5.7l98.6-61.5C144.3,362.1,145.8,363.5,145.8,364.9   L145.8,364.9L145.8,364.9z"></path>
	<g>
		<path class="st61" d="M148.6,367.8l-95.8,65.8c-1.4-1.4-2.9-2.9-4.3-5.7l97.2-62.9C147.2,364.9,147.2,366.4,148.6,367.8    L148.6,367.8z"></path>
		<path class="st61" d="M150.1,370.7l-94.3,68.6c-1.4-1.4-2.9-2.9-4.3-5.7l95.8-65.8C148.6,367.8,150.1,369.2,150.1,370.7    L150.1,370.7z"></path>
		<path class="st61" d="M152.9,373.5l-92.9,70c-1.4-1.4-2.9-2.9-4.3-5.7l94.3-68.6C151.5,370.7,151.5,372.1,152.9,373.5L152.9,373.5    z"></path>
	</g>
	<path class="st62" d="M154.3,376.4l-90.1,72.9c-1.4-1.4-2.9-2.9-4.3-5.7l92.9-70C152.9,373.5,154.3,374.9,154.3,376.4L154.3,376.4   L154.3,376.4z"></path>
	<path class="st62" d="M157.2,379.2l-88.6,74.3c-1.4-1.4-2.9-2.9-4.3-5.7l91.5-72.9C155.8,376.4,155.8,377.8,157.2,379.2z"></path>
	<g>
		<path class="st63" d="M158.6,382.1l-87.2,77.2c-1.4-1.4-2.9-2.9-4.3-4.3l88.6-74.3C157.2,379.2,158.6,380.7,158.6,382.1    L158.6,382.1L158.6,382.1z"></path>
		<path class="st63" d="M161.5,383.5l-85.8,78.6c-1.4-1.4-2.9-2.9-4.3-4.3l87.2-77.2L161.5,383.5L161.5,383.5L161.5,383.5z"></path>
		<path class="st63" d="M164.3,386.4l-82.9,81.5c-1.4-1.4-2.9-2.9-4.3-4.3l85.8-78.6C162.9,384.9,162.9,386.4,164.3,386.4    L164.3,386.4L164.3,386.4z"></path>
	</g>
	<path class="st64" d="M167.2,389.2l-81.5,82.9c-1.4-1.4-2.9-2.9-4.3-4.3l82.9-81.5C164.3,387.8,165.8,387.8,167.2,389.2   L167.2,389.2L167.2,389.2z"></path>
	<path class="st64" d="M168.6,392.1L90,477.9c-1.4-1.4-2.9-2.9-4.3-4.3l81.5-82.9C167.2,390.7,168.6,390.7,168.6,392.1L168.6,392.1   L168.6,392.1z"></path>
	<g>
		<path class="st65" d="M171.5,395l-77.2,87.2c-1.4-1.4-2.9-2.9-4.3-4.3l78.6-85.8C170.1,392.1,171.5,393.5,171.5,395L171.5,395z"></path>
		<path class="st65" d="M174.4,396.4L100,485c-1.4-1.4-2.9-2.9-4.3-4.3l77.2-87.2C172.9,395,174.4,396.4,174.4,396.4L174.4,396.4    L174.4,396.4z"></path>
		<path class="st65" d="M177.2,399.2l-72.9,91.5c-1.4-1.4-2.9-2.9-4.3-4.3l74.3-88.6C175.8,397.8,177.2,397.8,177.2,399.2    L177.2,399.2z"></path>
	</g>
	<g>
		<path class="st66" d="M180.1,400.7l-70,92.9c-1.4-1.4-2.9-2.9-5.7-4.3l72.9-91.5C178.6,399.2,180.1,400.7,180.1,400.7L180.1,400.7    z"></path>
		<path class="st66" d="M182.9,403.5l-68.6,94.3c-1.4-1.4-2.9-2.9-5.7-4.3l70-92.9C181.5,402.1,182.9,402.1,182.9,403.5L182.9,403.5    z"></path>
		<path class="st66" d="M185.8,405L120,500.7c-1.4-1.4-2.9-2.9-5.7-4.3l68.6-94.3C184.4,403.5,185.8,405,185.8,405L185.8,405z"></path>
	</g>
	<path class="st67" d="M188.6,407.8L125.8,505c-1.4-1.4-4.3-2.9-5.7-4.3l65.8-95.8C187.2,406.4,188.6,406.4,188.6,407.8z"></path>
	<path class="st67" d="M192.9,409.2l-61.5,98.6c-1.4-1.4-4.3-2.9-5.7-2.9l62.9-97.2C190.1,407.8,191.5,409.2,192.9,409.2   L192.9,409.2z"></path>
	<g>
		<path class="st68" d="M195.8,410.7l-58.6,100.1c-1.4-1.4-4.3-2.9-5.7-2.9l61.5-98.6C192.9,409.2,194.4,410.7,195.8,410.7    L195.8,410.7L195.8,410.7z"></path>
		<path class="st68" d="M198.7,413.5L142.9,515c-1.4-1.4-4.3-1.4-5.7-2.9l58.6-100.1C195.8,412.1,197.2,412.1,198.7,413.5    L198.7,413.5L198.7,413.5z"></path>
		<path class="st68" d="M201.5,415l-52.9,102.9c-1.4-1.4-4.3-1.4-5.7-2.9l55.8-101.5C199.6,413.5,200.6,414,201.5,415L201.5,415    L201.5,415z"></path>
	</g>
	<path class="st69" d="M204.4,416.4l-51.5,104.3c-1.4-1.4-4.3-1.4-5.7-2.9L200.1,415C202.9,415,204.4,416.4,204.4,416.4L204.4,416.4   z"></path>
	<path class="st69" d="M208.7,417.8l-48.6,105.8c-1.4-1.4-4.3-1.4-5.7-2.9l51.5-104.3C205.8,416.4,207.2,417.8,208.7,417.8   L208.7,417.8L208.7,417.8z"></path>
	<g>
		<path class="st70" d="M211.5,419.3l-45.7,107.2c-1.4-1.4-4.3-1.4-5.7-2.9l48.6-105.8C208.7,417.8,210.1,419.3,211.5,419.3    L211.5,419.3L211.5,419.3z"></path>
		<path class="st70" d="M214.4,420.7l-42.9,108.6c-1.4-1.4-4.3-1.4-5.7-2.9l45.7-107.2C212.9,419.2,212.9,420.7,214.4,420.7    L214.4,420.7z"></path>
		<path class="st70" d="M218.7,422.1l-40,108.6c-1.4-1.4-4.3-1.4-5.7-2.9l42.9-108.6C215.8,420.7,217.2,422.1,218.7,422.1z"></path>
	</g>
	<path class="st71" d="M221.5,423.5l-37.2,110.1c-1.4,0-4.3-1.4-5.7-2.9l40-108.6C218.7,422.1,220.1,422.1,221.5,423.5L221.5,423.5   L221.5,423.5z"></path>
	<path class="st71" d="M224.4,425l-35.7,111.5c-1.4,0-4.3-1.4-5.7-1.4L220.1,425C222.9,423.5,224.4,423.5,224.4,425L224.4,425z"></path>
	<g>
		<path class="st72" d="M228.7,425l-32.9,111.5c-1.4,0-4.3-1.4-5.7-1.4l35.7-111.5C225.8,425,227.2,425,228.7,425L228.7,425    L228.7,425z"></path>
		<path class="st72" d="M231.5,426.4l-30,112.9c-1.4,0-4.3-1.4-5.7-1.4l32.9-111.5C230.1,425,230.1,426.4,231.5,426.4L231.5,426.4z"></path>
		<path class="st72" d="M235.8,427.8l-27.2,112.9c-1.4,0-4.3-1.4-5.7-1.4l30-112.9C233,426.4,234.4,426.4,235.8,427.8L235.8,427.8    L235.8,427.8z"></path>
	</g>
	<path class="st73" d="M238.7,427.8l-24.3,114.3c-1.4,0-4.3-1.4-5.7-1.4l27.2-112.9L238.7,427.8L238.7,427.8z"></path>
	<path class="st73" d="M243,429.3l-21.4,114.3c-1.4,0-4.3-1.4-5.7-1.4l24.3-114.3C240.1,427.8,241.5,427.8,243,429.3L243,429.3   L243,429.3z"></path>
	<g>
		<path class="st74" d="M245.8,429.3l-18.6,114.3c-1.4,0-4.3,0-5.7-1.4L243,427.8C243,429.3,244.4,429.3,245.8,429.3L245.8,429.3z"></path>
		<path class="st74" d="M250.1,429.3L234.4,545c-1.4,0-4.3,0-5.7-1.4l18.6-114.3L250.1,429.3L250.1,429.3z"></path>
		<path class="st74" d="M253,430.7l-12.9,115.8c-2.9,0-4.3,0-5.7-1.4l15.7-115.8C250.1,429.3,251.5,430.7,253,430.7L253,430.7z"></path>
	</g>
	<path class="st75" d="M257.3,430.7l-10,115.8h-7.1L253,430.7L257.3,430.7L257.3,430.7z"></path>
	<path class="st75" d="M260.1,430.7L253,546.5h-5.7l10-115.8C257.3,430.7,258.7,430.7,260.1,430.7L260.1,430.7L260.1,430.7z"></path>
	<g>
		<path class="st76" d="M264.4,430.7l-4.3,115.8H253l7.1-115.8L264.4,430.7L264.4,430.7z"></path>
		<path class="st76" d="M267.3,430.7l-1.4,115.8h-7.1l4.3-115.8L267.3,430.7L267.3,430.7z"></path>
		<path class="st76" d="M268.7,430.7h1.4l1.4,115.8h-5.7l1.4-115.8L268.7,430.7L268.7,430.7z"></path>
	</g>
	<g>
		<path class="st77" d="M274.4,430.7l4.3,115.8h-7.1l-1.4-115.8L274.4,430.7L274.4,430.7z"></path>
		<path class="st77" d="M278.7,430.7l7.1,115.8h-7.1l-4.3-115.8L278.7,430.7L278.7,430.7z"></path>
		<path class="st77" d="M281.6,430.7l10,115.8h-5.7l-7.1-115.8L281.6,430.7L281.6,430.7z"></path>
	</g>
	<path class="st78" d="M285.8,430.7l12.9,115.8h-7.1l-10-115.8L285.8,430.7L285.8,430.7z"></path>
	<path class="st78" d="M288.7,429.3L304.4,545c-1.4,0-4.3,0-5.7,1.4l-12.9-115.8C287.3,430.7,287.3,429.3,288.7,429.3L288.7,429.3z"></path>
	<g>
		<path class="st79" d="M293,429.3l18.6,114.3c-1.4,0-4.3,0-5.7,1.4l-15.7-115.8L293,429.3L293,429.3z"></path>
		<path class="st79" d="M295.9,429.3l21.4,114.3c-1.4,0-4.3,1.4-5.7,1.4L293,430.7C293.9,429.7,294.9,429.3,295.9,429.3L295.9,429.3    L295.9,429.3z"></path>
		<path class="st79" d="M300.1,427.8l24.3,114.3c-1.4,0-4.3,1.4-5.7,1.4l-21.4-114.3C297.3,427.8,298.7,427.8,300.1,427.8    L300.1,427.8z"></path>
	</g>
	<path class="st80" d="M303,427.8l27.2,112.9c-1.4,0-4.3,1.4-5.7,1.4l-24.3-114.3H303z"></path>
	<path class="st80" d="M307.3,426.4l30,112.9c-1.4,0-4.3,1.4-5.7,1.4l-27.2-112.9C304.4,426.4,305.9,426.4,307.3,426.4L307.3,426.4z   "></path>
	<g>
		<path class="st81" d="M310.1,425L343,536.5c-1.4,0-4.3,1.4-5.7,1.4l-30-111.5C307.3,426.4,308.7,425,310.1,425L310.1,425    L310.1,425z"></path>
		<path class="st81" d="M314.4,425l35.7,111.5c-1.4,0-4.3,1.4-5.7,1.4l-32.9-111.5C311.6,425,313,425,314.4,425L314.4,425L314.4,425    z"></path>
		<path class="st81" d="M317.3,423.5l37.2,110.1c-1.4,0-4.3,1.4-5.7,1.4L313,423.5H317.3L317.3,423.5z"></path>
	</g>
	<path class="st82" d="M320.2,422.1l40,108.6c-1.4,1.4-4.3,1.4-5.7,2.9l-37.2-110.1C318.2,422.6,319.2,422.1,320.2,422.1   L320.2,422.1z"></path>
	<path class="st82" d="M324.4,420.7l42.9,108.6c-1.4,1.4-4.3,1.4-5.7,2.9l-41.5-110.1C321.6,422.1,323,420.7,324.4,420.7   L324.4,420.7L324.4,420.7z"></path>
	<g>
		<path class="st83" d="M327.3,419.3L373,526.5c-1.4,1.4-4.3,1.4-5.7,2.9l-42.9-108.6C324.4,420.7,325.9,419.3,327.3,419.3    L327.3,419.3z"></path>
		<path class="st83" d="M330.2,417.8l48.6,105.8c-1.4,1.4-4.3,1.4-5.7,2.9l-45.7-107.2C328.7,419.3,330.2,417.8,330.2,417.8    L330.2,417.8L330.2,417.8z"></path>
		<path class="st83" d="M334.4,416.4l51.5,104.3c-2.9,1.4-4.3,1.4-7.2,2.9l-48.6-105.8C331.6,417.8,333,416.4,334.4,416.4z"></path>
	</g>
	<path class="st84" d="M337.3,415l52.9,102.9c-1.4,1.4-4.3,1.4-5.7,2.9L333,416.4C334.4,416.4,335.9,415,337.3,415L337.3,415z"></path>
	<path class="st84" d="M340.2,413.5L395.9,515c-1.4,1.4-4.3,1.4-5.7,2.9L337.3,415C338.3,414,339.2,413.5,340.2,413.5L340.2,413.5   L340.2,413.5z"></path>
	<g>
		<path class="st85" d="M343,410.7l58.6,100.1c-1.4,1.4-4.3,1.4-5.7,2.9l-55.8-101.5C341.6,412.1,343,412.1,343,410.7L343,410.7    L343,410.7z"></path>
		<path class="st85" d="M345.9,409.2l61.5,98.6c-1.4,1.4-4.3,2.9-5.7,2.9L343,410.7C344.4,410.7,345.9,409.2,345.9,409.2    L345.9,409.2L345.9,409.2z"></path>
		<path class="st85" d="M350.2,407.8l62.9,97.2c-1.4,1.4-4.3,2.9-5.7,2.9l-61.5-98.6C347.3,409.2,348.7,407.8,350.2,407.8    L350.2,407.8L350.2,407.8z"></path>
	</g>
	<g>
		<path class="st86" d="M353,405l65.8,95.8c-1.4,1.4-2.9,2.9-5.7,4.3l-62.9-97.2C350.2,406.4,351.6,406.4,353,405L353,405L353,405z"></path>
		<path class="st86" d="M355.9,403.5l68.6,94.3c-1.4,1.4-2.9,2.9-5.7,4.3L353,406.4C353,405,354.5,403.5,355.9,403.5L355.9,403.5    L355.9,403.5z"></path>
		<path class="st86" d="M358.7,400.7l70,92.9c-1.4,1.4-2.9,2.9-5.7,4.3l-68.6-94.3C355.9,402.1,357.3,402.1,358.7,400.7L358.7,400.7    z"></path>
	</g>
	<path class="st87" d="M361.6,399.2l72.9,91.5c-1.4,1.4-2.9,2.9-5.7,4.3l-70-92.9C358.7,400.7,360.2,399.2,361.6,399.2L361.6,399.2z   "></path>
	<path class="st87" d="M364.5,396.4l74.3,88.6c-1.4,1.4-2.9,2.9-4.3,4.3l-72.9-91.5C361.6,397.8,363,397.8,364.5,396.4L364.5,396.4z   "></path>
	<g>
		<path class="st88" d="M367.3,395l77.2,87.2c-1.4,1.4-2.9,2.9-4.3,4.3l-75.8-90C364.5,396.4,365.9,395,367.3,395L367.3,395    L367.3,395z"></path>
		<path class="st88" d="M368.8,392.1l78.6,85.8c-1.4,1.4-2.9,2.9-4.3,4.3L365.9,395C367.3,393.5,368.8,392.1,368.8,392.1    L368.8,392.1L368.8,392.1z"></path>
		<path class="st88" d="M371.6,389.2l81.5,82.9l-4.3,4.3l-78.6-85.8C370.2,390.7,371.6,390.7,371.6,389.2L371.6,389.2L371.6,389.2z"></path>
	</g>
	<path class="st89" d="M374.5,386.4l82.9,81.5c-1.4,1.4-2.9,2.9-4.3,4.3l-81.5-82.9C372.6,388.3,373.5,387.3,374.5,386.4   L374.5,386.4L374.5,386.4z"></path>
	<path class="st89" d="M377.3,383.5l85.8,78.6c-1.4,1.4-2.9,2.9-4.3,4.3l-82.9-81.5C375.9,386.4,375.9,384.9,377.3,383.5   L377.3,383.5L377.3,383.5z"></path>
	<g>
		<path class="st90" d="M378.8,382.1l87.2,77.2c-1.4,1.4-2.9,2.9-4.3,4.3l-85.8-78.6L378.8,382.1L378.8,382.1z"></path>
		<path class="st90" d="M381.6,379.2l88.6,74.3c-1.4,1.4-2.9,2.9-4.3,4.3l-87.2-75.8C380.2,380.7,381.6,379.2,381.6,379.2z"></path>
		<path class="st90" d="M384.5,376.4l91.5,72.9c-1.4,1.4-2.9,2.9-4.3,5.7l-90-75.8C383,377.8,383,376.4,384.5,376.4L384.5,376.4z"></path>
	</g>
	<path class="st91" d="M385.9,373.5l92.9,70c-1.4,1.4-2.9,2.9-4.3,5.7L383,376.4C384.5,374.9,385.9,373.5,385.9,373.5L385.9,373.5   L385.9,373.5z"></path>
	<path class="st91" d="M388.8,370.7l94.3,68.6c-1.4,1.4-2.9,2.9-4.3,5.7l-92.9-70C387.3,372.1,387.3,370.7,388.8,370.7L388.8,370.7z   "></path>
	<g>
		<path class="st92" d="M390.2,367.8l95.8,65.8c-1.4,1.4-2.9,2.9-4.3,5.7l-94.3-68.6C388.8,369.2,390.2,367.8,390.2,367.8    L390.2,367.8L390.2,367.8z"></path>
		<path class="st92" d="M393.1,364.9l97.2,62.9c-1.4,1.4-2.9,4.3-4.3,5.7l-95.8-65.8C391.6,366.4,391.6,364.9,393.1,364.9    L393.1,364.9z"></path>
		<path class="st92" d="M394.5,360.6l98.6,61.5c-1.4,1.4-2.9,4.3-2.9,5.7L393,364.9C393,363.5,394.5,362.1,394.5,360.6L394.5,360.6z    "></path>
	</g>
	<path class="st93" d="M395.9,357.8L496,416.4c-1.4,1.4-2.9,4.3-2.9,5.7l-98.6-61.5C394.5,360.7,395.9,359.2,395.9,357.8   L395.9,357.8L395.9,357.8z"></path>
	<path class="st93" d="M398.8,354.9l101.5,55.8c-1.4,1.4-1.4,4.3-2.9,5.7l-100.1-58.6C397.3,357.8,397.3,356.4,398.8,354.9z"></path>
	<g>
		<path class="st94" d="M400.2,352.1l102.9,54.3c-1.4,1.4-1.4,4.3-2.9,5.7l-101.5-55.8C398.8,354.5,399.2,353,400.2,352.1z"></path>
		<path class="st94" d="M401.6,349.2L506,400.7c-1.4,1.4-1.4,4.3-2.9,5.7l-102.9-54.3C400.2,350.6,401.6,349.2,401.6,349.2    L401.6,349.2z"></path>
		<path class="st94" d="M403.1,344.9l105.8,48.6c-1.4,1.4-1.4,4.3-2.9,5.7l-104.3-51.5C401.6,347.8,403.1,346.4,403.1,344.9    L403.1,344.9z"></path>
	</g>
	<path class="st95" d="M404.5,342.1l107.2,45.7c-1.4,1.4-1.4,4.3-2.9,5.7l-105.8-48.6C403.1,344.9,404.5,343.5,404.5,342.1   L404.5,342.1z"></path>
	<path class="st95" d="M405.9,339.2l108.6,42.9c-1.4,1.4-1.4,4.3-2.9,5.7l-107.2-45.7C404.5,340.6,405.9,339.2,405.9,339.2   L405.9,339.2L405.9,339.2z"></path>
	<g>
		<path class="st96" d="M407.3,334.9l108.6,40c-1.4,1.4-1.4,4.3-2.9,5.7l-108.6-42.9C405.9,337.8,407.3,336.3,407.3,334.9z"></path>
		<path class="st96" d="M408.8,332.1l110.1,37.2c0,1.4-1.4,4.3-2.9,5.7l-108.6-40C407.3,334.9,407.3,333.5,408.8,332.1L408.8,332.1z    "></path>
		<path class="st96" d="M410.2,329.2l111.5,35.7c0,1.4-1.4,4.3-1.4,5.7l-110.1-37.2C408.8,330.6,408.8,329.2,410.2,329.2    L410.2,329.2L410.2,329.2z"></path>
	</g>
	<g>
		<path class="st97" d="M410.2,324.9l111.5,32.9c0,1.4-1.4,4.3-1.4,5.7l-111.5-35.7C410.2,327.8,410.2,326.3,410.2,324.9    L410.2,324.9z"></path>
		<path class="st97" d="M411.6,322.1l112.9,30c0,1.4-1.4,4.3-1.4,5.7l-111.5-32.9C410.2,323.5,411.6,322.1,411.6,322.1z"></path>
		<path class="st97" d="M413.1,317.8L526,344.9c0,1.4-1.4,4.3-1.4,5.7l-112.9-28.6C411.6,320.6,411.6,319.2,413.1,317.8z"></path>
	</g>
	<path class="st98" d="M413.1,314.9l114.3,24.3c0,1.4-1.4,4.3-1.4,5.7l-112.9-27.2V314.9z"></path>
	<path class="st98" d="M414.5,310.6l114.3,21.4c0,1.4-1.4,4.3-1.4,5.7l-114.3-24.3C413.1,313.5,413.1,312,414.5,310.6L414.5,310.6   L414.5,310.6z"></path>
	<g>
		<path class="st99" d="M414.5,307.8l114.3,18.6c0,1.4,0,4.3-1.4,5.7l-114.3-21.4C414,309.7,414.5,308.7,414.5,307.8L414.5,307.8z"></path>
		<path class="st99" d="M414.5,303.5l115.8,15.7c0,1.4,0,4.3-1.4,5.7l-114.3-18.6L414.5,303.5L414.5,303.5z"></path>
		<path class="st99" d="M415.9,300.6l115.8,12.9c0,2.9,0,4.3-1.4,5.7l-115.8-15.7C414.5,302,415.9,302,415.9,300.6L415.9,300.6z"></path>
	</g>
	<path class="st100" d="M415.9,296.3l115.8,10v7.1l-115.8-12.9L415.9,296.3L415.9,296.3L415.9,296.3z"></path>
	<path class="st100" d="M415.9,293.5l115.8,7.1v5.7l-115.8-10L415.9,293.5L415.9,293.5L415.9,293.5z"></path>
	<path class="st101" d="M415.9,289.2l115.8,4.3v7.1l-115.8-7.1L415.9,289.2L415.9,289.2L415.9,289.2z"></path>
	<path class="st101" d="M415.9,286.3l115.8,1.4v7.1l-115.8-4.3L415.9,286.3L415.9,286.3L415.9,286.3z"></path>
	<path class="st1" d="M415.9,283.5V282l115.8-1.4v5.7l-115.8-1.4L415.9,283.5L415.9,283.5z"></path>
</g>
</svg>