<?xml version='1.0' encoding='utf-8'?>
<!-- Generator: Adobe Illustrator 27.2.0, SVG Export Plug-In . SVG Version: 6.00 Build 0)  --><svg xmlns="http://www.w3.org/2000/svg" xmlns:xlink="http://www.w3.org/1999/xlink" version="1.1" id="Vrstva_1" x="0px" y="0px" viewBox="0 0 531.4 566.9" style="enable-background:new 0 0 531.4 566.9;" xml:space="preserve" width="374.9515" height="400.0">
<g>
	<path d="M55.9,283.5c0-100.9,71.4-185.4,166.3-205.7V27C99.5,48.1,6,155,6,283.5S99.5,519,222.2,540v-50.8   C127.2,469,55.9,384.5,55.9,283.5L55.9,283.5L55.9,283.5z" fill="#51F093"></path>
	<path d="M526.4,283.5c0-128.8-94-236-217.1-256.7v50.6c95.4,20,167.3,104.8,167.3,206s-71.9,186-167.3,205.9V540   C432.4,519.6,526.4,412.3,526.4,283.5L526.4,283.5L526.4,283.5z" fill="#51F093"></path>
	<path d="M325,228.9h-22.9v-65.2h-15.5v65.2h-41.2v-65.2h-15.5v65.2h-22v57.4c0,0-0.9,48.8,45.9,56.3v88.2h24.8v-87.9   c48-7.1,46.6-56.5,46.6-56.5L325,228.9L325,228.9z" fill="#51F093"></path>
</g>
</svg>