<?xml version='1.0' encoding='utf-8'?>
<!-- Generator: Adobe Illustrator 27.2.0, SVG Export Plug-In . SVG Version: 6.00 Build 0)  --><svg xmlns="http://www.w3.org/2000/svg" xmlns:xlink="http://www.w3.org/1999/xlink" version="1.1" id="Vrstva_1" x="0px" y="0px" viewBox="0 0 592.4 566.9" style="enable-background:new 0 0 592.4 566.9;" xml:space="preserve" width="417.9926" height="400.0">
<g>
	<path d="M150.8,97.2l-61.4,96.1H503l-61.4-96.1L150.8,97.2L150.8,97.2L150.8,97.2z M90,426.9v58.9H5.2V267l64.1-73.7l76.1-112.1   h301.5L523,193.3l64.1,73.7v218.8h-84.7v-58.9L90,426.9L90,426.9L90,426.9L90,426.9L90,426.9z M32.1,286.6l98.2,23.6l-5.4-41.3   l-92.8-9.4L32.1,286.6L32.1,286.6z M256.3,270.1L146.7,267l24.5,72.4h250l24.5-72.4L336,270.1l-11.6,12.7h-56.5L256.3,270.1   L256.3,270.1L256.3,270.1L256.3,270.1z M560.2,259.5l-92.8,9.4l-5.3,41.3l98.2-23.6V259.5L560.2,259.5z"></path>
	<path d="M49.5,158.9c19,0,23.1,8.9,23.1,19.9s-4.1,19.9-23.1,19.9s-34.4-8.9-34.4-19.9S30.5,158.9,49.5,158.9L49.5,158.9z"></path>
	<path d="M542.7,158.9c-19,0-23.1,8.9-23.1,19.9s4.1,19.9,23.1,19.9s34.4-8.9,34.4-19.9S561.8,158.9,542.7,158.9z"></path>
</g>
</svg>