<?xml version='1.0' encoding='utf-8'?>
<!-- Generator: Adobe Illustrator 27.2.0, SVG Export Plug-In . SVG Version: 6.00 Build 0)  --><svg xmlns="http://www.w3.org/2000/svg" xmlns:xlink="http://www.w3.org/1999/xlink" version="1.1" id="Vrstva_1" x="0px" y="0px" viewBox="0 0 776.4 566.9" style="enable-background:new 0 0 776.4 566.9;" xml:space="preserve" width="547.8215" height="400.0">
<g>
	<path d="M636.8,381.1h-173c-91.4,0-165.7-74.3-165.7-165.7S372.4,49.7,463.7,49.7h173V381.1L636.8,381.1L636.8,381.1z M463.7,108.3   c-59.1,0-107.1,48.1-107.1,107.1s48.1,107.1,107.1,107.1h114.5V108.3L463.7,108.3L463.7,108.3z"></path>
	<path d="M126.8,517.2H5v-58.6h121.8c39.8,0,67-8.9,74.6-24.4c8-16.2-1.7-45.9-24.6-75.6c-34.7-45-44.8-90.7-27.7-125.3   c8.7-17.6,32-47.2,91.2-47.2h86.9v58.6h-86.9c-20.1,0-34.2,5.3-38.7,14.4c-4.9,10.1-2.3,32.8,21.5,63.7   c38.1,49.4,49.3,99.4,30.7,137.2C241.2,486.1,208.7,517.2,126.8,517.2L126.8,517.2L126.8,517.2z"></path>
	<rect x="607.5" y="264.2" width="163.8" height="58.6"></rect>
	<rect x="607.5" y="108.1" width="163.8" height="58.6"></rect>
</g>
</svg>