<?xml version='1.0' encoding='utf-8'?>
<!-- Generator: Adobe Illustrator 27.2.0, SVG Export Plug-In . SVG Version: 6.00 Build 0)  --><svg xmlns="http://www.w3.org/2000/svg" xmlns:xlink="http://www.w3.org/1999/xlink" version="1.1" id="Vrstva_1" x="0px" y="0px" viewBox="0 0 568.4 566.9" style="enable-background:new 0 0 568.4 566.9;" xml:space="preserve" width="401.0584" height="400.0">
<g>
	<path d="M563.2,135.7c0-71.3-57.6-128.9-128.9-128.9S305.5,64.4,305.5,135.7c0,66.7,50,121.3,115.3,127.4v171.4H448V263.1   C511.5,257,563.2,202.3,563.2,135.7L563.2,135.7L563.2,135.7z M475.2,166h-84.9v-57.7h84.9V166z" fill="#FFCE63"></path>
	<path d="M158.2,508.6h118.3v25.7c0,16.6,16.6,25.7,25.7,25.7h31.8c9.1,0,25.7-9.1,25.7-25.7V375.3l-33.4-51.5h31.8V292h-53.1   l-31.8-53.1l-7.5-1.4c-6.1-1.4-12.1-3-24.3-6.1c-19.7-3-50-7.5-84.9-7.5v30.4c30.4,0,59.1,3,75.8,7.5c7.5,1.5,10.6,1.5,16.6,3   l47,74.3H156.5v169.8h1.7V508.6L158.2,508.6z M202.2,375.3h115.3v57.6h-31.8L269,408.6h-40.9L202.2,375.3L202.2,375.3z" fill="#FFCE63"></path>
	<rect x="20.3" y="85.6" width="71.3" height="313.8" fill="#FFCE63"></rect>
	<circle cx="56.7" cy="478.3" r="51.5" fill="#FFCE63"></circle>
</g>
</svg>