<?xml version='1.0' encoding='utf-8'?>
<!-- Generator: Adobe Illustrator 27.2.0, SVG Export Plug-In . SVG Version: 6.00 Build 0)  --><svg xmlns="http://www.w3.org/2000/svg" xmlns:xlink="http://www.w3.org/1999/xlink" version="1.1" id="Vrstva_1" x="0px" y="0px" viewBox="0 0 357.4 566.9" style="enable-background:new 0 0 357.4 566.9;" xml:space="preserve" width="252.1785" height="400.0">
<style type="text/css">
	.st0{fill-rule:evenodd;clip-rule:evenodd;}
</style>
<g>
	<path class="st0" d="M126.5,451.8c-17-29.7-35.3-60.9-52.4-93.3c-5.6-10-11.2-19.7-18.5-31.2C30.1,285,4.8,241.2,4.8,190.1   c0-93.3,80.5-168.2,174-168.2c116,0,196.6,110.2,168.2,220.6c-8.5,33.9-25.6,60.9-43.8,89c-7.1,11.2-14.1,21.2-19.7,32.5   c-11.2,19.7-22.7,39.7-35.3,58c-11.2,18.5-22.7,38.1-35.3,58c-5.6,11.2-11.2,21.2-17,32.5c-5.6,10-11.2,19.7-17,32.5   C160.5,512.7,143.6,483,126.5,451.8L126.5,451.8z M109.6,197.2c0,36.8,32.5,69.3,69.3,69.3s69.3-32.6,69.3-69.3   s-32.5-69.3-69.3-69.3C140.7,127.8,109.6,160.5,109.6,197.2L109.6,197.2z"></path>
</g>
</svg>