<?xml version='1.0' encoding='utf-8'?>
<!-- Generator: Adobe Illustrator 27.2.0, SVG Export Plug-In . SVG Version: 6.00 Build 0)  --><svg xmlns="http://www.w3.org/2000/svg" xmlns:xlink="http://www.w3.org/1999/xlink" version="1.1" id="Vrstva_1" x="0px" y="0px" viewBox="0 0 420.4 566.9" style="enable-background:new 0 0 420.4 566.9;" xml:space="preserve" width="296.6308" height="400.0">
<style type="text/css">
	.st0{fill-rule:evenodd;clip-rule:evenodd;}
</style>
<g>
	<path class="st0" d="M111.4,198.9c-13.9,8.8-29.3,20.2-41.9,32.9C47.9,256,27.5,300.2,45.2,333.1c10.2,18.9,40.8,17.8,69.8,16.5   c22.9-1.3,47-1.3,61,6.4c29.3,16.5,13.9,63.3-11.5,64.5c-33,1.3-62.3,12.7-67.4,41.8c-5.1,29.2,13.9,44.3,30.5,49.4   c62.3,17.8,180.5-2.4,252.8-101.3c57.1-77.2,45.8-182.3-41.9-226.8c-40.8-20.2-104.2-30.4-170.3-11.4l71.1,70.9l-43.2,43.1   L111.4,198.9L111.4,198.9z M287.9,243.3c12.7,0,24.2-10.2,24.2-24.1c0-12.7-10.2-24.1-24.2-24.1s-24.2,10.2-24.2,24.1   C265.2,233.1,275.3,243.3,287.9,243.3L287.9,243.3z M312.1,434.5c12.7,0,24.2-10.2,24.2-24.1c0-12.7-10.2-24.1-24.2-24.1   s-24.2,10.2-24.2,24.1C287.9,423.1,299.3,434.5,312.1,434.5z M374.3,274.9c0,12.7-10.2,24.1-24.2,24.1c-12.7,0-24.2-10.2-24.2-24.1   c0-12.7,10.2-24.1,24.2-24.1C362.8,250.8,374.3,262.2,374.3,274.9L374.3,274.9z M279.1,278.6c5.1,1.3,10.2,5.1,15.2,8.8l61.1,60.9   h-86.4c-6.4,0-11.5-1.3-16.6-3.8c-5.1-2.4-10.2-6.4-12.7-11.4c-3.8-5.1-5.1-10.2-6.4-16.5c0-6.4,0-11.4,2.4-16.5   s6.4-10.2,10.2-13.9c5.1-3.8,10.2-6.4,15.2-7.6C267.6,276.2,274,277.3,279.1,278.6L279.1,278.6z"></path>
	<path class="st0" d="M4.7,92.4l43.2-43.1l124.5,124.1c-20.3,5.1-40.8,13.9-61,25.3L4.7,92.4L4.7,92.4z"></path>
</g>
</svg>