<?xml version='1.0' encoding='utf-8'?>
<!-- Generator: Adobe Illustrator 27.2.0, SVG Export Plug-In . SVG Version: 6.00 Build 0)  --><svg xmlns="http://www.w3.org/2000/svg" xmlns:xlink="http://www.w3.org/1999/xlink" version="1.1" id="Vrstva_1" x="0px" y="0px" viewBox="0 0 645.4 566.9" style="enable-background:new 0 0 645.4 566.9;" xml:space="preserve" width="455.38898" height="400.0">
<g>
	<path d="M178.9,130.8c21.5,15.7,38.7,37,51.4,64.1c12.8,27,19.1,56.6,19.1,88.6s-6.4,62-19.1,88.9c-12.8,26.9-29.9,48.1-51.4,63.8   s-45.1,23.5-70.6,23.5H6.2V107.2h102.1C133.8,107.2,157.4,115.1,178.9,130.8L178.9,130.8z M144.9,369.1   c11.6-8.3,20.7-19.9,27.2-34.8c6.5-14.8,9.8-31.8,9.8-50.8s-3.3-36-9.8-50.8c-6.5-14.9-15.6-26.4-27.2-34.8   c-11.6-8.3-24.8-12.5-39.6-12.5H70.8v196.2h34.5C120.1,381.6,133.3,377.4,144.9,369.1L144.9,369.1L144.9,369.1z"></path>
	<path d="M227.2,459.7l116.4-352.3h56.2L283.4,459.7H227.2z"></path>
	<path d="M629.1,301.5c6.8,14.4,10.1,30.4,10.1,48.1c0,22.7-3.9,42.3-11.8,58.8c-7.9,16.5-18.8,29.2-32.8,38   c-14,8.8-30.2,13.3-48.4,13.3H416.9V107.2h127.7c14.3,0,27.7,3.9,40.4,11.8c12.6,7.8,22.8,19.2,30.6,34   c7.8,14.9,11.6,32.3,11.6,52.3c0,24-8.8,44.6-26.3,61.6C612.9,275.6,622.3,287.1,629.1,301.5L629.1,301.5L629.1,301.5z    M481.5,181.3v68.1h54.1c8,0,14.5-3.1,19.5-9.3c5-6.2,7.5-14.4,7.5-24.8c0-6-1.1-11.7-3.4-17s-5.4-9.5-9.6-12.5   c-4.1-3-8.8-4.5-14.1-4.5L481.5,181.3L481.5,181.3z M563.5,376.3c5.4-6.2,8.1-14.4,8.1-24.8c0-6-1.3-11.6-3.8-16.8   c-2.5-5.2-6-9.3-10.3-12.5c-4.4-3.2-9.2-4.8-14.5-4.8h-61.6v68.1h61.6C551.3,385.6,558.2,382.5,563.5,376.3L563.5,376.3z"></path>
</g>
</svg>