<?xml version='1.0' encoding='utf-8'?>
<!-- Generator: Adobe Illustrator 27.2.0, SVG Export Plug-In . SVG Version: 6.00 Build 0)  --><svg xmlns="http://www.w3.org/2000/svg" xmlns:xlink="http://www.w3.org/1999/xlink" version="1.1" id="Vrstva_1" x="0px" y="0px" viewBox="0 0 874.6 566.9" style="enable-background:new 0 0 874.6 566.9;" xml:space="preserve" width="617.1106" height="400.0">
<g>
	<path d="M229.3,114.6v337.8h-61.9V319.9H66.6v132.4H4.8V114.6h61.9v130.5h100.8V114.6H229.3z"></path>
	<path d="M266.7,114.6h61.9v337.8h-61.9V114.6z"></path>
	<path d="M610.7,452.3H569l-14-31.7c-15.5,21.1-39.9,37.4-73.8,37.4c-68.7,0-128.1-70-128.1-174.6c0-96,55.1-174.7,133.9-174.7   c61.9,0,106.9,41.7,123.8,111.3h-66.6c-13.3-23.5-33.8-34.6-57.2-34.6c-38.9,0-69.1,36.5-69.1,96c0,64.8,33.1,101.7,70.5,101.7   c26.3,0,48.2-11,61.9-33.1v-20.6h-72v-69.1h132.4L610.7,452.3L610.7,452.3L610.7,452.3L610.7,452.3L610.7,452.3z"></path>
	<path d="M869.8,114.6v337.8h-61.9V319.9H707.2v132.4h-61.9V114.6h61.9v130.5h100.8V114.6H869.8z"></path>
</g>
</svg>