<?xml version='1.0' encoding='utf-8'?>
<!-- Generator: Adobe Illustrator 27.2.0, SVG Export Plug-In . SVG Version: 6.00 Build 0)  --><svg xmlns="http://www.w3.org/2000/svg" xmlns:xlink="http://www.w3.org/1999/xlink" version="1.1" id="Vrstva_1" x="0px" y="0px" viewBox="0 0 549.4 566.9" style="enable-background:new 0 0 549.4 566.9;" xml:space="preserve" width="387.65216" height="400.0">
<g>
	<path d="M173,48.8h267.2c45.5,0,59.8,28.3,50.4,57.3c-7.8,24.5-88.7,273.8-95.9,296.4c-9,28.3-24.2,37.2-49.5,37.2H63.7   c-31.9,0-20.2,40.2,19.6,40.2h294c20,0,40.3-15.8,47.9-40.5l96.5-295.6c22.4,10.2,28.5,28.6,20.3,56.3   c-7.7,25.6-68.5,222.6-77.5,250.8c-13.1,40.9-34.5,67.3-76.6,67.3H85.7c-46.4,0-81.6-35.2-81.6-75.9c0-25.4,11.1-26.5,4.2-52.5   c18.1-13.4,41.4-67.1,36.4-92.4c19.7-13.4,40.9-65.9,35.5-91.8c21.7-11.6,40.3-61,34.3-89.2C136.7,103.5,143.4,48.8,173,48.8   L173,48.8z M261.5,128.4c-11.3,39.3-2.9,105.7-18.2,156.7c-3.8,12.2,7.8,13.5,12.5,1.2c19.1-52.4,65.9-109.1,76.3-150.4   c6.2-24.8-6.2-43.1-29.5-43.1C282.8,92.9,269.4,101.5,261.5,128.4L261.5,128.4z M229.8,319.7c-18.4,0-34.6,16.4-36,36.7   c-1.4,20.2,12.5,36.7,30.9,36.7s34.6-16.4,36-36.7C262.2,336.1,248.4,319.7,229.8,319.7z"></path>
</g>
</svg>