<?xml version='1.0' encoding='utf-8'?>
<!-- Generator: Adobe Illustrator 27.2.0, SVG Export Plug-In . SVG Version: 6.00 Build 0)  --><svg xmlns="http://www.w3.org/2000/svg" xmlns:xlink="http://www.w3.org/1999/xlink" version="1.1" id="Vrstva_1" x="0px" y="0px" viewBox="0 0 526.4 566.9" style="enable-background:new 0 0 526.4 566.9;" xml:space="preserve" width="371.42355" height="400.0">
<g>
	<path d="M180.6,56.4v4.4c-1.8,8.5-3.5,16.2-5,23.1c-1.5,6.9-3,14.7-4.5,23.5L8.7,175v-42.2L180.6,56.4L180.6,56.4z M158.2,204.5   L8.7,268.1v-42.2l155.8-67.7c-1.5,6.2-2.6,13.4-3.1,21.4C160.8,187.7,159.7,196,158.2,204.5L158.2,204.5z M161.2,293.2l-152.5,68   v-46.6l149.5-63.3c0,8.3,0.5,15.8,1.5,22.5C160.7,280.5,161.2,287,161.2,293.2L161.2,293.2L161.2,293.2z M174.1,382.7L8.7,450.4   v-42.2l155.8-68c1.5,6.5,3.1,13.6,4.8,21.3S172.5,376.2,174.1,382.7L174.1,382.7z M8.7,544.5V501l174.9-76c0.8,1.1,1.9,3.7,3.3,7.7   c1.3,4,2.7,8.3,4.1,12.7c1.4,4.5,3.1,10.4,5.1,17.8L8.7,544.5L8.7,544.5L8.7,544.5z"></path>
	<path d="M295.2,454.3c-14.6,0-27.9-2.1-39.4-6.4c-29.5-10.8-49.4-46.2-60.6-108.1c-7.9-43.5-9.9-91.6-9.1-122.1   c0.6-23.7,4.4-64.2,13.3-100.5c12.5-51.1,31.1-80.2,56.9-89c11.4-3.9,24.3-5.8,38.5-5.8c93.1,0,223,81.7,223,214.7   c0,60.9-27.9,117.8-78.7,160.1C396.8,432.5,341.7,454.4,295.2,454.3L295.2,454.3L295.2,454.3L295.2,454.3z M294.7,65.4   c-9.5,0-17.8,1.2-24.6,3.5c-7.4,2.5-19.4,19.3-28.9,58.5c-8,33-11.5,69.9-12.1,91.4c-0.7,27.1,1.1,73,8.4,113.3   c9,50,23,71.7,33.1,75.4c6.8,2.5,15.1,3.8,24.6,3.8c36.3,0,81.9-18.5,116.3-47.2c28.8-24.1,63.2-65.6,63.2-127.1   c0-61.6-34.4-102.4-63.2-125.9C377.3,83.4,331.5,65.4,294.7,65.4L294.7,65.4L294.7,65.4z"></path>
</g>
</svg>