<?xml version='1.0' encoding='utf-8'?>
<!-- Generator: Adobe Illustrator 27.2.0, SVG Export Plug-In . SVG Version: 6.00 Build 0)  --><svg xmlns="http://www.w3.org/2000/svg" xmlns:xlink="http://www.w3.org/1999/xlink" version="1.1" id="Vrstva_1" x="0px" y="0px" viewBox="0 0 758.4 566.9" style="enable-background:new 0 0 758.4 566.9;" xml:space="preserve" width="535.1208" height="400.0">
<g>
	<path d="M493.2,86.5c-26.6-24.5-59.4-36.9-94-36.9S331.8,62,305.4,86.5l-36.8,36.8l-38.8-36.8c-24.7-24.5-59.2-36.9-94-36.9   S68.4,62,41.9,86.5c-51.1,51.1-51.1,134.8,0,185.8l224.6,224.6l224.7-224.6C544.3,221.2,544.3,137.4,493.2,86.5L493.2,86.5z"></path>
	<g>
		<path d="M454.2,443.8c-20.4,0-36.8,16.3-36.8,36.8s16.3,36.8,36.8,36.8c20.4,0,36.8-16.3,36.8-36.8    C493.2,460.2,476.7,443.8,454.2,443.8L454.2,443.8z"></path>
		<path d="M587,443.8c-20.4,0-36.8,16.3-36.8,36.8s16.3,36.8,36.8,36.8s36.8-16.3,36.8-36.8S607.4,443.8,587,443.8L587,443.8z"></path>
		<path d="M717.9,443.8c-20.4,0-36.8,16.3-36.8,36.8s16.3,36.8,36.8,36.8s36.8-16.3,36.8-36.8C756.6,460.2,738.2,443.8,717.9,443.8    L717.9,443.8z"></path>
	</g>
</g>
</svg>