<?xml version='1.0' encoding='utf-8'?>
<!-- Generator: Adobe Illustrator 27.2.0, SVG Export Plug-In . SVG Version: 6.00 Build 0)  --><svg xmlns="http://www.w3.org/2000/svg" xmlns:xlink="http://www.w3.org/1999/xlink" version="1.1" id="Vrstva_1" x="0px" y="0px" viewBox="0 0 493.4 566.9" style="enable-background:new 0 0 493.4 566.9;" xml:space="preserve" width="348.13898" height="400.0">
<g>
	<path d="M261.1,337.7v20H153.5v-12.1l40.8-40.8c11.9-11.9,20.6-21.9,26.2-30.3c5.6-8.3,8.5-16.2,8.5-23.5c0-4.9-1-9.5-3.1-13.7   s-5.4-7.6-9.8-10.2s-9.9-3.9-16.6-3.9c-5.9,0-11.5,1.5-16.7,4.6c-5.2,3-9.9,7.4-14.1,13.2l-18.2-11.1c5.6-8.8,13-15.6,22-20.4   c9-4.8,18.3-7.2,27.9-7.2c11.4,0,21,2.2,28.9,6.6c7.8,4.4,13.6,10.2,17.5,17.5s5.8,15.1,5.8,23.6c0,7.2-1.6,14.2-4.8,20.9   s-7.8,13.5-13.8,20.4c-6,6.9-14.3,15.4-24.8,25.5l-20.8,20.8L261.1,337.7L261.1,337.7L261.1,337.7z"></path>
	<path d="M361,263.3c8,4.2,14.5,10.2,19.4,18c4.9,7.8,7.4,16.8,7.4,26.9s-2.5,18.9-7.4,26.8c-4.9,7.9-11.6,14.1-20.2,18.5   c-8.5,4.5-17.9,6.7-28,6.7c-11.3,0-21.2-2-29.8-6.1c-8.6-4-16.2-10.6-22.7-19.7l16-12.6c4.3,6.4,9.2,11,14.7,14   c5.5,3,12.1,4.4,20,4.4c5.8,0,11.2-1.3,16.4-3.8c5.1-2.5,9.3-6.1,12.6-10.9c3.3-4.7,4.9-10.2,4.9-16.6s-1.5-11.8-4.6-16.6   c-3-4.8-7.3-8.6-12.7-11.4c-5.4-2.7-11.5-4.1-18.3-4.1c-6.1,0-11.7,1.5-16.9,4.3c-5.2,2.9-9.7,7.1-13.5,12.6L283.7,280l11.3-75.1   h82.4v19.9h-64.6l-6.1,41c3.3-3,7.3-5.3,11.9-6.7s10.3-2.2,17.1-2.2C344.5,257,353,259.1,361,263.3L361,263.3L361,263.3z"></path>
	<path d="M479.1,364.2l-24,14.2L455,189l24.1,14.3l11.1-18.8l-24-14.2l22.1-12.6l-10.8-18.9L455,151.5l0-28l-21.8,0l0,27.1   l-165-97.5l24-14.2l-11.1-18.8l-23.2,13.7l0-25.5l-21.8,0l0,25.7l-23.6-14L201.3,39l24,14.2L57.8,152.2l0-28.7l-21.8,0l0,29.1   l-21.7-12.4L3.4,159.2L25,171.6L3.3,184.4l11.1,18.8L36,190.5L36.1,377l-21.7-12.8L3.3,383l23.5,13.9L3.1,411.9l11.8,18.4   l21.2-13.6l0,29.5l21.8,0l0-31l167.4,98.9l-24,14.2l11.1,18.8l23.6-14l0,25.2l21.8,0l0-25l23.2,13.7l11.1-18.8l-24-14.2l165.1-97.6   l0,29.7l21.8,0l0-27.9l20.8,13.3l11.8-18.4l-23.4-15l26-15.3L479.1,364.2L479.1,364.2L479.1,364.2z M246.7,501.6L57.9,389.9   l-0.2-212.4l189-111.7l186.4,110.2l0.2,215.2L246.7,501.6L246.7,501.6L246.7,501.6z"></path>
	<rect x="117.6" y="257.5" transform="matrix(1.221725e-03 -1 1 1.221725e-03 -156.605 413.0499)" width="21.8" height="54.8"></rect>
</g>
</svg>