<?xml version='1.0' encoding='utf-8'?>
<!-- Generator: Adobe Illustrator 27.2.0, SVG Export Plug-In . SVG Version: 6.00 Build 0)  --><svg xmlns="http://www.w3.org/2000/svg" xmlns:xlink="http://www.w3.org/1999/xlink" version="1.1" id="Vrstva_1" x="0px" y="0px" viewBox="0 0 543.4 566.9" style="enable-background:new 0 0 543.4 566.9;" xml:space="preserve" width="383.4186" height="400.0">
<style type="text/css">
	.st0{fill-rule:evenodd;clip-rule:evenodd;}
</style>
<g>
	<path class="st0" d="M131.8,180L331.7,48.2v470.6L131.8,387.1H4.6V180H131.8L131.8,180z"></path>
	<g>
		<path class="st0" d="M375.2,446.3c89.8,0,163.6-72.4,163.6-163.6S466.5,119,375.2,119v28.9c73.9,0,133.1,59.5,133.1,133.1    S448.8,414,375.2,414L375.2,446.3L375.2,446.3L375.2,446.3z"></path>
		<path class="st0" d="M375.2,356.6c40.5,0,72.3-31.8,72.3-72.4s-31.8-72.4-72.3-72.4v28.9c23.2,0,43.4,18.8,43.4,43.4    c0,23.2-18.8,43.4-43.4,43.4V356.6z"></path>
	</g>
</g>
</svg>