<?xml version='1.0' encoding='utf-8'?>
<!-- Generator: Adobe Illustrator 27.2.0, SVG Export Plug-In . SVG Version: 6.00 Build 0)  --><svg xmlns="http://www.w3.org/2000/svg" xmlns:xlink="http://www.w3.org/1999/xlink" version="1.1" id="Vrstva_1" x="0px" y="0px" viewBox="0 0 800.4 566.9" style="enable-background:new 0 0 800.4 566.9;" xml:space="preserve" width="564.7557" height="400.0">
<g>
	<rect x="18.6" y="276.7" transform="matrix(0.7071 -0.7071 0.7071 0.7071 -82.901 366.7973)" width="765.3" height="13.6"></rect>
	<rect x="394.5" y="-99.2" transform="matrix(0.7071 -0.7071 0.7071 0.7071 -82.8872 366.8023)" width="13.6" height="765.3"></rect>
	<path d="M718.9,308.7L718.9,308.7c-17.1,0.8-31.2,22.2-33.7,50.2h-84.9c24.3-12.3,39.5-28.3,39.5-48.1c0-8-2.5-15.4-7-22.1   c4.5-6.6,7-13.8,7-21.6c0.3-39.6-60.1-64.9-133.5-74.5l-24.2,24.2c81.3,7,131.1,32.3,131,50.1c0,1-0.2,2-0.5,3   c-32.2-21.1-88.8-33.2-147.9-35.6l-26.2,26.2c1.1,0,2.2,0,3.4,0c69.7,0,122.6,13.3,150.1,28.3c-26.8,14.3-77.5,27-144.1,27.2   l25.9,25.9c55.5-2.9,108.2-14.5,138.8-34.3c0.4,1.1,0.6,2.3,0.6,3.4c0,17.1-46,40.6-121.4,48.1h-0.9l26.7,26.7h168.8   c4.3,23.7,17.2,41,32.6,41.6v0.1h77.5V308.7L718.9,308.7L718.9,308.7z"></path>
	<path d="M362.8,336c24.8,4.1,51.6,6.3,78.4,6.5l4.8,0c0.1,0,0.2,0,0.3,0L419,315.2c-11.4-0.6-22.3-1.5-32.6-2.8L362.8,336   L362.8,336z"></path>
	<path d="M441.8,361.3c-36.7,0-68.8-3.7-94.9-9.4l-22.2,22.2c34.3,9.2,75.8,13.9,117.1,13.9c16,0,32.1-0.8,47.8-2.1l-25-25   C457.2,361.1,449.7,361.3,441.8,361.3L441.8,361.3L441.8,361.3z"></path>
	<path d="M270.6,310.8c0-1.7,0.5-3.4,1.3-5.2c16.9,11,40.4,19.6,67.4,25.7l22.6-22.6c-29.3-5.3-52.4-13-68.1-21.2   c17-8.8,42.8-16.9,75.6-21.9l-23-23.1c-29.9,6-56,14.9-74.4,26.7c-0.9-1.8-1.4-3.6-1.4-5.4c0.1-11.6,22.2-26.3,60.6-36.5   l-36.7-36.7H170.2c-3.9-21.9-17.1-38.2-33-38.8v-0.1H59.8v15.2h-35v0C5.8,167.2,4,171.3,4,176.4s1.9,9.2,20.8,9.4l0,0h35v35h-35v0   C5.8,220.9,4,225.1,4,230.2s1.9,9.2,20.8,9.4l0,0h35v16.7h77.5v-0.1c15.9-0.6,29.1-16.8,33-38.8h111.2   c-23,11.9-37.4,27.4-37.5,46.3c-0.1,8.6,2.8,16.5,8,23.8c-5.1,7.1-8,14.9-8,23.4c0,24.7,23.7,43.6,59.4,56.6l21.2-21.2   C290.1,335.8,270.6,322,270.6,310.8L270.6,310.8z"></path>
	<path d="M387.9,217.4h1.9v-0.2c14.9-1.4,30.9-2.3,47.9-2.3l4.6,0c4.5,0,8.9,0.1,13.3,0.3l25.3-25.3c-12.6-1-25.5-1.6-38.3-1.7   l-4.8,0c-17.1,0-34.2,0.8-50.9,2.5h-64.2l31.5,31.5C364.5,220.2,375.8,218.6,387.9,217.4L387.9,217.4L387.9,217.4z"></path>
	<path d="M394.4,262.5c4.9-0.5,9.8-0.8,14.9-1.2l27.6-27.6c-22.6,0.2-45.2,1.8-66.6,4.8L394.4,262.5L394.4,262.5z"></path>
</g>
</svg>