<?xml version='1.0' encoding='utf-8'?>
<!-- Generator: Adobe Illustrator 27.2.0, SVG Export Plug-In . SVG Version: 6.00 Build 0)  --><svg xmlns="http://www.w3.org/2000/svg" xmlns:xlink="http://www.w3.org/1999/xlink" version="1.1" id="Vrstva_1" x="0px" y="0px" viewBox="0 0 620.4 566.9" style="enable-background:new 0 0 620.4 566.9;" xml:space="preserve" width="437.74918" height="400.0">
<g>
	<path d="M613.1,508.1L613.1,508.1L613.1,508.1c-1.1-3.6-4.5-10.4-6.3-13.7c-0.1-0.1-0.2-0.4-0.3-0.5c-9.4-14.9-23.4-38.1-38.9-64   l-42.1,23l22.7,38.7h-476l238-405.4l8.8,14.9c2.2-0.1,4.4-0.1,6.6-0.1c16.8,0,33.6,1.8,50.1,5.2l-21.5-36.1   c0,0-10.1-17.1-13.5-22.8c-1-1.7-3.1-5.2-4.2-7c-0.5-0.8-1.4-2.3-1.8-3c-0.1-0.3-0.4-0.8-0.6-1.1c-2.3-3.2-7.3-9.6-10.6-11.7   c-2.9-1.9-9.8-4-13.3-4s-10.3,2.1-13.3,4c-3.3,2.1-8.1,8.6-10.6,11.7c-0.1,0.1-0.2,0.4-0.3,0.5c-35.5,56.3-136.2,228.6-136.2,228.6   l-85,142.6l-31.2,52.5c0,0-10.3,17.2-13.7,22.9c-1,1.7-3.1,5.2-4.2,7c-0.5,0.8-1.4,2.2-1.8,3c-0.1,0.3-0.4,0.8-0.6,1.1   c-1.7,3.3-5.1,10-6.2,13.5c-0.9,2.9-1.8,9-1.8,12.1c0,2.1,0.5,6.3,1.1,8.3c0.4,1.3,1.5,4,2.3,5.1c1.6,2.2,5.7,5.8,8,7.1   c2.5,1.5,8.1,3.2,10.9,3.9c4,0.9,16.3,1.4,16.3,1.4h531c0.3,0,0.9,0,1.2,0c5.6-0.4,17.1-1.2,22.4-3.2c3.2-1.2,9.1-4.8,11.4-7.4   c1.6-1.8,3.6-6.3,4.3-8.5c0.4-1.2,0.5-3.7,0.6-4.9c0-0.5,0-1.4,0-1.9C614.7,517.2,613.9,511.1,613.1,508.1L613.1,508.1L613.1,508.1   z"></path>
	<path d="M421.5,380.1c21.3,37.1-8.6,97.9-49.1,97.9c-19.3,0-29.2-14.3-29.2-31.3c0-23.1-3.8-41.6-11.2-57.6   c-1.7-3.7-3.8-5.2-7.2-4.5c-1.7,0.3-3.5,0.8-5.1,1.7c-2.5,1.4-4.5,3.9-3.5,7.4c1.9,7,16.7,51.3-22.8,74   c-37.1,21.3-97.9-8.6-97.9-49.1c0-19.3,14.3-29.2,31.3-29.2c23.1,0,41.6-3.8,57.6-11.2c3.7-1.7,5.2-3.8,4.5-7.2   c-0.2-1.5-0.8-3.4-1.7-5.1c-1.4-2.5-3.9-4.5-7.4-3.5c-7,1.9-51.3,16.7-74-22.8c-21.2-37.1,8.6-97.9,49.1-97.9   c19.3,0,29.2,14.3,29.2,31.3c0,23.1,3.8,41.5,11.2,57.6c1.7,3.7,3.9,5.2,7.2,4.5c1.6-0.4,3.4-1,5-1.7c2.6-1.4,4.5-3.9,3.6-7.4   c-1.9-7-16.7-51.3,22.8-74c37.1-21.3,97.9,8.6,97.9,49.1c0,19.3-14.3,29.2-31.3,29.2c-23.1,0-41.6,3.8-57.6,11.2   c-3.7,1.7-5.2,3.8-4.5,7.2c0.4,1.9,0.9,3.5,1.7,5.1c1.4,2.5,3.9,4.5,7.4,3.5C354.6,355.4,398.8,340.6,421.5,380.1L421.5,380.1   L421.5,380.1z M313.6,346c-7.6,0-13.8,6.2-13.8,13.8s6.2,13.8,13.8,13.8s13.8-6.2,13.8-13.8S321.2,346,313.6,346z"></path>
	<path d="M544,390.4c10.2-50.3,2.7-102.1-21.7-148c-27.9-52.4-74.5-90.9-131.3-108.2c-30.7-9.4-62.4-12-93.4-8l-45.4,77.3   c37.5-19.3,80.4-23.2,120.9-10.8c41.2,12.6,75,40.5,95.2,78.5c16.8,31.6,22.5,67.2,16.7,102l-31.8-9.3l43.1,78.8l78.8-43.1   L544,390.4L544,390.4L544,390.4z"></path>
</g>
</svg>