<?xml version='1.0' encoding='utf-8'?>
<!-- Generator: Adobe Illustrator 27.2.0, SVG Export Plug-In . SVG Version: 6.00 Build 0)  --><svg xmlns="http://www.w3.org/2000/svg" xmlns:xlink="http://www.w3.org/1999/xlink" version="1.1" id="Vrstva_1" x="0px" y="0px" viewBox="0 0 400 425.2" style="enable-background:new 0 0 400 425.2;" xml:space="preserve" width="376.2935" height="400.0">
<g>
	<path d="M199.5,370c-33.1,0-65.3-9.3-91.2-25.9l-13.5,13.5c30,19.7,66.4,32.2,105.7,32.2s74.6-11.4,105.7-32.2l-13.5-13.5   C264.8,360.7,233.7,370,199.5,370z"></path>
	<path d="M199.5,26.8c33.1,0,65.3,9.3,91.2,25.9l13.5-13.5c-30-19.7-66.4-32.2-105.7-32.2S123.8,18.5,92.7,39.2l13.5,13.5   C135.2,36.1,166.3,26.8,199.5,26.8z"></path>
	<path d="M359.2,93.2l-13.5,13.5c16.6,27,25.9,58.1,25.9,91.2s-9.3,65.3-25.9,91.2l13.5,13.5c19.7-30,32.2-66.4,32.2-105.7   C391.3,159.5,378.8,123.2,359.2,93.2z"></path>
	<path d="M40.8,93.2c-19.7,30-32.2,66.4-32.2,105.7s11.4,74.6,32.2,105.7l13.5-13.5c-16.6-27-25.9-58.1-25.9-91.2   s9.3-65.3,25.9-91.2L40.8,93.2z"></path>
	<path d="M305.3,138.8h-28l-14.5-23.9l-2.1-3.1l-4.1-1.1c-3.1-1.1-7.2-1.1-12.4-2.1c-9.3-1.1-24.8-3.1-42.5-3.1s-33.1,2.1-42.5,3.1   c-5.2,1.1-9.3,2.1-12.4,2.1l-4.1,1.1l-16.6,27h-28v19.7h15.5l-15.5,24.8v69.4l0,0v13.5c0,8.3,8.3,13.5,13.5,13.5h17.6   c4.1,0,13.5-4.1,13.5-13.5v-13.5h121.3v13.5c0,8.3,8.3,13.5,13.5,13.5H295c4.1,0,13.5-4.1,13.5-13.5v-40.4l0,0v-41.5l-18.7-25.9   h15.5v-19.7H305.3z M153.9,129.5c2.1,0,5.2-1.1,7.2-1.1c9.3-1.1,22.8-3.1,39.4-3.1s31.1,2.1,39.4,3.1c3.1,0,5.2,1.1,7.2,1.1   l22.8,37.4H131L153.9,129.5z M167.4,201h-21.8l-8.3,12.4h-17.6v-28l1.1-2.1h59.1L167.4,201z M235.7,201l-13.5-17.6h59.1l1.1,2.1v28   h-17.6l-8.3-13.5h-20.7V201z"></path>
</g>
</svg>