<?xml version='1.0' encoding='utf-8'?>
<!-- Generator: Adobe Illustrator 27.2.0, SVG Export Plug-In . SVG Version: 6.00 Build 0)  --><svg xmlns="http://www.w3.org/2000/svg" xmlns:xlink="http://www.w3.org/1999/xlink" version="1.1" id="Vrstva_1" x="0px" y="0px" viewBox="0 0 397.4 566.9" style="enable-background:new 0 0 397.4 566.9;" xml:space="preserve" width="280.40216" height="400.0">
<style type="text/css">
	.st0{fill-rule:evenodd;clip-rule:evenodd;}
</style>
<g>
	<path class="st0" d="M227.4,149.3c1.5-5.8,1.5-11.4,1.5-17.2c0-61.3-49.9-111.2-111.2-111.2S6.2,71,6.2,132.3   s44.1,105.6,101.3,111.2v-54.2c0-15.7,5.8-31.4,15.7-42.8c11.4-12.9,28.6-24.3,51.4-24.3s40,11.4,51.4,25.6   C225.9,148,227.4,148,227.4,149.3L227.4,149.3z"></path>
	<path d="M89,336.3c-17.2,4.3-25.6,24.3-17.2,38.5l68.4,124.1c15.7,29.9,48.4,47.1,79.9,47.1h77c51.4,0,94.1-42.8,94.1-94.1v-89.9   c0-37-99.8-45.6-189.8-45.6V188c0-11.4-7.1-27.1-25.6-27.1s-27.1,15.7-27.1,27.1v211.1c0-1.5-17.2-31.4-29.9-49.9   C111.8,337.6,98.9,332,89,336.3L89,336.3z"></path>
</g>
</svg>