<?xml version='1.0' encoding='utf-8'?>
<!-- Generator: Adobe Illustrator 27.2.0, SVG Export Plug-In . SVG Version: 6.00 Build 0)  --><svg xmlns="http://www.w3.org/2000/svg" xmlns:xlink="http://www.w3.org/1999/xlink" version="1.1" id="Vrstva_1" x="0px" y="0px" viewBox="0 0 429.4 566.9" style="enable-background:new 0 0 429.4 566.9;" xml:space="preserve" width="302.9811" height="400.0">
<g>
	<path d="M208.1,186.3c-1.8,0-3.5-0.1-5.1-0.1c-1.7-0.1-3.3-0.1-4.8-0.1c-16.8,0-32.9,2.4-48.4,7.3c-15.4,4.9-29.7,11.6-42.8,20.2   c-13.1,8.6-24.8,18.9-35,30.9c-10.3,12-18.7,25.3-25.4,39.7c-1.6,2.9-1.4,5.6,0.4,8.1c1.9,2.5,5.2,3.7,10.1,3.7h325.7   c2.7,9,4.8,18.2,6.2,27.7c1.4,9.5,2,19.2,2,29.2c0,17.8-2.3,34.9-6.9,51.3c-4.6,16.4-11.1,31.8-19.5,46s-18.5,27.3-30.2,39.1   c-11.7,11.8-24.8,21.9-39.1,30.3c-14.4,8.4-29.8,14.9-46.2,19.5c-16.4,4.6-33.5,6.9-51.3,6.9c-26.8,0-51.9-5.1-75.2-15.2   c-23.4-10.2-43.8-24-61.3-41.5c-17.5-17.5-31.3-38-41.3-61.4c-10.1-23.5-15.1-48.5-15.1-75c0-17.8,2.3-34.9,6.9-51.5   c4.6-16.5,11-31.9,19.4-46.2c8.3-14.3,18.4-27.3,30.2-39.1c11.8-11.8,24.9-21.9,39.1-30.3c14.3-8.4,29.6-14.9,46-19.6   s33.5-7,51.3-7h5.1c1.7,0,3.4,0.1,5.1,0.3L208.1,186.3L208.1,186.3L208.1,186.3z M90,343.4l-42.8,0.3c-1.8,0-3.4,0-5,0.1   c-1.6,0.1-3,0.5-4.2,1.3c-1.3,0.8-2.2,2-2.9,3.8c-0.7,1.8-1,4.2-1,7.3c0.4,12.9,2.1,25.3,5,37.1s7.1,23.1,12.6,33.9l0.6,1.5   c2,4.5,4.4,7.5,7.3,9.1c2.9,1.6,6.1,1.3,9.4-0.9l34.6-30.5c-4.3-7.8-7.6-16.2-10-25.1c-2.4-8.9-3.5-18-3.5-27.4L90,343.4L90,343.4z    M199.6,518.4c18,0,35.1-2.6,51.3-7.9c16.2-5.3,31.1-12.7,44.6-22.3c0.6-0.6,1.1-1,1.5-1.2c2.2-2.1,3.1-4.8,2.9-7.9   c-0.2-3.1-3.1-7.6-8.8-13.5l-26.4-23.5c-9.4,6.8-19.5,12.1-30.3,15.7c-10.9,3.6-22.4,5.4-34.7,5.4s-23.7-1.8-34.7-5.4   c-11-3.6-21.1-8.8-30-15.7l-26.7,23.5c-2.9,2.9-5.1,5.5-6.6,7.6c-1.5,2.1-2.4,4.1-2.6,5.7s-0.1,3.1,0.6,4.4   c0.7,1.3,1.6,2.5,2.8,3.7c0.4,0.2,0.6,0.3,0.6,0.4s0.3,0.3,0.9,0.7c13.5,9.6,28.3,17,44.6,22.3   C164.5,515.8,181.6,518.4,199.6,518.4L199.6,518.4L199.6,518.4z M199.6,443.7c9,0,17.4-1.8,25.4-5.3c7.9-3.5,14.8-8.3,20.7-14.4   c5.9-6.1,10.5-13.2,13.9-21.4c3.4-8.2,5.1-16.9,5.1-26.1s-1.7-17.5-5.1-25.6c-3.4-8.1-8.1-15.1-13.9-21.1   c-5.9-6-12.8-10.7-20.7-14.4c-7.9-3.6-16.4-5.4-25.4-5.4s-17.4,1.8-25.2,5.4c-7.8,3.6-14.7,8.4-20.5,14.4c-5.9,6-10.5,13-13.9,21.1   c-3.4,8.1-5.1,16.7-5.1,25.6s1.7,17.9,5,26.1s7.9,15.4,13.8,21.4c5.9,6.1,12.8,10.9,20.7,14.4C182.2,441.9,190.6,443.7,199.6,443.7   L199.6,443.7L199.6,443.7z M250.6,157.5c-6.1,7.8-9.2,15.1-9.4,21.8c-0.2,6.7,2.5,13.5,8.2,20.4c9.4,10.9,13.2,24.1,11.4,39.6   c-0.8,6.4-2.6,12.9-5.4,19.2c-2.8,6.4-6.5,12.2-11,17.4l-5.9,7l-13.8-11.7l5.6-6.7c2.9-3.7,5.5-7.9,7.6-12.5   c2.1-4.6,3.5-9.2,4.1-13.9c0.6-4.7,0.4-9.3-0.6-13.9c-1-4.6-3-8.8-6.1-12.8c-8.4-10-12.6-20.6-12.5-31.8   c0.1-11.2,4.5-22.3,13.3-33.3c4.3-5.3,6.2-10.4,5.7-15.2c-0.5-4.9-2.1-10.9-4.8-18.2c-1.6-3.9-3-8.2-4.2-13.1   c-1.3-4.8-1.7-9.7-1.3-14.8h-19.6l30.5-64.2l30.5,64.2h-23.2c-0.4,3.1-0.1,6.4,0.7,9.8s2.1,7.4,3.7,11.9c1.4,3.5,2.7,7.3,4.1,11.3   s2.1,8.2,2.2,12.5c0.1,4.3-0.5,8.7-1.9,13.2C257.2,148.2,254.5,152.8,250.6,157.5L250.6,157.5L250.6,157.5z M326.3,157.5   c-5.9,7.8-8.9,15.1-9.2,21.8c-0.3,6.7,2.4,13.5,8.1,20.4c9.2,10.9,12.9,24.1,11.1,39.6c-0.8,6.4-2.5,12.9-5.3,19.2   c-2.7,6.4-6.3,12.2-10.8,17.4l-5.6,7l-14.4-11.7l5.9-6.7c3.1-3.7,5.7-7.9,7.8-12.5c2-4.6,3.4-9.2,4.1-13.9   c0.7-4.7,0.5-9.3-0.4-13.9c-1-4.6-3-8.8-6.2-12.8c-8.6-10-12.8-20.6-12.6-31.8c0.2-11.2,4.7-22.3,13.5-33.3   c4.1-5.3,5.9-10.4,5.4-15.2c-0.5-4.9-2-10.9-4.5-18.2c-1.6-3.9-3-8.2-4.4-13.1c-1.4-4.8-1.9-9.7-1.5-14.8h-19.6l30.5-64.2   l30.5,64.2h-23.2c-0.4,3.1-0.1,6.4,0.9,9.8s2.3,7.4,4.1,11.9c1.2,3.5,2.3,7.3,3.5,11.3c1.2,4,1.8,8.2,2,12.5   c0.2,4.3-0.4,8.7-1.9,13.2C332.6,148.2,330,152.8,326.3,157.5L326.3,157.5L326.3,157.5z M309,343.4l0.3,10.5   c0,9.4-1.2,18.5-3.7,27.4c-2.5,8.9-5.7,17.2-9.8,25.1l34.9,30.5c2.9,2.1,5.9,2.5,8.8,0.9c2.9-1.6,5.5-4.6,7.6-9.1l0.6-1.5   c5.5-10.8,9.7-22,12.8-33.9c3-11.8,4.7-24.2,5.1-37.1c0-3.1-0.4-5.6-1.2-7.3c-0.8-1.8-1.8-3-3.1-3.8s-2.7-1.2-4.4-1.3   c-1.7-0.1-3.4-0.1-5.1-0.1L309,343.4L309,343.4L309,343.4z M402.5,157.5c-6.3,7.8-9.5,15.1-9.7,21.8c-0.2,6.7,2.6,13.5,8.5,20.4   c9,11.1,12.6,24.3,10.8,39.6c-0.8,6.4-2.5,12.9-5.3,19.2c-2.7,6.4-6.3,12.2-10.8,17.4l-5.9,7l-14.1-11.7l5.9-6.7   c2.9-3.7,5.5-7.9,7.6-12.5c2.2-4.6,3.5-9.2,4.1-13.9c0.6-4.7,0.4-9.3-0.6-13.9c-1-4.6-3-8.8-6.2-12.8c-8.4-10-12.6-20.6-12.5-31.8   c0.1-11.2,4.5-22.3,13.3-33.3c4.1-5.3,5.9-10.4,5.4-15.2c-0.5-4.9-2-10.9-4.5-18.2c-1.6-3.9-3-8.2-4.2-13.1   c-1.3-4.8-1.7-9.7-1.3-14.8h-19.6l30.2-64.2l30.8,64.2h-22.9c-0.4,3.1-0.1,6.4,0.9,9.8s2.2,7.4,3.8,11.9c1.2,3.5,2.4,7.3,3.7,11.3   c1.3,4,2,8.2,2,12.5s-0.5,8.7-1.9,13.2C408.7,148.2,406.2,152.8,402.5,157.5L402.5,157.5L402.5,157.5z"></path>
</g>
</svg>