<?xml version='1.0' encoding='utf-8'?>
<!-- Generator: Adobe Illustrator 27.2.0, SVG Export Plug-In . SVG Version: 6.00 Build 0)  --><svg xmlns="http://www.w3.org/2000/svg" xmlns:xlink="http://www.w3.org/1999/xlink" version="1.1" id="Vrstva_1" x="0px" y="0px" viewBox="0 0 500.4 566.9" style="enable-background:new 0 0 500.4 566.9;" xml:space="preserve" width="353.07812" height="400.0">
<g>
	<path d="M224.9,519.3c0-1.6,0.1-3.7,0.4-6.3c0.3-2.7,1.2-4.8,2.8-6.3l-28.7-66.5H54.2c-6.5,0-12.6-1.1-18.2-3.2   c-5.6-2.2-10.6-5.3-15.1-9.3c-4.4-4-7.9-8.8-10.5-14.2c-2.6-5.4-3.8-11.3-3.8-17.6V196.7c0-6.3,1.3-12.2,3.8-17.6s6.1-10.1,10.5-14   c4.4-3.9,9.4-7,15.1-9.3c5.6-2.3,11.7-3.4,18.2-3.4h395.3c6.3,0,12.2,1.1,17.6,3.4c5.4,2.3,10.1,5.4,14.2,9.3c4,3.9,7.1,8.6,9.3,14   c2.2,5.4,3.2,11.3,3.2,17.6v199.2c0,6.3-1.1,12.2-3.2,17.6c-2.2,5.4-5.3,10.1-9.3,14.2c-4,4-8.8,7.1-14.2,9.3   c-5.4,2.2-11.3,3.2-17.6,3.2H234.4l22.2,54.1c6.5,1.4,13.5,4.9,16.6,9.5c3,4.5,5.2,10.3,5.2,16.6c0,7.9-2.7,12.7-7.2,18.2   c-4.4,5.5-10.4,8.7-18.4,8.7c-3.2,0-9.9-0.8-12.9-2.3c-3-1.5-4.6-3-7.1-5.5c-2.5-2.6-4.4-5.6-5.8-9   C225.6,527,224.9,523.3,224.9,519.3L224.9,519.3L224.9,519.3L224.9,519.3z M187.1,411.8l-82.4-192.9l28.7-9.5l85.4,202.4h230.8   c3.2,0,6.1-1.4,8.7-4.3c2.7-2.9,4-6.7,4-11.7V196.7c0-3.1-1.3-6.1-4-8.7s-5.6-4-8.7-4H54.1c-4.9,0-8.8,1.3-11.5,4   c-2.8,2.7-4.1,5.6-4.1,8.7v199.2c0,4.9,1.4,8.8,4.1,11.7c2.8,2.9,6.6,4.3,11.5,4.3L187.1,411.8L187.1,411.8L187.1,411.8z    M66.9,117.5c0-9.4,1.4-18.8,4.1-28.1s6.6-17.8,11.5-25.7l25.4,19.2c-3.1,4.9-5.5,10.3-7.1,16.2c-1.6,5.9-2.4,12-2.4,18.3v6.5H66.9   L66.9,117.5L66.9,117.5z M98.5,48.1c15.8-15.8,34.7-25.2,56.7-28.4V51c-6.3,0-12.4,1.5-18.3,4.4c-5.9,3-11.3,6.8-16.2,11.5   L98.5,48.1C98.5,48.1,98.5,48.1,98.5,48.1z M177.7,19.7c12.6,1.4,23.7,4.4,33.4,9.2c9.6,4.7,18.5,11.1,26.6,19.2L212.2,67   c-4.9-4.7-10.3-8.6-16.2-11.5S184,51,177.7,51V19.7C177.7,19.7,177.7,19.7,177.7,19.7z M250.1,63.7l25.4,19.2   c-3.1,4.9-5.5,10.3-7.1,16.2c-1.6,5.9-2.4,12-2.4,18.3v6.5h-31.6v-6.5c0-6.3-0.8-12.4-2.4-18.3c-1.6-5.9-3.9-11.3-7.1-16.2   L250.1,63.7L250.1,63.7L250.1,63.7z M234.4,209.4H266v41.1h-31.6V209.4L234.4,209.4z M234.4,275.6H266v41.4h-31.6V275.6z    M234.4,342H266v44.3h-31.6V342z M323,19.7V51c-6.3,0-12.5,1.5-18.5,4.4c-6,3-11.4,6.8-16.1,11.5L266,48.1   C281.8,32.3,300.8,22.9,323,19.7L323,19.7z M405.2,48.1L379.8,67c-4.7-4.7-9.7-8.6-14.9-11.5S353.1,51,345.2,51V19.7   c11.2,1.4,22.1,4.4,32.5,9.2S397.3,40,405.2,48.1C405.2,48.1,405.2,48.1,405.2,48.1z M433.8,117.5v6.5h-31.6v-6.5   c0-6.3-0.7-12.4-2.1-18.3s-2.9-11.3-4.4-16.2l22.2-19.2c4.7,7.9,8.6,16.4,11.5,25.7C432.3,98.7,433.8,108.1,433.8,117.5   L433.8,117.5L433.8,117.5z"></path>
</g>
</svg>