<?xml version='1.0' encoding='utf-8'?>
<!-- Generator: Adobe Illustrator 27.2.0, SVG Export Plug-In . SVG Version: 6.00 Build 0)  --><svg xmlns="http://www.w3.org/2000/svg" xmlns:xlink="http://www.w3.org/1999/xlink" version="1.1" id="Vrstva_1" x="0px" y="0px" viewBox="0 0 1024.6 566.9" style="enable-background:new 0 0 1024.6 566.9;" xml:space="preserve" width="722.94934" height="400.0">
<g>
	<path d="M197.7,402.7H85l-15.9,50H5.6l112.6-338.5h50.6L280,452.7h-66.4L197.7,402.7L197.7,402.7L197.7,402.7z M176,335.4   l-34.7-109.1l-34.7,109.1H176z" fill="#51F093"></path>
	<path d="M279.2,320V114.2h62.1v207.7c0,39.4,21.3,61.5,52,61.5c30.7,0,50.5-22.1,50.5-61.5V114.2H506V320   c0,84.6-46.9,138.5-112.6,138.5S279.3,404.6,279.2,320L279.2,320L279.2,320z" fill="#51F093"></path>
	<path d="M745.7,189.2h-79.4v263.5h-62.1V189.2h-80.9v-75h222.4L745.7,189.2L745.7,189.2L745.7,189.2z" fill="#51F093"></path>
	<path d="M741.7,283.5c0-98.6,63.5-175,138.6-175s138.6,76,138.6,175s-63.5,175-138.6,175S741.7,382.5,741.7,283.5L741.7,283.5   L741.7,283.5z M954,283.5c0-54.8-33.9-98.1-73.7-98.1s-73.7,44.2-73.7,98.1s33.9,98.1,73.7,98.1C920.1,381.5,954,338.3,954,283.5   L954,283.5z" fill="#51F093"></path>
</g>
</svg>