<?xml version='1.0' encoding='utf-8'?>
<!-- Generator: Adobe Illustrator 27.2.0, SVG Export Plug-In . SVG Version: 6.00 Build 0)  --><svg xmlns="http://www.w3.org/2000/svg" xmlns:xlink="http://www.w3.org/1999/xlink" version="1.1" id="Vrstva_1" x="0px" y="0px" viewBox="0 0 657.4 566.9" style="enable-background:new 0 0 657.4 566.9;" xml:space="preserve" width="463.85605" height="400.0">
<g>
	<path d="M49.6,230.1l-35-8.8c-5.3,24.6-8.8,49-8.8,73.5c0,87.5,38.5,171.4,94.5,227.4l26.3-24.4c-50.7-50.7-83.9-126-83.9-203.1   C42.5,272,44.3,251.1,49.6,230.1L49.6,230.1z" fill="#FFCE63"></path>
	<path d="M327.9,44.5v35c82.2,0,153.9,47.2,190.7,115.6c-26.3,8.8-78.8,38.5-112,56c-3.5,1.8-5.3,3.5-8.8,5.3   c-27.9,3.5-87.5,14-105,21c-22.8,8.8-49,35-49,78.8s15.7,47.2,27.9,47.2h22.8v-7.1c0-45.4,36.8-80.6,80.6-80.6s80.6,36.8,80.6,80.6   v7.1h57.8c-36.8,62.9-106.7,106.7-185.6,106.7c-118.9,0-215.2-96.3-215.2-215.2c0-17.5,1.8-33.2,5.3-49l-35-8.8   c-3.5,17.5-7.1,36.8-7.1,57.8c0,138.2,112,250.2,250.2,250.2S579.8,433,579.8,294.8S467.9,44.5,327.9,44.5L327.9,44.5z" fill="#FFCE63"></path>
	<path d="M557.1,67.3l-26.3,24.4c50.7,50.7,83.9,124.2,83.9,203.1s-33.2,152.3-83.9,203.1l26.3,24.6c56-57.8,94.5-140,94.5-227.4   S613.1,125.1,557.1,67.3z" fill="#FFCE63"></path>
	<path d="M375.1,445.3c26.3,0,49-21,49-49c0-26.3-21-49-49-49c-26.3,0-49,21-49,49C326.1,422.5,348.8,445.3,375.1,445.3z" fill="#FFCE63"></path>
	<polygon points="163.4,174.1 194.8,268.6 224.5,174.1 324.4,174.1 243.8,116.3 275.2,21.7 194.8,79.5 114.3,21.7 144.1,116.3    63.5,174.1  " fill="#FFCE63"></polygon>
</g>
</svg>