<?xml version='1.0' encoding='utf-8'?>
<!-- Generator: Adobe Illustrator 27.2.0, SVG Export Plug-In . SVG Version: 6.00 Build 0)  --><svg xmlns="http://www.w3.org/2000/svg" xmlns:xlink="http://www.w3.org/1999/xlink" version="1.1" id="Vrstva_1" x="0px" y="0px" viewBox="0 0 416.4 566.9" style="enable-background:new 0 0 416.4 566.9;" xml:space="preserve" width="293.8084" height="400.0">
<style type="text/css">
	.st0{fill-rule:evenodd;clip-rule:evenodd;}
</style>
<g>
	<path class="st0" d="M336.8,22.7c-19.5-4.6-73.2-14.9-127-14.9l0,0C156,7.7,102.3,18.1,82.8,22.7L47,89.9H6.6v29.9h24l-24,44.8   v128.5l0,0v37.3c0,9,9,19.5,17.8,19.5h43.3c9,0,17.8-9,17.8-19.5v-32.9h245.1v32.9c0,9,9,19.5,17.8,19.5h43.3c9,0,17.8-9,17.8-19.5   v-37.3l0,0V166l-24-44.8h24V91.2h-40.2L336.8,22.7L336.8,22.7z M209.9,225.9h88.3l24-34.3h67.2v-27H253.2l-10.5,24h-64.3L168,166.2   H32v27h67.2l24,34.3h86.7L209.9,225.9L209.9,225.9z M209.9,119.8h146.5L317.5,48c-24-4.6-65.9-11.9-107.6-11.9l0,0   c-43.3,0-85.2,5.9-109.1,11.9l-38.9,71.8H209.9L209.9,119.8z" fill="#FFCE63"></path>
	<path d="M60.4,530.6c7.5,0,13.4-1.6,17.8-4.6c4.6-3,5.9-7.5,5.9-13.4c0-2.9,0-5.9-1.6-9c-1.6-1.6-3-4.6-5.9-5.9   c-3-1.6-7.5-3-11.9-5.9l-10.5-4.6c-9-3-16.5-5.9-20.8-10.5c-5.9-3-10.5-7.5-13.4-13.4s-4.6-11.9-4.6-20.8s1.6-17.8,5.9-24   c4.6-7.5,10.5-11.9,19.5-16.5c9-4.6,17.8-5.9,28.3-5.9c16.5,0,29.9,3,41.9,10.5l-4.6,27c-5.9-3-10.5-5.9-16.5-7.5   c-6-1.6-11.9-3-19.5-3s-13.4,1.6-17.8,4.6s-5.9,7.5-5.9,11.9c0,3,0,5.9,1.6,9c1.6,1.6,3,4.6,5.9,5.9c3,1.6,7.5,3,11.9,5.9l10.5,4.6   c9,3,16.5,5.9,20.8,10.5c5.9,3,10.5,9,13.4,13.4c3,5.9,4.6,13.4,4.6,20.8c0,9-1.6,17.8-5.9,24c-4.6,7.5-10.5,11.9-17.8,16.5   c-9,4.6-17.8,5.9-29.9,5.9c-9,0-17.8-1.6-25.4-3c-7.5-1.6-14.9-5.9-20.8-9l4.6-28.3c7.5,4.6,13.4,7.5,19.5,9   C43.9,529.2,51.5,530.6,60.4,530.6z" fill="#FFCE63"></path>
	<path d="M209.9,559.1c-13.4,0-27-3-37.3-10.5c-10.5-7.5-17.8-16.5-24-28.3c-5.9-11.9-7.5-25.3-7.5-41.8c0-14.9,3-29.9,7.5-41.9   c5.9-11.9,13.4-22.4,24-28.3c10.5-7.5,22.4-10.5,37.3-10.5c13.4,0,27,3,37.3,10.5c10.5,7.5,17.8,16.5,24,28.3   c5.9,11.9,9,25.4,9,41.9c0,14.9-3,29.9-9,41.8c-5.9,11.9-13.4,22.4-24,28.3C236.7,554.6,224.8,559.1,209.9,559.1z M209.9,530.6   c9,0,14.9-1.6,20.8-5.9c5.9-4.6,10.5-10.5,11.9-17.8c3-7.5,4.6-16.5,4.6-27c0-16.5-3-28.3-9-37.3c-5.9-9-14.9-13.4-28.3-13.4   c-7.5,0-14.9,1.6-20.8,5.9c-5.9,4.6-9,10.5-11.9,17.8c-3,7.5-4.6,16.5-4.6,27s1.6,19.5,4.6,27s7.5,13.4,11.9,17.8   C194.8,527.6,202.4,530.6,209.9,530.6L209.9,530.6z" fill="#FFCE63"></path>
	<path d="M351.8,530.6c7.5,0,13.4-1.6,17.8-4.6c4.6-3,5.9-7.5,5.9-13.4c0-2.9,0-5.9-1.6-9c-1.6-1.6-3-4.6-5.9-5.9   c-3-1.6-7.5-3-11.9-5.9l-10.5-4.6c-9-3-16.5-5.9-20.8-10.5c-5.9-3-10.5-7.5-13.4-13.4c-3-5.9-4.6-11.9-4.6-20.8s1.6-17.8,5.9-24   c4.6-7.5,10.5-11.9,19.5-16.5s17.8-5.9,28.3-5.9c16.5,0,29.9,3,41.8,10.5l-4.6,27c-5.9-3-10.5-5.9-16.5-7.5c-5.9-1.6-11.9-3-19.5-3   s-13.4,1.6-17.8,4.6c-4.4,3-5.9,7.5-5.9,11.9c0,3,0,5.9,1.6,9c1.6,1.6,3,4.6,5.9,5.9c3,1.6,7.5,3,11.9,5.9l10.5,4.6   c9,3,16.5,5.9,20.8,10.5c5.9,3,10.5,9,13.4,13.4c3,5.9,4.6,13.4,4.6,20.8c0,9-1.6,17.8-5.9,24c-4.6,7.5-10.5,11.9-17.8,16.5   c-9,4.6-17.8,5.9-29.9,5.9c-9,0-17.8-1.6-25.3-3c-7.5-1.6-14.9-5.9-20.8-9l4.6-28.3c7.5,4.6,13.4,7.5,19.5,9   C335.3,529.2,342.7,530.6,351.8,530.6z" fill="#FFCE63"></path>
</g>
</svg>