<?xml version='1.0' encoding='utf-8'?>
<!-- Generator: Adobe Illustrator 27.2.0, SVG Export Plug-In . SVG Version: 6.00 Build 0)  --><svg xmlns="http://www.w3.org/2000/svg" xmlns:xlink="http://www.w3.org/1999/xlink" version="1.1" id="Vrstva_1" x="0px" y="0px" viewBox="0 0 535.4 566.9" style="enable-background:new 0 0 535.4 566.9;" xml:space="preserve" width="377.77386" height="400.0">
<style type="text/css">
	.st0{fill-rule:evenodd;clip-rule:evenodd;}
</style>
<path d="M363.5,24.4c-24.1,0-48.3,41.3-83.9,41.3h-24.1c-35.6,0-59.7-41.3-83.9-41.3s-27.1,17.1-35.6,54  c-11.5,48.3-24.1,95.3-47,119.6C61.9,225,5,226.4,5,250.6s24.1,31.3,71.2,42.8c0,0,47,11.5,190.8,11.5s192.1-11.5,192.1-11.5  c48.3-11.5,71.2-18.4,71.2-42.8S473.5,225,446.4,198c-24.1-24.1-35.6-71.2-47-119.6l0,0C390.7,41.5,387.9,24.4,363.5,24.4  L363.5,24.4z"></path>
<path class="st0" d="M78.5,341.7v129.6c0,24.1,59.7,71.2,95.3,71.2c28.4,0,48.3-17.1,65.5-29.9c11.5-10,21.3-17.1,29.9-17.1  s18.4,7.2,29.9,17.1c17.1,14.3,37.1,29.9,65.5,29.9c35.6,0,95.3-47,95.3-71.2V341.7h-1.5c-7.2,1.5-19.9,2.8-35.6,4.3  c-31.3,2.8-81.1,5.7-153.7,5.7s-122.4-2.8-153.7-5.7c-15.7-1.5-27.1-2.8-35.6-4.3C74.3,340.8,73.8,340.8,78.5,341.7L78.5,341.7z   M306.2,471.2c0-15.7,8.5-45.6,35.6-59.7C365.9,400,390.2,400,413,400c0,24.1-4.3,49.7-24.1,59.7  C370.3,469.8,341.8,471.2,306.2,471.2L306.2,471.2z M198.2,411.5c27.1,12.9,35.6,44.1,35.6,59.7c-35.6,0-64-2.8-83.9-11.5  c-18.4-10-24.1-35.6-24.1-59.7C151.1,400.2,173.8,400.2,198.2,411.5z"></path>
</svg>