<?xml version='1.0' encoding='utf-8'?>
<!-- Generator: Adobe Illustrator 27.2.0, SVG Export Plug-In . SVG Version: 6.00 Build 0)  --><svg xmlns="http://www.w3.org/2000/svg" xmlns:xlink="http://www.w3.org/1999/xlink" version="1.1" id="Vrstva_1" x="0px" y="0px" viewBox="0 0 459.4 566.9" style="enable-background:new 0 0 459.4 566.9;" xml:space="preserve" width="324.14886" height="400.0">
<g>
	<path d="M427.7,338v-56.7h25.6v-25.6H244.4v25.6H270V338c0,12.7,2.9,24.2,10,35.6c5.7,11.4,14.2,19.9,25.6,27   c-10,7.1-18.5,15.6-25.6,27c-5.7,11.4-8.5,22.7-10,35.6v56.7h-25.6v25.6H453v-25.6h-25.6v-56.7c0-12.7-2.9-24.2-10-35.6   c-5.7-11.4-14.2-19.9-25.6-27c10-7.1,18.5-15.6,25.6-27C423.5,362.2,427.7,349.3,427.7,338L427.7,338z M297.1,461.4   c0-11.4,4.2-21.4,11.4-29.8s17.1-14.2,28.5-17.1v51.2c-8.5,2.9-15.6,8.5-22.7,15.6c-7.1,7.1-10,10-17.1,10L297.1,461.4L297.1,461.4   z M400.6,488.4c-7.1,0-10-2.9-17.1-10c-5.7-7.1-14.2-11.4-22.7-15.6v-51.2c11.4,2.9,21.3,8.5,28.5,17.1   c7.1,8.5,11.4,18.5,11.4,29.8L400.6,488.4L400.6,488.4L400.6,488.4z M400.6,320.8c-7.1,0-12.7,1.4-19.8,4.2   c-5.7,2.9-11.4,7.1-15.6,12.7c-7.1,7.1-10,10-17.1,10s-10-2.9-17.1-10c-4.2-5.7-10-10-15.6-12.7c-5.7-2.9-12.7-4.2-19.9-4.2V281   h105v39.8H400.6L400.6,320.8z"></path>
	<path d="M180.6,323.7c-17.1-17.1-25.6-41.2-25.6-65.3s10-46.9,27-63.8c17.1-17.1,39.8-27,63.8-27s48.3,8.5,65.3,25.6L420.3,84   l-62.4-62.4C277,25.8,182,74.1,119.5,135.2S10.3,291,6.1,373.4l62.4,62.4L180.6,323.7L180.6,323.7z"></path>
</g>
</svg>