<?xml version='1.0' encoding='utf-8'?>
<!-- Generator: Adobe Illustrator 27.2.0, SVG Export Plug-In . SVG Version: 6.00 Build 0)  --><svg xmlns="http://www.w3.org/2000/svg" xmlns:xlink="http://www.w3.org/1999/xlink" version="1.1" id="Vrstva_1" x="0px" y="0px" viewBox="0 0 420.4 566.9" style="enable-background:new 0 0 420.4 566.9;" xml:space="preserve" width="296.6308" height="400.0">
<path d="M319.5,279l50.6-88.8c1.2-1.2,2.1-3.1,2.6-5.8c0.5-2.6,0.8-4.9,0.8-7v-3.1c0-3.3-0.8-6.4-2.5-9.3c-1.7-2.9-4.3-6-8.1-9.2  c-26.2-22.2-52.4-40.8-81.4-59.5c-29-18.6-88.2-48.4-92.2-49.4c-3.9-0.9-12-1-15.8,0c-3.4,0.9-6.1,3.4-9,5.3  c-2.9,1.9-5.2,4.3-6.8,7.5l-57.1,98.4L72,142.3l69.9-120.5c2.5-4.5,6.4-8.2,11.8-11c5.4-2.8,10.5-4.2,15.2-4.2  c3.5,0,7.2,0.8,11.2,2.5c82.4,32.1,157.5,78.6,225.2,139.4c0,0,3.6,3.9,6,7.1c2.4,3.2,3.7,9.1,3.7,12.2c0,3.3-0.2,6.6-0.5,9.9  c-0.3,3.3-1.3,7.4-3,12.4l-53.7,88.8h6.2c4.3,0,8.4,0.8,12.3,2.5c3.8,1.7,7.2,3.9,10.1,6.7c2.9,2.8,5.2,6.1,6.8,9.9  c1.7,3.8,2.5,7.9,2.5,12.3v203.4c0,4.3-1.5,8.7-4.5,13.2c-3,4.5-7.9,8.4-14.8,12C318.8,553.2,260,560.3,200,560.3  s-119.7-7.2-178.9-21.4c0,0-4.2-1.8-6-3.1s-3.4-3.2-5-4.8s-2.2-4.8-3.1-7.2c-0.9-2.4-1.4-5.8-1.4-10.1V310.3  c0-9.3,2.6-16.9,7.8-22.7c5.2-5.8,13-8.7,23.6-8.7L319.5,279L319.5,279z M36.9,491.4c0,1.7,0.5,3.5,1.4,5.6s2.2,4.1,3.7,6.2  c1.5,2.1,3.3,3.8,5.1,5.1c1.9,1.3,5.6,2,5.6,2c49.3,11.2,98.4,16.8,147.5,16.8s96.2-6,144.5-15.3c4.5-0.9,7.3-3,10.8-6.2  c3.5-3.1,5.3-7.2,5.3-12.4v-154c0-9.3-2.6-15.9-7.9-19.7c-5.3-3.8-12.3-5.7-21-5.7H65.5c-3.5,0-7,0.6-10.4,1.9s-6.5,3-9.2,5.1  c-2.7,2.2-4.9,4.9-6.5,8.1c-1.7,3.2-2.5,6.7-2.5,10.4L36.9,491.4L36.9,491.4L36.9,491.4z M183.2,469.3c0,0-1.4,19.2,15.5,19  c16.6-0.3,15.8-17.9,15.8-19l0-108.6c-0.4-3.8-4.3-12.4-15.8-12.2c-9.8,0.1-15,8.7-14.6,12.7L183.2,469.3L183.2,469.3L183.2,469.3z"></path>
</svg>