<?xml version='1.0' encoding='utf-8'?>
<!-- Generator: Adobe Illustrator 27.2.0, SVG Export Plug-In . SVG Version: 6.00 Build 0)  --><svg xmlns="http://www.w3.org/2000/svg" xmlns:xlink="http://www.w3.org/1999/xlink" version="1.1" id="Vrstva_1" x="0px" y="0px" viewBox="0 0 478.4 566.9" style="enable-background:new 0 0 478.4 566.9;" xml:space="preserve" width="337.5551" height="400.0">
<g>
	<path d="M6.5,559.4c-1.4,0-2.2-0.7-2.2-2.2V384.7c0-1.4,0.7-2.1,2.2-2.1h33.1c0.9,0,1.5,0.1,2,0.4s0.9,0.8,1.3,1.5l37.6,66.8   c0.7,1.2,1.4,2.5,2,3.8c0.6,1.3,1.2,2.5,1.7,3.6c0.5,1.1,0.9,2,1.2,2.8s0.5,1.2,0.6,1.4c0-0.1,0.2-0.5,0.5-1.2   c0.3-0.7,0.7-1.6,1.2-2.7s1-2.3,1.7-3.7c0.6-1.4,1.3-2.7,2-4.1l37.5-66.6c0.4-0.7,0.8-1.2,1.3-1.5s1.1-0.4,2-0.4h33.2   c1.4,0,2.2,0.7,2.2,2.1v172.5c0,1.4-0.7,2.2-2.2,2.2h-27.6c-1.4,0-2.2-0.7-2.2-2.2l-0.2-127.9c-0.1,0-0.2,0.3-0.4,0.8   s-0.5,1.3-0.8,2.1c-0.4,0.9-0.8,1.8-1.3,2.9c-0.5,1.1-1,2.1-1.6,3.2l-32.7,61.1c-0.4,0.7-0.8,1.2-1.3,1.5s-1.1,0.4-2,0.4H76.5   c-0.9,0-1.5-0.1-2-0.4s-0.9-0.8-1.3-1.5l-32.4-60c-0.6-1.3-1.2-2.5-1.7-3.7c-0.5-1.2-1-2.3-1.4-3.2c-0.4-1-0.7-1.7-0.9-2.3   s-0.3-0.8-0.4-0.8l-0.2,127.9c0,1.4-0.7,2.2-2.2,2.2L6.5,559.4L6.5,559.4L6.5,559.4z"></path>
	<path d="M175.5,559.4c-1.4,0-1.9-0.7-1.4-2l56-172.7c0.3-0.8,0.7-1.3,1-1.6s1-0.4,1.9-0.4h39.5c0.9,0,1.5,0.1,1.9,0.4   s0.7,0.8,1,1.6l56.2,172.7c0.5,1.4,0,2-1.4,2h-30.7c-0.9,0-1.5-0.1-1.9-0.4c-0.4-0.3-0.7-0.8-0.9-1.6l-10.4-33.9h-67.4l-10.3,33.9   c-0.2,0.8-0.5,1.3-0.9,1.6c-0.4,0.3-1,0.4-1.9,0.4H175.5L175.5,559.4L175.5,559.4z M252.6,413.5l-24.8,81.1h49.7L252.6,413.5z"></path>
	<path d="M438.9,559.4c-0.9,0-1.5-0.1-2-0.4c-0.4-0.3-0.9-0.7-1.3-1.4l-38.2-63.9L359,557.6c-0.4,0.6-0.8,1.1-1.3,1.4   c-0.4,0.3-1.1,0.4-2,0.4H322c-1.5,0-1.8-0.6-1-1.8l55.7-86.8L321,384.4c-0.9-1.2-0.6-1.8,1-1.8h33.8c0.9,0,1.5,0.1,2,0.4   s0.9,0.7,1.3,1.4l38.2,62.7l38.4-62.7c0.4-0.6,0.8-1.1,1.3-1.4c0.4-0.3,1.1-0.4,2-0.4h33.8c1.4,0,1.8,0.6,1,1.8l-55.8,86.4   l55.8,86.8c0.8,1.2,0.5,1.8-1,1.8L438.9,559.4L438.9,559.4L438.9,559.4z"></path>
	<path d="M459.2,74.5c-3.3-2.7-83.5-66.9-217.7-66.9S27.2,71.7,23.9,74.5l-11.1,9.1l115.8,187.8l13.7-7.5c0.2-0.1,8-4.3,20.3-9.4   l7.3,19.9l-15.4,24.8l27.9,17.4l19.6-31.6c2.7-4.3,3.2-9.6,1.5-14.3l-9.9-26.9c9.1-2.6,18.9-4.8,28.9-6.1l13.5,36.8l-15.4,24.8   l27.9,17.4l19.7-31.6c2.7-4.3,3.2-9.6,1.5-14.3l-12.3-33.4c11.7,1.3,23.1,3.9,33.7,6.9l11.1,30.3l-15.4,24.8l27.9,17.4l19.7-31.6   c2.7-4.3,3.2-9.6,1.5-14.4l-4.1-11.2c5.5,2.6,8.9,4.4,9.1,4.5l13.7,7.5L470.4,83.6L459.2,74.5L459.2,74.5L459.2,74.5L459.2,74.5z    M342.6,228.2c-6.8-3.1-15.8-6.8-26.2-10.5l-3-8.1l22-39.5c2.1-3.8,2.7-8.4,1.4-12.6l-11-38v-0.7h11.5l-28-64.7l-28,64.7h11.5v3   c0,1.6,0.2,3.1,0.6,4.6l9.7,33.6l-22.4,40.1c-1.2,2.2-1.9,4.6-2,7.1c-9.2-1.8-18.8-3.1-28.4-3.7l18.7-33.6   c2.1-3.8,2.6-8.4,1.4-12.6l-11-38v-0.7h11.5l-28-64.7l-28,64.7h11.5v3c0,1.6,0.2,3.1,0.6,4.6l9.7,33.6l-22.4,40.1   c-1,1.7-1.6,3.6-1.9,5.5c-10.8,1.7-21.2,4.2-30.8,7l-1.1-3.1l22-39.5c2.1-3.8,2.6-8.4,1.4-12.6l-11-38v-0.7h11.5l-28-64.7l-28,64.7   h11.5v3c0,1.6,0.2,3.1,0.6,4.6l9.7,33.6l-22.4,40.1c-2.3,4.2-2.7,9.2-1.1,13.7l3.6,9.7c-4,1.6-7.5,3.2-10.7,4.6L56.4,91.7   c25.3-16.3,90.7-51.3,185.2-51.3s159.7,35.1,185.2,51.4L342.6,228.2L342.6,228.2L342.6,228.2z"></path>
</g>
</svg>