<?xml version='1.0' encoding='utf-8'?>
<!-- Generator: Adobe Illustrator 27.2.0, SVG Export Plug-In . SVG Version: 6.00 Build 0)  --><svg xmlns="http://www.w3.org/2000/svg" xmlns:xlink="http://www.w3.org/1999/xlink" version="1.1" id="Vrstva_1" x="0px" y="0px" viewBox="0 0 679.4 566.9" style="enable-background:new 0 0 679.4 566.9;" xml:space="preserve" width="479.37906" height="400.0">
<g>
	<path d="M505.6,545.2l-114.7-140l13.3-38.5C284.6,264,216.3,163.3,207.4,123.1c-6.5-29.5-1.7-56.3,13.5-75.3   c22-27.5,65-34.2,97-15.2c19.5,11.5,44.2,36,72.9,64.2c23.4,23.1,47.6,46.9,69.3,63.9c53.1,41.6,94.8,47.6,95.2,47.7l15.7,2.1   l0.1,15.9c0,0.2,0.6,28.6,20.7,68.9c20,40.1,68.6,90.1,69.1,90.6l13.5,13.8L505.6,545.2L505.6,545.2L505.6,545.2L505.6,545.2z    M431.7,397.9l78.3,95.6L622,397.1c-17.2-19-46.7-54-62.5-85.6c-15.1-30.3-20.9-55.3-23.1-70.3c-19.3-5.2-56-18.7-98.5-51.9   c-23.4-18.3-48.3-42.9-72.4-66.7c-25.8-25.5-50.3-49.6-65.9-58.9c-16.9-10-39.4-7-50.3,6.7c-8.4,10.5-10.6,26-6.4,44.8   c5,22.5,73.6,127.8,195.3,234.6l7.5,8L431.7,397.9L431.7,397.9z"></path>
	<path d="M242.2,250.4l-133.6-10.8l32.9,38.5c-36.9,29-115.3,103.2-136.6,222.2h98.7c20.9-81.5,79.6-132.4,100.8-148.7l30.9,36   L242.2,250.4L242.2,250.4L242.2,250.4z"></path>
</g>
</svg>