<?xml version='1.0' encoding='utf-8'?>
<!-- Generator: Adobe Illustrator 27.2.0, SVG Export Plug-In . SVG Version: 6.00 Build 0)  --><svg xmlns="http://www.w3.org/2000/svg" xmlns:xlink="http://www.w3.org/1999/xlink" version="1.1" id="Vrstva_1" x="0px" y="0px" viewBox="0 0 546.4 566.9" style="enable-background:new 0 0 546.4 566.9;" xml:space="preserve" width="385.53537" height="400.0">
<style type="text/css">
	.st0{fill-rule:evenodd;clip-rule:evenodd;}
</style>
<g>
	<path d="M316.8,122.8C309.6,69,263,26.9,206.4,26.9h-98.9V72H5.7v45.1h101.8V184H5.7v45.1h101.8v45.1h98.8   c59.6,0,107.4-46.4,111.8-104.6h40.7c5.8,0,10.1,1.6,14.5,4.4c4.4,2.8,7.2,7.2,10.1,13.1c1.5,5.8,1.5,11.6,0,16   c-1.5,2.8-2.8,7.2-4.4,8.8l-1.5,1.6h14.5c11.6,0,23.3,1.6,34.8,2.8l0,0c4.4-14.5,4.4-29.1-1.5-43.6c-4.4-14.5-14.5-26.1-26.1-34.8   c-11.6-8.8-24.7-13.1-39.2-13.1h-1.5L316.8,122.8L316.8,122.8z"></path>
	<path class="st0" d="M540.6,390.3c0,82.8-66.8,149.7-149.7,149.7s-149.7-66.8-149.7-149.7s66.7-149.7,149.7-149.7   C473.7,242,540.6,308.9,540.6,390.3z M404,388.8l-87.1-87.1v173L404,388.8L404,388.8z M491.1,388.8L404,301.6v173L491.1,388.8   L491.1,388.8z"></path>
</g>
</svg>