<?xml version='1.0' encoding='utf-8'?>
<!-- Generator: Adobe Illustrator 27.2.0, SVG Export Plug-In . SVG Version: 6.00 Build 0)  --><svg xmlns="http://www.w3.org/2000/svg" xmlns:xlink="http://www.w3.org/1999/xlink" version="1.1" id="Vrstva_1" x="0px" y="0px" viewBox="0 0 634.4 566.9" style="enable-background:new 0 0 634.4 566.9;" xml:space="preserve" width="447.62744" height="400.0">
<g>
	<path d="M230.5,405.7c-13-7.5-27.9-10.4-46.5-10.4s-33.2,3-46.2,10.4c-13.1,7.5-22.4,16.4-29.7,29.7c-7.5,11.9-11.1,26.8-11.1,41.7   s3.8,29.7,11.1,41.7c7.4,11.9,16.7,22.2,29.7,29.7c13.1,7.5,29.7,10.4,46.5,10.4c18.6,0,33.5-3,46.5-10.4   c13-7.5,24.2-16.4,29.7-29.7c7.5-11.9,11.1-26.8,11.1-41.7c0-16.4-3.8-29.7-11.1-41.7C252.9,422.1,243.6,413.1,230.5,405.7   L230.5,405.7L230.5,405.7z M225.1,505.3c-3.8,7.5-9.3,13.3-16.7,19.3c-7.5,4.4-14.9,6-26,6s-18.6-1.4-26-6   c-7.4-4.6-13.1-10.4-14.9-19.3c-3.8-7.5-5.6-17.9-5.6-28.2s1.8-19.3,5.6-28.2c3.8-7.5,9.3-13.3,14.9-17.9c7.5-4.4,14.9-7.5,26-7.5   c14.9,0,27.9,4.4,35.3,14.9c7.5,8.9,11.1,22.4,11.1,38.6C230.5,487.4,228.9,496.3,225.1,505.3L225.1,505.3L225.1,505.3z" fill="#FFCE63"></path>
	<polygon points="291.8,555.8 330.7,555.8 330.7,493.4 397.2,493.4 397.2,466.7 330.7,466.7 330.7,426.6 404.7,426.6 404.7,398.2    291.8,398.2  " fill="#FFCE63"></polygon>
	<polygon points="428.8,555.8 467.7,555.8 467.7,493.4 534.2,493.4 534.2,466.7 467.7,466.7 467.7,426.6 541.7,426.6 541.7,398.2    428.8,398.2  " fill="#FFCE63"></polygon>
	<polygon points="143.1,8 115,8 96.3,71.1 128.1,71.1  " fill="#FFCE63"></polygon>
	<polygon points="538,71.1 519.4,8 491.2,8 504.2,71.1  " fill="#FFCE63"></polygon>
	<polygon points="539.8,222 581.3,222 549.2,109.4 513.7,109.4  " fill="#FFCE63"></polygon>
	<polygon points="594.5,272 551.2,272 579.4,398.2 630.3,398.2  " fill="#FFCE63"></polygon>
	<polygon points="120.6,109.4 85,109.4 52.9,222 94.5,222  " fill="#FFCE63"></polygon>
	<polygon points="4.1,398.2 55,398.2 83.1,272 39.8,272  " fill="#FFCE63"></polygon>
	<path d="M466.6,348.1l-0.6-1.5c7.6,0,21.2-5,21.2-16.5V208.8l-26.2-36.5h26.2v-26.5h-45.1l-28.2-40l-7.6-1.5   c-3.8-1.5-11.2-1.5-20.7-3.5c-15.1-1.5-41.4-5-69.6-5c-30.1,0-54.6,3.5-69.6,5c-9.4,1.5-15.1,1.5-20.7,3.5l-7.5,1.5l-28,39.8H145   v26.5h26l-24.6,36.5v119.4c0,13.2,15.1,18.2,20.7,18.2h28.2c7.6,0,20.7-6.7,20.7-18.2v-18.2h199.4v18.2c0,13.2,15.1,18.2,20.7,18.2   h30.1 M352.2,208.8h99.6v45h-28.2l-15.1-18.2h-35.7L352.2,208.8L352.2,208.8L352.2,208.8z M259.8,235.5h-35.7L209,253.7h-28.2V209   h99.6L259.8,235.5L259.8,235.5L259.8,235.5z M237.2,129.3c3.8,0,7.6-1.5,13.2-1.5c15.1-1.5,37.6-5,65.8-5s50.8,1.5,65.8,5   c5.7,0,9.4,1.5,13.2,1.5l39.6,54.9h-237L237.2,129.3L237.2,129.3z" fill="#FFCE63"></path>
</g>
</svg>