<?xml version='1.0' encoding='utf-8'?>
<!-- Generator: Adobe Illustrator 27.2.0, SVG Export Plug-In . SVG Version: 6.00 Build 0)  --><svg xmlns="http://www.w3.org/2000/svg" xmlns:xlink="http://www.w3.org/1999/xlink" version="1.1" id="Vrstva_1" x="0px" y="0px" viewBox="0 0 509.4 566.9" style="enable-background:new 0 0 509.4 566.9;" xml:space="preserve" width="359.42847" height="400.0">
<path d="M400.8,221.2l86.8,42l17.8-36l-62.8-31.5l62.8-36L483,128.4l-61.3,36l4.5-69l-39-3l-6,95.8l-106.3,61.3V126.9l79.3-53.8  l-22.5-33l-58.5,39v-72h-39v72l-58.5-39l-22.2,33l79.3,53.8v122.8L128,188.4l-6-95.8l-39,3l4.5,69l-62.5-36L5.5,162.9l61.3,36  l-63,31.2l17.9,36l86.8-42l106.3,61.3l-106.3,61.3l-86.8-42l-16.5,33l63.1,31.6l-62.8,36L25,439.7l61.3-36l-3,69l39,3l6-95.8  l106.3-61.3v122.8l-79.3,53.8l22.5,33l56.8-40.3v72h39v-72l58.5,39l22.5-33L275.3,440V317.2l106.3,61.3l6,95.8l39-3l-4.5-69l61.3,36  L503,404l-61.3-36l62.8-30l-18.5-36l-86.8,42l-104.7-61.5L400.8,221.2L400.8,221.2z" fill="#51F093"></path>
</svg>