<?xml version='1.0' encoding='utf-8'?>
<!-- Generator: Adobe Illustrator 27.2.0, SVG Export Plug-In . SVG Version: 6.00 Build 0)  --><svg xmlns="http://www.w3.org/2000/svg" xmlns:xlink="http://www.w3.org/1999/xlink" version="1.1" id="Vrstva_1" x="0px" y="0px" viewBox="0 0 572.4 566.9" style="enable-background:new 0 0 572.4 566.9;" xml:space="preserve" width="403.88077" height="400.0">
<g>
	<path d="M273.3,173.8c16.9-15.4,39.9-24.5,62.8-24.5s46,10.8,62.8,26.2c16.8,15.4,26.2,39.9,26.2,62.8s-7.7,46-24.5,62.8   l107.3,107.3l59.9-59.9c-4.6-78.3-50.7-171.8-110.4-231.6C397.6,57,305.3,9.6,225.6,6.5l-59.7,60L273.3,173.8L273.3,173.8z"></path>
	<path d="M50.7,531.2c7.7,0,13.8-1.6,18.5-4.6c4.6-3.1,6.1-7.7,6.1-13.8c0-3.1,0-6.1-1.6-9.2c-1.6-1.6-3.1-4.6-6.1-6.1   c-3.1-1.6-6.1-3.1-12.4-4.6l-10.8-4.6c-9.2-3.1-15.4-6.1-21.4-10.8c-6.1-3.1-9.2-7.7-13.8-13.8c-3.1-6.1-4.6-12.4-4.6-21.4   S6.2,424,10.7,418c4.6-7.7,10.8-12.4,19.9-15.4c7.7-4.6,18.5-6.1,29.1-6.1c16.9,0,30.6,3.1,41.4,10.8l-4.6,27.6   c-6.1-3.1-10.8-6.1-16.9-7.7c-6.1-1.6-12.4-3.1-18.5-3.1c-7.7,0-13.8,1.6-18.5,4.6c-4.6,3.1-6.1,7.7-6.1,12.4c0,3.1,0,6.1,1.6,9.2   c1.6,1.6,3.1,4.6,6.1,6.1c3.1,1.6,7.7,3.1,12.4,6.1l10.8,4.6c9.2,3.1,15.4,6.1,21.4,10.8c6.1,3.1,10.8,9.2,13.8,13.8   c3.1,6.1,4.6,12.4,4.6,21.4c0,9-1.6,18.5-6.1,24.5c-4.6,7.7-10.8,12.4-18.5,16.8c-7.7,4.6-18.5,6.1-30.6,6.1   c-9.2,0-18.5-1.6-26.2-3.1s-15.4-4.6-21.4-9.2l4.6-27.6c7.7,4.6,13.8,7.7,19.9,9.2C35.5,531.2,43,531.2,50.7,531.2L50.7,531.2z"></path>
	<path d="M202.7,560.5c-13.8,0-26.2-3.1-36.9-10.8c-10.8-7.7-18.5-16.8-24.5-29.1c-6.1-12.4-7.7-26.2-7.7-41.4s3.1-29.1,7.7-41.4   c6.1-12.4,13.8-21.4,24.5-29.1c10.8-7.7,22.9-10.8,36.9-10.8s26.2,3.1,36.9,10.8c10.8,7.7,18.5,16.9,24.5,29.1   c6.1,12.4,7.7,26.2,7.7,41.4s-3.1,29.1-7.7,41.4c-6.1,12.4-13.8,21.4-24.5,29.1C228.7,557.4,216.4,560.5,202.7,560.5z M202.7,531.2   c7.7,0,15.4-1.6,21.4-6.1c6.1-4.6,9.2-10.8,12.4-18.5c3.1-7.7,4.6-16.9,4.6-27.6c0-16.9-3.1-29.1-9.2-38.3S216.6,427,204.3,427   c-7.7,0-15.4,1.6-21.4,6.1c-6.1,4.6-9.2,10.8-12.4,18.5c-3.1,7.7-4.6,16.9-4.6,27.6s1.6,20,4.6,27.6c3.1,7.7,7.7,13.7,12.4,18.5   C187.3,529.9,195,531.2,202.7,531.2L202.7,531.2z"></path>
	<path d="M345.3,531.2c7.7,0,13.8-1.6,18.5-4.6c4.6-3.1,6.1-7.7,6.1-13.8c0-3.1-1.6-6.1-1.6-9.2c-1.6-1.6-3.1-4.6-6.1-6.1   c-3.1-1.6-6.1-3.1-12.4-4.6l-10.8-4.6c-9.2-3.1-15.4-6.1-21.4-10.8c-6.1-3.1-9.2-7.7-13.8-13.8c-3.1-6.1-4.6-12.4-4.6-21.4   s1.6-18.5,6.1-24.5c4.6-7.7,10.8-12.4,18.5-15.4c7.7-4.6,18.5-6.1,29.1-6.1c16.9,0,30.6,3.1,41.4,10.8l-4.6,27.6   c-6.1-3.1-10.8-6.1-16.9-7.7c-6.1-1.6-12.4-3.1-18.5-3.1c-7.7,0-13.8,1.6-18.5,4.6c-4.6,3.1-6.1,7.7-6.1,12.4c0,3.1,0,6.1,1.6,9.2   c1.6,1.6,3.1,4.6,6.1,6.1c3.1,1.6,7.7,3.1,12.4,6.1l10.8,4.6c9.2,3.1,15.4,6.1,21.4,10.8c6.1,3.1,10.8,9.2,13.8,13.8   c3.1,6.1,4.6,12.4,4.6,21.4c0,9-1.6,18.5-6.1,24.5c-4.6,7.7-10.8,12.4-18.5,16.8c-7.7,4.6-18.5,6.1-30.6,6.1   c-9.2,0-18.5-1.6-26.2-3.1c-7.7-1.6-15.4-4.6-21.4-9.2l4.6-27.6c7.7,4.6,13.8,7.7,20,9.2C330.1,531.2,336.1,531.2,345.3,531.2   L345.3,531.2z"></path>
</g>
</svg>