<?xml version='1.0' encoding='utf-8'?>
<!-- Generator: Adobe Illustrator 27.2.0, SVG Export Plug-In . SVG Version: 6.00 Build 0)  --><svg xmlns="http://www.w3.org/2000/svg" xmlns:xlink="http://www.w3.org/1999/xlink" version="1.1" id="Vrstva_1" x="0px" y="0px" viewBox="0 0 788.4 566.9" style="enable-background:new 0 0 788.4 566.9;" xml:space="preserve" width="556.2886" height="400.0">
<g>
	<path d="M326.6,184.2c0-14.8-2.2-25.4-10.6-36c-6.4-10.6-17-19-33.8-29.6c-14.8-10.6-33.8-21.2-57-36l-2.2-2.2   c-27.4-17-59.2-33.8-97.1-59.2H66.7l23.2,14.8c31.8,21.4,61.4,38.3,86.7,55.1l4.4,4.4l8.4,6.4c19,10.6,33.8,21.2,46.6,29.6   c31.8,23.2,44.4,38,44.4,57c0,8.4-4.2,17-14.8,25.4c-10.6,8.4-25.4,19-44.4,29.6c-4.2,2.2-8.4,4.2-12.6,6.4   c-33.8,19-73.9,42.2-105.7,74c-23.2,25.4-46.6,61.4-65.6,111.9c-15,38-25.5,76-31.9,99.2l-2.2,10.6h88.8l2.2-6.4   c2.2-6.4,4.2-17,6.4-29.6v-2.2c0-4.2,2.2-6.4,2.2-10.6c4.2-17,6.4-36,12.6-55c12.6-48.6,29.6-82.4,50.8-105.7   c23.2-25.4,52.8-44.4,80.3-63.4c6.4-4.2,12.6-8.4,17-10.6c14.8-10.6,31.8-21.2,42.2-33.8C320.4,211.8,326.6,199,326.6,184.2   L326.6,184.2z" fill="#51F093"></path>
	<path d="M257,59.7c8.4,4.2,14.8,8.4,23.2,12.6h67.7l-31.8-17c-19-10.6-40.2-21.2-61.4-33.8h-65.6l27.4,17   C229.4,44.9,244.2,51.1,257,59.7L257,59.7L257,59.7z" fill="#51F093"></path>
	<path d="M421.7,197c-2.2,12.6-10.6,25.4-23.2,38c-12.6,12.6-27.4,25.4-44.4,40.2c-6.4,6.4-12.6,12.6-21.2,17l-17,14.8h65.6   l21.2-21.2c14.8-14.8,27.4-27.4,38-40.2c10.6-14.8,19-27.4,21.2-44.4l2.2-10.6h-44.4L421.7,197L421.7,197L421.7,197z" fill="#51F093"></path>
	<path d="M385.9,133.6c17,12.6,27.4,23.2,33.8,36l2.2,4.2h46.6l-4.2-10.6c-6.4-14.8-17-27.4-33.8-40.2c-17-12.6-38-25.4-67.6-40.2   h-63.5l27.4,14.8C347.7,108.2,368.9,120.8,385.9,133.6L385.9,133.6z" fill="#51F093"></path>
	<path d="M358.3,450.6c-12.6-33.8-19-69.8-8.4-97.1l4.2-10.6h-63.4l-2.2,4.2c-17,31.8-19,71.8-14.8,107.7c4.2,36,17,69.7,31.8,86.6   l2.2,4.2h105.7L402.9,533C390.1,514,371.1,484.4,358.3,450.6L358.3,450.6L358.3,450.6z" fill="#51F093"></path>
	<path d="M749.3,528.8c-31.8-17-84.5-50.8-128.9-86.6c-23.2-19-44.4-40.2-59.2-57c-8.4-8.4-12.6-17-17-25.4   c-4.2-8.4-6.4-14.8-6.4-19c0-27.4,14.8-48.6,33.8-69.8c17-21.2,38-46.6,38-80.3c0-17-4.2-31.8-12.6-44.4   c-8.4-12.6-23.2-23.2-42.2-33.8c-19-10.6-44.4-23.2-74-36c-6.4-2.2-12.6-6.4-19-8.4c-27.4-12.6-59.2-27.4-95.1-44.4l-2.2-2.2H299   l31.8,17C379.3,64,419.5,83,451.3,97.8c6.4,2.2,10.6,4.2,14.8,6.4c23.2,10.6,42.2,21.2,57,27.4c17,10.6,27.4,17,33.8,25.4   c6.4,8.4,8.4,17,8.4,31.8c0,25.4-19,46.6-40.2,69.8c-10.6,10.6-21.2,23.2-29.6,36c-8.4,12.6-14.8,27.4-14.8,44.4   c0,21.2,8.4,42.2,21.2,61.4c12.6,21.2,29.6,40.2,46.6,59.2c36,36,78.2,67.6,101.5,80.3l2.2,2.2h133.1L749.3,528.8L749.3,528.8z" fill="#51F093"></path>
</g>
</svg>