<?xml version='1.0' encoding='utf-8'?>
<!-- Generator: Adobe Illustrator 27.2.0, SVG Export Plug-In . SVG Version: 6.00 Build 0)  --><svg xmlns="http://www.w3.org/2000/svg" xmlns:xlink="http://www.w3.org/1999/xlink" version="1.1" id="Vrstva_1" x="0px" y="0px" viewBox="0 0 546.4 566.9" style="enable-background:new 0 0 546.4 566.9;" xml:space="preserve" width="385.53537" height="400.0">
<g>
	<path d="M540.9,70.4c0,27.6-23.1,50.9-50.9,50.9c-7.3,0-14.6-1.6-20.3-4.3l-75.8,66.9c1.5,4.4,1.5,10.1,1.5,14.6   c0,27.6-23.1,50.9-50.9,50.9s-49.5-21.9-50.9-49.5L235.5,175c-8.9,8.9-21.9,13-34.9,13c-7.3,0-16-1.6-21.9-5.7l-72.6,59.6   c1.5,4.4,1.5,8.9,1.5,13c0,27.6-23.1,50.9-50.9,50.9S5.5,282.8,5.5,255.1s23.1-50.9,50.9-50.9c8.9,0,16,1.6,21.9,5.7l72.6-59.6   c-1.5-4.4-1.5-8.9-1.5-13c0-27.6,23.1-50.9,50.9-50.9s49.5,21.9,50.9,49.5l58.2,24.7c8.9-8.9,21.9-13,34.9-13   c7.3,0,14.6,1.6,20.3,4.4L440.5,85c-1.5-4.3-1.5-10.1-1.5-14.6c0-27.6,23.1-50.9,50.9-50.9C517.6,19.3,540.9,42.8,540.9,70.4   L540.9,70.4z"></path>
	<path d="M89.9,547.5V410.8H21.5v136.6H89.9z"></path>
	<path d="M234,282.8v263.3h-68.5V282.8H234z"></path>
	<path d="M379.5,547.5V350.9H311v196.4h68.5V547.5z"></path>
	<path d="M523.4,224.4v322.9h-68.5V224.4H523.4z"></path>
</g>
</svg>