<?xml version='1.0' encoding='utf-8'?>
<!-- Generator: Adobe Illustrator 27.2.0, SVG Export Plug-In . SVG Version: 6.00 Build 0)  --><svg xmlns="http://www.w3.org/2000/svg" xmlns:xlink="http://www.w3.org/1999/xlink" version="1.1" id="Vrstva_1" x="0px" y="0px" viewBox="0 0 385.4 566.9" style="enable-background:new 0 0 385.4 566.9;" xml:space="preserve" width="271.93506" height="400.0">
<g>
	<g>
		<path d="M305.4,273c-6,4.4-22.4,10.5-31.4,13.4c-30,9-63.2,22.4-63.2,50.9c0,15,10.5,28.5,24,39h75.1c-34.5-9-67.6-30-67.6-39    c1.5-6,30-18,41.9-22.4c27-9,52.5-19.5,52.5-40.5c0-6-1.5-10.5-4.4-15h-45C297.8,264,303.9,270.1,305.4,273z" fill="#FFCE63"></path>
		<path d="M105.6,376.6L105.6,376.6c-34.5-9-67.6-30-67.6-39c1.5-6,30-18,41.9-22.4c27-9,52.5-19.5,52.5-40.5c0-6-1.5-10.5-4.4-15    H83c9,4.4,15,10.5,16.5,13.4c-6,4.4-22.4,10.5-31.4,13.4c-30,9-63.2,22.4-63.2,50.9c0,15,10.5,28.5,24,39h76.6L105.6,376.6    L105.6,376.6z" fill="#FFCE63"></path>
	</g>
	<path d="M327.8,52.3h-34.5l-19.5-31.4l-3-4.4l-4.4-1.5c-3-1.5-9-1.5-15-3c-12-1.5-31.4-4.4-54-4.4s-41.9,3-54,4.4   c-6,1.5-12,1.5-16.5,3l-4.4,1.5L98.4,52.3H63.9v21h21l-21,33.1V195l0,0v16.5c0,10.5,10.5,16.5,16.5,16.5h22.4   c6,0,16.5-6.1,16.5-16.5V195h154.7v16.5c0,10.5,10.5,16.5,16.5,16.5H313c6,0,16.5-6.1,16.5-16.5V195l0,0v-88.6l-21-33.1h21v-21   h-1.8L327.8,52.3L327.8,52.3z M132.6,35.7c3,0,6-1.5,10.5-1.5c12-1.5,30-4.4,50.9-4.4s39,1.5,50.9,4.4c4.4,0,7.5,1.5,10.5,1.5   l31.4,49.5H102.6L132.6,35.7L132.6,35.7z M150.6,128.9h-27l-10.5,16.5H90.6v-39h76.6L150.6,128.9L150.6,128.9z M239.3,128.9   l-16.5-22.4h76.6v39h-21l-12-16.5H239.3z" fill="#FFCE63"></path>
	<g>
		<path d="M129.6,408.1c-10.5-7.5-22.4-10.5-37.5-10.5s-27,3-37.5,10.5c-10.5,7.5-18,16.5-24,28.5c-6,12-9,25.5-9,41.9    c0,15,3,30,9,41.9c6,12,13.4,22.4,24,28.5c10.5,7.5,22.4,10.5,37.5,10.5s27-3,37.5-10.5c10.5-7.5,18-16.5,24-28.5    c6-12,9-27,9-41.9s-3-30-9-41.9C149.1,426.2,140.1,415.6,129.6,408.1L129.6,408.1z M126.6,507.3c-3,7.5-7.5,13.4-12,18    c-6,4.4-12,6-21,6c-7.5,0-15-1.5-21-6c-6-4.4-9-10.5-12-18c-3-7.5-4.4-16.5-4.4-27s1.5-19.5,4.4-27c3-7.5,7.5-13.4,12-18    c6-4.4,12-6,21-6c12,0,21,4.4,28.5,15c6,9,9,22.4,9,39C131.1,490.7,129.6,499.7,126.6,507.3L126.6,507.3z" fill="#FFCE63"></path>
		<polygon points="179.2,558.5 210.8,558.5 210.8,495.3 263.2,495.3 263.2,468.3 210.8,468.3 210.8,429.3 270.8,429.3 270.8,400.7     179.2,400.7   " fill="#FFCE63"></polygon>
		<polygon points="380.5,429.3 380.5,400.7 290.3,400.7 290.3,558.5 320.3,558.5 320.3,495.3 374.3,495.3 374.3,468.3 320.3,468.3     320.3,429.3   " fill="#FFCE63"></polygon>
	</g>
</g>
</svg>