<?xml version='1.0' encoding='utf-8'?>
<!-- Generator: Adobe Illustrator 27.2.0, SVG Export Plug-In . SVG Version: 6.00 Build 0)  --><svg xmlns="http://www.w3.org/2000/svg" xmlns:xlink="http://www.w3.org/1999/xlink" version="1.1" id="Vrstva_1" x="0px" y="0px" viewBox="0 0 949.6 566.9" style="enable-background:new 0 0 949.6 566.9;" xml:space="preserve" width="670.02997" height="400.0">
<style type="text/css">
	.st0{fill-rule:evenodd;clip-rule:evenodd;}
</style>
<g>
	<path d="M862,56.9H433.2v32.4H862c11.4,0,48.7,2.7,48.7,37.5v101.4c0,33.4-8.4,39-27.4,39h-16.2v-3.1c0-30.5-42.2-55.2-94.3-55.2   h-6.1v149h6.1c52.1,0,94.3-24.7,94.3-55.2v-3.1h16.2c59.8,0,59.8-53.8,59.8-71.5V126.9C943.1,85,910.5,56.9,862,56.9L862,56.9   L862,56.9z"></path>
	<path d="M87.6,477.6c-11.4,0-48.6-2.7-48.6-37.5V338.7c0-33.4,8.4-39,27.4-39v3.1c0,30.5,42.2,55.2,94.1,55.2h6.2V209h-6.2   c-52,0-94.1,24.7-94.1,55.2v3.1c-59.8,0-59.8,53.8-59.8,71.5v101.4c0,41.8,32.6,69.9,81.1,69.9h428.8v-32.4H87.6z"></path>
	<g>
		<path class="st0" d="M833.9,189.7v-15.1c0-30.5-24.7-55.2-55.1-55.2H151.2c-30.5,0-55.2,24.7-55.2,55.2v15.1h92v187.5H96v1.6    c0,30.5,12.9,73.1,55.2,73.1h627.5c46.8,0,55.1-42.6,55.1-73.1v-1.6h-89.7V189.7L833.9,189.7L833.9,189.7z M529.4,383.8h-296    V259.1h296L529.4,383.8L529.4,383.8z"></path>
		<rect x="271.7" y="293.6" width="24.8" height="55.8"></rect>
		<rect x="336.6" y="293.6" width="24.8" height="55.8"></rect>
		<rect x="401.4" y="293.6" width="24.8" height="55.8"></rect>
		<rect x="466.3" y="293.6" width="24.8" height="55.8"></rect>
	</g>
</g>
</svg>