<?xml version='1.0' encoding='utf-8'?>
<!-- Generator: Adobe Illustrator 27.2.0, SVG Export Plug-In . SVG Version: 6.00 Build 0)  --><svg xmlns="http://www.w3.org/2000/svg" xmlns:xlink="http://www.w3.org/1999/xlink" version="1.1" id="Vrstva_1" x="0px" y="0px" viewBox="0 0 558.4 566.9" style="enable-background:new 0 0 558.4 566.9;" xml:space="preserve" width="394.00247" height="400.0">
<style type="text/css">
	.st0{fill-rule:evenodd;clip-rule:evenodd;}
</style>
<g>
	<path d="M340.5,158c0,34.4-13.5,62.8-32.9,86.5c16.4,10.5,34.4,17.9,55.2,17.9c58.1,0,105.9-47.8,105.9-105.9   S420.9,50.7,362.8,50.7c-20.9,0-38.8,7.3-55.2,17.9C326.9,93.8,340.5,123.6,340.5,158L340.5,158z"></path>
	<path d="M364.2,305.8c-10.5,0-20.9,4.4-31.3,5.9c55.2,43.2,92.5,111.8,92.5,188v16.4h128.2v-16.4   C553.7,392.2,468.7,305.8,364.2,305.8L364.2,305.8z"></path>
	<path class="st0" d="M192.8,262.5c58.1,0,105.9-47.8,105.9-105.9S250.9,50.7,192.8,50.7S86.9,98.4,86.9,156.5   S134.5,262.5,192.8,262.5L192.8,262.5z M383.8,516.2v-16.4c0-107.4-85-193.9-189.5-193.9S4.8,392.2,4.8,499.8v16.4H383.8   L383.8,516.2z"></path>
</g>
</svg>