<?xml version='1.0' encoding='utf-8'?>
<!-- Generator: Adobe Illustrator 27.2.0, SVG Export Plug-In . SVG Version: 6.00 Build 0)  --><svg xmlns="http://www.w3.org/2000/svg" xmlns:xlink="http://www.w3.org/1999/xlink" version="1.1" id="Vrstva_1" x="0px" y="0px" viewBox="0 0 575.4 566.9" style="enable-background:new 0 0 575.4 566.9;" xml:space="preserve" width="405.99753" height="400.0">
<path d="M543.7,170c-6.1-2.8-13.2-1.9-18.3,2.3l-67,55.5l-297.1-10.9L53.1,90.8c-4.3-6.2-12.1-9-19.3-6.7  c-7.2,2.2-12.1,8.9-12.1,16.5v369.6c0,7.6,5,14.4,12.4,16.5c1.6,0.5,3.3,0.7,4.9,0.7c5.7,0,11.2-2.9,14.5-7.9l108.2-133.3l19.3-1.4  c-1,26.5,2.8,65,27.1,95.4c23.8,29.9,61.5,45.1,111.8,45.1c50.3,0,88-15.2,111.9-45.1c27.4-34.3,28.9-78.9,26.8-104.9l67,55.4  c5.1,4.3,12.3,5.1,18.3,2.3c6-2.8,9.9-8.9,9.9-15.6V185.6C553.6,178.9,549.8,172.8,543.7,170z M404.6,418.7  c-17.1,21.2-45.6,32-84.9,32c-39.2,0-67.7-10.7-84.7-32c-18.5-23-20.6-54.4-19.6-75.2l208.4-7.2  C425.7,356.5,425.4,392.8,404.6,418.7z"></path>
</svg>