<?xml version='1.0' encoding='utf-8'?>
<!-- Generator: Adobe Illustrator 27.2.0, SVG Export Plug-In . SVG Version: 6.00 Build 0)  --><svg xmlns="http://www.w3.org/2000/svg" xmlns:xlink="http://www.w3.org/1999/xlink" version="1.1" id="Vrstva_1" x="0px" y="0px" viewBox="0 0 647.4 566.9" style="enable-background:new 0 0 647.4 566.9;" xml:space="preserve" width="456.80014" height="400.0">
<style type="text/css">
	.st0{fill-rule:evenodd;clip-rule:evenodd;}
</style>
<g>
	<path d="M440.3,517.6c36.3,0,67.4-29.4,67.4-67.4s-29.4-67.4-67.4-67.4S373,412.2,373,450.2S404.1,517.6,440.3,517.6z"></path>
	<path class="st0" d="M139.6,49.3h502.9v352.6h-95c-19-39.8-58.8-67.4-105.4-67.4s-86.4,27.6-105.4,67.4h-197L139.6,49.3L139.6,49.3   z M324.6,434.7H4.8v32.8h319.7c0-5.2-1.7-10.4-1.7-17.3C322.8,445.1,324.6,439.9,324.6,434.7L324.6,434.7z M557.9,467.5h84.7v-32.8   h-84.7c0,5.2,1.7,10.4,1.7,17.3C557.9,457.1,557.9,462.3,557.9,467.5L557.9,467.5z"></path>
</g>
</svg>