<?xml version='1.0' encoding='utf-8'?>
<!-- Generator: Adobe Illustrator 27.2.0, SVG Export Plug-In . SVG Version: 6.00 Build 0)  --><svg xmlns="http://www.w3.org/2000/svg" xmlns:xlink="http://www.w3.org/1999/xlink" version="1.1" id="Vrstva_1" x="0px" y="0px" viewBox="0 0 874.6 566.9" style="enable-background:new 0 0 874.6 566.9;" xml:space="preserve" width="617.1106" height="400.0">
<g>
	<path d="M96.5,482.5l-54.8,55.2l-38-38l17.1-17h75.8L96.5,482.5L96.5,482.5z M390.7,545.5h-83.5l-116.4-96.3H52.3V117.6H191   l116.4-95.9h83.5L390.7,545.5L390.7,545.5L390.7,545.5z M326.6,492h10.6V75.3h-10.6l-116.8,95.9H105.9v224.7h104L326.6,492   L326.6,492z M417.9,86l64.2-64.5l37.9,38L417.7,161.3L417.9,86L417.9,86z M846,545.5H552.2c-6.8,0-12.7-2.6-17.5-7.9   c-4.8-5.2-7.3-11.7-7.3-19.1c0-7.4,2.5-13.7,7.3-18.8c4.8-5.1,10.6-7.7,17.5-7.7h294c6.8,0,12.7,2.6,17.5,7.7   c4.8,5.1,7.3,11.4,7.3,18.8s-2.5,13.7-7.3,19.1C858.7,542.8,852.9,545.5,846,545.5L846,545.5z M807.6,467.7H556.4l121.5-310.6   c1.8-4.2,4.4-7.7,8.2-10.2c3.6-2.6,8-3.8,12.8-3.8s9.2,1.3,13.1,3.8c3.8,2.6,6.7,6,8.3,10.2l121.5,310.6H807.6L807.6,467.7z    M624,421.8h149.8l-74.9-194.2L624,421.8L624,421.8z"></path>
</g>
</svg>