<?xml version='1.0' encoding='utf-8'?>
<!-- Generator: Adobe Illustrator 27.2.0, SVG Export Plug-In . SVG Version: 6.00 Build 0)  --><svg xmlns="http://www.w3.org/2000/svg" xmlns:xlink="http://www.w3.org/1999/xlink" version="1.1" id="Vrstva_1" x="0px" y="0px" viewBox="0 0 533.4 566.9" style="enable-background:new 0 0 533.4 566.9;" xml:space="preserve" width="376.36267" height="400.0">
<style type="text/css">
	.st0{fill:#C83C24;}
</style>
<circle class="st0" cx="267.2" cy="283.5" r="263.1"></circle>
<path d="M182.8,417.8H353l5.8-210h35.8v-24.4h-70.1v-18.6c0-17.3-12.9-32.8-32.8-32.8h-45.7c-20,0-32.8,14.3-32.8,32.8v18.6h-70.1  v24.4h34.1L182.8,417.8L182.8,417.8z M237.2,166.4c0-7.1,5.9-11.4,11.4-11.4h37.1c5.9,0,11.4,5.9,11.4,11.4v15.7h-60V166.4z   M231.5,380.7V223.5h20v157.2H231.5z M284.5,380.7V223.5h20v157.2H284.5z"></path>
</svg>