<?xml version='1.0' encoding='utf-8'?>
<!-- Generator: Adobe Illustrator 27.2.0, SVG Export Plug-In . SVG Version: 6.00 Build 0)  --><svg xmlns="http://www.w3.org/2000/svg" xmlns:xlink="http://www.w3.org/1999/xlink" version="1.1" id="Vrstva_1" x="0px" y="0px" viewBox="0 0 790.4 566.9" style="enable-background:new 0 0 790.4 566.9;" xml:space="preserve" width="557.69977" height="400.0">
<style type="text/css">
	.st0{fill-rule:evenodd;clip-rule:evenodd;}
</style>
<path class="st0" d="M545.3,68.7c0,23.2-6.3,53-40.2,95.2c-27.5,33.8-72,76.2-105.8,101.6C297.6,341.7,183.5,411.4,5.7,500.3h361.8  c25.4-16.9,84.7-63.4,125-105.8c2.1-2.1,2.1-4.4,4.3-6.3h67.8c-38,50.9-80.3,91-105.8,112.1h272.9c36.1-65.5,53-165,53-262.3  c-2.1-67.8-4.3-110.1-16.9-169.2h-88.9v12.6c-2.1,27.5-4.3,50.9-6.3,72h-57.2c4.3-23.2,10.6-53,10.6-86.6h-80.8V68.7L545.3,68.7z   M598.2,218.8L598.2,218.8c-4.3,14.8-27.5,59.3-54.9,103.7h65.5v-2.1c25.4-40.2,40.2-72,48.6-101.6H598.2L598.2,218.8z"></path>
</svg>