<?xml version='1.0' encoding='utf-8'?>
<!-- Generator: Adobe Illustrator 27.2.0, SVG Export Plug-In . SVG Version: 6.00 Build 0)  --><svg xmlns="http://www.w3.org/2000/svg" xmlns:xlink="http://www.w3.org/1999/xlink" version="1.1" id="Vrstva_1" x="0px" y="0px" viewBox="0 0 547.4 566.9" style="enable-background:new 0 0 547.4 566.9;" xml:space="preserve" width="386.24097" height="400.0">
<g>
	<rect x="4.6" y="7.6" width="44.9" height="181.4" fill="#FFCE63"></rect>
	<rect x="4.6" y="235.6" width="44.9" height="44.9" fill="#FFCE63"></rect>
	<path d="M239.9,484.4c-4.6,0-8.9,1.5-13.5,2.9l-44.9-43.5l-21,21l43.5,43.5c-1.5,4.6-2.9,8.9-2.9,13.5c0,21,16.5,37.5,37.5,37.5   s37.5-16.5,37.5-37.5C277.4,502.4,260.9,484.4,239.9,484.4z" fill="#FFCE63"></path>
	<path d="M239.9,310.5c-117,0-211.4,94.4-211.4,211.4v14.9h60.1v-29.9h-30c2.9-38.9,18.1-73.5,42-102l24.1,24l21-21l-22.5-24   c28.5-24,63-38.9,102-42v30h30v-30c38.9,2.9,73.5,18.1,102,42l-24.2,24l21,21l24-24c24,28.5,38.9,63,42,102h-30v30h60V522   C451.3,404.9,357,310.5,239.9,310.5L239.9,310.5z" fill="#FFCE63"></path>
	<path d="M542.8,69.1h-46.6l-27-43.5l-6-6l-6-1.5c-4.6-1.5-12-2.9-21-4.6c-49.5-7.5-100.5-7.5-149.8,0c-8.9,1.5-16.5,2.9-22.5,4.6   l-6,1.5l-30,49.5h-49.5v30H207L178.5,144v121.5h288v22.4c0,14.9,14.9,22.5,22.5,22.5h30c7.5,0,22.5-7.5,22.5-22.5V144L513,99.1   h28.4V69L542.8,69.1L542.8,69.1z M275.9,46.5c4.6-1.5,8.9-1.5,14.9-2.9c46.6-7.5,94.4-7.5,139.5,0c6,1.5,10.6,1.5,14.9,2.9l42,67.6   H232.5L275.9,46.5L275.9,46.5z M209.9,217.5l21-24.1h40.6l21-27H210V153l6-8.9h292.3l6,8.9v13.5h-82.4l21,27h40.5l21,24.1V234   H209.9L209.9,217.5L209.9,217.5z" fill="#FFCE63"></path>
</g>
</svg>