<?xml version='1.0' encoding='utf-8'?>
<!-- Generator: Adobe Illustrator 27.2.0, SVG Export Plug-In . SVG Version: 6.00 Build 0)  --><svg xmlns="http://www.w3.org/2000/svg" xmlns:xlink="http://www.w3.org/1999/xlink" version="1.1" id="Vrstva_1" x="0px" y="0px" viewBox="0 0 728.4 566.9" style="enable-background:new 0 0 728.4 566.9;" xml:space="preserve" width="513.95306" height="400.0">
<style type="text/css">
	.st0{fill-rule:evenodd;clip-rule:evenodd;}
</style>
<g>
	<path class="st0" d="M190.2,24C172.7,14.3,151.4,8.5,128,8.5H5.5v367.4h71.9V247.6h50.6c25.2,0,44.6-5.8,62.2-15.5   c17.5-9.7,31.1-25.2,38.8-42.7c9.7-17.5,13.6-38.8,13.6-60.3c0-23.3-3.9-42.7-13.6-60.3C221.3,49.2,207.7,33.7,190.2,24L190.2,24   L190.2,24z M157.2,169.9c-7.8,9.7-21.4,15.5-36.9,15.5H77.5V70.6h42.7c15.5,0,27.2,5.8,36.9,15.5c7.8,9.7,13.6,23.3,13.6,40.8   C168.9,146.4,165,160,157.2,169.9L157.2,169.9z M302.9,224.2c11.6-25.2,19.4-50.6,19.4-79.7h-36.9c0,23.3-5.8,44.6-15.5,64.2   c-11.6,19.4-25.2,36.9-44.6,50.6l25.2,25.2C271.9,270.9,289.3,249.4,302.9,224.2L302.9,224.2L302.9,224.2z M371,253.3   c15.5-33,23.3-70,23.3-106.9h-36.9c0,33-7.8,64.2-21.4,93.3c-13.6,29.1-34.9,54.5-60.3,75.8l27.2,25.2   C332,317.5,355.5,288.4,371,253.3L371,253.3L371,253.3z M468.2,146.4c0,46.7-9.7,93.3-29.1,136c-19.4,42.7-46.7,81.7-81.7,112.7   l-25.2-25.2c31-27.2,56.4-62.2,73.9-99.1c17.5-38.8,27.2-79.7,27.2-122.4h34.9L468.2,146.4L468.2,146.4L468.2,146.4z M722.8,521.6   H392.3v36.9h330.5V521.6z M557.6,154.2l128.2,330.5H429.3L557.6,154.2L557.6,154.2L557.6,154.2z M631.5,447.8H481.7l75.8-192.4   L631.5,447.8z" fill="#FFCE63"></path>
</g>
</svg>