<?xml version='1.0' encoding='utf-8'?>
<svg xmlns="http://www.w3.org/2000/svg" id="Vrstva_1" data-name="Vrstva 1" viewBox="0 0 850.39 566.93" width="599.99646" height="400.0">
  <path d="m425.45,540.66c-6.03,0-12.15-.21-18.2-.64-68.53-4.79-131.09-35.99-176.16-87.83-45.07-51.85-67.25-118.14-62.46-186.67,4.57-65.37,33.52-125.91,81.5-170.48,47.76-44.35,109.84-68.78,174.81-68.78,6.03,0,12.15.21,18.2.64,68.53,4.79,131.09,35.98,176.16,87.83,45.07,51.85,67.25,118.14,62.46,186.67-4.57,65.36-33.52,125.91-81.51,170.48-47.76,44.35-109.84,68.78-174.81,68.78h0Zm-.51-499.76c-126.69,0-232.86,99.11-241.71,225.65-9.33,133.41,91.62,249.55,225.04,258.88,5.71.4,11.48.6,17.18.6,126.69,0,232.86-99.12,241.71-225.65,9.33-133.41-91.63-249.55-225.04-258.88-5.7-.4-11.48-.6-17.18-.6h0Z"></path>
  <path d="m425.45,548.66c-6.21,0-12.52-.22-18.75-.66-70.66-4.94-135.17-37.1-181.64-90.56-46.47-53.46-69.34-121.82-64.4-192.48,4.71-67.4,34.56-129.82,84.04-175.78,49.25-45.73,113.26-70.92,180.25-70.92,6.21,0,12.52.22,18.75.66,70.66,4.94,135.17,37.1,181.64,90.56,46.47,53.46,69.34,121.82,64.4,192.48-4.71,67.4-34.56,129.82-84.04,175.78-49.24,45.73-113.26,70.92-180.25,70.92h0Zm-.51-499.76c-122.51,0-225.17,95.85-233.73,218.2-9.02,129.01,88.6,241.32,217.62,250.34,5.51.39,11.1.58,16.62.58,122.51,0,225.17-95.85,233.72-218.21,9.02-129.01-88.6-241.32-217.62-250.34-5.5-.39-11.09-.58-16.62-.58h0Z"></path>
  <g>
    <path d="m424.11,29.36l-135.76,465.87c4.43,1.96,8.93,3.79,13.5,5.47L438.47,31.87c-4.68-1.16-9.57-1.64-14.36-2.51h0Z"></path>
    <path d="m305.13,507.09l-5-1.84c-4.54-1.67-9.18-3.55-13.8-5.59l-3.91-1.73L420.59,23.77l4.41.8c1.66.3,3.33.55,5.09.82,3.13.47,6.37.96,9.58,1.76l4.95,1.23-139.5,478.72Zm-10.83-14.62c1.44.6,2.87,1.19,4.3,1.75L432.24,35.59c-1.19-.2-2.41-.38-3.65-.57-.31-.05-.63-.1-.95-.14l-133.35,457.6Z"></path>
  </g>
  <g>
    <path d="m460.4,35.53l-138.36,481.98c4.67,1.4,9.39,2.67,14.18,3.78L474.55,39.43c-4.55-1.8-9.47-2.38-14.15-3.89h0Z"></path>
    <path d="m339.72,527.23l-4.62-1.07c-4.72-1.09-9.59-2.39-14.49-3.86l-4.73-1.42L454.26,38.81l-7.04-2.27,21.12-10.56-1.74,6.06c.35.08.7.16,1.06.25,2.84.66,5.78,1.35,8.72,2.5l4.22,1.67-140.89,490.79Zm-11.49-13.14c1.51.42,3.02.82,4.52,1.2L468.4,42.73c-.97-.25-1.97-.48-2.99-.72-.52-.12-1.04-.24-1.56-.37l-135.62,472.45Z"></path>
  </g>
  <g>
    <path d="m498.29,42.69l-138.22,481.53c4.86.79,9.76,1.45,14.71,1.93L512.18,47.48c-4.36-2.41-9.37-2.65-13.89-4.79h0Z"></path>
    <path d="m378.43,531.54l-4.14-.41c-4.89-.48-9.8-1.13-15.02-1.98l-5.56-.9L493.99,39.55l3.88-2.59,2.56,1.21c1.68.79,3.6,1.3,5.63,1.84,2.66.7,5.67,1.5,8.54,3.09l3.48,1.93-1.1,3.82-138.56,482.68Zm-11.99-11.41c1.58.22,3.14.42,4.69.6L506.14,50.41c-.85-.26-1.73-.49-2.64-.73-.62-.16-1.24-.33-1.87-.5l-135.19,470.96Z"></path>
  </g>
  <g>
    <path d="m533.82,56.67l-136.12,474.19c5.12.16,10.21.16,15.27-.01l133.59-465.38c-4.15-3.07-8.4-6-12.74-8.8h0Z"></path>
    <path d="m405.23,535.98c-2.53,0-5.1-.04-7.69-.12l-6.42-.2L530.87,48.82l5.66,3.65c4.46,2.87,8.83,5.89,13,8.98l2.79,2.06-.96,3.33-134.59,468.87-3.63.13c-2.58.09-5.22.14-7.91.14Zm-.93-10c1.64,0,3.27,0,4.87-.03l131.62-458.49c-1.33-.96-2.68-1.9-4.05-2.84l-132.44,461.36Z"></path>
  </g>
  <g>
    <path d="m435.07,537.83c5.35-.57,10.38-.81,15.63-1.74l127.96-444.95c-3.92-3.81-7.95-7.48-12.1-11.01l-131.48,457.7h0Z"></path>
    <path d="m438.84,542.83h-3.77l-.27-5.08-4.54-1.3,133.62-465.15,5.9,5.02c4.2,3.57,8.36,7.35,12.35,11.24l2.15,2.09-.83,2.88-128.82,447.94-3.07.55c-3.87.69-7.62,1.02-11.24,1.34-.46.04-.93.08-1.39.12l-.1.35Zm130.34-453.74l-127.28,443.08c1.65-.15,3.26-.32,4.88-.54l126.24-438.98c-1.27-1.2-2.55-2.39-3.84-3.56Z"></path>
  </g>
</svg>