<?xml version='1.0' encoding='utf-8'?>
<!-- Generator: Adobe Illustrator 27.2.0, SVG Export Plug-In . SVG Version: 6.00 Build 0)  --><svg xmlns="http://www.w3.org/2000/svg" xmlns:xlink="http://www.w3.org/1999/xlink" version="1.1" id="Vrstva_1" x="0px" y="0px" viewBox="0 0 418.4 566.9" style="enable-background:new 0 0 418.4 566.9;" xml:space="preserve" width="295.2196" height="400.0">
<g>
	<path d="M369.8,244.2c8,1.1,14.7,2.8,20,5.1s9.5,5.4,12.5,9.3c3,3.9,5.2,8.9,6.5,14.8c1.3,6,2,13.2,2,21.7v174.4   c0,9.1-1.6,17.7-4.7,25.7c-3.2,8-7.8,14.9-13.8,20.5c-2.6,2.8-6.4,5.5-11.4,8s-10,4.6-15.2,6.3s-9.6,3.2-13.5,4.2   c-3.9,1.1-6.1,1.6-6.5,1.6c-4.8,0.9-11,1.9-18.8,3.1c-7.7,1.2-17.1,2.4-28.2,3.6c-11.1,1.2-24,2.2-38.8,2.9s-31.5,1.1-50.2,1.1   c-21.3,0-40.1-0.4-56.4-1.3c-16.3-0.9-30.3-2-42.1-3.3c-11.7-1.3-21.3-2.6-28.5-3.8c-7.3-1.2-12.4-2.1-15.2-2.8   c-10.4-1.1-19.1-3.6-25.9-7.5c-6.9-3.9-11.9-8-15.2-12.4c-6.1-5.6-10.8-12.5-14-20.5c-3.3-8-4.9-16.6-4.9-25.7V295   c0-8.5,0.6-15.7,1.8-21.7c1.2-6,3.3-10.9,6.4-14.8c3-3.9,7.2-7,12.4-9.3s11.8-4,19.9-5.1v-62.9c0-22.2,4.2-43,12.7-62.6   s20.1-36.6,34.7-51.2s31.9-26.1,51.5-34.5c19.7-8.5,40.6-12.7,62.8-12.7S252,24.5,271.5,33s36.5,20,51,34.5   c14.6,14.6,26.1,31.6,34.6,51.2c8.5,19.6,12.7,40.4,12.7,62.6L369.8,244.2L369.8,244.2L369.8,244.2L369.8,244.2z M154.4,255.6   c-2.4-1.1-5.2-1.5-8.5-1.3c-2.8,0.2-6.1,1.1-9.9,2.6c-3.8,1.5-8.1,4.4-12.9,8.5c-3.3,2.8-7.6,6.8-13,12.1   c-5.4,5.2-11.2,11-17.4,17.3c-6.2,6.3-12.5,12.8-18.9,19.4c-6.4,6.6-12.2,12.5-17.4,17.8c-4.8,5-7.2,10.9-7.2,17.6   s2.5,12.6,7.5,17.6s10.9,7.5,17.6,7.5s12.6-2.5,17.6-7.5l34.2-34.2c2.4-2.4,5.2-3,8.3-1.8c3.1,1.2,4.7,3.5,4.7,7v48.2   c0,3.7-0.2,7.3-0.5,10.9s-0.9,7.2-1.8,10.9l-11.1,70.4c-1.7,7.2-0.6,13.9,3.3,20.2c3.9,6.3,9.5,10.3,16.6,12.1   c7.4,1.7,14.3,0.7,20.7-3.1c6.4-3.8,10.5-9.4,12.2-16.8l14.7-58.3c0.9-3,2.4-5.3,4.6-6.9c2.2-1.5,4.6-2.3,7.2-2.3s5,0.8,7.2,2.3   c2.2,1.5,3.7,3.8,4.6,6.9l14.7,58.3c1.7,7.4,5.8,13,12.2,16.8s13.3,4.8,20.7,3.1c7.2-1.7,12.7-5.8,16.6-12.1c3.9-6.3,5-13,3.3-20.2   l-11.1-70.4c-0.9-3.7-1.5-7.3-1.8-10.9c-0.3-3.6-0.5-7.2-0.5-10.9v-48.2c0-3.5,1.6-5.8,4.7-7c3.1-1.2,5.9-0.6,8.3,1.8l34.2,34.2   c5,5,10.9,7.5,17.6,7.5s12.6-2.5,17.6-7.5c5-5,7.5-10.9,7.5-17.6s-2.4-12.6-7.2-17.6c-5.2-5.2-11-11.1-17.4-17.8   s-12.7-13.1-18.9-19.4c-6.2-6.3-12-12.1-17.4-17.3s-9.8-9.2-13-12.1c-4.8-4.1-9.1-7-12.9-8.5c-3.8-1.5-7.1-2.4-9.9-2.6   c-3.3-0.2-6.1,0.2-8.5,1.3c-8.3,4.8-16.4,8.4-24.4,10.8c-8,2.4-16.1,3.6-24.3,3.6s-16.5-1.2-25.1-3.6   C173.1,264,164,260.4,154.4,255.6L154.4,255.6L154.4,255.6z M332.7,180.6c0-17.2-3.3-33.2-9.8-48.2s-15.3-28.1-26.4-39.3   c-11.1-11.2-24.1-20-39.1-26.4c-15-6.4-31-9.6-47.9-9.6s-33.6,3.2-48.7,9.6c-15.1,6.4-28.2,15.2-39.4,26.4   c-11.2,11.2-20,24.3-26.6,39.3S85,163.5,85,180.6v65.8h63.9c-6.7-7.4-12-15.8-15.8-25.1c-3.8-9.3-5.7-19.4-5.7-30.3   s2.1-21.9,6.3-31.8c4.2-9.9,10-18.5,17.4-25.9c7.4-7.4,16-13.2,25.9-17.4c9.9-4.2,20.5-6.4,31.8-6.4s21.9,2.1,31.8,6.4   c9.9,4.2,18.5,10.1,25.9,17.4c7.4,7.4,13.2,16,17.6,25.9c4.3,9.9,6.5,20.5,6.5,31.8s-2,21-5.9,30.3c-3.9,9.3-9.2,17.7-16,25.1h63.9   L332.7,180.6L332.7,180.6L332.7,180.6z M155.4,191.1c0,7.4,1.4,14.3,4.2,20.9c2.8,6.5,6.7,12.2,11.6,17.1s10.5,8.8,17,11.6   c6.4,2.8,13.3,4.2,20.7,4.2s14.3-1.4,20.9-4.2s12.2-6.7,17.1-11.6c4.9-4.9,8.7-10.6,11.6-17.1c2.8-6.5,4.2-13.5,4.2-20.9   s-1.4-14.3-4.2-20.9c-2.8-6.5-6.7-12.2-11.6-17.1c-4.9-4.9-10.6-8.7-17.1-11.6c-6.5-2.8-13.5-4.2-20.9-4.2s-14.3,1.4-20.7,4.2   c-6.4,2.8-12.1,6.7-17,11.6c-4.9,4.9-8.8,10.6-11.6,17.1C156.8,176.7,155.4,183.7,155.4,191.1z"></path>
</g>
</svg>