<?xml version='1.0' encoding='utf-8'?>
<!-- Generator: Adobe Illustrator 27.2.0, SVG Export Plug-In . SVG Version: 6.00 Build 0)  --><svg xmlns="http://www.w3.org/2000/svg" xmlns:xlink="http://www.w3.org/1999/xlink" version="1.1" id="Vrstva_1" x="0px" y="0px" viewBox="0 0 653.4 566.9" style="enable-background:new 0 0 653.4 566.9;" xml:space="preserve" width="461.0337" height="400.0">
<style type="text/css">
	.st0{fill-rule:evenodd;clip-rule:evenodd;}
</style>
<g>
	<path class="st0" d="M261.3,324.5l-26-24.5c-20.9,10.4-40,22.6-57.5,31.3l0,0c-3.6,1.7-5.1,3.6-8.7,5.1   C139.5,340,76.8,350.4,57.8,359c-24.5,10.7-52.2,38.4-52.2,83.8s15.6,50.5,29.6,50.5h31.3c5.1,17.4,31.3,52.2,73.1,52.2   s69.5-36.5,73.1-52.2h219.4c5.1,17.4,33.1,52.2,78.2,52.2c41.8,0,71.4-45.4,76.7-64.4l60.9-26V340.1c-10.4-5.1-36.5-15.6-69.5-29.6   l-34.8,20.9l3.6,1.7c26,10.4,50.5,20.9,67.8,27.9v71.4l-57.5,24.5v1.7c0,29.6-22.6,52.2-50.5,52.2l0,0c-3.6,0-7,0-8.7-1.7   c-22.6-5.1-41.8-26-41.8-52.2H189.9c0,22.6-13.9,43.5-34.8,50.5c-5.1,1.7-10.4,3.6-15.6,3.6c-3.6,0-7,0-10.4-1.7   c-22.6-5.1-40-26-40-50.5H40.2c0-3.6-1.7-8.7-1.7-17.4c0-31.3,19.2-48.8,31.3-52.2c5.1-1.7,22.6-7,45.4-10.4   c20.9-3.6,43.5-7,57.4-8.7h7l5.1-3.6c3.6-1.7,5.1-3.6,8.7-5.1C214.2,348.8,238.7,335,261.3,324.5L261.3,324.5z" fill="#FFCE63"></path>
	<path class="st0" d="M532.5,268.7l-132.2,81.8V21.4l132.2,81.8h99.1v163.7h-99.1V268.7L532.5,268.7L532.5,268.7z M600.5,237.5   h-76.7L433.4,295V79l90.4,57.5h76.7L600.5,237.5L600.5,237.5L600.5,237.5z" fill="#FFCE63"></path>
	<path class="st0" d="M368.9,275.9c-50.5,0-90.5-40-90.5-90.5s40-90.4,90.5-90.4V68.6c-64.4,0-114.9,52.2-114.9,114.9   s52.2,114.9,114.9,114.9V275.9L368.9,275.9z" fill="#FFCE63"></path>
	<path class="st0" d="M368.9,213.1c-13.9,0-26-12.2-26-26s12.2-26,26-26v-26c-27.9,0-52.2,22.6-52.2,52.2   c0,27.9,22.6,52.2,52.2,52.2V213.1L368.9,213.1z" fill="#FFCE63"></path>
</g>
</svg>