<?xml version='1.0' encoding='utf-8'?>
<svg xmlns="http://www.w3.org/2000/svg" id="Vrstva_1" data-name="Vrstva 1" viewBox="0 0 1224 566.93" width="863.5987" height="400.0">
  <defs>
    <style>
      .cls-1 {
        fill-rule: evenodd;
      }

      .cls-1, .cls-2 {
        fill: #010101;
      }
    </style>
  </defs>
  <g>
    <path class="cls-2" d="m266.72,56.9c31.91,23.3,57.44,54.92,76.29,95.14,19,40.07,28.35,84.01,28.35,131.5s-9.5,92.02-28.35,131.94c-19,39.92-44.38,71.39-76.29,94.69-31.91,23.3-66.94,34.88-104.78,34.88H10.4V21.88h151.54c37.85,0,72.87,11.73,104.78,35.03h0Zm-50.46,353.68c17.22-12.32,30.72-29.54,40.37-51.65,9.65-21.97,14.55-47.2,14.55-75.4s-4.9-53.43-14.55-75.4c-9.65-22.11-23.15-39.18-40.37-51.65-17.22-12.32-36.81-18.55-58.77-18.55h-51.2v291.2h51.2c21.97,0,41.56-6.23,58.77-18.55h0Z"></path>
    <path class="cls-2" d="m1198.61,310.25c10.09,21.37,14.99,45.12,14.99,71.39,0,33.69-5.79,62.78-17.51,87.27-11.73,24.49-27.9,43.34-48.68,56.4s-44.82,19.74-71.84,19.74h-191.91V21.88h189.53c21.22,0,41.11,5.79,59.96,17.51,18.7,11.58,33.84,28.5,45.42,50.46,11.58,22.11,17.22,47.94,17.22,77.62,0,35.62-13.06,66.2-39.03,91.43,17.81,12.91,31.76,29.98,41.85,51.35h0Zm-219.07-178.4v101.07h80.29c11.87,0,21.52-4.6,28.94-13.8,7.42-9.2,11.13-21.37,11.13-36.81,0-8.91-1.63-17.37-5.05-25.23s-8.01-14.1-14.25-18.55c-6.09-4.45-13.06-6.68-20.93-6.68h-80.15Zm121.7,289.42c8.01-9.2,12.02-21.37,12.02-36.81,0-8.91-1.93-17.22-5.64-24.93-3.71-7.72-8.91-13.8-15.29-18.55-6.53-4.75-13.65-7.12-21.52-7.12h-91.43v101.07h91.43c12.32.15,22.56-4.45,30.43-13.65h0Z"></path>
  </g>
  <path class="cls-1" d="m466.33,210.25L625.08,21.88l164.39,188.38h-323.14Z"></path>
</svg>