<?xml version='1.0' encoding='utf-8'?>
<!-- Generator: Adobe Illustrator 27.2.0, SVG Export Plug-In . SVG Version: 6.00 Build 0)  --><svg xmlns="http://www.w3.org/2000/svg" xmlns:xlink="http://www.w3.org/1999/xlink" version="1.1" id="Vrstva_1" x="0px" y="0px" viewBox="0 0 239.4 566.9" style="enable-background:new 0 0 239.4 566.9;" xml:space="preserve" width="168.91867" height="400.0">
<g>
	<path d="M61.5,501.2V251.8H6.3v-46.1h172.5v295.5h54.3V546H6.3v-44.9L61.5,501.2L61.5,501.2L61.5,501.2z M52.1,88.3   c0-9.4,1.8-18.1,5.3-26.3s8.4-15.3,14.5-21.4c6.2-6.2,13.4-11,21.8-14.5c8.3-3.5,17.2-5.3,26.6-5.3s18.2,1.8,26.5,5.3   c8.2,3.5,15.4,8.4,21.6,14.5S179.4,54,183,62.1s5.4,16.9,5.4,26.3s-1.8,18.2-5.4,26.6c-3.6,8.3-8.5,15.6-14.7,21.7   c-6.2,6.2-13.4,11.1-21.6,14.7c-8.2,3.6-17,5.4-26.5,5.4s-18.3-1.8-26.6-5.4c-8.3-3.6-15.6-8.5-21.8-14.7   c-6.2-6.2-11-13.4-14.5-21.7C53.8,106.6,52.1,97.7,52.1,88.3L52.1,88.3L52.1,88.3z M88.7,88.3c0,4.5,0.8,8.7,2.5,12.5   c1.7,3.8,3.9,7.1,6.7,10c2.8,2.8,6.1,5.1,9.9,6.8s7.9,2.5,12.4,2.5s8.3-0.8,12.1-2.5c3.8-1.7,7.2-3.9,10.1-6.8   c2.9-2.8,5.2-6.2,6.9-10c1.6-3.8,2.5-8,2.5-12.5s-0.8-8.4-2.5-12.2c-1.7-3.8-4-7.1-6.9-10c-2.9-2.8-6.3-5.1-10.1-6.7   c-3.8-1.7-7.8-2.5-12.1-2.5s-8.6,0.8-12.4,2.5c-3.8,1.7-7.1,3.9-9.9,6.7c-2.8,2.8-5.1,6.2-6.7,10C89.6,80,88.7,84,88.7,88.3z    M142.7,501.2V251.8H97.5v249.4H142.7z"></path>
</g>
</svg>