<?xml version='1.0' encoding='utf-8'?>
<!-- Generator: Adobe Illustrator 27.2.0, SVG Export Plug-In . SVG Version: 6.00 Build 0)  --><svg xmlns="http://www.w3.org/2000/svg" xmlns:xlink="http://www.w3.org/1999/xlink" version="1.1" id="Vrstva_1" x="0px" y="0px" viewBox="0 0 805 566.9" style="enable-background:new 0 0 805 566.9;" xml:space="preserve" width="568.0014" height="400.0">
<style type="text/css">
	.st0{fill-rule:evenodd;clip-rule:evenodd;}
</style>
<path d="M407.5,119.9l23.7-0.5l-2-60c-7.5,0.3-14.7,0.5-21.7,0.5L407.5,119.9L407.5,119.9z"></path>
<g>
	<path class="st0" d="M519.3,117.6c-13.8-0.8-28.1-0.7-42.9-0.1l-1.9-60c15.5-0.5,31.7-0.8,47.8,0.2L519.3,117.6L519.3,117.6z    M407.5,119.9c7.9,0,15.8-0.2,23.7-0.5L407.5,119.9z M431.2,119.4l-2-60L431.2,119.4z M429.2,59.5c-7.5,0.3-14.7,0.5-21.7,0.5   L429.2,59.5z M407.5,119.9c-7.2,0-14.1,0.8-20.6,2.1L376,63.1c10-2.1,20.5-3.2,31.5-3.2 M576.5,129.5c-5.6-2.4-11.5-4.4-17.7-6   l13.7-58.2c8.5,2.2,17,5.1,25.3,8.7l0.3,0.2l22.9,10.2l-21.9,55.3L576.5,129.5L576.5,129.5z M315.1,157.7   c-4.1,2.7-8.3,5.5-12.8,8.4l-29.4-51.3c3.5-2.3,7.2-4.7,10.9-7.2c11.1-7.3,23.3-15.3,35.5-22.2l26.5,53   C335.4,144.3,325.7,150.7,315.1,157.7L315.1,157.7z M690.8,180.3L645,159.9l21.9-55.3l45.8,20.4L690.8,180.3z M250.9,193.7   c-9.4,3.7-19.4,6.8-29.9,8.9c-8.8,1.7-17.9,3.3-27.1,4.9l-9.1-59.2c9.1-1.6,17.8-3.1,25.9-4.7c7-1.4,13.8-3.4,20.5-6.1L250.9,193.7   L250.9,193.7z M742.2,203.1l-5.5-2.5l21.9-55.3l40.3,17.9V220h-56.6L742.2,203.1L742.2,203.1z M141.9,217.1   c-17.8,3.8-33.8,8.2-47,13.7L74.2,175c17.6-7.4,37.3-12.6,56.5-16.7L141.9,217.1L141.9,217.1z M65.7,251.5c-1.7,3-2.8,6.5-2.8,11.3   v20.6H6.2v-20.6c0-15.9,4-30.3,11.3-42.9L65.7,251.5L65.7,251.5z M742.2,315.7v-22.1h56.6v51.5L757,379.5l-34.7-47.4L742.2,315.7   L742.2,315.7z M62.9,324.8v20.6c0,3,0.5,4.9,0.9,6.1c0.4,1.2,1,2.2,1.9,3.3l-41.9,40.3c-11.2-13.1-17.5-30-17.5-49.7v-20.6   L62.9,324.8L62.9,324.8z M434.1,428.9h-63.8v-60h63.8V428.9z"></path>
	<path class="st0" d="M246.6,398.8c0,28.2-21.6,51.1-48.2,51.1s-48.2-22.9-48.2-51.1s21.6-51.1,48.2-51.1S246.6,370.6,246.6,398.8z    M303.2,398.8c0,61.4-46.9,111.1-104.8,111.1S93.6,460.2,93.6,398.8s46.9-111.1,104.8-111.1S303.2,337.5,303.2,398.8z M654,398.8   c0,28.2-21.6,51.1-48.2,51.1s-48.2-22.9-48.2-51.1s21.6-51.1,48.2-51.1S654,370.6,654,398.8z M710.6,398.8   c0,61.4-46.9,111.1-104.8,111.1S501,460.2,501,398.8S548,287.7,605.8,287.7S710.6,337.5,710.6,398.8z"></path>
</g>
</svg>