<?xml version='1.0' encoding='utf-8'?>
<!-- Generator: Adobe Illustrator 27.2.0, SVG Export Plug-In . SVG Version: 6.00 Build 0)  --><svg xmlns="http://www.w3.org/2000/svg" xmlns:xlink="http://www.w3.org/1999/xlink" version="1.1" id="Vrstva_1" x="0px" y="0px" viewBox="0 0 635.1 566.9" style="enable-background:new 0 0 635.1 566.9;" xml:space="preserve" width="448.1213" height="400.0">
<style type="text/css">
	.st0{fill-rule:evenodd;clip-rule:evenodd;}
</style>
<g>
	<path class="st0" d="M142.4,284.1L100,268.6c-4.2,17.2-6.5,35.2-6.5,53.8c0,123.7,100.3,224,224,224s224-100.3,224-224   s-100.3-224-224-224c-8.8,0-17.5,0.5-26,1.5l-17.8,48.7c14-3.5,28.7-5.4,43.8-5.4c59.3,0,112,28.8,144.6,73.3H455   c-20.2,0-40.1,5.6-57.4,16.3l-54.2,30.5l-5.2,1c-69.7,12.9-103.8,19.2-110.3,74.2v0.2v24.6c0,17,13.5,33.8,32.7,33.3h13.7   c-0.4-3-0.7-6-0.7-9.1c0-34.6,28-62.6,62.6-62.6s62.6,28,62.6,62.6c0,3.1-0.2,6.2-0.7,9.1h82.6c-28.2,62-90.7,105.1-163.2,105.1   c-99,0-179.2-80.2-179.2-179.2C138.3,309.2,139.8,296.4,142.4,284.1L142.4,284.1z M15.5,237.7l42.2,15.4c-5.9,22.1-9,45.4-9,69.3   c0,74.3,30.1,141.5,78.8,190.1l-31.7,31.7C39,487.5,3.9,409.1,3.9,322.4C3.9,293.1,7.9,264.6,15.5,237.7L15.5,237.7z M539.3,100.7   l-31.7,31.7c48.7,48.7,78.7,115.9,78.7,190.1s-30.1,141.5-78.8,190.1l31.7,31.7c56.8-56.8,91.9-135.2,91.9-221.8   S596.1,157.4,539.3,100.7L539.3,100.7z M376.5,387.3c0,22.2-18,40.2-40.2,40.2s-40.2-18-40.2-40.2s18-40.2,40.2-40.2   S376.5,365.1,376.5,387.3z" fill="#F54C4C"></path>
	<path class="st0" d="M44.2,67.6l68.3,18.2l-0.6-65.2l28.6,57.7l39.6-56.8l5.3,78.6l61.3,24l-61.2,15.6l8.8,89.3l-65.3-59.5   L81,227.8l3.9-64l-53.6,1.1l49.8-47.7L44.2,67.6L44.2,67.6z" fill="#F54C4C"></path>
</g>
</svg>