<?xml version='1.0' encoding='utf-8'?>
<svg xmlns="http://www.w3.org/2000/svg" id="Vrstva_1" data-name="Vrstva 1" viewBox="0 0 541.32 566.93" width="381.93076" height="400.0">
  <defs>
    <style>
      .cls-1 {
        fill-rule: evenodd;
      }
    </style>
  </defs>
  <path class="cls-1" d="m48.19,479.12l-38.07,38.07,26.89,26.89L531.34,49.74l-26.89-26.89-37.95,37.95-22.5-22.5-26.89,26.89,22.5,22.5-23.14,23.14h-202.86c-94.5,0-171.12,76.61-171.12,171.12v39.17h38.03v-39.17c0-73.5,59.59-133.09,133.09-133.09h164.84L109.62,417.69h-33.89l48.48-48.48-26.89-26.89L4.55,435.09l.19.19-.19.19,43.64,43.64Zm488.58-348.05l-.19.19.19.19-92.77,92.77-16.98-16.98,92.96-92.96,16.79,16.79Zm-209.07,324.65h-149.15l38.03-38.03h111.12c73.5,0,133.09-59.59,133.09-133.09v-39.55h38.03v39.55c0,94.5-76.61,171.12-171.12,171.12Z"></path>
</svg>