<?xml version='1.0' encoding='utf-8'?>
<!-- Generator: Adobe Illustrator 27.2.0, SVG Export Plug-In . SVG Version: 6.00 Build 0)  --><svg xmlns="http://www.w3.org/2000/svg" xmlns:xlink="http://www.w3.org/1999/xlink" version="1.1" id="Vrstva_1" x="0px" y="0px" viewBox="0 0 536.4 566.9" style="enable-background:new 0 0 536.4 566.9;" xml:space="preserve" width="378.47946" height="400.0">
<path d="M529.2,247c-1.3-10.1-5.5-30.2-8.5-40c-2.9-9.7-10.2-28.6-14.7-37.7c-4.5-9.2-14.9-26.9-20.8-35.3  c-6.1-8.7-19.6-25-26.9-32.7c-7.1-7.4-22.5-21.3-30.7-27.6c-7.9-6.1-24.6-17-33.3-21.8c-8.7-4.7-26.7-12.8-36-16.2  c-9.4-3.4-28.6-8.7-38.4-10.6c-10.1-2-30.6-4.7-41-5.1c-10.7-0.4-32.1,0.7-42.7,1.9c-10.2,1.2-30.5,5.2-40.5,8  c-9.8,2.8-29,9.8-38.2,14.1c-9.4,4.3-27.3,14.6-35.8,20.4c-8.8,6-25.4,19.4-33.2,26.7C80.8,98.4,66.5,113.8,60,122  c-6.3,7.9-17.7,24.7-22.7,33.6c-4.9,8.7-13.2,27-16.6,36.4c-3.5,9.5-8.9,29.1-10.8,39c-2,10.3-4.3,31.2-4.7,41.7  c-0.4,10.8,0.3,32.5,1.6,43.2c1.2,10.4,5.2,31,8.1,41.1c2.8,9.9,10.1,29.2,14.6,38.5c4.5,9.4,15.1,27.5,21.1,36.1  c6.2,8.9,20.1,25.7,27.6,33.5c7.5,7.9,23.7,22.5,32.4,29.1c8.3,6.3,26,17.6,35.3,22.5c9.1,4.8,28.2,13,38,16.2  c9.9,3.3,30.2,8.2,40.5,9.9c10.6,1.8,32.2,3.8,43,4c6.6,0.1,19.7-0.9,26.3-1.6c6.4-0.7,19.1-2.5,25.4-3.8c6.1-1.2,18.3-4,24.2-5.7  c5.9-1.7,17.5-5.7,23.2-8c7.6-3.1,22.5-10.1,29.7-14.1c7.3-4,21.3-13.2,28-18.2c6.9-5.1,20-16.3,26.2-22.3  c7.5-7.4,21.8-23,28.2-31.4c6.2-8.1,17.4-25.2,22.3-34.2c4.8-8.9,12.9-27.4,16.2-36.9c3.3-9.6,10.2-39.6,10.2-39.6l4-42  C531.3,289.2,530.5,257.5,529.2,247L529.2,247L529.2,247z M360.8,160.9l0.5-0.2h0.2l0.3,0.1l0.2,0.2l0.3,0.5l9.9,25.2l10.5,26.3  l8,19.7l0.2,1l-0.3,0.6l-0.9,0.9l-14.5,9.9l-45.9,31.2l-21.6,14.7l-1.1,0.7l-33.6-76l15.3-9.5l28.5-17.5l21.5-13.4L360.8,160.9  L360.8,160.9L360.8,160.9z M341.1,150.7l5.1,8.4l0.3,0.5l1.1,2l-0.3,1l-1.8,1.3l-61.1,37.3l-18.1,11.2l-1.4,0.8l32.6,71.1l-0.5,0.2  l-60.5-72.4L341.1,150.7L341.1,150.7z M262.9,254.7l37.6,45.4l-8.2,2.7l-14.9,4.8l-18.5,6l-2.1-0.7l-8.9-14.6l-12.3-19.9l-7.1-11.7  L262.9,254.7L262.9,254.7z M109.2,142.7c2.1-4.8,8.4-13.3,11.9-17.2c1.9-2,6.2-5.4,8.5-7c2.3-1.6,7.3-4.1,9.9-5.2  c2.5-1,7.7-2.6,10.4-3.2c2.8-0.6,8.6-1.2,11.5-1.1c4.5,0.1,13.6,1.3,17.9,2.7c4.2,1.3,12.1,5.4,15.7,8c3.5,2.6,9.8,8.7,12.4,12.3  c2.6,3.6,6.9,11.6,8.2,15.8c1.5,4.4,3,13.8,3,18.5c0,4.6-1.4,13.7-2.8,18c-1.4,4.2-5.6,12.3-8.2,15.9c-2.6,3.6-9,9.9-12.6,12.5  c-3.7,2.7-11.8,6.9-16.1,8.3c-4.5,1.4-14,2.5-18.7,2.6c-2.8,0-8.3-0.6-11-1.2c-2.6-0.6-7.8-2.2-10.3-3.2c-2.5-1.1-7.2-3.7-9.4-5.2  c-2.3-1.6-6.6-5.1-8.5-7.1c-2.8-2.9-7.8-9.4-9.8-12.9c-1.9-3.4-4.8-10.8-5.6-14.7c-0.9-3.9-1.5-12.1-1.2-16.2  C104.7,157.9,107.1,147.5,109.2,142.7L109.2,142.7L109.2,142.7z M384.7,349.3c-0.8,2.7-3.5,7.8-5.1,10.1c-0.6,0.9-3,3.4-3,3.4  l-7.4,5.3L332,389.3L296,410l-20.4,11.7c0,0-9.9,3.8-13.4,4.1c-3.3,0.3-10-0.7-13.1-1.8c-2.9-1-8.1-4.4-10.4-6.3  c-1.2-1-3.1-3.4-4.1-4.6c-1.9-2.4-7-10.2-7-10.2l-42.2-63.4l-0.3-0.7l-5.5,1.6l11.2,16.7l16.7,25.1l12.9,19.7c0,0,0.5,1,0.5,1.3  c0,0.2,0.1,0.7,0.1,0.7v89.1c0,0,0.2,1,0,1.2c-1.4,1.1-5.3-1.2-7-1.8c-6.4-1.9-19-5.8-25.2-8.3c-6.6-2.6-19.5-8.7-25.7-12.3  c-7.2-4.1-21.1-13.3-27.6-18.4c-6.2-4.8-18-15.5-23.3-21.3c-7.2-7.8-20.3-24.5-26.1-33.4c-0.2-0.3-0.5-0.8-0.6-1  c-0.1-0.3-0.2-1.2-0.2-1.2V268.1c0,0,0.9-8.1,1.9-10.6c1-2.6,3.8-7.4,5.6-9.5c1.8-2.1,6-5.8,8.3-7.1c2.4-1.4,7.8-3.3,10.5-3.9  c1.2-0.3,3.6-0.4,4.8-0.5c2.4,0,7.2,0.4,9.5,0.5c1.5,0.1,5.9,0.4,5.9,0.4l9.1,0.2l17,1.1l10.6,0.5l16.6,1c0,0,9.4,0.8,12.4,1.7  c1.8,0.5,5.3,1.9,6.9,2.9c1.6,1,4.5,3.6,5.8,5c1.8,2,4.6,6.4,6.1,8.6c1.4,2.2,5.4,8.9,5.4,8.9l11.8,19.2l13.7,22.4l13,21.1l14,22.9  l16.8-9.6l13.7-7.9l16.2-9.3l14.5-8.3l11-5.5c0,0,3.8-1.1,5.1-1.3c2.6-0.3,7.9,0,10.5,0.6c2.2,0.5,6.4,2,8.3,3.1  c1.9,1.1,5.5,3.9,7,5.5c1.7,1.8,4.4,5.9,5.5,8.1s2.5,7,2.7,9.5C385.9,340.8,385.5,346.6,384.7,349.3L384.7,349.3L384.7,349.3z   M473.5,282.5l-11.7,9.2l-52.9,42.2l-4.7,3.7H404l-0.3,0.1h-0.3c0,0-0.2,0-0.3-0.1c-3.4-1.1-9.8-4-12.9-5.8c-0.1,0-0.2-0.1-0.3-0.2  c-0.1-0.2-0.4-0.5-0.5-0.7c-1-1.8-2.2-5.6-3.2-7.4c-1-1.8-3.3-5.1-4.7-6.5c-2.5-2.5-8.2-6.7-11.4-8.3c-2.1-1-6.6-2.1-8.8-2.5  c-2.2-0.4-6.8-0.5-9-0.2c-2.6,0.3-7.6,1.9-10.2,2.5c-0.7,0.1-2.9,0.6-2.9,0.6l-1.5-0.5l-20.4-9l-7.9-3.5l3.1-2.1l27.4-18.6  l47.8-32.5l8.6-5.9l0.2-0.1l0.6-0.1h0.8l45.8,19l22,9.2l17.6,7.3l1.8,0.8L473.5,282.5L473.5,282.5L473.5,282.5z"></path>
</svg>