<?xml version='1.0' encoding='utf-8'?>
<!-- Generator: Adobe Illustrator 27.2.0, SVG Export Plug-In . SVG Version: 6.00 Build 0)  --><svg xmlns="http://www.w3.org/2000/svg" xmlns:xlink="http://www.w3.org/1999/xlink" version="1.1" id="Vrstva_1" x="0px" y="0px" viewBox="0 0 323.4 566.9" style="enable-background:new 0 0 323.4 566.9;" xml:space="preserve" width="228.18839" height="400.0">
<path d="M7.4,21.4v103.7c0,39.9,21.5,98.5,117.6,158.4C28.8,343.4,7.4,401.9,7.4,441.9v103.7H316V441.9  c0-39.9-21.5-98.5-117.6-158.4C294.5,223.6,316,165,316,125.1V21.4H7.4L7.4,21.4z M44.6,58.7h234.3v46.4c0,15-8.7,66.9-117.1,118.8  C53.3,172,44.6,120.1,44.6,105.1L44.6,58.7L44.6,58.7z M278.9,441.9v58.9c-10.3-27.5-39.1-60.7-109.3-93l-7.8-3.7l-7.8,3.7  c-70,32.5-99,65.7-109.3,93v-58.9c0-45.4,41.8-93.8,117.1-136.8C237.1,348.2,278.9,396.4,278.9,441.9z"></path>
</svg>