<?xml version='1.0' encoding='utf-8'?>
<!-- Generator: Adobe Illustrator 27.2.0, SVG Export Plug-In . SVG Version: 6.00 Build 0)  --><svg xmlns="http://www.w3.org/2000/svg" xmlns:xlink="http://www.w3.org/1999/xlink" version="1.1" id="Vrstva_1" x="0px" y="0px" viewBox="0 0 730.4 566.9" style="enable-background:new 0 0 730.4 566.9;" xml:space="preserve" width="515.36426" height="400.0">
<g>
	<path d="M5.5,85.8h719.3v39.5H552.8c-3.9,22.4-11.2,43.4-22.1,62.8c-10.9,19.4-24.4,36.3-40.6,50.9c-16.2,14.5-34.6,25.9-55.1,34.2   c-20.5,8.3-42.6,12.4-66.1,12.4s-45.3-4.1-65.8-12.4c-20.5-8.3-38.7-19.7-54.6-34.2s-28.9-31.5-39.1-50.9   c-10.2-19.4-16.9-40.3-20.1-62.8H5.5L5.5,85.8L5.5,85.8z M32.7,273.9l137.1-78.2c1.8,5.9,4.5,11.7,8.2,17.5   c3.6,5.8,7.4,11.6,11.2,17.5L52.5,309L32.7,273.9L32.7,273.9z M161.7,418.1l78.2-136.7c6.1,3.9,12,7.6,17.7,11.4   c5.7,3.7,15.5,9.2,16.9,9.6L197,437.9L161.7,418.1z M509.9,125.3H228.3c2.9,16.5,8.6,32,17,46.3c8.4,14.3,18.8,26.7,31.3,37.2   c12.5,10.5,26.5,18.8,42.2,24.7c15.6,5.9,32.3,8.8,50,8.8s34.4-2.9,50.2-8.8c15.8-5.9,29.9-14.1,42.3-24.7   c12.5-10.5,23-23,31.5-37.2C501.3,157.3,507,141.9,509.9,125.3L509.9,125.3L509.9,125.3z M349.7,481.1V320.9   c1.8,1.8,34.9,1.8,38.8,0v160.2H349.7z M537.1,441.6l-78.2-136.7c2.5-0.9,11.1-4.8,16.9-8.4s12.2-7.1,18.1-11l78.6,137.1   L537.1,441.6L537.1,441.6z M681.7,309L549,234.5c3.8-5.9,7.5-11.7,11-17.5c3.5-5.8,6.3-11.6,8.3-17.5l133,78.2L681.7,309L681.7,309   L681.7,309z"></path>
</g>
</svg>