<?xml version='1.0' encoding='utf-8'?>
<svg xmlns="http://www.w3.org/2000/svg" id="Vrstva_1" data-name="Vrstva 1" viewBox="0 0 453.46 566.93" width="319.94073" height="400.0">
  <defs>
    <style>
      .cls-1 {
        fill-rule: evenodd;
      }
    </style>
  </defs>
  <path class="cls-1" d="m287.33,61.43h-121.19V21.06h121.19v40.37Zm-60.59,484.44c122.71,0,222.18-99.41,222.18-222.03,0-54.04-19.32-103.58-51.44-142.08l34.28-34.26-28.57-28.54-34.28,34.26c-38.53-32.1-88.1-51.41-142.18-51.41-122.7,0-222.18,99.4-222.18,222.02s99.47,222.03,222.18,222.03h0Zm20.2-363.32v106.36c12.03,6.98,20.12,20,20.12,34.9,0,22.27-18.07,40.33-40.35,40.33s-40.35-18.05-40.35-40.33c0-14.94,8.12-27.97,20.2-34.95v-106.31h40.4-.02Z"></path>
</svg>