<?xml version='1.0' encoding='utf-8'?>
<svg xmlns="http://www.w3.org/2000/svg" id="Vrstva_1" version="1.1" viewBox="0 0 415.6 400" width="415.6" height="400.0">
  <!-- Generator: Adobe Illustrator 30.4.0, SVG Export Plug-In . SVG Version: 2.1.4 Build 226)  -->
  <path d="M342.7,5.3l11.1,44.3h-20l-8.9-44.3s17.8,0,17.8,0ZM410.2,274.7l-21.5-86.1h-27l17.2,86.1h31.3ZM112.8,5.3l-8.8,44.3h-20l11-44.3s17.8,0,17.8,0ZM98.8,75.7h-21.4l-13.7,54.6h24.1l11-54.6h0ZM379.9,153.9l-19.6-78.2h-21.3l15.7,78.2h25.2,0Z" fill="#9c9b9b" fill-rule="evenodd"></path>
  <path d="M219.3,5.3c25.4,0,44.8,2.9,52.7,4.2l5.5,1,36.7,64.5v84.4c0,7.3-3.1,13.6-8.2,17.8-4.9,4.1-11,5.8-16.8,5.8s-11.9-1.8-16.8-5.8c-4.7-3.9-7.7-9.5-8.1-16.1h-90.1c-.4,6.5-3.4,12.1-8.1,16.1-4.9,4.1-11,5.8-16.8,5.8s-11.9-1.8-16.8-5.8c-5.1-4.2-8.2-10.5-8.2-17.8v-84.4L160.9,10.5l5.5-1c7.9-1.4,27.4-4.2,52.7-4.2h.2ZM253.5,88.6h20.5v20.5h13.2v-34.1h-47.4l13.7,13.6h0ZM151.1,109.1h13.2v-20.5h20.5l13.7-13.6h-47.4v34.1h0ZM219.1,29c-18.8,0-34.1,1.7-43,3l-11.7,20.7h109.4l-11.7-20.7c-8.9-1.3-24.2-3-43-3h0Z" fill="#8bc8a2" fill-rule="evenodd"></path>
  <path d="M297.4,356c-1.7,13.8-5.8,26.9-12,38.8h30.6c6.5-16.3,10.1-34.1,10.1-52.7,0-78.6-63.8-142.4-142.6-142.4s-142.6,63.8-142.6,142.4c0,18.6,3.6,36.4,10.1,52.7h30.6c-6.2-11.9-10.3-24.9-12-38.8h22.6v-27.8h-22.6c2.6-21.2,11-40.7,23.5-56.7l16,16,19.7-19.6-16-16c16-12.5,35.5-20.9,56.7-23.5v22.7h27.8v-22.7c21.3,2.6,40.8,10.9,56.8,23.5l-16.1,16.1,19.7,19.6,16.1-16.1c12.6,16,21,35.5,23.5,56.7h-22.8v27.8h22.9ZM157.2,335.4l-31-31,19.7-19.6,31,31c2.1-.5,4.4-.8,6.7-.8,15,0,27.2,12.1,27.2,27.1s-12.2,27.1-27.2,27.1-27.2-12.1-27.2-27.1c-.1-2.3.2-4.6.8-6.7h0Z" fill="#8bc8a2" fill-rule="evenodd"></path>
  <path d="M57.8,187.1v-28.8h22.2v66.8H13.2v-22.2h28.8L5.4,166.3l15.7-15.7,36.7,36.5h0Z" fill="#8bc8a2"></path>
</svg>