<?xml version='1.0' encoding='utf-8'?>
<!-- Generator: Adobe Illustrator 27.2.0, SVG Export Plug-In . SVG Version: 6.00 Build 0)  --><svg xmlns="http://www.w3.org/2000/svg" xmlns:xlink="http://www.w3.org/1999/xlink" version="1.1" id="Vrstva_1" x="0px" y="0px" viewBox="0 0 1233.6 566.9" style="enable-background:new 0 0 1233.6 566.9;" xml:space="preserve" width="870.418" height="400.0">
<g>
	<path d="M5.6,283.5c0-97.8,63-173.7,137.4-173.7s137.4,75.4,137.4,173.7s-63,173.7-137.4,173.7S5.6,381.7,5.6,283.5z M216,283.5   c0-54.4-33.6-97.3-73-97.3S70,230,70,283.5s33.6,97.3,73,97.3C182.4,380.8,216,337.8,216,283.5L216,283.5L216,283.5z" fill="#FFCE63"></path>
	<path d="M366.3,189.9v68.7h114.5v70.6H366.3v122.1h-61.5V115.5h186.1v74.4L366.3,189.9L366.3,189.9z" fill="#FFCE63"></path>
	<path d="M576.7,189.9v68.7h114.5v70.6H576.7v122.1h-61.5V115.5h186.1v74.4L576.7,189.9L576.7,189.9L576.7,189.9z" fill="#FFCE63"></path>
	<path d="M972.2,416.3c-11.7-5.3-22.4-10.2-32.4-14.7c-4.3-2-8.6-4-13-5.9c-4.3-1.9-8.3-3.7-12.2-5.5c-3.8-1.8-7.3-3.3-10.5-4.7   s-5.5-2.5-7.2-3.4c-4.8-2.2-9.5-3.2-14-3.2c-3.8-0.1-7.2,0.6-10.1,2.4c-2.9,1.8-5.2,4.2-6.9,7.4c-0.9,1.7-2.8,5-5.7,9.9   c-3,5-6.5,10.9-10.6,17.7c-4.1,6.8-8.5,14.2-13.5,22.1c-4.9,7.9-9.7,15.6-14.6,23c-4.8,7.5-9.3,14.3-13.5,20.3   c-4.2,6-7.8,10.6-10.6,13.8c-1.5,1.9-3.4,3.1-5.9,3.9c-2.4,0.7-4.8,1.1-7.1,1.1c-3.5,0-7-0.7-10.7-2.1c-3.7-1.4-7-3.4-10.1-6   s-5.5-5.6-7.5-9.1c-1.9-3.5-2.9-7.3-2.9-11.5c0-5.5,1.9-11.1,5.7-16.9c3-4.5,7.1-10.5,12.5-18c5.3-7.6,11.2-15.8,17.6-24.7   c6.4-8.9,13-18,19.7-27.3c6.7-9.3,13-17.9,18.7-25.8c5.7-7.9,10.7-14.7,14.7-20.3c4.1-5.6,6.7-9.2,7.9-10.7   c2.8-3.8,6.4-6.8,10.8-8.8c4.4-2.1,9.2-3.1,14.3-3.1c1.2,0,2.3,0,3.4,0.1c1,0.1,2.2,0.2,3.3,0.4c3.2,0.7,8,1.7,14.7,3.1   c6.6,1.4,13.3,2.9,19.9,4.6c7.8,1.8,16.1,3.8,24.9,6L972.2,416.3L972.2,416.3L972.2,416.3z M993.3,176.2c0,13.3-2.2,25.8-6.6,37.6   c-4.4,11.8-10.4,22.4-18,31.9l13.5,13.5l-15.7,15.7l-13.7-13.5c-9.4,7.8-20.1,13.9-31.9,18.1c-11.8,4.3-24.2,6.5-37.4,6.5   s-25.8-2.2-37.6-6.5c-11.8-4.3-22.4-10.3-31.9-18.1l-13.5,13.5l-15.7-15.7l13.5-13.5c-7.8-9.5-13.9-20.1-18.2-31.9   c-4.3-11.8-6.5-24.3-6.5-37.6s2.2-25.5,6.5-37.4c4.3-11.8,10.4-22.4,18.2-31.9l-13.5-13.4l15.7-15.9L814,91.3   c9.5-7.9,20.1-14.1,31.9-18.4c11.8-4.3,24.3-6.5,37.6-6.5s25.6,2.2,37.4,6.5c11.8,4.3,22.4,10.5,31.9,18.4l13.7-13.7l15.7,15.9   L968.7,107c7.6,9.5,13.6,20.1,18,31.9C991.1,150.7,993.3,163.1,993.3,176.2L993.3,176.2z M795.8,176.5c0,10.1,1.6,19.7,4.9,28.8   c3.2,9.1,7.8,17.3,13.6,24.8l53.3-53.5l-53.3-53.6c-5.8,7.5-10.3,15.7-13.6,24.8C797.4,156.8,795.8,166.4,795.8,176.5L795.8,176.5z    M883.5,89.1c-10.1,0-19.7,1.6-28.8,4.7c-9.1,3.2-17.3,7.7-24.8,13.4l53.5,53.6l53.6-53.6c-7.5-5.8-15.8-10.3-24.8-13.4   C903.2,90.6,893.6,89.1,883.5,89.1L883.5,89.1z M883.5,264.1c10.1,0,19.7-1.6,28.8-4.8c9-3.2,17.3-7.8,24.8-13.6l-53.6-53.6   L830,245.7c7.4,5.8,15.7,10.3,24.8,13.6C863.8,262.5,873.4,264.1,883.5,264.1z M971.2,176.5c0-10.1-1.6-19.7-4.9-28.8   c-3.2-9-7.8-17.3-13.6-24.8l-53.5,53.6l53.5,53.5c5.8-7.4,10.3-15.7,13.6-24.8C969.6,196.2,971.2,186.6,971.2,176.5L971.2,176.5z    M958.5,333.9c3-1,6.1-2.3,9.2-4c2.8-1.3,5.9-3,9.1-5c3.2-2,6.5-4.3,9.8-7c1.7,4.6,3.8,10.7,6.4,18c2.6,7.4,5.5,15.6,8.7,24.5   c3.2,9,6.6,18.4,10.1,28.2c3.5,9.9,7,19.7,10.5,29.3c8,22.6,16.6,46.8,25.9,72.5l-32.4,4L958.5,333.9L958.5,333.9L958.5,333.9   L958.5,333.9z M998.3,308.5c2.3-4.1,5-9,8-14.4c2.7-4.8,5.9-10.6,9.8-17.3c3.9-6.7,8.3-14.6,13.3-23.6c4.7-6.9,10.2-12,16.7-15.2   c6.4-3.2,13.2-4.7,20.2-4.7c5.8,0,11.5,0.9,16.9,2.8c5.5,1.9,10.4,4.6,14.7,8c4.3,3.4,7.8,7.4,10.5,12.1c2.6,4.6,4,9.6,4,14.9   c0,5.6-1.6,11.3-4.7,16.9c-3,5.3-6.4,11.2-10.1,17.6c-3.7,6.4-7.6,13-11.6,19.7c-4,6.7-8,13.5-12.1,20.4c-4.1,6.9-8,13.5-11.8,20   c-9,15.1-18.1,30.4-27.4,45.8L998.3,308.5L998.3,308.5L998.3,308.5z M1128.1,155.1c0,6.5-1.2,12.5-3.6,18.2   c-2.4,5.6-5.7,10.6-10,14.8c-4.2,4.2-9.2,7.6-14.8,10c-5.7,2.4-11.7,3.6-18.2,3.6s-12.6-1.2-18.3-3.6s-10.7-5.7-14.9-10   c-4.2-4.2-7.6-9.2-10-14.8s-3.6-11.7-3.6-18.2s1.2-12.6,3.6-18.2s5.7-10.6,10-14.8c4.2-4.2,9.2-7.6,14.9-10.1s11.8-3.7,18.3-3.7   s12.5,1.3,18.2,3.7c5.7,2.5,10.6,5.9,14.8,10.1c4.2,4.2,7.5,9.2,10,14.8C1126.9,142.5,1128.1,148.6,1128.1,155.1z M1123.6,213.3   c1.5-0.8,3.7-2.1,6.7-3.8c3-1.8,6.4-3.7,10.2-6c3.8-2.2,7.9-4.6,12.5-7.2c4.5-2.6,8.8-5.1,13.2-7.6c10.3-5.8,21.5-12.2,33.6-19.2   l4,4v23.9l-3.2,8.2l-64.3,36.9c-0.7-3.7-1.6-7.2-2.8-10.7c-1-3-2.3-6.2-4-9.6C1127.9,218.8,1125.9,215.8,1123.6,213.3L1123.6,213.3   L1123.6,213.3z M1141.6,493.3v-8.8l35.8-47.8c4.2-5.5,7.6-10.2,10.2-14.3c2.6-4.1,4.7-7.8,6.3-11c1.6-3.2,2.7-6.3,3.4-9.2   c0.7-2.9,1-5.8,1-8.8c0-4.8-1.5-8.9-4.5-12.2c-3-3.3-6.9-5-11.7-5c-6.1,0-10.5,2.3-13.1,6.9c-2.6,4.6-3.8,10.2-3.8,17.1v3h-26.4   c0-17.6,3.9-31,11.7-40.1c7.8-9.1,18.8-13.7,32.9-13.7c7.1,0,13.4,1.2,18.7,3.6c5.3,2.4,9.8,5.6,13.3,9.6c3.6,4,6.3,8.6,8.1,13.9   c1.8,5.2,2.8,10.6,2.8,16.1c0,5.1-0.7,10.2-2.1,15.2c-1.4,5-3.7,10.4-6.9,16.2s-7.3,12.2-12.6,19.3c-5.2,7-11.7,15.1-19.3,24.3   c5.7-0.5,11.6-0.8,17.7-0.8h24.9v26.7L1141.6,493.3L1141.6,493.3L1141.6,493.3L1141.6,493.3z" fill="#FFCE63"></path>
</g>
</svg>