<?xml version='1.0' encoding='utf-8'?>
<svg xmlns="http://www.w3.org/2000/svg" id="Vrstva_1" data-name="Vrstva 1" viewBox="0 0 572.39 566.93" width="403.85233" height="400.0">
  <defs>
    <style>
      .cls-1 {
        fill: #fff;
      }
    </style>
  </defs>
  <path class="cls-1" d="m286.2,7.23C133.72,7.23,9.96,130.98,9.96,283.46s123.75,276.23,276.23,276.23,276.23-123.75,276.23-276.23S438.68,7.23,286.2,7.23Z"></path>
  <path d="m286.2,25.67C143.81,25.67,28.38,141.09,28.38,283.48s115.43,257.82,257.82,257.82,257.82-115.43,257.82-257.82S428.58,25.67,286.2,25.67Zm0,475.83c-118.86,0-215.21-96.35-215.21-215.21s96.35-215.21,215.21-215.21,215.21,96.35,215.21,215.21-96.35,215.21-215.21,215.21Z"></path>
  <g>
    <path d="m178.81,245.48l-36.44-4.08s2.43-22.41,20.13-36.57,37.02-14.14,37.02-14.14c0,0,26.63-2.65,45.07,8.47,0,0,18.44,9.37,24,27.8,0,0,6.15,12.88,0,30.15s-19.71,22.5-19.71,22.5c0,0,18.03,7.28,23.95,23.74,0,0,7.02,15.15,1.54,32.71s-19.1,26.78-19.1,26.78c0,0-13.39,11.1-39.51,13.34s-45.22-8.51-45.22-8.51c0,0-14.49-6.59-23.49-22.17,0,0-5.19-11.67-5.45-18.24l37.42-4.15s.73,7.76,8.63,13.46c0,0,12.44,8.78,30.59,4.39s17.85-19.61,17.85-19.61c0,0,2.63-12.44-13.32-19.9,0,0-9.66-3.48-23.05-2.71l-10.23-.02-.09-30.71,17.12.11s15.26.77,22.5-10.43-.44-23.27-.44-23.27c0,0-5.93-10.98-26.23-9.55-20.3,1.43-23.27,19.32-23.27,19.32l-.3,1.27Z"></path>
    <path d="m428.25,252.66s-1.98-22.61-19.32-42.8c-17.34-20.2-47.85-19.16-47.85-19.16-22.24-.72-38.05,9.21-38.05,9.21-25.9,16.24-30.88,49.02-30.88,49.02,0,0-7.9,38.85,1.54,75.29s35.93,46.17,35.93,46.17c0,0,21.07,9.37,45.22,4.68,24.15-4.68,34.1-18.15,34.1-18.15,16.24-17.78,19.32-43.46,19.32-43.46,5.71-32.93,0-60.8,0-60.8Zm-42.44,67.24c-6.29,18.73-19.9,19.61-19.9,19.61,0,0-16.98,5.41-28.1-11.27-11.12-16.68-8.2-57.8-8.2-57.8,0,0,.73-25.9,12.15-36.88,0,0,5.88-7.17,18.16-7.02,0,0,15.06-.73,22.82,13.61,7.76,14.34,7.61,36.73,7.61,36.73,0,0,1.76,24.29-4.54,43.02Z"></path>
  </g>
</svg>