<?xml version='1.0' encoding='utf-8'?>
<!-- Generator: Adobe Illustrator 27.2.0, SVG Export Plug-In . SVG Version: 6.00 Build 0)  --><svg xmlns="http://www.w3.org/2000/svg" xmlns:xlink="http://www.w3.org/1999/xlink" version="1.1" id="Vrstva_1" x="0px" y="0px" viewBox="0 0 489.4 566.9" style="enable-background:new 0 0 489.4 566.9;" xml:space="preserve" width="345.31662" height="400.0">
<g>
	<path d="M184.3,208.9l-58.3-1.4l-56.9-2.9l-9.4-1.5l-9.1-4l-7.3-5.7l-6.5-7.3l-4.5-8.6l-2.6-9.3l-3.4-39.2V89.3l3.4-39.2l2.6-9.4   l4.5-8.6l6.5-7.3l7.2-5.6l9.1-4l9.4-1.5l86.7-3.5l86.3-2.6l95.5,1.1l95.2,2.9l6.8,1.1l6.6,2.6l5.5,4l4.6,5.3l3.1,6.2l2,6.8l4,47.7   v48.1l-4,47.7l-2,6.6l-3.1,6.2l-4.6,5.5l-5.5,4.2l-6.6,2.6l-6.8,0.9l-31.5,1.4l-32.7,0.2l-21.4-11.3l-16.5-9.7l-14.3-12.6   l-36.4,0.5l-36.4,0.2l-17.9,11.9l-19.2,10.4L184.3,208.9L184.3,208.9L184.3,208.9z M437.5,177.8l4-45.7v-46l-4-46l-1.7-3.5   l-3.5-1.5l-32.8-1.2l-32.2-1.1l-2.9-2l-3.5-0.9l-82.7-1.5l-82.6,0.2l-4.2,0.9l-3.7,2l-58,1.1l-58.3,1.7l-7.9,2.5l-6.2,5.3l-3.1,7.8   l-3.4,29.3l-1.1,29.8l1.1,29.8l3.4,29.3l3.1,7.4l6.2,5.7l7.9,2.2l51.4,1.5l51.2,1.1l4.5-0.5l4-1.1l18.5-7.4l17.3-9.7l15.9-11.4   l2.9-1.1l2.6-0.6l40.9-0.2l41-0.5l3.5,0.9l3.4,2.2l11.4,11.1l13.3,8.8l14.8,6.6l5.1,1.4l5.5,0.2l27-0.9l27-1.1l3.5-1.4L437.5,177.8   L437.5,177.8L437.5,177.8z M200.8,160.1l-23.4,9.7l-5.1,0.2l-4-2.6l-2.6-4.5l-3.5-26.7l-1.5-27.2l1.5-27.3l3.5-26.7l2.6-4.5l4-2.5   l5.1,0.2l23.4,9.4l21.2,13.4l1.1,1.4V74l-2.6,34.7l2.6,35.1v1.4l-1.1,1.4L200.8,160.1L200.8,160.1z M333,272.8l-8.6,13.9l-9.1,13.3   l-1.1,0.9l-1.5-0.5L253.9,264L196,225.8l-2.2-3.1V219l3.7-6.5l5.1-5.1l6.8-3.1l7.1-0.9h10.6l51.9,34.2l53.4,32.4l0.9,1.4L333,272.8   L333,272.8L333,272.8z M347.9,44.5l2,2l-1.4,2.5l-27.2,17.1l-41.7-0.5l-41-0.2l-29.6-17.4l-1.1-2.9l2.2-2h68.7L347.9,44.5   L347.9,44.5z M379.6,167.8l-14.5-7.7l-14.2-8.2l-1.1-1.5l-0.2-1.5l2.5-26.5V95.6l-2.5-26.2l0.2-1.7l1.1-1.4l14.2-8.4l14.5-7.7   l4.2-0.6l4,0.9l2.9,2.6l2,4.2l3.5,34.2v35.2l-3.5,34.4l-2,4l-2.9,2.6l-4,1.1L379.6,167.8L379.6,167.8L379.6,167.8z"></path>
	<path d="M4.8,439.6c0-67.4,43.5-119.7,94.8-119.7s94.8,52,94.8,119.7s-43.5,119.7-94.8,119.7S4.8,507.3,4.8,439.6L4.8,439.6z    M149.9,439.6c0-37.5-23.2-67.1-50.3-67.1s-50.3,30.3-50.3,67.1s23.2,67.1,50.3,67.1S149.9,477.1,149.9,439.6L149.9,439.6z"></path>
	<path d="M253.6,375v47.5h79v48.7h-79v84.2h-42.5V323.7h128.3V375L253.6,375L253.6,375z"></path>
	<path d="M398.7,375v47.5h79v48.7h-79v84.2h-42.5V323.7h128.3V375L398.7,375L398.7,375L398.7,375z"></path>
</g>
</svg>