<?xml version='1.0' encoding='utf-8'?>
<!-- Generator: Adobe Illustrator 27.2.0, SVG Export Plug-In . SVG Version: 6.00 Build 0)  --><svg xmlns="http://www.w3.org/2000/svg" xmlns:xlink="http://www.w3.org/1999/xlink" version="1.1" id="Vrstva_1" x="0px" y="0px" viewBox="0 0 617.4 566.9" style="enable-background:new 0 0 617.4 566.9;" xml:space="preserve" width="435.6324" height="400.0">
<g>
	<path d="M611.6,508.1c-1.1-3.6-4.5-10.4-6.3-13.7c-0.1-0.1-0.2-0.4-0.3-0.5c-35.4-56.2-136-228.5-136-228.5l-85-142.5l-31.3-52.6   c0,0-10.2-17.1-13.5-22.8c-1-1.7-3.1-5.2-4.2-7c-0.5-0.8-1.4-2.3-1.8-3c-0.2-0.3-0.4-0.8-0.6-1.1c-2.3-3.2-7.3-9.6-10.6-11.7   c-2.9-1.9-9.8-4-13.3-4s-10.3,2.1-13.3,4c-3.3,2.1-8.1,8.6-10.6,11.7c-0.1,0.1-0.2,0.4-0.3,0.5c-35.5,56.3-136.2,228.6-136.2,228.6   l-85,142.6l-31.2,52.5c0,0-10.3,17.2-13.7,22.9c-1,1.7-3.1,5.2-4.2,7c-0.5,0.8-1.4,2.2-1.8,3c-0.1,0.3-0.4,0.8-0.6,1.1   c-1.7,3.3-5.1,10-6.2,13.5c-0.9,2.9-1.8,9-1.8,12.1c0,2.1,0.5,6.3,1.1,8.3c0.4,1.3,1.5,4,2.3,5.1c1.6,2.2,5.7,5.8,8,7.1   c2.5,1.5,8.1,3.2,10.9,3.9c4,0.9,16.3,1.4,16.3,1.4h531c0.3,0,0.9,0,1.2,0c5.6-0.4,17.1-1.2,22.4-3.2c3.2-1.2,9.1-4.8,11.4-7.4   c1.6-1.8,3.6-6.3,4.3-8.5c0.4-1.2,0.5-3.7,0.6-4.9c0-0.5,0-1.4,0-1.9C613.2,517.2,612.5,511.1,611.6,508.1L611.6,508.1L611.6,508.1   L611.6,508.1L611.6,508.1z M70.7,491.8l238-405.4l237.9,405.4L70.7,491.8L70.7,491.8z"></path>
	<rect x="196.7" y="441.6" width="234.4" height="27.8"></rect>
	<g>
		<path d="M265.7,426.4L243,410.4c24.2-34.2,14.6-52.3,1.2-77.3c-14-26.2-31.4-58.8,1.8-108.6l23.1,15.4    c-23.9,36-13.5,55.5-0.4,80.2C282.6,346,299.8,378.2,265.7,426.4L265.7,426.4L265.7,426.4z"></path>
		<path d="M323.3,426.4l-22.7-16.1c24.2-34.2,14.6-52.3,1.2-77.3c-14-26.2-31.4-58.8,1.8-108.6l23.1,15.4    c-23.9,36-13.5,55.5-0.4,80.2C340.3,346,357.5,378.2,323.3,426.4L323.3,426.4z"></path>
		<path d="M380.9,426.4l-22.7-16.1c24.2-34.2,14.6-52.3,1.2-77.3c-14-26.2-31.4-58.8,1.8-108.6l23.1,15.4    c-23.9,36-13.5,55.5-0.4,80.2C397.9,346,415.1,378.2,380.9,426.4L380.9,426.4z"></path>
	</g>
</g>
</svg>