<?xml version='1.0' encoding='utf-8'?>
<svg xmlns="http://www.w3.org/2000/svg" id="Vrstva_1" data-name="Vrstva 1" viewBox="0 0 819.41 566.93" width="578.1384" height="400.0">
  <path d="m409.76,130.31c107.12,0,192.24,24.97,250.81,50.14,29.27,12.58,51.94,25.24,67.45,34.87,7.76,4.81,13.74,8.88,17.88,11.82,39.98,28.42,69.32,70.55,69.32,120.99,0,26.43-7.4,51.21-20.25,72.3l-9.86,16.18-237.59-32.36-5.15-18.27c-3.41-12.07-5.22-24.77-5.22-37.85,0-26.33,7.33-50.97,20.05-71.96-35.88-14.22-83.53-24.31-147.43-24.31s-111.7,10.16-147.48,24.42c12.68,20.96,19.99,45.56,19.99,71.85,0,13.08-1.82,25.8-5.22,37.87l-5.15,18.25-237.57,32.36-9.86-16.18c-12.86-21.09-20.27-45.87-20.27-72.3,0-50.38,26.81-94.46,66.81-118.82,22.52-16.59,144.09-99,338.75-99Z" fill="#F54C4C"></path>
</svg>