<?xml version='1.0' encoding='utf-8'?>
<svg xmlns="http://www.w3.org/2000/svg" id="Vrstva_1" data-name="Vrstva 1" viewBox="0 0 723.7 566.93" width="510.60977" height="400.0">
  <path d="m138.79,108.49h49.04l130.25,350.14h-66.44l-97.56-286.86h17.4l-100.19,286.86H7.49L138.79,108.49Zm-52.2,219.36h157.67l5.27,54.84H86.59v-54.84Z"></path>
  <path d="m418.49,108.29h50.47l-93.54,349.78h-50.47l93.54-349.78Z"></path>
  <path d="m631.44,458.62c-31.89,0-59.55-7.46-82.96-22.39-23.41-15.27-41.39-36.13-53.95-62.6-12.21-26.46-18.32-56.49-18.32-90.08s6.28-63.62,18.83-90.08c12.55-26.8,30.71-47.67,54.46-62.6s51.74-22.39,83.98-22.39c17.64,0,33.42,2.38,47.33,7.13,14.25,4.41,27.48,11.2,39.7,20.36l-16.29,52.42c-10.18-7.46-20.87-13.06-32.06-16.8-10.86-3.73-23.58-5.6-38.17-5.6-19.68,0-36.3,4.92-49.88,14.76-13.57,9.5-23.75,23.07-30.54,40.72-6.79,17.64-10.18,38.34-10.18,62.09s3.39,44.45,10.18,62.09c6.79,17.64,16.96,31.38,30.54,41.22,13.57,9.5,29.86,14.25,48.86,14.25,14.25,0,26.8-1.7,37.66-5.09,10.86-3.39,21.88-8.65,33.08-15.78l15.27,52.42c-11.88,8.14-25.11,14.59-39.7,19.34-14.25,4.41-30.2,6.62-47.84,6.62h0Z"></path>
</svg>