<?xml version='1.0' encoding='utf-8'?>
<svg xmlns="http://www.w3.org/2000/svg" id="Vrstva_1" data-name="Vrstva 1" viewBox="0 0 646.61 566.93" width="456.2186" height="400.0">
  <defs>
    <style>
      .cls-1 {
        fill-rule: evenodd;
      }
    </style>
  </defs>
  <path class="cls-1" d="m10.3,205.6c0-74.37,30.05-141.7,78.63-190.43l31.62,31.73c-40.49,40.6-65.54,96.72-65.54,158.7s25.04,118.07,65.51,158.68l-31.62,31.73C40.34,347.29,10.3,279.96,10.3,205.6ZM468.33,15.25l-31.62,31.73c37.64,37.78,61.91,88.97,65.1,145.81h44.78c-3.23-69.24-32.53-131.63-78.26-177.54Zm72.58,247.16l-7.4-24.75h-.04s-40.24,0-40.24,0l-67.07,224.36h174.39l-59.65-199.53.02-.08Zm-125.2-56.81c0,76.03-61.42,137.66-137.17,137.66s-137.17-61.63-137.17-137.66,61.42-137.66,137.17-137.66,137.17,61.63,137.17,137.66Zm41.75,0c0,99.16-80.11,179.55-178.92,179.55s-178.92-80.39-178.92-179.55S179.71,26.04,278.52,26.04s178.92,80.39,178.92,179.55Zm178.87,346.16h-245.93v-44.87h245.93v44.87ZM292.99,112.34h-28.35l-63.85,170.17h35.5l11.49-33.32h60.27l11.24,33.32h36.78l-63.08-170.17Zm-14.56,47.67l19.66,59.2h-40.09l20.43-59.2Z"></path>
</svg>