<?xml version='1.0' encoding='utf-8'?>
<!-- Generator: Adobe Illustrator 27.2.0, SVG Export Plug-In . SVG Version: 6.00 Build 0)  --><svg xmlns="http://www.w3.org/2000/svg" xmlns:xlink="http://www.w3.org/1999/xlink" version="1.1" id="Vrstva_1" x="0px" y="0px" viewBox="0 0 599.4 566.9" style="enable-background:new 0 0 599.4 566.9;" xml:space="preserve" width="422.93173" height="400.0">
<style type="text/css">
	.st0{fill-rule:evenodd;clip-rule:evenodd;}
</style>
<g>
	<path class="st0" d="M386.1,118.3V21.1H214.9v97.2c-41.6,27.5-68.8,76.1-68.8,131.1c0,87.4,68.8,157,155.1,157   s155.1-69.7,155.1-157C456.3,194.4,427.5,145.8,386.1,118.3L386.1,118.3z M248.6,55.2h105.5v45.4c-16-6.4-33.5-9.7-52.8-9.7   s-36.7,3.2-52.8,9.7L248.6,55.2L248.6,55.2L248.6,55.2z M299.6,372.5c-67.2,0-121.6-55-121.6-123.1s54.3-123.1,121.6-123.1   s121.6,55,121.6,123.1C422.8,317.5,368.4,372.5,299.6,372.5z" fill="#FFCE63"></path>
	<rect x="5.5" y="231.6" width="68.8" height="33.9" fill="#FFCE63"></rect>
	<polygon class="st0" points="80.4,50.1 104.1,26.1 152.7,75.3 129,99.3  " fill="#FFCE63"></polygon>
	<rect x="283.7" y="476.1" width="33.5" height="69.7" fill="#FFCE63"></rect>
	<polygon class="st0" points="80.6,447.4 129.3,398.2 153,422.2 104.3,471.4  " fill="#FFCE63"></polygon>
	<polygon class="st0" points="448.1,421.9 471.8,397.9 520.5,447.2 496.8,471.2  " fill="#FFCE63"></polygon>
	<rect x="525.1" y="231.6" width="68.8" height="33.9" fill="#FFCE63"></rect>
	<polygon class="st0" points="447.9,75.1 496.5,25.8 520.2,49.8 471.6,99.1  " fill="#FFCE63"></polygon>
</g>
</svg>