<?xml version='1.0' encoding='utf-8'?>
<svg xmlns="http://www.w3.org/2000/svg" id="Vrstva_1" data-name="Vrstva 1" viewBox="0 0 650 566.9" width="458.63467" height="400.0">
  <defs>
    <style>
      .cls-1 {
        fill-rule: evenodd;
      }
    </style>
  </defs>
  <path d="m7.26,11.11v259.64h46.53v-107.13h94.63v-41.05H53.8V53.34h107.13V11.11H7.26Z"></path>
  <path d="m236.96,11.11h-42.62v259.64h43.01V118.12l64.52,152.63h31.67l64.13-153.56v124.62c13.39-7.86,27.81-14.15,43.01-18.62V11.11h-42.23l-79.77,195.51L236.96,11.11Z"></path>
  <path class="cls-1" d="m585.27,358.2c8.4-.86,14.52-1.48,23.11,1.96-6.47-15.18-15.89-28.79-27.55-40.11-9.09,7.27-20.02,14.55-36.39,14.55-8.81,0-11.7-26.33-12.21-43.59-11.68-3.68-24.12-5.67-37.02-5.67-20.41,0-39.67,4.98-56.6,13.78,1.55,2.88,3.19,5.71,4.9,8.28,4.6,6.9,20.5,7.98,27.55,5.84,2.35-.71,4.38-2.77,6.45-4.87,3.12-3.18,6.32-6.41,10.77-5.13,3.35.97,6.52,3.06,9.34,5.05,6.39,4.5,1.51,10.36-3.49,13.85-22.94,16.03-25.52,33.4-28.62,54.08-.88,5.91-1.8,12.08-3.25,18.57-1.61,7.24-5.71,14.98-14.42,12.71-3.41-.89-5.64-3.45-7.9-6.03-1.73-1.99-3.49-3.98-5.79-5.27-5.33-2.97-10.41-3.11-15.52.47-5.29,3.7-8.78,9.65-7.24,16.09,1.5,6.22,4.51,10.25,10.25,13.28,3.9,2.06,8.57,4.45,13.02,4.84,3.72.33,7.45.55,11.17.77,1.5.09,3,.18,4.5.27.27.02.54.03.81.05,5.28.33,11.07.7,16.11,2.06,3.89,1.04,7.3,4.54,10.17,7.47.3.3.59.6.87.89,5.01,5.06,10.54,12.36,11.62,19.59,1.39,9.34-3.2,18.01-7.56,26.28-1.2,2.28-2.39,4.52-3.42,6.74-.79,1.67-1.63,3.34-2.49,5.04-1.9,3.76-3.85,7.56-5.11,11.47-.81,2.48-1.4,5.01-1.99,7.54-.46,1.92-.9,3.84-1.45,5.74-.29,1-.64,2.08-1.1,3.16,9.13,2.16,18.64,3.3,28.43,3.3,46.29,0,86.61-25.59,107.58-63.38-.37-.65-.72-1.38-1.03-2.17-.84-2.11-1.24-3.38-1.62-4.56-.9-2.8-1.62-5.07-7.54-16.74-.43-.86-.81-1.58-1.14-2.18-.49-.9-1.45-2.69-4.04-7.56-3.79-7.15-18.42-1.7-18.42-1.7-11.09,0-25.48-2.55-24.58-24.58.58-14.3,3.39-49.15,24.57-49.15,6.59,0,11.76-.53,16.28-.98h-.01Zm-158.18,152.43c-.39-4.31-.29-8.6.11-13.01.08-.9.29-1.82.5-2.75.46-2.03.92-4.09.12-6-2.6-6.28-8.92-11.42-14.06-15.62l-.26-.21c-.49-.39-.97-.8-1.47-1.19-6.34-5.13-13.04-10.54-14.52-19.02-.34-1.99-.07-3.84.2-5.7.19-1.25.37-2.51.37-3.83,0-3.02-1.39-6.05-2.61-8.75-.29-.63-.57-1.27-.84-1.89-1.43-3.27-2.8-6.38-5.38-9.01-.35-.36-.7-.72-1.06-1.09-2.39-2.46-4.71-4.85-7.61-6.8-1.97-1.32-4.38-2.23-6.8-3.15-.49-.19-.98-.37-1.47-.56,1.24,41.14,22.69,77.18,54.76,98.57h0Zm215.65-102.35c0,81.48-66.05,147.52-147.52,147.52s-147.52-66.05-147.52-147.52,66.05-147.52,147.52-147.52,147.52,66.05,147.52,147.52Z"></path>
</svg>