<?xml version='1.0' encoding='utf-8'?>
<!-- Generator: Adobe Illustrator 27.2.0, SVG Export Plug-In . SVG Version: 6.00 Build 0)  --><svg xmlns="http://www.w3.org/2000/svg" xmlns:xlink="http://www.w3.org/1999/xlink" version="1.1" id="Vrstva_1" x="0px" y="0px" viewBox="0 0 781.6 566.9" style="enable-background:new 0 0 781.6 566.9;" xml:space="preserve" width="551.49054" height="400.0">
<g>
	<path d="M5,310.6v-54.4h140.9v54.4H5L5,310.6z M30.3,93.9l13-44.4l140.5,59c-6.5,5-21,41.6-21,44.4L30.3,93.9L30.3,93.9z    M43.3,517.4l-13-49.4l132.5-54c0,0,5.8,15.6,9.4,22.6c3.6,7,7.5,14.1,11.6,21.4L43.3,517.4L43.3,517.4z M252.3,128.2   c13.8,5,26.6,12.6,38.4,22.6c11.8,10,22.2,21.8,31.2,35.4c8.9,13.5,15.9,28.4,21,44.6s7.6,33.1,7.6,50.6s-2.5,35.8-7.6,52.1   c-5.1,16.3-12.1,31.1-21,44.4c-8.9,13.3-19.3,24.6-31.2,34.1c-11.8,9.5-24.6,16.6-38.4,21.4c-6.5,2.8-12.4,3.4-17.6,1.9   c-5.2-1.5-9.9-3.9-14.1-7.1c-4.2-3.2-7.6-7.1-10.1-11.7c-2.5-4.6-4.3-8.7-5.2-12.4c-4.1-19.8-8-39.7-11.6-59.6   c-3.6-20-5.4-40.9-5.4-63s1.8-44.2,5.4-63.8s7.5-39.6,11.6-59.6c1-4.2,2.7-8.4,5.2-12.8c2.5-4.3,5.9-8.2,10.1-11.5   c4.2-3.4,8.9-5.7,14.1-7.1C239.9,125.1,245.8,125.7,252.3,128.2L252.3,128.2L252.3,128.2z M243.6,374.7c0,2.2,1.1,4.2,3.3,5.9   c2.2,1.7,5.4,1.3,9.8-1.2c15-10,27.2-23.4,36.6-40c9.4-16.6,14.1-35.9,14.1-58c0-10-1.2-20-3.6-29.7c-2.4-9.8-5.9-18.9-10.5-27.4   c-4.6-8.5-10-16.3-16.3-23.4c-6.3-7.1-13-13-20.3-17.8c-2.9-2.2-5.3-2.7-7.2-1.5c-1.9,1.2-3.4,2.5-4.4,3.8c-1,1.3-1.5,2-1.5,2.3   c-4.1,14.5-6.6,29.4-7.4,44.6c-0.9,15.2-1.3,31.6-1.3,49.2s0.4,33.4,1.3,48.3C237,344.6,239.5,359.6,243.6,374.7L243.6,374.7   L243.6,374.7z M529.3,128.2c6.3-2.5,12.1-3.1,17.4-1.7c5.3,1.4,9.9,3.8,13.8,7.1c3.9,3.4,7.2,7.2,10,11.5c2.8,4.3,4.8,8.6,6,12.8   c4.3,20.1,7.5,40,9.6,59.6s3.1,41,3.1,63.8s-1,43-3.1,63c-2,20-5.3,39.8-9.6,59.6c-1.2,3.6-3.2,7.7-6,12.4   c-2.8,4.6-6.1,8.5-10,11.7c-3.9,3.2-8.5,5.6-13.8,7.1c-5.3,1.5-11.1,0.9-17.4-1.9c-14-4.7-27-11.9-39.1-21.4   c-12.1-9.5-22.5-20.9-31.2-34.1c-8.7-13.2-15.5-28-20.5-44.4c-5-16.3-7.4-33.7-7.4-52.1s2.5-34.5,7.4-50.6   c4.9-16.2,11.8-31,20.5-44.6s19.1-25.3,31.2-35.4C502.3,140.7,515.3,133.2,529.3,128.2L529.3,128.2L529.3,128.2z M538,374.7   c1.9-15.1,3.7-30.1,5.4-45c1.7-14.9,2.5-31,2.5-48.3s-0.8-34-2.5-49.2c-1.7-15.2-3.5-30.1-5.4-44.6c0-0.3-0.5-1.1-1.5-2.3   c-1-1.2-2.4-2.5-4.3-3.8c-1.9-1.2-4.2-0.8-6.9,1.5c-7.7,4.8-14.7,10.7-21,17.8c-6.3,7.1-11.7,14.9-16.3,23.4   c-4.6,8.5-8.2,17.6-10.7,27.4c-2.5,9.8-3.8,19.7-3.8,29.7c0,22,4.9,41.4,14.7,58c9.8,16.6,22.1,29.9,37.1,40   c4.1,2.5,7.2,2.9,9.4,1.2C536.9,378.9,538,376.9,538,374.7L538,374.7z M751.3,93.9l-132.5,59c0-2.8-6.1-20.4-9.6-27   c-3.5-6.6-7.5-12.3-12.1-17.4l141.2-59L751.3,93.9L751.3,93.9z M738.2,517.4L597,458c4.6-7.3,8.6-14.4,12.1-21.4   c3.5-7,9.6-22.6,9.6-22.6l132.5,54L738.2,517.4z M776.6,310.7H631.4v-54.4h145.2V310.7z" fill="#51F093"></path>
</g>
</svg>