<?xml version='1.0' encoding='utf-8'?>
<svg xmlns="http://www.w3.org/2000/svg" id="Vrstva_1" version="1.1" viewBox="0 0 403.85 400" width="403.85" height="400.0">
  <!-- Generator: Adobe Illustrator 30.2.1, SVG Export Plug-In . SVG Version: 2.1.1 Build 1)  -->
  <path d="M201.93,5.12C94.35,5.12,7.05,92.43,7.05,200s87.31,194.88,194.88,194.88,194.88-87.31,194.88-194.88S309.5,5.12,201.93,5.12Z" fill="#fff"></path>
  <path d="M357.62,128.37l-6.7-14.14-233.69,233.69,13.27,7.56,227.11-227.11h.01ZM343.97,105.18l-236.21,236.21-11.97-8.85,239.14-239.15,9.05,11.8h0ZM328.87,83.45l-10.34-10.5-241.16,241.16,10.16,10.68,241.34-241.35h0ZM310.86,64.61l-241.57,241.58-9.47-11.37L299.2,55.45l11.66,9.17h0ZM288.78,49.88l-15.56-5.27L47.04,270.79l6.87,13.96L288.78,49.88h0Z" fill="#76be85" fill-rule="evenodd"></path>
  <path d="M355.39,199.98c0-84.76-68.71-153.47-153.47-153.47S48.45,115.22,48.45,199.98s68.71,153.47,153.47,153.47v28.42l-4.69-.06c-96.72-2.45-174.69-80.41-177.14-177.14l-.06-4.69C20.03,99.53,101.47,18.09,201.93,18.09l4.69.06c98.28,2.49,177.19,82.95,177.19,181.84l-.06,4.69c-2.49,98.28-82.94,177.19-181.83,177.19v-28.42c84.76,0,153.47-68.71,153.47-153.47h0Z" fill="#76be85"></path>
</svg>