<?xml version='1.0' encoding='utf-8'?>
<svg xmlns="http://www.w3.org/2000/svg" id="Vrstva_1" data-name="Vrstva 1" viewBox="0 0 540.27 566.93" width="381.1899" height="400.0">
  <defs>
    <style>
      .cls-1 {
        fill-rule: evenodd;
      }
    </style>
  </defs>
  <path class="cls-1" d="m309.88,24.88C189.66,6.81,66.87,71.02,26.66,171.23c-40.22,100.22-15.68,218.12,74.36,298.49,84.84,75.73,201.88,91.61,269.93,60.06,40.84-18.93,67.27-68.59,25.13-121.54-42.15-52.96-15.74-85.58-4.62-96.7,18.21-18.21,31.81-19.52,52.33-21.5,11.1-1.07,24.23-2.33,41.22-6.58,37.41-9.34,50.25-46.99,46.77-74.83-9.35-74.84-101.67-165.68-221.88-183.76Zm96.5,217.36c23.41,0,42.39-18.98,42.39-42.39s-18.98-42.39-42.39-42.39-42.39,18.98-42.39,42.39,18.98,42.39,42.39,42.39Zm-84.77-110.2c0,23.41-18.98,42.39-42.39,42.39s-42.39-18.98-42.39-42.39,18.98-42.39,42.39-42.39,42.39,18.98,42.39,42.39Zm-169.54,93.25c23.41,0,42.39-18.98,42.39-42.39s-18.98-42.39-42.39-42.39-42.39,18.98-42.39,42.39,18.98,42.39,42.39,42.39Zm16.95,84.77c0,23.41-18.98,42.39-42.39,42.39s-42.39-18.98-42.39-42.39,18.98-42.39,42.39-42.39,42.39,18.98,42.39,42.39Zm50.86,144.11c23.41,0,42.39-18.98,42.39-42.39s-18.98-42.39-42.39-42.39-42.39,18.98-42.39,42.39,18.98,42.39,42.39,42.39Z"></path>
</svg>