<?xml version='1.0' encoding='utf-8'?>
<svg xmlns="http://www.w3.org/2000/svg" id="Vrstva_1" data-name="Vrstva 1" viewBox="0 0 786.32 566.93" width="554.7916" height="400.0">
  <defs>
    <style>
      .cls-1 {
        fill-rule: evenodd;
      }
    </style>
  </defs>
  <path class="cls-1" d="m269.43,21.3c-17.38,0-32.91,10.86-38.88,27.18l-111.28,304.28h-43.15c-7.62,0-13.8-6.18-13.8-13.8v-41.84H7.12v41.84c0,38.11,30.89,69,69,69h151.09v-.28h57.54c13.14-78.32,81.25-137.99,163.3-137.99s150.1,59.62,163.28,137.88l.13.11h126.35c22.86,0,41.4-18.54,41.4-41.4V62.69c0-22.86-18.54-41.4-41.4-41.4h-468.38Zm77.52,369.57c15.67-35.63,49.62-61.4,89.97-65.43,3.66-.37,7.37-.55,11.13-.55,60.97,0,110.39,49.42,110.39,110.39s-49.42,110.39-110.39,110.39-110.39-49.42-110.39-110.39c0-15.8,3.32-30.82,9.3-44.41Zm101.1-314.37h220.79v110.39h-220.79v-110.39Zm0,413.97c30.49,0,55.2-24.71,55.2-55.2s-24.71-55.2-55.2-55.2-55.2,24.71-55.2,55.2,24.71,55.2,55.2,55.2Z"></path>
</svg>