<?xml version='1.0' encoding='utf-8'?>
<svg xmlns="http://www.w3.org/2000/svg" id="Vrstva_1" data-name="Vrstva 1" viewBox="0 0 402.93 566.93" width="284.28906" height="400.0">
  <defs>
    <style>
      .cls-1 {
        fill-rule: evenodd;
      }
    </style>
  </defs>
  <path class="cls-1" d="m250.14,111.23c-12.81-22.39-13.96-40.72-12.48-52.87.76-6.2,2.23-11.02,3.42-14.13.89-2.33,1.62-3.67,1.73-3.86-.21.36-10.32-5.91-14.51-8.5-.8-.5-1.39-.86-1.64-1.02q-16.04-9.72-16.06-9.68c-.59.98-1.12,1.99-1.63,3.01-.81,1.62-1.83,3.84-2.89,6.61-2.13,5.54-4.46,13.35-5.64,23.03-2.39,19.63.07,46.15,17.15,76.02,10.82,18.91,6.83,33.42.14,44.36-3.56,5.82-7.95,10.58-11.56,13.93-.09.09-4.01,3.33-5.17,4.3l-.05.04c-.17.14-.27.23-.27.23t10.5,15.54c.16.25.54.8,1.04,1.57,2.71,4.08,9.33,14.05,9.59,13.87,1.04-.72,2.06-1.48,3.07-2.26,1.75-1.36,4.11-3.3,6.8-5.79,5.31-4.93,12.2-12.3,18.05-21.87,12.13-19.85,19.49-49.18.41-82.54Zm-87.48-52.87c-1.48,12.15-.33,30.47,12.48,52.87,19.08,33.35,11.72,62.69-.41,82.54-5.85,9.57-12.74,16.94-18.05,21.87-2.69,2.49-5.05,4.43-6.8,5.79-1.03.8-2.08,1.58-3.15,2.32-.11.08-8.43-12.35-10.22-15.01h0s0,0,0,0h0s-.32-.48-.32-.48l-.35-.53c-1.83-2.74-10.09-15.05-10.18-14.99,1.94-1.4,3.77-2.96,5.52-4.59,3.61-3.35,8-8.11,11.56-13.93,6.69-10.94,10.67-25.45-.14-44.36-17.08-29.87-19.54-56.39-17.15-76.02,1.18-9.68,3.51-17.5,5.64-23.03,1.06-2.77,2.08-4.99,2.89-6.61.5-1.01,1.04-2,1.61-2.97.08-.14,12.86,7.67,15.59,9.33l.5.3q16.04,9.72,16.05,9.7s-.78,1.78-1.26,2.86v.03s-.36.78-.36.78c-1.19,3.11-2.67,7.93-3.42,14.13Zm-75.01,0c-1.48,12.15-.33,30.48,12.48,52.87,19.08,33.35,11.72,62.69-.41,82.54-5.85,9.57-12.74,16.94-18.05,21.87-3.11,2.88-6.37,5.64-9.86,8.05-.3.2-8.15-11.69-10.18-14.75h0s0,0,0,0h0l-.46-.69q-10.48-15.55-10.5-15.54s.12-.1.33-.27h0c1.17-.97,5.07-4.2,5.16-4.29,3.61-3.35,8-8.11,11.56-13.93,6.69-10.94,10.67-25.45-.14-44.36-17.08-29.87-19.54-56.39-17.15-76.02,1.18-9.68,3.51-17.5,5.64-23.03,1.06-2.77,2.08-4.99,2.89-6.61.49-.97,1.01-1.93,1.55-2.87.18-.3,10.37,5.98,14.54,8.55.78.48,1.35.83,1.6.99l.57.35h0c2.88,1.76,15.43,9.43,15.51,9.3,0,0-.53,1.2-.99,2.24l-.66,1.49c-1.19,3.11-2.67,7.93-3.42,14.13ZM4.91,245.74h300.02v37.51c51.78,0,93.76,41.98,93.76,93.76s-41.98,93.76-93.76,93.76v46.87c0,15.53-12.59,28.13-28.13,28.13H33.03c-15.53,0-28.13-12.59-28.13-28.13,0-58.82,0-117.65,0-176.47v-95.43Zm300.02,187.52c31.07,0,56.25-25.18,56.25-56.25s-25.19-56.25-56.25-56.25v112.51Z" fill="#F54C4C"></path>
</svg>