<?xml version='1.0' encoding='utf-8'?>
<!-- Generator: Adobe Illustrator 27.2.0, SVG Export Plug-In . SVG Version: 6.00 Build 0)  --><svg xmlns="http://www.w3.org/2000/svg" xmlns:xlink="http://www.w3.org/1999/xlink" version="1.1" id="Vrstva_1" x="0px" y="0px" viewBox="0 0 644.4 566.9" style="enable-background:new 0 0 644.4 566.9;" xml:space="preserve" width="454.68338" height="400.0">
<style type="text/css">
	.st0{fill-rule:evenodd;clip-rule:evenodd;}
</style>
<g>
	<path class="st0" d="M624.8,546.1H19.6c-5.8-10-11.1-20.2-15.9-30.8l8.7-14.7L295.5,21.8c8.8-0.7,17.7-1,26.7-1s17.9,0.3,26.7,1   L632,500.6l8.7,14.7C635.9,525.9,630.6,536.1,624.8,546.1z M579.1,500.6L322.2,66.1L65.2,500.6L579.1,500.6L579.1,500.6z    M295,216.4v-41.7h56.3v41.7l-7.9,160.7h-40.5L295,216.4L295,216.4z M350.9,440.7c0,15.3-12.4,27.8-27.8,27.8s-27.8-12.4-27.8-27.8   v-2.1c0-15.3,12.4-27.8,27.8-27.8s27.8,12.4,27.8,27.8V440.7z" fill="#FFCE63"></path>
</g>
</svg>