<?xml version='1.0' encoding='utf-8'?>
<svg xmlns="http://www.w3.org/2000/svg" id="Vrstva_1" data-name="Vrstva 1" viewBox="0 0 473.94 566.93" width="334.3905" height="400.0">
  <defs>
    <style>
      .cls-1 {
        fill-rule: evenodd;
      }
    </style>
  </defs>
  <path class="cls-1" d="m179.44,233.47c9.69-4.12,20.99-.15,26.19,9.39,5.64,10.36,1.82,23.32-8.54,29.01l-57.51,31.55,5,19.35h203.75c11.5,0,20.82,9.28,20.82,20.73,0,9.57-6.53,17.65-15.39,20.02h-123.93l-.06,20.63h.06s118.25.71,118.25.71c2.71.02,5.36-.23,7.94-.71h19.02c11.26,0,20.39,9.09,20.39,20.3s-9.13,20.31-20.39,20.31h-145.21v20.63h126.08v15.56c0,13.48-10.98,24.42-24.52,24.42h-101.55v20.63h75.4v15.56c0,13.48-10.98,24.42-24.52,24.42h-147.14c-21.45,0-43.54-2.04-63.96-11.12-20.13-8.95-39.4-25.1-54.71-54.74-.4-.78-.75-1.6-1.03-2.42-1.07-3.11-3.28-9.76-5.2-17.02-2-7.54-3.41-14.72-3.41-19.31,0-1.61-.07-3.76-.16-6.37-.35-10.54-.95-28.61,1.83-49.3,3.47-25.82,12.01-53.49,31.32-72.75,14.33-14.29,39.36-29.91,66.57-44.32,26.94-14.26,55.01-26.82,74.64-35.17Z"></path>
  <path class="cls-1" d="m301.33,88.08c-1.44,15.02.8,36.79,12.08,67.59l.09.24h0c7.38,21.31,10.3,41.48,7.12,59.86-3.25,18.76-12.69,34.61-28.06,47.01l-18.05-22.38c10.13-8.17,15.76-17.89,17.77-29.53,2.08-11.99.45-26.99-5.92-45.43-12.27-33.55-15.61-59.7-13.66-80.1l28.62,2.74Z"></path>
  <path d="m260.86,89.15l25.53-68.2,26.23,68.2h-51.75Z"></path>
  <path class="cls-1" d="m374.49,88.08c-1.44,15.02.8,36.79,12.08,67.59l.09.24h0c7.38,21.31,10.3,41.48,7.12,59.86-3.25,18.76-12.69,34.61-28.06,47.01l-18.05-22.38c10.13-8.17,15.76-17.89,17.77-29.53,2.08-11.99.45-26.99-5.92-45.43-12.27-33.55-15.61-59.7-13.66-80.1l28.62,2.74Z"></path>
  <path d="m334.03,89.15l25.53-68.2,26.23,68.2h-51.75Z"></path>
  <path class="cls-1" d="m447.5,88.08c-1.44,15.02.8,36.79,12.08,67.59l.09.24h0c7.38,21.31,10.3,41.48,7.12,59.86-3.25,18.76-12.69,34.61-28.06,47.01l-18.05-22.38c10.13-8.17,15.76-17.89,17.78-29.53,2.08-11.99.45-26.99-5.92-45.43-12.27-33.55-15.61-59.7-13.66-80.1l28.62,2.74Z"></path>
  <path d="m407.04,89.15l25.53-68.2,26.23,68.2h-51.75Z"></path>
</svg>