<?xml version='1.0' encoding='utf-8'?>
<!-- Generator: Adobe Illustrator 27.2.0, SVG Export Plug-In . SVG Version: 6.00 Build 0)  --><svg xmlns="http://www.w3.org/2000/svg" xmlns:xlink="http://www.w3.org/1999/xlink" version="1.1" id="Vrstva_1" x="0px" y="0px" viewBox="0 0 608 566.9" style="enable-background:new 0 0 608 566.9;" xml:space="preserve" width="428.99982" height="400.0">
<style type="text/css">
	.st0{fill-rule:evenodd;clip-rule:evenodd;}
</style>
<g>
	<path class="st0" d="M476.4,108.7c0,27.7-2.9,55.1-8.1,81.9h40.4c4.7-26.7,7.4-54.1,7.4-81.9l86.7,0c0.1,3.8,0.2,8,0.3,12.4   c1,44.9,2.7,121.2-4.4,202.3c-6.5,74.1-20.6,155.2-50.9,222.3H313c26.5-25.1,56.9-59.8,85.9-101.3c7.8-11.2,15.6-23,23.2-35.3   h-47.2c-2.8,4.2-5.7,8.4-8.5,12.5c-29,41.6-59.2,75.5-84.4,98.7c-12.1,11.2-22.8,19.6-31.4,25.3H47.8v-19.8   c12.2-7.5,25.6-16.3,39.9-26.3c41.8-29.3,89.7-67.9,134.9-111.5c45.3-43.7,87.4-92,118.1-140.5c30.8-48.9,49-96.3,49-138.8   L476.4,108.7L476.4,108.7z M495.9,245.2c-11.1,38.5-26.1,75.2-43.3,109.2h-44.8c18.4-33.9,34.6-70.7,46.7-109.2H495.9L495.9,245.2z   "></path>
	<path d="M177.1,38.3l-0.1,0.2l63.9,36.9l2,31l67.1,38.8l-59.2,102.5l-67-39.1l-2.1-30.8L117.8,141L33.6,286.9L4.1,269.8L147.6,21.3   L177.1,38.3z"></path>
</g>
</svg>