<?xml version='1.0' encoding='utf-8'?>
<!-- Generator: Adobe Illustrator 27.2.0, SVG Export Plug-In . SVG Version: 6.00 Build 0)  --><svg xmlns="http://www.w3.org/2000/svg" xmlns:xlink="http://www.w3.org/1999/xlink" version="1.1" id="Vrstva_1" x="0px" y="0px" viewBox="0 0 1115.6 566.9" style="enable-background:new 0 0 1115.6 566.9;" xml:space="preserve" width="787.1582" height="400.0">
<g>
	<path d="M296,451.9h-69.1l-21.1-63.1H91.6l-21.1,63.1H4.4L124.6,115h54.1L296,451.9L296,451.9z M148.7,208.4l-39,126.2h81.2   L148.7,208.4L148.7,208.4z" fill="#FFCE63"></path>
	<path d="M425.4,457.8c-24.1,0-45.2-6-63.1-15.1c-18.1-9-33-24.1-42-42c-9-18.1-15.1-42-15.1-66.1V118h66.1v216.6   c0,21.1,6,36,15.1,48.2c9,12,24.1,18.1,39,18.1c14.9,0,30.1-6,39-15.1c9-12,15.1-27.1,15.1-48.2V121.2h66.1v213.4   c0,24.1-6,48.2-15.1,66.1c-9,18.1-24.1,33-42,42C470.4,454.9,449.5,457.9,425.4,457.8L425.4,457.8z" fill="#FFCE63"></path>
	<path d="M575.7,118h234.5v60.1H726v276.7h-66.1V178.3h-84.2L575.7,118L575.7,118L575.7,118z" fill="#FFCE63"></path>
	<path d="M963.7,457.8c-30.1,0-57.1-6-81.2-21.1c-21.1-15.1-39-36-51.2-63.1c-12-27.1-18.1-57.1-18.1-90.2s6-63.1,18.1-90.2   c12-27.1,30.1-48.2,51.2-63.1c24.1-15.1,48.2-21.1,81.2-21.1c30.1,0,57.1,6,78.2,21.1c24.1,15.1,39,36,51.2,63.1   c11.9,27.1,18.1,57.1,18.1,90.2s-6,63.1-18.1,90.2s-30.2,48.2-51.3,63.3C1020.9,451.9,993.8,457.8,963.7,457.8L963.7,457.8z    M963.7,397.7c18.1,0,33.1-6,45.2-15.1c11.9-9,21.1-24.1,27.1-39c6-18.1,9-36,9-60.1c0-36-6-63.1-21.1-81.2   c-15.1-21.1-33.1-30.1-60.1-30.1c-18.1,0-33,6-45.2,15.1c-12,9-21.1,21.1-27.1,39c-6,18.1-9,36-9,60.1s3,42,9,60.1   s15.1,30.1,27.1,39C930.5,391.7,945.6,397.7,963.7,397.7z" fill="#FFCE63"></path>
</g>
</svg>