<?xml version='1.0' encoding='utf-8'?>
<!-- Generator: Adobe Illustrator 27.2.0, SVG Export Plug-In . SVG Version: 6.00 Build 0)  --><svg xmlns="http://www.w3.org/2000/svg" xmlns:xlink="http://www.w3.org/1999/xlink" version="1.1" id="Vrstva_1" x="0px" y="0px" viewBox="0 0 622.4 566.9" style="enable-background:new 0 0 622.4 566.9;" xml:space="preserve" width="439.16034" height="400.0">
<g>
	<path d="M608,546.6H14.4c-3.3,0-6.4-1.8-8.1-4.7c-1.7-2.9-1.6-6.5,0.1-9.4L306.1,24.9c1.7-2.8,4.7-4.6,8-4.6h0c3.3,0,6.4,1.8,8,4.6   l293.9,507.6c1.7,2.9,1.7,6.4,0,9.3S611.4,546.6,608,546.6L608,546.6L608,546.6z M30.7,527.9h561.2L314.1,48.1L30.7,527.9   L30.7,527.9z"></path>
	<polygon points="89.4,502.2 220.9,263.6 250,304.9 271.4,265.1 305.1,382.9 316.5,319.1 329.4,283.5 350.5,316.4 385.1,222.6    539.5,502.2  "></polygon>
</g>
</svg>