<?xml version='1.0' encoding='utf-8'?>
<!-- Generator: Adobe Illustrator 27.2.0, SVG Export Plug-In . SVG Version: 6.00 Build 0)  --><svg xmlns="http://www.w3.org/2000/svg" xmlns:xlink="http://www.w3.org/1999/xlink" version="1.1" id="Vrstva_1" x="0px" y="0px" viewBox="0 0 557.2 566.9" style="enable-background:new 0 0 557.2 566.9;" xml:space="preserve" width="393.15573" height="400.0">
<style type="text/css">
	.st0{fill-rule:evenodd;clip-rule:evenodd;}
</style>
<g>
	<path class="st0" d="M451.3,261.6c57.3-9.6,100.9-59.4,100.9-119.5C552.2,75.2,498,21,431.1,21S309.9,75.2,309.9,142.1   c0,60,43.7,109.9,100.9,119.5v203.6h40.4L451.3,261.6L451.3,261.6z M385.6,178.6v-73h91v73H385.6z"></path>
	<path class="st0" d="M178,222.9c46.1,0,81.5,5.2,95.8,7.7l10,1.7l66.5,117.3l0,153.4c0,13.2-5.7,24.7-15,32.4   c-8.9,7.4-20,10.5-30.5,10.5s-21.7-3.2-30.5-10.6c-8.5-7.1-13.9-17.3-14.8-29.2H95.8c-0.8,11.8-6.2,22.1-14.7,29.2   c-8.9,7.4-20,10.6-30.5,10.6s-21.7-3.2-30.5-10.5c-9.3-7.7-15-19.1-15-32.4l0-153.4l66.5-117.3l10-1.7c14.3-2.5,49.8-7.7,95.8-7.7   H178L178,222.9z M240.1,374.5h37.2v37.2h24v-62h-86.1L240.1,374.5L240.1,374.5z M53.9,411.7h24v-37.2h37.2l24.8-24.8H53.9   L53.9,411.7L53.9,411.7z M177.7,266c-34.2,0-62,3.1-78.2,5.5L78.2,309h198.9l-21.3-37.6C239.6,269.1,211.9,266,177.7,266L177.7,266   z"></path>
</g>
</svg>