<?xml version='1.0' encoding='utf-8'?>
<!-- Generator: Adobe Illustrator 27.2.0, SVG Export Plug-In . SVG Version: 6.00 Build 0)  --><svg xmlns="http://www.w3.org/2000/svg" xmlns:xlink="http://www.w3.org/1999/xlink" version="1.1" id="Vrstva_1" x="0px" y="0px" viewBox="0 0 812.4 566.9" style="enable-background:new 0 0 812.4 566.9;" xml:space="preserve" width="573.2228" height="400.0">
<g>
	<path d="M300.9,416.5c-52.3-2-94.2-45.1-94.2-97.9s44-98,98-98c43,0,79.6,27.9,92.8,66.6h45.3C428.5,224.2,372,177,304.7,177   c-78.1,0-141.6,63.6-141.6,141.7s61.5,139.5,137.9,141.5L300.9,416.5L300.9,416.5L300.9,416.5z"></path>
	<rect x="430.4" y="120.8" transform="matrix(0.7071 -0.7071 0.7071 0.7071 39.9239 381.6996)" width="100.6" height="43.7"></rect>
	<rect x="78.4" y="472.9" transform="matrix(0.7071 -0.7071 0.7071 0.7071 -312.0965 235.9147)" width="100.6" height="43.7"></rect>
	<rect x="5.5" y="296.8" width="100.6" height="43.7"></rect>
	<rect x="106.9" y="92.4" transform="matrix(0.7071 -0.7071 0.7071 0.7071 -63.1761 132.8032)" width="43.7" height="100.6"></rect>
	<rect x="282.9" y="19.4" width="43.7" height="100.6"></rect>
	<rect x="341" y="517.2" width="465.9" height="30.3"></rect>
	<rect x="341" y="453.9" width="465.9" height="30.3"></rect>
	<polygon points="510,390.6 341,390.6 341,420.9 539.5,420.9  "></polygon>
	<polygon points="646,390.6 616.5,420.9 806.9,420.9 806.9,390.6  "></polygon>
	<polygon points="448.5,327.3 341,327.3 341,357.6 478,357.6  "></polygon>
	<polygon points="707.5,327.3 678.1,357.6 806.9,357.6 806.9,327.3  "></polygon>
	<polygon points="628.5,249.2 668.3,249.2 578,156.4 487.8,249.2 527.5,249.2 527.5,325.9 487.8,325.9 578,418.7 668.3,325.9    628.5,325.9  "></polygon>
</g>
</svg>