<?xml version='1.0' encoding='utf-8'?>
<!-- Generator: Adobe Illustrator 27.2.0, SVG Export Plug-In . SVG Version: 6.00 Build 0)  --><svg xmlns="http://www.w3.org/2000/svg" xmlns:xlink="http://www.w3.org/1999/xlink" version="1.1" id="Vrstva_1" x="0px" y="0px" viewBox="0 0 715.4 566.9" style="enable-background:new 0 0 715.4 566.9;" xml:space="preserve" width="504.78036" height="400.0">
<g>
	<polygon points="137.6,149.5 82.6,149.5 82.6,168.7 156.7,168.7 156.7,65.8 137.6,65.8  "></polygon>
	<path d="M156.7,280.8v-26.9h-19.2v27.1c-59.9-4.7-107.7-52.6-112.4-112.4h27.1v-19.2H25.1C30,86.2,82.8,36.4,147.1,36.4   c36,0,70.1,15.7,93.3,43.2l14.5-12.4c-26.9-31.8-66.4-50-108-50C68.8,17.2,5.3,80.6,5.3,158.7s63.6,141.6,141.6,141.6   c14.7,0,29.2-2.3,43.2-6.6l-5.8-18.2C175.6,278.7,166.1,280,156.7,280.8L156.7,280.8L156.7,280.8z"></path>
	<path d="M494.6,201.4c-9.6-3.7-87.2-3-129-0.7c-3.1,0.2-6.6,0.4-54,34.8c-64,8.2-87.7,24-87.7,57.9c0,21.5,13.1,39,31.3,43.5   c0.7,18.5,16.1,33.6,34.8,33.6s33.4-14.3,34.8-32.3h129.2c1.2,18,16.4,32.3,34.8,32.3s34.1-14.9,34.8-33.4   c22.2-4.9,37.6-27.3,37.6-56.8C561,241.6,543,220.1,494.6,201.4L494.6,201.4L494.6,201.4z M514,319c-5.2,0-9.6,4.4-9.6,9.6v7   c0,8.6-7,15.7-15.7,15.7s-15.7-7-15.7-15.7v-7c0-5.2-4.4-9.6-9.6-9.6H315.1c-5.2,0-9.6,4.4-9.6,9.6v7c0,8.6-7,15.7-15.7,15.7   s-15.7-7-15.7-15.7v-7c0-5.2-4.4-9.6-9.6-9.6c-13.6,0-21.7-12.9-21.7-25.5c0-15.9,5.6-30.9,73.4-39.3c1.6-0.2,3.1-0.9,4.5-1.8   c19.2-14,41.4-29.5,47.4-32.7c50.9-2.8,113.1-1.9,119.4-0.5c46,17.8,54.4,34.4,54.4,61.2C541.9,303.1,530.4,319,514,319L514,319   L514,319z"></path>
	<path d="M271.9,176.9l38.5,36.7c1.9,1.8,4.2,2.6,6.6,2.6s5.1-1.1,7-3c3.7-3.9,3.5-10-0.4-13.5L285,162.9c3.9-6.5,6.3-14.2,6.3-22.2   c0-23.9-19.4-43.3-43.5-43.3s-43.4,19.4-43.4,43.3s19.4,43.4,43.4,43.4C256.7,184.1,265.1,181.5,271.9,176.9L271.9,176.9   L271.9,176.9z"></path>
	<path d="M496.1,471.8c-2.6,0-5.2,0.4-7.7,0.7l-49.1-115.4c-2.1-4.9-7.7-7.2-12.6-5.1c-4.9,2.1-7.2,7.7-5.1,12.6L470.8,480   c-10.8,7.9-18.2,20.6-18.2,35.1c0,24,19.4,43.5,43.5,43.5s43.3-19.4,43.3-43.5C539.7,491.2,520.1,471.8,496.1,471.8L496.1,471.8z"></path>
	<path d="M666.4,336.3c-14.7,0-27.4,7.3-35.3,18.4l-59.8-24.8c-4.9-1.9-10.5,0.2-12.6,5.2c-2.1,4.9,0.3,10.5,5.2,12.6l59.8,25   c-0.3,2.5-0.7,4.9-0.7,7.3c0,24,19.4,43.5,43.5,43.5s43.5-19.4,43.5-43.5C709.7,355.7,690.3,336.3,666.4,336.3L666.4,336.3   L666.4,336.3z"></path>
	<path d="M449.3,184.3c1.4,0.7,3,1.1,4.4,1.1c3.5,0,6.8-1.9,8.6-5.2l44.4-86.5c3.5,0.9,7,1.6,10.8,1.6c24,0,43.3-19.4,43.3-43.3   S541.4,8.3,517.5,8.3s-43.5,19.4-43.5,43.5c0,13.3,6.1,25.2,15.7,33.2l-44.6,86.5C442.8,176,444.6,181.8,449.3,184.3L449.3,184.3z"></path>
	<path d="M353.5,352.9c-4.5-2.8-10.3-1.6-13.3,3l-48.8,76.4c-4.5-1.6-9.4-2.8-14.7-2.8c-24,0-43.5,19.4-43.5,43.4   s19.4,43.5,43.5,43.5s43.4-19.4,43.4-43.5c0-11.9-4.9-22.7-12.6-30.6l48.6-76.2C359.3,361.7,357.9,355.7,353.5,352.9L353.5,352.9   L353.5,352.9z"></path>
</g>
</svg>