<?xml version='1.0' encoding='utf-8'?>
<svg xmlns="http://www.w3.org/2000/svg" id="Vrstva_1" data-name="Vrstva 1" viewBox="0 0 575.38 566.93" width="405.96194" height="400.0">
  <defs>
    <style>
      .cls-1 {
        fill-rule: evenodd;
      }
    </style>
  </defs>
  <path class="cls-1" d="m181.83,361L13.15,529.68l28.33,28.33L562.23,37.25l-28.33-28.33-80.92,80.92c-9.99-16.38-21.89-31.48-35.38-44.98l-28.33,28.33c13.54,13.55,25.15,29.02,34.38,45.98l-29.84,29.84c-25.11-55.72-81.13-94.51-146.21-94.51-88.53,0-160.29,71.76-160.29,160.29,0,65.08,38.79,121.11,94.51,146.21Zm28.94-28.94l67.06-67.06-3.81-11.27h-53.99l-10.3,29.74h-31.8l57.2-151.92h25.4l40.87,109.88,63.49-63.49c-15.65-49.87-62.24-86.05-117.27-86.05-67.87,0-122.89,55.02-122.89,122.89,0,55.04,36.18,101.62,86.05,117.27Zm192.79-80.08c-13.94,58.66-60.11,104.83-118.77,118.77l118.77-118.77ZM7.28,214.8c0-66.39,26.92-126.5,70.44-170l28.33,28.33c-36.27,36.25-58.71,86.34-58.71,141.67s22.43,105.41,58.69,141.65l-28.33,28.33C34.2,341.28,7.28,281.18,7.28,214.8Zm468.71,28.61h-36.05l-60.09,200.29h156.23l-60.09-200.29Zm92.1,280.41h-220.32v-40.06h220.32v40.06ZM247.47,174.12l17.62,52.85h-35.92l18.3-52.85Z"></path>
</svg>