<?xml version='1.0' encoding='utf-8'?>
<!-- Generator: Adobe Illustrator 27.2.0, SVG Export Plug-In . SVG Version: 6.00 Build 0)  --><svg xmlns="http://www.w3.org/2000/svg" xmlns:xlink="http://www.w3.org/1999/xlink" version="1.1" id="Vrstva_1" x="0px" y="0px" viewBox="0 0 559.2 566.9" style="enable-background:new 0 0 559.2 566.9;" xml:space="preserve" width="394.56693" height="400.0">
<style type="text/css">
	.st0{fill-rule:evenodd;clip-rule:evenodd;}
</style>
<g>
	<path d="M296.9,7.1v69.1h-34.5V7.1H296.9z"></path>
	<path d="M279.6,197.9l-69.1,158l69.1-29.6l69.1,29.6L279.6,197.9z"></path>
	<path class="st0" d="M452.3,283.5c0,95.4-77.4,172.8-172.8,172.8s-172.8-77.4-172.8-172.8s77.3-172.8,172.8-172.8   S452.3,188,452.3,283.5L452.3,283.5z M417.8,283.5c0,76.3-61.9,138.2-138.2,138.2s-138.2-61.9-138.2-138.2s61.9-138.2,138.2-138.2   S417.8,207.1,417.8,283.5L417.8,283.5z"></path>
	<path d="M296.9,559.9v-69.1h-34.5v69.1H296.9z"></path>
	<path d="M3.2,300.7h69.1v-34.5H3.2V300.7z"></path>
	<path d="M556,300.7h-69.1v-34.5H556V300.7z"></path>
</g>
</svg>