<?xml version='1.0' encoding='utf-8'?>
<svg xmlns="http://www.w3.org/2000/svg" id="Vrstva_1" data-name="Vrstva 1" viewBox="0 0 555.79 566.93" width="392.1401" height="400.0">
  <defs>
    <style>
      .cls-1 {
        fill-rule: evenodd;
      }
    </style>
  </defs>
  <path class="cls-1" d="m7.05,10.29h99.93c19.72,0,36.89,4.33,51.53,12.99,14.64,8.37,25.84,19.87,33.61,34.5,7.77,14.64,11.65,31.07,11.65,49.29s-3.88,34.65-11.65,49.29c-7.47,14.64-18.67,26.14-33.61,34.5-14.64,8.37-32.11,12.55-52.43,12.55h-45.71v104.41H7.05V10.29Zm94.1,146.53c15.53,0,27.18-4.48,34.95-13.44,8.07-8.96,12.1-21.06,12.1-36.3s-4.03-27.18-12.1-35.85c-8.07-8.96-19.72-13.44-34.95-13.44h-40.78v99.03h40.78Zm-13.03,321.03l48.73,48.73-30.06,30.06L6.76,456.6l100.04-100.04,30.06,30.06-48.73,48.73h280.27c23.47,0,42.51-19.03,42.51-42.51h42.51c0,46.95-38.06,85.01-85.01,85.01H88.13Zm227.09-329.42h38.96v-42.51h-38.96v42.51Zm233.81,0h-38.79l-.03,167.31c-20.43,19.71-47.8,31.76-77.86,31.76s-57.43-12.05-77.86-31.76l-.02-71.68h-.3v-77.93h.27l-.02-85.07s0,0,0,0v-38.95c20.43-19.75,47.82-31.82,77.92-31.82s57.49,12.07,77.93,31.82v38.95s0,0,0,0v24.86s38.77,0,38.77,0v42.51Zm-152.05,146.71v-51.08s70.74,0,70.74,0v51.08c-10.54,6.34-22.61,9.85-35.37,9.85s-24.83-3.52-35.36-9.85Zm70.76-193.51v64.5h-70.8l-.02-64.51c10.54-6.35,22.62-9.88,35.41-9.88s24.87,3.53,35.41,9.88Z"></path>
</svg>