<?xml version='1.0' encoding='utf-8'?>
<svg xmlns="http://www.w3.org/2000/svg" id="Vrstva_1" data-name="Vrstva 1" viewBox="0 0 515.45 566.93" width="363.67807" height="400.0">
  <defs>
    <style>
      .cls-1 {
        fill-rule: evenodd;
      }
    </style>
  </defs>
  <path d="m333.71,127.33c0,66.31-53.75,120.07-120.07,120.07s-120.07-53.75-120.07-120.07S147.33,7.27,213.64,7.27s120.07,53.75,120.07,120.07Z" fill="#F54C4C"></path>
  <path d="m7.81,487.53c0-113.68,92.15-205.83,205.83-205.83,30.23,0,58.94,6.52,84.8,18.22-52.28,14.91-83.73,64.68-83.73,111.91,0,30.36,11.34,56.54,22.69,75.7H7.81Z" fill="#F54C4C"></path>
  <path class="cls-1" d="m389.94,396.4c12.46-24.68,32.3-42.16,58.85-42.16,35.63,0,58.85,29.91,58.85,58.85,0,18.77-8.3,36.96-18.51,52.56-10.39,15.87-23.94,30.85-37.03,43.57-13.15,12.79-26.24,23.69-36,31.37-4.9,3.85-8.99,6.92-11.88,9.04-1.45,1.06-2.59,1.89-3.39,2.46l-10.89,7.58-10.89-7.58c-.8-.57-1.95-1.4-3.39-2.46-2.89-2.12-6.98-5.19-11.88-9.04-9.76-7.68-22.85-18.58-36-31.37-13.08-12.72-26.64-27.7-37.03-43.57-10.21-15.6-18.51-33.79-18.51-52.56,0-28.93,23.22-58.85,58.85-58.85,26.55,0,46.39,17.48,58.85,42.16Z" fill="#F54C4C"></path>
</svg>