<?xml version='1.0' encoding='utf-8'?>
<svg xmlns="http://www.w3.org/2000/svg" id="Vrstva_1" data-name="Vrstva 1" viewBox="0 0 453.24 566.93" width="319.78552" height="400.0">
  <defs>
    <style>
      .cls-1 {
        fill-rule: evenodd;
      }
    </style>
  </defs>
  <path class="cls-1" d="m329.37,198.96c-5.93,0-11.62,1.02-16.9,2.88V46.85H42.04v436.84H5.56v36.4h343.27v-36.54h-36.36v-233.88c0-9.33,7.57-16.9,16.9-16.9s16.9,7.57,16.9,16.9v152.11c0,28,22.7,50.7,50.7,50.7s50.7-22.7,50.7-50.7v-226.72l-55.65-55.65-23.9,23.9,45.75,45.75v212.72c0,9.33-7.57,16.9-16.9,16.9s-16.9-7.57-16.9-16.9v-152.11c0-28-22.7-50.7-50.7-50.7Zm-165.16,175.85l97.55-112.3h-74.3l34.03-70.33h-31.19l-97.55,112.3h74.3l-34.03,70.33h31.19Z" fill="#FFCE63"></path>
</svg>