<?xml version='1.0' encoding='utf-8'?>
<!-- Generator: Adobe Illustrator 27.2.0, SVG Export Plug-In . SVG Version: 6.00 Build 0)  --><svg xmlns="http://www.w3.org/2000/svg" xmlns:xlink="http://www.w3.org/1999/xlink" version="1.1" id="Vrstva_1" x="0px" y="0px" viewBox="0 0 615.4 566.9" style="enable-background:new 0 0 615.4 566.9;" xml:space="preserve" width="434.22122" height="400.0">
<path d="M344.8,59.2c29.5,0,57.5,4.6,78.9,17.4c21.4,12.8,37.7,30.4,48.8,52.6c11.1,22.3,16.7,47.3,16.7,75.1  c0,27.4-5.6,52.2-16.7,74.5c-10.7,22.3-26.7,39.8-48.1,52.6c-21.4,12.8-47.1,19.3-77,19.3h-60.8v161.3h-90.6V59.2H344.8z   M337.1,275.6c20.1,0,35.3-6.2,45.6-18.6c10.3-12.8,15.4-30.4,15.4-52.6c0-21.8-5.3-38.9-16-51.4c-10.3-12.4-25.2-18.6-44.9-18.6  h-50.5v141.2H337.1z"></path>
</svg>