<?xml version='1.0' encoding='utf-8'?>
<!-- Generator: Adobe Illustrator 27.2.0, SVG Export Plug-In . SVG Version: 6.00 Build 0)  --><svg xmlns="http://www.w3.org/2000/svg" xmlns:xlink="http://www.w3.org/1999/xlink" version="1.1" id="Vrstva_1" x="0px" y="0px" viewBox="0 0 681.4 566.9" style="enable-background:new 0 0 681.4 566.9;" xml:space="preserve" width="480.79025" height="400.0">
<g>
	<path d="M339,22C194.5,22,77.5,139,77.5,283.5S194.5,545,339,545s261.4-117,261.4-261.5C602.2,138.9,483.4,22,339,22L339,22L339,22   z M339,508.4c-124.4,0-224.9-100.5-224.9-224.9S214.6,58.5,339,58.5s224.9,100.5,224.9,224.9S463.4,508.4,339,508.4L339,508.4z" fill="#F54C4C"></path>
	<path d="M128.5,73.2l-25.7-25.5C40.8,109.9,4.2,199.4,4.2,285.3S40.8,460.9,102.9,523l25.7-25.7c-54.7-54.7-87.8-133.6-87.8-212.2   S73.6,128.2,128.5,73.2L128.5,73.2z" fill="#F54C4C"></path>
	<path d="M578.5,45.8l-25.7,25.7c54.7,54.7,87.8,133.6,87.8,212.2S607.7,439,552.9,495.8l25.7,25.7c62.1-62.1,98.7-151.9,98.7-237.7   S638.8,108,578.5,45.8L578.5,45.8z" fill="#F54C4C"></path>
	<path d="M395.6,164.6c-12.8-7.4-27.5-10.9-44-10.9h-87.8v261.5h51.4v-91.5h36.6c18.3,0,32.9-3.7,44-10.9   c12.8-7.4,22-18.3,27.5-31.1c7.4-12.8,9.2-27.5,9.2-44s-3.7-31.1-9.2-44C417.6,181.1,408.3,172,395.6,164.6L395.6,164.6   L395.6,164.6z M371.7,268.9c-5.5,7.4-14.6,10.9-25.7,10.9H315v-82.2h29.4c10.9,0,20.1,3.7,25.7,10.9c5.5,7.4,9.2,16.4,9.2,29.4   C381,250.7,379.1,261.5,371.7,268.9L371.7,268.9L371.7,268.9z" fill="#F54C4C"></path>
</g>
</svg>