<?xml version='1.0' encoding='utf-8'?>
<!-- Generator: Adobe Illustrator 27.2.0, SVG Export Plug-In . SVG Version: 6.00 Build 0)  --><svg xmlns="http://www.w3.org/2000/svg" xmlns:xlink="http://www.w3.org/1999/xlink" version="1.1" id="Vrstva_1" x="0px" y="0px" viewBox="0 0 649.7 566.9" style="enable-background:new 0 0 649.7 566.9;" xml:space="preserve" width="458.42297" height="400.0">
<style type="text/css">
	.st0{fill-rule:evenodd;clip-rule:evenodd;}
</style>
<g>
	<path class="st0" d="M4.4,8.8H112c21.2,0,39.7,4.7,55.5,14c15.8,9,27.8,21.4,36.2,37.2s12.6,33.5,12.6,53.1s-4.2,37.3-12.6,53.1   c-8,15.8-20.1,28.1-36.2,37.2c-15.8,9-34.6,13.5-56.5,13.5H61.8v112.4H4.4V8.8z M105.8,166.6c16.7,0,29.3-4.8,37.6-14.5   c8.7-9.6,13-22.7,13-39.1s-4.3-29.3-13-38.6c-8.7-9.7-21.2-14.5-37.6-14.5H61.8v106.6L105.8,166.6L105.8,166.6z M498.7,237.7h41.2   l68.7,228.9H430.1L498.7,237.7L498.7,237.7z M393.5,558.1h251.7v-45.8H393.5L393.5,558.1L393.5,558.1z M455.6,137   c0,116.4-62,218.4-154.7,274.8l-23.1-34.2c81.8-49,136.5-138.4,136.5-240.6L455.6,137L455.6,137z M377.3,139   c0,88.9-48.2,166.6-120,208.3L234.2,313c60.8-34.2,101.9-99.3,101.9-174v-2h41.2V139z M297.9,137.9c0,61.6-35.2,115-86.6,141.1   l-23.3-34.5c40.5-18.4,68.6-59.2,68.6-106.6V137h41.2L297.9,137.9L297.9,137.9z" fill="#FFCE63"></path>
</g>
</svg>