<?xml version='1.0' encoding='utf-8'?>
<svg xmlns="http://www.w3.org/2000/svg" id="Vrstva_1" data-name="Vrstva 1" viewBox="0 0 676.07 566.93" width="477.0042" height="400.0">
  <defs>
    <style>
      .cls-1 {
        fill-rule: evenodd;
      }
    </style>
  </defs>
  <path class="cls-1" d="m622.58,20.93v-.04s48.22,0,48.22,0c.09,4.58.2,9.56.32,14.92,1.2,53.95,3.24,145.67-5.34,243.14-7.83,88.99-24.71,186.52-61.14,267.09h-281.96c31.88-30.19,68.3-71.77,103.05-121.61,9.45-13.55,18.81-27.76,27.94-42.56h-57.26c-3.38,5.08-6.79,10.07-10.22,14.99-34.85,49.98-71.11,90.68-101.41,118.62-14.71,13.57-27.65,23.79-38.04,30.57H3.84v-24.2c14.56-8.95,30.57-19.47,47.66-31.45,50.22-35.21,107.76-81.59,162.07-134.01,54.39-52.48,104.98-110.48,141.83-168.84,37.05-58.69,58.85-115.65,58.85-166.61h104.14c0,33.28-3.47,66.21-9.7,98.43h49.03c5.7-32.14,8.87-65.05,8.87-98.43h55.98Zm-80.16,164.06c-13.34,46.26-31.37,90.33-51.99,131.23h-54.4c22.12-40.75,41.6-84.9,56.05-131.23h50.33Z"></path>
</svg>