<?xml version='1.0' encoding='utf-8'?>
<svg xmlns="http://www.w3.org/2000/svg" id="Vrstva_1" data-name="Vrstva 1" viewBox="0 0 922.45 566.93" width="650.83875" height="400.0">
  <path d="m791.75,459.78c-13.77,3.28-38.04-69.18-38.04-69.18-31.66,11.01-179.37,15.89-208.84,15.89s-173.7-2.39-205.36-13.42l-13.21,66.71s-80.37-4.4-91.28-6.62c-10.89-2.22,9.77-43.48,25.04-65.63,15.27-22.14,1.29-28.54,1.29-28.54C180.61,347.57,6.09,243.67,6.09,195.61c0-18.92,41.93-43.9,90.11-43.9,100.11,0,162.24,95.65,174.69,95.65s22.51-6.62,27.26-14.34c50.27-81.73,149.63-125.99,252.98-125.99,128.04,0,238.35,75.95,288.35,185.28,0,0,6.74,1.58,19.21,1.58s58.17-1.58,58.17-1.58c0,0,8.47,11.35-8.07,21.32,0,0-48.95,35.46-68.36,39.06-19.42,3.58,5.46,30.99,5.46,30.99,0,0,45.48,68.97,25.04,70.04-20.45,1.08-79.16,6.04-79.16,6.04Z" fill="#F54C4C"></path>
</svg>