<?xml version='1.0' encoding='utf-8'?>
<svg xmlns="http://www.w3.org/2000/svg" id="Vrstva_1" data-name="Vrstva 1" viewBox="0 0 405.03 566.93" width="285.77072" height="400.0">
  <defs>
    <style>
      .cls-1 {
        fill-rule: evenodd;
      }
    </style>
  </defs>
  <path d="m191.43,233.3h37.57l11.51-11.41h45.17v14.99h-22.59l-15.08,15.25h-75.57l-15.11-15.11h-22.66v-15.13h45.35l11.41,11.41Z"></path>
  <path d="m157.12,147.14c34.98-4.75,70.92-4.74,105.9,0l14.33,29.46h-134.55l14.31-29.47Z"></path>
  <path class="cls-1" d="m397.96,389.03h-14.03c-26.67,0-48.29,21.63-48.29,48.3,0,26.67,21.62,48.29,48.29,48.3h14.03v32.37h0s-312.71,0-312.71,0c-43.17,0-78.17-35.01-78.17-78.19V140.14c0-50.37,40.84-91.21,91.21-91.21h299.67v340.1Zm-309.88,0c-26.67,0-48.29,21.63-48.29,48.3,0,26.67,21.62,48.3,48.29,48.3h231.24c-10.08-13.46-16.05-30.18-16.05-48.3s5.97-34.84,16.06-48.31H88.07ZM282.63,120.64c-48.21-7.92-96.91-7.92-145.12,0l-18.29,37.67h-26.37v29.22h12.18l-12.19,25.09v82.31c0,17.76,13.29,30.41,30.41,30.41h3.88c15.84,0,28.85-12.12,30.28-27.59h105.33c1.42,15.47,14.44,27.59,30.28,27.59h3.94c16.79,0,30.4-13.62,30.4-30.41l.02-82.31-12.2-25.08h11.41v-29.22h-25.63l-18.33-37.67Z"></path>
</svg>