<?xml version='1.0' encoding='utf-8'?>
<svg xmlns="http://www.w3.org/2000/svg" id="Vrstva_1" data-name="Vrstva 1" viewBox="0 0 709.14 566.93" width="500.3369" height="400.0">
  <path d="m441.39,21.06l.37,6.32c8.55,143.94-80.56,277.53-171.99,375.77-54.71,58.78-112.64,107.45-157.21,141.35l-1.79,1.38H4.5l18.66-12.32c36.07-23.8,122.8-86.74,202.2-172.04,90.01-96.7,163.8-214.83,155.57-333.26l-.51-7.18h60.97Zm67.82,333.01l-5.05,9.78c-6.73,13.04-13.87,25.74-21.34,38.06-33.39,55.04-74.23,103.7-116.5,142.2l-1.91,1.76h-98.91l17.13-12.19c50.48-35.9,105.44-92.85,148.29-163.48,2.55-4.21,5.06-8.47,7.51-12.75l1.93-3.37h68.84ZM667.57,21.06l1.6,4.4c45.8,125.28,44.36,257.12,12.24,369.71-15.4,53.98-38.09,104.29-66.6,147.66l-1.98,3.03h-75.72l8.51-10.85c32.94-42.06,59.99-95.69,77.37-156.63,30.34-106.36,30.11-231.42-17.09-348.1l-3.74-9.23h65.4Zm-105.7,160.56l-1.05,7.63c-6.34,46.25-19.37,90.79-36.95,132.51l-1.73,4.1h-66.81l4.46-9.55c19.04-40.78,33.08-84.2,39.9-128.99l.88-5.7h61.3Zm-9.96-160.56l1.25,5.14c9.85,40.78,13.26,81.27,11.51,120.81l-.29,6.41h-60.88l.35-7.04c1.9-38.48-1.85-77.67-12.6-116.82l-2.33-8.49h62.99Z" fill="#51F093"></path>
</svg>