<?xml version='1.0' encoding='utf-8'?>
<!-- Generator: Adobe Illustrator 27.2.0, SVG Export Plug-In . SVG Version: 6.00 Build 0)  --><svg xmlns="http://www.w3.org/2000/svg" xmlns:xlink="http://www.w3.org/1999/xlink" version="1.1" id="Vrstva_1" x="0px" y="0px" viewBox="0 0 675.4 566.9" style="enable-background:new 0 0 675.4 566.9;" xml:space="preserve" width="476.5567" height="400.0">
<g>
	<path d="M6.5,343.2h64.7c0,30.8,13,40.5,43,40.5c33.6,0,43.3-9.1,43.3-28.9c0-17.3-13.4-25-39-30.8l-24.6-5.8   c-50.6-12-85.2-39-85.2-104s32.2-106,105.5-106c81.3,0,103.7,51.5,103.7,113.7h-62.9c0-25.5-11.2-38.5-39.4-38.5   c-33.2,0-40.5,7.2-40.5,27c0,16.4,9.8,24.6,43.4,32.8l23.1,5.8c47.7,12,83.8,34.7,83.8,102.1s-33.2,107.9-111.3,107.9   C32.5,458.8,6.8,411.1,6.5,343.2L6.5,343.2L6.5,343.2z"></path>
	<path d="M433.4,377.9V453H251.4V113.9h179.2v75.1h-117v59.7h104v69.4h-104v59.7L433.4,377.9L433.4,377.9L433.4,377.9z"></path>
	<path d="M668.9,189.1h-79.5V453h-62.1V189.1h-80.9v-75.1h222.5V189.1L668.9,189.1z"></path>
</g>
</svg>