<?xml version='1.0' encoding='utf-8'?>
<svg xmlns="http://www.w3.org/2000/svg" id="Vrstva_1" data-name="Vrstva 1" viewBox="0 0 559.09 566.93" width="394.46848" height="400.0">
  <defs>
    <style>
      .cls-1 {
        fill-rule: evenodd;
      }
    </style>
  </defs>
  <path class="cls-1" d="m353.48,151.42c12.32-1.25,21.28-2.16,33.89,2.86-9.48-22.2-23.31-42.11-40.42-58.66-13.35,10.64-29.37,21.28-53.38,21.28-12.93,0-17.16-38.51-17.9-63.74-17.13-5.38-35.37-8.29-54.29-8.29-29.94,0-58.18,7.28-83.03,20.15,2.28,4.2,4.68,8.34,7.19,12.1,6.75,10.1,30.06,11.66,40.41,8.53,3.44-1.04,6.43-4.06,9.45-7.12,4.58-4.64,9.27-9.38,15.79-7.5,4.91,1.42,9.56,4.47,13.71,7.39,9.37,6.57,2.22,15.15-5.12,20.26-33.64,23.43-37.44,48.83-41.98,79.07-1.29,8.64-2.65,17.67-4.77,27.16-2.37,10.59-8.37,21.91-21.16,18.58-5-1.3-8.28-5.03-11.59-8.82-2.54-2.9-5.11-5.83-8.5-7.71-7.81-4.34-15.27-4.55-22.76.69-7.75,5.42-12.89,14.11-10.62,23.53,2.2,9.1,6.62,14.99,15.05,19.42,5.72,3,12.56,6.5,19.1,7.08,5.46.48,10.93.8,16.39,1.12h0s0,0,0,0h0c2.2.13,4.39.26,6.59.4l1.19.07c7.75.49,16.23,1.02,23.64,3.01,5.7,1.53,10.72,6.65,14.91,10.92l1.28,1.3c7.34,7.4,15.47,18.08,17.03,28.63,2.03,13.66-4.69,26.34-11.09,38.43-1.76,3.33-3.5,6.61-5.03,9.85-1.15,2.44-2.4,4.89-3.66,7.36h0c-2.8,5.49-5.64,11.07-7.5,16.78-1.18,3.63-2.05,7.32-2.92,11.02h0s0,0,0,0c-.66,2.81-1.32,5.62-2.12,8.39-.42,1.47-.95,3.05-1.61,4.61,13.38,3.16,27.35,4.83,41.7,4.83,20.28,0,39.77-3.34,57.96-9.49,1.25,12.19,4.07,24.01,7.9,35.25-20.77,6.61-42.89,10.17-65.86,10.17-119.5,0-216.37-96.58-216.37-215.71S101.88,8.93,221.38,8.93s215.71,95.92,216.37,214.49h-1.76c-37.68,0-72.18,13.23-99.22,35.27-4.1.85-7.16,1.99-7.16,1.99-16.27,0-37.37-3.72-36.06-35.94.85-20.91,4.98-71.88,36.04-71.88,9.66,0,17.26-.77,23.89-1.44Zm-35.52,229.69c0-1.57.03-3.14.09-4.7.03-.02.05-.03.08-.05,1.49-37.93,20.74-71.27,49.62-91.89,0-.01-.01-.03-.02-.04,18.87-13.45,41.84-21.47,66.67-21.79h0c.55,0,1.1-.01,1.66-.01,65.18,0,118.02,53.05,118.02,118.48,0,84.75-118.02,176.88-118.02,176.88,0,0-88.96-69.45-112.41-143.22-.02.01-.04.02-.07.04-3.57-11.21-5.62-22.52-5.62-33.7Zm-196.51-6.81c-.58-6.31-.43-12.58.17-19.01.12-1.31.43-2.66.73-4.02.67-2.96,1.35-5.97.18-8.77-3.81-9.18-13.08-16.7-20.62-22.84h0l-.38-.31-2.16-1.74c-9.31-7.5-19.13-15.41-21.29-27.8-.51-2.9-.11-5.61.3-8.34.27-1.83.54-3.68.54-5.6,0-4.41-2.03-8.86-3.82-12.79-.42-.93-.83-1.86-1.23-2.77-2.1-4.78-4.1-9.33-7.89-13.18l-1.55-1.59c-3.51-3.6-6.91-7.09-11.16-9.95-2.88-1.94-6.42-3.26-9.98-4.6h0s0,0,0,0c-.71-.27-1.43-.54-2.14-.81,1.82,60.15,33.28,112.86,80.32,144.14Zm360.44,6.04c0,25.25-20.53,45.71-45.85,45.71s-45.85-20.47-45.85-45.71,20.53-45.71,45.85-45.71,45.85,20.46,45.85,45.71Z"></path>
</svg>