<?xml version='1.0' encoding='utf-8'?>
<!-- Generator: Adobe Illustrator 27.2.0, SVG Export Plug-In . SVG Version: 6.00 Build 0)  --><svg xmlns="http://www.w3.org/2000/svg" xmlns:xlink="http://www.w3.org/1999/xlink" version="1.1" id="Vrstva_1" x="0px" y="0px" viewBox="0 0 532.7 566.9" style="enable-background:new 0 0 532.7 566.9;" xml:space="preserve" width="375.86874" height="400.0">
<g>
	<path d="M154.6,325.7c13-13.2,32.4-17.6,49.8-11.2l1.6,0.6l98.6,137.3L200.4,414L84.4,532c-18.3,18.6-48.2,18.8-66.7,0.4   C-0.8,514-1,484,17.3,465.3L154.6,325.7L154.6,325.7z M307.2,346.5l125.5,171.7l-16.2,11.2L400.7,541l-0.4-0.5l-0.2,0.2   L247.2,330.2L307.2,346.5L307.2,346.5z M169.7,20.8c70.9,0,128.4,57.5,128.4,128.5c0,70.9-57.5,128.4-128.4,128.4   c-70.9,0-128.4-57.5-128.4-128.4C41.2,78.4,98.7,20.8,169.7,20.8L169.7,20.8z M399,59.5c31.7,0,56.6,25.1,56.6,56.9   c0,31.9-24.9,56.9-56.6,56.9s-56.6-25.1-56.6-56.9C342.3,84.5,367.3,59.5,399,59.5L399,59.5z" fill="#FFCE63"></path>
	<path d="M452.2,239.2c1.6,10.6-0.4,21.9-6.5,31.8l-64.5,131.5l-60.5-84.2l44.6-96.9c13.5-22.1,42.1-29.2,64.2-16   C442.3,215.4,447,222,452.2,239.2L452.2,239.2z" fill="#FFCE63"></path>
	<path d="M472.2,215.7c-5.8-13.5-12-21.4-23.8-32.4l51-59.8l29.7,25.6L472.2,215.7z" fill="#FFCE63"></path>
</g>
</svg>