<?xml version='1.0' encoding='utf-8'?>
<svg xmlns="http://www.w3.org/2000/svg" id="Vrstva_1" data-name="Vrstva 1" viewBox="0 0 514.56 566.93" width="363.0501" height="400.0">
  <defs>
    <style>
      .cls-1 {
        fill-rule: evenodd;
      }
    </style>
  </defs>
  <path class="cls-1" d="m327.95,155.81c-9-60.53-63.14-107.06-128.59-107.06h-86.6v35.69H4.51v35.69h108.25v107.06H4.51v35.69h108.25v35.69h86.6c65.44,0,119.58-46.53,128.58-107.06h46.42c14.95,0,27.06,11.98,27.06,26.77,0,6.64-2.42,12.67-6.46,17.36-.49.56-1,1.11-1.53,1.63l.04.04-175.35,173.42-.04-.04c-24.89,24.62-26.4,64.73-1.28,89.58,24.63,24.36,64.1,23.4,89.09.16l.02.02,1.46-1.45,202.66-200.43-25.51-25.23-202.66,200.43c-11.75,11.62-29.45,11.25-39.55,1.26-10.06-9.95-10.47-27.35,1.14-38.97l.04.04,178.61-176.65-.14-.14c.15-.17.3-.34.45-.51,9.4-10.9,15.09-25.07,15.09-40.52,0-33.89-27.3-61.48-61.34-62.43v-.03h-48.22Z" fill="#51F093"></path>
</svg>