<?xml version='1.0' encoding='utf-8'?>
<!-- Generator: Adobe Illustrator 27.2.0, SVG Export Plug-In . SVG Version: 6.00 Build 0)  --><svg xmlns="http://www.w3.org/2000/svg" xmlns:xlink="http://www.w3.org/1999/xlink" version="1.1" id="Vrstva_1" x="0px" y="0px" viewBox="0 0 652.4 566.9" style="enable-background:new 0 0 652.4 566.9;" xml:space="preserve" width="460.3281" height="400.0">
<g>
	<polygon points="282.9,472.9 35.3,472.9 35.3,165.5 239.7,165.5 260.6,136.5 154.6,136.5 154.6,56.9 80.1,56.9 80.1,136.5    6.3,136.5 6.3,501.7 278.2,501.7  "></polygon>
	<polygon points="572.4,136.5 572.4,56.9 498,56.9 498,136.5 427.8,136.5 423.3,165.5 617.1,165.5 617.1,472.9 426.7,472.9    406,501.7 646.1,501.7 646.1,136.5  "></polygon>
	<rect x="72.1" y="194.3" width="139.3" height="249.6"></rect>
	<polygon points="478.6,321.6 367.8,220.7 399.8,21.1 238.9,245.5 349.8,346.3 317.7,545.9  "></polygon>
</g>
</svg>