<?xml version='1.0' encoding='utf-8'?>
<svg xmlns="http://www.w3.org/2000/svg" id="Vrstva_1" data-name="Vrstva 1" viewBox="0 0 745.76 566.93" width="526.1743" height="400.0">
  <defs>
    <style>
      .cls-1 {
        fill-rule: evenodd;
      }
    </style>
  </defs>
  <path class="cls-1" d="m372.88,493.77c116.15,0,210.31-94.16,210.31-210.31s-94.16-210.31-210.31-210.31-210.31,94.16-210.31,210.31,94.16,210.31,210.31,210.31Zm0,52.58c145.19,0,262.89-117.7,262.89-262.89S518.07,20.58,372.88,20.58,109.99,138.28,109.99,283.46s117.7,262.89,262.89,262.89ZM112.64,23.22C46.03,89.82,4.84,181.83,4.84,283.47s41.19,193.64,107.8,260.24l37.18-37.18c-57.09-57.09-92.4-135.95-92.4-223.07S92.73,117.49,149.81,60.4l-37.18-37.18Zm483.31,37.18l37.18-37.18c66.6,66.6,107.8,158.61,107.8,260.24s-41.19,193.64-107.8,260.24l-37.18-37.18c57.09-57.09,92.4-135.95,92.4-223.07s-35.31-165.98-92.4-223.07Zm-252.18,65.33v44.81l8.51,172.52h43.47l8.51-172.52v-44.81h-60.49Zm30.25,315.46c16.46,0,29.8-13.34,29.8-29.8v-2.24c0-16.46-13.34-29.8-29.8-29.8s-29.8,13.34-29.8,29.8v2.24c0,16.46,13.34,29.8,29.8,29.8Z" fill="#F54C4C"></path>
</svg>