<?xml version='1.0' encoding='utf-8'?>
<svg xmlns="http://www.w3.org/2000/svg" id="Vrstva_1" data-name="Vrstva 1" viewBox="0 0 851.61 566.93" width="600.85724" height="400.0">
  <defs>
    <style>
      .cls-1 {
        fill-rule: evenodd;
      }
    </style>
  </defs>
  <path d="m18.39,70.02V20.88h92.14v49.14l-13.82,307.12H31.45L18.39,70.02Zm46.84,476.03c-10.24,0-19.71-2.3-28.41-6.91-8.19-5.12-14.84-11.77-19.96-19.96-4.61-8.7-6.91-18.17-6.91-28.41s2.3-18.68,6.91-26.87c5.12-8.19,11.77-14.59,19.96-19.19,8.7-5.12,18.17-7.68,28.41-7.68s18.68,2.56,26.87,7.68c8.19,4.61,14.59,11.01,19.19,19.19,5.12,8.19,7.68,17.15,7.68,26.87,0,10.24-2.56,19.71-7.68,28.41-4.61,8.19-11.01,14.84-19.19,19.96-8.19,4.61-17.15,6.91-26.87,6.91Z"></path>
  <path class="cls-1" d="m186.86,20.88v314.43h183.73v-58.72h-118.86V20.88h-64.87Zm227.15,314.43V20.88h64.88v314.43h-64.88Zm125.54,0V20.88h58.24l94.23,226.35,91.87-226.35h57.77v314.43h-59.19v-170l-70.08,170h-43.09l-70.56-169.05v169.05h-59.19Z"></path>
</svg>