<?xml version='1.0' encoding='utf-8'?>
<svg xmlns="http://www.w3.org/2000/svg" id="Vrstva_1" data-name="Vrstva 1" viewBox="0 0 534.71 566.93" width="377.26706" height="400.0">
  <path d="m96.83,484.65l-60.84,60.84-30.42-30.44,60.84-60.84,30.42,30.44Zm-15.98-379.98C199.24-13.72,520.81,28.84,522.31,29.04c.11.87,41.6,322.94-76.27,440.82-95.67,95.66-247.71,100.56-349.16,14.72l68.22-68.2h228.1v-43.03h-185.07l86.07-86.07h142.02v-43.04h-98.98l106.95-106.95-30.44-30.44-106.64,106.64v-98.35h-43.04v141.4l-86.07,86.07v-184.44h-43.04v227.49l-68.54,68.53C-19.72,352.72-14.91,200.44,80.85,104.67Z"></path>
</svg>