<?xml version='1.0' encoding='utf-8'?>
<!-- Generator: Adobe Illustrator 27.2.0, SVG Export Plug-In . SVG Version: 6.00 Build 0)  --><svg xmlns="http://www.w3.org/2000/svg" xmlns:xlink="http://www.w3.org/1999/xlink" version="1.1" id="Vrstva_1" x="0px" y="0px" viewBox="0 0 543.4 566.9" style="enable-background:new 0 0 543.4 566.9;" xml:space="preserve" width="383.4186" height="400.0">
<style type="text/css">
	.st0{fill:#A0C7A2;}
</style>
<g>
	<g>
		<path d="M312,26.6c-120.8,0-219,98.2-219,219s98.2,219,219,219s219-98.2,219-219S432.8,26.6,312,26.6z M312,453.2    c-114.6,0-207.4-92.8-207.4-207.4S197.4,38.4,312,38.4s207.4,92.8,207.4,207.4S426.4,453.2,312,453.2L312,453.2z"></path>
		<path d="M312,470.1c-123.8,0-224.5-100.7-224.5-224.5S188.2,21.1,312,21.1s224.5,100.7,224.5,224.5S435.8,470.1,312,470.1z     M312,32.1c-117.7,0-213.5,95.8-213.5,213.5S194.3,459.1,312,459.1s213.5-95.8,213.5-213.5S429.7,32.1,312,32.1z M312,458.7    c-56.9,0-110.4-22.1-150.6-62.4s-62.4-93.7-62.4-150.6s22.1-110.4,62.4-150.6C201.6,55,255.1,32.9,312,32.9S422.4,55,462.6,95.2    s62.4,93.7,62.4,150.6C524.9,363.2,429.4,458.7,312,458.7z M312,43.9c-111.3,0-201.9,90.6-201.9,201.9S200.6,447.7,312,447.7    s201.9-90.6,201.9-201.9S423.3,43.9,312,43.9L312,43.9z"></path>
	</g>
	<circle class="st0" cx="75.7" cy="477.1" r="68.8"></circle>
</g>
</svg>