<?xml version='1.0' encoding='utf-8'?>
<svg xmlns="http://www.w3.org/2000/svg" id="Vrstva_1" data-name="Vrstva 1" viewBox="0 0 532.73 566.93" width="375.87006" height="400.0">
  <defs>
    <style>
      .cls-1 {
        fill-rule: evenodd;
      }
    </style>
  </defs>
  <path class="cls-1" d="m419.56,25.81c-11.8-3.08-24.19-4.73-36.96-4.73-80.52,0-145.8,65.27-145.8,145.8,0,20.39,4.19,39.81,11.75,57.44L12.34,460.52c-10.68,10.68-10.68,27.98,0,38.66l38.66,38.66c10.68,10.68,27.99,10.68,38.66,0l236.5-236.49c17.36,7.29,36.43,11.33,56.44,11.33,80.52,0,145.8-65.27,145.8-145.8,0-12.77-1.64-25.16-4.73-36.96l-12.87-12.87-96.19,96.19-77.32-77.32,96.19-96.19-13.91-13.91Z"></path>
</svg>