<?xml version='1.0' encoding='utf-8'?>
<!-- Generator: Adobe Illustrator 27.2.0, SVG Export Plug-In . SVG Version: 6.00 Build 0)  --><svg xmlns="http://www.w3.org/2000/svg" xmlns:xlink="http://www.w3.org/1999/xlink" version="1.2" baseProfile="tiny" id="Vrstva_1" x="0px" y="0px" viewBox="0 0 400 400" overflow="visible" xml:space="preserve" width="400.0" height="400.0">
<g>
	<path d="M173.6,85.4c0-14.6-11.5-26.8-26.8-26.8H84.7c-14.6,0-26.8,11.5-26.8,26.8v62.1c0,14.6,11.5,26.8,26.8,26.8h62.1   c14.6,0,26.8-11.5,26.8-26.8V85.4z"></path>
	<path d="M341.4,85.4c0-14.6-11.5-26.8-26.8-26.8h-62.1c-14.6,0-26.8,11.5-26.8,26.8v62.1c0,14.6,11.5,26.8,26.8,26.8h62.1   c14.6,0,26.8-11.5,26.8-26.8L341.4,85.4L341.4,85.4z"></path>
	<path d="M173.6,253.2c0-14.6-11.5-26.8-26.8-26.8H84.7c-14.6,0-26.8,11.5-26.8,26.8v62.1c0,14.6,11.5,26.8,26.8,26.8h62.1   c14.6,0,26.8-11.5,26.8-26.8V253.2z"></path>
	<path d="M341.4,253.2c0-14.6-11.5-26.8-26.8-26.8h-62.1c-14.6,0-26.8,11.5-26.8,26.8v62.1c0,14.6,11.5,26.8,26.8,26.8h62.1   c14.6,0,26.8-11.5,26.8-26.8L341.4,253.2L341.4,253.2z"></path>
</g>
</svg>