<?xml version='1.0' encoding='utf-8'?>
<svg xmlns="http://www.w3.org/2000/svg" id="Vrstva_1" data-name="Vrstva 1" viewBox="0 0 551.2 566.9" width="388.92218" height="400.0">
  <defs>
    <style>
      .cls-1 {
        fill-rule: evenodd;
      }
    </style>
  </defs>
  <path class="cls-1" d="m160.63,47.25l-19.68,33.96h135.8l-19.56-33.96h-96.56Zm155.29,33.96l-31.79-55.17c-4.54-7.88-12.95-12.74-22.04-12.74h-106.35c-9.08,0-17.46,4.84-22.01,12.69l-32,55.22H5.45v33.96h35.14l26.47,373.51h158.92v-164.77l17.03-9.5v-131.33h33.93v112.4l90.89-50.69,9.65-129.62h35.09v-33.96h-96.66Zm-140.77,101.85h-33.93v203.73h33.93v-203.73h0Zm370.61,169.55l-141.07-80.68-141.07,80.68,141.07,80.68,141.07-80.68Zm-282.14,60.05l26.44-15.12,114.63,65.56,114.63-65.56,26.44,15.12-141.07,80.68-141.07-80.68Zm26.44,45.12l-26.44,15.12,141.07,80.68,141.07-80.68-26.44-15.12-114.63,65.56-114.63-65.56Z"></path>
</svg>