<?xml version='1.0' encoding='utf-8'?>
<!-- Generator: Adobe Illustrator 27.2.0, SVG Export Plug-In . SVG Version: 6.00 Build 0)  --><svg xmlns="http://www.w3.org/2000/svg" xmlns:xlink="http://www.w3.org/1999/xlink" version="1.1" id="Vrstva_1" x="0px" y="0px" viewBox="0 0 533.4 566.9" style="enable-background:new 0 0 533.4 566.9;" xml:space="preserve" width="376.36267" height="400.0">
<g>
	<path d="M266.6,21.8C122.7,21.8,5,139.5,5,283.5s117.7,261.6,261.6,261.6s261.8-117.7,261.8-261.6S412.1,21.8,266.6,21.8z    M266.6,523.3c-132.2,0-238.4-107.6-238.4-239.9S135.8,45.1,266.6,45.1S505,152.6,505,285S398.9,523.3,266.6,523.3L266.6,523.3z"></path>
	<path d="M380.1,364.9l-5.9,16h-21.9c5.9-16,78.5-187.5-64-305.2c-30.5-2.9-61.1,0-88.7,10.1c4.4,4.4,53.9,45.1,77.1,94.4l-7.2,1.5   c-13-14.6-59.5-65.5-103.1-81.5c-23.2,13.1-45.1,30.5-62.5,50.9c20.4,10.1,75.6,43.6,96,68.3c-1.5,0-5.9,2.9-5.9,2.9   C156.2,193.2,89.3,178.7,85,177.2c-13.1,23.2-23.2,50.8-26.1,78.5c104.7,20.4,132.3,69.9,136.7,123.6h-20.4l-33.5-14.4   c-1.5,0-4.4-1.5-5.9-1.5h-61c10.1,23.2,24.7,45.1,42.1,64H143c2.9,0,4.4,0,5.9-1.5l27.6-14.5h197.7l5.9,16c24.7-2.9,48-14.5,64-32   C428,379.4,404.8,367.8,380.1,364.9L380.1,364.9z M304.5,357.5c-14.5,0-26.1-11.6-26.1-26.1s11.6-26.1,26.1-26.1   s26.1,11.6,26.1,26.1S319,357.5,304.5,357.5L304.5,357.5z"></path>
</g>
</svg>