<?xml version='1.0' encoding='utf-8'?>
<!-- Generator: Adobe Illustrator 27.2.0, SVG Export Plug-In . SVG Version: 6.00 Build 0)  --><svg xmlns="http://www.w3.org/2000/svg" xmlns:xlink="http://www.w3.org/1999/xlink" version="1.1" id="Vrstva_1" x="0px" y="0px" viewBox="0 0 523.4 566.9" style="enable-background:new 0 0 523.4 566.9;" xml:space="preserve" width="369.30676" height="400.0">
<g>
	<path d="M262.2,72.4c56.4,0,109.4,22,149.2,61.8c39.9,39.9,61.8,92.9,61.8,149.3s-22,109.4-61.8,149.2   c-39.9,39.9-92.9,61.8-149.2,61.8s-109.4-22-149.2-61.8c-39.9-39.9-61.8-92.9-61.8-149.2s22-109.4,61.8-149.3   C152.8,94.3,205.8,72.4,262.2,72.4 M262.2,26.9C120.5,26.9,5.6,141.8,5.6,283.5S120.5,540,262.2,540s256.6-114.9,256.6-256.6   C518.8,141.7,403.9,26.9,262.2,26.9L262.2,26.9L262.2,26.9z"></path>
	<g>
		<path d="M394.9,285.7c-4.2-19.8-25.6-31.7-63.5-35.2c-24.9-2.3-48.5-0.4-49.5-0.3l-73.5,7.8l-4-17.2l-75.5,53.5l89.5,6.2    l-4.4-18.8l70-7.4c38.3-3.2,82.9,2.5,87,15.9c-2,3.5-13.3,9.5-23.6,12.5l6.7,23.3C362,323.8,400.5,311.4,394.9,285.7L394.9,285.7    L394.9,285.7z"></path>
		<path d="M350.8,332.3l-9.5-32.9l4.8-1.4c7.9-2.3,15-6,18.5-8.4c-3-2.6-10.3-6.1-25-8.5c-16.1-2.6-36.2-3.3-55-1.7l-64.3,6.8    l4.7,19.8l-110.2-7.7l93-65.9l4.7,20.1l69.2-7.3c2.5-0.2,25.6-2,50.4,0.3c40.3,3.8,63.2,17,68,39.2l0,0    c5,23.3-19.6,39.1-44.3,46.2L350.8,332.3L350.8,332.3z M353.6,306l4,13.8c11.2-3.9,36.4-14.9,32.5-33l0,0    c-3.7-17.4-23.6-28-59.1-31.3c-24-2.2-47-0.4-48.6-0.3l-77.8,8.2l-3.3-14.2l-58,41.1l68.8,4.8l-4.1-17.7l75.8-8    c19.7-1.6,40.6-1,57.6,1.8c20.4,3.4,32.1,9.3,34.6,17.6l0.6,2.1l-1.1,1.9C372.6,297.6,362.1,302.9,353.6,306L353.6,306z"></path>
	</g>
</g>
</svg>