<?xml version='1.0' encoding='utf-8'?>
<svg xmlns="http://www.w3.org/2000/svg" id="Vrstva_1" version="1.1" viewBox="0 0 388.35 400" width="388.35" height="400.0">
  <!-- Generator: Adobe Illustrator 30.4.0, SVG Export Plug-In . SVG Version: 2.1.4 Build 226)  -->
  <path d="M213.6,373.51c-8.16,15.76-30.7,15.76-38.85,0L5.64,46.58c-7.53-14.56,3.04-31.91,19.43-31.91h338.2c16.39,0,26.95,17.36,19.42,31.92l-169.1,326.93h0Z" fill="#8bc8a2"></path>
  <path d="M18.6,39.88l169.1,326.93c2.72,5.26,10.23,5.26,12.95,0L369.75,39.88c2.51-4.85-1.02-10.64-6.48-10.64H25.08c-5.46,0-8.98,5.79-6.48,10.64ZM174.75,373.51c8.16,15.76,30.7,15.76,38.85,0L382.7,46.59c7.53-14.56-3.03-31.92-19.42-31.92H25.08C8.69,14.67-1.88,32.03,5.65,46.59l169.1,326.93h0Z" fill="#fff" fill-rule="evenodd"></path>
  <path d="M194.18,290.58L80.02,69.88h228.31l-114.16,220.7h.01Z" fill="#fff"></path>
</svg>