<?xml version='1.0' encoding='utf-8'?>
<!-- Generator: Adobe Illustrator 27.2.0, SVG Export Plug-In . SVG Version: 6.00 Build 0)  --><svg xmlns="http://www.w3.org/2000/svg" xmlns:xlink="http://www.w3.org/1999/xlink" version="1.1" id="Vrstva_1" x="0px" y="0px" viewBox="0 0 555.4 566.9" style="enable-background:new 0 0 555.4 566.9;" xml:space="preserve" width="391.8857" height="400.0">
<style type="text/css">
	.st0{fill-rule:evenodd;clip-rule:evenodd;}
</style>
<g>
	<path d="M257.7,147.5c1.4-4.4,1.4-8.5,1.4-12.8s0-8.5-1.4-12.8c-5.8-28.6-31.4-50.2-61.5-50.2s-55.7,21.5-61.5,50.1h-1.4V21.7   c-4.4-1.4-8.5-1.4-12.8-1.4s-8.5,0-12.8,1.4C78.9,27.4,57.3,53,57.3,83.2s21.5,55.7,50.2,61.5v1.4H7.1c-1.4,4.4-1.4,8.5-1.4,12.8   s0,8.5,1.4,12.8c5.8,28.6,31.4,50.2,61.5,50.2s55.7-21.5,61.5-50.2h1.4v100.3c4.4,1.4,8.5,1.4,12.8,1.4s8.5,0,12.8-1.4   c28.6-5.8,50.2-31.4,50.2-61.5s-21.5-55.7-50.2-61.5v-1.4L257.7,147.5L257.7,147.5z"></path>
	<path d="M486.6,171.9c-35.8,0-63-27.2-63-63s27.2-62.9,63-62.9s63,27.2,63,63C551,144.8,522.4,171.9,486.6,171.9z"></path>
	<path class="st0" d="M498.1,210.6c21.5,12.8,27.2,40,14.3,61.5L410.9,436.6c-11.4,18.6-33,25.7-53,18.6l-113.2-41.5L126,533.7   c-17.2,17.2-45.8,17.2-63,0s-17.2-45.8,0-63l139-141.7c12.8-12.8,30-15.8,47.2-10l105.9,38.7l81.6-134.6   C449.4,204.8,476.5,197.6,498.1,210.6L498.1,210.6z"></path>
</g>
</svg>