<?xml version='1.0' encoding='utf-8'?>
<svg xmlns="http://www.w3.org/2000/svg" id="Vrstva_1" data-name="Vrstva 1" viewBox="0 0 532.73 566.93" width="375.87006" height="400.0">
  <defs>
    <style>
      .cls-1 {
        fill-rule: evenodd;
      }
    </style>
  </defs>
  <path class="cls-1" d="m135.04,68.36c11.02-6.38,23.81-10.03,37.52-10.03s26.5,3.66,37.52,10.03l18.79-32.48c-16.58-9.59-35.83-15.08-56.31-15.08s-39.73,5.48-56.31,15.08l18.79,32.48Zm-37.53,65.01c0-13.7,3.66-26.5,10.03-37.52l-32.48-18.79c-9.59,16.58-15.08,35.83-15.08,56.31v18.76h37.52v-18.76Zm150.09,412.76v-51.59h37.52v51.59h-37.52Zm37.52-203.57h-37.52v-65.67h37.52v65.67Zm0-98.5h-37.52v-35.28c-70.59,2.82-124.32,21.24-160.77,39.23-17.13,8.45-30.49,16.83-39.98,23.48l25.67,87.02h28.72c0,22.8,18.48,41.28,41.28,41.28s41.28-18.48,41.28-41.28h41.31c0,22.79,18.48,41.28,41.28,41.28s41.28-18.48,41.28-41.28h41.23c0,22.79,18.48,41.28,41.28,41.28s41.28-18.48,41.28-41.28h28.83s25.45-86.14,25.45-86.14c-10.04-6.82-24.09-15.42-41.88-24.09-37.29-18.16-90.89-36.53-158.71-39.46v35.24Zm10.03-148.21c-6.38,11.02-10.03,23.81-10.03,37.52h-37.52c0-13.7-3.66-26.5-10.03-37.52l28.79-16.66,28.79,16.66Zm140.06,56.28h37.52v-18.76c0-20.48-5.48-39.73-15.08-56.31l-32.48,18.79c6.38,11.02,10.03,23.81,10.03,37.52v18.76Zm-112.56-83.78c11.02-6.38,23.81-10.03,37.52-10.03s26.5,3.66,37.52,10.03l18.79-32.48c-16.58-9.59-35.83-15.08-56.31-15.08s-39.73,5.48-56.31,15.08l18.79,32.48Zm-243.91,443.84s12.35-7.51,34.25-16.52c26.18-10.77,66-23.69,114.68-28.48,8.54-.84,17.35-1.43,26.4-1.71,4.05-.13,8.14-.19,12.28-.19,8.29,0,16.38.26,24.27.75,97.35,6.02,163.34,46.15,163.34,46.15l75.05-254s-95.8-87.3-262.73-87.3S3.7,257.84,3.7,257.84l29.7,100.67,45.34,153.68Z" fill="#FFCE63"></path>
</svg>