<?xml version='1.0' encoding='utf-8'?>
<!-- Generator: Adobe Illustrator 27.2.0, SVG Export Plug-In . SVG Version: 6.00 Build 0)  --><svg xmlns="http://www.w3.org/2000/svg" xmlns:xlink="http://www.w3.org/1999/xlink" version="1.1" id="Vrstva_1" x="0px" y="0px" viewBox="0 0 539.4 566.9" style="enable-background:new 0 0 539.4 566.9;" xml:space="preserve" width="380.59622" height="400.0">
<style type="text/css">
	.st0{fill:#BABBBB;}
	.st1{fill:#A0C7A2;}
</style>
<g>
	<path class="st0" d="M247.8,20.9C115.1,20.9,6.5,129.3,6.5,262.2s108.4,241.3,241.3,241.3s241.3-108.5,241.3-241.3   C490.4,129.3,382,20.9,247.8,20.9L247.8,20.9L247.8,20.9z"></path>
	<circle class="st1" cx="247.8" cy="262" r="190.3"></circle>
	<path d="M466.3,413.8c-36.8,0-66.6,29.8-66.6,66.6s29.8,66.6,66.6,66.6s66.6-29.8,66.6-66.6S503.1,413.8,466.3,413.8L466.3,413.8z    M466.3,536.3c-30.7,0-55.8-25-55.8-55.8s25-55.8,55.8-55.8s55.8,25,55.8,55.8S497.2,536.3,466.3,536.3z"></path>
</g>
</svg>