<?xml version='1.0' encoding='utf-8'?>
<svg xmlns="http://www.w3.org/2000/svg" id="Vrstva_1" data-name="Vrstva 1" viewBox="0 0 592.78 566.93" width="418.23862" height="400.0">
  <defs>
    <style>
      .cls-1 {
        fill-rule: evenodd;
      }
    </style>
  </defs>
  <path class="cls-1" d="m117.63,7.02H9.33v322.48h57.79v-113.16h49.54c22.02,0,40.96-4.53,56.82-13.6,16.19-9.07,28.33-21.53,36.42-37.4,8.42-15.86,12.63-33.67,12.63-53.42s-4.21-37.56-12.63-53.42c-8.42-15.86-20.56-28.33-36.42-37.4-15.87-9.39-34.48-14.08-55.85-14.08Zm31.57,144.24c-8.42,9.71-21.04,14.57-37.88,14.57h-44.2V58.51h44.2c16.51,0,29.14,4.86,37.88,14.57,8.74,9.39,13.11,22.34,13.11,38.85s-4.37,29.63-13.11,39.34Zm223.17,50.2c-77.76,0-142.95,53.78-160.41,126.17,25.87-5.06,84.02-14.41,160.65-14.41s134.03,9.23,160.15,14.32c-17.49-72.34-82.66-126.07-160.39-126.07Zm-74.23,312.37c-47.5-23.97-81.76-70.17-89.24-124.82l92.98,28.79,17.58,35.16c35.16,17.58,70.33,17.58,105.49,0l17.58-35.16,93.32-28.86c-7.46,54.69-41.72,100.91-89.25,124.89h-148.47Zm158.72,46.07c74.51-32.58,126.58-106.94,126.58-193.46,0-116.56-94.5-211.05-211.07-211.05s-211.07,94.49-211.07,211.05c0,86.52,52.07,160.88,126.58,193.46h168.98Z"></path>
</svg>