<?xml version='1.0' encoding='utf-8'?>
<svg xmlns="http://www.w3.org/2000/svg" id="Vrstva_1" data-name="Vrstva 1" viewBox="0 0 500.63 566.93" width="353.22174" height="400.0">
  <defs>
    <style>
      .cls-1 {
        fill-rule: evenodd;
      }
    </style>
  </defs>
  <path class="cls-1" d="m55.12,19.46c-27.59,0-49.95,22.22-49.95,49.63s22.36,49.63,49.95,49.63,49.95-22.22,49.95-49.63-22.36-49.63-49.95-49.63ZM5.17,208.05c0-27.41,22.36-49.63,49.95-49.63s49.95,22.22,49.95,49.63-22.36,49.63-49.95,49.63S5.17,235.46,5.17,208.05Zm0,138.96c0-27.41,22.36-49.63,49.95-49.63s49.95,22.22,49.95,49.63-22.36,49.63-49.95,49.63-49.95-22.22-49.95-49.63ZM284.89,69.09c0-27.41,22.36-49.63,49.95-49.63s49.95,22.22,49.95,49.63-22.36,49.63-49.95,49.63-49.95-22.22-49.95-49.63Zm49.95,89.34c-27.59,0-49.95,22.22-49.95,49.63,0,11.12,3.68,21.38,9.9,29.66,10.13-2.12,20.62-3.24,31.36-3.24,15.89,0,31.23,2.44,45.65,6.97,8.07-8.82,12.99-20.53,12.99-33.39,0-27.41-22.36-49.63-49.95-49.63Zm-139.86,138.96c2.66,0,5.27.21,7.81.6-16.75,23.73-26.6,52.57-26.6,83.83,0,3.83.15,7.62.44,11.38-18.51-7.27-31.61-25.2-31.61-46.18,0-27.41,22.36-49.63,49.95-49.63Zm41.53,22.04s0,0,0,0c-7.22,9.92-12.77,21.09-16.23,33.12-2.68,9.31-4.12,19.13-4.12,29.27,0,3.35.16,6.67.46,9.94,0,0,0,0,0,0,5.13,54.79,52.21,97.69,109.53,97.69,23.15,0,44.63-7,62.36-18.96l78.66,76.98,28.3-27.69-78.67-76.98c12.2-17.34,19.34-38.34,19.34-60.98,0-59.45-49.25-107.64-109.99-107.64-36.98,0-69.71,17.86-89.65,45.25Zm-91.48,166.56c0-24.72,18.2-45.23,42.01-49.01,11.18,27.22,30.39,50.32,54.67,66.6-7.14,18.73-25.37,32.04-46.72,32.04-27.59,0-49.95-22.22-49.95-49.63Zm0-416.89c0-27.41,22.36-49.63,49.95-49.63s49.95,22.22,49.95,49.63-22.36,49.63-49.95,49.63-49.95-22.22-49.95-49.63Zm49.95,89.34c-27.59,0-49.95,22.22-49.95,49.63s22.36,49.63,49.95,49.63,49.95-22.22,49.95-49.63-22.36-49.63-49.95-49.63Zm201.15,223.39c0,37.82-31.33,68.47-69.97,68.47s-69.97-30.66-69.97-68.47,31.33-68.47,69.97-68.47,69.97,30.66,69.97,68.47Z"></path>
</svg>