<?xml version='1.0' encoding='utf-8'?>
<!-- Generator: Adobe Illustrator 27.2.0, SVG Export Plug-In . SVG Version: 6.00 Build 0)  --><svg xmlns="http://www.w3.org/2000/svg" xmlns:xlink="http://www.w3.org/1999/xlink" version="1.1" id="Vrstva_1" x="0px" y="0px" viewBox="0 0 479.4 566.9" style="enable-background:new 0 0 479.4 566.9;" xml:space="preserve" width="338.2607" height="400.0">
<style type="text/css">
	.st0{fill-rule:evenodd;clip-rule:evenodd;}
</style>
<path class="st0" d="M195.5,49.8c55.1,0,100.9,40.2,109.6,92.8h74.8c37,0,64.3,18.8,79.7,44.7c7.5,12.7,12.1,27.2,13.5,42  c1.4,14.8-0.5,30-5.8,44.2c-10.9,28.9-35.7,53.3-76.6,61.1l-128.4,24.7c-24.7,4.7-40.2,20.1-46.9,38.3c-3.4,9.2-4.6,19-3.8,28.7  c0.9,9.5,3.8,18.8,8.7,26.9c9.6,15.8,27.5,27.2,53.6,27.2h191.3v36.6H273.9c-40.5,0-68.9-18.8-84.8-44.8  c-7.9-12.9-12.5-27.7-13.9-42.8c-1.3-15,0.6-30.3,5.8-44.4c10.8-29.4,35.5-54.2,74.4-61.6l128.4-24.7c26.7-5.1,42.6-20.3,49.3-38.1  c3.3-8.9,4.5-18.6,3.6-28c-0.9-9.4-3.8-18.6-8.6-26.7c-9.2-15.5-25.7-26.7-48.2-26.7h-74.8c-8.7,52.7-54.5,92.8-109.6,92.8h-97  v-44.4H5.9v-36.6h92.6v-60.3H5.9V94.2h92.6V49.8L195.5,49.8L195.5,49.8z" fill="#51F093"></path>
</svg>