<?xml version='1.0' encoding='utf-8'?>
<!-- Generator: Adobe Illustrator 27.2.0, SVG Export Plug-In . SVG Version: 6.00 Build 0)  --><svg xmlns="http://www.w3.org/2000/svg" xmlns:xlink="http://www.w3.org/1999/xlink" version="1.1" id="Vrstva_1" x="0px" y="0px" viewBox="0 0 392.4 566.9" style="enable-background:new 0 0 392.4 566.9;" xml:space="preserve" width="276.8742" height="400.0">
<g>
	
		<ellipse transform="matrix(7.088899e-02 -0.9975 0.9975 7.088899e-02 -499.5146 526.6858)" cx="33" cy="531.5" rx="28.6" ry="28.6"></ellipse>
	<path d="M83.6,544.9v-27c107.3,0,163.8-26.2,169.4-44.8c0.9-3.4,0.5-5.1-0.7-7c-3.3-4.9-17.3-16.9-77.3-22.9   c-61.3-6.2-94.1-17.3-106.3-36c-4.1-6.3-7.9-16.8-3.4-31.1c9.9-30.5,64.7-47.2,154.3-47.2v27c-97.8,0-126,20.7-128.6,28.6   c-1.6,5-0.3,7,0.3,7.9c4,6.1,20.4,17.3,86.5,23.7c53.9,5.4,84.6,16.5,96.9,34.8c5.8,9,7.2,19.2,4.1,29.9   C267,519.7,190.4,544.9,83.6,544.9L83.6,544.9L83.6,544.9z"></path>
	<path d="M387,133L387,133C375.1,221,278.5,360.9,278.5,360.9S181.8,220.8,170,133l0,0c-0.8-5.4-1.3-10.9-1.3-16.5   c0-60.6,49-109.7,109.7-109.7S388,55.9,388,116.5C388,122.3,387.8,127.7,387,133L387,133z M333.2,61.9H223.9v109.3h109.3   C333.2,171.3,333.2,61.9,333.2,61.9z"></path>
</g>
</svg>