<?xml version='1.0' encoding='utf-8'?>
<!-- Generator: Adobe Illustrator 27.2.0, SVG Export Plug-In . SVG Version: 6.00 Build 0)  --><svg xmlns="http://www.w3.org/2000/svg" xmlns:xlink="http://www.w3.org/1999/xlink" version="1.1" id="Vrstva_1" x="0px" y="0px" viewBox="0 0 545.4 566.9" style="enable-background:new 0 0 545.4 566.9;" xml:space="preserve" width="384.82977" height="400.0">
<g>
	<path d="M365.9,241.9l53.5-62l118.5,379.9H7.9l111.4-259.9l49.9,49.1L293.4,11.3L365.9,241.9L365.9,241.9z M291.4,80.2L178.5,388   l-51.9-49.7L41.8,537.5h466L410,224.3l-52.7,62.4L291.4,80.2L291.4,80.2L291.4,80.2z M197.7,425.8l-14.5-14.1l14.1-14.1l14.1,14.1   L197.7,425.8L197.7,425.8z M373.5,420.8c-1.1,5.9-2.9,11.5-5.7,16.6c-2.8,5.1-6.2,9.4-10.4,13.1l11.1,18.5l34.2,8l-4.3,21.3   l-27.8-6.2l-6.8,28.4l-21.6-5.2l8-34l-11.7-19.1c-5.8,2.3-12,3.4-18.5,3.4c-2.7,0-5.3-0.1-7.9-0.5s-4.8-0.7-6.9-1.3l-10.2,16.3   l9.3,34l-21.9,5.6l-7.1-27.4l-27.8,7.1l-5.8-21l34.8-9.3l8.3-16.1c-4.1-3.8-7.7-8.1-11-13.3c-3.1-5.1-5.6-10.8-6.9-16.9h-23.1   l-25.3,24.4l-15.1-15.7l19.7-19.7l-20.3-20.3l15.7-16.1l25.3,25.6H267c1-5.3,2.9-10.4,5.6-15.1c2.7-4.7,5.8-9.1,9.3-12.9   l-12.1-20.3l-34.2-7.4l5.6-22.2l27.2,6.8l6.8-28.4l21.6,5.2l-8,34.6l12.3,20.1c2.9-1,5.9-1.9,9.1-2.7s6.5-1.1,10-1.1   c3.1,0,6.2,0.4,9.3,1c3,0.6,6.2,1.5,9.3,2.4l10.8-19.7l-8.6-34.2l20.7-5.6l7.1,27.5l28.7-7.7l5.6,21.9l-34.2,9l-11.1,20.3   c3.5,3.5,6.5,7.5,9.1,11.9c2.5,4.5,4.5,9.3,5.7,14.6h21.3l25-24.4l15.5,15.7l-20.1,19.7l20.7,20.7l-15.7,15.5l-25.3-25L373.5,420.8   L373.5,420.8L373.5,420.8z M243.1,314.1l4.6-19.5l19.1,4.6l-4.6,19.7L243.1,314.1L243.1,314.1L243.1,314.1z M274.9,521.5l-20.1,5   l-5-18.9l20.1-5.2L274.9,521.5L274.9,521.5z M352.2,411.7c0-9.1-3.1-16.7-9.3-22.9c-6.2-6.2-13.8-9.3-22.8-9.3s-16.6,3.1-22.7,9.3   c-6,6.2-9.1,13.8-9.1,22.9s3,16.6,9.1,22.5c6,5.9,13.7,9,22.7,9s16.7-3,22.8-9C349.2,428.2,352.2,420.7,352.2,411.7z M369.5,299.3   l19.7-5.6l5.6,19.1l-20.3,5.6L369.5,299.3L369.5,299.3z M396.7,506.9l-5,19.5l-19.7-4.3l5-19.7L396.7,506.9L396.7,506.9z    M439.5,396.2l14.5,13.9l-14.5,14.5L426,409.7L439.5,396.2L439.5,396.2z"></path>
	<path d="M540.5,561.8H4.9l113.7-265.3l49.8,49L293.5,5.2l73.2,232.7l53.5-62l1.1,3.4L540.5,561.8L540.5,561.8z M10.8,557.8h524.3   l-116.6-374l-53.4,62L293.2,17.4L170,352.6l-50.1-49.2L10.8,557.8L10.8,557.8z M510.5,539.5H38.8l87.1-204.7l51.8,49.6L291.5,74.1   l66.6,208.6l52.7-62.4L510.5,539.5L510.5,539.5z M44.8,535.6h460.3l-96-307.2l-52.7,62.4L291.3,86.3l-112,305.2l-52-49.8   L44.8,535.6L44.8,535.6z M253.3,528.8l-6-22.7l23.9-6.2l6,23L253.3,528.8L253.3,528.8z M252.2,509l4,15.1l16.2-4l-4-15.2L252.2,509   L252.2,509z M393.2,528.7l-23.6-5.2l5.9-23.6l23.6,5.5L393.2,528.7L393.2,528.7z M374.5,520.6l15.8,3.5l4-15.6l-15.8-3.7   L374.5,520.6L374.5,520.6z M365.3,522.9l-25.5-6.1l8.2-35.1l-10.5-17c-5.5,2-11.4,2.9-17.7,2.9c-3.1,0-5.8-0.2-8.1-0.5   c-2-0.3-3.9-0.6-5.7-1l-8.9,14.4l9.6,35.1l-25.8,6.5l-7.1-27.4l-27.8,7.1l-6.9-24.8l35.9-9.6l7.2-14c-3.8-3.7-7.2-7.8-10.2-12.7   c-3.1-5.1-5.4-10.4-6.8-16h-20.7l-26.1,25.2l-17.8-18.5l19.7-19.7l-20.3-20.3l18.5-18.9l26.1,26.5h20.7c1-4.8,2.9-9.5,5.5-14.1   c2.5-4.4,5.4-8.5,8.6-12.2l-10.9-18.3l-35.4-7.6l6.5-26.1l27.2,6.8l6.8-28.4l25.5,6.1l-8.2,35.7l11.1,18c2.4-0.8,5-1.6,7.8-2.2   c3.3-0.8,6.8-1.1,10.5-1.1c3,0,6.1,0.3,9.7,1c2.4,0.5,5.1,1.1,8,2l9.6-17.6l-8.9-35.4l24.5-6.6l7.1,27.5l28.7-7.7l6.5,25.7   l-35.3,9.2l-10,18.3c3.1,3.3,5.9,7.1,8.3,11.2c2.5,4.4,4.3,8.9,5.5,13.6h18.9l25.9-25.2l18.2,18.5L417,409.6l20.7,20.7l-18.5,18.2   L393,422.7l-17.9,0.1c-1.2,5.8-3,10.9-5.6,15.5c-2.7,4.9-5.8,9-9.6,12.5l9.8,16.4l35.3,8.2l-5.1,25.1l-27.9-6.2L365.3,522.9   L365.3,522.9z M344.6,513.8l17.8,4.3l6.8-28.4l27.8,6.1l3.6-17.4l-33.2-7.7l-12.4-20.6l1.3-1.1c3.9-3.4,7.2-7.5,10-12.5   c2.6-4.7,4.4-9.9,5.5-16l0.3-1.6l22.8-0.1l24.5,24.2l12.9-12.7l-20.7-20.7l20.1-19.7L418.7,377l-24.2,23.6h-23.7l-0.3-1.5   c-1.1-5-2.9-9.6-5.5-14.1c-2.5-4.3-5.4-8.1-8.8-11.4l-1-1l12.2-22.4l33.1-8.7l-4.6-18l-28.7,7.7l-7.1-27.5l-16.9,4.5l8.3,33.1   l-11.9,21.8l-1.5-0.5c-3.4-1-6.4-1.8-9.1-2.4c-3.3-0.6-6.1-0.9-8.9-0.9c-3.4,0-6.6,0.4-9.6,1c-3.2,0.7-6.3,1.7-8.9,2.6l-1.5,0.5   l-13.6-22.1l7.7-33.5l-17.8-4.3l-6.8,28.4l-27.2-6.8l-4.6,18.4l33.1,7.1l13.3,22.3l-1,1.1c-3.4,3.8-6.5,8-9,12.6   c-2.6,4.7-4.4,9.6-5.3,14.5l-0.3,1.6H243l-24.4-24.8l-12.9,13.2l20.3,20.3l-19.7,19.7l12.4,12.9l24.4-23.6h25.5l0.3,1.6   c1.2,5.7,3.5,11.2,6.6,16.3c3.1,5,6.6,9.2,10.6,12.9l1.1,1l-9.4,18.2l-33.7,9l4.8,17.2l27.8-7.1l7.1,27.4l18-4.6l-9-32.9l11.4-18.3   l1.4,0.4c2,0.6,4.3,0.9,6.6,1.3c2.2,0.3,4.7,0.5,7.6,0.5c6.4,0,12.3-1.1,17.8-3.2l1.5-0.6l13,21.2L344.6,513.8L344.6,513.8z    M320.1,445.1c-9.6,0-17.7-3.2-24.1-9.5c-6.4-6.3-9.7-14.3-9.7-23.9s3.2-17.7,9.6-24.2c6.6-6.6,14.7-9.9,24.2-9.9   c9.4,0,17.7,3.3,24.2,9.9c6.6,6.6,9.9,14.7,9.9,24.2s-3.3,17.7-9.9,23.9C337.7,441.9,329.6,445.1,320.1,445.1L320.1,445.1z    M320.1,381.5c-8.5,0-15.5,2.9-21.3,8.7c-5.7,5.8-8.5,12.8-8.5,21.5s2.8,15.5,8.5,21.1c5.7,5.6,12.9,8.4,21.3,8.4   c8.5,0,15.7-2.8,21.5-8.4c5.9-5.5,8.7-12.4,8.7-21.1s-2.9-15.7-8.7-21.5C335.7,384.4,328.5,381.5,320.1,381.5L320.1,381.5z    M197.7,428.6l-17.4-16.9l17-17l16.9,16.9L197.7,428.6L197.7,428.6z M186,411.6l11.7,11.4l11-11.3l-11.4-11.4L186,411.6L186,411.6z    M439.5,427.4l-16.2-17.8l16.2-16.2l17.4,16.6L439.5,427.4L439.5,427.4z M428.7,409.8l10.9,11.9l11.6-11.6l-11.7-11.2L428.7,409.8   L428.7,409.8z M263.6,321.3l-22.9-5.8l5.5-23.3l22.9,5.5L263.6,321.3z M245.4,312.6l15.3,3.9l3.7-15.8l-15.3-3.7L245.4,312.6z    M373.1,320.8l-6-22.9l23.5-6.6l6.7,22.9L373.1,320.8L373.1,320.8z M371.9,300.7l4,15.3l16.4-4.5l-4.5-15.3L371.9,300.7   L371.9,300.7z"></path>
</g>
</svg>