<?xml version='1.0' encoding='utf-8'?>
<!-- Generator: Adobe Illustrator 27.2.0, SVG Export Plug-In . SVG Version: 6.00 Build 0)  --><svg xmlns="http://www.w3.org/2000/svg" xmlns:xlink="http://www.w3.org/1999/xlink" version="1.1" id="Vrstva_1" x="0px" y="0px" viewBox="0 0 534.4 566.9" style="enable-background:new 0 0 534.4 566.9;" xml:space="preserve" width="377.06827" height="400.0">
<g>
	<path d="M530.3,283.5C530.3,138,412,20.9,267.8,20.9S4,139.4,4,283.5S122.4,546,266.6,546S530.3,429,530.3,283.5L530.3,283.5   L530.3,283.5z M487.7,283.5c0,121.2-98.4,219.7-219.7,219.7S48.2,404.8,48.2,283.5S146.6,63.7,267.9,63.7S487.7,163.6,487.7,283.5   L487.7,283.5L487.7,283.5z" fill="#51F093"></path>
	<path d="M249.4,297.8c4.3,7.1,7.1,15.7,7.1,24.3c0,11.4-2.8,20-8.6,28.6c-5.8,8.6-14.2,15.7-24.3,20c-9.9,4.3-21.3,7.1-35.7,7.1   c-18.5,0-34.2-4.3-45.6-12.9c-12.9-8.6-20-21.3-21.3-37l38.5-4.3c1.5,7.1,4.3,11.4,9.9,14.2c5.8,2.8,11.4,4.3,20,4.3   s15.7-1.5,20-5.8c4.3-4.3,7.1-9.9,7.1-15.7c0-7.1-2.8-12.9-8.6-15.7c-5.8-4.3-12.9-5.8-22.8-5.8h-15.7v-31.4h15.7   c8.6,0,15.7-1.5,20-5.8c4.3-4.3,7.1-8.6,7.1-15.7s-2.8-11.4-7.1-15.7c-4.3-4.3-11.4-5.8-20-5.8c-7.1,0-14.2,1.5-18.5,5.8   c-4.3,2.8-8.6,8.6-9.9,15.7l-37-4.3c2.8-15.7,8.6-27.1,20-37c11.4-9.9,27.1-14.2,45.6-14.2c12.9,0,24.3,2.8,34.2,7.1   c9.9,4.3,17.2,11.4,21.3,18.5c5.8,8.6,7.1,15.7,7.1,25.6c0,17.2-7.1,29.9-22.8,38.5C238,284.9,245.1,290.6,249.4,297.8L249.4,297.8   L249.4,297.8z" fill="#51F093"></path>
	<path d="M287.9,354.9c-12.9-15.7-18.5-40-18.5-69.9c0-31.4,5.8-54.2,18.5-69.9s29.9-24.3,52.8-24.3s41.3,8.6,52.8,24.3   c12.9,15.7,18.5,40,18.5,69.9c0,31.4-5.8,54.2-18.5,69.9c-12.9,15.7-29.9,24.3-52.8,24.3C317.9,377.7,300.7,370.6,287.9,354.9z    M365,327.8c5.8-8.6,7.1-24.3,7.1-44.1s-2.8-34.2-7.1-44.2c-5.8-8.6-12.9-14.2-22.8-14.2s-18.5,4.3-22.8,14.2   c-5.8,8.6-7.1,24.3-7.1,44.2s2.8,34.2,7.1,44.1c5.8,8.6,12.9,14.2,22.8,14.2S359.2,337.7,365,327.8z" fill="#51F093"></path>
</g>
</svg>