<?xml version='1.0' encoding='utf-8'?>
<!-- Generator: Adobe Illustrator 27.2.0, SVG Export Plug-In . SVG Version: 6.00 Build 0)  --><svg xmlns="http://www.w3.org/2000/svg" xmlns:xlink="http://www.w3.org/1999/xlink" version="1.1" id="Vrstva_1" x="0px" y="0px" viewBox="0 0 537.4 566.9" style="enable-background:new 0 0 537.4 566.9;" xml:space="preserve" width="379.18506" height="400.0">
<style type="text/css">
	.st0{fill-rule:evenodd;clip-rule:evenodd;}
</style>
<g>
	<path class="st0" d="M408.7,199V42.8L206.9,220.3L6.7,44.1v245.6h201.8c14.2-24.1,34-45.5,58.3-61.1c32.7-21.4,69.7-32.7,108-32.7   l0,0C387.4,196.2,398.8,197.5,408.7,199L408.7,199z"></path>
	<path d="M384.6,21.6L206.9,173.4L32.2,21.6H384.6z"></path>
	<path class="st0" d="M290.8,262.9c25.6-17,55.3-25.6,85.2-25.6c41.1,0,79.5,17,109.2,45.5c28.3,28.3,45.5,68.2,45.5,109.2   c0,31.2-8.6,61.1-25.6,85.1c-17,25.6-41.1,45.4-69.7,56.8c-28.3,11.4-59.5,14.2-89.5,8.6C316,537,289,521.2,266.3,500   c-21.4-21.4-37-49.7-42.6-79.5c-5.6-29.8-2.9-61.1,8.6-89.5C245.3,302.6,265.2,279.9,290.8,262.9L290.8,262.9z M363.2,383.5   l-31.4-31.2l18.5-18.5l62.6,62.6l-62.6,62.4l-18.5-18.5l31.2-31.2H248v-27h115.1v1.4L363.2,383.5L363.2,383.5z M451.2,397.7   l-44.1-43.9l18.5-18.5l62.6,62.6l-62.6,62.4l-18.5-18.5L451.2,397.7z"></path>
</g>
</svg>