<?xml version='1.0' encoding='utf-8'?>
<!-- Generator: Adobe Illustrator 27.2.0, SVG Export Plug-In . SVG Version: 6.00 Build 0)  --><svg xmlns="http://www.w3.org/2000/svg" xmlns:xlink="http://www.w3.org/1999/xlink" version="1.1" id="Vrstva_1" x="0px" y="0px" viewBox="0 0 530.4 566.9" style="enable-background:new 0 0 530.4 566.9;" xml:space="preserve" width="374.2459" height="400.0">
<g>
	<g>
		<path d="M266.2,44.8c63.8,0,123.7,24.9,168.7,69.9s69.9,105.1,69.9,168.7S480,407.1,434.9,452.2s-105.1,69.9-168.7,69.9    s-123.6-24.9-168.7-69.9S27.6,347.1,27.6,283.5s24.9-123.7,69.9-168.7S202.4,44.8,266.2,44.8 M266.2,26.7    c-141.8,0-256.8,115-256.8,256.8s115,256.8,256.8,256.8S523,425.2,523,283.5S408,26.7,266.2,26.7L266.2,26.7L266.2,26.7z"></path>
		<path d="M266.2,545.2c-69.9,0-135.6-27.2-185.1-76.7S4.4,353.4,4.4,283.5S31.7,147.8,81.1,98.4s115.2-76.7,185.1-76.7    s135.6,27.2,185.1,76.7S528,213.6,528,283.5s-27.2,135.6-76.7,185.1S336.1,545.2,266.2,545.2L266.2,545.2z M266.2,31.7    c-138.8,0-251.8,112.9-251.8,251.8s112.9,251.8,251.8,251.8S518,422.3,518,283.5S405,31.7,266.2,31.7L266.2,31.7z M266.2,527.1    c-65,0-126.2-25.4-172.2-71.4S22.6,348.5,22.6,283.5S47.9,157.3,94,111.2c46-46,107.2-71.4,172.2-71.4s126.2,25.4,172.2,71.4    c46,46.1,71.4,107.2,71.4,172.2s-25.4,126.2-71.4,172.2C392.4,501.7,331.2,527.1,266.2,527.1z M266.2,49.8    c-62.4,0-121,24.3-165.2,68.5c-44.2,44.2-68.5,102.8-68.5,165.2s24.3,121,68.5,165.2c44.2,44.2,102.8,68.5,165.2,68.5    s121-24.3,165.2-68.5c44.2-44.2,68.5-102.8,68.5-165.2s-24.3-121-68.5-165.2C387.2,74.1,328.6,49.8,266.2,49.8L266.2,49.8z"></path>
	</g>
	<rect x="239.9" y="236.8" width="52.6" height="198.5"></rect>
	<circle cx="266.2" cy="159.2" r="32.3"></circle>
</g>
</svg>