<?xml version='1.0' encoding='utf-8'?>
<!-- Generator: Adobe Illustrator 27.2.0, SVG Export Plug-In . SVG Version: 6.00 Build 0)  --><svg xmlns="http://www.w3.org/2000/svg" xmlns:xlink="http://www.w3.org/1999/xlink" version="1.1" id="Vrstva_1" x="0px" y="0px" viewBox="0 0 828.4 566.9" style="enable-background:new 0 0 828.4 566.9;" xml:space="preserve" width="584.5122" height="400.0">
<g>
	<path d="M558.4,451.7h-47.2c1.5,15.7,2.9,31.5,4.4,47.7H55.1c12.1-140,25.7-258.9,56.7-315.6c41.7-76.1,101.5-116.5,173.6-116.5   c39.3,0,75,12.1,105.9,35.3L443,85.6c-44-42.5-97.8-65.1-157.4-65.3h-0.5c-88.9,0.1-164.9,50.2-214.3,141   C33.3,229.5,19.6,364.6,6.5,521.2l-2.1,25.5h562l-2.1-25.5C562.4,497.4,560.4,474.3,558.4,451.7L558.4,451.7L558.4,451.7z" fill="#FFCE63"></path>
	<path d="M482.1,383.7l-96.9,31.8c-1.5-17.1-3.2-33.3-5-48.6l88.5-29.2c-2.3-9.5-4.7-21.5-6.6-34.9l-86.8,28.6   c-2.9-17.6-6-33.6-9.8-46.9l92-30.4c0-4-0.3-7.8-0.3-11.8c0-8.7,0.3-17.1,0.8-25.2l-105.9,34.9c-9.2-16.2-20.2-29.4-32.3-39.6   l145.1-48c2.3-12.1,4.7-22.3,6.6-29.9c0.8-3.4,1.8-6.9,2.9-10.2l-197.8,65.1c-8.4-2.1-17.1-3.4-26.3-3.4   c-43.6,0-80.5,25.4-105,71.4c-18.9,35.4-26,108.1-33.3,194.1h275.9l110.2-36.5C493.1,408,487.6,397.9,482.1,383.7L482.1,383.7   L482.1,383.7z" fill="#FFCE63"></path>
	<path d="M582.6,409.2c-22.6,0-37.8-2.9-49.8-9.5c-3.7-2.3-14.2-8.1-27.2-58.5c-5-19.1-13.3-57.2-13.3-98.9s8.4-79.8,13.3-98.9   C518.7,92.8,529,87,532.8,85c11.8-6.6,27.2-9.5,49.8-9.5c68.5,0,241.3,49.8,241.3,166.9S651.6,409.2,582.6,409.2L582.6,409.2   L582.6,409.2z M552.6,370.1c6.3,2.6,16.2,4,30.1,4c49.8,0,205.9-39.6,205.9-131.9S632.4,110.4,582.6,110.4c-13.9,0-23.7,1.1-30.1,4   c-7.3,13.1-24.9,70.3-24.9,127.8S545.4,357.1,552.6,370.1L552.6,370.1z" fill="#FFCE63"></path>
</g>
</svg>