<?xml version='1.0' encoding='utf-8'?>
<!-- Generator: Adobe Illustrator 27.2.0, SVG Export Plug-In . SVG Version: 6.00 Build 0)  --><svg xmlns="http://www.w3.org/2000/svg" xmlns:xlink="http://www.w3.org/1999/xlink" version="1.1" id="Vrstva_1" x="0px" y="0px" viewBox="0 0 234.4 566.9" style="enable-background:new 0 0 234.4 566.9;" xml:space="preserve" width="165.39072" height="400.0">
<path d="M228,432.4V131.9C228,70.7,178.4,21,117.2,21S6.3,70.7,6.3,131.9v300.5h0.1c0,0.9-0.1,1.8-0.1,2.7  c0,61.2,49.6,110.9,110.9,110.9S228,496.3,228,435C228,434.1,228,433.3,228,432.4L228,432.4L228,432.4z M117,488.6  c-19.5,0-35.2-15.8-35.2-35.3s15.8-35.2,35.2-35.2s35.2,15.8,35.2,35.2S136.5,488.6,117,488.6z M117,140.2  c-19.5,0-35.2-15.8-35.2-35.2S97.5,69.7,117,69.7s35.2,15.8,35.2,35.2S136.5,140.2,117,140.2z"></path>
</svg>