<?xml version='1.0' encoding='utf-8'?>
<!-- Generator: Adobe Illustrator 27.2.0, SVG Export Plug-In . SVG Version: 6.00 Build 0)  --><svg xmlns="http://www.w3.org/2000/svg" xmlns:xlink="http://www.w3.org/1999/xlink" version="1.1" id="Vrstva_1" x="0px" y="0px" viewBox="0 0 722.4 566.9" style="enable-background:new 0 0 722.4 566.9;" xml:space="preserve" width="509.7195" height="400.0">
<g>
	<path d="M196.6,403.6H83.8l-15.9,50.2H4.2L117,114.1h50.7l111.4,339.6h-66.6L196.6,403.6L196.6,403.6z M174.9,336l-34.7-109.5   L105.5,336H174.9z"></path>
	<path d="M408.2,107.4H464L348.6,456.5h-55.8L408.2,107.4C408.2,107.4,408.2,107.4,408.2,107.4z"></path>
	<path d="M463.2,283.9c0-99.4,52.1-175.6,127.4-175.6s118.3,64.2,127,137h-65.1c-7.6-30.9-27.9-59.8-60.4-59.8   c-42,0-63.7,43.9-63.7,98.4s21.3,98.4,63.7,98.4c35.5,0,53.2-24.6,61.9-61.8h64.4C710.6,392,668,459.6,589.1,459.6   C513.8,459.6,463.2,383.3,463.2,283.9L463.2,283.9L463.2,283.9z"></path>
</g>
</svg>