<?xml version='1.0' encoding='utf-8'?>
<!-- Generator: Adobe Illustrator 27.2.0, SVG Export Plug-In . SVG Version: 6.00 Build 0)  --><svg xmlns="http://www.w3.org/2000/svg" xmlns:xlink="http://www.w3.org/1999/xlink" version="1.1" id="Vrstva_1" x="0px" y="0px" viewBox="0 0 427.4 566.9" style="enable-background:new 0 0 427.4 566.9;" xml:space="preserve" width="301.56992" height="400.0">
<g>
	<path d="M4.5,512h418.4v47.3H4.5V512z M49,374.9l-26.9-70.7c-1-2.9-1.9-5.8-2.8-8.8c-0.9-3-1.3-6.2-1.3-9.8c0-4.3,0.5-8.5,1.4-12.6   c0.9-4.1,2.5-7.9,4.8-11.4l35.8-61.1c0.4-1.4,0.9-2.9,1.4-4.5c0.5-1.5,0.8-3.1,0.8-4.8v-2.5c0-0.6-0.2-1.4-0.6-2.5l-18.8-75.7H23   c-1.9,0-2.8-0.9-2.8-2.8s0.6-3.7,1.9-5.6L62.5,9.6c0.2-1.3,1-1.9,2.5-1.9c1.2,0,2.1,0.6,2.8,1.9l40.8,92.6c0.8,1.4,1.2,3.1,1.2,4.9   c0,2.3-1,3.4-3.1,3.4H91l17.6,73.5c0.8,3.3,1.2,7.1,1.2,11.4c0,7.8-2.1,15.9-6.2,24.1l-34.9,59.3c-0.6,1-1.2,2.4-1.7,4   c-0.5,1.6-0.8,3.3-0.8,5c0,1,0,2,0.1,3.1s0.5,2,1.1,3.1l12,30.9l23.8,65.1c1,2.9,1.9,5.6,2.5,8.2c0.6,2.6,0.9,5.3,0.9,8.2   c0,4.1-0.7,8.2-2,12.2c-1.3,4-2.8,7.8-4.5,11.3l-25.9,45.1l-41.1-23.2l22.9-38.9c0.4-1.6,0.9-3.2,1.5-4.6c0.6-1.4,0.9-3.1,0.9-5   c0-1-0.1-2.1-0.5-3.2s-0.7-2.1-1.1-3l-8.3-22.2L49,374.9L49,374.9L49,374.9z M141.6,264.3c0.2-0.4,0.3-0.9,0.3-1.4s0.2-1,0.6-1.4   l36.1-61.1c1.4-3.3,2.1-6.4,2.1-9.3c0-1,0-1.9-0.1-2.5c-0.1-0.6-0.4-1.4-0.8-2.5L162,110.5h-20.1c-2,0-3.1-1.1-3.1-3.4   c0-1.7,0.6-3.3,1.9-4.9l40.1-92.6c0.6-1.3,1.5-1.9,2.8-1.9c1,0,1.9,0.6,2.5,1.9l40.8,92.6c1,1.6,1.5,3.3,1.5,4.9   c0,2.3-1,3.4-3.1,3.4h-16.4l17.9,73.5c0.6,1.9,1,3.6,1.2,5.4c0.2,1.8,0.3,3.8,0.3,6c0,7.8-2,15.9-6.2,24.1l-18.9,31.5L141.6,264.3   L141.6,264.3z M258.3,333.2c-10.5-8.7-18.1-17.6-22.9-26.7c-4.7-9.2-7.1-18-7.1-26.7c0-7.8,1.7-15.2,5-22.1   c3.3-6.9,7.8-12.9,13.6-18.1c5.8-5.1,12.5-9.2,20.2-12.2c7.7-3,16-4.5,24.9-4.5c10.5,0,19.2,1.4,26.2,4.2c7,2.8,12.6,6.2,16.8,10.3   c4.2,4.1,7.2,8.4,9,13c1.7,4.5,2.6,8.5,2.6,12c0,1.7-0.2,3.3-0.6,5c-1.8,6.6-4.8,11.7-8.8,15.4c-4,3.7-8.6,7.6-13.7,11.6   c-5.2,4-10.5,8.9-16.1,14.7c-5.6,5.8-10.6,13.8-15.1,24.1c0.6,1.4,1.6,2.7,3.1,3.9c1.4,1.1,2.5,2.4,3.1,3.9h0.6   c8.6-10.7,17.5-18.4,26.7-23c9.2-4.6,18.1-7,26.7-7c7.6,0,14.9,1.6,21.8,4.9c6.9,3.3,12.9,7.8,18,13.4c5.2,5.7,9.2,12.4,12.2,20.1   c3,7.7,4.5,16,4.5,24.9c0,10.5-1.4,19.3-4.2,26.3s-6.2,12.6-10.2,16.8c-4,4.2-8.3,7.2-12.8,9c-4.5,1.7-8.4,2.6-11.7,2.6   c-1.6,0-3.3-0.2-4.9-0.6c-6.6-1.6-11.8-4.5-15.6-8.5c-3.8-4-7.8-8.6-11.9-13.7c-4.1-5.1-9-10.5-14.8-16.2   c-5.8-5.6-13.9-10.9-24.4-15.6l-0.9,1.2c-1.7,1.9-3.7,3.9-6.2,6.2c10.7,8.6,18.4,17.6,23.2,26.7c4.7,9.1,7.1,18,7.1,26.7   c0,7.8-1.7,15.1-5,21.9c-3.3,6.8-7.8,12.8-13.4,17.9c-5.6,5.1-12.4,9.2-20.2,12.2c-7.8,3-16.2,4.5-25,4.5c-9.9,0-18.3-1.3-25.2-4   c-6.9-2.7-12.5-5.9-16.8-9.7c-4.3-3.8-7.5-8-9.4-12.5c-2-4.5-3-8.6-3-12.3c0-5.1,0.9-9.5,2.6-13c1.7-3.5,4.1-6.8,7.1-9.7   c3-3,6.4-5.9,10.2-8.7c3.8-2.8,7.7-6,11.7-9.6c4-3.6,8-7.9,11.9-12.8c3.9-4.9,7.5-11,10.8-18.2l-0.9-1.5c-2.5-1.9-4.4-3.8-5.9-5.9   c-8.7,10.7-17.6,18.4-26.7,23.1c-9.1,4.7-18,7.1-26.7,7.1c-7.8,0-15.1-1.6-21.9-5c-6.8-3.3-12.8-7.7-17.9-13.4   c-5.1-5.7-9.2-12.4-12.2-20.1c-3-7.7-4.5-16.1-4.5-25.2c0-9.9,1.3-18.3,3.9-25.2c2.6-6.9,5.8-12.5,9.6-16.8c3.8-4.3,8-7.5,12.5-9.4   c4.5-2,8.6-3,12.4-3c7.4,0,13.3,1.9,17.7,5.7c4.4,3.8,8.9,8.5,13.4,14.2c4.5,5.7,9.8,11.6,15.8,17.9c6,6.3,14.4,11.9,25.3,16.9   l0.9-1.9c0.8-1,1.8-2,2.9-2.9c1.1-0.9,2.2-1.8,3.3-2.6L258.3,333.2L258.3,333.2L258.3,333.2z M239.8,355.7   c-9.7-4.7-17.4-9.9-23.2-15.3c-5.8-5.5-10.6-10.7-14.7-15.6c-4-5-7.5-9.3-10.5-13c-3-3.7-6.5-6.2-10.7-7.4c-0.2,0-0.9,0-2.1,0.1   c-1.2,0.1-2.7,0.6-4.5,1.5c-1.7,0.9-3.5,2.3-5.4,4.2c-1.9,1.9-3.4,4.4-4.6,7.7c-3.3,9-5,17.4-5,25c0,6.4,1,12,3.1,17   c2,5,4.8,9.2,8.2,12.7c3.4,3.5,7.4,6.2,11.9,8c4.5,1.9,9.3,2.8,14.2,2.8c6.6,0,13.4-1.7,20.4-5.2c7-3.5,13.5-9,19.5-16.4   c0.8-1,1.7-2,2.6-3.1c0.9-1,1.4-1.7,1.4-2.1C240.4,356.5,240.2,356.2,239.8,355.7L239.8,355.7L239.8,355.7z M273.4,392.5   c-4.7,9.7-10.1,17.6-16,23.8s-11.5,11.4-16.7,15.7c-5.2,4.3-9.5,8-13,11.1c-3.5,3.1-5.2,6.4-5.2,9.9c0,1.6,0.8,4.1,2.5,7.4   c1.6,3.3,5.5,6,11.4,8.3c8.6,3.3,16.9,4.9,24.7,4.9c6.2,0,11.8-1,16.8-3.1c5-2.1,9.3-4.8,12.8-8.2c3.5-3.4,6.2-7.4,8-11.9   c1.8-4.5,2.8-9.4,2.8-14.5c0-3.3-0.5-6.9-1.5-10.8c-1-3.9-2.6-7.9-4.8-11.9c-2.1-4-4.8-7.8-8-11.4c-3.2-3.6-7-6.7-11.6-9.4   c-0.4-0.2-0.8-0.3-1.2-0.3C273.9,392.2,273.6,392.3,273.4,392.5L273.4,392.5L273.4,392.5z M276.9,322.1c3.7-7.8,7.7-14.4,11.9-19.6   c4.2-5.3,8.4-9.8,12.6-13.6c4.2-3.8,8.3-7.2,12.2-10.2c3.9-3,7.4-6,10.5-9.1c2.3-2.3,3.4-4.7,3.4-7.4c0-0.2-0.1-1-0.3-2.3   c-0.2-1.3-0.8-2.8-1.7-4.5c-0.9-1.6-2.3-3.3-4-5.1c-1.7-1.8-4.3-3.3-7.6-4.5c-9-3.1-17.2-4.6-24.4-4.6c-6.4,0-12.1,1.1-17.2,3.1   c-5,2.1-9.3,4.8-12.8,8.2c-3.5,3.4-6.2,7.4-8,11.9c-1.9,4.5-2.8,9.4-2.8,14.5c0,7.2,2,14.7,6.2,22.5c4.1,7.9,10.7,14.7,19.8,20.7   c0,0.4,0.3,0.6,0.9,0.6C276,322.7,276.4,322.5,276.9,322.1L276.9,322.1L276.9,322.1z M346.9,195.5c0,1.9-0.2,3.7-0.5,5.4   s-0.6,3.7-0.8,5.7L299.1,189c0-0.4-0.1-0.9-0.3-1.4c-0.2-0.5-0.3-1-0.3-1.4l-18.5-75.7h-19.8c-2.1,0-3.1-0.9-3.1-2.8   c0-0.8,0.2-1.7,0.6-2.6c0.4-0.9,0.8-1.9,1.3-2.9l40.4-92.6c0.6-1.3,1.5-1.9,2.8-1.9c1,0,1.9,0.6,2.5,1.9l40.5,92.9   c0.4,0.8,0.8,1.7,1.2,2.6s0.6,1.8,0.6,2.6c0,1.8-0.9,2.8-2.8,2.8h-16.7l18.2,73.5c0.2,2.1,0.5,4.1,0.8,6   C346.8,192,347,193.8,346.9,195.5L346.9,195.5L346.9,195.5z M281.5,349.3c-1.7-1.4-3.9-2.1-6.8-2.1s-5.3,1-7.3,3.1   c-2,2-3,4.5-3,7.4c0,2.7,1,5,3.1,7.1c2,2,4.5,3.1,7.4,3.1c2.7,0,5.1-1,7.2-2.9c2.1-2,3.2-4.4,3.2-7.3S284.1,351.9,281.5,349.3   L281.5,349.3L281.5,349.3z M309.9,359.1c8.2,4.1,15,8.3,20.4,12.7c5.4,4.3,9.9,8.6,13.7,12.8c3.8,4.2,7.2,8.1,10,11.7   c2.9,3.6,5.9,6.8,9,9.4c1.7,2.3,3.8,3.7,6.5,4.3c2.3-0.2,4.4-0.8,6.5-1.9c1.6-1,3.4-2.4,5.2-4.2c1.8-1.8,3.5-4.4,5-7.9   c3.3-9,4.9-17.4,4.9-25c0-6.2-1-11.8-2.9-16.9c-2-5-4.6-9.3-8-12.6c-3.4-3.4-7.4-6-11.9-7.9c-4.5-1.9-9.4-2.8-14.5-2.8   c-6.6,0-13.4,1.8-20.4,5.3c-7,3.5-13.5,9-19.4,16.4c-0.6,0.6-1.5,1.5-2.6,2.8c-1.2,1.2-1.7,2-1.7,2.5s0,0.7,0.2,0.8   C309.8,358.8,309.9,358.9,309.9,359.1L309.9,359.1L309.9,359.1z"></path>
</g>
</svg>