<?xml version='1.0' encoding='utf-8'?>
<!-- Generator: Adobe Illustrator 27.2.0, SVG Export Plug-In . SVG Version: 6.00 Build 0)  --><svg xmlns="http://www.w3.org/2000/svg" xmlns:xlink="http://www.w3.org/1999/xlink" version="1.1" id="Vrstva_1" x="0px" y="0px" viewBox="0 0 543.4 566.9" style="enable-background:new 0 0 543.4 566.9;" xml:space="preserve" width="383.4186" height="400.0">
<g>
	<path d="M530.6,110.3c2,3.4,3.7,6.9,5.1,10.4c1.4,3.6,2.1,7.2,2.1,10.8c-2.2,9-5.3,17.2-9.5,24.8s-9.1,14.8-14.9,21.6   c-10.7,10.2-21.8,18.3-33.1,24.3c-11.3,6-24.2,9-38.5,9.1c-4.6,0-9.1-0.7-13.6-2.2s-9.3-3.5-14.5-6.1L190.5,431.3   c0,13.4-0.2,24.1-0.8,32.3c-0.6,8.2-1.6,14.9-3.2,20.3c-1.6,5.4-3.6,10.6-6.1,14.5c-3.1,4.8-4.8,9.4-15.4,18.5   c-4.5,3.9-17.4,12.8-26.9,17.3c-4.3,2.1-8.8,4.1-13.6,5.7c-4.8,1.6-9.5,2.9-14.3,3.9c-4.8,1-8.8,1.5-11.9,1.5   c-12.6,0-22.1-1.6-28.7-5c-6.6-3.4-11.3-7.6-14.1-12.8L127,481l-8.1-50.2l-38.7-20.7L9.2,456.6c-1.8-3.6-2.9-7.1-3.2-10.6   s-0.5-7.1-0.5-10.9c0-5.4,0.8-10.5,2.5-15.4c1.7-4.9,3.6-9.4,5.9-13.5c2.3-4.1,4.6-7.6,7-10.6c2.4-3,4.4-5.3,5.9-6.9   c7.1-7.2,13.7-13,19.8-17.4c6.1-4.4,11.9-7.8,17.4-10.2s11.2-4,17-4.7c5.8-0.7,11.9-1.1,18.5-1.1c5,0,9.9,0.5,14.8,1.5   s9.9,2.2,15.1,3.5l223.3-228.3c-0.6-3.4-1.2-6.7-1.8-9.8c-0.4-2.8-0.8-5.6-1.1-8.4s-0.5-5.1-0.5-6.9c0-11.9,2.4-22.4,7.4-31.4   c5-9,10.9-16.7,17.8-23.2c7-6.5,14.1-11.8,21.5-16c7.3-4.2,14-7.2,18.5-9.4c0.6-0.2,6.9-3,13.2-3.9c6.9-1,17.2-1.4,17.2-1.4   c4.2,0,8,0.2,11.3,0.6c3.4,0.4,6.7,1.2,10,2.4c3.3,1.2,6.6,3,10,5.4s7.1,5.6,11.1,9.5l-71,46.5l2.6,48.8l40.7,22.2L530.6,110.3   L530.6,110.3L530.6,110.3z M384.1,176c5.2-4.6,10.6-11.1,2.9-18.8c-9.4-9.4-16,0.6-19.4,3.1L158.3,374.3   c-2.9,2.5-5.8,10.4,0.7,16.5c7.1,6.7,14.3,0.3,15.9-1.5C175,389.3,383.3,176.7,384.1,176L384.1,176L384.1,176z"></path>
</g>
</svg>