<?xml version='1.0' encoding='utf-8'?>
<!-- Generator: Adobe Illustrator 27.2.0, SVG Export Plug-In . SVG Version: 6.00 Build 0)  --><svg xmlns="http://www.w3.org/2000/svg" xmlns:xlink="http://www.w3.org/1999/xlink" version="1.1" id="Vrstva_1" x="0px" y="0px" viewBox="0 0 724.6 566.9" style="enable-background:new 0 0 724.6 566.9;" xml:space="preserve" width="511.27182" height="400.0">
<g>
	<path d="M647.3,122.3V50.6H500.5V122H224.1V50.6H77.3V122H5.8v394.3h713V122h-71.4L647.3,122.3L647.3,122.3L647.3,122.3z M541,91.3   h65.7v31H541V91.3z M118,91.3h65.7v31H118V91.3z M678.2,475.9H46.5V162.7h630.1v312.9h1.6V475.9L678.2,475.9L678.2,475.9z" fill="#FFCE63"></path>
	<rect x="79.4" y="263.2" width="141" height="40.7" fill="#FFCE63"></rect>
	<polygon points="554.6,354.2 595.2,354.2 595.2,303.9 645.5,303.9 645.5,263.2 595.2,263.2 595.2,213 554.6,213 554.6,263.2    504.5,263.2 504.5,303.9 554.6,303.9  " fill="#FFCE63"></polygon>
</g>
</svg>