<?xml version='1.0' encoding='utf-8'?>
<!-- Generator: Adobe Illustrator 27.2.0, SVG Export Plug-In . SVG Version: 6.00 Build 0)  --><svg xmlns="http://www.w3.org/2000/svg" xmlns:xlink="http://www.w3.org/1999/xlink" version="1.1" id="Vrstva_1" x="0px" y="0px" viewBox="0 0 619.4 566.9" style="enable-background:new 0 0 619.4 566.9;" xml:space="preserve" width="437.04358" height="400.0">
<g>
	<path d="M397.1,33.4c6.7,0,13.3,6.7,13.3,13.3v224.3c0,6.6-6.7,13.3-13.3,13.3H222.4c-6.6,0-13.3-6.6-13.3-13.3V46.6   c0-6.7,6.6-13.3,13.3-13.3h174.7 M397.1,8.3H222.4c-21.6,0-38.1,16.6-38.1,38.1v224.3c0,21.6,18.3,38.1,38.1,38.1h174.7   c21.6,0,38.1-16.6,38.1-38.1V46.6C435.2,25,418.6,8.3,397.1,8.3C397.1,8.3,397.1,8.3,397.1,8.3z"></path>
	<path d="M285.6,159.7V103h21.6c8.2,0,13.3,1.7,18.3,6.7s6.6,11.7,6.6,19.8s-1.7,16.6-6.6,21.6s-10,6.6-18.3,6.6h-21.6V159.7   L285.6,159.7z M250.7,73.2v181.2h34.9v-63.2h25c11.6,0,23.3-3.3,31.5-8.2c8.2-5,14.8-11.6,19.8-21.6c5-8.2,6.6-18.3,6.6-29.9   s-1.5-21.9-6.5-30.2c-5-8.2-11.6-16.6-19.8-21.6c-8.2-5-18.3-8.2-31.5-8.2h-59.9v1.8L250.7,73.2L250.7,73.2z"></path>
	<g>
		<path d="M96.1,390.6c8.2,5,16.6,11.6,21.6,19.8c5,8.2,8.2,18.3,8.2,28.3s-1.7,19.8-6.6,28.3c-5,8.5-11.6,14.8-21.6,19.8    c-10,5-18.3,6.6-29.9,6.6H31.4v63.2H3.1V382.4h63.2C77.8,382.4,87.8,385.6,96.1,390.6L96.1,390.6z M89.5,462.1    c6.6-6.6,8.2-14.8,8.2-23.3s-3.3-16.6-8.2-23.3c-6.6-6.6-13.3-10-23.3-10H29.6v66.4h36.6C74.6,472.1,82.8,468.7,89.5,462.1    L89.5,462.1z"></path>
		<path d="M260.7,558.4L244,520.3h-81.5l-16.6,38.1h-24.7L197.6,384h16.6l76.5,174.5h-30.1L260.7,558.4L260.7,558.4z M174.2,497    h61.4l-31.5-74.7L174.2,497z"></path>
		<path d="M415.3,558.4l-51.6-68.1h-26.5v68.1h-26.5V382.4h56.4c11.6,0,23.3,1.7,31.5,6.6c8.2,5,16.6,11.6,21.6,18.3    c5,8.2,8.2,16.6,8.2,26.5c0,11.6-3.3,21.6-10,29.9c-6.7,8.2-14.8,14.8-26.5,18.3l56.4,74.7h-33.3v1.8h0.1L415.3,558.4L415.3,558.4    z M337.2,467.1h29.9c10,0,18.3-3.3,25-8.2c6.7-5,10-13.3,10-21.6s-3.3-16.6-10-21.6s-14.8-8.2-25-8.2h-29.9L337.2,467.1    L337.2,467.1z"></path>
		<path d="M616.3,558.4h-31.5l-61.4-76.5l-26.5,29.9v46.6h-26.5V382.4h26.5v96.4l86.4-96.4h31.5l-73.1,81.5L616.3,558.4L616.3,558.4    z"></path>
	</g>
</g>
</svg>