<?xml version='1.0' encoding='utf-8'?>
<!-- Generator: Adobe Illustrator 27.2.0, SVG Export Plug-In . SVG Version: 6.00 Build 0)  --><svg xmlns="http://www.w3.org/2000/svg" xmlns:xlink="http://www.w3.org/1999/xlink" version="1.1" id="Vrstva_1" x="0px" y="0px" viewBox="0 0 677.4 566.9" style="enable-background:new 0 0 677.4 566.9;" xml:space="preserve" width="477.96786" height="400.0">
<style type="text/css">
	.st0{fill-rule:evenodd;clip-rule:evenodd;}
</style>
<g>
	<path class="st0" d="M77.1,193.9c-18.2,0-36.2,14.5-36.2,36.2s18.2,36.2,36.2,36.2h468.8v36.2H77.1c-36.2,0-72.4-29-72.4-72.4   s36.2-72.4,72.4-72.4h36.2v36.2L77.1,193.9L77.1,193.9z"></path>
	<path class="st0" d="M294.3,85.3c-18.2,0-36.2,14.5-36.2,36.2s18,36.2,36.2,36.2h378.4v36.2H294.3c-36.2,0-72.4-29-72.4-72.4   s36.2-72.4,72.4-72.4h54.4v36.2C348.7,85.3,294.3,85.3,294.3,85.3z"></path>
	<path class="st0" d="M239.9,481.7c-18.2,0-36.2-14.5-36.2-36.2s18.2-36.2,36.2-36.2h432.6v-36.2H239.9c-36.2,0-72.4,29-72.4,72.4   s36.2,72.4,72.4,72.4h72.4v-36.2L239.9,481.7L239.9,481.7z"></path>
</g>
</svg>