<?xml version='1.0' encoding='utf-8'?>
<!-- Generator: Adobe Illustrator 27.2.0, SVG Export Plug-In . SVG Version: 6.00 Build 0)  --><svg xmlns="http://www.w3.org/2000/svg" xmlns:xlink="http://www.w3.org/1999/xlink" version="1.1" id="Vrstva_1" x="0px" y="0px" viewBox="0 0 562.4 566.9" style="enable-background:new 0 0 562.4 566.9;" xml:space="preserve" width="396.82486" height="400.0">
<style type="text/css">
	.st0{fill-rule:evenodd;clip-rule:evenodd;}
</style>
<g>
	<path d="M527.5,416.5l-297.5-91.2H215l-4.5,3c-19.5,14.9-52.4,25.4-88.2,25.4s-68.7-9-88.2-25.4l-4.5-3h-24v219.8h550.3v-89.7   C557.3,437.6,545.4,421.1,527.5,416.5L527.5,416.5z M528.9,518.2H34v-27h496.5v27H528.9z"></path>
	<path class="st0" d="M364.4,157.9c0,1.6,1.6,1.6,1.6,3c0,1.6,1.6,1.6,1.6,3c4.5,10.5,9,25.4,11.9,41.9c1.6,17.9,0,32.9-11.9,46.3   l17.9,30c22.4-25.4,25.4-58.4,22.4-83.8c-3-22.4-10.5-41.9-13.5-52.4c0-1.6-1.6-1.6-1.6-3s-1.6-1.6-1.6-3   c-4.5-10.5-10.5-25.4-11.9-41.9c-1.6-17.9,0-32.9,11.9-46.3l-17.9-30c-22.4,25.4-25.4,58.4-22.4,83.8   C353.9,128,361.4,149,364.4,157.9L364.4,157.9z"></path>
	<path class="st0" d="M439.1,157.9c0,1.6,1.6,1.6,1.6,3c0,1.6,1.6,1.6,1.6,3c4.5,10.5,9,25.4,11.9,41.9c1.6,17.9,0,32.9-11.9,46.3   l17.9,30c22.4-25.4,25.4-58.4,22.4-83.8c-3-22.4-10.5-41.9-13.5-52.4c0-1.6-1.6-1.6-1.6-3s-1.6-1.6-1.6-3   c-4.5-10.5-10.5-25.4-11.9-41.9c-1.6-17.9,0-32.9,11.9-46.3l-17.9-30c-22.4,25.4-25.4,58.4-22.4,83.8   C427.2,128,434.7,149,439.1,157.9L439.1,157.9z"></path>
	<path class="st0" d="M512.4,157.9c0,1.6,1.6,1.6,1.6,3c0,1.6,1.6,1.6,1.6,3c4.5,10.5,9,25.4,11.9,41.9c1.6,17.9,0,32.9-11.9,46.3   l17.9,30c22.4-25.4,25.4-58.4,22.4-83.8c-3-22.4-10.5-41.9-13.5-52.4c0-1.6-1.6-1.6-1.6-3s-1.6-1.6-1.6-3   c-4.5-10.5-9-25.4-11.9-41.9c-1.6-17.9,0-32.9,11.9-46.3l-17.9-29.8c-22.4,25.4-25.4,58.4-22.4,83.8C502,128,509.4,149,512.4,157.9   L512.4,157.9z"></path>
</g>
</svg>