<?xml version='1.0' encoding='utf-8'?>
<!-- Generator: Adobe Illustrator 27.2.0, SVG Export Plug-In . SVG Version: 6.00 Build 0)  --><svg xmlns="http://www.w3.org/2000/svg" xmlns:xlink="http://www.w3.org/1999/xlink" version="1.1" id="Vrstva_1" x="0px" y="0px" viewBox="0 0 674.4 566.9" style="enable-background:new 0 0 674.4 566.9;" xml:space="preserve" width="475.8511" height="400.0">
<g>
	<polyline points="669,201.6 474.8,201.6 435.3,21.7 482.1,21.7 512.5,154.8 669,154.8 669,201.6  " fill="#51F093"></polyline>
	<path d="M197.9,201.6H5.4v-46.8h156.5l30.6-133.1h46.8L197.9,201.6" fill="#51F093"></path>
	<polyline points="597.2,545.2 550.4,545.2 550.4,545.2 500.1,313.2 669,313.2 669,358.1 557.6,358.1 597.2,545.2 597.2,545.2  " fill="#51F093"></polyline>
	<path d="M359.7,126.1H313V21.7h46.8V126.1 M359.7,318.5H313V178.2h46.8V318.5 M359.7,545.2H313V370.7h46.8V545.2" fill="#51F093"></path>
	<path d="M124.2,545.2H77.4l39.5-187.1H5.4v-44.9h169.1L124.2,545.2" fill="#51F093"></path>
</g>
</svg>