<?xml version='1.0' encoding='utf-8'?>
<!-- Generator: Adobe Illustrator 27.2.0, SVG Export Plug-In . SVG Version: 6.00 Build 0)  --><svg xmlns="http://www.w3.org/2000/svg" xmlns:xlink="http://www.w3.org/1999/xlink" version="1.1" id="Vrstva_1" x="0px" y="0px" viewBox="0 0 535.4 566.9" style="enable-background:new 0 0 535.4 566.9;" xml:space="preserve" width="377.77386" height="400.0">
<g>
	<path d="M529.4,275.6C526,131.7,405.1,17.4,259.7,21.6C117.2,25.8,1.3,143.8,5.9,292.3c4.5,143.9,123.6,255.5,266.3,253.1   C418.5,542.9,534.4,421.1,529.4,275.6L529.4,275.6z M447.1,283.2c-1.2,24.2-9.3,46.4-23,66.3c-2.9,4.2-6.5,8.1-10.3,11.6   c-5.8,5.4-12.9,8-20.8,7.2c-3.1,9.7-5.6,19.3-9.3,28.6c-11.5,29.1-28.1,54.6-53.6,73.6c-13.4,10-28.4,16-45.3,16.2   c-13.9,0.1-27.8,0.7-41.5-0.6c-23-2-40.7-15-56-31.2c-20.9-22.2-34.7-48.3-41.8-77.9c-0.6-2.7-1.5-5.3-2.4-8.4   c-15.7,2.1-24.5-8-32-19c-13.8-20.1-21.6-42.6-22.9-67c-0.5-10.1,1.3-20.4,10.8-26.5c4.4-2.8,9.7-3.9,14.8-5.9   c-10.3-91.4,59.9-167.4,145-172.1c47.6-2.6,88.6,14.2,121.1,49.1c32.4,34.7,45.6,76.3,41.1,122.8c4.9,1.6,9.8,2.4,13.9,4.7   C446.2,260.9,447.7,272,447.1,283.2L447.1,283.2L447.1,283.2z"></path>
	<path d="M417,269c-2.8,3-6.1,4.3-10,2.3c-3.8-2-5.8-5.1-5-9.6c0.4-2.1,0.6-4.3,1.2-7.8c-8,4.3-15,8-22.1,11.8   c-1.3-5.5-0.8-10,4.7-12.8c5.3-2.6,10.6-5.2,15.7-8.2c1.6-0.9,3.3-3,3.4-4.7c1.1-17-0.8-33.7-6.2-49.9   c-21.2-64.4-86.5-105.8-156-93.4c-66.8,11.9-117,74.9-112.8,142.5c0.2,3.1,1.3,4.5,4,5.7c5.2,2.3,10.2,5.2,15.4,7.7   c5.7,2.8,6.5,7.3,5,13c-7.3-3.9-14.4-7.6-22.6-11.9c0.6,4.3,0.9,6.8,1.4,9.4c0.9,4.4-1,7.8-4.8,8.8c-2.7,0.7-6.8,0.1-8.9-1.7   c-7.7-6.3-11.8-5.4-13.6,4.5c-0.9,4.8-1,10-0.4,14.9c2,16.2,7.6,31.3,15.9,45.3c3,5,6.9,9.6,10.8,14.1c3.5,4.1,7.4,4.7,12.2,1.2   c5.3-3.9,11-1.5,12.9,4.9c0.8,2.8,1.5,5.7,2.2,8.6c6.6,29.6,18.4,56.7,39.4,79.1c13.8,14.7,29.6,26.1,50.5,27.4   c11.4,0.7,23,0.8,34.4,0.3c16.1-0.6,30.5-6.6,42.2-17.7c8.7-8.3,17-17.2,24-26.9c14.8-20.6,24-43.7,27.8-68.9   c1.1-7.5,6.2-10.4,12.7-7.6c8.5,3.7,10.7,3.2,16.6-4c11.2-13.8,18.4-29.6,21.7-46.9c1.6-8.5,1.8-17.6,0.8-26.3   C428.3,264.7,422.1,263.5,417,269L417,269L417,269z M265.2,256.8c3.6-0.1,7.6,0.3,10.5,1.9c1.9,1,2.1,4.9,3.1,7.5   c-1.9,0.7-3.7,1.9-5.6,2c-5.3,0.3-10.6,0.1-15.7,0.1C255.8,260.4,257.9,257,265.2,256.8L265.2,256.8L265.2,256.8z M155.1,286.2   c-0.8,8.7-0.2,17.6-0.2,28c-2.5-2.9-5.5-4.7-6.1-7.2c-3.1-13-5.6-26.2-8.4-39.3c0.6-0.2,1.2-0.3,1.8-0.5c0.8,0.4,1.6,0.9,2.4,1.2   C152.3,271.9,155.9,277.3,155.1,286.2L155.1,286.2z M142,239.2c16.2,1.8,31.8,3.6,47.5,5.4c-0.1,0.6-0.1,1.1-0.2,1.7   C173.5,244.8,156.6,254.8,142,239.2z M211.3,344.4c-12.5,0.4-24.4-0.4-34.7-8.5c-7.8-6.1-13.7-13.8-14-23.6   c-0.7-18.8-0.2-37.7-0.2-58.5c20.1-0.4,40.2-0.9,60.3-1.3c7.4-0.1,14.8,0.2,22.2,0.1c3.1-0.1,4.7,0.6,4.8,4.2   c0.2,15.9,1,31.8,1,47.7C250.7,328.1,234.7,343.7,211.3,344.4L211.3,344.4z M256.3,282.7c0.9-3.4,0.9-7,2.6-9   c2.9-3.4,12.9-3.8,16.6-0.5c2.1,1.8,2.6,5.5,4.4,9.5C270.9,282.8,264.3,282.8,256.3,282.7L256.3,282.7L256.3,282.7z M373.6,298   c0,5.7,0.2,11.6-1.1,17.1c-3,13.3-11.8,22.1-24.4,26.6c-12.9,4.6-26.3,3.9-39.2-0.1c-13.8-4.2-24-19.1-24-34.8   c0-16.6,0.7-33.3,1-50c0-2.5,0.4-4.2,3.6-4.2c27.7,0.2,55.5-1.8,83.2,2.4c0.2,0,0.3,0.2,1,0.6C373.6,269.6,373.7,283.8,373.6,298   L373.6,298z M369.1,248c-7.4-1.8-15.4-1.5-23.1-3.4c15.6-1.8,31.2-3.6,46.9-5.4C385.6,244.3,379.2,250.4,369.1,248L369.1,248z    M386.8,306.8c-0.6,2.6-3.6,4.6-5.8,7.3c0-13.2-1-25.4,0.5-37.2c0.5-3.8,7.3-6.9,11.2-10.3c0.8,0.5,1.5,1,2.3,1.4   C392.3,281,389.8,294,386.8,306.8L386.8,306.8z"></path>
	<path d="M241.7,262.2h-73.1c0.7,17.7,0.7,33.8,2.2,49.8c0.8,8.1,6.8,14.1,13.8,18.7c9.4,6.1,19.7,5.6,30.1,4.5   c13.5-1.4,24.9-11.6,26.6-25.1c1-7.6,0.4-15.5,0.4-23.2C241.7,278.6,241.7,270.3,241.7,262.2L241.7,262.2z M234.4,309.5   c-1.1,11.1-11.4,18.6-22.7,19.3c-8.5,0.5-17.1,0.9-24.5-4.6c-6.6-4.9-10.5-11.2-10.6-19.7c-0.1-10.2-0.7-20.3-0.7-30.5   c0-1.6,1.8-4.6,2.9-4.6c18.4-0.9,36.9-1.4,55.9-2C234.6,282.3,235.6,296,234.4,309.5L234.4,309.5L234.4,309.5z"></path>
	<path d="M293.4,262.3c0,15.1-0.5,30.2,0.2,45.3c0.4,9,5.1,16.5,12.5,22c7.6,5.8,16.5,6.2,25.4,6.3c17.4,0.1,32.3-11,33.9-27.4   c1.4-14.8,0.3-29.9,0.3-46.2C342.3,262.3,318.5,262.3,293.4,262.3L293.4,262.3L293.4,262.3z M359,305.2   c-0.8,12.5-10.3,22.2-22.7,23.5c-5.5,0.6-11.2,0.6-16.6-0.5c-10.4-2-17.9-8.8-18.9-19.3c-1.2-13.3-0.3-26.9-0.3-39.9   c19.2,0,37.5-0.1,55.8,0.2c1.2,0,3.2,2.4,3.2,3.7C359.6,283.7,359.7,294.5,359,305.2L359,305.2L359,305.2z"></path>
</g>
</svg>