<?xml version='1.0' encoding='utf-8'?>
<!-- Generator: Adobe Illustrator 27.2.0, SVG Export Plug-In . SVG Version: 6.00 Build 0)  --><svg xmlns="http://www.w3.org/2000/svg" xmlns:xlink="http://www.w3.org/1999/xlink" version="1.1" id="Vrstva_1" x="0px" y="0px" viewBox="0 0 959.6 566.9" style="enable-background:new 0 0 959.6 566.9;" xml:space="preserve" width="677.0859" height="400.0">
<path d="M760.7,153.7l29.9-39.7c4.8-5.3,9.5-9.6,14.2-12.9c4.7-3.3,10.4-6.2,17.2-8.9c6.8-2.7,14.8-4,23.8-4  c8.1,0,17.2,0.9,27.4,2.8c10.2,1.9,20.2,4.2,30.1,6.8c9.8,2.7,18.9,5.4,27.2,8.3s22.9,8.6,23.3,10.2s-24,42.2-24,42.2  c-3,0-6.9-1.1-11.7-3.4c-4.8-2.3-10.7-4.7-17.6-7.4c-6.9-2.6-15.1-5.1-24.6-7.4s-20.2-3.4-32.3-3.4c-3,0-5.7,0.1-8.1,0.4  c-2.4,0.2-4.1,0.8-5.1,1.5c-1.3,3.8-3,7.5-5.3,11.2c-2.3,3.7-4.8,7.1-7.6,10.4s-5.7,6.4-8.7,9.5c-3,3-5.8,5.8-8.3,8.3  c3,1.3,6.5,2,10.4,2.3c3.9,0.2,8,0.4,12.3,0.4h6.1c10.8,0,20.3,0.4,28.4,1.3c8.1,0.9,15.5,3.3,22.3,7.4c6.8,4,13.4,10.2,19.7,18.5  c6.3,8.3,13.1,20.1,20.4,35.2c2.8,5.6,5.7,12.2,8.9,19.9c3.2,7.7,6.1,16,8.9,25c2.8,9,5,18.4,6.8,28.2c1.8,9.8,2.7,19.8,2.7,29.9  v1.5c0,12.6-1.5,23.2-4.3,31.8c-2.9,8.6-6.8,15.5-11.7,20.8c-4.9,5.3-10.7,9.1-17.4,11.4c-6.7,2.3-13.7,3.4-21,3.4  c-3.3,0-6.3-0.3-9.1-0.9c-2.8-0.6-5.2-0.9-7.2-0.9s-4.3,1.7-6.8,5.1c-2.5,3.4-5.6,7.6-9.3,12.5c-3.7,4.9-8.1,10.4-13.2,16.3  c-5.2,5.9-11.5,11.4-19.1,16.3c-7.6,4.9-16.4,9.1-26.5,12.5c-10.1,3.4-21.8,5.1-35.2,5.1c-10.1,0-20-1.4-29.7-4.4  c-9.7-2.9-18.7-7.1-27.1-12.7c-8.3-5.5-15.8-12.3-22.3-20.2s-11.9-16.8-15.9-26.7c-1-0.8-302.8-1.8-377.8-1.8  c-10.1,19.7-24,37.2-41.7,48.8c-17.8,11.6-37.6,17.4-59.6,17.4c-10.6,0-20.9-1.5-31-4.5s-19.4-7.3-28-12.9  c-8.6-5.5-16.2-12.3-22.9-20.2c-6.7-8-12-16.8-16.1-26.7H39.9c-10.4,0-18-3.2-23.1-9.6c-5.1-6.4-8.5-13.9-10.4-22.3  c-1.9-8.5-2.8-16.7-2.6-24.8c0.1-8.1,0.2-13.9,0.2-17.4c0-19.2,1.3-35.4,3.8-48.8s6.7-24.4,12.7-32.9c5.9-8.6,13.8-15.1,23.5-19.5  c9.7-4.4,21.8-7.2,36.1-8.5c12.4-2.8,25.8-5.4,40.3-7.8c14.5-2.4,29-4.5,43.5-6.4c14.5-1.9,28.7-3.3,42.6-4.4  c13.9-1,26.4-1.5,37.5-1.5c3.5-3,11.1-8.1,12.9-9.3c1.8-1.1,13.5-12.3,19.3-18.4c6.3-6.8,14.2-14.5,23.8-23.1s20.3-17.1,32.2-25.5  c11.9-8.4,24.6-16.5,38.2-24S398.1,99,413,93.9c14.1-2.8,29.4-4.9,45.8-6.2c16.4-1.4,33.3-2.1,50.7-2.1c26,0,51,1.3,74.9,4  s46.7,6.7,68.1,12.1c21.4,5.4,41.2,12.4,59.4,21C730.1,131.2,746.3,141.6,760.7,153.7L760.7,153.7L760.7,153.7z M258.5,366  l442.7,1.1v10.2c0,8.8,1.8,16.9,5.3,24.2c3.5,7.3,8.2,13.6,14,18.9c5.8,5.3,12.6,9.4,20.4,12.3c7.8,2.9,16,4.4,24.6,4.4  s17.2-1.4,25-4.4c7.8-2.9,14.7-7,20.6-12.3c5.9-5.3,10.6-11.6,14-18.9s5.1-15.4,5.1-24.2v-10.2h9.8c3-1,25.2-1.3,31-0.8  c5.8,0.5,10.3,0.8,13.6,0.8h5.3c2-0.2,3.5-1.1,4.3-2.5c0.9-1.4,1.3-4.6,1.3-9.6c0-14.4-2.1-28.9-6.2-43.5  c-4.2-14.6-8.8-27.8-14-39.4c-5.2-11.6-9.8-20.9-14-28c-4.2-7.1-6.2-10.3-6.2-9.8l-4.9-1.1h-69.6c-1.8,0-5.4-2.5-10.8-7.4  c-5.4-4.9-13-11-22.7-18.2s-21.8-15.1-36.3-23.6c-14.5-8.6-31.7-16.5-51.7-23.6c-19.9-7.2-42.8-13.2-68.5-18.2s-54.6-7.4-86.7-7.4  c-17.9,0-34.2,1.3-48.8,3.8c-14.6,2.5-28.3,6.2-40.9,11.2c-12.6,4.9-24.7,11-36.3,18.4c-11.6,7.3-23.3,15.8-35.2,25.4  c-7.3,6.1-13.8,11.7-19.5,17c-5.7,5.3-10.7,10-15,14.2s-20,18.7-20,18.7l-4.9,4.5c-3,3-5.5,5.3-7.4,6.8c-1.9,1.5-3.5,2.7-4.9,3.4  c-1.4,0.8-2.6,1.5-3.6,2.1c-1,0.6-23.8,2.8-23.8,2.8c-11.4,1.5-23.6,3.1-36.9,4.7c-13.2,1.6-26.9,3.4-40.9,5.1  c-14,1.8-27.9,3.5-41.8,5.3c-13.9,1.8-26.9,3.4-39,4.9c-10.6,1.3-17.5,3.8-20.6,7.6s-4.7,7.8-4.7,12.1c0,1-0.3,3.2-0.9,6.4  c-0.6,3.3-1.4,7.1-2.3,11.5c-0.9,4.4-1.6,9.3-2.3,14.6c-0.6,5.3-0.9,10.4-0.9,15.1v5.3c0,2,0.1,3.9,0.4,5.5c0.2,1.6,0.8,3,1.7,4.2  c0.9,1.1,2.3,1.7,4.4,1.7h70v5.3c0,8.8,1.7,16.9,5.1,24.2c3.4,7.3,8,13.6,13.8,18.9c5.8,5.3,12.6,9.4,20.4,12.3s16.1,4.4,25,4.4  s16.8-1.5,24.6-4.4c7.8-2.9,14.6-7,20.4-12.3c5.8-5.3,10.5-11.6,14-18.9c3.5-7.3,5.3-15.4,5.3-24.2L258.5,366L258.5,366L258.5,366  L258.5,366z"></path>
</svg>