<?xml version='1.0' encoding='utf-8'?>
<!-- Generator: Adobe Illustrator 27.2.0, SVG Export Plug-In . SVG Version: 6.00 Build 0)  --><svg xmlns="http://www.w3.org/2000/svg" xmlns:xlink="http://www.w3.org/1999/xlink" version="1.1" id="Vrstva_1" x="0px" y="0px" viewBox="0 0 387.4 566.9" style="enable-background:new 0 0 387.4 566.9;" xml:space="preserve" width="273.34625" height="400.0">
<g>
	<path d="M87.6,20.8H5.2v82.6h82.6V20.8H87.6L87.6,20.8z"></path>
	<path d="M234.3,20.8h-82.6v82.6h82.6V20.8z"></path>
	<path d="M382.2,20.8h-82.6v82.6h82.6V20.8z"></path>
	<path d="M87.6,168.7H5.2V250h82.6v-81.2H87.6L87.6,168.7z"></path>
	<path d="M234.3,168.7h-82.6V250h82.6V168.7z"></path>
	<path d="M382.2,168.7h-82.6V250h82.6V168.7z"></path>
	<path d="M87.6,315.4H5.2V398h82.6v-82.6H87.6L87.6,315.4z"></path>
	<path d="M234.3,315.4h-82.6V398h82.6V315.4z"></path>
	<path d="M234.3,463.5h-82.6v82.6h82.6V463.5z"></path>
	<path d="M382.2,315.4h-82.6V398h82.6V315.4z"></path>
</g>
</svg>