<?xml version='1.0' encoding='utf-8'?>
<!-- Generator: Adobe Illustrator 27.2.0, SVG Export Plug-In . SVG Version: 6.00 Build 0)  --><svg xmlns="http://www.w3.org/2000/svg" xmlns:xlink="http://www.w3.org/1999/xlink" version="1.1" id="Vrstva_1" x="0px" y="0px" viewBox="0 0 557.4 566.9" style="enable-background:new 0 0 557.4 566.9;" xml:space="preserve" width="393.29688" height="400.0">
<g>
	<path d="M253.1,267.8l-9-9c-31.4,40.3-31.4,94,1.6,126.8c13.4,13.4,31.4,22.3,49.3,23.9c1.6,0,4.4,0,6,1.6s3,1.6,4.4,3   c1.6,1.6,1.6,3,3,4.4c0,1.6,1.6,4.4,0,6c-3,14.9-1.6,29.8,3,44.7c4.4,14.9,11.9,28.3,22.3,40.3c10.5,11.9,22.3,20.9,35.8,26.7   c13.3,6,29.8,9,44.7,9c37.2,0,71.6-16.5,96.8-41.7c23.9-23.9,38.8-55.2,41.8-88c1.6-16.5,0-31.4-6-47.7   c-6-14.9-14.9-28.3-25.4-40.3c-11.9-10.5-25.4-19.3-40.3-23.9c-14.9-4.4-31.4-6-47.7-3h-6c-1.6,0-3-1.6-4.4-3c-1.6-1.6-3-3-3-4.4   c-1.6-1.6-1.6-3-1.6-6c-1.6-19.3-10.5-35.8-23.9-49.3c-32.8-32.8-88-31.4-128.1,0l9,8.9l37.2,37.2c1.6,0,4.4-1.6,6-1.6   c6,0,10.5,1.6,14.9,4.4s7.4,7.4,10.5,11.9c1.6,4.4,3,10.5,1.6,16.5c-1.6,6-3,10.5-7.4,13.4c-4.4,4.4-9,6-13.4,7.4   c-6,1.6-10.5,0-16.5-1.6c-4.4-1.6-9-6-11.9-10.5c-3-4.4-4.4-10.5-4.4-14.9c0-1.6,0-3,1.6-4.4l-29.8-26.7L253.1,267.8L253.1,267.8z    M354.5,457.1l110.4-110.4l23.9,23.9L378.3,481L354.5,457.1L354.5,457.1z"></path>
	<path d="M44.5,21.7h52.1l62.6,62.6l-23.9,23.9L265,237.9c-4.4,3-7.4,6-11.9,8.9c-3,3-7.4,7.4-10.5,11.9L114.5,129.2l-22.3,22.3   L4.1,63.6L44.5,21.7L44.5,21.7z"></path>
</g>
</svg>