<?xml version='1.0' encoding='utf-8'?>
<!-- Generator: Adobe Illustrator 27.2.0, SVG Export Plug-In . SVG Version: 6.00 Build 0)  --><svg xmlns="http://www.w3.org/2000/svg" xmlns:xlink="http://www.w3.org/1999/xlink" version="1.1" id="Vrstva_1" x="0px" y="0px" viewBox="0 0 424.4 566.9" style="enable-background:new 0 0 424.4 566.9;" xml:space="preserve" width="299.45316" height="400.0">
<path d="M72.8,517.6h278.7l9-346.2H419v-39.5H304.5v-29.2c0-29.3-21.6-53.4-54.7-53.4h-75c-33,0-54.7,24.2-54.7,53.4v29.3H5.4v39.5  h58.5L72.8,517.6L72.8,517.6z M163.3,105.2c0-10.2,9-19.1,19.1-19.1h61.1c10.2,0,19.1,8.9,19.1,19.1v25.5h-99.3v-25.5H163.3  L163.3,105.2z M151.7,457.9V200.6h33v257.1h-33V457.9z M239.6,457.9V200.6h33v257.1h-33V457.9z"></path>
</svg>