<?xml version='1.0' encoding='utf-8'?>
<!-- Generator: Adobe Illustrator 27.2.0, SVG Export Plug-In . SVG Version: 6.00 Build 0)  --><svg xmlns="http://www.w3.org/2000/svg" xmlns:xlink="http://www.w3.org/1999/xlink" version="1.1" id="Vrstva_1" x="0px" y="0px" viewBox="0 0 717.4 566.9" style="enable-background:new 0 0 717.4 566.9;" xml:space="preserve" width="506.19156" height="400.0">
<g>
	<path d="M185.1,185.5L4.7,365.8l180.3,180.3V442.4h134.3V288.8H184.9V185.6L185.1,185.5L185.1,185.5z M281,327.4v76.8H146.7v49.9   l-88.3-88.3l88.3-88.3v49.9L281,327.4L281,327.4z" fill="#51F093"></path>
	<path d="M712.7,365.8L532.5,185.5v103.7H398.2v153.6h134.3v103.7L712.7,365.8z M434.5,404.2v-76.8h134.3v-49.9l88.3,88.3   l-88.3,88.3v-49.9L434.5,404.2L434.5,404.2z" fill="#51F093"></path>
	<polygon points="281,56.8 284.9,91.5 336.6,68.5 336.6,231.5 376.9,231.5 376.9,20.5 350,20.5  " fill="#51F093"></polygon>
</g>
</svg>