<?xml version='1.0' encoding='utf-8'?>
<!-- Generator: Adobe Illustrator 27.2.0, SVG Export Plug-In . SVG Version: 6.00 Build 0)  --><svg xmlns="http://www.w3.org/2000/svg" xmlns:xlink="http://www.w3.org/1999/xlink" version="1.1" id="Vrstva_1" x="0px" y="0px" viewBox="0 0 1439 566.9" style="enable-background:new 0 0 1439 566.9;" xml:space="preserve" width="1015.34656" height="400.0">
<g>
	<path d="M100.4,341H67.3v111.4H5.3V114.5h118.1c52.2,0,87.8,49,87.8,113.3c0,44.2-17.6,80.2-47.5,97.9l63.4,126.7h-73.4L100.4,341   L100.4,341L100.4,341L100.4,341z M67.3,270h46.1c19.4,0,33.1-16.8,33.1-42.2s-14.8-40.3-33.1-40.3H67.3L67.3,270L67.3,270z"></path>
	<path d="M425.8,377.5v74.9H244.4V114.5h178.6v74.9H306.3v59.5H410V318H306.3v59.5L425.8,377.5L425.8,377.5L425.8,377.5z"></path>
	<path d="M443.8,343h64.4c0,30.7,13,40.3,42.8,40.3c33.5,0,43.2-9.1,43.2-28.8c0-17.3-13.3-25-38.9-30.7l-24.5-5.8   c-50.4-12-84.9-38.9-84.9-103.7s32-105.6,105.1-105.6c81,0,103.3,51.3,103.3,113.3h-62.6c0-25.4-11.2-38.4-39.2-38.4   c-33.1,0-40.3,7.2-40.3,26.9c0,16.3,9.7,24.5,43.2,32.6l23,5.8c47.5,12,83.5,34.6,83.5,101.8s-33.1,107.5-110.9,107.5   C469.7,458.2,444.1,410.6,443.8,343L443.8,343L443.8,343z"></path>
	<path d="M683.5,319.9V114.5h61.9v207.4c0,39.4,21.2,61.4,51.8,61.4s50.4-22.1,50.4-61.4V114.5h61.9v205.4   c0,84.5-46.8,138.2-112.3,138.2S683.6,404.4,683.5,319.9L683.5,319.9L683.5,319.9z"></path>
	<path d="M1214.8,452.4h-57.6V293.5l-59,158.9h-40.3l-57.6-155v155h-57.6V114.5h51.8l86.8,229.4l80.3-229.4h53.3L1214.8,452.4   L1214.8,452.4L1214.8,452.4z"></path>
	<path d="M1433.7,377.5v74.9h-181.4V114.5h178.6v74.9h-116.6v59.5h103.7V318h-103.7v59.5L1433.7,377.5L1433.7,377.5L1433.7,377.5z"></path>
</g>
</svg>