<?xml version='1.0' encoding='utf-8'?>
<!-- Generator: Adobe Illustrator 27.2.0, SVG Export Plug-In . SVG Version: 6.00 Build 0)  --><svg xmlns="http://www.w3.org/2000/svg" xmlns:xlink="http://www.w3.org/1999/xlink" version="1.1" id="Vrstva_1" x="0px" y="0px" viewBox="0 0 520.4 566.9" style="enable-background:new 0 0 520.4 566.9;" xml:space="preserve" width="367.19" height="400.0">
<style type="text/css">
	.st0{fill-rule:evenodd;clip-rule:evenodd;}
</style>
<path class="st0" d="M458,256.4c1.5,8.3,1.5,16.7,1.5,26.4c0,8.3,0,16.7-1.5,26.4l57.1,33.5l-2.8,11.1  c-12.6,43.2-34.9,82.1-65.4,114.2l-8.3,8.3l-57.1-33.5c-13.9,11.1-29.2,19.4-44.5,25v66.9l-11.1,2.8c-43.2,11.1-87.6,11.1-130.9,0  l-11.1-2.8V468c-15.3-7-30.7-15.3-44.5-25l-57.1,33.5l-8.3-8.3c-30.7-32.1-54.3-71-65.4-114.2l-2.8-11.1l56.8-33.5  c-2.8-16.7-2.8-34.9,0-51.6L5.3,224.4l2.8-11.1C20.6,170,43,131.2,73.5,99l8.3-8.3l57.1,33.4c13.9-11.1,29.2-19.4,44.5-25v-67  l11.1-2.8c43.2-11.1,87.6-11.1,130.9,0l11.1,2.8v64.1c15.3,7,30.7,15.3,44.5,25l57.4-33.5l8.3,8.3c30.7,32.1,54.3,71,65.4,114.2  l2.8,11.1L458,256.4L458,256.4z M201.8,365c16.7,11.1,36.2,16.7,55.6,16.7c26.4,0,51.6-11.1,71-29.2c19.4-19.4,29.2-44.5,29.2-71  c0-19.4-5.5-39-16.7-55.7c-11.1-16.7-26.4-29.2-44.5-37.7c-18.1-7-39-9.8-58.6-5.6c-19.4,4.2-37.7,13.9-51.6,27.8  c-13.9,13.9-23.7,32.1-27.8,51.6c-4.1,19.4-1.5,40.5,5.5,58.6C172.4,338.6,184.8,355.2,201.8,365L201.8,365z"></path>
</svg>