<?xml version='1.0' encoding='utf-8'?>
<!-- Generator: Adobe Illustrator 27.2.0, SVG Export Plug-In . SVG Version: 6.00 Build 0)  --><svg xmlns="http://www.w3.org/2000/svg" xmlns:xlink="http://www.w3.org/1999/xlink" version="1.1" id="Vrstva_1" x="0px" y="0px" viewBox="0 0 535.4 566.9" style="enable-background:new 0 0 535.4 566.9;" xml:space="preserve" width="377.77386" height="400.0">
<path d="M397.6,410.7c2.9,2.9,4.4,7.1,5.6,10c1.5,5.6,0,12.9-2.9,17c-2.9,5.6-8.5,8.5-14.3,10c-15.7,2.9-28.6-18.6-25.7-24.3  c5.6-10,14.3-1.5,21.5-7.1c7.2-5.6,0-14.3,7.2-14.3C390.4,405,394.7,407.8,397.6,410.7L397.6,410.7z M453.3,97.8  c50,50,77.1,115.6,77.1,185.7c0,51.4-15.7,103-44.4,145.7c-28.6,42.9-70,77.1-118.6,97.2c-48.7,20.1-101.5,25.7-151.5,14.3  c-51.4-10-98.6-35.6-134.5-71.5c-37.1-37.1-61.4-84.4-71.5-134.5c-10-51.4-4.4-104.4,14.3-151.5c20.2-48.5,54.6-88.5,97.3-118.5  c42.9-28.6,94.3-44.4,145.6-44.4C336.1,20.5,403.2,49.1,453.3,97.8L453.3,97.8z M430.5,453.6c44.4-42.9,70-101.5,71.5-161.5  c-2.9-8.5-7.2-17-14.3-23c-7.3-5.8-14.3-10-23-12.9c-8.5,0,1.5,57-11.4,57s-5.6-25.7-8.5-41.5c-2.9-15.7-8.5-14.3-38.5-31.5  c-30-17.1-54.4-11.4-61.5-1.5c-5.6,10,7.1,18.6,30,25.7c23,5.6,24.3,2.9,18.6,20.1c-2.9,7.1-7.2,12.9-12.9,18.6  c-5.6,4.4-12.9,8.5-20.1,8.5c-8.5,0-41.5-47.2-52.9-52.9c-10-5.6-8.5,14.3-7.1,27.1c2.9,12.9,61.4,52.9,61.4,55.7s-8.5,15.7-17,20.1  c-8.5,4.4-11.4,2.9-18.6,10s-1.5,5.6,7.1,14.3c1.5,2.9,2.9,5.6,4.4,8.5v10c-1.5,2.9-2.9,5.6-4.4,8.5c-1.5,2.9-4.4,4.4-7.1,5.6  c-14.3,8.5-23,63-51.4,63s-55.7-51.4-57-68.6c-1.5-12.9-5.6-24.3-14.3-34.4c-5.6-8.5-1.5-35.6-2.9-44.4  c-51.4,5.6-55.7-7.1-55.7-14.3s-11.4-14.3-15.7-32.9c-2.9-7.1-2.9-14.3-2.9-21.5c1.5-7.1,2.9-14.3,7.2-21.5  c5.6-8.5,37.1-2.9,48.5-4.4c10-1.5,14.3-20.1,25.7-20.1s15.7,15.7,24.3,25.7c8.5,8.5,15.7-4.4,27.1-7.1c11.4-2.9,23,1.5,34.4-11.4  s10-8.5,27.1-10c17-2.9,20.1-8.5,21.5-15.7c1.5-7.1-31.5-21.4-41.5-14.3c-10,8.5-25.7,28.6-45.6,30c-21.5,0-21.5-12.9-32.9-20.1  c-12.9-7.1-18.6,5.6-31.5,15.7c-11.4,10-23,2.9-24.3-17.1c-1.5-20.1,28.6-21.4,41.5-27.1c18.6-7.1,40-10,60.1-8.5  c24.3,0,30-15.7,24.3-21.4c-5.6-5.8-28.6,1.5-48.5,0c-12.9-8.5,11.4-30,27.1-32.9c17-2.9,31.5,11.4,45.6,14.3  c14.3,1.5,30-23,30-32.9s-50-20.1-71.5-18.6c-21.5,0-38.5,21.4-80,45.6c-41.5,24.2-58.6,20.1-57,4.4c2.9-18.6,58.6-50,81.5-58.6  c5.6-2.9,10-5.6,14.3-10C174.9,58.1,122,88.1,84.8,135.3c-37.1,45.6-55.7,104.3-51.4,164.3c4.4,58.6,30,114.4,72.9,155.8  c42.9,40,100.1,63,160,64.3C327.5,519.3,387.6,496.4,430.5,453.6L430.5,453.6z"></path>
</svg>