<?xml version='1.0' encoding='utf-8'?>
<!-- Generator: Adobe Illustrator 27.2.0, SVG Export Plug-In . SVG Version: 6.00 Build 0)  --><svg xmlns="http://www.w3.org/2000/svg" xmlns:xlink="http://www.w3.org/1999/xlink" version="1.1" id="Vrstva_1" x="0px" y="0px" viewBox="0 0 872.6 566.9" style="enable-background:new 0 0 872.6 566.9;" xml:space="preserve" width="615.6994" height="400.0">
<g>
	<path d="M268.5,399.3c-6.2,13.2-15,24.8-26.3,34.8c-11.3,10-24.6,17.3-39.8,21.6c-7.9,2.3-16.2,3.5-25,3.5   c-9.7,0-19.1-1.4-28.2-4.3c-9.1-2.9-17.7-6.8-25.6-11.8c-8-5-15.2-10.9-21.7-17.8c-6.5-6.9-11.8-14.5-15.9-22.9   c-1.6,0-6.1-0.3-13.5-0.9c-7.4-0.6-18.8-1.3-34.3-2.2c-6.7,0-12.1-1.6-16.3-4.8c-4.2-3.2-7.4-7.2-9.9-12c-2.4-4.7-4.1-9.8-5-15.2   s-1.4-10.2-1.4-14.4c0-19.4,1.8-34.9,5.4-46.4s7-19.3,10.2-23.2c3.7-5.1,7.8-9.8,12.3-14s10.1-8.3,16.8-12.1   c6.7-3.8,15-7.4,24.9-10.7c9.9-3.4,22.3-6.6,37.1-9.9c4.2-0.9,8.9-1.9,14.2-2.9c5.3-1,11-2.1,17.2-3.1s12.4-2.1,18.7-3.1   c6.4-1,12.5-2.1,18.5-3.3c14.3-2.5,29.1-5,44.4-7.3c1.6-0.7,2.8-1.1,3.6-1.2c0.8-0.1,1.7-0.2,2.6-0.2c1.6-0.9,3-2.1,4.2-3.6   c1.1-1.5,3.4-3.4,6.6-5.7c8.1-6.9,16.6-14.7,25.5-23.2c8.9-8.5,18.3-17,28.2-25.3c9.9-8.3,20.5-15.9,31.7-22.9   c11.2-6.9,23.4-12.2,36.5-15.9c13.9-3.9,29.3-6.8,46.4-8.5c17.1-1.7,34.8-2.6,53-2.6c23.8,0,47.1,1.3,69.8,3.8s42.7,5.8,59.8,9.7   c14.3,3.5,29.3,9.1,45,16.8c15.7,7.7,31.1,15.9,46.2,24.4c15.1,8.6,29.6,16.5,43.5,23.9s26.2,12.5,37.1,15.2   c13.2,3.5,24.4,5.7,33.8,6.6c9.4,0.9,17.3,2.2,23.7,4c6.5,1.7,11.8,4.7,15.9,9c4.2,4.3,7.6,11.6,10.4,22c1.8,6.9,3.8,15.1,5.9,24.4   s4,19.5,5.9,30.3c1.8,10.9,3.4,22.2,4.7,34.1c1.3,11.9,1.9,24.1,1.9,36.6c0,6.2-2.1,11.2-6.2,14.9c-4.2,3.7-9.2,6.5-15.2,8.5   c-6,2-12.4,3.2-19.2,3.8c-6.8,0.6-13,0.9-18.5,0.9c-3.2,0-6.1,0-8.5-0.2c-2.4-0.1-4.2-0.2-5.4-0.2h-1.4   c-5.3,14.1-13.6,26.2-24.8,36.4c-11.2,10.2-24.5,17.4-40,21.8c-4.6,1.4-9.2,2.4-13.9,3c-4.6,0.6-9.2,0.9-13.9,0.9   c-10.2,0-19.9-1.4-29.1-4.3c-9.2-2.9-17.8-6.9-25.6-12.1c-7.9-5.2-14.9-11.4-21.1-18.7c-6.2-7.3-11.4-15.2-15.6-23.7H268.5   L268.5,399.3L268.5,399.3z M814.5,352.9c2.3-0.7,3.9-1.6,4.8-2.6s1.4-2.7,1.4-5c-0.9-15.5-2.7-30.8-5.2-45.9   c-2.5-15.1-5-28.2-7.3-39.3c-1.4-3-2.9-4.5-4.5-4.5c-7.2-0.9-14.7-2.4-22.5-4.3c-7.8-2-16.9-4.1-27-6.4c-7.6-2.3-15.1-5-22.3-8.1   c-7.3-3.1-14.5-6.3-21.7-9.5l-4.2-2.1c-6.9-3.2-14-7.1-21.1-11.6c-7.2-4.5-14.9-9.2-23.2-14c-15.7-9-30.4-16.3-44-22   c-13.6-5.7-25.9-9.8-36.7-12.3c-7.6-1.8-16-3.5-25.1-5s-18.7-2.8-28.8-3.8s-20.4-1.8-31-2.4c-10.6-0.6-21.2-0.9-31.9-0.9   c-16.6,0-32.5,0.8-47.5,2.2c-15,1.5-28.4,3.9-40.2,7.1c-9.2,2.5-18,6.5-26.2,11.8c-8.2,5.3-16.9,11.8-26.2,19.4   c-9.5,7.9-18.5,15.8-27,23.9c-8.5,8.1-17,15.7-25.3,22.9c-7.2,6-12.2,10.1-15.1,12.3c-2.9,2.2-4.7,3.6-5.4,4.3   c-1.6,0-2.9,0.1-3.8,0.2c-0.9,0.1-1.7,0.6-2.4,1.6c-0.7,0-1.9,0.1-3.5,0.2c-1.6,0.1-4,0.5-7.3,1.2c-10.9,1.6-20,3-27.4,4.1   c-7.4,1.2-14.2,2.2-20.4,3.3s-12.4,2.1-18.5,3.1c-6.1,1-13.5,2.1-22,3.3c-16.2,3.2-30.5,6.7-43,10.4c-12.5,3.7-23.3,7.5-32.6,11.4   c-0.9,0-1.8,0.3-2.6,0.9c-0.8,0.6-2,1.3-3.6,2.2c-0.9,0.7-2,1.5-3.3,2.2c-1.3,0.8-2.2,1.6-3,2.2c-1.4,2.1-2.7,4.8-3.8,8.1   c-1.2,3.4-2.2,6.9-3.1,10.7s-1.6,7.7-2.1,11.8c-0.5,4-0.7,7.7-0.7,10.9l0.4,4.9c0,1.6,0.6,2.9,1.9,3.8c1.3,0.9,2.7,1.7,4.3,2.4   c3.2,0,7.5,0.3,12.8,0.9c5.3,0.6,10.3,0.9,14.9,0.9h31.2v1.4c0,8.5,1.6,16.6,4.9,24.1c3.2,7.5,7.7,14.1,13.5,19.8   c5.8,5.7,12.5,10.1,20.1,13.3c7.6,3.2,15.9,4.9,25,4.9c8.1,0,15.8-1.6,23-4.7s13.7-7.3,19.4-12.6c5.7-5.3,10.2-11.5,13.5-18.7   s5.2-14.8,5.7-22.9V356h399.1l1.4,9.4c0.5,7.6,2.4,14.9,5.9,21.7s8,12.8,13.5,17.8c5.5,5.1,11.8,9.1,18.9,12   c7,2.9,14.5,4.3,22.3,4.3s15.8-1.4,23.2-4.3c7.4-2.9,14-6.9,19.8-12.1c5.8-5.2,10.3-11.3,13.7-18.4c3.3-7,5-14.6,5-22.7v-9   c3.9,0,10.9,0,21-0.2C792.8,354.4,803.4,353.8,814.5,352.9L814.5,352.9L814.5,352.9z M585.5,297.1l12.5,28.1l30.8-74.1l-77.3-24.9   l13.9,27.7v1.7c-6.9,5.3-17.7,9.7-32.2,13.2c-14.5,3.5-31.7,5.2-51.3,5.2c-12.5,0-24.1-0.8-35-2.4c-10.9-1.6-20.3-3.8-28.4-6.4   c-8.1-2.6-14.5-5.7-19.2-9.2c-4.7-3.5-7.1-7.2-7.1-11.1c0-4.2,2.4-8.1,7.1-11.8c4.7-3.7,11.1-6.8,19.2-9.4   c8.1-2.5,17.5-4.6,28.4-6.1c10.8-1.5,22.5-2.2,35-2.2h27.7l14.2-17c-7.2-1.6-14.3-2.5-21.3-2.8c-7-0.2-14.4-0.4-22-0.4   c-19.4,0-37.6,1.6-54.6,4.7s-31.7,7.4-44.2,12.8s-22.3,11.8-29.6,19.1c-7.3,7.3-10.9,15.2-10.9,23.7c0,8.1,3.6,15.8,10.9,23   c7.3,7.3,17.2,13.7,29.6,19.2s27.2,9.9,44.2,13.2c17,3.2,35.2,4.9,54.6,4.9c21,0,40.5-1.8,58.4-5.4s33.4-8.5,46.6-14.7L585.5,297.1   L585.5,297.1L585.5,297.1z"></path>
</g>
</svg>