<?xml version='1.0' encoding='utf-8'?>
<!-- Generator: Adobe Illustrator 27.2.0, SVG Export Plug-In . SVG Version: 6.00 Build 0)  --><svg xmlns="http://www.w3.org/2000/svg" xmlns:xlink="http://www.w3.org/1999/xlink" version="1.1" id="Vrstva_1" x="0px" y="0px" viewBox="0 0 1426.4 566.9" style="enable-background:new 0 0 1426.4 566.9;" xml:space="preserve" width="1006.4561" height="400.0">
<g>
	<path d="M7.6,343.1h64.5c0,30.8,13,40.4,42.9,40.4c33.5,0,43.3-9.1,43.3-28.8c0-17.3-13.3-25-38.9-30.8l-24.5-5.8   C44.3,306,9.7,279.1,9.7,214.2S41.8,108.5,115,108.5c81.1,0,103.5,51.4,103.5,113.5h-62.7c0-25.5-11.2-38.5-39.3-38.5   c-33.2,0-40.4,7.2-40.4,26.9c0,16.4,9.7,24.5,43.3,32.7l23.1,5.8c47.6,12,83.6,34.6,83.6,101.9S192.9,458.4,115,458.4   C33.5,458.4,7.9,410.8,7.6,343.1L7.6,343.1z"></path>
	<path d="M452.5,227.7c0,61.5-34.2,111.5-88,111.5H314v113.5h-62V114.2h112.5C416.8,114.2,452.5,163.3,452.5,227.7z M387.6,227.7   c0-25.5-14.8-40.4-33.2-40.4H314V270h40.4C373.9,270,387.6,253.2,387.6,227.7z"></path>
	<path d="M661.6,377.7v75H479.9V114.2h178.9v75H541.9v59.6h103.8v69.2H541.9v59.6H661.6L661.6,377.7L661.6,377.7L661.6,377.7z"></path>
	<path d="M872.2,377.7v75H690.5V114.2h178.8v75H752.5v59.6h103.8v69.2H752.5v59.6H872.2L872.2,377.7L872.2,377.7L872.2,377.7z"></path>
	<path d="M1134.7,283.5c0,94.7-61.3,169.2-135.6,169.2H901V114.2h98.1C1073.4,114.2,1134.7,189.2,1134.7,283.5L1134.7,283.5   L1134.7,283.5L1134.7,283.5z M1069.8,283.5c0-55.8-30.7-94.2-73.6-94.2h-33.2v188.5h33.2C1039.1,377.7,1069.8,339.2,1069.8,283.5   L1069.8,283.5L1069.8,283.5L1069.8,283.5z"></path>
	<path d="M1418.9,316.2h-195.4v-65.4h195.4V316.2z"></path>
</g>
</svg>