<?xml version='1.0' encoding='utf-8'?>
<!-- Generator: Adobe Illustrator 27.2.0, SVG Export Plug-In . SVG Version: 6.00 Build 0)  --><svg xmlns="http://www.w3.org/2000/svg" xmlns:xlink="http://www.w3.org/1999/xlink" version="1.1" id="Vrstva_1" x="0px" y="0px" viewBox="0 0 537.4 566.9" style="enable-background:new 0 0 537.4 566.9;" xml:space="preserve" width="379.18506" height="400.0">
<g>
	<path d="M5.4,283.6c0-24.1,3.1-47.4,9.4-69.9c6.3-22.5,15.1-43.4,26.5-62.8c11.4-19.4,25.1-37.2,41.2-53.2   c16.1-16.1,33.8-29.8,53.2-41.2C155.1,45.1,176,36.3,198.4,30c22.4-6.3,45.6-9.4,69.7-9.4s47.4,3.1,69.9,9.4   c22.5,6.3,43.4,15.1,63,26.5c19.5,11.4,37.3,25.1,53.4,41.2s29.9,33.8,41.3,53.2c11.5,19.4,20.4,40.4,26.8,62.8   c6.4,22.5,9.6,45.8,9.6,69.9s-3.2,47.4-9.6,69.7c-6.4,22.4-15.3,43.2-26.8,62.7c-11.5,19.4-25.3,37.1-41.3,53.1   c-16.1,16-33.9,29.7-53.4,41.2c-19.5,11.5-40.5,20.3-63,26.6c-22.5,6.3-45.8,9.4-69.9,9.4s-47.4-3.2-69.7-9.4   c-22.4-6.3-43.2-15.2-62.7-26.6c-19.4-11.5-37.2-25.2-53.3-41.2S52.7,435.4,41.3,416c-11.4-19.4-20.2-40.3-26.5-62.7   C8.5,331,5.4,307.7,5.4,283.6L5.4,283.6L5.4,283.6z M46.9,283.6c0,20.2,2.6,39.8,7.9,58.7c5.3,18.9,12.8,36.6,22.4,53   c9.6,16.4,21.2,31.3,34.7,44.9c13.5,13.5,28.5,25.1,44.9,34.9s34,17.2,52.8,22.5c18.8,5.3,38.4,7.9,58.8,7.9s40.4-2.6,59.3-7.9   c18.9-5.3,36.6-12.8,53.1-22.5c16.5-9.7,31.4-21.3,44.9-34.9c13.4-13.5,25-28.5,34.6-44.9c9.6-16.4,17.1-34,22.4-52.8   c5.3-18.8,7.9-38.4,7.9-58.8s-2.7-40.1-7.9-59.1c-5.3-19-12.8-36.7-22.4-53.1s-21.1-31.3-34.6-44.9c-13.4-13.5-28.4-25.1-44.9-34.7   c-16.5-9.6-34.2-17.1-53.1-22.3c-18.9-5.3-38.7-7.9-59.3-7.9s-40,2.6-58.8,7.9c-18.8,5.3-36.4,12.8-52.8,22.3   c-16.4,9.6-31.3,21.2-44.9,34.7C98.4,140,86.8,155,77.2,171.4c-9.6,16.4-17.1,34.1-22.4,53.1C49.5,243.5,46.9,263.2,46.9,283.6   L46.9,283.6L46.9,283.6z M441.1,304.2H96.3v-41.8h344.8L441.1,304.2L441.1,304.2z"></path>
</g>
</svg>