<?xml version='1.0' encoding='utf-8'?>
<!-- Generator: Adobe Illustrator 27.2.0, SVG Export Plug-In . SVG Version: 6.00 Build 0)  --><svg xmlns="http://www.w3.org/2000/svg" xmlns:xlink="http://www.w3.org/1999/xlink" version="1.1" id="Vrstva_1" x="0px" y="0px" viewBox="0 0 779.4 566.9" style="enable-background:new 0 0 779.4 566.9;" xml:space="preserve" width="549.93823" height="400.0">
<g>
	<path d="M224.1,185.7c-43.7,2.1-158.1,22.9-206.1,62.5v62.5L5.6,331.7l12.5,64.6h52.1v-6.3c0-58.2,45.7-104.1,104.1-104.1   s104.2,45.7,104.2,104.1v6.3l241.4-2.1V392l0,0c0-56.2,45.7-104.1,104.2-104.1c54.1,0,99.9,41.6,104.2,95.8l45.7-18.8V196.2   c-177.1-87.4-214.6-87.4-397.7-87.4C328.3,102.6,224.1,185.7,224.1,185.7L224.1,185.7z"></path>
	<path d="M623.8,458.4c37.3,0,68.7-31.2,68.7-68.7s-31.2-68.7-68.7-68.7s-68.7,31.2-68.7,68.7C554.9,427.3,586.1,458.4,623.8,458.4z   "></path>
	<path d="M243,389.7c0,37.4-31.2,68.7-68.7,68.7s-68.7-31.3-68.7-68.7s31.2-68.7,68.7-68.7S243,352.2,243,389.7z"></path>
</g>
</svg>