<?xml version='1.0' encoding='utf-8'?>
<!-- Generator: Adobe Illustrator 27.2.0, SVG Export Plug-In . SVG Version: 6.00 Build 0)  --><svg xmlns="http://www.w3.org/2000/svg" xmlns:xlink="http://www.w3.org/1999/xlink" version="1.1" id="Vrstva_1" x="0px" y="0px" viewBox="0 0 516.4 566.9" style="enable-background:new 0 0 516.4 566.9;" xml:space="preserve" width="364.3676" height="400.0">
<g>
	<path d="M508.2,160.9h-58.5l-49.1-77.6c0,0-59.9-16.3-143-16.3s-143,16.3-143,16.3l-49.1,77.6H5.4v35.4h36.8L5.4,256.3v201.6   C5.4,485,27.3,500,39.5,500h44.9c10.9,0,34.1-13.6,34.1-42.2v-27.2h279.2v27.2c0,27.2,21.8,42.2,34.1,42.2h44.9   c10.8,0,34.1-13.6,34.1-42.2V254.9L474.1,195H511v-34.1L508.2,160.9L508.2,160.9z M134.9,113.2c5.5-1.4,13.6-2.8,24.5-4.1   c24.5-4.1,58.5-8.1,98.1-8.1s73.5,4.1,98.1,8.1c9.5,1.4,17.7,2.8,24.5,4.1l57.2,92.6H77.7L134.9,113.2L134.9,113.2z M465.9,303.9   h-91.2l-27.2,35.5H166.2L139,303.9H47.8v-42.2h159.4L229,289h55.8l20.5-27.2h160.8v42.2H465.9L465.9,303.9z"></path>
</g>
</svg>