<?xml version='1.0' encoding='utf-8'?>
<!-- Generator: Adobe Illustrator 27.2.0, SVG Export Plug-In . SVG Version: 6.00 Build 0)  --><svg xmlns="http://www.w3.org/2000/svg" xmlns:xlink="http://www.w3.org/1999/xlink" version="1.1" id="Vrstva_1" x="0px" y="0px" viewBox="0 0 393.4 566.9" style="enable-background:new 0 0 393.4 566.9;" xml:space="preserve" width="277.5798" height="400.0">
<g>
	<path d="M196.7,558.5C91.8,558.5,6.4,477.7,6.4,378.5V8.5H387v370C387,477.7,301.6,558.5,196.7,558.5L196.7,558.5L196.7,558.5z    M28.9,30.9v347.6c0,86.9,75.3,157.5,167.8,157.5s167.8-70.7,167.8-157.5V30.9H28.9L28.9,30.9z"></path>
	<path d="M196.7,401.4L36.5,241.2L196.7,81.1l160.1,160.1L196.7,401.4L196.7,401.4L196.7,401.4z M68.3,241.2l128.4,128.4   l128.4-128.4L196.7,112.8L68.3,241.2L68.3,241.2z"></path>
	<path d="M186.2,169.9c2.8,1.6,4.9,3.6,6.5,6.2c1.6,2.6,2.4,5.4,2.4,8.6s-0.8,6-2.3,8.6s-3.7,4.7-6.4,6.2s-5.9,2.3-9.3,2.3h-11.3   v19.6h-7.9v-53.8H177C180.4,167.6,183.4,168.4,186.2,169.9L186.2,169.9L186.2,169.9z M182,193.4c1.5-0.9,2.6-2.1,3.5-3.7   s1.3-3.2,1.3-5s-0.4-3.5-1.3-5s-2-2.8-3.5-3.7s-3.2-1.4-5-1.4h-11.3v20.2H177C178.9,194.8,180.6,194.3,182,193.4L182,193.4z"></path>
	<path d="M210.9,214.4h27.5v7H203v-53.8h34.8v7h-26.9v15.9h22.9v7h-22.9V214.4L210.9,214.4L210.9,214.4z"></path>
	<polygon points="176.8,297.7 140.6,297.7 140.6,281.2 171.3,281.2 221.6,243.4 231.5,256.6  "></polygon>
	<rect x="226.5" y="281.2" width="23.9" height="16.5"></rect>
</g>
</svg>