<?xml version='1.0' encoding='utf-8'?>
<!-- Generator: Adobe Illustrator 27.2.0, SVG Export Plug-In . SVG Version: 6.00 Build 0)  --><svg xmlns="http://www.w3.org/2000/svg" xmlns:xlink="http://www.w3.org/1999/xlink" version="1.1" id="Vrstva_1" x="0px" y="0px" viewBox="0 0 808.4 566.9" style="enable-background:new 0 0 808.4 566.9;" xml:space="preserve" width="570.4004" height="400.0">
<style type="text/css">
	.st0{fill-rule:evenodd;clip-rule:evenodd;}
</style>
<path class="st0" d="M763.3,113.3c-17.3-10.5-42.4-24.1-75.5-37.5c-65.6-27.2-161.5-53.9-283.7-53.9S186.3,48.6,120.5,75.8  C87.7,89.4,62.3,102.9,45,113.3c-8.4,5.2-31.3,21.3-41.5,29.2l165.8,331.4c14.9-5.3,31.6-10.2,37.8-12.1  c12.4-3.7,30.3-8.4,51.1-13.3c21-4.9,44.6-9.6,69.5-13.3L384.3,545l39.9-20.4l-48.6-94.4c9.6-0.6,19.2-0.9,28.8-0.9  c50.1,0,104,9.6,145.7,19.2c21,4.9,38.7,9.6,51.1,13.3c6.2,1.6,21,6.2,37.8,12.1l165.8-331.4C788.9,130,771.7,118.4,763.3,113.3  L763.3,113.3z M616,419.5c-0.9-0.3-1.6-0.6-2.5-0.9c-13-3.7-31.6-8.7-53.5-13.9c-43.6-10.2-101.1-20.4-155.9-20.4  c-17,0-34,0.9-50.8,2.5L226.5,140.6L186.6,161l119.5,232.3c-21,3.4-40.8,7.4-57.9,11.5c-21.7,5-40.5,10.2-53.4,13.9  c-0.9,0.3-1.6,0.6-2.5,0.9L60.7,156.2c2.2-1.5,4.9-3.1,7.7-4.9c15.5-9.3,38.7-21.7,69.6-34.4c61-25.1,151.2-50.5,266.7-50.5  S610,91.9,671.2,117c30.6,12.7,53.9,25.1,69.5,34.4c2.8,1.6,5.3,3.1,7.7,4.9L616,419.5L616,419.5z" fill="#FFCE63"></path>
</svg>