<?xml version='1.0' encoding='utf-8'?>
<!-- Generator: Adobe Illustrator 27.2.0, SVG Export Plug-In . SVG Version: 6.00 Build 0)  --><svg xmlns="http://www.w3.org/2000/svg" xmlns:xlink="http://www.w3.org/1999/xlink" version="1.1" id="Vrstva_1" x="0px" y="0px" viewBox="0 0 506.4 566.9" style="enable-background:new 0 0 506.4 566.9;" xml:space="preserve" width="357.31168" height="400.0">
<style type="text/css">
	.st0{fill-rule:evenodd;clip-rule:evenodd;}
</style>
<g>
	<path class="st0" d="M476.5,67.9V22.7h-22.6v45.2h-22.6V22.7h-22.6v45.2h-22.6v33.9c0,12.7,4.2,24,11.3,33.9   c5.7,7.1,12.7,12.7,19.8,17c4.2,1.4,7.1,2.8,11.3,4.2v166.8c0,12.7-11.3,19.8-19.8,19.8s-19.8-7.1-19.8-19.8V198   c0-32.5-26.8-48.1-48.1-48.1h-7.1V22.7H114.7v301.1h63.6v42.4c15.5,18.4,26.9,41,29.7,66.4h152.7v-26.9h-26.9V181   c2.8-1.4,4.2-1.4,7.1-1.4c9.9,0,19.8,7.1,19.8,19.8v125.8c0,32.5,28.3,48.1,48.1,48.1s48.1-15.5,48.1-48.1V158.4   c2.8,0,5.7-1.4,8.5-2.8c7.1-2.8,12.7-7.1,18.4-12.7s9.9-11.3,12.7-18.4s4.2-14.1,4.2-21.2V69.3h-24L476.5,67.9L476.5,67.9z    M196.6,309.6l14.1-94.7h-55.1l96.1-108.8l-14.1,96.1h55.1L196.6,309.6L196.6,309.6z"></path>
	<path class="st0" d="M130.2,377.4l11.3-28.3H109l-7.1,18.4c-4.2-1.4-9.9-1.4-15.5-1.4c-45.2,0-80.6,36.8-80.6,80.6   C5.8,475,21.4,500.4,44,516l-11.3,28.3h32.5l7.1-17c4.2,1.4,9.9,1.4,15.6,1.4c45.2,0,80.6-36.7,80.6-80.6   C168.4,417,152.8,391.6,130.2,377.4z M53.9,489.1c-12.7-9.9-21.2-25.4-21.2-42.4c0-29.7,24-53.7,53.7-53.7h4.2L53.9,489.1   L53.9,489.1z M86.4,500.4h-4.2l38.2-96.1c12.7,9.9,21.2,25.4,21.2,42.4C140.1,476.4,116.1,500.4,86.4,500.4L86.4,500.4z"></path>
</g>
</svg>