<?xml version='1.0' encoding='utf-8'?>
<!-- Generator: Adobe Illustrator 27.2.0, SVG Export Plug-In . SVG Version: 6.00 Build 0)  --><svg xmlns="http://www.w3.org/2000/svg" xmlns:xlink="http://www.w3.org/1999/xlink" version="1.1" id="Vrstva_1" x="0px" y="0px" viewBox="0 0 990.6 566.9" style="enable-background:new 0 0 990.6 566.9;" xml:space="preserve" width="698.9592" height="400.0">
<g>
	<path d="M6.6,343.1h64.5c0,30.8,13,40.4,42.9,40.4c33.5,0,43.3-9.1,43.3-28.8c0-17.3-13.3-25-38.9-30.8l-24.5-5.8   C43.4,306,8.7,279.1,8.7,214.2S40.8,108.5,114,108.5c81.1,0,103.5,51.4,103.5,113.4h-62.7c0-25.5-11.2-38.5-39.3-38.5   c-33.2,0-40.4,7.2-40.4,26.9c0,16.4,9.7,24.5,43.3,32.7l23.1,5.8c47.6,12,83.6,34.6,83.6,101.9S191.9,458.4,114,458.4   C32.5,458.4,6.9,410.8,6.6,343.1L6.6,343.1L6.6,343.1z"></path>
	<path d="M473.1,114.3l-96.6,211.5v126.9h-62V325.8l-96.6-211.5h70.7L347,240.7l55.5-126.4H473.1L473.1,114.3L473.1,114.3z"></path>
	<path d="M705.3,114.3v338.4h-37.5L546.7,271.9v180.8h-62V114.3h36l122.6,182.7V114.3H705.3L705.3,114.3z"></path>
	<path d="M729.8,283.5c0-99,51.9-175,126.9-175S974.6,172.4,983.3,245h-64.9c-7.6-30.8-27.8-59.6-60.2-59.6   c-41.8,0-63.5,43.7-63.5,98.1s21.3,98.1,63.5,98.1c35.3,0,53-24.5,61.6-61.5H984c-7.6,71.1-50.1,138.4-128.7,138.4   C780.3,458.4,729.8,382.5,729.8,283.5L729.8,283.5L729.8,283.5z"></path>
</g>
</svg>