<?xml version='1.0' encoding='utf-8'?>
<!-- Generator: Adobe Illustrator 27.2.0, SVG Export Plug-In . SVG Version: 6.00 Build 0)  --><svg xmlns="http://www.w3.org/2000/svg" xmlns:xlink="http://www.w3.org/1999/xlink" version="1.1" id="Vrstva_1" x="0px" y="0px" viewBox="0 0 735.4 566.9" style="enable-background:new 0 0 735.4 566.9;" xml:space="preserve" width="518.8922" height="400.0">
<g>
	<path d="M417.8,502.5c-44.2,10.2-90,6.9-132.3-8.5c-42.5-16.9-79.8-45.9-105.2-83.1c-25.4-37.3-39-81.5-40.6-127.3v-6.9l71.3,71.3   l27.1-27.1L122.5,205.3L5.4,322.4l27.1,27.1l71.3-71.3v6.9c0,56,18.8,110.2,50.9,154.4c34,44.2,79.8,78.1,132.3,95   s110.2,15.2,163-1.7c52.5-18.8,98.4-52.5,130.7-98.4h-47.5C502.6,466.9,462,490.6,417.8,502.5z"></path>
	<path d="M701.2,219.1L630,290.3v-6.9c0-69.6-27.1-137.5-76.3-186.7C504.5,47.6,436.6,20.5,367,20.5c-42.5,0-83.1,10.2-120.5,30.6   s-69.8,47.5-93.6,83.1h47.5c30.6-34,71.3-57.7,115.4-67.9s90-6.9,132.3,8.5c42.5,16.9,79.8,45.8,105.2,83.2   c25.4,37.3,39,81.5,40.7,127.3v6.9l-71.3-71.3L495.8,248l117.1,117.1L730,248L701.2,219.1L701.2,219.1z"></path>
</g>
</svg>