<?xml version='1.0' encoding='utf-8'?>
<!-- Generator: Adobe Illustrator 27.2.0, SVG Export Plug-In . SVG Version: 6.00 Build 0)  --><svg xmlns="http://www.w3.org/2000/svg" xmlns:xlink="http://www.w3.org/1999/xlink" version="1.1" id="Vrstva_1" x="0px" y="0px" viewBox="0 0 592.4 566.9" style="enable-background:new 0 0 592.4 566.9;" xml:space="preserve" width="417.9926" height="400.0">
<style type="text/css">
	.st0{fill-rule:evenodd;clip-rule:evenodd;}
</style>
<g>
	<g>
		<g>
			<path d="M253,94.7c-88.4,0-159.5,71.1-159.5,159.5c0,56.8,28.4,104.3,72.6,134.1V352c-26.8-23.6-44.2-58.5-44.2-97.9     c0-72.6,58.5-131.1,131.1-131.1s131.1,58.5,131.1,131.1c0,15.8-3.2,30-7.8,44.2h30c4.8-12.6,6.2-28.4,6.2-44.2     C412.5,165.8,341.3,94.7,253,94.7z"></path>
			<path d="M253,6.3c-137.5,0-248,110.5-248,247.9c0,94.7,52,175.3,131.1,218V439c-61.6-39.4-101-107.5-101-184.9     c0-120.1,97.9-218,218-218s218,97.9,218,218c0,14.3-1.6,28.4-4.8,44.2h30c3.2-14.3,4.8-28.4,4.8-44.2     C499.1,116.9,388.5,6.3,253,6.3L253,6.3z"></path>
		</g>
		<g>
			<circle cx="252.7" cy="254.1" r="72.6"></circle>
			<path class="st0" d="M253,356.9c-41,0-72.6,31.6-72.6,72.6v131.1h145.1V429.5C325.5,388.5,292.4,356.9,253,356.9L253,356.9z"></path>
		</g>
	</g>
	<g>
		<g>
			<path class="st0" d="M442.3,530.7h145.1v28.4H442.3L442.3,530.7L442.3,530.7z"></path>
			<path class="st0" d="M442.3,443.8h145.1v28.4H442.3L442.3,443.8L442.3,443.8z"></path>
			<path class="st0" d="M442.3,356.9h145.1v28.4H442.3L442.3,356.9L442.3,356.9z"></path>
		</g>
		<g>
			<path d="M398.1,560.6c7.8,0,14.3-6.2,14.3-14.3s-6.4-15.7-14.3-15.7s-14.3,6.2-14.3,14.3S390.3,560.6,398.1,560.6z"></path>
			<path d="M398.1,472.2c7.8,0,14.3-6.2,14.3-14.3s-6.2-14.3-14.3-14.3s-14.3,6.2-14.3,14.3S390.3,472.2,398.1,472.2z"></path>
			<path d="M398.1,385.3c7.8,0,14.3-6.2,14.3-14.3s-6.2-14.3-14.3-14.3s-14.3,6.2-14.3,14.3S390.3,385.3,398.1,385.3z"></path>
		</g>
	</g>
</g>
</svg>