<?xml version='1.0' encoding='utf-8'?>
<!-- Generator: Adobe Illustrator 27.2.0, SVG Export Plug-In . SVG Version: 6.00 Build 0)  --><svg xmlns="http://www.w3.org/2000/svg" xmlns:xlink="http://www.w3.org/1999/xlink" version="1.1" id="Vrstva_1" x="0px" y="0px" viewBox="0 0 734.4 566.9" style="enable-background:new 0 0 734.4 566.9;" xml:space="preserve" width="518.1866" height="400.0">
<style type="text/css">
	.st0{fill-rule:evenodd;clip-rule:evenodd;}
</style>
<g>
	<path d="M727.8,295.2v250.2H321.2V295.2l7.9,5.9l29.3,23.4l166.2,132.9l166.2-132.8l29.3-23.4L727.8,295.2L727.8,295.2z" fill="#F54C4C"></path>
	<path d="M700.5,267.9l-3.8,3.9L655.6,305L522.7,410.5L389.8,305l-41.1-33.3l-3.9-3.9H700.5z" fill="#F54C4C"></path>
	<path class="st0" d="M266.6,178c-25.4,23.4-39.1,56.7-41.1,89.9H6.6V144.7C92.5,68.5,233.3,21.5,356.5,21.5s265.8,47,349.9,123.2   v68.4H471.8c-5.8-13.7-15.7-25.4-25.4-35.1c-25.4-23.4-56.7-37.1-91.9-37.1C323.2,140.9,292,152.6,266.6,178L266.6,178z" fill="#F54C4C"></path>
</g>
</svg>