<?xml version='1.0' encoding='utf-8'?>
<!-- Generator: Adobe Illustrator 27.2.0, SVG Export Plug-In . SVG Version: 6.00 Build 0)  --><svg xmlns="http://www.w3.org/2000/svg" xmlns:xlink="http://www.w3.org/1999/xlink" version="1.1" id="Vrstva_1" x="0px" y="0px" viewBox="0 0 522.4 566.9" style="enable-background:new 0 0 522.4 566.9;" xml:space="preserve" width="368.60117" height="400.0">
<g>
	<path d="M222.3,483.9c-4.6,0-9,1.6-13.5,3l-43.5-43.2l-21.1,21.1l43.5,43.5c-1.6,4.6-3,9-3,13.5c0,21.1,16.5,37.6,37.6,37.6   s37.6-16.5,37.6-37.6C259.6,501.9,243.2,483.9,222.3,483.9L222.3,483.9z" fill="#FFCE63"></path>
	<path d="M222.3,310.3c-116.9,0-211.4,94.5-211.4,211.4v14.9h59.9v-30.1H41c2.9-38.9,18.1-73.4,42-102l24,24l21.1-21.1l-22.4-24   c28.5-24,62.9-38.9,102-42v30.1h30.1v-29.8c38.9,3,73.4,18.1,102,42l-24,24l21.1,21.1l44.9-45C343.6,338.7,286.7,310.3,222.3,310.3   L222.3,310.3z" fill="#FFCE63"></path>
	<polygon points="93.3,109.3 63.4,109.3 34.8,223.2 70.8,223.2  " fill="#FFCE63"></polygon>
	<polygon points="472.5,109.3 442.5,109.3 465,223.2 501,223.2  " fill="#FFCE63"></polygon>
	<polygon points="61.8,274.2 21.3,274.2 5,344.6 46.9,344.6  " fill="#FFCE63"></polygon>
	<polygon points="114.3,7.6 88.9,7.6 72.4,72 100.8,72  " fill="#FFCE63"></polygon>
	<polygon points="446.9,7.6 421.4,7.6 435,72 463.4,72  " fill="#FFCE63"></polygon>
	<path d="M403.6,96H366l-21.1-34.3c0,0-33-9-78-9c-44.9,0-78,9-78,9l-21.1,33h-37.6v30.1h19.5l-18.1,30.1v109.5   c0,11.9,11.9,16.5,16.5,16.5h22.4c6,0,16.5-6,16.5-16.5v-16.5H346v16.5c0,11.9,11.9,16.5,16.5,16.5h22.4c6,0,16.5-6,16.5-16.5   V156.4l-18.1-30.1h18.1V96H403.6L403.6,96z M208.7,88.5c3,0,4.6-1.6,7.5-1.6c11.9-1.6,30.1-4.6,50.9-4.6c20.8,0,38.9,1.6,50.9,4.6   c3,0,6,1.6,7.5,1.6l27,43.5H181.8L208.7,88.5L208.7,88.5z M156.3,155.8h223.3v16.5h-60l14.9,21.1h29.9l7.5,9V216H162.3v-13.6l7.5-9   h30.1l14.9-21.1h-60v-16.5L156.3,155.8L156.3,155.8z" fill="#FFCE63"></path>
	<rect x="473.9" y="290.7" width="43.5" height="184.2" fill="#FFCE63"></rect>
	<rect x="473.9" y="506.5" width="43.5" height="43.5" fill="#FFCE63"></rect>
</g>
</svg>