<?xml version='1.0' encoding='utf-8'?>
<!-- Generator: Adobe Illustrator 27.2.0, SVG Export Plug-In . SVG Version: 6.00 Build 0)  --><svg xmlns="http://www.w3.org/2000/svg" xmlns:xlink="http://www.w3.org/1999/xlink" version="1.1" id="Vrstva_1" x="0px" y="0px" viewBox="0 0 564.4 566.9" style="enable-background:new 0 0 564.4 566.9;" xml:space="preserve" width="398.23602" height="400.0">
<style type="text/css">
	.st0{fill-rule:evenodd;clip-rule:evenodd;}
</style>
<g>
	<path class="st0" d="M213.9,232.6v-10.5c0-32.9,28.4-61.5,61.5-61.5c13.5,0,25.5,3,35.9,10.5c22.5-6,44.9-10.5,69-10.5h13.5v-72   H139l69-58.5L188.6,7.6L94,88.6H5.5v250.3h155.8C168.9,297,188.4,261.1,213.9,232.6L213.9,232.6z M44.6,171.1H169v28.4H44.6V171.1z    M44.6,226.6H169v28.4H44.6V226.6z"></path>
	<polygon class="st0" points="363.9,283.5 363.9,421.6 474.8,421.6 474.8,394.5 392.3,394.5 392.3,283.5  "></polygon>
	<path class="st0" d="M377.3,199.6c-99,0-179.9,81-179.9,179.9v49.4L152.5,384L133,403.4l79.5,79.5l79.5-79.5L271,384l-44.9,44.9   v-49.4c0-84,69-152.8,152.8-152.8s152.8,69,152.8,152.8s-69,152.8-152.8,152.8c-40.4,0-79.5-15-106.4-43.4l-19.5,19.5   c32.9,32.9,78,50.9,125.9,50.9c99,0,179.9-81,179.9-179.9S477.8,199.6,377.3,199.6L377.3,199.6z"></path>
</g>
</svg>