<?xml version='1.0' encoding='utf-8'?>
<!-- Generator: Adobe Illustrator 27.2.0, SVG Export Plug-In . SVG Version: 6.00 Build 0)  --><svg xmlns="http://www.w3.org/2000/svg" xmlns:xlink="http://www.w3.org/1999/xlink" version="1.1" id="Vrstva_1" x="0px" y="0px" viewBox="0 0 628.4 566.9" style="enable-background:new 0 0 628.4 566.9;" xml:space="preserve" width="443.3939" height="400.0">
<style type="text/css">
	.st0{fill-rule:evenodd;clip-rule:evenodd;}
</style>
<g>
	<g>
		<g>
			<path d="M39.6,547.3c-10-6.7-18.4-15-23.3-26.6c-5.1-11.7-8.5-23.3-8.5-36.6s3.3-26.6,8.5-36.6c5.1-11.7,13.4-19.9,23.3-26.6     c10-6.7,23.3-10,36.6-10s25,3.3,35.1,8.5c10,6.7,18.4,15,25,25l-16.6,10c-5.1-8.5-10-13.4-18.4-18.4c-6.7-5-15-6.7-25-6.7     s-18.4,1.8-25,6.7c-6.7,5-13.4,11.7-16.6,19.9c-3.3,8.5-6.7,18.4-6.7,28.4s1.8,19.9,6.7,28.4c3.3,8.5,10,15,16.6,19.9     c6.7,5,15,6.7,25,6.7s16.6-1.8,25-6.7c6.7-5,13.4-10,18.4-18.4l18.4,10c-6.7,11.7-15,19.9-25,25c-10,6.7-21.7,8.5-35.1,8.5     C61.3,557.3,49.6,554,39.6,547.3L39.6,547.3z"></path>
			<path d="M77.9,560.1c-16.9-0.3-29.2-3.6-39.8-10.7l0,0c-11.8-7.9-19.7-17-24.2-27.7c-6-13.9-8.7-25.5-8.7-37.6     c0-13.3,3.2-27,8.7-37.7c4.7-10.9,12.4-19.7,24.2-27.6c10-6.7,23.5-10.4,38-10.4c12.7,0,24.9,2.9,36.2,8.7l0.2,0.1     c10.4,7,19.1,15.6,25.7,25.7l1.4,2.2l-21,12.6l-1.3-2.1c-4.9-8.1-9.4-12.7-17.6-17.6l-0.2-0.1c-5.7-4.3-12.9-6.2-23.5-6.2     s-17.9,2-23.5,6.2c-7.9,6-13.2,12.3-15.8,18.9c-3.4,8.7-6.5,18.1-6.5,27.5c0,10.8,2.1,19.9,6.4,27.1l0.2,0.4     c2.6,6.7,7.9,13,15.8,18.8c5.7,4.3,12.9,6.2,23.5,6.2c9.5,0,15.7-1.6,23.6-6.3l0.4-0.3c6.5-4.9,12.6-9.5,17.2-17.3l1.2-2.1     l22.8,12.3l-1.3,2.2c-6.8,11.9-15.5,20.6-25.9,25.9C102.6,559.1,88.7,560.1,77.9,560.1z M76.2,413.5c-13.3,0-26.2,3.5-35.2,9.5     c-11,7.4-18.1,15.5-22.4,25.5l-0.1,0.2c-5.2,10-8.2,22.9-8.2,35.4c0,11.3,2.6,22.3,8.3,35.6c4.2,10,11.4,18.1,22.4,25.5l0,0     c9.7,6.5,21.1,9.5,37,9.8c15.2,0,25.2-2.4,33.7-8l0.3-0.2c9.1-4.6,16.5-11.7,22.6-21.8l-14.1-7.6c-5,7.5-11.2,12.1-17.2,16.7     l-0.8,0.6c-8.7,5.1-15.8,7-26.2,7c-11.7,0-19.9-2.2-26.5-7.2c-8.6-6.3-14.4-13.3-17.4-20.8c-4.6-8-6.9-17.9-6.9-29.5     c0-10.2,3.3-20.1,6.9-29.3c3-7.5,8.9-14.5,17.5-21c6.6-4.9,15-7.2,26.5-7.2s19.8,2.2,26.4,7.1c8,4.8,13.1,9.6,17.9,17.1l12.3-7.3     c-6-8.5-13.6-15.9-22.7-22C99.4,416.2,88.1,413.5,76.2,413.5L76.2,413.5z"></path>
		</g>
		<g>
			<path d="M177.7,537.4h66.5v18.4h-86.7V412.5h21.7v124.9H177.7L177.7,537.4z"></path>
			<path d="M246.7,558.3H155V410h26.7v124.9h65L246.7,558.3L246.7,558.3z M160,553.3h81.7v-13.4h-64v-2.5h-1V415H160L160,553.3     L160,553.3z"></path>
		</g>
		<g>
			<path d="M262.6,412.5h21.7v143.2h-21.7V412.5L262.6,412.5z"></path>
			<path d="M286.8,558.1h-26.7V410h26.7V558.1z M265.1,553.1h16.7V415h-16.7V553.1z"></path>
		</g>
		<g>
			<path d="M464.2,412.5v143.2h-19.9v-91.6l-46.5,91.6h-13.4l-46.5-91.6v91.6h-19.9V412.5h16.7l56.5,114.9l56.5-114.9L464.2,412.5     L464.2,412.5z"></path>
			<path d="M466.8,558.1h-24.9v-83.7l-42.5,83.7h-16.5l-42.5-83.7v83.7h-24.9V410h20.7l55,111.8L446,410h20.7L466.8,558.1     L466.8,558.1z M446.8,553.1h14.9V415h-12.6l-58.1,118.1L333,415h-12.6v138.2h14.9v-99.5l50.6,99.5h10.3l50.6-99.5L446.8,553.1     L446.8,553.1z"></path>
		</g>
		<g>
			<path d="M597.5,555.6L584.1,524h-66.6l-13.4,31.7h-21.7l61.8-143.2h13.4l61.7,143.2H597.5L597.5,555.6z M525.8,505.8h51.6     l-26.6-61.7L525.8,505.8z"></path>
			<path d="M623.1,558.1h-27.3l-13.4-31.7h-63.3l-13.4,31.7h-27.2l64-148.2h16.7L623.1,558.1L623.1,558.1z M599.1,553.1h16.4     L556,415h-10.1l-59.7,138.2h16.2l13.4-31.7h69.9L599.1,553.1z M581.2,508.3h-59.1l28.6-70.7L581.2,508.3z M529.5,503.3h44.1     l-22.7-52.7L529.5,503.3L529.5,503.3z"></path>
		</g>
	</g>
	<g>
		<g>
			<path class="st0" d="M207.8,124.2v51.6h6.7c25,0,45-19.9,45-45.1c0-11.7-5-23.3-13.4-31.7h51.5v-6.7c0-25-19.9-45-45.1-45     c-11.7,0-23.3,5-31.7,13.4V9.4h-6.7c-25,0-45,19.9-45,45c0,11.7,5,23.3,13.4,31.7h-51.3v6.7c0,25,19.9,45.1,45.1,45.1     C187.7,135.9,199.4,130.9,207.8,124.2L207.8,124.2z"></path>
			<path d="M214.5,178.3h-9.2v-49.2c-8.1,5.4-18.5,9.5-28.6,11.2l-0.4,0c-12.8,0-24.8-4.9-33.7-13.9c-8.9-8.9-13.8-20.9-13.8-33.7     v-9.2H177c-6.6-8.4-10.3-18.7-10.3-29.2c0-12.8,4.9-24.8,13.9-33.7c8.9-8.9,20.9-13.8,33.7-13.8h9.2v48.3     c8.4-6.6,18.7-10.3,29.2-10.3c12.8,0,24.8,4.9,33.7,13.9c8.9,8.9,13.8,20.9,13.8,33.7v9.2h-48.4c6.6,8.4,10.3,18.7,10.3,29.2     c0,12.8-4.9,24.8-13.9,33.7C239.2,173.3,227.2,178.2,214.5,178.3L214.5,178.3z M210.3,173.3h4.2c23.9,0,42.5-18.7,42.5-42.6     c0-11-4.6-21.9-12.6-29.9l-4.3-4.3h55v-4.2c0-23.9-18.7-42.5-42.5-42.5c-11,0-21.9,4.6-29.9,12.6l-4.3,4.3V11.9h-4.2     c-23.9,0-42.5,18.7-42.5,42.5c0,11,4.6,21.9,12.6,29.9l4.3,4.3h-54.9v4.2c0,23.8,18.6,42.4,42.3,42.6c11-1.9,22.3-6.8,30.2-13.1     l4.1-3.3L210.3,173.3L210.3,173.3z"></path>
		</g>
		<g>
			<path class="st0" d="M452.6,26C429.3,26,411,44.4,411,67.6s18.4,41.6,41.6,41.6s41.6-18.4,41.6-41.6S477.5,26,452.6,26z      M452.6,92.6c-15,0-25-11.7-25-25c0-15,11.7-25,25-25c15,0,25,11.7,25,25C479.3,82.7,467.5,92.6,452.6,92.6z"></path>
			<path d="M452.6,111.8c-24.8,0-44.1-19.4-44.1-44.1s19.4-44.1,44.1-44.1s44.1,18.6,44.1,44.1S477.4,111.8,452.6,111.8z      M452.6,28.5c-21.9,0-39.1,17.2-39.1,39.1s17.2,39.1,39.1,39.1s39.1-17.2,39.1-39.1S475.3,28.5,452.6,28.5z M452.6,95.1     c-15.4,0-27.5-12.1-27.5-27.5s12.1-27.5,27.5-27.5s27.4,12,27.5,27.3c0.8,7.2-1.2,13.7-5.8,18.7     C469.3,91.9,461.4,95.1,452.6,95.1z M452.6,45.2c-10.9,0-22.5,7.9-22.5,22.5c0,10.9,7.9,22.5,22.5,22.5c7.3,0,13.9-2.6,18-7.2     c3.6-4,5.1-9.2,4.5-15v-0.3C475.1,56.7,467.2,45.2,452.6,45.2L452.6,45.2z"></path>
		</g>
		<g>
			<path class="st0" d="M462.6,132.6c-16.7-10-36.6-5.1-46.5,11.7l-53.4,86.5l-66.6-25.1c-11.7-5.1-26.6-1.8-35.1,8.5l-93.2,93.2     c-13.4,13.4-13.4,35.1,0,48.3c13.4,13.4,35.1,13.4,48.3,0l78.2-78.2l73.3,26.6c15,5,31.7,0,40-13.4l68.2-110     C482.5,162.5,477.5,142.6,462.6,132.6L462.6,132.6z M459.3,169.2l-68.2,110c-5,6.7-13.4,10-19.9,6.7l-78.2-28.4     c-3.3-1.8-6.7,0-8.5,1.8l-81.6,81.6c-6.7,6.7-16.6,6.7-23.3,0s-6.7-16.6,0-23.3l93.4-93.4c5-5.1,11.7-6.7,18.4-3.3l73.3,26.6     c3.3,1.8,8.5,0,10-3.3l56.5-91.6c5-8.5,15-10,23.3-5.1C460.8,150.9,464.2,161,459.3,169.2L459.3,169.2z"></path>
			<path d="M192,368.3c-9.8,0-19-3.8-26-10.8c-6.9-6.8-10.7-16-10.8-25.8c0-9.9,3.8-19.1,10.8-26.1l93.2-93.2     c9-10.8,24.9-14.6,37.9-9.1l64.6,24.4l52.3-84.8c5.1-8.6,13-14.7,22.2-17c9.2-2.3,19.1-0.8,27.8,4.4l0.1,0.1     c15.6,10.4,21.4,31.4,14.2,51.1l-0.1,0.2l-68.4,110.2c-8.8,14-26.4,20-42.9,14.4l-71.9-26.1l-77.1,77.1     c-6.8,6.9-16,10.7-25.8,10.8L192,368.3L192,368.3z M284.4,205.9c-8.1,0-16.2,3.5-21.5,9.9l-0.2,0.2l-93.2,93.2     c-6,6-9.3,14-9.3,22.5c0,8.4,3.3,16.3,9.3,22.2c6,6,14,9.3,22.5,9.3c0,0,0.1,0,0.1,0c8.4,0,16.3-3.3,22.2-9.3l79.3-79.4     l74.8,27.2c14.3,4.8,29.5-0.3,37-12.4l68.1-109.8c6.3-17.4,1.2-35.9-12.3-45c-7.5-4.5-16-5.8-23.9-3.8c-7.9,2-14.7,7.2-19.2,14.7     L363.7,234l-68.7-25.9C291.7,206.6,288.1,205.9,284.4,205.9L284.4,205.9z M191.2,348.4c-4.8,0-9.6-1.9-13.4-5.8     c-7.7-7.7-7.7-19.2,0-26.9l93.4-93.4c6-6,13.9-7.4,21.2-3.8l73.3,26.6l0.2,0.1c0.9,0.5,2.3,0.5,3.7,0.1c1.3-0.4,2.4-1.3,2.8-2.2     l0.1-0.3l56.5-91.6c5.5-9.2,16.7-11.8,26.7-5.9c3.7,1.9,6.5,5.6,7.8,10.1c1.4,5,0.7,10.5-2,14.9l0,0l-68.3,110.1l-0.1,0.1     c-6,7.9-15.6,11-22.9,7.5l-78.3-28.4l-0.2-0.1c-2.1-1.1-4.5,0.3-5.5,1.3l-81.6,81.6C200.8,346.5,196,348.4,191.2,348.4     L191.2,348.4z M284.1,221.6c-3.4,0-6.6,1.5-9.5,4.4l-93.4,93.4c-5.7,5.7-5.7,14.1,0,19.8s14.1,5.7,19.8,0l81.6-81.6     c2.7-2.7,7.2-4.4,11.2-2.3l78.2,28.4l0.1,0.1c5.2,2.6,12.2,0.1,16.8-5.9l68.2-109.9c2-3.3,2.5-7.2,1.4-11     c-0.9-3.2-2.9-5.8-5.3-7.1l-0.1-0.1c-7.6-4.5-15.8-2.8-19.9,4.2l-56.5,91.5c-1,2.1-3.1,3.8-5.7,4.7c-2.6,0.9-5.3,0.8-7.5-0.3     l-73.3-26.6l-0.1-0.1C288.1,222.1,286.1,221.6,284.1,221.6L284.1,221.6z"></path>
		</g>
	</g>
</g>
</svg>