<?xml version='1.0' encoding='utf-8'?>
<!-- Generator: Adobe Illustrator 27.2.0, SVG Export Plug-In . SVG Version: 6.00 Build 0)  --><svg xmlns="http://www.w3.org/2000/svg" xmlns:xlink="http://www.w3.org/1999/xlink" version="1.1" id="Vrstva_1" x="0px" y="0px" viewBox="0 0 495.4 566.9" style="enable-background:new 0 0 495.4 566.9;" xml:space="preserve" width="349.55017" height="400.0">
<style type="text/css">
	.st0{fill-rule:evenodd;clip-rule:evenodd;}
</style>
<g>
	<path class="st0" d="M50.8,472L50.8,472c0-3-1.4-7.5-1.4-10.5l0,0c0-30,23.9-55.5,55.5-55.5c4.5,0,7.5,0,10.5,1.4V30.2l0,0v-6.1   C103.2,13.8,88.2,7.9,71.8,7.9c-35.9,0-66,29.8-66,65.8l0,0v386.5c0,55.5,44.8,98.8,98.8,98.8h320.5v-43.4H104.8   C77.7,515.4,55.2,497.5,50.8,472L50.8,472z"></path>
	<path class="st0" d="M158.5,30.2V472h331V30.2H158.5z M410,180h-29.8l30,47.8v163.2c0,22.5-18,34.4-26.9,34.4h-35.9   c-8.9,0-26.9-12-26.9-34.4v-22.5H208.1v-30h142.2v52.3c0,3,0,4.5,1.4,4.5h28.5c0-1.4,1.4-1.4,1.4-4.5v-154l-12-18H206.6v-29.8   h145.2l-46.4-74.9c-4.5-1.4-12-1.4-19.5-3c-19.5-3-46.4-6.1-79.4-6.1V76.7c67.4,0,116.8,13.4,116.8,13.4l38.9,62.9h47.8V180   L410,180L410,180z M348.8,247.5v34.4h-61.5l-20.9,26.8h-58.5v-38.9h22.5l16.4-22.5h102L348.8,247.5L348.8,247.5z"></path>
</g>
</svg>