<?xml version='1.0' encoding='utf-8'?>
<!-- Generator: Adobe Illustrator 27.2.0, SVG Export Plug-In . SVG Version: 6.00 Build 0)  --><svg xmlns="http://www.w3.org/2000/svg" xmlns:xlink="http://www.w3.org/1999/xlink" version="1.1" id="Vrstva_1" x="0px" y="0px" viewBox="0 0 913.6 566.9" style="enable-background:new 0 0 913.6 566.9;" xml:space="preserve" width="644.62866" height="400.0">
<style type="text/css">
	.st0{fill-rule:evenodd;clip-rule:evenodd;}
</style>
<g>
	<path d="M843.4,205.9c0,51.7-41.9,93.6-93.5,93.6s-93.5-41.9-93.5-93.6s41.9-93.6,93.5-93.6S843.4,154.2,843.4,205.9L843.4,205.9z"></path>
	<path d="M909.8,486.7V499H592.3v-12.3c0-88.7,71.3-160,160-160C838.5,326.5,909.8,398,909.8,486.7L909.8,486.7z"></path>
	<path d="M254.8,205.9c0,51.7-41.9,93.6-93.6,93.6s-93.6-42-93.6-93.6s41.9-93.6,93.6-93.6S254.8,154.2,254.8,205.9L254.8,205.9z"></path>
	<path d="M321.3,486.7V499H3.7v-12.3c0-88.7,71.3-160,160-160S321.3,398,321.3,486.7L321.3,486.7z"></path>
	<path class="st0" d="M299,287.1c-2.5,4.8-4.8,7.5-7.5,12.3c51.7,34.5,86.1,91.2,96,155.2h115.8v-12.3c0-88.7-71.3-160-160-160   C328.6,282.2,313.8,284.8,299,287.1L299,287.1z M316.5,250.2c7.5,2.5,17.1,4.8,27.1,4.8c51.7,0,93.5-41.9,93.5-93.6   S395.2,68,343.5,68c-24.6,0-49.3,9.9-64.1,27.1c27.1,29.6,44.2,69,44.2,110.8C321.3,220.7,321.3,235.5,316.5,250.2L316.5,250.2z"></path>
	<path d="M501.1,272.3h135.4v44.2H501.1V272.3z"></path>
</g>
</svg>