<?xml version='1.0' encoding='utf-8'?>
<!-- Generator: Adobe Illustrator 27.2.0, SVG Export Plug-In . SVG Version: 6.00 Build 0)  --><svg xmlns="http://www.w3.org/2000/svg" xmlns:xlink="http://www.w3.org/1999/xlink" version="1.1" id="Vrstva_1" x="0px" y="0px" viewBox="0 0 534.4 566.9" style="enable-background:new 0 0 534.4 566.9;" xml:space="preserve" width="377.06827" height="400.0">
<g>
	<path d="M367.8,223.9c-87.9,0-160.5,72.3-160.5,160.5s72.4,160.2,160.5,160.2s160.5-72.3,160.5-160.4S457.3,223.9,367.8,223.9   L367.8,223.9z M419.1,453.8l-24.2-24.1l27.1-28.5H258.5v-33.9h163.2l-26.9-28.3l24.2-24.1l68.1,68.1L419.1,453.8L419.1,453.8z"></path>
	<path d="M6,22.3v349.1h161.8c7.1-100.8,86.5-181.6,185.9-185.9V22.3H6z M140.9,293.5H74v-34.1h66.6v34.1H140.9L140.9,293.5z    M193.4,212.6H72.6v-32.7h120.7V212.6z M285.6,133h-213v-32.5h211.5v32.7h1.5L285.6,133L285.6,133z"></path>
</g>
</svg>