<?xml version='1.0' encoding='utf-8'?>
<!-- Generator: Adobe Illustrator 27.2.0, SVG Export Plug-In . SVG Version: 6.00 Build 0)  --><svg xmlns="http://www.w3.org/2000/svg" xmlns:xlink="http://www.w3.org/1999/xlink" version="1.1" id="Vrstva_1" x="0px" y="0px" viewBox="0 0 823.4 566.9" style="enable-background:new 0 0 823.4 566.9;" xml:space="preserve" width="580.98425" height="400.0">
<style type="text/css">
	.st0{fill:#7F8584;}
	.st1{fill:#66B6D3;}
</style>
<g>
	<g>
		<g>
			<path d="M441,422.3c-9.7-14.8-30-28.4-49.9-25.8l-196.6,22.2l20.9-97.5c0.6-2.6,0-5.4-1.7-7.6L103.5,166.9     c-1.7-2.3-4.5-3.7-7.4-3.7H22.9c-2.8,0-5.6,1.2-7.3,3.6c-1.7,2.3-2.5,5.1-1.7,7.9l86.4,369.3c0.9,4.2,4.8,7.1,9,7.1H405     c3.5,0,6.8-2,8.3-5.2l32.6-68.9c2.5-4.8,5.2-12.8,5.2-23.5C451.2,441.8,446,429.7,441,422.3L441,422.3L441,422.3z M437.6,472.7     L405,541.8H109.3L22.9,172.5h73.4l110.2,146.8l-23.6,110.2l209.5-23.6c15.1-2.2,32.5,8.6,41,21.6c4.8,7.3,8.6,17.3,8.6,25.8     S439.8,468.4,437.6,472.7L437.6,472.7L437.6,472.7z"></path>
			<path d="M405,559H109.3c-8,0-15.1-5.6-16.8-13.4L6.2,176.6c-1.3-5-0.2-10.1,3-14.6c3.1-4.3,8.3-6.8,13.7-6.8h73.2     c5.5,0,10.7,2.6,13.9,7l110.1,146.7c3.1,4,4.3,9.2,3.1,14.2l-18.5,86.6l185.4-21c24.2-3.1,46.8,13,57.5,29.3     c5.6,8.4,11.5,22.1,11.5,35.5s-3.8,22.5-6.1,27l-32.5,68.8C417.7,555.2,411.6,559.1,405,559L405,559z M115.6,533.8h284.3     l30.5-64.6c1.3-2.6,3.5-8.1,3.5-15.9c0-6.2-2.9-14.6-7.3-21.4c-6.7-10.3-21-19.9-33.1-18.1l-0.2,0l-220.6,24.9l25.2-117.5     L92.3,180.5H33L115.6,533.8L115.6,533.8z"></path>
		</g>
		<g>
			<path d="M72.6,15.9H22.9c-5.1,0-9.3,4.2-9.3,9.3v99.5c0,5.1,4.2,9.3,9.3,9.3h73.4c5.1,0,9.3-4.2,9.3-9.3V51.3     C105.5,32.4,90.1,15.9,72.6,15.9z M96.3,124.7H22.9V25.1h49.8c12.8,0,23.6,13.1,23.6,26.1L96.3,124.7L96.3,124.7z"></path>
			<path d="M96.3,141.9H22.9c-9.5,0-17.3-7.8-17.3-17.3V25.1c0-9.5,7.7-17.3,17.3-17.3h49.8c21.8,0,40.9,20.3,40.9,43.4v73.4     C113.6,134.2,105.8,141.9,96.3,141.9L96.3,141.9z M30.9,116.7h57.4V51.3c0-9.1-7.8-18.1-15.6-18.1H30.9     C30.9,33.2,30.9,116.7,30.9,116.7z"></path>
		</g>
	</g>
	<g>
		<path class="st0" d="M789.5,185.4H621c-15.1,0-28.1-13-28.1-28.1s13-28.1,28.1-28.1h168.4c15.1,0,28.1,13,28.1,28.1    S806.8,185.4,789.5,185.4z"></path>
		<path class="st0" d="M789.5,336.6H621c-15.1,0-28.1-13-28.1-28.1s13-28.1,28.1-28.1h168.4c15.1,0,28.1,13,28.1,28.1    C817.4,323.7,806.8,336.6,789.5,336.6z"></path>
		<path class="st0" d="M789.5,485.5H621c-15.1,0-28.1-13-28.1-28.1s13-28.1,28.1-28.1h168.4c15.1,0,28.1,13,28.1,28.1    C819.6,472.7,806.8,485.5,789.5,485.5z"></path>
	</g>
	<path class="st1" d="M489.2,159.5c2.2-4.3,1.7-12.4,0-21.5c-4.3-25.8-25.8-45.4-53.9-45.4c-25.8,0-49.8,19.5-53.9,45.4h-2.2V49.3   c-4.3-2.2-12.4-2.5-21.5,0c-25.8,6.5-45.4,28.1-45.4,53.9s19.5,49.8,45.4,53.9v2.2h-88.5c-2.2,4.3-2.5,11.6,0,21.5   c6.5,25.8,28.1,45.4,53.9,45.4s49.8-19.5,53.9-45.4h2.2v88.5c4.3,2.2,13.3,2.2,21.5,0c25.8-6.5,45.4-28.1,45.4-53.9   s-19.5-49.8-45.4-53.9v-2.2L489.2,159.5L489.2,159.5z"></path>
</g>
</svg>