<?xml version='1.0' encoding='utf-8'?>
<!-- Generator: Adobe Illustrator 27.2.0, SVG Export Plug-In . SVG Version: 6.00 Build 0)  --><svg xmlns="http://www.w3.org/2000/svg" xmlns:xlink="http://www.w3.org/1999/xlink" version="1.1" id="Vrstva_1" x="0px" y="0px" viewBox="0 0 960.6 566.9" style="enable-background:new 0 0 960.6 566.9;" xml:space="preserve" width="677.79144" height="400.0">
<path d="M762.2,153.6l29.9-39.7c4.8-5.3,9.5-9.6,14.2-12.9c4.7-3.3,10.4-6.2,17.2-8.9s14.8-4,23.8-4c8.1,0,17.2,0.9,27.4,2.8  s20.2,4.2,30.1,6.8s18.9,5.4,27.2,8.3s22.9,8.6,23.3,10.2s-24,42.2-24,42.2c-3,0-22.4-8.1-29.3-10.8c-6.9-2.6-15.1-5.1-24.6-7.4  c-9.5-2.3-20.2-3.4-32.4-3.4c-3,0-5.7,0.1-8.1,0.4c-2.4,0.2-23.7,29.5-26.7,32.6c-3,3-5.8,5.8-8.3,8.3c3,1.3,6.5,2,10.4,2.3  c3.9,0.2,18.4,0.4,18.4,0.4c10.8,0,20.3,0.4,28.4,1.3c8.1,0.9,15.5,3.4,22.3,7.4c6.8,4,13.4,10.2,19.7,18.6  c6.3,8.3,13.1,20.1,20.4,35.2c2.8,5.6,5.7,12.2,8.9,19.9c3.2,7.7,6.1,16,8.9,25c2.8,9,5.1,18.4,6.8,28.2c1.8,9.9,2.7,19.8,2.7,29.9  v1.5c0,12.6-1.5,23.2-4.3,31.8c-2.9,8.6-6.8,15.5-11.7,20.8c-4.9,5.3-10.7,9.1-17.4,11.4c-6.7,2.3-35.3,1.5-37.3,1.5  s-4.3,1.7-6.8,5.1c-2.5,3.4-5.6,7.6-9.3,12.5c-3.7,4.9-8.1,10.4-13.2,16.3c-5.2,5.9-11.5,11.4-19.1,16.3s-16.4,9.1-26.5,12.5  c-10.1,3.4-21.8,5.1-35.2,5.1c-10.1,0-20-1.5-29.7-4.4c-9.7-2.9-18.7-7.1-27.1-12.7c-8.3-5.5-15.8-12.3-22.3-20.2  S677,426.9,673,417.1c-1-0.8-302.8,0-377.7,0c-10.1,19.7-24,35.3-41.8,46.9c-17.8,11.6-37.6,17.4-59.6,17.4c-10.6,0-21-1.5-31-4.5  c-10.1-3-19.4-7.3-28-12.9c-8.6-5.5-16.2-12.3-22.9-20.2c-6.7-8-12-16.8-16.1-26.7H41.3c-10.4,0-18-3.2-23.1-9.6  s-8.5-13.9-10.4-22.3S5,368.4,5.1,360.3c0.1-8.1,0.2-13.9,0.2-17.4c0-19.2,1.3-35.4,3.8-48.8c2.5-13.4,6.8-24.4,12.7-32.9  c5.9-8.6,13.8-15.1,23.5-19.5c9.7-4.4,21.8-7.2,36.1-8.5c12.4-2.8,152.8-20.1,163.9-20.1c3.5-3,26.4-21.6,32.2-27.6  c6.3-6.8,14.2-14.5,23.8-23.1c9.6-8.6,20.3-17.1,32.2-25.6c11.9-8.4,24.6-16.5,38.2-24c29.2-16.2,72.2-23.8,88.6-25.2  c16.4-1.4,33.3-2.1,50.7-2.1c26,0,51,1.3,74.9,4c24,2.7,46.7,6.7,68.1,12.1c21.4,5.4,41.3,12.4,59.4,21  C731.6,131.2,747.9,141.5,762.2,153.6L762.2,153.6L762.2,153.6L762.2,153.6z M260,367l442.8,0.2v10.2c0,8.8,1.8,16.9,5.3,24.2  c3.5,7.3,8.2,13.6,14,18.9c5.8,5.3,12.6,9.4,20.4,12.3c7.8,2.9,16,4.4,24.6,4.4s17.2-1.5,25-4.4s14.7-7,20.6-12.3s10.6-11.6,14-18.9  c3.4-7.3,5.1-15.4,5.1-24.2v-10.2h9.8c3-1,41.4,0,44.7,0h5.3c2-0.2,3.5-1.1,4.3-2.5c0.9-1.4,1.3-4.6,1.3-9.7  c0-14.4-2.1-28.9-6.2-43.5c-4.2-14.6-8.8-27.8-14-39.4c-5.2-11.6-9.8-20.9-14-28c-4.2-7.1-6.2-10.3-6.2-9.8l-4.9-1.1h-69.6  c-1.8,0-5.4-2.5-10.8-7.4c-5.4-4.9-13-11-22.7-18.2s-21.8-15.1-36.3-23.6c-14.5-8.6-31.7-16.5-51.7-23.6  c-19.9-7.2-42.8-13.2-68.5-18.2c-25.7-4.9-54.6-7.4-86.7-7.4c-17.9,0-34.2,1.3-48.8,3.8c-14.6,2.5-28.3,6.2-40.9,11.2  c-12.6,4.9-24.7,11-36.3,18.4c-11.6,7.3-23.3,15.8-35.2,25.4c-7.3,6.1-13.8,11.7-19.5,17c-5.7,5.3-10.7,10-15,14.2  s-43.1,37.2-44.7,38.4c0,0-43.7,3.1-57,4.7s-26.9,3.4-40.9,5.1c-14,1.8-28,3.5-41.8,5.3c-13.9,1.8-26.9,3.4-39,4.9  c-10.6,1.3-16.5,4.9-20.6,7.6c-5.8,3.7-9.6,39.4-10.2,44.7c-0.6,5.3-0.9,10.4-0.9,15.1v5.3c0,2,0.1,3.9,0.4,5.5  c0.2,1.6,0.8,3,1.7,4.2c0.9,1.1,2.3,1.7,4.4,1.7h70v5.3c0,8.8,1.7,16.9,5.1,24.2s8,13.6,13.8,18.9s12.6,9.4,20.4,12.3  c7.8,2.9,16.1,4.4,25,4.4s16.8-1.5,24.6-4.4s14.6-7,20.4-12.3c5.8-5.3,10.5-11.6,14-18.9c3.5-7.3,5.3-15.4,5.3-24.2L260,367L260,367  L260,367L260,367L260,367L260,367z"></path>
</svg>