<?xml version='1.0' encoding='utf-8'?>
<!-- Generator: Adobe Illustrator 27.2.0, SVG Export Plug-In . SVG Version: 6.00 Build 0)  --><svg xmlns="http://www.w3.org/2000/svg" xmlns:xlink="http://www.w3.org/1999/xlink" version="1.1" id="Vrstva_1" x="0px" y="0px" viewBox="0 0 536.4 566.9" style="enable-background:new 0 0 536.4 566.9;" xml:space="preserve" width="378.47946" height="400.0">
<g>
	<path d="M532.8,199.1H57.6v112.1l9.5-4c18.3-8.2,37.2-11.5,56.7-11.5c79,0,143.2,64.1,143.2,143.2c0,16.8-2.7,33-8.8,49.2l-3.4,8.8   h277.5V199.1H532.8L532.8,199.1z"></path>
	<path d="M119,58l-4,0.7l-63.5,8.8l-10.8,1.3l6.1,8.8l47.9,70.2l2.7,3.4l4-0.6l62.8-8.8l10.8-1.3l-6.1-8.8l-47.9-70.2L119,58L119,58   L119,58z"></path>
	<path d="M237.2,41.1l-4,0.7l-62.8,8.8l-10.8,1.3l6.1,8.8l47.9,70.2l2.7,3.4l4-0.6l62.8-8.8l10.8-1.3l-6.1-8.8l-47.9-70.2   C239.9,44.4,237.2,41.1,237.2,41.1z"></path>
	<path d="M356,24.2l-4,0.6l-63.5,8.8L277.7,35l6.1,8.8l47.9,70.9l2.7,3.4l4-0.7l62.8-8.8l10.8-1.3l-6.1-8.8L358,28.2L356,24.2   C356,24.2,356,24.2,356,24.2z"></path>
	<path d="M474.1,8l-4,0.6l-62.8,8.8l-10.8,1.3l6.1,8.8l47.9,70.2l2.7,3.4l4-0.7l62.8-8.8l10.8-1.3l-6.1-8.8l-47.9-70.2   C476.8,11.4,474.1,8,474.1,8z"></path>
	<path d="M123.8,318.6c-66.2,0-120.2,54-120.2,120.1s54,120.2,120.2,120.2S244,504.9,244,438.7C243.9,372,189.9,318.6,123.8,318.6   L123.8,318.6L123.8,318.6z M137.3,511.6h-27.1v-99.2h27v99.2H137.3L137.3,511.6z M123.8,394.9c-10.1,0-18.3-8.2-18.3-18.3   s8.2-18.3,18.3-18.3s18.3,8.2,18.3,18.3C141.9,386.7,133.9,394.9,123.8,394.9z"></path>
</g>
</svg>