<?xml version='1.0' encoding='utf-8'?>
<!-- Generator: Adobe Illustrator 27.2.0, SVG Export Plug-In . SVG Version: 6.00 Build 0)  --><svg xmlns="http://www.w3.org/2000/svg" xmlns:xlink="http://www.w3.org/1999/xlink" version="1.1" id="Vrstva_1" x="0px" y="0px" viewBox="0 0 788.4 566.9" style="enable-background:new 0 0 788.4 566.9;" xml:space="preserve" width="556.2886" height="400.0">
<g>
	<path d="M5.1,484.5h778.2V5.9H5.1V484.5z M744.4,400.5c0,14.7-12.1,26.6-27,26.6H71c-14.9,0-27-11.9-27-26.6V70.7   c0-14.7,12.1-26.6,27-26.6h646.4c14.9,0,27,11.9,27,26.6V400.5z"></path>
	<rect x="5.1" y="522.8" width="778.2" height="38.3"></rect>
	<path d="M305,193.5l-45.6,104.9h-26.7l-20.9-48l-20.4,48h-26.7l-45.6-104.9h40.4l18.9,50.1l20.6-50.1h24.1l23.4,51.6l21.3-51.6   L305,193.5L305,193.5L305,193.5z"></path>
	<path d="M487.3,193.5l-45.6,104.9h-26.7l-20.9-48l-20.4,48h-26.7l-45.6-104.9H342l18.9,50.1l20.6-50.1h24.1l23.4,51.6l21.3-51.6   L487.3,193.5L487.3,193.5z"></path>
	<path d="M669.6,193.5l-45.6,104.9h-26.7l-20.8-48l-20.4,48h-26.7l-45.6-104.9h40.4l18.9,50.1l20.6-50.1h24.1l23.4,51.6l21.3-51.6   L669.6,193.5L669.6,193.5z"></path>
	<rect x="28.6" y="507.4" width="47" height="15.7"></rect>
	<rect x="90.7" y="507.4" width="47" height="15.7"></rect>
	<rect x="152.9" y="507.4" width="47" height="15.7"></rect>
	<rect x="215" y="507.4" width="47" height="15.7"></rect>
	<rect x="277.1" y="507.4" width="47" height="15.7"></rect>
	<rect x="339.3" y="507.4" width="47" height="15.7"></rect>
	<rect x="401.4" y="507.4" width="47" height="15.7"></rect>
	<rect x="463.6" y="507.4" width="47" height="15.7"></rect>
	<rect x="525.7" y="507.4" width="47" height="15.7"></rect>
	<rect x="587.9" y="507.4" width="47" height="15.7"></rect>
	<rect x="650" y="507.4" width="47" height="15.7"></rect>
	<rect x="712.1" y="507.4" width="47" height="15.7"></rect>
</g>
</svg>