<?xml version='1.0' encoding='utf-8'?>
<!-- Generator: Adobe Illustrator 27.2.0, SVG Export Plug-In . SVG Version: 6.00 Build 0)  --><svg xmlns="http://www.w3.org/2000/svg" xmlns:xlink="http://www.w3.org/1999/xlink" version="1.1" id="Vrstva_1" x="0px" y="0px" viewBox="0 0 557.4 566.9" style="enable-background:new 0 0 557.4 566.9;" xml:space="preserve" width="393.29688" height="400.0">
<path d="M228.1,47.2c62.4,0,114.5,46,123.4,107h47.4c16.4,0,31.3,5.8,43.1,14.9c13.3,8.9,23.8,23.8,29.7,38.6  c5.8,16.4,5.8,32.6,1.4,49c-4.5,14.9-13.3,28.2-23.8,38.6L325.9,418.7c-3.1,3.1-4.5,5.8-5.8,8.9c-1.4,4.5-3.1,7.5-3.1,12  s1.4,8.9,3.1,12c1.4,4.5,4.5,7.5,7.5,10.4c3.1,3.1,5.8,5.8,10.4,7.5c4.6,1.5,7.5,3.1,12,3.1s8.9-1.4,12-3.1  c4.5-1.4,7.5-4.5,10.4-7.5l0,0l145.6-145.7l35.7,35.7L406.4,496.1l0,0c-7.5,7.5-16.4,13.3-26.7,17.8c-10.4,4.5-20.8,5.8-31.3,5.8  s-20.8-1.4-31.3-5.8c-10.4-4.4-19.3-10.4-26.7-17.8s-13.3-16.4-17.8-26.7c-4.5-10.4-5.8-20.8-5.8-31.3s1.4-20.8,5.8-31.3  c4.5-10.4,10.4-19.3,17.8-26.7l0,0l124.8-124.8l4.5-4.4c3.1-3.1,4.5-5.8,5.8-10.4c1.4-5.8,1.4-11.9,0-17.8  c-1.4-5.8-5.8-10.4-10.4-14.9c-4.5-3.1-10.4-5.8-16.4-5.8h-46c-4.5,65.4-57.9,117.4-123.4,117.4H118.2v-49H3.7v-49h113v-74.6H3.7  v-49h112.9V47.2L228.1,47.2L228.1,47.2z"></path>
</svg>