<?xml version='1.0' encoding='utf-8'?>
<!-- Generator: Adobe Illustrator 27.2.0, SVG Export Plug-In . SVG Version: 6.00 Build 0)  --><svg xmlns="http://www.w3.org/2000/svg" xmlns:xlink="http://www.w3.org/1999/xlink" version="1.1" id="Vrstva_1" x="0px" y="0px" viewBox="0 0 538.4 566.9" style="enable-background:new 0 0 538.4 566.9;" xml:space="preserve" width="379.89066" height="400.0">
<g>
	<path d="M454.9,458.7c25.6,0,41.3-8.5,52.7-17c5.6-5.6,14.3-8.5,25.6-11.4v-28.5c-19.9,2.9-28.5,11.4-38.4,17   c-10,7.1-19.9,11.4-38.4,11.4s-27-4.3-38.4-11.4c-8.5-5.6-17-11.4-28.5-14.3v31.4c2.9,0,8.5,2.9,11.4,5.6   C415,450.2,429.3,458.7,454.9,458.7L454.9,458.7z" fill="#F54C4C"></path>
	<path d="M493.5,505.7c-11.4,5.6-19.9,11.4-38.4,11.4s-27-4.3-38.4-11.4c-14.3-8.5-28.5-17-55.5-17c-25.6,0-41.3,8.5-52.7,17   c-10,7.1-19.9,11.4-38.4,11.4c-17,0-27-4.3-38.4-11.4c-11.4-8.5-25.6-17-52.7-17s-41.3,8.5-55.5,17c-11.4,7.1-19.9,11.4-38.4,11.4   c-17,0-25.6-5.6-38.4-11.4c-11.4-5.6-19.9-14.3-41.3-17v28.5c11.4,2.9,17,5.6,25.6,11.4c11.4,8.5,25.6,17,52.7,17s41.3-8.5,52.7-17   c8.5-5.6,19.9-11.4,38.4-11.4s27,4.3,38.4,11.4c14.3,8.5,28.5,17,55.5,17c25.6,0,41.3-8.5,55.5-17c11.4-7.1,19.9-11.4,38.4-11.4   s27,4.3,38.4,11.4c11.4,8.5,25.6,17,52.7,17s41.3-8.5,52.7-17c7.1-5.6,14.3-8.5,25.6-11.4v-28.5   C513.4,491.5,504.8,500.1,493.5,505.7L493.5,505.7z" fill="#F54C4C"></path>
	<path d="M88.9,458.7c-25.6,0-41.3-8.5-52.7-17c-8.5-5.6-14.3-8.5-25.6-11.4v-28.5c19.9,2.9,28.5,11.4,38.4,17   c11.4,7.1,19.9,11.4,38.4,11.4s27-4.3,38.4-11.4c8.5-5.6,17-11.4,28.5-14.3v31.4c-2.9,0-8.5,2.9-11.4,5.6   C128.8,450.2,114.5,458.7,88.9,458.7L88.9,458.7z" fill="#F54C4C"></path>
	<path d="M271.3,488.6c48.4,0,88.3-38.4,88.3-88.3c0-31.4-17-59.8-44.2-75.4v-69.8h42.8v-29.9h-42.8v-42.8h42.8v-29.9h-42.8v-42.8   h42.8V79.9h-42.8V65.6c0-12.9-5.6-22.8-12.9-31.4c-7.1-7.1-18.5-12.9-31.4-12.9c-12.9,0-22.8,5.6-31.4,12.9   c-7.1,7.1-12.9,18.5-12.9,31.4v259.2c-27,15.6-44.2,44.2-44.2,75.4C184.3,450.2,222.9,488.6,271.3,488.6L271.3,488.6z M262.8,55.6   c2.9-2.9,5.6-4.3,10-4.3c4.3,0,7.1,1.5,10,4.3s4.3,7.1,4.3,10v217.9h-28.5V65.6C258.4,62.7,259.9,58.5,262.8,55.6L262.8,55.6z" fill="#F54C4C"></path>
</g>
</svg>