<?xml version='1.0' encoding='utf-8'?>
<!-- Generator: Adobe Illustrator 27.2.0, SVG Export Plug-In . SVG Version: 6.00 Build 0)  --><svg xmlns="http://www.w3.org/2000/svg" xmlns:xlink="http://www.w3.org/1999/xlink" version="1.1" id="Vrstva_1" x="0px" y="0px" viewBox="0 0 594.4 566.9" style="enable-background:new 0 0 594.4 566.9;" xml:space="preserve" width="419.40378" height="400.0">
<g>
	<path d="M378.7,177.3v31.8c-28.7,9.7-50.9,30.4-63.7,57.4h-38.3c9.7-20.7,23.9-39.8,41.5-55.7C333.9,194.9,356.3,183.8,378.7,177.3   L378.7,177.3z" fill="#FFCE63"></path>
	<path d="M378.7,112v31.8c-31.8,6.4-62.2,20.7-86.1,43c-23.9,22.4-41.5,49.5-50.9,81.3h-31.8c9.7-39.8,30.4-74.9,60.5-103.7   C298.9,135.9,337.2,118.5,378.7,112L378.7,112z" fill="#FFCE63"></path>
	<path d="M378.7,48.4v31.8c-49.5,6.4-94,27.1-130.6,62.2c-35,33.4-60.5,78.1-68.5,125.9h-33.4c9.7-57.4,36.6-110,79.6-148.3   C265.5,78.5,319.7,53.2,378.7,48.4L378.7,48.4z" fill="#FFCE63"></path>
	<path d="M461.4,258.6c-27.1,0-52.5,8-74.9,23.9s-38.3,36.6-47.8,62.2H48.6L4.1,389.3l81.3,74.9l36.6-36.6l38.3,46.3l41.5-36.6   l44.6,52.5l41.5-57.4h52.5c6.4,17.5,15.9,31.8,27.1,44.6c12.7,12.7,27.1,23.9,43,30.4c15.9,6.4,33.4,11.1,50.9,11.1   s35-3.2,50.9-11.1c15.9-6.4,30.4-17.5,43-30.4c12.7-12.7,20.7-28.7,27.1-44.6c6.4-17.5,8-35,8-52.5c-1.7-17.5-6.4-35-14.2-50.9   c-11.1-20.7-27.1-38.3-47.8-50.9C507.8,265.1,485.4,258.6,461.4,258.6L461.4,258.6L461.4,258.6z M502.9,425.9   c-8,0-14.2-1.7-20.7-6.4c-6.4-3.2-11.1-9.7-14.2-15.9c-3.2-6.4-3.2-14.2-1.7-20.7c1.7-6.4,4.8-12.7,9.7-17.5   c3.2-3.2,8-6.4,12.7-9.7c4.8-1.7,11.1-3.2,15.9-1.7c4.8,0,11.1,1.7,15.9,4.8c4.8,3.2,8,6.4,11.1,11.1c4.8,6.4,6.4,15.9,6.4,23.9   c-1.7,8-4.8,15.9-11.1,22.4c-3.2,3.2-8,6.4-12.7,8C512.4,426,507.7,426,502.9,425.9L502.9,425.9L502.9,425.9z" fill="#FFCE63"></path>
</g>
</svg>