<?xml version='1.0' encoding='utf-8'?>
<!-- Generator: Adobe Illustrator 27.2.0, SVG Export Plug-In . SVG Version: 6.00 Build 0)  --><svg xmlns="http://www.w3.org/2000/svg" xmlns:xlink="http://www.w3.org/1999/xlink" version="1.1" id="Vrstva_1" x="0px" y="0px" viewBox="0 0 254.4 566.9" style="enable-background:new 0 0 254.4 566.9;" xml:space="preserve" width="179.50255" height="400.0">
<g>
	<g>
		<polygon points="130.7,549.6 13.8,415.4 13.8,341.6 129.9,474.9 240.6,341.9 240.6,417.7   " fill="#53A7F5"></polygon>
		<path d="M130.8,561.9L5.8,418.4v-98.1l123.9,142.3l118.8-142.8v100.8L130.8,561.9L130.8,561.9z M21.8,412.4l108.7,124.9l102-122.5    V364L130,487.2L21.8,363L21.8,412.4L21.8,412.4z" fill="#53A7F5"></path>
	</g>
	<g>
		<polygon points="14.3,257.8 14.3,185.4 129.9,318.1 240.1,185.7 240.1,260 130.7,391.4   " fill="#53A7F5"></polygon>
		<path d="M130.8,403.8L6.3,260.8v-96.8l123.5,141.7l118.4-142.1v99.3L130.8,403.8L130.8,403.8z M22.3,254.8l108.2,124.3l101.6-122    v-49.3L130,330.4L22.3,206.8V254.8L22.3,254.8z" fill="#53A7F5"></path>
	</g>
	<g>
		<path d="M14.9,186.6l114.4,131.4l0.8,0.8l0.8-0.8l109.1-131v72.7L130.8,390.7L15.1,257.5L14.9,186.6 M13.8,184.2V258l116.7,134.2    l110.1-131.9v-75.8l-110.8,133L13.8,184.2L13.8,184.2L13.8,184.2z" fill="#53A7F5"></path>
		<path d="M130.6,404.5L5.8,261v-98.2l123.8,142.3l119-142.7v100.8L130.6,404.5L130.6,404.5z M23,254.5l107.6,123.8L232,256.9v-47.7    l-95.2,114.3l-6.7,6.7l-6.8-6.8L22.9,208.1L23,254.5L23,254.5z" fill="#53A7F5"></path>
	</g>
	<g>
		<path d="M14.9,29.2l114.4,131.4l0.8,0.8l0.8-0.8L240,29.7v72.7L130.8,233.2L14.9,100.1L14.9,29.2 M13.8,26.6v73.8l116.7,134.2    l110.1-131.9V27.1L129.7,160L13.8,26.6L13.8,26.6L13.8,26.6z" fill="#53A7F5"></path>
		<path d="M130.6,246.9L5.8,103.4V5.2l123.8,142.5L248.6,5v100.6L130.6,246.9L130.6,246.9z M22.9,97.1l107.8,123.8L232,99.5V51.8    l-95.2,114.3l-6.7,6.7l-6.8-6.8L22.9,50.6V97.1L22.9,97.1z" fill="#53A7F5"></path>
	</g>
</g>
</svg>