<?xml version='1.0' encoding='utf-8'?>
<!-- Generator: Adobe Illustrator 27.2.0, SVG Export Plug-In . SVG Version: 6.00 Build 0)  --><svg xmlns="http://www.w3.org/2000/svg" xmlns:xlink="http://www.w3.org/1999/xlink" version="1.1" id="Vrstva_1" x="0px" y="0px" viewBox="0 0 850.4 566.9" style="enable-background:new 0 0 850.4 566.9;" xml:space="preserve" width="600.0353" height="400.0">
<style type="text/css">
	.st0{fill-rule:evenodd;clip-rule:evenodd;}
</style>
<path class="st0" d="M670,109.7c-96.1,0-173.7,77.7-173.7,173.7c0,43.5,15.9,82.4,41.1,112H310.8c25.1-29.6,41.1-70.9,41.1-112  c0-96.1-77.7-173.7-173.7-173.7S4.4,187.4,4.4,283.5s77.7,173.7,173.7,173.7h494c96.1,0,173.7-77.7,173.7-173.7  S768.3,109.7,670,109.7L670,109.7z M63.9,283.5c0-61.7,50.3-112,112-112s112,50.3,112,112s-50.3,112-112,112  C114.2,397.9,63.9,347.6,63.9,283.5z M670,397.9c-61.7,0-112-50.3-112-112s50.3-112,112-112s112,50.3,112,112S733.9,397.9,670,397.9  z"></path>
</svg>