<?xml version='1.0' encoding='utf-8'?>
<!-- Generator: Adobe Illustrator 27.2.0, SVG Export Plug-In . SVG Version: 6.00 Build 0)  --><svg xmlns="http://www.w3.org/2000/svg" xmlns:xlink="http://www.w3.org/1999/xlink" version="1.1" id="Vrstva_1" x="0px" y="0px" viewBox="0 0 1367.8 566.9" style="enable-background:new 0 0 1367.8 566.9;" xml:space="preserve" width="965.10846" height="400.0">
<g>
	<path d="M198.1,402.6H85.7l-15.9,50H6.4l112.4-338.3h50.5l111,338.3H214L198.1,402.6L198.1,402.6z M176.5,335.4l-34.6-109.1   l-34.6,109.1H176.5z"></path>
	<path d="M294.7,114.3h62v338.3h-62L294.7,114.3L294.7,114.3z"></path>
	<path d="M489.3,341.1h-33.2v111.5h-62V114.3h118.2c52.2,0,87.9,49,87.9,113.4c0,44.2-17.7,80.3-47.6,98l63.4,126.9h-73.5   L489.3,341.1L489.3,341.1L489.3,341.1z M456.1,270h46.1c19.5,0,33.2-16.8,33.2-42.3s-14.8-40.4-33.2-40.4h-46.1V270L456.1,270z"></path>
	<path d="M846.8,346.9c0,66.3-37.1,105.7-89.4,105.7h-124V114.3h122.5c40.4,0,79.3,33.6,79.3,94.2c0,25.9-10.5,44.7-25.2,59.1   C832.7,283.9,846.8,312.8,846.8,346.9L846.8,346.9L846.8,346.9z M695.4,185.4v65.3h51.9c15.5,0,26-13,26-32.7   c0-17.8-10.5-32.7-26-32.7L695.4,185.4L695.4,185.4z M781.9,348.8c0-17.3-11.9-32.7-27.4-32.7h-59.1v65.4h59.1   C770,381.5,781.9,369,781.9,348.8L781.9,348.8L781.9,348.8z"></path>
	<path d="M1034.2,402.6H921.7l-15.9,50h-63.4l112.4-338.3h50.4l111,338.3H1050L1034.2,402.6L1034.2,402.6z M1012.5,335.4   l-34.6-109.1l-34.6,109.1H1012.5L1012.5,335.4L1012.5,335.4z"></path>
	<path d="M1361.4,452.6h-41.8l-14.1-31.7c-15.5,21.1-40,37.5-73.9,37.5c-68.8,0-128.3-70.2-128.3-174.9   c0-96.1,55.1-174.9,134.1-174.9c62,0,107,41.8,124,111.5h-66.7c-13.3-23.6-33.9-34.6-57.3-34.6c-38.9,0-69.2,36.5-69.2,96.1   c0,64.9,33.2,101.9,70.6,101.9c26.3,0,48.3-11,62-33.1v-20.7h-72.1v-69.2h132.6L1361.4,452.6L1361.4,452.6L1361.4,452.6z"></path>
</g>
</svg>