<?xml version='1.0' encoding='utf-8'?>
<!-- Generator: Adobe Illustrator 27.2.0, SVG Export Plug-In . SVG Version: 6.00 Build 0)  --><svg xmlns="http://www.w3.org/2000/svg" xmlns:xlink="http://www.w3.org/1999/xlink" version="1.1" id="Vrstva_1" x="0px" y="0px" viewBox="0 0 672.4 566.9" style="enable-background:new 0 0 672.4 566.9;" xml:space="preserve" width="474.4399" height="400.0">
<g>
	<path d="M183.7,149.9h175.8l-41.3,41.3l35.9,35.9l102.3-102.3L354.1,22.4l-35.9,35.9l41.3,41.3H183.7C85,99.6,6.1,178.6,6.1,277.2   S85,454.8,183.7,454.8v-50.3c-70,0-127.3-57.3-127.3-127.3C58.1,207.3,113.7,149.9,183.7,149.9L183.7,149.9z"></path>
	<polygon points="625,323.8 537.1,361.6 556.8,401 607.1,377.6 607.1,544.5 655.4,544.5 655.4,323.8  "></polygon>
	<path d="M312.9,404.5l41.3-41.3l-35.9-35.9L216,429.7L318.4,532l35.9-35.9l-41.3-41.3h186.6v-52H312.9L312.9,404.5L312.9,404.5z"></path>
	<path d="M616.1,277.2h50.3c0-98.7-78.9-177.6-177.6-177.6v50.3C560.3,149.9,616,207.2,616.1,277.2L616.1,277.2z"></path>
</g>
</svg>