<?xml version='1.0' encoding='utf-8'?>
<!-- Generator: Adobe Illustrator 27.2.0, SVG Export Plug-In . SVG Version: 6.00 Build 0)  --><svg xmlns="http://www.w3.org/2000/svg" xmlns:xlink="http://www.w3.org/1999/xlink" version="1.1" id="Vrstva_1" x="0px" y="0px" viewBox="0 0 527.4 566.9" style="enable-background:new 0 0 527.4 566.9;" xml:space="preserve" width="372.12912" height="400.0">
<style type="text/css">
	.st0{fill-rule:evenodd;clip-rule:evenodd;}
</style>
<g>
	<path class="st0" d="M472.9,288.7c-30.1-30.1-70.4-46.6-112.5-46.6c-31.5,0-61.5,9-88.5,27c-27,17.9-46.6,41.9-58.6,72   c-12,28.5-14.9,61.5-9,91.5c5.9,31.5,21.1,58.6,43.5,81c3,3,5.9,5.9,9,7.5l0,0c21.1,17.9,45,30.1,73.4,36c30.1,5.9,61.5,3,91.5-9   c16.5-5.9,30.1-14.9,43.5-27l0,0c3-3,5.9-5.9,9-9c1.6-1.6,3-3,5.9-5.9c4.6-5.9,9-12,13.6-17.9c17.9-25.5,27-57,27-88.5   C519.4,359.3,502.9,318.8,472.9,288.7L472.9,288.7z M360.5,284.4c33,0,61.5,27,61.5,61.5s-27,61.5-61.5,61.5s-61.5-27-61.5-61.5   C300.4,311.4,327.4,284.4,360.5,284.4z M411.4,522.6c-24,10.6-50.9,12-76.5,7.5c-25.5-4.6-49.6-17.9-67.5-36c-1.6-1.6-3-3-3-4.6   c14.9-37.5,52.5-64.5,95.9-64.5s81,27,95.9,66.1C444.4,503.1,427.9,515.3,411.4,522.6L411.4,522.6z"></path>
	<path class="st0" d="M249.5,234.8c33-22.6,72-34.4,111-34.4l0,0c45,0,89.9,14.9,124.5,43.5c12-37.4,17.9-84,17.9-129   c0-41.9-3-70.4-10.6-108h-55.5v9c-1.6,17.9-3,33-4.6,46.6h-35.9c3.2-15,6.1-34.6,7.5-55.7h-52.5c0,14.9-4.6,34.4-25.5,61.4   c-17.9,22.6-45,48-67.5,64.5c-66.1,49.6-137.9,93.1-251.9,150H200C211.9,264.8,229.9,246.8,249.5,234.8L249.5,234.8z M382.9,104.3   L382.9,104.3l39-1.6c-5.9,17.9-16.5,39-31.5,66.1c0,1.6-1.6,3-1.6,4.6h-41.9C366.4,143.2,381.3,113.4,382.9,104.3L382.9,104.3z"></path>
</g>
</svg>