<?xml version='1.0' encoding='utf-8'?>
<!-- Generator: Adobe Illustrator 27.2.0, SVG Export Plug-In . SVG Version: 6.00 Build 0)  --><svg xmlns="http://www.w3.org/2000/svg" xmlns:xlink="http://www.w3.org/1999/xlink" version="1.1" id="Vrstva_1" x="0px" y="0px" viewBox="0 0 245.4 566.9" style="enable-background:new 0 0 245.4 566.9;" xml:space="preserve" width="173.15222" height="400.0">
<g>
	<path d="M154,7.5c-22.5,0-44.9,9-59.8,25.5C77.8,49.4,68.8,70.4,68.8,92.8v349.8c0,14.9,6,28.5,16.4,38.9s23.9,16.4,38.9,16.4   s28.5-6,38.9-16.4c9-10.4,14.9-23.9,14.9-38.9V173.4h-34.3v269.2c0,6-1.5,10.4-6,14.9c-4.6,4.6-9,6-14.9,6s-10.4-1.5-14.9-6   c-4.6-4.6-4.6-9-4.6-14.9V92.8c0-13.5,6-27,14.9-35.9c9-9,22.5-14.9,35.9-14.9s27,6,35.9,14.9c9,9,14.9,22.5,14.9,35.9v350   c0,21-9,41.9-23.9,58.4C166,516,145,525.1,122.4,525.1c-21,0-41.9-9-58.4-23.9c-14.9-14.9-23.9-35.9-23.9-58.4V173.5H6v269.2   c0,31.4,12,59.8,34.3,82.3c22.5,22.5,50.8,34.3,82.3,34.3s59.8-12,82.3-34.3c22.5-22.5,34.3-50.7,34.3-82.3v-350   c0-22.5-9-44.9-25.5-59.8C197.5,16.4,176.5,7.5,154,7.5L154,7.5z"></path>
</g>
</svg>