<?xml version='1.0' encoding='utf-8'?>
<!-- Generator: Adobe Illustrator 27.2.0, SVG Export Plug-In . SVG Version: 6.00 Build 0)  --><svg xmlns="http://www.w3.org/2000/svg" xmlns:xlink="http://www.w3.org/1999/xlink" version="1.1" id="Vrstva_1" x="0px" y="0px" viewBox="0 0 365.4 566.9" style="enable-background:new 0 0 365.4 566.9;" xml:space="preserve" width="257.82324" height="400.0">
<style type="text/css">
	.st0{fill-rule:evenodd;clip-rule:evenodd;}
</style>
<g>
	<rect x="4.6" y="529.7" width="290.5" height="29.9" fill="#FFCE63"></rect>
	<path class="st0" d="M109.3,137.4c-5.9,4.5-10.4,10.4-15,17.9c-3,7.5-5.9,15-5.9,22.4h29.9c0-7.5,3-10.4,10.4-16.5   c5.9-4.5,10.4-10.4,15-17.9c3-7.5,5.9-15,5.9-22.4s-1.4-15-5.8-22.5c-3-7.5-9.1-13.4-15-17.9c-7.5-7.5-10.4-10.4-10.4-16.5   c0-7.5,3-10.4,10.4-16.5c5.9-4.5,10.4-10.4,15-17.9c3-7.5,5.9-15,5.9-22.4h-29.9c0,7.5-3,10.4-10.4,16.5   c-5.9,4.5-10.4,10.4-15,17.9c-3,7.5-5.9,15-5.9,22.4s1.6,15,5.9,22.4c3,7.5,9.1,13.4,15,17.9c7.5,7.5,10.4,10.4,10.4,16.5   C119.8,128.4,116.8,131.5,109.3,137.4L109.3,137.4z" fill="#FFCE63"></path>
	<path class="st0" d="M155.6,86.6c3,7.5,9.1,13.4,15,17.9c7.5,7.5,10.4,10.4,10.4,16.5c0,7.5-3,10.4-10.4,16.5   c-5.9,4.5-10.4,10.4-15,17.9c-3,7.5-5.9,15-5.9,22.4h29.9c0-7.5,3-10.4,10.4-16.5c5.9-4.5,10.4-10.4,15-17.9c3-7.5,5.9-15,5.9-22.4   s-1.6-15-5.9-22.4c-3-7.5-9.1-13.4-15-17.9c-7.5-7.5-10.4-10.4-10.4-16.5c0-7.5,3-10.4,10.4-16.5l-19.5-22.4   c-5.9,4.5-10.4,10.4-15,17.9c-3,7.5-5.9,15-5.9,22.4C151.3,73,152.7,80.5,155.6,86.6L155.6,86.6z" fill="#FFCE63"></path>
	<path class="st0" d="M296.4,239.2h-15v-39H19.4v251.6c0,15,5.9,28.5,15,39c10.4,10.4,24,16.5,37.4,16.5h152.6   c15,0,28.5-5.9,37.4-16.5c10.4-10.4,15-24,15-39V377h15c37.4,0,68.9-31.5,68.9-68.9S333.8,239.2,296.4,239.2L296.4,239.2z    M249.9,451.9c0,5.9-1.6,12-5.9,16.5c-4.5,4.5-10.4,7.5-16.5,7.5H73.3c-5.9,0-12-3-16.5-7.5c-4.5-4.5-5.9-10.4-5.9-16.5V231.8   h199.1v220.1H249.9L249.9,451.9z M296.4,345.6h-15v-76.4h15c20.9,0,39,16.5,39,39C333.8,329,317.5,345.6,296.4,345.6L296.4,345.6z" fill="#FFCE63"></path>
</g>
</svg>