<?xml version='1.0' encoding='utf-8'?>
<!-- Generator: Adobe Illustrator 27.2.0, SVG Export Plug-In . SVG Version: 6.00 Build 0)  --><svg xmlns="http://www.w3.org/2000/svg" xmlns:xlink="http://www.w3.org/1999/xlink" version="1.1" id="Vrstva_1" x="0px" y="0px" viewBox="0 0 686.4 566.9" style="enable-background:new 0 0 686.4 566.9;" xml:space="preserve" width="484.3182" height="400.0">
<style type="text/css">
	.st0{fill-rule:evenodd;clip-rule:evenodd;}
</style>
<g>
	<path class="st0" d="M229.4,211.9l95.5,95.5l58.8,36.7l3.7,29.3l23.9,23.9l34.9-34.9c1.8-1.9,3.7-5.6,5.6-7.4   c-23.9-14.6-38.6-36.7-47.7-62.5l-18.4-36.7h-88.1L257.2,221v-1.9c-5.6-7.4-11-9.3-18.4-9.3C236.7,210,233,210,229.4,211.9   L229.4,211.9z M493.8,349.6v3.7c0,1.9-1.8,5.6-3.7,9.3c-3.7,7.4-7.4,18.4-16.5,25.8l-49.7,49.3l0,0l-12.8,12.8l-58.8-58.8   l-3.7-23.9L301,338.5L174.4,211.9l12.8-12.8c12.8-12.8,31.1-22.1,49.5-23.9s36.7,5.6,49.5,20.2l27.6,23.9h71.6   c12.8,0,27.6,7.4,34.9,22.1l20.2,38.6v1.9c5.6,22.1,20.2,38.6,42.3,47.7l14.7,5.6C497.4,333.1,493.8,349.6,493.8,349.6L493.8,349.6   z" fill="#F54C4C"></path>
	<path class="st0" d="M5.5,283.4c0-91.8,40.4-179.9,99.2-238.6l25.6,25.8C77,123.8,42.2,200.9,42.2,283.5s34.9,159.8,88.1,213   l-25.8,25.8C45.7,463.5,5.5,375.2,5.5,283.4L5.5,283.4z" fill="#F54C4C"></path>
	<path class="st0" d="M583.8,44.8c60.6,60.6,99.2,146.8,99.2,238.6s-40.4,179.9-99.2,238.6L558,496.3c53.2-53.2,88.1-130.3,88.1-213   s-34.9-159.6-88.1-213L583.8,44.8L583.8,44.8z" fill="#F54C4C"></path>
	<path class="st0" d="M343.3,59.5c-124.8,0-225.8,101-225.8,225.8s101,225.8,225.8,225.8s225.8-101,225.8-225.8S468,59.5,343.3,59.5   L343.3,59.5z M80.7,283.4c0-145,117.5-262.5,262.5-262.5s262.5,117.5,262.5,262.5S488.3,546,343.3,546   C198.1,547.8,80.7,430.3,80.7,283.4L80.7,283.4z" fill="#F54C4C"></path>
</g>
</svg>