<?xml version='1.0' encoding='utf-8'?>
<!-- Generator: Adobe Illustrator 27.2.0, SVG Export Plug-In . SVG Version: 6.00 Build 0)  --><svg xmlns="http://www.w3.org/2000/svg" xmlns:xlink="http://www.w3.org/1999/xlink" version="1.1" id="Vrstva_1" x="0px" y="0px" viewBox="0 0 702.4 566.9" style="enable-background:new 0 0 702.4 566.9;" xml:space="preserve" width="495.60767" height="400.0">
<g>
	<rect x="621.5" y="30" width="74.8" height="288" fill="#FFCE63"></rect>
	<rect x="621.5" y="378" width="74.8" height="61.7" fill="#FFCE63"></rect>
	<polygon points="78.8,248.9 121.9,248.9 148.1,117.9 112.5,117.9  " fill="#FFCE63"></polygon>
	<polygon points="6.1,542.7 63.9,542.7 110.7,308.8 65.7,308.8  " fill="#FFCE63"></polygon>
	<polygon points="123.8,73.1 157.4,73.1 166.8,24.3 136.9,24.3  " fill="#FFCE63"></polygon>
	<path d="M451.2,114.3l-9.3-1.8c-3.8-1.8-11.2-1.8-18.7-3.8c-16.9-1.8-41.1-5.6-73-5.6c-29.8,0-56.1,3.8-73,5.6   c-7.5,1.8-14.9,1.8-18.7,3.8l-7.5,1.8l-24.5,39.2H176v45h22.5L176.1,234v140.4c0,14.9,14.9,22.4,22.4,22.4h29.8   c7.5,0,22.4-7.5,22.4-22.4v-22.5h205.8v22.5c0,14.9,14.9,22.4,22.4,22.4h29.8c7.5,0,22.4-7.5,22.4-22.4V235.8l-22.4-35.4h22.4v-45   h-56.1L451.2,114.3L451.2,114.3z M279,155.3c1.8,0,3.8,0,7.5-1.8c14.9-1.8,37.4-5.6,65.5-5.6s50.6,1.8,65.5,5.6   c1.8,0,5.6,0,7.5,1.8l31.8,50.6H247.3L279,155.3L279,155.3z M481.1,247v39.2h-20.5l-14.9-22.4h-37.4l-22.4-29.8h85.9L481.1,247   L481.1,247z M292.1,263.8h-37.4l-14.9,22.4h-20.5v-39.2l7.5-13.1h86.1L292.1,263.8z" fill="#FFCE63"></path>
</g>
</svg>