<?xml version='1.0' encoding='utf-8'?>
<!-- Generator: Adobe Illustrator 27.2.0, SVG Export Plug-In . SVG Version: 6.00 Build 0)  --><svg xmlns="http://www.w3.org/2000/svg" xmlns:xlink="http://www.w3.org/1999/xlink" version="1.1" id="Vrstva_1" x="0px" y="0px" viewBox="0 0 820.4 566.9" style="enable-background:new 0 0 820.4 566.9;" xml:space="preserve" width="578.8675" height="400.0">
<style type="text/css">
	.st0{fill:#7F8584;}
	.st1{fill:#C83C24;}
</style>
<g>
	<g>
		<g>
			<path d="M494.5,418.6c-8.3-11.4-19.2-18.3-26.9-22.1c-3-1.5-6.5-1.2-9.3,0.7c-2.7,1.9-4,5.3-3.4,8.6c1,6.3,4.6,18.4,8.7,32.3     c4.6,15.3,9.6,32.9,10.8,40.6c0.4,2.8,2.2,5.3,4.7,6.6c1.3,0.6,2.7,1,4.1,1s2.8-0.3,4.1-1c0.9-0.4,8.7-4.7,12.2-12.5     c2.5-5.3,5.2-12.4,5.2-23.3C504.8,439.1,500.9,427.2,494.5,418.6L494.5,418.6L494.5,418.6z M491.7,469.1     c-2.5,5.3-8.4,8.4-8.4,8.4c-2.1-15.2-17.3-60.2-19.5-73.2c8.6,4.3,17.3,10.8,23.6,19.5c5.3,7.2,8.6,17.3,8.6,25.8     S494.2,463.7,491.7,469.1L491.7,469.1z"></path>
			<path d="M483.3,492.3c-2.7,0-4.9-0.8-6.6-1.5l-0.4-0.2c-4.2-2.2-7.1-6.3-7.8-11c-0.9-5.8-4.5-19.2-10.6-39.8     c-4.4-14.6-7.8-26.4-8.9-33c-1-5.5,1.3-11.2,5.8-14.4l0.1-0.1c4.6-3.1,10.5-3.6,15.4-1.1c8.3,4.1,20.1,11.7,29,23.9     c7.1,9.6,11.5,22.7,11.5,34.4s-3.1,20.2-5.7,25.9c-4.3,9.5-13.5,14.6-14.8,15.3C488.1,491.7,485.8,492.3,483.3,492.3L483.3,492.3     z M473.3,417.5c1.4,5,3.1,10.6,4.8,16.4c3.2,11.1,6.6,22.4,8.8,31.3c1.9-4.3,3.1-8.8,3.1-15.6c0-7.4-2.9-16.1-7.4-22.3     C479.8,423.5,476.6,420.2,473.3,417.5L473.3,417.5z"></path>
		</g>
		<g>
			<path d="M244.5,493.5c-1.9-14-13.4-47.6-19.6-65.8c-0.9-2.8-1.8-5.2-2.4-6.9c-1.3-3.8-5-6.3-9-6l-20.6,1.3l21.2-100.6     c0.4-2.5,0-5-1.5-7.1L104.9,160c-1.6-2.4-4.3-3.7-7.2-3.7H24.5c-2.7,0-5.3,1.2-6.9,3.4c-1.6,2.1-2.4,4.9-1.8,7.5l84.2,370.6     c0.9,4,4.4,6.9,8.7,6.9H225c2.4,0,4.6-0.9,6.2-2.7C242.8,530.4,247.3,514,244.5,493.5L244.5,493.5L244.5,493.5z M225,535.7H108.8     L24.5,165.2h73.2l107.7,148.6l-23.6,112l32.3-2.1c4.4,13.1,19.6,55.9,21.7,71.1S235.8,525,225,535.7L225,535.7L225,535.7z"></path>
			<path d="M225,552.7H108.8c-8,0-14.8-5.4-16.5-13.2L8,169c-1.1-4.9,0.1-10.1,3.2-14.1c3.1-4.1,8-6.6,13.3-6.6h73.2     c5.5,0,10.7,2.6,13.8,7.1l107.6,148.3c2.7,3.8,3.7,8.4,2.9,13.2l-0.1,0.3l-19.1,90.3l10.1-0.6c7.5-0.6,14.6,4.1,17.1,11.4     c0.2,0.7,0.5,1.4,0.7,2.1c0.5,1.4,1.1,3.1,1.7,4.9l0.1,0.3c8.6,25.3,18,53.4,19.8,66.9l0,0c3.2,23.1-2,41.7-15.4,55.2     C233.9,550.9,229.6,552.7,225,552.7L225,552.7z M115.1,527.7h106.3c6.1-7.6,8.2-18.3,6.4-31.9c-1.7-12.3-13.3-46.3-18.9-62.6     c-0.1-0.4-0.3-0.8-0.4-1.2l-36.7,2.4l25-118.8L93.6,173.2H34.6L115.1,527.7L115.1,527.7z"></path>
		</g>
		<g>
			<path d="M73.8,15.9c-0.6-0.1-1-0.1-1.6-0.1H22.6c-4.9,0-8.8,4-8.8,8.9v99.3c0,4.9,4,8.9,8.8,8.9H98c4.9,0,8.8-4,8.8-8.8V50.5     C106.8,32.7,90,18.8,73.8,15.9z M98,123.9H22.6V24.6h49.6C84.9,26.9,98,37.7,98,50.5L98,123.9L98,123.9z"></path>
			<path d="M98,140.7H22.6c-9.3,0-16.8-7.6-16.8-16.8V24.6c0-9.3,7.6-16.9,16.8-16.9h49.6c0.8,0,1.9,0,3.3,0.3     c19.4,3.6,39.4,20.5,39.4,42.5v73.3C114.8,133.2,107.3,140.7,98,140.7z M30.6,115.9H90V50.5c0-8.3-9.7-16-18.6-18H30.6     C30.6,32.6,30.6,115.9,30.6,115.9z"></path>
		</g>
	</g>
	<g>
		<path class="st0" d="M786.9,180.4H616.8c-15.2,0-27.9-12.8-27.9-27.9s12.8-27.9,27.9-27.9h169.9c15.2,0,27.9,12.8,27.9,27.9    S804,180.4,786.9,180.4L786.9,180.4L786.9,180.4z"></path>
		<path class="st0" d="M786.9,331.1H616.8c-15.2,0-27.9-12.8-27.9-27.9s12.8-27.9,27.9-27.9h169.9c15.2,0,27.9,12.8,27.9,27.9    S804,331.1,786.9,331.1L786.9,331.1L786.9,331.1z"></path>
		<path class="st0" d="M786.9,481.9H616.8c-15.2,0-27.9-12.8-27.9-27.9s12.8-28,27.9-28h169.9c15.2,0,27.9,12.8,27.9,27.9    S804,481.9,786.9,481.9L786.9,481.9L786.9,481.9z"></path>
	</g>
	<g>
		<path class="st1" d="M269.6,451.1c0.4,1.2,1.6,4.3,2.1,5.3c3.4,9,8.3,22.1,10.2,36.4c1.9,15.2,0.1,29.2-10.2,40.7l16.1,25.7    c19.8-22.3,22.3-50.7,19.3-73.6c-2.5-19.8-9.1-37.3-12.5-45.9c-0.4-1-1.6-4.3-2.1-5.3c-3.4-9-8.3-22.1-10.2-36.4    c-1.9-15.2-0.1-29.2,10.2-40.7l-16.1-25.7c-19.8,22.3-22.3,50.8-19.3,73.6C259.7,424.8,266.3,442.3,269.6,451.1L269.6,451.1z"></path>
		<path class="st1" d="M335,451.1c0.4,1.2,1.6,4.3,2.1,5.3c3.4,9,8.3,22.1,10.2,36.4c1.9,15.2,0.1,29.2-10.2,40.7l16.1,25.7    c19.8-22.3,22.3-50.7,19.5-73.6c-2.5-19.8-9.1-37.3-12.5-45.9c-0.4-1-1.6-4.3-2.1-5.3c-3.4-9-8.3-22.1-10.2-36.4    c-1.9-15.2-0.1-29.2,10.2-40.7L342,331.6c-19.8,22.3-22.3,50.8-19.3,73.6C325.2,424.8,331.8,442.3,335,451.1L335,451.1z"></path>
		<path class="st1" d="M400.5,451.1c0.4,0.9,1.6,4.1,2.1,5.3c3.4,9,8.3,22.1,10.2,36.4c1.9,15.2,0.1,29.2-10.2,40.7l16.1,25.7    c19.8-22.3,22.3-50.7,19.3-73.6c-2.5-19.8-9.1-37.3-12.5-45.9c-0.4-1-1.6-4.3-2.1-5.3c-3.4-9-8.3-22.1-10.2-36.4    c-1.9-15.2-0.1-29.2,10.2-40.7l-16.1-25.7c-19.8,22.3-22.3,50.8-19.3,73.6C390.5,424.8,397.2,442.3,400.5,451.1L400.5,451.1z"></path>
	</g>
</g>
</svg>