<?xml version='1.0' encoding='utf-8'?>
<!-- Generator: Adobe Illustrator 27.2.0, SVG Export Plug-In . SVG Version: 6.00 Build 0)  --><svg xmlns="http://www.w3.org/2000/svg" xmlns:xlink="http://www.w3.org/1999/xlink" version="1.1" id="Vrstva_1" x="0px" y="0px" viewBox="0 0 490.4 566.9" style="enable-background:new 0 0 490.4 566.9;" xml:space="preserve" width="346.02222" height="400.0">
<g>
	<path d="M230.2,412.3v-15.8h-31.3v15.8h-43.7v-15.8H128v15.8H68.8c0,0-10.1-32.7-11.1-36.2c-1-3.5-2.2-7.2-3.4-11   c-1.2-3.8-14.6-31.4-16.4-35.2l-1.2-2.5c-4.1-8-8-16.8-11.6-26.2c-3.6-9.4-6.8-19.2-9.6-29.4c-2.8-10.2-5-20.7-6.7-31.4   c-1.7-10.7-2.5-21.6-2.5-32.5c0-18.8,2.5-36.7,7.4-53.6s10.7-32.7,17.2-47.4s13.1-28.2,19.7-40.7S62,42.5,65.1,32.6   c0,0,2.9-9.1,3.2-13s0.5-7.9,0.5-12.1H128l-0.6,4.3c-1,6-2.2,12-3.4,18.1c-1.2,6.1-2.7,11.9-4.3,17.5c-1.7,5.6-3.7,10.7-6.2,15.3   c-2.5,4.6-5.4,8.5-8.7,11.6c-9.9,9.1-19,18.5-27.3,28.2c-8.3,9.7-15.4,20-21.4,30.8c-6,10.8-10.7,22.5-14.1,34.9   c-3.4,12.4-5.1,25.8-5.1,40.3c1.4,18.8,3.8,35.1,7.1,48.8c3.3,13.7,7.9,26.4,13.6,38s12.9,22.8,21.2,33.8   c8.4,11,18.2,22.9,29.6,35.9h270.7c6-2.7,11.8-6.8,17.5-12.4c5.7-5.6,11.9-14.2,18.7-26c5-8.5,9.8-17.5,14.4-27.1   c4.7-9.6,8.7-19.4,12.2-29.4c3.5-10,6.3-20.3,8.5-30.8c2.2-10.5,3.2-21,3.2-31.3c0-13.2-1.9-26.1-5.6-38.6   c-3.7-12.5-8.7-24.4-14.9-35.8c-6.2-11.3-13.3-22-21.2-32.1c-8-10-13.2-16.3-22-24.6c-1.9-1.8-5.8-5.4-9-9.1c-3-3.4-5.2-8-7.9-12.9   c-2.7-4.8-5-9.8-6.8-14.9c-1.9-5.1-2.8-9.3-2.8-12.9V7.5h59.2c0,2.9,0,5.4-0.2,7.4c-0.1,2.1-0.2,4.1-0.2,6.2c0,2.5,0.2,5,0.5,7.6   c0.3,2.6,1,5.7,2.2,9.3c1.1,3.6,2.7,8,4.7,13.3c2,5.3,4.7,11.8,8.2,19.7c14.9,19.2,26.3,40.7,34.2,64.4c8,23.8,11.9,48.1,11.9,73.1   c0,21.9-3.2,43.2-9.6,63.8c-6.4,20.6-14.6,39.9-24.5,57.6c-6.8,12.4-12.6,25.6-17.3,39.6c-4.8,14-8,28.3-9.9,42.8h-63.2v-15.8   h-23.5v15.8H285v-15.8h-27.6v15.8H230.2L230.2,412.3L230.2,412.3z M264.7,38.1c0.3,2.7,0.5,7,0.5,13v197c0,4.3,0,9-0.5,12.7   s-4.5,18.1-20.7,18.3c-16.5,0.2-20.8-16.1-21.1-17.7s-0.5-3.6-0.5-5.7V51.2c0-6,0.2-10.3,0.5-12.9c0.3-2.6,2.5-18.8,21.7-18.7   C261.9,19.7,264.4,35.5,264.7,38.1L264.7,38.1L264.7,38.1z"></path>
	<circle cx="245.2" cy="318.6" r="20.4"></circle>
	<path d="M68.8,529.2c7.4,3.8,18.8,7.6,30.6,7.6c12.7,0,19.4-5.2,19.4-13.2s-5.8-11.9-20.5-17.2c-20.3-7.1-33.5-18.3-33.5-36   c0-20.8,17.4-36.7,46.2-36.7c13.8,0,23.9,2.9,31.1,6.1l-6.2,22.3c-4.9-2.4-13.6-5.8-25.5-5.8s-17.7,5.4-17.7,11.8   c0,7.8,6.9,11.2,22.6,17.2c21.5,8,31.7,19.2,31.7,36.4c0,20.5-15.8,37.8-49.2,37.8c-13.9,0-27.7-3.6-34.6-7.4L68.8,529.2   L68.8,529.2L68.8,529.2z"></path>
	<path d="M278.9,506.1H234v29h50.1v22.6h-77.8v-122h75.3v22.6H234v25.3h44.9L278.9,506.1L278.9,506.1L278.9,506.1z"></path>
	<path d="M368.2,458.8h-32.8v-23.2h93.8v23.2h-33.3v98.8h-27.7V458.8L368.2,458.8z"></path>
</g>
</svg>