<?xml version='1.0' encoding='utf-8'?>
<!-- Generator: Adobe Illustrator 27.2.0, SVG Export Plug-In . SVG Version: 6.00 Build 0)  --><svg xmlns="http://www.w3.org/2000/svg" xmlns:xlink="http://www.w3.org/1999/xlink" version="1.1" id="Vrstva_1" x="0px" y="0px" viewBox="0 0 612.4 566.9" style="enable-background:new 0 0 612.4 566.9;" xml:space="preserve" width="432.10443" height="400.0">
<g>
	<path d="M473.4,116.2H5.2v266h466.7v-266H473.4L473.4,116.2z M440.8,351.1H37.7V148.7h403.1L440.8,351.1L440.8,351.1z" fill="#FFCE63"></path>
	<polygon points="540.3,215.6 507.8,215.6 507.8,418 72.1,418 72.1,450.7 540.3,450.7  " fill="#FFCE63"></polygon>
	<polygon points="574.7,282.6 574.7,484.9 139,484.9 139,517.7 607.2,517.7 607.2,282.6  " fill="#FFCE63"></polygon>
	<rect x="72.1" y="49.3" width="66.9" height="32.7" fill="#FFCE63"></rect>
	<rect x="339.6" y="49.3" width="66.9" height="32.7" fill="#FFCE63"></rect>
	<rect x="72.1" y="217.3" width="101.1" height="32.7" fill="#FFCE63"></rect>
	<polygon points="339.6,282.6 372.3,282.6 372.3,250 406.5,250 406.5,217.3 372.3,217.3 372.3,183.1 339.6,183.1 339.6,217.3    305.4,217.3 305.4,250 339.6,250  " fill="#FFCE63"></polygon>
</g>
</svg>