<?xml version='1.0' encoding='utf-8'?>
<!-- Generator: Adobe Illustrator 27.2.0, SVG Export Plug-In . SVG Version: 6.00 Build 0)  --><svg xmlns="http://www.w3.org/2000/svg" xmlns:xlink="http://www.w3.org/1999/xlink" version="1.1" id="Vrstva_1" x="0px" y="0px" viewBox="0 0 474.4 566.9" style="enable-background:new 0 0 474.4 566.9;" xml:space="preserve" width="334.73276" height="400.0">
<style type="text/css">
	.st0{fill-rule:evenodd;clip-rule:evenodd;}
</style>
<g>
	<path d="M270.9,366.6c-15.2,13.8-36.7,22.8-57.1,21.6c-21.6,0-41.7-8.9-57.1-24.1c-15.2-15.2-24.1-35.5-24.1-57.1   s7.6-41.7,21.6-57.1l-96.4-96.4L3.3,207.9C7.1,278.8,49,362.6,103.4,417s138.2,96.4,209.1,100.1l54.4-54.4L270.9,366.6L270.9,366.6   z"></path>
	<path class="st0" d="M162,49.8l-63.4,63.4v5.1c0,10.2,1.3,20.2,3.8,30.3l33,33c-6.3-20.2-11.4-40.6-12.7-59.5L162,82.8l76,76   c-11.4,15.2-19,34.2-19,54.4c0,24.1,8.9,46.8,26.6,63.4c16.5,16.5,39.3,26.6,63.4,26.6c20.2,0,39.3-6.3,54.4-19l76,76l-39.3,39.3   c-19-1.3-39.3-6.3-59.5-12.7l31.6,31.6c10.2,2.5,20.2,3.8,30.3,3.8h5.1l63.4-63.4L363.4,251.2l-7.6,7.6c-12.7,12.7-29.2,19-46.8,19   s-34.2-6.3-46.8-19c-12.7-12.7-19-29.2-19-46.8s6.3-34.2,19-46.8l7.6-7.6L162,49.8L162,49.8z M220.4,343.9c2.5-1.3,5.1-3.8,7.6-5.1   l10.1-10.1c-8.9-6.3-16.5-13.8-24.1-21.6s-13.8-15.2-21.6-24.1l-10.1,11.4c-2.5,2.5-3.8,5.1-5.1,7.6c6.3,7.6,13.8,15.2,20.2,22.8   C203.9,331.2,211.4,337.6,220.4,343.9L220.4,343.9z"></path>
</g>
</svg>