<?xml version='1.0' encoding='utf-8'?>
<!-- Generator: Adobe Illustrator 27.2.0, SVG Export Plug-In . SVG Version: 6.00 Build 0)  --><svg xmlns="http://www.w3.org/2000/svg" xmlns:xlink="http://www.w3.org/1999/xlink" version="1.1" id="Vrstva_1" x="0px" y="0px" viewBox="0 0 702.4 566.9" style="enable-background:new 0 0 702.4 566.9;" xml:space="preserve" width="495.60767" height="400.0">
<g>
	<path d="M615.6,250.6c-9.4-60.2-33.9-114.9-75.4-162.1l-24.6,20.7c35.8,39.6,58.4,88.6,67.9,139.5h32.1L615.6,250.6L615.6,250.6z"></path>
	<path d="M46.4,218.5l-30.1-9.4C1.1,263.8-0.7,320.2,14.3,374.9c15.1,54.7,45.3,103.7,84.8,143.3l22.6-22.6   C84,461.7,57.6,416.5,44.4,367.4C31.3,318.4,33.2,267.5,46.4,218.5L46.4,218.5z"></path>
	<path d="M310.3,506.8c-116.9,0-211.1-94.3-211.1-211.1c0-20.7,3.8-39.6,7.5-58.4l-30.1-9.4c-11.2,41.5-13.2,84.8-1.9,126.3   c9.4,41.5,30.1,79.1,60.2,109.2c30.1,30.1,65.9,52.7,107.4,65.9c41.5,11.2,84.8,13.2,126.3,3.8c37.8-9.4,73.6-28.3,103.7-54.7v-47   C432.7,476.7,376.2,506.8,310.3,506.8L310.3,506.8z"></path>
	<path d="M349.9,405.1c26.4,0,49-22.6,49-49s-22.6-49-49-49s-49,22.6-49,49C300.9,384.4,323.5,405.1,349.9,405.1z"></path>
	<path d="M549.6,250.6c0-3.8-2-9.4-2-13.2c-9.4-41.5-30.1-79.1-60.2-111.2h-2c-22.6-24.4-51-43.3-81.1-54.7   c-30.1-13.2-64.1-18.9-96.1-18.9h-16.9l2,32.1h15.1c24.4,0,49,3.8,71.6,11.2c37.8,13.2,69.7,35.8,94.3,65.9l0,0   c-28.3,13.2-65.9,33.9-94.3,49l0,0c-3.8,1.9-5.7,3.8-7.5,3.8c-28.3,3.8-88.6,13.2-105.5,20.7c-22.6,9.4-49,35.8-49,79.1   s15.1,47,28.3,47h22.6V354c0-45.3,35.8-81.1,81.1-81.1s81.1,35.8,81.1,81.1v7.5h41.5V248.3h77.3v2.2L549.6,250.6L549.6,250.6z"></path>
	<path d="M677.7,361.8v-43.3h20.7v-26.4H511.9v26.4h20.7v43.3c0,20.7,7.5,39.6,20.7,54.7c3.8,3.8,7.5,7.5,11.2,11.2   c-3.8,2-7.5,5.7-11.2,9.4c-13.2,15.1-20.7,33.9-20.7,52.8v43.3h-20.7v26.4h186.6v-26.4h-20.7v-43.3c0-20.7-7.5-39.6-20.7-54.7   c-3.8-3.8-7.5-7.5-11.2-11.2c3.8-2,7.5-5.7,11.2-9.4C670.3,399.4,677.7,380.6,677.7,361.8z M591.1,471c-7.5,2-15.1,5.7-24.6,11.2   c-2,2-7.5,3.8-9.4,5.7c0-13.2,5.7-26.4,15.1-35.8c5.7-5.7,11.2-9.4,18.9-11.2V471L591.1,471L591.1,471z M651.4,488.1   c-2-2-7.5-2-9.4-3.8c-9.4-5.7-16.9-9.4-24.6-11.2v-33.9c7.5,2,15.1,7.5,20.7,11.2C645.7,461.7,651.4,474.9,651.4,488.1L651.4,488.1   z M651.4,344.8c-7.5,2-15.1,5.7-24.4,11.2c-11.2,7.5-22.6,7.5-22.6,7.5s-11.2,0-22.6-7.5c-7.5-5.7-16.9-9.4-24.4-11.2v-28.3h94.3   v28.3H651.4L651.4,344.8z"></path>
	<polygon points="123.7,163.8 155.6,260 187.7,163.8 293.4,163.8 208.5,105.4 240.5,7.3 155.6,67.7 72.8,7.3 104.8,105.4 20,163.8     "></polygon>
</g>
</svg>