<?xml version='1.0' encoding='utf-8'?>
<!-- Generator: Adobe Illustrator 27.2.0, SVG Export Plug-In . SVG Version: 6.00 Build 0)  --><svg xmlns="http://www.w3.org/2000/svg" xmlns:xlink="http://www.w3.org/1999/xlink" version="1.1" id="Vrstva_1" x="0px" y="0px" viewBox="0 0 533.4 566.9" style="enable-background:new 0 0 533.4 566.9;" xml:space="preserve" width="376.36267" height="400.0">
<style type="text/css">
	.st0{fill-rule:evenodd;clip-rule:evenodd;}
</style>
<path class="st0" d="M529.2,507.1L394.3,372.3c28.4-37,45.5-82.3,45.5-133.4c0-119.2-96.6-217.3-217.3-217.3S5.3,119.5,5.3,238.7  S101.8,456,222.5,456c49.7,0,96.6-17,133.4-45.5l134.8,134.8L529.2,507.1L529.2,507.1z M52.2,238.7c0-93.7,76.7-170.4,170.4-170.4  S392.9,145,392.9,238.7s-76.7,170.4-170.4,170.4S52.2,332.4,52.2,238.7L52.2,238.7z"></path>
</svg>