<?xml version='1.0' encoding='utf-8'?>
<!-- Generator: Adobe Illustrator 27.2.0, SVG Export Plug-In . SVG Version: 6.00 Build 0)  --><svg xmlns="http://www.w3.org/2000/svg" xmlns:xlink="http://www.w3.org/1999/xlink" version="1.1" id="Vrstva_1" x="0px" y="0px" viewBox="0 0 638.4 566.9" style="enable-background:new 0 0 638.4 566.9;" xml:space="preserve" width="450.44983" height="400.0">
<style type="text/css">
	.st0{fill-rule:evenodd;clip-rule:evenodd;}
</style>
<g>
	<path d="M414.3,119.7c-13.8-8.5-20.5-15.4-29.2-25.6c-12-13.8-25.6-29.2-58.2-42.8c-32.6-15.5-53.1-17.2-72-18.8   c-15.5,0-27.3-1.7-48-12.1L179.5,6.7l-47.9,101.2L4.8,368.3l30.9,15.5l95.9-191.8c27.3,12.1,42.8,13.8,58.2,13.8   s32.6,1.7,58.2,15.4c27.3,13.8,36,25.6,46.2,36c10.4,10.4,18.8,20.5,36,32.6l15.5,10.4l80.5-169.6L414.3,119.7L414.3,119.7z"></path>
	<path class="st0" d="M450.2,224.3c0,17.1-5.1,41.1-30.9,73.7c-20.5,27.3-54.8,58.2-82.2,78.8c-78.8,59.9-167.9,113.1-304.9,181.6   h279.2c18.8-13.8,66.9-49.7,95.9-82.2h53.1c-29.2,37.7-59.9,66.9-80.5,84h212.4c27.3-51.4,41.1-128.5,41.1-203.9   c-1.7-51.4-3.4-85.7-13.8-131.9h-68.6v10.4c-1.7,20.5-3.4,39.4-5.1,56.5h-44.5c3.4-18.8,6.8-41.1,8.5-66.9L450.2,224.3L450.2,224.3   L450.2,224.3z M491.3,340.7L491.3,340.7c-3.4,12-22.2,48-44.5,84h49.7c1.7-1.7,1.7-3.4,3.4-5.1c18.8-30.9,30.9-56.5,37.7-78.8   L491.3,340.7L491.3,340.7L491.3,340.7z"></path>
</g>
</svg>