<?xml version='1.0' encoding='utf-8'?>
<!-- Generator: Adobe Illustrator 27.2.0, SVG Export Plug-In . SVG Version: 6.00 Build 0)  --><svg xmlns="http://www.w3.org/2000/svg" xmlns:xlink="http://www.w3.org/1999/xlink" version="1.1" id="Vrstva_1" x="0px" y="0px" viewBox="0 0 553.4 566.9" style="enable-background:new 0 0 553.4 566.9;" xml:space="preserve" width="390.47452" height="400.0">
<g>
	<path d="M548.2,557.8H5.1V9.1h543.1L548.2,557.8L548.2,557.8z M24.8,28.8v508.8h503.8V28.8H24.8z M151.2,125.7h126.1   c12.3,0,22.9,0.2,31.8,0.6c8.9,0.4,16.7,1.2,23.3,2.3c6.6,1.1,12.6,2.8,17.8,4.9c5.2,2.1,10.4,5.1,15.5,8.7   c9.8,6.8,18,15.6,24.4,26.4c6.4,10.9,9.7,23,9.7,36.5c0,15.4-4,29.1-12.1,41.1c-8.1,12.1-18.7,21.2-31.8,27.3   c19,5.5,33.7,15,43.9,28.5c10.2,13.5,15.3,29.4,15.3,47.6c0,11-1.8,21.7-5.5,31.9c-3.7,10.2-9,19.4-15.8,27.5   c-6.8,8.1-15.2,14.8-25,20.2c-9.8,5.4-21,8.7-33.4,10c-5.3,0.6-14.4,1.1-27.1,1.4c-12.8,0.3-29.4,0.6-49.9,0.8H151.2L151.2,125.7   L151.2,125.7L151.2,125.7L151.2,125.7L151.2,125.7z M214.7,178.5v73h41.7c12.7,0,22.8-0.1,30.4-0.3c7.6-0.2,12.8-0.5,15.6-0.9   c10.8-1.2,19.4-4.9,25.8-11.1c6.3-6.1,9.5-14.4,9.5-24.9s-2.8-18-8.3-23.9c-5.5-5.9-13.5-9.5-23.9-10.7c-3.1-0.4-9.1-0.7-18-0.9   c-8.9-0.2-21-0.3-36.4-0.3L214.7,178.5L214.7,178.5z M214.7,304v83.8h58.9c23.1,0,37.7-0.6,43.9-1.8c9.2-1.6,16.9-5.7,23-12.1   c6.1-6.4,9.2-15.5,9.2-27.2c0-9.2-2.3-17.2-6.9-23.9c-4.6-6.8-11.3-11.6-20.1-14.4c-4.3-1.4-11.1-2.5-20.6-3.2   c-9.4-0.7-21.5-1.1-36.2-1.1H214.7L214.7,304z"></path>
</g>
</svg>