<?xml version='1.0' encoding='utf-8'?>
<!-- Generator: Adobe Illustrator 27.2.0, SVG Export Plug-In . SVG Version: 6.00 Build 0)  --><svg xmlns="http://www.w3.org/2000/svg" xmlns:xlink="http://www.w3.org/1999/xlink" version="1.1" id="Vrstva_1" x="0px" y="0px" viewBox="0 0 516.4 566.9" style="enable-background:new 0 0 516.4 566.9;" xml:space="preserve" width="364.3676" height="400.0">
<style type="text/css">
	.st0{fill-rule:evenodd;clip-rule:evenodd;}
</style>
<g>
	<path class="st0" d="M5.3,281.8c0,198.8,248.6,261.3,248.6,261.3s39.8-90.9,39.8-261.3S253.7,20.6,253.7,20.6S5.3,84.6,5.3,281.8   L5.3,281.8z M231,497.8c-22.8-7.1-52.7-22.8-82.5-41.1c-69.4-47-106.5-105.2-106.5-173.4S79,156.9,148.6,110.1   C178.4,91.5,208.2,78.8,231,69c11.3,39.8,25.7,112.1,25.7,214.5S242.5,458,231,497.8z"></path>
	<path class="st0" d="M421.4,218c9.9-17.1,19.9-35.4,22.8-66.8h65.3v-36.9h-68.2c-4.3-24.2-14.1-39.8-22.8-54l0,0   c-7.1-11.3-14.1-22.8-17.1-38.3h-35.5c4.3,27,14.1,43.9,22.8,58.3l0,0c7.1,11.3,12.8,21.4,15.6,35.5h-81v36.9h84.1   c-1.5,21.4-8.5,34.1-17.1,48.4l-1.5,2.8c-8.5,15.6-19.9,32.6-22.8,62.5h-42.6v36.9H366c2.8,28.5,14.1,46.7,22.8,62.5l0,0   c8.5,14.1,17.1,27,18.5,49.8h-83.8v36.9h81c-1.5,8.5-4.3,15.6-8.5,21.4c-2.8,4.3-5.6,8.5-8.5,14.1l0,0c-1.5,1.5-1.5,2.8-2.8,5.6   c-4.3,7.1-8.5,14.1-12.8,24.2l0,0c-2.8,7.1-5.6,17.1-7.1,28.5h38.3c1.5-5.6,2.8-11.3,4.3-15.6c2.8-5.6,5.6-11.3,9.9-18.5   c1.5-1.5,1.5-2.8,2.8-4.3l0,0c2.8-5.6,7.1-9.9,9.9-17.1c5.6-11.3,9.9-22.8,12.8-38.3h68.1v-36.9h-65.3   c-2.8-34.1-14.1-52.7-24.2-69.6l0,0c-7.1-12.8-14.1-24.2-17.1-42.6h106.5v-39.8H403.3c2.8-18.5,9.9-29.8,17.1-42.6L421.4,218   L421.4,218z"></path>
</g>
</svg>