<?xml version='1.0' encoding='utf-8'?>
<!-- Generator: Adobe Illustrator 27.2.0, SVG Export Plug-In . SVG Version: 6.00 Build 0)  --><svg xmlns="http://www.w3.org/2000/svg" xmlns:xlink="http://www.w3.org/1999/xlink" version="1.1" id="Vrstva_1" x="0px" y="0px" viewBox="0 0 561.4 566.9" style="enable-background:new 0 0 561.4 566.9;" xml:space="preserve" width="396.11926" height="400.0">
<style type="text/css">
	.st0{fill-rule:evenodd;clip-rule:evenodd;}
</style>
<g>
	<g>
		<path d="M456.2,282.9l100.1,62.7V220.1L456.2,282.9L456.2,282.9z"></path>
		<path d="M105.2,282.9L5.1,220.1v125.5L105.2,282.9L105.2,282.9z"></path>
		<path d="M279.8,458.9l-62.7,100.1h125.5L279.8,458.9L279.8,458.9z"></path>
		<path d="M279.8,108L342.7,7.9H217.2L279.8,108L279.8,108z"></path>
	</g>
	<path class="st0" d="M279.8,145.4c-74.8,0-137.4,62.7-137.4,137.4s62.7,137.4,137.4,137.4s137.4-62.7,137.4-137.4   S356.2,145.4,279.8,145.4L279.8,145.4z M118.6,282.9c0-89.6,73.2-162.8,162.8-162.8s162.7,73.2,162.7,162.8   s-73.2,162.8-162.8,162.8S118.6,372.5,118.6,282.9L118.6,282.9z"></path>
	<path d="M203.8,360.4L280,185.5l76.2,174.9l-76.4-32.9L203.8,360.4L203.8,360.4z"></path>
</g>
</svg>