<?xml version='1.0' encoding='utf-8'?>
<!-- Generator: Adobe Illustrator 27.2.0, SVG Export Plug-In . SVG Version: 6.00 Build 0)  --><svg xmlns="http://www.w3.org/2000/svg" xmlns:xlink="http://www.w3.org/1999/xlink" version="1.1" id="Vrstva_1" x="0px" y="0px" viewBox="0 0 714.4 566.9" style="enable-background:new 0 0 714.4 566.9;" xml:space="preserve" width="504.07477" height="400.0">
<style type="text/css">
	.st0{fill-rule:evenodd;clip-rule:evenodd;}
</style>
<g>
	<path d="M12.1,424.9l-7.7,34.4l88,17.2l7.7-34.4C100.1,442.1,12.1,424.9,12.1,424.9z"></path>
	<path d="M702.2,424.9l-88,17.2l7.7,34.4l88-17.2L702.2,424.9L702.2,424.9z"></path>
	<path d="M482.4,486.1c26.7-19,49.7-43.9,66.9-72.6c9.5,15.4,24.9,26.7,40.1,34.4c-19,28.7-43.9,53.6-70.8,72.6   c-22.9,17.2-51.6,24.9-80.3,24.9H274.1c-28.7,0-55.4-7.7-80.3-24.9c-28.7-19-51.6-45.9-70.8-74.6c15.4-7.7,30.6-19,40.1-34.4   c17.2,28.7,40.1,53.6,66.9,72.6c7.7,3.8,15.4,7.7,22.9,5.7h206.3C469.1,493.8,476.7,491.8,482.4,486.1L482.4,486.1z"></path>
	<path class="st0" d="M163.2,197.5c11.5-28.7,30.6-53.6,55.4-74.6c22.9-19,47.8-32.5,76.5-40.1c28.7-7.5,57.3-11.5,86-7.7   c36.4,3.8,72.6,17.2,101.3,38.2c30.5,21,53.6,49.7,68.8,84.1c3.8-3.8,5.7-5.7,9.5-7.7l-15.3-26.7c-9.5-15.4-11.5-34.4-7.7-53.6   c1.8-5.7,3.8-11.5,5.7-15.3c-49.7-43.9-112.7-70.8-177.8-72.6h-7.7c-68.8,0-135.7,24.9-187.3,70.8c1.9,5.7,5.7,11.5,5.7,17.2   c3.8,17.2,1.9,36.4-7.7,53.6l-14.9,26.7C155.5,191.8,159.4,195.6,163.2,197.5L163.2,197.5z"></path>
	<path d="M130.7,247.2c0-3.8-1.9-9.5-5.7-11.5c-3.8-3.8-7.7-5.7-11.5-5.7s-9.5,1.9-11.5,5.7c-3.8,3.8-5.7,7.7-5.7,11.5v107   c0,1.9,0,5.7-1.9,7.7c-1.9,1.9-3.8,3.8-5.7,5.7c-3.8,1.9-5.7,3.8-9.5,3.8c-1.9,0-3.8,0-7.7-1.9c-1.9,0-3.8-1.9-5.7-3.8   c-1.9-1.9-3.8-3.8-3.8-5.7s-1.9-3.8-1.9-7.7V239.7l63.1-105.2c1.9-1.9,1.9-3.8,1.9-5.7v-7.7c0-1.8-1.9-3.8-3.8-5.7   c-1.9-1.8-3.8-3.8-5.7-3.8c-2.1-2.1-6-2.1-7.8-2.1H106c-1.9,0-3.8,0-5.7,1.8c0,0-1.9,0-1.9,1.8c-1.9,1.8-3.8,3.8-5.7,5.7   L25.8,231.6V354c0,7.7,1.8,13.4,3.8,19c1.8,5.7,5.7,11.5,11.5,17.2c5.7,5.7,11.5,9.5,17.2,11.5c5.7,1.9,13.4,3.8,19,3.8   c7.7,0,15.4-1.9,21-3.8c9.5-3.8,17.2-11.5,22.9-19c5.7-7.7,7.7-19,7.7-28.7V247h1.7L130.7,247.2L130.7,247.2z"></path>
	<path d="M688.7,354.2V231.9L620,119.2c0-1.8-1.8-1.8-1.8-3.8c-1.8,0-1.8-1.8-3.8-1.8c0,0-1.8,0-1.8-1.8c-1.8,0-3.8-1.8-5.7-1.8   h-1.8c-1.8,0-5.7,0-7.7,1.8c-1.8,1.8-3.8,1.8-5.7,3.8c-1.8,2-1.8,3.8-3.8,5.7v7.7c0,1.9,1.8,3.8,1.8,5.7l63.1,105.2v114.7   c0,1.9,0,3.8-1.8,7.7c0,1.9-1.8,3.8-3.8,5.7c-1.8,1.9-3.8,3.8-5.7,3.8s-3.8,1.9-7.7,1.9s-7.7-1.9-9.5-3.8c-1.8-1.9-3.8-3.8-5.7-5.7   c1.8-3.8,0-7.7,0-9.5v-107c0-3.8-1.8-9.5-5.7-11.5c-3.8-3.8-7.7-5.7-11.5-5.7s-9.5,1.9-11.5,5.7c-1.8,3.8-5.7,7.7-5.7,11.5v107   c0,9.5,3.8,19,7.7,28.7c5.7,7.7,13.4,15.4,22.9,19c7.7,3.8,13.4,3.8,21,3.8s13.4-1.9,19-3.8c5.7-1.9,11.5-5.7,17.2-11.5   c5.7-5.7,9.5-11.5,11.5-17.2C686.9,367.6,688.8,361.9,688.7,354.2L688.7,354.2z"></path>
	<path class="st0" d="M430.8,231.9H285.6c-19,0-26.7,3.8-36.4,9.5c-9.5,5.7-19,11.5-45.9,11.5h-36.4v49.7h38.2   c11.5,0,32.5,9.5,40.1,34.4c9.5,30.5,21,51.6,82.1,51.6h3.8v130h51.6v-130h5.7c61.1,0,72.6-21,82.1-51.6   c7.7-22.9,28.7-32.5,40.1-34.4h38.2v-49.7h-36.4c-26.7,0-36.4-5.7-45.9-11.5C457.5,237.6,449.9,231.9,430.8,231.9L430.8,231.9z"></path>
</g>
</svg>