<?xml version='1.0' encoding='utf-8'?>
<svg xmlns="http://www.w3.org/2000/svg" id="Vrstva_1" data-name="Vrstva 1" viewBox="0 0 624.22 566.93" width="440.4212" height="400.0">
  <path d="m558.08,30.91c-4.59,22.12-15.04,36.68-23.5,48.46l-.6.85-.13.17c-5.3,7.39-10.31,14.43-14.32,22.53h100.06v51.5h-108.46c2.06,23.5,11.15,37.05,21.52,51.43l1.28,1.74.33.47c9.4,12.99,19.65,27.18,24.14,49.35h61.19v51.5h-61.02c-1.46,8.03-3.67,15.3-6.59,22.09-5.09,11.87-11.95,21.42-17.5,29.15l-.5.72-.13.19c-10.51,14.64-19.9,27.88-22.45,50.84h108.19v51.5h-101.81c1.76,4.1,3.74,7.86,5.9,11.43,3.09,5.11,6.62,10.05,10.39,15.29l.03.03c.8,1.12,1.63,2.27,2.43,3.39,4.52,6.34,9.25,13.28,13.43,21.51,3.56,5.98,5.98,12.83,7.59,19.76l-50.17,11.65c-.39-1.68-.79-2.95-1.12-3.84-.31-.82-.52-1.18-.54-1.21l-.84-1.41-.74-1.46c-2.4-4.77-5.36-9.23-9.56-15.12-.72-1.02-1.49-2.07-2.31-3.22l-.2-.27c-3.59-4.98-8.22-11.44-12.46-18.44-6.73-11.13-12.39-23.44-16.03-38.1h-83.94c5.35-17.74,10.04-34.85,14.03-51.5h66c3-39.89,19.6-63.15,32.3-80.87l.13-.19c6.07-8.46,9.82-13.86,12.52-20.15.25-.57.44-1.18.67-1.79h-95.85c.47-8.58.7-17.15.7-25.75s-.24-17.17-.7-25.75h95.17c-2.78-6.14-6.85-11.9-12.46-19.65l-1.27-1.78c-13.11-18.16-29.02-41.78-31.4-81.57h-65.81c-3.99-16.65-8.68-33.75-14.03-51.5h84.93c6.61-23.46,18.06-39.52,27.41-52.55l.13-.17c8.69-12.11,13.28-18.92,15.52-29.76l50.43,10.46Zm-258.9-5.26c13.6,37.19,24.84,70.39,33.78,100.97.36,1.23.71,2.45,1.06,3.67.89,3.08,1.76,6.14,2.6,9.17.67,2.4,1.31,4.79,1.94,7.16.59,2.2,1.18,4.39,1.74,6.57.11.41.21.83.32,1.24,24.05,93.39,24.04,164.09-.02,257.49h.03c-1.46,5.66-3.04,11.41-4.68,17.25-.37,1.31-.73,2.63-1.11,3.96-1.04,3.65-2.11,7.34-3.22,11.07-.43,1.45-.87,2.91-1.31,4.38-1.47,4.88-3,9.83-4.59,14.85-7.55,23.89-16.4,49.44-26.55,77.21-.6,0-294.55,1.52-294.55-256.6S298.58,25.65,299.18,25.65Zm-38.57,54.99c-24.68,3.61-56.71,10.74-88.03,24.47-31.29,13.72-60.06,33.23-80.94,60.7-20.37,26.8-35.52,64.14-35.52,118.22s15.15,91.26,35.45,117.85c20.82,27.26,49.51,46.56,80.77,60.08,31.29,13.53,63.29,20.45,87.96,23.91,1.21.17,2.39.33,3.55.49,30.02-86.72,43.32-145.9,43.32-203.21,0-57.26-13.27-116.39-43.23-202.97-1.09.15-2.21.3-3.34.47Z" fill="#FFCE63"></path>
</svg>