<?xml version='1.0' encoding='utf-8'?>
<!-- Generator: Adobe Illustrator 27.2.0, SVG Export Plug-In . SVG Version: 6.00 Build 0)  --><svg xmlns="http://www.w3.org/2000/svg" xmlns:xlink="http://www.w3.org/1999/xlink" version="1.1" id="Vrstva_1" x="0px" y="0px" viewBox="0 0 734.4 566.9" style="enable-background:new 0 0 734.4 566.9;" xml:space="preserve" width="518.1866" height="400.0">
<path d="M5.6,283.5c0-50.2,9-97.5,26.9-141.8c17.9-44.3,43.6-83.3,77-117l49.7,50.1c-13.3,12.6-25.3,26.6-36,42  c-10.7,15.5-19.8,32.1-27.5,49.9c-7.7,17.8-13.6,36.5-17.7,56.1c-4.1,19.6-6.2,39.8-6.2,60.7c0,41.7,7.8,80.1,23.4,115.1  c15.6,35,36.9,66.1,64,93.2l-45.6,49.7c-35.7-33.4-62.6-72.2-80.8-116.4S5.6,333.7,5.6,283.5L5.6,283.5L5.6,283.5z M105.4,283.5  c0-36.7,6.8-70.9,20.5-102.7c13.7-31.8,32.3-59.6,55.9-83.4c23.6-23.9,51.4-42.6,83.4-56.1s66.1-20.3,102.3-20.3  c24.4,0,47.8,3.1,70.3,9.4c22.5,6.3,43.4,15,62.9,26.2c19.5,11.2,37.2,24.7,53.3,40.7c16.1,15.9,29.7,33.7,40.9,53.3  s19.9,40.6,26.2,63.1c6.3,22.5,9.4,45.8,9.4,69.9s-3.1,47.4-9.4,69.9c-6.3,22.5-15,43.4-26.2,62.7c-11.2,19.3-24.8,37-40.9,52.9  c-16.1,16-33.8,29.7-53.3,41.2c-19.5,11.5-40.4,20.4-62.9,26.6c-22.5,6.2-45.9,9.2-70.3,9.2s-47-3.1-69.5-9.2  c-22.5-6.2-43.5-15-62.9-26.6C215.8,498.7,198,485,181.9,469c-16.1-16-29.7-33.6-40.9-52.9c-11.2-19.3-19.9-40.2-26.2-62.7  C108.6,330.9,105.4,307.6,105.4,283.5L105.4,283.5L105.4,283.5z M147.3,283.5c0,20.1,2.6,39.4,7.7,58c5.1,18.6,12.6,36.1,22.4,52.5  c9.8,16.5,21.4,31.5,34.8,45c13.4,13.6,28.4,25.2,44.8,34.9s34,17.1,52.7,22.2c18.7,5.1,38,7.7,57.8,7.7s39.9-2.6,58.6-7.7  c18.7-5.1,36.2-12.6,52.5-22.2c16.3-9.7,31.3-21.3,44.8-34.9s25.2-28.6,34.8-45c9.7-16.5,17.1-34,22.4-52.5  c5.3-18.6,7.9-37.9,7.9-58c0-30.4-5.8-59-17.5-85.7c-11.7-26.7-27.6-50.1-47.7-70.1c-20.1-20-43.6-35.8-70.5-47.7  c-26.9-11.8-55.4-17.7-85.5-17.7s-58.2,5.9-85,17.7s-50.2,27.7-70.3,47.7c-20.1,20-36,43.3-47.7,70.1  C153.1,224.5,147.3,253.1,147.3,283.5L147.3,283.5z M209.4,354.3h-32.8l45.2-162.4H264l45.6,162.4h-37.7l-7.9-37.7h-46.3  L209.4,354.3L209.4,354.3L209.4,354.3z M259.5,291.7l-16.2-66.7l-17,66.7H259.5L259.5,291.7z M385,354.3h-58.4V191.9H385  c6,0,11.9,0.6,17.5,1.9c5.6,1.3,10.5,3.5,14.5,6.6c4,3.1,7.3,7.3,9.8,12.4c2.5,5.1,3.8,12,3.8,20.5c0,21.1-8.4,33.5-25.2,37.3  c10.5,2.3,18.1,6.7,22.6,13.4c4.5,6.7,6.8,16.3,6.8,28.8c0,9.3-2,16.7-6,22.2c-4,5.5-8.8,9.7-14.3,12.4c-5.5,2.8-11,4.6-16.4,5.5  C392.5,353.8,388.2,354.3,385,354.3L385,354.3L385,354.3z M359.7,216.8v41.4h21.1c4,0,7.8-1.3,11.3-4c3.5-2.6,5.3-8.2,5.3-16.8  c0-6.3-1.9-11.3-5.6-15.1c-3.8-3.8-8.8-5.6-15.1-5.6H359.7L359.7,216.8L359.7,216.8z M359.7,283.5v46h17c2.3,0,4.8-0.1,7.5-0.4  s5.4-1,7.9-2.3s4.7-3.4,6.6-6.4s2.8-7.1,2.8-12.4c0-16.3-8.3-24.5-24.9-24.5H359.7z M555.2,308c0,10.8-1.6,19.3-4.9,25.4  c-3.3,6.2-7.5,10.7-12.6,13.8c-5.2,3-11,5-17.5,5.8c-6.5,0.9-12.9,1.3-19.2,1.3c-10,0-18.3-1.2-24.9-3.8  c-6.5-2.5-11.6-5.9-15.3-10.2c-3.6-4.3-6.1-9.5-7.4-15.6c-1.2-6.1-1.9-13-1.9-20.5h33.1c0,3,0.3,6.3,0.9,9.8c0.6,3.5,1.6,6.7,3,9.6  c1.4,2.9,3.5,5.3,6.2,7.1c2.8,1.9,6.2,2.8,10.2,2.8c6.5,0,11-1.9,13.6-5.6c2.5-3.8,3.8-8.8,3.8-15.1c0-5-1.7-9.3-5.1-12.8  c-3.4-3.5-7.5-6.8-12.4-9.8c-4.9-3-10.2-6.1-16-9.4c-5.8-3.3-11.2-7-16.2-11.3c-5-4.3-9.2-9.2-12.4-14.9c-3.3-5.6-4.9-12.8-4.9-21.3  c0-6.3,0.9-12.2,2.6-17.7c1.8-5.5,4.7-10.3,8.8-14.3c4.2-4,9.7-7.2,16.6-9.6c6.9-2.4,15.8-3.6,26.6-3.6c14.6,0,25.8,4,33.5,12.1  c7.8,8,11.7,20.5,11.7,37.3h-32.8c0-6.3-1.3-12-3.8-17.1s-7-7.7-13.6-7.7s-10.5,1.7-12.8,5.1c-2.3,3.4-3.4,7.2-3.4,11.5  c0,5.5,1.6,10.2,4.9,13.9c3.2,3.8,7.3,7.2,12.2,10.4c4.9,3.1,10.2,6.2,16,9c5.8,2.9,11.1,6.4,16,10.4c4.9,4,9,8.9,12.2,14.5  C553.6,293.1,555.2,299.9,555.2,308L555.2,308L555.2,308z M626.4,24.7c15.6,17.1,29.7,35.4,42.4,55s23.7,40.2,33,62  c9.3,21.7,16.5,44.6,21.5,68.6c5,24,7.5,48.4,7.5,73.3s-2.5,49.3-7.5,73.3c-5,24-12.2,46.8-21.5,68.6c-9.3,21.7-20.3,42.4-33,62  s-26.8,37.7-42.4,54.2l-49.7-49.7c27.1-27.1,48.4-58.2,63.9-93.2c15.4-35,23.2-73.4,23.2-115.1s-7.7-80.6-23.2-115.3  c-15.4-34.7-36.7-65.8-63.9-93.4L626.4,24.7L626.4,24.7L626.4,24.7z" fill="#FFCE63"></path>
</svg>