<?xml version='1.0' encoding='utf-8'?>
<!-- Generator: Adobe Illustrator 27.2.0, SVG Export Plug-In . SVG Version: 6.00 Build 0)  --><svg xmlns="http://www.w3.org/2000/svg" xmlns:xlink="http://www.w3.org/1999/xlink" version="1.1" id="Vrstva_1" x="0px" y="0px" viewBox="0 0 619.4 566.9" style="enable-background:new 0 0 619.4 566.9;" xml:space="preserve" width="437.04358" height="400.0">
<g>
	<path d="M613,508.4c-1.1-3.6-4.5-10.4-6.3-13.7c-0.1-0.1-0.2-0.4-0.3-0.5c-35.5-56.3-136.2-228.9-136.2-228.9l-85.1-142.7   l-31.4-52.6c0,0-10.2-17.1-13.6-22.9c-1-1.7-3.1-5.2-4.2-7c-0.5-0.8-1.4-2.3-1.8-3c-0.1-0.3-0.4-0.8-0.6-1.1   c-2.3-3.2-7.3-9.6-10.6-11.7c-2.9-1.9-9.8-4-13.3-4s-10.4,2.1-13.3,4c-3.3,2.1-8.1,8.6-10.6,11.7c-0.1,0.1-0.2,0.4-0.3,0.5   C250.1,93,149.2,265.5,149.2,265.5L64.1,408.3l-31.2,52.6c0,0-10.3,17.2-13.7,22.9c-1,1.7-3.1,5.2-4.2,7c-0.5,0.8-1.4,2.3-1.8,3   c-0.1,0.3-0.4,0.8-0.6,1.1c-1.7,3.3-5.2,10-6.2,13.6c-0.9,2.9-1.8,9.1-1.8,12.1c0,2.1,0.5,6.3,1.1,8.3c0.4,1.3,1.5,4,2.3,5.1   c1.6,2.2,5.7,5.8,8.1,7.2c2.5,1.5,8.1,3.2,10.9,3.9c4,0.9,12.2,1.2,16.3,1.4h531.7c0.3,0,0.9,0,1.2,0c5.6-0.4,17.1-1.2,22.4-3.2   c3.2-1.2,9.2-4.8,11.4-7.4c1.6-1.8,3.6-6.3,4.3-8.6c0.4-1.2,0.5-3.7,0.6-4.9c0-0.5,0-1.4,0-1.9C614.6,517.5,613.9,511.4,613,508.4   L613,508.4L613,508.4z M71.4,492L309.7,86.1L548,492.1L71.4,492L71.4,492z"></path>
	<path d="M243.7,388.1c2.3-1.8,4.7-3.4,6.8-5.2c42.4-37.9,84.8-75.8,127.2-113.6c1.8-1.6,3.9-2.8,5.7-4.1c10.5,7.6,11.2,13,1.5,20.6   c-31.2,24.6-62.9,48.7-94.1,73.3c-11.9,9.4-23.3,19.6-34.6,29.7c-2.3,2.1-3.4,5.4-5,8.1c0.7,0.5,1.4,1.1,2.1,1.6   c16.5-10.2,33-20.4,49.5-30.5c32-19.7,64.1-39.5,96.2-59.1c9.1-5.6,9.6-5.4,13.1,5.7c-4.8,2.8-9.8,5.7-14.7,8.6   c0.1,0.3,0.2,0.5,0.4,0.8c4-1.8,7.8-4,12-5.1c3.9-1.1,8-1,12.1-1.5c0.2,0.8,0.5,1.7,0.8,2.5c-3,1.7-5.9,3.6-9,5   c-51.4,24.3-102.8,48.5-154,73c-3,1.4-4.8,5-7.4,7.3c-1.9,1.6-4.1,3.6-6.3,3.9c-1.2,0.1-3.9-3.2-3.9-5c0.1-5.5,1.2-10.9,1.9-16.4   L243.7,388.1L243.7,388.1L243.7,388.1z M465,421.1c-66.4,0.8-132.9,1.1-199.4,1.5h-10.9c1.9,1.8,4,1.9,5.9,2.5   c2.1,0.7,4.8,1.3,6.1,2.8c5.6,6.6,7.3,6.6,11.2-0.8c5,0.4,10,0.7,15,1c-0.4,0.5-0.7,1-1.1,1.4c2.6,2.3,5.3,4.5,9.2,7.8   c0.3-4.2,0.5-5.9,0.7-8.5c63.6,6.4,127,12.8,190.4,19.1c0.2-1.4,0.4-2.7,0.6-4.1c-18-12.9-40.3-5.4-61.4-10h51.7   C479.1,425.2,474.5,420.9,465,421.1L465,421.1L465,421.1z M324.1,175.3c-27.5,61.3-54.9,122.6-82.2,183.9c-0.6,1.4-0.8,3-1.2,4.5   c2-1.2,2.9-2.8,3.8-4.4c20.3-33.8,40.3-67.8,61.1-101.3c12.1-19.5,25.5-38.1,38-57.3c1.1-1.8,0.3-4.8,0.4-7.3   c-2.3,1.1-5.2,1.7-6.7,3.5c-3.5,4.3-6.3,9.2-9.4,13.9c-9.6,14.6-19.3,29.1-29,43.6c-0.5-0.3-1.1-0.6-1.6-1   c13.3-26.6,26.5-53.2,40-80.1C328.7,167.6,327.5,167.7,324.1,175.3L324.1,175.3L324.1,175.3z M229.1,381   c1.8-10.5,3.5-21.1,5.4-31.7c6-34.8,7-70.4,17.8-104.4c0.8-2.5,1.2-5.2,1.4-7.9c0.6-9.4-3.5-14.2-14.5-16.2c-0.7,3.5-1.7,7-2,10.5   c-2.9,29.1-5.6,58.3-8.4,87.5c-0.5,5.2-1.4,9.3-8.1,10.5c-6,1.1-12.7,12.6-10.7,16.8c3.5,7.3,8.9,3.1,13.8,1.7   c0.4-0.1,1,0.2,1.5,0.4c1.8,10.7-4.6,21.8,0.6,32.4C226.9,380.7,228,380.8,229.1,381L229.1,381L229.1,381z M212.2,427.2   c-0.9-3.8-4.5-7.4-7.7-9.9c-3.7-2.9-4.7-5.6-3.8-10.2c1.5-7.8-3.5-11.5-10.8-8.6c-16.5,6.6-24.3,26.1-16.8,42   c7.5,15.8,29.3,23.6,44.3,15.3c2.5-1.4,6-5.5,5.4-7.3c-1-3-4.5-5.4-7.5-7.3c-1.4-0.9-4-0.2-5.3-0.2   C211,435.8,213.1,431.2,212.2,427.2L212.2,427.2L212.2,427.2z M356.8,249.4c-18,21.1-36.6,41.7-54.9,62.5   c-11.2,12.7-22.2,25.6-33.2,38.4c0.5,0.5,1,1.1,1.6,1.6c39.4-34.2,78.7-68.5,118.1-102.8c-0.4-0.8-0.8-1.5-1.2-2.2   c-2-0.3-4.3-1.4-5.9-0.7c-2,0.9-3.4,3.1-5,4.9c-1.2,1.3-2.2,2.7-3.3,4.1c-0.4-0.2-0.7-0.5-1-0.7c0.9-2.7,1.9-5.3,3-8.5   C367.3,241.9,362.2,243.1,356.8,249.4L356.8,249.4L356.8,249.4z M435.1,369.8c-46.6,8.5-93.1,17-139.7,25.8   c-6.3,1.2-12.2,4.1-19.6,6.6c7.1,3.6,159.8-16.7,171.3-21.6C445.3,371.1,442.8,368.4,435.1,369.8L435.1,369.8L435.1,369.8z    M278.9,438.4c46.6,24.5,144.3,46.1,173,37.6C394.2,463.4,336.5,450.9,278.9,438.4L278.9,438.4L278.9,438.4z M298.4,413.7   c59,1.9,117.9,3.8,178,5.6c-2-8.3-4.7-11.8-11.5-11.1c-7.4,0.8-14.9,1.1-22.4,1.2c-44.3,0.6-88.6,1.1-132.9,1.6   c-3.7,0-7.4,0-11.1,0C298.5,411.9,298.4,412.8,298.4,413.7L298.4,413.7L298.4,413.7z M389,367.9c3.1-2.2,3.2-8.9,4.7-13.6   c-3.9-0.6-8.1-2.3-11.7-1.5c-6.2,1.4-11.8,4.7-17.9,6.7c-4.6,1.5-8.6,4.1-6.6,8.9c1.4,3.5,5.8,5.9,8.8,8.6   C374.9,373.7,382.8,372.1,389,367.9L389,367.9z M293.7,478.5c4.2,2.8,14.9,0.1,19.1-4.6c-22.8-9.9-45.7-19.8-69.7-30.2   C260.8,455.9,277.2,467.3,293.7,478.5L293.7,478.5L293.7,478.5z M294.1,196c-2.8,2.1-6.4,3.6-8.1,6.3c-3,4.9-5.1,10.4-6.9,15.9   c-0.5,1.6,0.8,4.7,2.3,5.8c1.5,1.2,5.5,1.8,6.2,0.9c4.6-5.5,8.6-11.5,13.1-17.8C297.9,202.4,296,199.2,294.1,196L294.1,196   L294.1,196z M340.1,241.5c-5.1,0.8-13.9,9.7-13.6,14.8c0.1,2.4,2,5.8,4,6.7c6,2.8,19.5-6.8,19.5-13.3   C350,243.6,346.2,240.5,340.1,241.5L340.1,241.5z M307.2,456.2c6.5,6.6,14,11.6,21.1,17c11,8.5,10.9,8.6,25.1,0.6   C337,467.6,322.1,461.9,307.2,456.2L307.2,456.2z M231.5,405.3c-5.9,2.3-10.8,11.5-8.5,17.5c0.6,1.6,5.2,3.7,5.7,3.2   c4.6-4.4,8.6-9.2,11.5-12.4C239.7,405.1,236.9,403.2,231.5,405.3L231.5,405.3L231.5,405.3z M328.9,434.5c-2.6,1.6-5,3.5-7.4,5.3   c2.9,2.1,5.6,4.5,8.7,6.3c1.1,0.6,3.3,0.3,4.6-0.4c3.4-1.7,6.6-3.8,9.9-5.8c-3.4-2-6.9-4.1-10.4-6c-0.4-0.2-1-0.1-2-0.1   C331.5,434.1,329.9,433.9,328.9,434.5L328.9,434.5L328.9,434.5z M201,389.9c-4.6-12.5-9.2-25-13.7-37.6c-0.8,0.2-1.7,0.4-2.5,0.5   c-4.4,8,6.3,13.5,5.4,20.1c-2.7,1.5-5.1,2.6-7.2,4.1c-0.4,0.3,0.2,3.2,0.8,3.4c3.2,0.8,6.5,1.1,10.7,1.7c0.2,0.5,1,2.1,1.9,3.8   c0.9,1.6,1.8,3.1,2.7,4.6C199.6,390.3,200.3,390.1,201,389.9L201,389.9L201,389.9z M210.6,365c-3,5-6.3,10-8.9,15.2   c-0.3,0.6,3.9,4.5,4.3,4.2c4.7-2.9,9-6.3,15.5-11.2C216.5,369.5,213.5,367.2,210.6,365z M199.1,328.3c-1.3,1.4-3.8,2.9-3.7,4.2   c0.9,11.9,2.4,23.7,3.6,35.5c0.6,0,1.2-0.1,1.9-0.2v-38.7C200.3,328.8,199.7,328.6,199.1,328.3L199.1,328.3L199.1,328.3z    M205.3,403.6c-0.8,1,0.2,5.2,1.5,5.9c5.8,3.1,16.7-0.6,21-6.8C221.9,398.9,208.8,399.3,205.3,403.6L205.3,403.6z M247.1,320.3   c2.6-1.8,5.4-3.3,7.6-5.4c1.6-1.5,2.3-3.9,3.4-5.9c-2.8,0-6.6-1.2-8.2,0.2c-2.6,2.3-3.8,6.3-5.6,9.6   C245.2,319.3,246.2,319.8,247.1,320.3L247.1,320.3z M243.6,378.8c-1.7-0.6-5.2,2.6-7.2,4.7c-0.9,1-0.1,3.7-0.1,5.5   c2.5-0.4,5.1-0.8,7.6-1.3l-0.2,0.4C244.7,384.9,250.5,381.3,243.6,378.8L243.6,378.8z M248,460.5c-5-7.4-11.2-7.8-18,0H248z"></path>
</g>
</svg>