<?xml version='1.0' encoding='utf-8'?>
<svg xmlns="http://www.w3.org/2000/svg" id="Vrstva_1" data-name="Vrstva 1" viewBox="0 0 524.14 566.93" width="369.80933" height="400.0">
  <defs>
    <style>
      .cls-1 {
        fill-rule: evenodd;
      }
    </style>
  </defs>
  <path class="cls-1" d="m201.06,546.25v-75.34c-26.5-8.62-50.54-22.7-70.78-40.91l-65.28,37.69L3.99,362.03l65.23-37.66c-2.79-13.2-4.25-26.89-4.25-40.92s1.46-27.69,4.25-40.88L3.99,204.9l61-105.66,65.26,37.68c20.25-18.23,44.29-32.31,70.8-40.94V20.68h122.01v75.3c26.52,8.62,50.56,22.71,70.81,40.94l65.27-37.68,61,105.66-65.25,37.67c2.78,13.19,4.24,26.86,4.24,40.87s-1.47,27.71-4.25,40.91l65.25,37.67-61,105.66-65.29-37.7c-20.25,18.22-44.29,32.3-70.79,40.92v75.34h-122.01Zm61-168.95c51.83,0,93.85-42.02,93.85-93.85s-42.02-93.85-93.85-93.85-93.85,42.02-93.85,93.85,42.02,93.85,93.85,93.85Z"></path>
</svg>