<?xml version='1.0' encoding='utf-8'?>
<svg xmlns="http://www.w3.org/2000/svg" id="Vrstva_1" data-name="Vrstva 1" viewBox="0 0 462.71 566.93" width="326.4671" height="400.0">
  <defs>
    <style>
      .cls-1 {
        fill-rule: evenodd;
      }

      .cls-1, .cls-2 {
        fill: #010101;
      }
    </style>
  </defs>
  <path class="cls-1" d="m421,313.76s-75.5-18.9-188.2-18.9c-96.1,0-165.1,13.7-183.4,17.8,15.3-72.5,72.6-129.5,145.3-144.4v-40.1C87.5,146.26,5.9,239.36,5.9,351.56c0,92.8,55.8,172.6,135.8,207.5h181.3c79.9-35,135.8-114.7,135.8-207.5,0-12.9-1.1-25.5-3.1-37.7l-34.7-.1h0Zm-2.9,59.3l-110.3,34.1-18.9,37.7c-37.7,18.9-75.5,18.9-113.2,0l-18.9-37.7-110.3-34.2c7.4,64.6,47.7,119.3,103.8,146.7h164c56.1-27.4,96.4-82,103.8-146.6h0Z"></path>
  <path class="cls-1" d="m272.8,75.76c-1.5,15.2.8,37.2,12.2,68.4l.1.2h0c7.5,21.6,10.4,42,7.2,60.6-3.3,19-12.9,35-28.4,47.6l-18.3-22.7c10.2-8.3,15.9-18.1,18-29.9,2.1-12.1.5-27.3-6-46-12.4-34-15.8-60.4-13.8-81.1l29,2.9h0Z"></path>
  <path class="cls-2" d="m231.9,76.86l25.8-69,26.5,69h-52.3Z"></path>
  <path class="cls-1" d="m346.8,75.76c-1.5,15.2.8,37.2,12.2,68.4l.1.2h0c7.5,21.6,10.4,42,7.2,60.6-3.3,19-12.8,35-28.4,47.6l-18.3-22.7c10.2-8.3,16-18.1,18-29.9,2.1-12.1.5-27.3-6-46-12.4-34-15.8-60.4-13.8-81.1l29,2.9h0Z"></path>
  <path class="cls-2" d="m305.9,76.86l25.8-69,26.5,69h-52.3Z"></path>
  <path class="cls-1" d="m420.8,75.76c-1.5,15.2.8,37.2,12.2,68.4l.1.2h0c7.5,21.6,10.4,42,7.2,60.6-3.3,19-12.8,35-28.4,47.6l-18.3-22.7c10.2-8.3,16-18.1,18-29.9,2.1-12.1.5-27.3-6-46-12.4-34-15.8-60.4-13.8-81.1l29,2.9h0Z"></path>
  <path class="cls-2" d="m379.9,76.86l25.8-69,26.5,69h-52.3Z"></path>
</svg>