<?xml version='1.0' encoding='utf-8'?>
<svg xmlns="http://www.w3.org/2000/svg" id="Vrstva_1" data-name="Vrstva 1" viewBox="0 0 595.42 566.93" width="420.10126" height="400.0">
  <defs>
    <style>
      .cls-1 {
        fill-rule: evenodd;
      }
    </style>
  </defs>
  <path class="cls-1" d="m525.01,345.46c-34.23,0-61.99-27.76-61.99-61.99s27.76-61.99,62-61.99,61.99,27.76,61.99,61.99-27.76,61.99-62,61.99Zm-227.3,0c-34.23,0-62-27.76-62-61.99s27.77-61.99,62-61.99,61.99,27.76,61.99,61.99-27.76,61.99-61.99,61.99ZM8.41,283.46c0,34.23,27.76,61.99,61.99,61.99s62-27.76,62-61.99-27.76-61.99-62-61.99-61.99,27.76-61.99,61.99Z"></path>
</svg>