<?xml version='1.0' encoding='utf-8'?>
<!-- Generator: Adobe Illustrator 27.2.0, SVG Export Plug-In . SVG Version: 6.00 Build 0)  --><svg xmlns="http://www.w3.org/2000/svg" xmlns:xlink="http://www.w3.org/1999/xlink" version="1.1" id="Vrstva_1" x="0px" y="0px" viewBox="0 0 920.6 566.9" style="enable-background:new 0 0 920.6 566.9;" xml:space="preserve" width="649.5678" height="400.0">
<g>
	<path d="M39.9,292.5c0-3.6,1.3-6.7,3.8-9.2c2.6-2.6,5.6-3.8,9.2-3.8s6.7,1.3,9.2,3.8c2.6,2.6,3.8,5.6,3.8,9.2   c0,12.3,2.1,26.1,6.3,41.5c4.2,15.4,12.1,33.8,23.6,55.3c1.5,3.1,2.8,6.6,3.6,10.6c0.9,4,1.3,7.5,1.3,10.6c0,6.9-1.3,13.2-3.8,19   c-2.6,5.8-6,10.8-10.4,15.2c-4.4,4.4-9.5,7.8-15.4,10.2c-5.9,2.4-12.2,3.6-18.8,3.6s-12.9-1.2-18.8-3.6   c-5.9-2.4-10.9-5.8-15.2-10.2c-4.2-4.4-7.6-9.5-10-15.4c-2.4-5.9-3.6-12.2-3.6-18.8c0-3.6,0.4-7.2,1.1-11c0.8-3.7,2.1-7.1,3.8-10.2   c11.5-21.5,19.4-40,23.6-55.3C37.7,318.6,39.9,304.8,39.9,292.5L39.9,292.5L39.9,292.5z M252.7,251c0-4.6,1.6-8.5,4.8-11.7   c3.2-3.2,7-4.8,11.3-4.8c4.6,0,8.5,1.6,11.7,4.8c3.2,3.2,4.8,7.1,4.8,11.7c0,7.7,0.6,15.8,1.7,24.2c1.1,8.5,3.2,17.7,6.1,27.7   s6.8,20.7,11.5,32.3c4.7,11.5,10.7,24,17.9,37.3c4.1,7.9,6.1,16.6,6.1,26.1c0,8.5-1.6,16.3-4.8,23.6c-3.2,7.3-7.5,13.6-12.9,19   c-5.4,5.4-11.7,9.6-19,12.7c-7.3,3.1-15,4.6-23.2,4.6s-15.9-1.6-23.2-4.8c-7.3-3.2-13.6-7.5-19-12.9c-5.4-5.4-9.7-11.7-12.9-19   c-3.2-7.3-4.8-15-4.8-23.2c0-9.7,2.2-18.6,6.5-26.5c14.3-26.6,24.1-49.6,29.4-68.9C250,283.7,252.7,266.3,252.7,251L252.7,251   L252.7,251z M519.6,199.1c0-5.9,2-10.8,6-14.8c4-4,8.9-5.9,14.8-5.9s10.4,2,14.4,5.9c4,4,6,8.9,6,14.8c0,18.9,3.3,40.6,10,64.9   c6.7,24.3,18.8,53.1,36.5,86.4c2.8,5.1,4.9,10.6,6.1,16.3c1.3,5.8,1.9,11.3,1.9,16.7c0,10.5-2,20.3-6,29.4c-4,9.1-9.3,17-16.1,23.8   c-6.8,6.8-14.8,12.1-24,15.9c-9.2,3.8-19,5.8-29.2,5.8s-20.3-2-29.4-6c-9.1-4-17-9.3-23.8-15.9c-6.8-6.7-12.1-14.5-15.9-23.6   c-3.8-9.1-5.8-18.9-5.8-29.4c0-12.3,2.8-23.3,8.5-33c9-16.6,16.4-32.1,22.3-46.3c5.9-14.2,10.6-27.5,14-40   c3.5-12.4,5.9-23.9,7.3-34.6C518.5,219,519.4,208.9,519.6,199.1L519.6,199.1L519.6,199.1z M796.2,134.6c0-7.4,2.5-13.6,7.5-18.6   s11.1-7.5,18.2-7.5c7.7,0,13.9,2.8,18.6,8.3c4.7,5.5,7.1,12,7.1,19.4c0,11.8,1,24.3,2.9,37.4c1.9,13.2,5.2,27.5,9.8,42.8   c4.6,15.4,10.6,31.9,18.1,49.6c7.4,17.7,16.6,36.9,27.7,57.6c6.4,12.5,9.6,26.3,9.6,41.1c0,13.1-2.5,25.3-7.5,36.7   s-11.7,21.3-20.2,29.8c-8.4,8.5-18.4,15.1-29.8,20c-11.4,4.9-23.6,7.3-36.7,7.3s-24.9-2.5-36.3-7.5s-21.3-11.7-29.8-20.2   s-15.2-18.4-20.2-29.8c-5-11.4-7.5-23.5-7.5-36.3c0-15.4,3.5-29.2,10.4-41.5c11.3-21,20.5-40.4,27.8-58.2   c7.3-17.8,13.1-34.4,17.5-49.7c4.3-15.4,7.5-29.6,9.4-42.8C794.9,159.2,796,146.6,796.2,134.6L796.2,134.6L796.2,134.6z"></path>
</g>
</svg>