<?xml version='1.0' encoding='utf-8'?>
<!-- Generator: Adobe Illustrator 27.2.0, SVG Export Plug-In . SVG Version: 6.00 Build 0)  --><svg xmlns="http://www.w3.org/2000/svg" xmlns:xlink="http://www.w3.org/1999/xlink" version="1.1" id="Vrstva_1" x="0px" y="0px" viewBox="0 0 561.4 566.9" style="enable-background:new 0 0 561.4 566.9;" xml:space="preserve" width="396.11926" height="400.0">
<style type="text/css">
	.st0{fill-rule:evenodd;clip-rule:evenodd;}
</style>
<g>
	<path d="M288.1,203.5V178h-56.7v-85c0-46.4-38.9-85.1-85.1-85.1S61.2,46.8,61.2,93.1v85.1H6V432h173.2c-3-13.4-4.4-28.4-4.4-41.8   C176.1,308.1,221,237.9,288.1,203.5L288.1,203.5z M91,93.1c0-31.4,25.5-56.7,56.7-56.7s56.7,25.5,56.7,56.7v85.1H91L91,93.1   L91,93.1L91,93.1z"></path>
	<path class="st0" d="M386.8,559c94.1,0,168.6-76.1,168.6-168.6s-76.1-168.8-168.6-168.8s-168.6,76.1-168.6,168.6S294,559,386.8,559   z M413.4,297.6c-9-4.4-19.4-7.5-32.8-7.5c-16.5,0-31.4,4.4-44.9,13.4l7.5,31.4c6-4.4,11.9-6,16.5-9c6-1.5,10.4-3,16.5-3   c7.5,0,13.4,1.5,16.5,6c4.4,4.4,6,10.5,6,16.5s-1.5,11.9-4.4,16.5c-3,4.4-6,9-11.9,11.9c-6,3-11.9,7.5-20.9,10.5v43.3h29.9v-19.4   c29.9-11.9,44.9-32.8,44.9-62.6c0-10.5-1.5-19.4-6-26.9C428.5,309.5,422.4,303.6,413.4,297.6L413.4,297.6z M361.3,487.1h35.9v-37.4   h-35.9V487.1z"></path>
</g>
</svg>