<?xml version='1.0' encoding='utf-8'?>
<!-- Generator: Adobe Illustrator 27.2.0, SVG Export Plug-In . SVG Version: 6.00 Build 0)  --><svg xmlns="http://www.w3.org/2000/svg" xmlns:xlink="http://www.w3.org/1999/xlink" version="1.1" id="Vrstva_1" x="0px" y="0px" viewBox="0 0 475.4 566.9" style="enable-background:new 0 0 475.4 566.9;" xml:space="preserve" width="335.43832" height="400.0">
<style type="text/css">
	.st0{fill-rule:evenodd;clip-rule:evenodd;}
</style>
<g>
	<path d="M76.3,239.6c1.5,1.5,1.5,4.4,2.9,6c1.5,1.5,1.5,4.4,2.9,6c8.9,19.4,23.8,47.7,29.8,80.2c6,34.3,0,69.8-34.3,99.6l26.8,31.2   c49.1-41.6,55.1-93.7,47.6-138.3c-6-38.7-23.8-72.7-34.3-92.1c-1.5-1.5-1.5-4.4-2.9-6c0-1.5-1.5-2.9-1.5-4.4l0,0v-1.5l0,0   c-8.9-19.4-23.8-47.7-29.8-80.2c-6-34.3,0-69.8,34.3-99.6L91.1,9.1c-49.1,41.8-55,93.7-47.5,138.4C48.1,186,66,220.3,76.3,239.6   L76.3,239.6z"></path>
	<path d="M367.8,140.1c2.9,13.4,6,28.3,11.9,40.2c-15-4.4-29.8-6-46.2-6c-2.9-8.9-4.4-17.9-6-26.8C320,102.7,326,50.8,375.1,9.1   l26.8,31.2C367.8,70.1,361.8,105.7,367.8,140.1L367.8,140.1z"></path>
	<path d="M244.3,199.4c-7.5-16.4-16.4-37.2-19.4-59.4c-6-34.3,0-69.8,34.3-99.6L232.4,9.1c-49.1,41.6-55.1,93.7-47.6,138.3   c6,31.2,17.9,60.9,26.8,80.2C222,217.3,232.4,206.9,244.3,199.4L244.3,199.4z"></path>
	<path class="st0" d="M456.9,337.7c0,68.3-55.1,123.4-123.5,123.4S210,406,210,337.7s55.1-123.5,123.5-123.5   S456.9,270.7,456.9,337.7L456.9,337.7z M278.6,368.8l37.2-37.2V244h34.3v102.6l-47.6,47.6L278.6,368.8z"></path>
	<path d="M5,516h465.4v41.8H5V516z"></path>
</g>
</svg>