<?xml version='1.0' encoding='utf-8'?>
<!-- Generator: Adobe Illustrator 27.2.0, SVG Export Plug-In . SVG Version: 6.00 Build 0)  --><svg xmlns="http://www.w3.org/2000/svg" xmlns:xlink="http://www.w3.org/1999/xlink" version="1.1" id="Vrstva_1" x="0px" y="0px" viewBox="0 0 910 566.9" style="enable-background:new 0 0 910 566.9;" xml:space="preserve" width="642.0885" height="400.0">
<g>
	<path d="M280.8,105.6c-68.7,0-76.2,95.7-76.2,176.7s9.8,176.7,76.2,176.7c39.3,0,127.6-61.4,127.6-176.7S317.7,105.6,280.8,105.6   L280.8,105.6z M280.8,407.5c-7.3,0-22.1-24.6-22.1-122.8s17.3-122.8,22.1-122.8c12.3,2.5,73.7,39.3,73.7,122.8   S293.1,405,280.8,407.5L280.8,407.5z" fill="#51F093"></path>
	<rect x="3.4" y="255.3" width="149.7" height="53.9" fill="#51F093"></rect>
	<rect x="37.7" y="437.2" transform="matrix(0.9138 -0.4061 0.4061 0.9138 -178.8917 85.1995)" width="147.2" height="53.9" fill="#51F093"></rect>
	<rect x="85.4" y="29.6" transform="matrix(0.4063 -0.9138 0.9138 0.4063 -27.69 164.0333)" width="53.9" height="147.4" fill="#51F093"></rect>
	<path d="M631.8,105.6c-39.3,0-127.6,61.4-127.6,176.7s88.3,176.7,127.6,176.7c68.7,0,76.2-95.7,76.2-176.7S700.5,105.6,631.8,105.6   L631.8,105.6z M631.8,407.5c-12.3-2.5-73.7-39.3-73.7-122.8s61.4-122.8,73.7-122.8c7.3,0,22.1,24.6,22.1,122.8   C656.3,385.4,639.1,407.5,631.8,407.5z" fill="#51F093"></path>
	<rect x="756.9" y="255.3" width="149.7" height="53.9" fill="#51F093"></rect>
	<rect x="752.4" y="75.9" transform="matrix(0.9138 -0.4063 0.4063 0.9138 29.4305 344.455)" width="147.3" height="53.9" fill="#51F093"></rect>
	<rect x="798.2" y="390.4" transform="matrix(0.4061 -0.9138 0.9138 0.4061 66.0706 1029.6266)" width="53.9" height="147.2" fill="#51F093"></rect>
</g>
</svg>