<?xml version='1.0' encoding='utf-8'?>
<!-- Generator: Adobe Illustrator 27.2.0, SVG Export Plug-In . SVG Version: 6.00 Build 0)  --><svg xmlns="http://www.w3.org/2000/svg" xmlns:xlink="http://www.w3.org/1999/xlink" version="1.1" id="Vrstva_1" x="0px" y="0px" viewBox="0 0 255.4 566.9" style="enable-background:new 0 0 255.4 566.9;" xml:space="preserve" width="180.20815" height="400.0">
<g>
	<g>
		<polygon points="131.2,550 14.1,415.6 14.1,341.7 130.4,475.2 241.3,342 241.3,417.9   " fill="#53A7F5"></polygon>
		<path d="M131.3,562.4L6.1,418.6v-98.3l124.1,142.5l119-143v100.9L131.3,562.4L131.3,562.4z M22.1,412.6L131,537.7L233.3,415v-50.9    L130.5,487.6L22.1,363.1V412.6L22.1,412.6z" fill="#53A7F5"></path>
	</g>
	<g>
		<polygon points="131.2,392.4 14.1,257.9 14.1,184 130.4,317.5 241.3,184.3 241.3,260.1   " fill="#53A7F5"></polygon>
		<path d="M131.3,404.7L6.1,260.9v-98.3l124.1,142.5l119-143V263L131.3,404.7L131.3,404.7z M22.1,254.9L131,380l102.2-122.8v-50.8    L130.5,329.9L22.1,205.4V254.9L22.1,254.9z" fill="#53A7F5"></path>
	</g>
	<g>
		<polygon points="131.2,234.7 14.1,100.3 14.1,26.2 130.4,159.8 241.3,26.7 241.3,102.4   " fill="#53A7F5"></polygon>
		<path d="M131.3,247L6.1,103.3V4.8l124.1,142.7l119-143v100.8L131.3,247L131.3,247z M22.1,97.3L131,222.3L233.3,99.5V48.8    L130.5,172.2L22.1,47.6V97.3L22.1,97.3z" fill="#53A7F5"></path>
	</g>
</g>
</svg>