<?xml version='1.0' encoding='utf-8'?>
<!-- Generator: Adobe Illustrator 27.2.0, SVG Export Plug-In . SVG Version: 6.00 Build 0)  --><svg xmlns="http://www.w3.org/2000/svg" xmlns:xlink="http://www.w3.org/1999/xlink" version="1.1" id="Vrstva_1" x="0px" y="0px" viewBox="0 0 714.4 566.9" style="enable-background:new 0 0 714.4 566.9;" xml:space="preserve" width="504.07477" height="400.0">
<g>
	<path d="M5.6,283.5c0-98.9,63.7-175.6,138.9-175.6s138.9,76.2,138.9,175.6S219.8,459,144.5,459C69.3,459,5.6,382.8,5.6,283.5   L5.6,283.5z M218.3,283.5c0-55-34-98.4-73.8-98.4s-73.8,44.4-73.8,98.4s34,98.4,73.8,98.4S218.3,338.4,218.3,283.5L218.3,283.5   L218.3,283.5z"></path>
	<path d="M370.2,188.9v69.5H486v71.4H370.2v123.5H308V113.7h188.1v75.2L370.2,188.9L370.2,188.9L370.2,188.9z"></path>
	<path d="M582.9,188.9v69.5h115.8v71.4H582.9v123.5h-62.2V113.7h188.1v75.2L582.9,188.9L582.9,188.9L582.9,188.9z"></path>
</g>
</svg>