<?xml version='1.0' encoding='utf-8'?>
<svg xmlns="http://www.w3.org/2000/svg" id="Vrstva_1" data-name="Vrstva 1" viewBox="0 0 768.82 566.93" width="542.4444" height="400.0">
  <defs>
    <style>
      .cls-1 {
        fill-rule: evenodd;
      }
    </style>
  </defs>
  <path class="cls-1" d="m203.42,209.48c-21.5,0-39.44-4.84-53.83-14.53l7.77-31.63c6.72,3.61,13.63,6.36,20.73,8.26,7.1,1.9,14.78,2.85,23.03,2.85,11.13,0,19.39-2.19,24.76-6.55,5.57-4.56,8.35-10.92,8.35-19.09,0-7.6-2.49-13.3-7.48-17.1-4.99-3.8-12.86-5.7-23.61-5.7h-21.3v-31.63h20.73c9.21,0,16.22-1.99,21.02-5.98,4.8-4.18,7.2-9.78,7.2-16.81,0-7.6-2.59-13.39-7.77-17.38-5.18-3.99-13.53-5.98-25.05-5.98-15.93,0-29.65,3.42-41.17,10.26l-8.06-29.92c8.06-5.32,16.31-9.12,24.76-11.4,8.64-2.47,18.23-3.7,28.79-3.7,14.78,0,27.25,2.47,37.43,7.41,10.36,4.94,18.04,11.49,23.03,19.66,5.18,7.98,7.77,16.72,7.77,26.21,0,18.8-8.54,32.2-25.62,40.18,10.75,3.99,18.52,9.88,23.32,17.67,4.99,7.6,7.48,16.34,7.48,26.21,0,11.4-2.78,21.56-8.35,30.49-5.57,8.74-13.82,15.67-24.76,20.8-10.75,4.94-23.8,7.41-39.15,7.41Zm116.07-23.37c12.47,15.58,30.23,23.37,53.26,23.37,13.82,0,25.82-3.13,35.99-9.4,10.17-6.27,17.95-14.63,23.32-25.08,5.37-10.45,8.06-21.84,8.06-34.19s-2.4-22.32-7.2-31.63c-4.8-9.31-11.61-16.62-20.44-21.94-8.83-5.51-19.19-8.26-31.09-8.26-8.64,0-16.41,1.43-23.32,4.27-6.91,2.85-12.76,6.93-17.56,12.25.77-16.91,4.51-28.97,11.23-36.19,6.72-7.41,16.31-11.11,28.79-11.11,7.29,0,14.3,1.04,21.02,3.14,6.91,1.9,13.24,4.75,19,8.55l10.65-30.2c-6.52-5.32-14.3-9.31-23.32-11.97-8.83-2.85-18.62-4.27-29.36-4.27-25.91,0-45.39,8.74-58.44,26.21-12.86,17.29-19.29,41.89-19.29,73.8s6.24,57.08,18.71,72.66Zm30.23-22.22c-5.18-7.41-8.25-19.19-9.21-35.33,3.65-5.32,8.35-9.4,14.11-12.25,5.95-3.04,12.28-4.56,19-4.56,8.25,0,14.68,2.56,19.29,7.69,4.8,5.13,7.2,12.54,7.2,22.22,0,10.26-2.49,18.43-7.48,24.5-4.8,5.89-11.61,8.83-20.44,8.83-9.79,0-17.27-3.7-22.46-11.11Zm192.72,45.59c-15.93,0-29.65-3.89-41.17-11.68-11.32-7.79-20.06-19-26.2-33.62-5.95-14.63-8.92-32.2-8.92-52.71s2.97-38.09,8.92-52.71c6.14-14.63,14.88-25.84,26.2-33.62,11.51-7.79,25.24-11.68,41.17-11.68s29.56,3.89,40.88,11.68c11.51,7.79,20.34,19,26.49,33.62,6.14,14.63,9.21,32.2,9.21,52.71s-3.07,38.09-9.21,52.71c-6.14,14.63-14.97,25.84-26.49,33.62-11.32,7.79-24.95,11.68-40.88,11.68Zm0-36.47c23.61,0,35.41-20.52,35.41-61.55,0-20.71-2.98-36.09-8.92-46.16-5.76-10.26-14.59-15.39-26.49-15.39s-20.06,5.22-26.2,15.67c-5.95,10.26-8.92,25.55-8.92,45.87s3.07,35.43,9.21,45.88c6.14,10.45,14.78,15.67,25.91,15.67Zm151.09-55.28c-9.79,0-18.71-2.28-26.77-6.84-8.06-4.75-14.39-11.11-19-19.09-4.61-7.98-6.91-16.81-6.91-26.5s2.3-18.24,6.91-26.21c4.61-7.98,10.94-14.25,19-18.8,8.06-4.56,16.99-6.84,26.77-6.84s18.71,2.28,26.77,6.84c8.06,4.56,14.4,10.83,19,18.8s6.91,16.72,6.91,26.21-2.3,18.52-6.91,26.5c-4.61,7.98-10.94,14.34-19,19.09-8.06,4.56-16.99,6.84-26.77,6.84Zm0-25.08c5.18,0,9.79-1.14,13.82-3.42,4.03-2.47,7.2-5.79,9.5-9.97,2.3-4.18,3.45-8.83,3.45-13.96s-1.15-9.4-3.45-13.39c-2.3-4.18-5.47-7.41-9.5-9.69-4.03-2.47-8.64-3.7-13.82-3.7s-9.79,1.23-13.82,3.7c-4.03,2.28-7.2,5.51-9.5,9.69-2.3,3.99-3.45,8.45-3.45,13.39s1.15,9.78,3.45,13.96c2.3,4.18,5.47,7.5,9.5,9.97,4.03,2.28,8.64,3.42,13.82,3.42ZM45.01,220.93c15.42-13.88,35.1-26.08,57.71-36.62v60.16c-8.52,5.17-15.73,10.46-21.61,15.75-14.33,12.89-18.63,23.76-18.63,32.03s4.3,19.14,18.63,32.03c14.33,12.9,36.57,25.74,66.32,37.06,51.02,19.42,120.13,32.89,198.19,36.28l-60.67-60.05,37.94-37.55,107.31,106.21,18.97,18.77-18.97,18.78-107.31,106.21-37.94-37.55,62.25-61.61c-84.17-3.3-160.64-17.7-219.04-39.93-33.36-12.7-62.2-28.47-83.16-47.34-20.97-18.87-36.19-42.94-36.19-71.32s15.21-52.45,36.19-71.32Zm642.71,39.29c-7.08-6.37-16.09-12.73-26.98-18.9v-59.46c24.86,11.08,46.45,24.1,63.08,39.07,20.97,18.87,36.19,42.94,36.19,71.32,0,42.65-33.62,75.17-73.66,97.61-41.6,23.32-98.62,40.89-163.54,51.2l-8.5-52.43c61.11-9.7,111.4-25.81,145.6-44.97,35.77-20.05,46.44-38.82,46.44-51.4,0-8.28-4.3-19.14-18.63-32.03Z"></path>
</svg>