<?xml version='1.0' encoding='utf-8'?>
<svg xmlns="http://www.w3.org/2000/svg" id="Vrstva_1" data-name="Vrstva 1" viewBox="0 0 485.44 566.93" width="342.50436" height="400.0">
  <defs>
    <style>
      .cls-1 {
        fill-rule: evenodd;
      }
    </style>
  </defs>
  <path class="cls-1" d="m407.66,176.97c40.37-6.77,71.13-41.88,71.13-84.17,0-47.14-38.21-85.35-85.35-85.35s-85.35,38.21-85.35,85.35c0,42.29,30.76,77.4,71.13,84.17v143.44h28.45v-143.44Zm-46.31-58.51v-51.41h64.14v51.41h-64.14Z"></path>
  <path class="cls-1" d="m42.93,476.3c0,47.64,27.57,83.19,75.21,83.19s75.45-35.55,75.45-83.19-27.81-83.19-75.45-83.19-75.21,35.31-75.21,83.19Zm115.84,0c0,31.2-13.3,52.24-40.63,52.24s-40.39-21.04-40.39-52.24,13.3-52.24,40.39-52.24,40.63,21.04,40.63,52.24Z"></path>
  <path d="m217.43,556.58v-160.57h97.7v29.99h-64.57v38.45h57.55v29.02h-57.55v63.12h-33.13Z"></path>
  <path d="m338.46,556.58v-160.57h97.7v29.99h-64.57v38.45h57.55v29.02h-57.55v63.12h-33.13Z"></path>
  <path class="cls-1" d="m145.25,88.01c36.9,0,65.26,4.18,76.75,6.18l8.03,1.4,53.27,93.91-.02,122.86c0,10.62-4.55,19.75-11.98,25.92-7.1,5.9-16,8.45-24.47,8.45s-17.36-2.55-24.46-8.48c-6.82-5.7-11.16-13.88-11.82-23.37H79.38c-.65,9.49-4.98,17.67-11.8,23.37-7.1,5.92-15.99,8.48-24.46,8.48s-17.36-2.55-24.46-8.45c-7.43-6.17-11.98-15.31-11.98-25.92l-.02-122.86,53.27-93.91,8.03-1.4c11.48-2,39.85-6.18,76.75-6.18h.54Zm49.75,121.37h29.82v29.81h19.24v-49.7h-68.95l19.88,19.88Zm-149.1,29.81h19.24v-29.81h29.82l19.88-19.88H45.89v49.7Zm99.08-116.69c-27.38.02-49.62,2.51-62.59,4.41l-17.04,30.09h159.26l-17.04-30.09c-12.97-1.9-35.21-4.39-62.59-4.41Z"></path>
</svg>