<?xml version='1.0' encoding='utf-8'?>
<!-- Generator: Adobe Illustrator 27.2.0, SVG Export Plug-In . SVG Version: 6.00 Build 0)  --><svg xmlns="http://www.w3.org/2000/svg" xmlns:xlink="http://www.w3.org/1999/xlink" version="1.1" id="Vrstva_1" x="0px" y="0px" viewBox="0 0 998.6 566.9" style="enable-background:new 0 0 998.6 566.9;" xml:space="preserve" width="704.60394" height="400.0">
<style type="text/css">
	.st0{fill-rule:evenodd;clip-rule:evenodd;}
</style>
<g>
	<path class="st0" d="M177.9,300.9c56.2,0,101.7-45.5,101.7-101.7S234.1,97.5,177.9,97.5S76.2,143,76.2,199.2   S121.7,300.9,177.9,300.9z"></path>
	<path class="st0" d="M177.9,330.3c-96.4,0-174,77.5-174,174v13.4h345.4v-13.4C352.1,407.9,274.4,330.3,177.9,330.3z"></path>
	<path class="st0" d="M619.8,300.9c56.2,0,101.7-45.5,101.7-101.7S676,97.5,619.8,97.5S518.1,143,518.1,199.2   S566.3,300.9,619.8,300.9z"></path>
	<path class="st0" d="M619.8,330.3c-96.5,0-174,77.5-174,174v13.4h345.4v-13.4C793.8,407.9,716.2,330.3,619.8,330.3L619.8,330.3z"></path>
	<path class="st0" d="M817.9,282.1c-16.1,0-32.2,2.7-45.5,5.4c-2.7,5.4-5.4,8-8,13.4c56.2,37.6,93.8,99,104.4,168.6h125.8v-13.4   C991.9,359.9,914.4,282.1,817.9,282.1z"></path>
	<path class="st0" d="M788.3,247.3c8,2.7,18.6,5.4,29.3,5.4c56.2,0,101.7-45.5,101.7-101.7S874.1,49.2,817.9,49.2   c-26.9,0-53.5,10.7-69.6,29.3c29.3,32.2,48.2,75.1,48.2,120.6C796.5,215.3,793.8,231.3,788.3,247.3L788.3,247.3z"></path>
	<polygon class="st0" points="472.5,271.4 424.3,271.4 424.3,223.2 376.1,223.2 376.1,271.4 325.2,271.4 325.2,322.4 376.1,322.4    376.1,370.6 424.3,370.6 424.3,322.4 472.5,322.4  "></polygon>
</g>
</svg>