<?xml version='1.0' encoding='utf-8'?>
<!-- Generator: Adobe Illustrator 27.2.0, SVG Export Plug-In . SVG Version: 6.00 Build 0)  --><svg xmlns="http://www.w3.org/2000/svg" xmlns:xlink="http://www.w3.org/1999/xlink" version="1.1" id="Vrstva_1" x="0px" y="0px" viewBox="0 0 534.4 566.9" style="enable-background:new 0 0 534.4 566.9;" xml:space="preserve" width="377.06827" height="400.0">
<path d="M268.2,67.1c57.8,0,112.1,22.6,152.9,63.4s63.4,95.2,63.4,152.9s-22.6,112.1-63.4,152.9s-95.2,63.4-152.9,63.4  s-112.1-22.6-152.9-63.4s-63.4-95.2-63.4-152.9s22.6-112.1,63.4-152.9S210.4,67.1,268.2,67.1 M268.2,20.4  c-145.2,0-263,117.7-263,263s117.7,263,263,263s263-117.7,263-263S413.4,20.4,268.2,20.4L268.2,20.4L268.2,20.4z" fill="#F54C4C"></path>
<g>
	<path d="M404.3,285.8c-4.3-20.3-26.3-32.5-65.1-36c-25.5-2.3-49.8-0.5-50.7-0.3l-75.3,8l-4.2-17.6l-77.3,54.9l91.7,6.3l-4.5-19.2   l71.8-7.6c39.3-3.2,85,2.6,89.2,16.2c-2.2,3.6-13.6,9.7-24.1,12.8l6.8,24C370.4,324.9,409.8,312.2,404.3,285.8L404.3,285.8   L404.3,285.8z" fill="#F54C4C"></path>
	<path d="M358.4,334.9l-10.1-35.6l5.7-1.7c7.2-2.1,13.9-5.5,17.7-7.9c-3.4-2.4-10.6-5.5-24.3-7.7c-16.5-2.7-37-3.3-56.2-1.7   l-64.9,6.9l4.8,20.5l-116.6-8.1l98.3-69.8l5,21.1l70-7.5l0,0c3.4-0.4,27.1-1.9,51.9,0.3c41.8,3.8,65.5,17.5,70.4,40.8v0   c4.3,20.4-12.4,38.1-45.8,48.6L358.4,334.9L358.4,334.9z M363,307.3l3.5,12.4c14-5.2,35.3-15.9,31.8-32.6   c-3.7-17.5-23.9-28-59.8-31.3c-25-2.3-48-0.4-49.3-0.3l-0.2,0l-80.6,8.6l-3.3-14.1l-56.4,40l66.8,4.6l-4.2-17.9l78.6-8.3   c33.6-2.8,89.3,0.3,95.5,20.5l0.8,2.6l-1.4,2.3C381.9,298.7,371.7,304,363,307.3L363,307.3z M289.4,255.4L289.4,255.4   C289.4,255.4,289.4,255.4,289.4,255.4z" fill="#F54C4C"></path>
</g>
</svg>