<?xml version='1.0' encoding='utf-8'?>
<!-- Generator: Adobe Illustrator 27.2.0, SVG Export Plug-In . SVG Version: 6.00 Build 0)  --><svg xmlns="http://www.w3.org/2000/svg" xmlns:xlink="http://www.w3.org/1999/xlink" version="1.1" id="Vrstva_1" x="0px" y="0px" viewBox="0 0 539.4 566.9" style="enable-background:new 0 0 539.4 566.9;" xml:space="preserve" width="380.59622" height="400.0">
<style type="text/css">
	.st0{fill-rule:evenodd;clip-rule:evenodd;}
</style>
<g>
	<path class="st0" d="M381,19.8v44.4h21.5v32.9c0,7.2-1.4,14.3-4.3,21.5s-7.2,12.9-11.4,17.2c-5.7,5.7-11.4,8.6-17.2,11.4   c-2.9,1.4-5.7,2.9-8.6,2.9v41.5c-8.6,0-17.2,1.4-25.8,4.3V150c-4.3-1.4-7.2-2.9-11.4-4.3c-7.2-4.3-14.3-10-20-15.7   c-7.2-10-11.4-21.5-11.4-32.9V64.2H314V19.8h21.5v44.4H357V19.8C356.6,19.8,381,19.8,381,19.8z M295.2,208.4L295.2,208.4V207l0,0   c0-31.5-27.2-45.8-45.8-45.8h-5.7V19.8H32.4v368.7H5.2v25.8h174.2c-1.4-8.6-1.4-17.2-1.4-25.8c0-58.5,25.8-110.1,64.3-145.8v-70.1   c1.4-1.4,4.3-1.4,5.7-1.4c8.6,0,20,7.2,20,20l0,0C276.6,217,285.3,212.7,295.2,208.4L295.2,208.4z M202.5,191.3L111,297.1   l12.9-91.5h-53l91.5-105.8l-12.9,91.5L202.5,191.3L202.5,191.3z"></path>
	<path class="st0" d="M216.8,388.4c0-87.2,71.4-158.7,158.7-158.7s158.7,71.4,158.7,158.7s-71.4,158.7-158.7,158.7   S216.8,475.6,216.8,388.4L216.8,388.4z M462.5,405.6c1.4-11.4,1.4-21.5,0-32.9l24.3-14.3c-5.7-20-15.7-37.2-30-51.5l-24.3,14.3   c-8.6-7.2-18.6-12.9-28.6-17.2v-28.6c-2.9,0-4.3-1.4-7.2-1.4c-7.2-1.4-15.7-2.9-22.9-2.9h-7.2c-5.7,0-10,1.4-14.3,1.4   c-2.9,0-4.3,1.4-7.2,1.4v28.6c-10,4.3-20,10-28.6,17.2l-24.3-14.3c-14.3,14.3-24.3,32.9-30,51.5l24.3,14.3   c-1.4,11.4-1.4,21.5,0,32.9l-24.3,14.3c5.7,20,15.7,37.2,30,51.5l24.3-14.3c8.6,7.2,18.6,12.9,28.6,17.2v28.6c20,5.7,40.1,5.7,60,0   v-28.6c10-4.3,20-10,28.6-17.2l24.3,14.3c14.3-14.3,24.3-32.9,30-51.5L462.5,405.6L462.5,405.6z M374,438.5c-10,0-20-2.9-27.2-8.6   c-8.6-5.7-14.3-12.9-18.6-22.9c-4.3-8.6-4.3-18.6-2.9-28.6s7.2-18.6,12.9-25.8c7.2-7.2,15.7-11.4,25.8-14.3c10-1.4,20-1.4,28.6,2.9   c8.6,4.3,17.2,10,22.9,18.6s8.6,17.2,8.6,27.2c0,12.9-5.7,25.8-14.3,35.8C399.6,432.7,386.7,438.5,374,438.5L374,438.5z"></path>
</g>
</svg>