<?xml version='1.0' encoding='utf-8'?>
<svg xmlns="http://www.w3.org/2000/svg" id="Vrstva_1" data-name="Vrstva 1" viewBox="0 0 384.71 566.93" width="271.43387" height="400.0">
  <path d="m80.49,438.85h65.47c29.26,0,53.96-6.23,74.1-18.7,20.14-12.95,35.01-30.93,44.6-53.96,10.07-23.5,15.11-51.08,15.11-82.73s-5.04-59.71-15.11-82.73c-9.59-23.5-24.46-41.48-44.6-53.96-19.66-12.47-44.36-18.7-74.1-18.7h-65.47V44.62h69.78c45.08,0,84.65,9.83,118.7,29.5,34.05,19.18,60.43,47,79.13,83.45,19.19,35.97,28.78,77.94,28.78,125.9s-9.59,88.73-28.78,125.18c-18.7,35.97-45.08,64.03-79.13,84.17-34.05,19.66-73.62,29.5-118.7,29.5h-69.78v-83.45ZM7.83,44.62h92.08v477.68H7.83V44.62Z"></path>
  <path d="m150.27,522.82H7.31V44.1h142.96c44.96,0,84.99,9.95,118.96,29.57,33.98,19.14,60.67,47.29,79.34,83.66,19.13,35.87,28.83,78.31,28.83,126.13s-9.7,89.07-28.84,125.42c-18.66,35.89-45.35,64.28-79.33,84.38-33.98,19.62-74,29.57-118.97,29.57Zm-49.84-1.04h49.84c44.78,0,84.63-9.9,118.44-29.43,33.8-20,60.36-48.24,78.93-83.96,19.05-36.2,28.72-78.24,28.72-124.94s-9.66-89.93-28.71-125.65c-18.57-36.2-45.13-64.2-78.93-83.24-33.82-19.53-73.67-29.43-118.45-29.43h-49.84v82.41h45.52c29.7,0,54.72,6.32,74.38,18.79,20.14,12.47,35.22,30.7,44.81,54.2,10.05,22.97,15.15,50.87,15.15,82.93s-5.1,59.48-15.15,82.94c-9.58,23.01-24.66,41.24-44.8,54.19-20.14,12.47-45.16,18.79-74.38,18.79h-45.52v82.41Zm-19.42,0h18.38v-82.41h-18.38v82.41Zm-72.66,0h71.62v-83.45h19.42V128.59h-19.42V45.14H8.35v476.64Zm92.08-83.45h45.52c29.02,0,53.86-6.27,73.82-18.63,19.95-12.83,34.89-30.9,44.4-53.71,10-23.33,15.07-51.1,15.07-82.53s-5.07-59.68-15.06-82.52c-9.51-23.3-24.44-41.37-44.4-53.72-19.49-12.36-44.33-18.63-73.82-18.63h-45.52v309.74Zm-19.42-310.78h18.38V45.14h-18.38v82.41Z"></path>
</svg>