<?xml version='1.0' encoding='utf-8'?>
<!-- Generator: Adobe Illustrator 27.2.0, SVG Export Plug-In . SVG Version: 6.00 Build 0)  --><svg xmlns="http://www.w3.org/2000/svg" xmlns:xlink="http://www.w3.org/1999/xlink" version="1.1" id="Vrstva_1" x="0px" y="0px" viewBox="0 0 553.4 566.9" style="enable-background:new 0 0 553.4 566.9;" xml:space="preserve" width="390.47452" height="400.0">
<style type="text/css">
	.st0{fill-rule:evenodd;clip-rule:evenodd;}
</style>
<g>
	<path class="st0" d="M450.8,96.3H395l-38.2-61.7c0,0-52.9-14.8-127.8-14.8S101.2,34.6,101.2,34.6L63.1,96.3H5.7V130H41L5.7,187.4   v176.2c0,19,19,28,28,28h36.7c8.7,0,28-8.7,28-28v-28h79.3c3-11.8,5.8-22.1,10.3-33.7c5.8-16.2,14.8-30.8,25-44h-76.3l-19-35.3   H42.5v-26.4h139.6l11.8,23.5h55.8c4.5-4.5,10.3-7.3,14.8-10.3c33.7-23.5,74.8-35.3,116.1-35.3l0,0c23.5,0,45.5,4.5,67.6,11.8   l-33.7-54.3h35.2V96.3L450.8,96.3L450.8,96.3z M68.9,149.1l52.9-86.6c5.8-1.5,11.8-3,20.5-3c20.5-3,51.3-7.3,86.6-7.3   s64.5,3,86.6,7.3c7.3,1.5,14.8,3,20.5,3l52.9,86.6H68.9L68.9,149.1z"></path>
	<path class="st0" d="M547.7,381.2c0,92.5-74.8,165.9-165.9,165.9s-167.4-74.8-167.4-165.9s74.8-165.9,165.9-165.9   S547.7,288.7,547.7,381.2L547.7,381.2z M380.2,284.2c-14.8,0-26.4,11.8-26.4,26.4s11.8,26.4,26.4,26.4s26.4-11.8,26.4-26.4   C408.1,295.9,395,284.2,380.2,284.2z M359.7,491.3V372.4h41.1v118.9H359.7L359.7,491.3z"></path>
</g>
</svg>