<?xml version='1.0' encoding='utf-8'?>
<!-- Generator: Adobe Illustrator 27.2.0, SVG Export Plug-In . SVG Version: 6.00 Build 0)  --><svg xmlns="http://www.w3.org/2000/svg" xmlns:xlink="http://www.w3.org/1999/xlink" version="1.1" id="Vrstva_1" x="0px" y="0px" viewBox="0 0 421.4 566.9" style="enable-background:new 0 0 421.4 566.9;" xml:space="preserve" width="297.33636" height="400.0">
<g>
	<path d="M176.9,333.9l12.8,49.7l38.1,11.5l3.8-6.4c0.2-0.4,0.4-1,0.6-1.6c0.4-1.3,0.6-2.5,0.6-3.5c0-1.7-0.4-2.6-1.3-2.6   l-10.2-47.1h-11.2c-0.6,0-1.2-0.1-1.8-0.3c-0.5-0.2-0.8-1-0.8-2.2c-0.2,0-0.2-0.2,0-0.6c0-0.4,0.4-1.1,1.3-1.9l24-57.4   c0.2,0,0.5-0.2,1-0.6c0-0.2,0.1-0.4,0.3-0.6c1.7,0,2.6,0.4,2.6,1.3l25.6,57.4c0.4,0.4,0.6,0.8,0.6,1.1s0.1,0.6,0.3,0.8   c0,0.4,0.1,0.6,0.3,0.6c0,0.9-0.2,1.5-0.7,1.9c-0.2,0.4-0.4,0.6-0.6,0.6h-11.5l11.5,45.8c0.6,0.6,1,1.5,1.1,2.7   c0.1,1.2,0.2,2.4,0.2,3.7c0,3.2-0.3,5.9-1,8.2c-0.6,2.2-1.6,4.6-2.9,7.2h-1.3c10.2,1.9,21.2,3.5,32.8,4.6   c11.6,1.2,24.5,1.8,38.6,1.8c2.6,0,4.7,0.9,6.4,2.6c1.7,1.7,2.6,3.8,2.6,6.4c0,0.9-0.2,1.5-0.6,1.9c-0.2,0.4-0.4,0.6-0.6,0.6   l-24.3,54.8c-2.8,6.2-6.8,11.2-12.2,14.9c-5.3,3.7-11.4,5.6-18.3,5.6h-29.5l6.4,12.8c0,1.3,0.2,2.8,0.6,4.6   c0.4,1.8,0.6,3.7,0.6,5.6c0,2.6-0.4,5-1.1,7.4s-1.7,4.5-2.7,6.4l-16.7,28.2L215,545.7l14.1-24c0.6-0.6,1-1.7,1.1-3.2   c0.1-1.5,0.2-2.6,0.2-3.2v-3.8l-6.4-16.7h-43.3l5.1,12.8c0.6,1.3,1.2,2.8,1.8,4.6c0.5,1.8,0.8,3.7,0.8,5.6c0,2.6-0.5,5-1.6,7.4   c-1.1,2.3-2.2,4.5-3.5,6.4l-15.4,28.2L141,545.7l15.4-24l1.3-5.1c0-1.3-0.1-2.3-0.2-3c-0.1-0.8-0.5-1.4-1.1-2.1l-6.4-17.9h-43.2   l5.1,14.1c0.6,1.3,1,2.8,1.1,4.6c0.1,1.8,0.2,3.7,0.2,5.6c0,2.6-0.2,5-0.5,7.4c-0.3,2.3-1,4.5-2.1,6.4l-16.7,28.2l-25.6-14.1   l14.1-24c0.6-1.3,1-2.3,1.1-3c0.1-0.8,0.2-1.4,0.2-2.1v-5.1l-6.4-17.9H46.5c-4.1,0-8-0.7-11.9-2.1c-3.8-1.4-7.3-3.3-10.2-5.6   c-3-2.4-5.5-5.2-7.5-8.5s-3.1-6.9-3.4-10.7L3.2,406.6c0-4.5,0.9-8.8,2.6-12.8c1.7-4.1,4-7.6,6.9-10.7s6.4-5.7,10.4-7.7   s8.5-3.3,13.5-3.7c5.5-0.4,10.6-0.7,15.2-0.8c4.6-0.1,8.8-0.2,12.7-0.2s7.2,0.1,10.1,0.2c2.9,0.1,5.9,0.5,9.1,1.1l-9-38.1H63.1   c-1.7,0-2.6-0.9-2.6-2.6c0-0.9,0.4-1.7,1.3-2.6l24.4-57.4l1.3-1.3c0.6,0,1.1,0.1,1.3,0.2c0.2,0.1,0.6,0.5,1.3,1.1l25.6,57.4v2.2   c0,1.9-0.9,2.9-2.6,2.9h-9l9,38.1c9,0,16.9,0.3,23.7,1c6.8,0.6,13.8,1.6,20.8,2.9l-9-42h-14.1c-0.2,0-0.4-0.1-0.6-0.3   c-0.4-0.4-0.6-1.2-0.6-2.2c0.2,0,0.4-0.2,0.6-0.6c0.4-0.4,0.6-1.1,0.6-1.9l25.6-57.4l1.3-1.3c0.9,0,1.7,0.4,2.6,1.3l24.4,57.4   c0.9,0.9,1.3,2.1,1.3,3.8c0,0.9-0.4,1.3-1.3,1.3L176.9,333.9L176.9,333.9L176.9,333.9L176.9,333.9z M77.2,401.5   c-5.1,0-10.7,0.1-16.8,0.2c-6.1,0.1-13.2,0.5-21.3,1.1l-2.6,1.3c-1.7,0-2.6,0.4-2.6,1.3l9,54.8c0,1.3,0.4,2,1.3,2.2   c0.9,0.2,1.6,0.3,2.2,0.3h17.9l-2.6-9c-0.6-1.7-1.2-3.4-1.8-5.1c-0.5-1.7-0.8-3.4-0.8-5.1c0-2.8,0.3-5.5,0.8-8c0.5-2.6,1.5-4.9,3-7   L77.2,401.5L77.2,401.5z M138.4,464l-3.8-10.2c-1.7-4.3-2.6-8.8-2.6-13.5c0-4.3,1.3-8.2,3.8-11.9l14.1-23.1h-2.6   c-5.1-0.6-10.5-1.4-16.2-2.4s-11.7-1.4-18.1-1.4h-2.6l-20.5,37.2c-0.6,0.6-1,1.5-1.1,2.6c-0.1,1.1-0.2,1.8-0.2,2.2v3.8l6.4,15.4   h43.3L138.4,464L138.4,464L138.4,464z M179.5,413.1l-15.4,25.6c-0.6,0.6-1,1.5-1.1,2.6c-0.1,1.1-0.2,1.8-0.2,2.2v3.8l6.4,16.7h43.3   l-3.5-10.2c-0.6-1.9-1.2-3.8-1.8-5.8c-0.5-1.9-0.8-3.7-0.8-5.5c0-5.5,1.3-10.2,3.8-14.1l2.2-5.1c-4.3-0.6-9.6-2-15.9-4.2   C190.3,417,184.6,415,179.5,413.1L179.5,413.1L179.5,413.1z M240.7,431l-3.8,7.7c-0.6,0.6-1.2,1.5-1.8,2.6   c-0.5,1.1-0.8,1.8-0.8,2.2l7.7,20.5h41c0.6,0,1.3-0.3,1.9-0.8s1.3-1.1,1.9-1.8l3.8-12.8c0.6-0.6,1-1.3,1.1-1.9   c0.1-0.6,0.2-1.3,0.2-1.9c0-2.1-1.9-3.8-5.8-5.1c-3.8-1.3-8.5-2.4-13.9-3.2c-5.5-0.9-11-1.7-16.8-2.6   C249.6,433,244.7,432.1,240.7,431L240.7,431L240.7,431z M328.8,155.1c0.2-6,1.5-11.6,4-17c2.5-5.3,5.7-10,9.8-13.9   c4.1-3.9,8.7-7.1,13.9-9.3c5.2-2.2,10.9-3.4,17.1-3.4l17.6-1.3c3.4,0,6.8,0.8,10.1,2.2c3.3,1.5,6.2,3.5,8.7,5.9   c2.5,2.5,4.4,5.3,5.9,8.7c1.5,3.3,2.2,6.7,2.2,10.1c0,15.4-1.2,32.4-3.7,50.9c-2.5,18.6-5.9,38.2-10.4,59   c-5.1,23.7-11.1,45.9-17.9,66.5c-6.8,20.6-14,38-21.5,52.1c-2.1,3.8-5.2,7-9.1,9.3c-4,2.4-8.2,3.5-12.7,3.5H298   c-6.2,0-11.5-2.2-16-6.7c-4.5-4.5-6.7-9.8-6.7-16v-26.9c7-14.7,13.9-30.7,20.5-47.9c6.6-17.2,12.5-36.2,17.6-56.9   c3.8-12.2,7-24.1,9.6-35.9C325.6,176.4,327.5,165.4,328.8,155.1L328.8,155.1L328.8,155.1z M308.3,340.3c0,1.9,0.6,3.7,1.8,5.3   c1.2,1.6,2.7,2.4,4.6,2.4h23.1c6.8-12.8,13.5-28.3,19.9-46.5s11.9-38.5,16.3-60.9l1.6-8c3.2-15.6,6-30.1,8.3-43.4   c2.3-13.4,3.5-26,3.5-38c0-1.9-0.8-3.7-2.4-5.3c-1.6-1.6-3.4-2.4-5.3-2.4h-12.5c-1.9,0-3.4,0.5-4.5,1.4c-1.1,1-1.8,2.2-2.2,3.7   c-0.4,1.5-0.7,3-0.8,4.6c-0.1,1.6-0.2,3-0.2,4.3c-1.3,12.2-3.2,24.4-5.8,36.7c-2.6,12.3-5.7,25.1-9.3,38.6c-2.6,10-5.6,19.8-9,29.2   c-3.4,9.4-6.8,18.2-10.2,26.3c-3.4,8.1-6.6,15.5-9.6,22.3c-3,6.7-5.5,12.3-7.4,16.8L308.3,340.3L308.3,340.3L308.3,340.3   L308.3,340.3z M335.2,22.5c0-4.5,1.5-8.2,4.5-11s7-4.3,12.2-4.3c7.9,0,15.2,1.3,22,3.8c6.7,2.6,12.5,6.5,17.3,11.9   c4.8,5.3,8.6,12.1,11.4,20.4c2.8,8.2,4.2,17.9,4.2,29c0,3.2-1.3,6.4-4,9.4c-2.7,3.1-5.6,4.7-8.8,4.7c-5.1,0.6-10.2,1.3-15.2,2.1   c-5,0.8-9.6,1.4-13.6,2.1c-4.1,0.6-7.4,1.2-10.1,1.6c-2.7,0.4-4.1,0.6-4.3,0.6c-4.5,0-8.2-1.4-11.1-4.2c-2.9-2.8-4.3-6.1-4.3-9.9   L335.2,22.5L335.2,22.5L335.2,22.5z"></path>
</g>
</svg>