<?xml version='1.0' encoding='utf-8'?>
<svg xmlns="http://www.w3.org/2000/svg" id="Vrstva_1" data-name="Vrstva 1" viewBox="0 0 788.26 566.93" width="556.1604" height="400.0">
  <defs>
    <style>
      .cls-1 {
        fill-rule: evenodd;
      }
    </style>
  </defs>
  <path d="m416.05,201.02v54.96h71.5v54.96h-71.5v51.34c16.43,9.5,27.48,27.25,27.48,47.59,0,30.34-24.61,54.94-54.96,54.94s-54.96-24.6-54.96-54.94c0-20.33,11.05-38.09,27.48-47.59V102.1h54.96v43.96h71.5v54.96h-71.5Z" fill="#FFCE63"></path>
  <path class="cls-1" d="m394.13,558.28c151.77,0,274.81-123.04,274.81-274.81S545.91,8.65,394.13,8.65,119.32,131.69,119.32,283.46s123.04,274.81,274.81,274.81Zm0-54.96c121.42,0,219.85-98.43,219.85-219.85s-98.43-219.85-219.85-219.85-219.85,98.43-219.85,219.85,98.43,219.85,219.85,219.85Z" fill="#FFCE63"></path>
  <path d="m122.08,11.39C52.46,81.01,9.4,177.2,9.4,283.44s43.06,202.43,112.69,272.05l38.86-38.86c-59.68-59.68-96.59-142.12-96.59-233.19S101.27,109.93,160.95,50.25L122.08,11.39Z" fill="#FFCE63"></path>
  <path d="m627.32,50.25l38.86-38.86c69.62,69.62,112.69,165.81,112.69,272.05s-43.06,202.43-112.69,272.05l-38.86-38.86c59.68-59.68,96.59-142.12,96.59-233.19s-36.91-173.51-96.59-233.19Z" fill="#FFCE63"></path>
</svg>