<?xml version='1.0' encoding='utf-8'?>
<!-- Generator: Adobe Illustrator 27.2.0, SVG Export Plug-In . SVG Version: 6.00 Build 0)  --><svg xmlns="http://www.w3.org/2000/svg" xmlns:xlink="http://www.w3.org/1999/xlink" version="1.1" id="Vrstva_1" x="0px" y="0px" viewBox="0 0 562.4 566.9" style="enable-background:new 0 0 562.4 566.9;" xml:space="preserve" width="396.82486" height="400.0">
<g>
	<path d="M417.2,545.5c-27.5,0-47.8-6.1-61.8-18.6c-14.4-12.8-20.6-31.1-18.4-54.4c0.5-5.1,1.5-9.1,2.2-12.1c0.2-0.9,0.5-2,0.6-2.7   c-0.6-1.1-2.5-3.8-7.9-9.2c-4.8-4.8-6.7-11.4-5-17.7c1.7-6.3,6.8-11.4,13.5-13.6l39.9-13.2l-48.6-14.4c-5.6-1.7-10.3-5.4-12.8-10.2   c-2.5-4.9-2.7-10.5-0.5-15.4l8.6-19.4l-37.2-10.6c-20.6-5.9-28.1-16.6-30.7-24.5c-4-12,0.1-24.9,12.1-38.3   c30.6-34.1,57-61.5,88.2-92.9C333.8,108,358,58.7,434.9,23.5c10.6-4.9,23.5-1,28.9,8.6c5.3,9.6,1.1,21.3-9.5,26.1   c-69.9,32-71.1,68.6-50.3,117.3c2.9,6.8,1.3,14.6-4.1,20c-34.5,34.7-62.6,63.5-95.3,100c-0.4,0.5-0.8,0.9-1.2,1.4l58.6,16.7   c5.7,1.6,10.4,5.3,13,10.2s2.8,10.5,0.5,15.5l-8.7,19.7l68.5,20.3c11.2,3.3,18.9,12.7,19.1,23.4c0.2,10.8-7.3,20.5-18.6,24.3   l-55.2,18.2c3.1,7.8,2.6,14.9,0.5,23.5c-0.6,2.4-1.1,4.4-1.3,6.9c-1,11.3,0.9,19.2,5.7,23.5c7.2,6.4,24,8.8,47.2,6.7l100.5-9   c12-1.1,22.4,6.7,23.5,17.4c1.2,10.7-7.5,20.2-19.3,21.3l-100.5,9C430.1,545.2,423.5,545.5,417.2,545.5L417.2,545.5L417.2,545.5z"></path>
	<path d="M544,189.7c-30.6-22-65.7-40.7-114.7-28.5c-11.5,2.9-18.2,13.6-15,23.9c3.2,10.4,15,16.4,26.5,13.6   c0.5-0.1,1.1-0.2,1.6-0.4c2.9,11,13.8,19.3,26.9,19.3h2.2c9.8,0,18.5-4.7,23.4-11.7c6.9,3.6,14.2,8.3,22.4,14.2   c4,2.8,8.7,4.2,13.4,4.2c6.3,0,12.6-2.5,16.8-7.3C554.8,208.6,553.3,196.3,544,189.7L544,189.7z"></path>
	<path d="M58.5,526.7c-7.6,0-14.9-3.6-18.8-10C17.3,480.1,5.4,438.7,5.4,396.8S17.3,313.6,39.7,277c5.8-9.4,18.8-12.8,29.2-7.6   c10.4,5.2,14.1,17,8.4,26.5c-18.9,30.8-28.9,65.8-28.9,101s10,70.2,28.9,101c5.8,9.4,2,21.2-8.4,26.4   C65.6,525.9,62,526.7,58.5,526.7L58.5,526.7L58.5,526.7z"></path>
	<path d="M134.8,492.8c-7.6,0-14.9-3.6-18.8-10c-16.1-26.2-24.6-56-24.6-86s8.5-59.8,24.6-86c5.8-9.4,18.8-12.8,29.2-7.6   c10.4,5.2,14.1,17,8.4,26.5c-12.5,20.5-19.2,43.7-19.2,67.1s6.6,46.6,19.2,67.1c5.8,9.4,2,21.2-8.4,26.4   C141.9,492,138.4,492.8,134.8,492.8L134.8,492.8L134.8,492.8z"></path>
	<path d="M211.2,451.9c-7.6,0-14.9-3.6-18.8-10c-8.4-13.8-12.9-29.4-12.9-45.1s4.5-31.3,12.9-45.1c5.8-9.4,18.9-12.8,29.2-7.6   c10.4,5.2,14.1,17,8.4,26.5c-4.9,8-7.5,17.1-7.5,26.2s2.6,18.2,7.5,26.2c5.8,9.4,2,21.2-8.4,26.4   C218.3,451.1,214.7,451.9,211.2,451.9L211.2,451.9z"></path>
</g>
</svg>