<?xml version='1.0' encoding='utf-8'?>
<!-- Generator: Adobe Illustrator 27.2.0, SVG Export Plug-In . SVG Version: 6.00 Build 0)  --><svg xmlns="http://www.w3.org/2000/svg" xmlns:xlink="http://www.w3.org/1999/xlink" version="1.1" id="Vrstva_1" x="0px" y="0px" viewBox="0 0 561.4 566.9" style="enable-background:new 0 0 561.4 566.9;" xml:space="preserve" width="396.11926" height="400.0">
<g>
	<path d="M377.1,458.8c-14.3-6.6-30.2-12.1-47-15.1c-16.8-3-32.1-4.7-49.5-4.7l-17.6,1l19.1,47.3c7.9,1.4,14,5,18.5,10.8   c4.4,5.8,6.7,12.6,6.7,20.5c0,7.9-2.7,14.9-8.2,20.3s-12.1,8.2-20,8.2c-4,0-7.9-0.8-11.7-2.3c-3.7-1.5-7.1-3.3-10.2-5.5   c-3-2.1-5.4-5.1-7.1-8.9c-1.7-3.8-2.6-7.8-2.6-11.8c0-3,0.6-6.1,2-9.2c1.3-3.1,2.7-6.3,4.1-9.6L228.8,443c-8.1,1.4-15.8,4.3-24,6.7   c-22,6.3-47,21.6-51.9,24.9L4.6,237.9c3.2-3.2,6.9-6.3,11.1-9.2c4.1-2.9,7.7-5.2,10.8-6.8c38.2-23.7,78.4-41.7,120.4-54   c42.1-12.3,86.2-18.5,132.3-18.5s90.2,6.2,132.9,18.5c42.7,12.3,126,57.9,130.6,60.8c4.5,2.9,9.2,6,14.1,9.2L405.4,474.6   C400.5,471.3,384.6,462.2,377.1,458.8L377.1,458.8L377.1,458.8L377.1,458.8L377.1,458.8z M512.5,247.4   c-34.8-20.8-71.7-37.1-110.6-48.7c-38.9-11.6-79.8-17.4-122.7-17.4s-83.7,5.8-122.4,17.4C118,210.3,82,226.5,48.6,247.4   l116.8,183.2c8.1-3.2,16.6-6.3,25.5-9.2c8.9-2.9,17.2-5.2,24.9-6.8l-78.6-186l31.2-9.7l79.2,189.3c6.3,0,17.8-2,32.3-2   c21.6-0.1,39.6,1.2,58.4,5.7c18.8,4.5,36.9,10.7,54.3,18.8L512.5,247.4L512.5,247.4L512.5,247.4L512.5,247.4z M99.3,114.8   c0-9.5,0.9-18.3,2.6-26.4s5-16.2,9.9-24.3l25.5,19.1c-3.2,4.7-5.6,9.9-7.1,15.6c-1.5,5.8-2.3,11.1-2.3,15.9v9.4H99.3V114.8   L99.3,114.8L99.3,114.8z M127.8,48.3c7.9-7.9,16.5-14.6,25.9-20.2s19.7-8.3,30.8-8.3v28.5c-6.5,1.6-12.7,3.9-18.7,6.8   s-11.4,5.9-16.2,8.9L127.8,48.3L127.8,48.3L127.8,48.3z M241.2,64.1c-4.9-3-9.8-6-14.7-8.9c-5-2.9-10.6-5.2-16.8-6.8V19.8   c4.6,0,9.5,0.8,14.6,2.3c5.1,1.5,9.9,3.4,14.6,5.8c4.6,2.3,9.1,5,13.4,8c4.2,3,7.9,6.2,10.9,9.4L241.2,64.1L241.2,64.1z    M279.2,64.1l22.1,19.1c-3.2,4.7-5.6,9.9-7.1,15.6c-1.5,5.8-2.3,11.1-2.3,15.9v3.6c0,1,0.1,5.8,0.1,5.8h-28.9v-9.4   c0-4.8-0.8-10.2-2.3-15.9c-1.5-5.8-3.9-11-7.1-15.6L279.2,64.1L279.2,64.1z M263.1,206.1h31.9v41.3h-31.9L263.1,206.1L263.1,206.1z    M263.1,269.2h31.9v41.3h-31.9L263.1,269.2L263.1,269.2L263.1,269.2z M263.1,332.6h31.9v44.3h-31.9L263.1,332.6L263.1,332.6z    M316.8,64.1l-24.9-18.8c3.8-3.2,7.9-6.4,12.1-9.4c4.2-3,8.8-5.7,13.5-8c4.8-2.3,9.7-4.2,14.9-5.8s10.6-2.3,16.2-2.3v28.5   c-6.5,1.6-12.6,3.9-18.4,6.8C324.5,58.1,320,61.1,316.8,64.1L316.8,64.1z M430.5,48.3l-25.2,15.8c-4.8-3-9.7-6-14.6-8.9   c-4.8-2.9-10.5-5.2-17-6.8V19.8c11.1,0,21.4,2.8,30.8,8.3C414,33.7,422.6,40.4,430.5,48.3L430.5,48.3z M459,114.8v9.4h-29.4   c0,0,0.9-5.7,0.9-9.4c0-4.8-0.8-10.2-2.4-15.9s-3.9-11-7-15.6l22.2-19.1c4.9,8.1,8.7,16.2,11.5,24.3S459,105.3,459,114.8L459,114.8   z"></path>
</g>
</svg>