<?xml version='1.0' encoding='utf-8'?>
<!-- Generator: Adobe Illustrator 27.2.0, SVG Export Plug-In . SVG Version: 6.00 Build 0)  --><svg xmlns="http://www.w3.org/2000/svg" xmlns:xlink="http://www.w3.org/1999/xlink" version="1.1" id="Vrstva_1" x="0px" y="0px" viewBox="0 0 1017.6 566.9" style="enable-background:new 0 0 1017.6 566.9;" xml:space="preserve" width="718.0102" height="400.0">
<g>
	<path d="M5.5,283.5c0-98.9,63.7-175.6,138.9-175.6s138.9,76.2,138.9,175.6s-63.7,175.6-138.9,175.6C69.2,459.1,5.5,382.8,5.5,283.5   L5.5,283.5L5.5,283.5z M218.3,283.5c0-55-34-98.4-73.8-98.4s-73.8,44.4-73.8,98.4s34,98.4,73.8,98.4   C184.3,381.9,218.3,338.5,218.3,283.5L218.3,283.5L218.3,283.5z" fill="#FFCE63"></path>
	<path d="M529.5,113.6v339.6h-37.6L370.2,271.9v181.4H308V113.6h36.2l123,183.3V113.6H529.5L529.5,113.6L529.5,113.6z" fill="#FFCE63"></path>
	<path d="M953.6,142.5c18.9,19,33.5,40.6,43.5,64.7c10,24.1,15,49.6,15,76.2s-5,52.3-15,76.4c-10,24.1-24.6,45.6-43.5,64.6   c-18.8,19-40.3,33.4-64.5,43.4c-24.2,9.9-49.7,14.9-76.5,14.9s-52.1-5-76.2-14.9c-24.2-9.9-45.7-24.4-64.5-43.4   c-19-19-33.5-40.5-43.5-64.6c-10-24.1-15-49.6-15-76.4s5-52.1,15-76.2c10-24.2,24.5-45.8,43.5-64.7c18.8-18.8,40.3-33.2,64.5-43.3   c24.2-10,49.6-15,76.2-15s52.3,5,76.5,15C913.3,109.3,934.8,123.7,953.6,142.5L953.6,142.5L953.6,142.5z M680.8,168.7   c-13.6,15.5-24.2,33-31.7,52.5c-7.6,19.5-11.4,40.2-11.4,62.2c0,16.1,2.1,31.6,6.3,46.5c4.2,14.9,10.1,28.9,17.7,41.8   c7.6,13,16.7,24.7,27.3,35.4c10.6,10.6,22.4,19.7,35.3,27.3c13,7.6,26.9,13.5,41.8,17.7c14.9,4.2,30.4,6.3,46.5,6.3   c22.1,0,42.9-3.8,62.5-11.4c19.5-7.6,37-18.1,52.5-31.5L680.8,168.7L680.8,168.7L680.8,168.7L680.8,168.7L680.8,168.7z M852,354.4   c4.2,4.2,8.8,8.8,13.8,13.7c5,4.9,9.9,9.7,14.7,14.6c4.8,4.8,9.3,9.3,13.5,13.5c4.2,4.2,7.9,7.8,10.9,10.6c-0.8,3-2.1,5.3-4,6.9   c-1.9,1.6-3.8,2.7-6,3.5c-2.4,0.9-5,1.4-7.7,1.6c-24.1,0.2-46,0.2-65.7,0.2c-8.4,0-16.8,0-25,0.1c-8.3,0.1-15.8,0.1-22.7,0.1h-27   c-2.9,0-5.2-0.2-7-0.8c-1.8-0.5-3.4-1.3-4.8-2.2s-2.5-2.2-3.5-3.5c-1-1.4-2-2.9-3-4.5c-0.2-0.2-0.2-0.3-0.2-0.5   c0-0.2-0.1-0.3-0.2-0.5c-12-19.6-22.1-37.9-30-55c-8-17.1-14.4-33.4-19.3-48.9c-4.9-15.5-8.4-30.4-10.4-44.7c-2-14.3-3-28.4-3-42.4   c0-3.5,0.3-6.2,0.9-8.1c0.6-2,1.5-3.5,2.7-4.5c1.2-1.1,2.7-1.7,4.4-1.9c1.7-0.2,3.7-0.4,6-0.4c4.5,0,8.1,0.3,10.8,0.8   c2.7,0.5,4.8,1.3,6.2,2.4c1.4,1,2.5,2.3,3.2,3.7c0.7,1.4,1.4,3.1,2.2,5.1c0.3,1.1,0.8,3.4,1.3,7c0.6,3.6,1.8,8.2,3.5,13.8   c1.7,5.6,4.2,11.9,7.5,19.2c3.2,7.2,7.6,14.9,13.2,23c3.6,5.2,7.3,10.7,11.2,16.4c3.8,5.6,7.4,11.5,10.6,17.6   c3.2,6.1,5.9,12.4,7.9,18.7c2,6.4,3,13,3,19.8c0,2.9-0.2,5.7-0.6,8.5c-0.4,2.8-1,5.7-1.9,8.7c3.6-0.9,8.3-2,14.1-3.4   c5.8-1.4,12.2-2.7,19.2-4.1c7-1.4,14.4-2.5,22.2-3.5c7.8-1,15.7-1.5,23.5-1.5c2.6,0,5.2,0.1,7.8,0.2   C846.8,353.8,849.4,354.1,852,354.4L852,354.4L852,354.4z M812.7,108.4c-22,0-42.7,3.8-62.2,11.4c-19.5,7.6-37,18.2-52.5,31.7   l246.9,246.9c13.6-15.5,24.1-33,31.6-52.5c7.5-19.5,11.3-40.3,11.3-62.5c0-16.1-2.1-31.6-6.2-46.5c-4.1-14.9-10-28.8-17.6-41.8   c-7.6-12.9-16.7-24.7-27.4-35.3c-10.7-10.6-22.5-19.7-35.4-27.3c-13-7.6-26.9-13.5-41.8-17.7C844.3,110.5,828.8,108.4,812.7,108.4   L812.7,108.4L812.7,108.4L812.7,108.4L812.7,108.4z M770.9,273.7c1.3,1.4,3,3,5.1,5c2,2,4.1,4,6.1,6c2,2,4,4,5.8,5.9   c1.8,1.9,3.2,3.4,4.3,4.4c-2.6,0-4.6,0-6.2,0.1c-1.6,0.1-3,0.2-4.2,0.5c-1.2,0.2-2.3,0.6-3.2,1c-0.9,0.5-2,1-3.2,1.6   c-1.2,0.6-2.3,1.5-3.4,2.7c-1.1,1.2-2.1,2.4-3.2,3.5c-1,1.1-2.1,2.1-3,3c-1,0.9-2,1.4-3,1.4c-1.7,0-2.8-0.9-3.6-2.7   c-0.8-1.8-1.1-3.8-1.1-5.9c0-3.9,1-8.4,3.2-13.2C763.3,282.1,766.5,277.7,770.9,273.7L770.9,273.7L770.9,273.7z M841.8,344.2   c-1-0.2-2.2-0.2-3.8-0.2h-5.9c-3.3,0-7.2,0.1-11.6,0.2c-4.5,0.1-9.2,0.5-14.5,1c-5.2,0.5-10.6,1.2-16.4,2   c-5.7,0.9-11.5,1.9-17.4,3.3c-0.2-1.9-0.2-3.8-0.2-5.5v-5.1c0-6.5,0.4-12,1.1-16.5c0.8-4.5,2-8.1,3.6-10.9c1.7-2.7,3.8-4.7,6.5-5.9   c2.7-1.2,6-1.8,10-1.8c1.5,0,3.1,0.1,4.6,0.2c1.5,0.2,3.4,0.4,5.3,0.7L841.8,344.2L841.8,344.2L841.8,344.2z M864.8,231.1   c2.4,1.4,3.6,4.1,3.6,8.4c0,2.7-0.3,5.7-0.9,8.9c-0.6,3.2-1.6,6.8-3,10.7c-1.4,3.9-3.4,8.4-6,13.3c-2.6,5-5.9,10.6-9.9,16.9   c-3.5-3.6-7-7.2-10.5-10.6c-3.5-3.4-7.7-7.6-12.5-12.4c2.4-4.4,4.4-8.3,6.1-11.8c1.7-3.5,3.1-6.5,4.3-9.2c1.2-2.6,2.3-4.8,3.4-6.7   c1.1-1.8,2.3-3.3,3.6-4.5c-3.3-1.6-5.9-4-7.9-7.1c-2-3.1-3-6.6-3-10.5c0-5.4,1.9-10.1,5.7-13.9c3.8-3.9,8.3-5.8,13.8-5.8   s10.1,1.9,13.9,5.8c3.8,3.9,5.8,8.5,5.8,13.9c0,2.9-0.6,5.5-1.7,8C868.3,227.1,866.8,229.3,864.8,231.1L864.8,231.1L864.8,231.1z    M856.5,297.2c4.2-6.2,7.9-13,11-20.5c3.1-7.5,5.7-14.6,7.9-21.3c2.2-6.8,3.9-12.8,5.1-18.1c1.2-5.2,2-8.7,2.5-10.4   c0.5-3.3,1.3-5.9,2.7-7.8c1.3-1.9,2.9-3.3,4.5-4.3c1.7-1,3.4-1.6,5.3-1.8c1.9-0.2,3.6-0.3,5.1-0.3c4.8,0,8.4,0.2,10.7,0.7   c2.4,0.4,3.5,2,3.5,4.8c0,1.1-0.4,4.8-1.2,11.3c-0.8,6.5-2.3,14.7-4.4,24.8c-2.1,10-4.9,21.3-8.5,34c-3.6,12.6-8,25.7-13.5,39.3   L856.5,297.2L856.5,297.2L856.5,297.2z M962,349.2c-2.9,0-5.4-0.8-7.5-2.4c-2.1-1.5-4-3.4-5.6-5.5c-1.8-2.2-3.5-4.9-5-7.9   c-0.2-0.6-1-2-2.5-4.3c-1.5-2.2-3.3-5-5.4-8.2c-2.1-3.3-4.3-6.9-6.8-10.8c-2.4-4-4.7-8-6.8-12.1c-2.1-4.1-3.8-8-5.2-11.8   c-1.3-3.9-2-7.4-2-10.5c0-7.4,2.2-15.5,6.6-24.4c2.2-4.5,4.5-8.4,6.6-11.6c2.1-3.2,4.8-6,7.9-8.1c3.2-2.2,7.1-3.9,11.9-5.1   c4.8-1.2,10.9-2.2,18.4-2.9c3.9,10.7,6.6,21,8.2,30.9c1.6,9.9,2.4,19.3,2.4,28.3c0,7.5-0.4,14.6-1.3,21.4   c-0.9,6.7-2.1,12.9-3.4,18.5c-1.3,5.6-2.8,10.7-4.4,15.1c-1.6,4.5-3.1,8.2-4.4,11.4L962,349.2L962,349.2L962,349.2z" fill="#FFCE63"></path>
</g>
</svg>