<?xml version='1.0' encoding='utf-8'?>
<svg xmlns="http://www.w3.org/2000/svg" id="Vrstva_1" data-name="Vrstva 1" viewBox="0 0 566.42 566.93" width="399.64017" height="400.0">
  <defs>
    <style>
      .cls-1 {
        fill-rule: evenodd;
      }
    </style>
  </defs>
  <path class="cls-1" d="m146.94,40.61V9.34h40.6v31.27l25-16.71,22.56,33.76-47.56,31.79v60.74l52.62-30.38,3.75-57.09,40.51,2.66-1.97,30.01,27.08-15.63,20.3,35.16-59.98,34.63-61.98,35.78,32.84,18.96c-11.62,8.19-21.66,18.23-29.82,29.67l-23.36-13.48v77.16c-.35,3.91-.52,7.87-.52,11.87s.18,7.58.52,11.34v40.57h-40.6v-31.14l-24.88,16.62-22.55-33.77,47.43-31.67v-60.95l-52.75,30.45-3.64,57.05-40.52-2.58,1.92-30.08-27.03,15.6-20.3-35.16,26.97-15.57-26.83-13.24,17.97-36.41,51.14,25.24,52.8-30.48-52.58-30.36-51.31,25.29-17.95-36.42,26.97-13.29-27.08-15.63,20.3-35.16,27.08,15.63-1.97-30.01,40.51-2.66,3.75,57.09,52.55,30.34v-60.7l-47.56-31.79,22.56-33.76,25,16.71Zm251.99,123.13c-47,0-86.8,32.38-97.92,79.23-36.09,3.94-61.34,32.98-61.34,69.24s29.29,69.32,65.72,69.32h179.89c43.66,0,76.51-36.36,76.51-80.11,0-39.88-28.89-72.57-68.7-80.01-18.22-32.47-54.37-57.66-94.16-57.66Zm-90.62,326.76l-40.09-40.09,28.71-28.71,40.09,40.09-28.71,28.71Zm58.17-40.09l40.09,40.09,28.71-28.71-40.09-40.09-28.71,28.71Zm-3.05,107.18l-40.09-40.09,28.71-28.71,40.09,40.09-28.71,28.71Zm55.71-40.09l40.09,40.09,28.71-28.71-40.09-40.09-28.71,28.71Zm85.69-27l-40.09-40.09,28.71-28.71,40.09,40.09-28.71,28.71Z"></path>
</svg>