<?xml version='1.0' encoding='utf-8'?>
<!-- Generator: Adobe Illustrator 27.2.0, SVG Export Plug-In . SVG Version: 6.00 Build 0)  --><svg xmlns="http://www.w3.org/2000/svg" xmlns:xlink="http://www.w3.org/1999/xlink" version="1.1" id="Vrstva_1" x="0px" y="0px" viewBox="0 0 571.4 566.9" style="enable-background:new 0 0 571.4 566.9;" xml:space="preserve" width="403.17517" height="400.0">
<style type="text/css">
	.st0{fill-rule:evenodd;clip-rule:evenodd;}
</style>
<path class="st0" d="M264.3,73.2l-105.4,78.1h408.2v367H4.3V151.2h104L244.4,48.6C244.4,48.6,264.3,73.2,264.3,73.2z M67,392.7h156  v-30.5H67L67,392.7L67,392.7z M67,307h156v-30.7H67L67,307L67,307z M398.8,432.6c55,0,97.9-44.4,97.9-97.9s-44.4-97.9-97.9-97.9  s-97.9,44.4-97.9,97.9C301,389.7,345.4,432.6,398.8,432.6z"></path>
</svg>