<?xml version='1.0' encoding='utf-8'?>
<!-- Generator: Adobe Illustrator 27.2.0, SVG Export Plug-In . SVG Version: 6.00 Build 0)  --><svg xmlns="http://www.w3.org/2000/svg" xmlns:xlink="http://www.w3.org/1999/xlink" version="1.1" id="Vrstva_1" x="0px" y="0px" viewBox="0 0 710.4 566.9" style="enable-background:new 0 0 710.4 566.9;" xml:space="preserve" width="501.2524" height="400.0">
<g>
	<path d="M217.8,404.3l15.7,14.1c13.5,12.2,28.5,22.2,44.8,29.8c71.8,33.5,159,15.7,211.9-43.1c27.1-30.1,43.2-68.1,46.2-108.2   l-82.7,0.1l119.2-157.2l131.3,157.1l-86.6,0c-3.2,60.3-26.7,117.4-67.1,162.2C473.9,544.3,347.9,570,244,521.6   c-23.5-11-45.2-25.4-64.6-42.9l-11.6-10.5l42-46.7L217.8,404.3L217.8,404.3L217.8,404.3z"></path>
	<path d="M92.8,269.9c3-60.3,26.5-117.4,67.1-162.3C236.5,22.6,362.4-3,466.3,45.4c23.5,11,45.3,25.3,64.6,42.8l11.6,10.5l-54,59.9   l-11.6-10.4c-13.4-12.1-28.4-22.1-44.6-29.6c-71.9-33.5-159.2-15.8-212.3,43.1c-27,30.1-43.1,68.1-46,108.3l82.7-0.2L137.5,427   L6.2,270L92.8,269.9L92.8,269.9L92.8,269.9z"></path>
</g>
</svg>