<?xml version='1.0' encoding='utf-8'?>
<svg xmlns="http://www.w3.org/2000/svg" id="Vrstva_1" data-name="Vrstva 1" viewBox="0 0 514.23 566.93" width="362.8173" height="400.0">
  <defs>
    <style>
      .cls-1 {
        fill-rule: evenodd;
      }
    </style>
  </defs>
  <path class="cls-1" d="m311.21,49.07h-36.06l-144.24,144.24H4.69v180.31h126.21l144.24,144.24h36.06V49.07Zm65.24,53.57l-9.34,34.88c61.71,19.81,106.38,77.66,106.38,145.96s-41.52,121.99-99.81,143.68l9.37,34.97c73.68-25.91,126.51-96.11,126.51-178.65s-55.99-156.88-133.09-180.83Zm-22.7,84.72l-9.34,34.85c27.52,6.79,47.93,31.65,47.93,61.27,0,27.19-17.19,50.36-41.3,59.24l9.36,34.93c39.5-13.06,68-50.29,68-94.17,0-46.31-31.74-85.2-74.66-96.12Z"></path>
</svg>