<?xml version='1.0' encoding='utf-8'?>
<svg xmlns="http://www.w3.org/2000/svg" id="Vrstva_1" data-name="Vrstva 1" viewBox="0 0 478.56 566.93" width="337.65015" height="400.0">
  <path d="m170.95,322.51c16.17,0,29.29,13.11,29.29,29.29v136.67c0,16.17-13.11,29.29-29.29,29.29H34.28c-16.17,0-29.29-13.11-29.29-29.29v-136.67c0-16.17,13.11-29.29,29.29-29.29h136.67Zm273.34,0c16.17,0,29.29,13.11,29.29,29.29v136.67c0,16.17-13.11,29.29-29.29,29.29h-136.67c-16.17,0-29.29-13.11-29.29-29.29v-136.67c0-16.17,13.11-29.29,29.29-29.29h136.67ZM170.95,49.18c16.17,0,29.29,13.11,29.29,29.29v136.67c0,16.17-13.11,29.29-29.29,29.29H34.28c-16.17,0-29.29-13.11-29.29-29.29V78.46c0-16.17,13.11-29.29,29.29-29.29h136.67Zm273.34,0c16.17,0,29.29,13.11,29.29,29.29v136.67c0,16.17-13.11,29.29-29.29,29.29h-136.67c-16.17,0-29.29-13.11-29.29-29.29V78.46c0-16.17,13.11-29.29,29.29-29.29h136.67Z"></path>
</svg>