<?xml version='1.0' encoding='utf-8'?>
<svg xmlns="http://www.w3.org/2000/svg" id="Vrstva_1" data-name="Vrstva 1" viewBox="0 0 542.91 566.93" width="383.05255" height="400.0">
  <path d="m129.92,522.42h-14.94L7.25,427.86l105.62-92.85h17.05v187.42Zm160.41,0h-14.94l-107.72-94.57,105.62-92.85h17.05v187.42Zm-22.73-477.92c21.89,0,43.4,6.62,62.22,19.18l.35.24,72.12,43.9,3.31.66c24.67,4.96,44.31,8.92,59.89,12.9,15.51,3.96,28.45,8.27,39.3,14.52,9.43,5.43,15.89,11.74,20.56,19.79,4.56,7.85,8.15,18.64,10.11,34.36l.19,1.46v33.33l-.03.6v.28s-.03.33-.03.33l-.06.74c-.05.51-.13,1.1-.24,1.75-.22,1.27-.59,2.93-1.27,4.77-.77,2.11-1.73,3.97-2.77,5.55l-6.08,9.25h-44.1l-4.54,15.23c-5.39,18.03-22.97,32.34-44.42,34.01-9.07.71-19.4-.82-29.18-7.01-9.87-6.24-17.49-16.15-22.67-29.02l-5.32-13.21h-204.79l-5.03,14.06c-8.18,22.87-28.42,35.81-49.35,35.21-8.99-.26-19.43-3.13-28.94-11.03-9.55-7.93-16.66-19.7-20.91-35.01l-2.03-7.29L7.25,200.96v-90.22l128.94-58.52.31-.14c9.93-4.3,20.4-6.83,31.03-7.51l.59-.04,99.48-.02Z"></path>
</svg>