<?xml version='1.0' encoding='utf-8'?>
<svg xmlns="http://www.w3.org/2000/svg" id="Vrstva_1" data-name="Vrstva 1" viewBox="0 0 562 566.9" width="396.54257" height="400.0">
  <path d="m222.52,10.09c118.71,0,214.97,96.19,214.97,214.85,0,52.32-18.74,100.27-49.85,137.53l166.81,166.69-27.63,27.63-166.81-166.73c-37.27,31.03-85.2,49.71-137.49,49.71-118.73,0-214.97-96.19-214.97-214.85S103.79,10.09,222.52,10.09Zm0,39.06c-97.14,0-175.88,78.7-175.88,175.79s78.74,175.78,175.88,175.79c97.14,0,175.9-78.7,175.9-175.79S319.66,49.15,222.52,49.15Z"></path>
</svg>