<?xml version='1.0' encoding='utf-8'?>
<!-- Generator: Adobe Illustrator 27.2.0, SVG Export Plug-In . SVG Version: 6.00 Build 0)  --><svg xmlns="http://www.w3.org/2000/svg" xmlns:xlink="http://www.w3.org/1999/xlink" version="1.1" id="Vrstva_1" x="0px" y="0px" viewBox="0 0 368.4 566.9" style="enable-background:new 0 0 368.4 566.9;" xml:space="preserve" width="259.94" height="400.0">
<style type="text/css">
	.st0{fill-rule:evenodd;clip-rule:evenodd;}
</style>
<g>
	<rect x="5.8" y="530" width="290.9" height="29.9"></rect>
	<path class="st0" d="M110.6,137.2c-5.9,4.5-10.4,10.4-15,17.9c-3,7.5-5.9,15-5.9,22.4h29.9c0-7.5,3-10.4,10.4-16.5   c5.9-4.5,10.4-10.4,15-17.9c3-7.5,5.9-15,5.9-22.4s-1.6-15-5.9-22.4c-3-7.5-9.1-13.4-15-17.9c-7.5-7.5-10.4-10.4-10.4-16.5   c0-7.5,3-10.4,10.4-16.5c5.9-4.5,10.4-10.4,15-17.9c3-7.5,5.9-15,5.9-22.4H121c0,7.5-3,10.4-10.4,16.5c-5.9,4.5-10.4,10.4-15,17.9   c-2.9,7.2-5.8,14.8-5.8,22.3s1.6,15,5.9,22.4c3,7.5,9.1,13.4,15,17.9c7.5,7.5,10.4,10.4,10.4,16.5   C121.2,128.2,118.1,131.2,110.6,137.2L110.6,137.2z"></path>
	<path class="st0" d="M157.2,86.3c3,7.5,9.1,13.4,15,17.9c7.5,7.5,10.4,10.4,10.4,16.5c0,7.5-3,10.4-10.4,16.5   c-5.9,4.5-10.4,10.4-15,17.9c-3,7.5-5.9,15-5.9,22.4h29.9c0-7.5,3-10.4,10.4-16.5c5.9-4.5,10.4-10.4,15-17.9c3-7.5,5.9-15,5.9-22.4   s-1.6-15-5.9-22.4c-3-7.5-9.1-13.4-15-17.9c-7.5-7.5-10.4-10.4-10.4-16.5c0-7.5,3-10.4,10.4-16.5l-19.4-22.6   c-5.9,4.5-10.4,10.4-15,17.9c-3,7.5-5.9,15-5.9,22.4C152.7,72.7,154.3,80.2,157.2,86.3L157.2,86.3z"></path>
	<path class="st0" d="M298,239.1h-15v-39H20.8v251.8c0,15,5.9,28.5,15,39c10.4,10.4,24,16.5,37.4,16.5h152.8   c15,0,28.5-5.9,37.4-16.5c10.4-10.4,15-24,15-39V377h15c37.4,0,69-31.5,69-69S335.4,239.1,298,239.1L298,239.1z M298,345.6h-15   v-76.5h15c21,0,39,16.5,39,39C335.4,329,319.1,345.6,298,345.6L298,345.6z"></path>
</g>
</svg>