<?xml version='1.0' encoding='utf-8'?>
<svg xmlns="http://www.w3.org/2000/svg" id="Vrstva_1" data-name="Vrstva 1" viewBox="0 0 744.71 566.93" width="525.4335" height="400.0">
  <defs>
    <style>
      .cls-1 {
        fill-rule: evenodd;
      }
    </style>
  </defs>
  <path class="cls-1" d="m84.87,272.94h42.61v-53.11c0-2.85.31-5.56.9-8.15,1.37-6.08,5.41-10.56,10.41-12.99,7.01-3.4,15.91-2.75,21.96,3.26.34.34.68.7,1,1.07,6.04,6.98,9.85,16.23,9.85,27.25v86.8l-58.3,92.78H4.29l21.78-254.18L144.25,20.57c14.82,8.86,18.34,22.67,18.81,44.87l-78.2,108.18v99.33Zm532.35,0h42.62s0-99.32,0-99.32l-78.2-108.18c.48-22.21,3.99-36.02,18.81-44.87l118.18,135.12,21.78,254.18h-109.01l-58.34-92.79.04-86.79c0-10.53,2.62-18.93,9.81-27.26,4.88-5.65,12.04-7.34,18.51-5.88,6.96,1.55,13.14,6.74,14.89,14.55.58,2.59.9,5.3.9,8.15v53.09Zm-75.74-104.29l.55-.65c9.19-10.63,20.12-17.68,31.68-21.56l-35.88-49.64-10.52-15.34c-44.09-31.29-98.05-49.7-156.33-49.7s-110.09,17.69-153.69,47.85l-10.48,17.19-35.88,49.64c11.2,3.76,21.81,10.5,30.83,20.59,39.51-49.69,100.62-81.57,169.22-81.57s131.03,32.57,170.49,83.19Zm-22.35,73.66c-38.02-4.85-88.51-9.18-147.61-9.18s-108.17,4.21-146,8.98v90.38l-8.73,13.9,64.34,19.84,22.47,44.75c44.94,22.37,89.88,22.37,134.82,0l22.47-44.75,66.56-20.5-8.32-13.23v-90.17Zm42.71,158.14c-21.08,39.74-54.33,72.12-94.86,92.21h-191.99c-39.74-19.7-72.49-51.22-93.62-89.92l-31.85,50.69c28.33,40.53,67.59,72.92,113.54,92.92h215.86c46.71-20.34,86.51-53.47,114.94-94.95l-32.02-50.96Z"></path>
</svg>