<?xml version='1.0' encoding='utf-8'?>
<!-- Generator: Adobe Illustrator 27.2.0, SVG Export Plug-In . SVG Version: 6.00 Build 0)  --><svg xmlns="http://www.w3.org/2000/svg" xmlns:xlink="http://www.w3.org/1999/xlink" version="1.1" id="Vrstva_1" x="0px" y="0px" viewBox="0 0 761.4 566.9" style="enable-background:new 0 0 761.4 566.9;" xml:space="preserve" width="537.2376" height="400.0">
<g>
	<path d="M7.2,22.3v522.2h747.1V22.3H7.2z M284.4,396.7c-8,8-18.2,14.1-26.2,30.4c-8,18.2-18.2,26.2-18.2,36.4c0,8-4.1,8,0,8v14.1   c4.1,4.1-14.1,4.1-18.2-14.1c-4.1-14.1,8-70.9,8-75c-4.1-4.1-14.1-14.1-18.2-22.3c-4.1-8-12.1-22.3-8-30.4c0-4.1,8-12.1,8-14.1   c-4.1-4.1-4.1-12.1-14.1-14.1c-12.1-4.1-8-18.2-22.3-18.2c-18.2-4.1-36.4-40.5-40.5-44.4c0-4.1-12.1-22.3,0-36.4   c8-14.1-22.3-36.4-26.2-36.4c-8,0-22.3-8-26.2,0c-4.1,8-18.2,18.2-22.3,14.1s12.1-8,14.1-12.1c4.1-4.1-8,0-8-8   c0-4.1-4.1-40.5,30.4-36.4c34.5,0,40.5,12.1,40.5,8s22.3-30.3,40.5-36.4c18.2-8,56.6-22.3,66.8-22.3c12.1,0,14.1-4.1,18.2,0   s8-4.1-14.1,12.1c-18.2,12.1-40.5,18.2-40.5,34.5c0,14.1,26.2-8,36.4,8c12.1,14.1,4.1,22.3,0,26.2c-8,4.1-12.1,12.1-4.1,14.1   c4.1,0,8-4.1,12.1,0c0,4.1,4.1,14.1,8,14.1s12.1,18.2,8,22.3c-4.1,8-36.4,22.3-44.4,26.2c-8,8-18.2,8-12.1,30.4   c4.1,18.2-30.4-26.2-44.4,8c0,4.1,14.1,4.1,22.3,12.1c8,8,0,8,8,14.1c4.1,8,12.1,18.2,14.1,18.2c2.7,0,4.1,1.4,4.1,4.1   c0-4.1,4.1-18.2,18.2-12.1c18.2,12.1,36.4,8,34.5,18.2c0,12.1,4.1,12.1,8,12.1c4.1,0,40.5,8,14.1,30.4   C286.6,378.5,290.5,388.7,284.4,396.7L284.4,396.7z M306.8,149.8c0,4.1-8,0-12.1,4.1c-4.1,0,0,18.2-8,18.2s-18.2-18.2-12.1-30.4   c4.1-4.1-8-30.3-12.1-30.3s-26.2,4.1-12.1-14.1c14.1-12.1,18.2-14.1,22.3-12.1c4.1,0,22.3,0,22.3-4.1s18.2-8,22.3,0s0,12.1,4.1,8   c4.1,0,12.1-4.1,14.1-4.1c4.1,0-8,4.1-8,8c0,4.1,8,14.1-4.1,26.2c-12.1,12.1,0,8-4.1,12.1c0,4.1-12.1,12.1-14.1,12.1   C306.8,141.8,306.8,145.7,306.8,149.8L306.8,149.8z M667.1,425.1c-8,8-8,14.1-14.1,12.1c-8-4.1-12.1-14.1-14.1-14.1   s-14.1-4.1-18.2,0s-8,4.1-14.1,4.1c-4.1,0,0,4.1-4.1,4.1s-12.1-4.1-4.1-12.1c4.1-4.1-14.1-18.2,0-30.4c8-4.1,22.3-14.1,22.3-18.2   s4.1,0,8,0c4.1,4.1,12.1-12.1,12.1-8c4.1,4.1,4.1,8,8,12.1c4.1,4.1,8,4.1,8,0s4.1-26.2,8-4.1C669,393.1,677,388.9,677,397   C675.3,406.9,675.3,423.2,667.1,425.1L667.1,425.1z M683.3,168c0,0-22.3,0-14.1,8c8,8,0,18.2,0,22.3s-12.1,8-8-18.2   c4.1-22.3-4.1-14.1-8-14.1s12.1,12.1-12.1,8c-18.2-4.1-26.2,22.3-18.2,22.3s0-4.1,8,0s0,18.2,0,22.3s-14.1,22.3-18.2,22.3   s-22.3-8-12.1,18.2c14.1,22.3-14.1,26.2-18.2,26.2s-14.1,0-4.1,12.1c12.1,12.1,8,22.3,4.1,26.2c-4.1,4.1-12.1,22.3-14.1,14.1   c-8-8-12.1-48.6-22.3-48.6c-12.1,0-14.1,34.5-22.3,34.5s-14.1-22.3-14.1-30.4c0-12.1-26.2-22.3-30.3-18.2s-8,22.3-14.1,26.2   c-12.1,8-14.1,4.1-14.1-4.1c0-4.1-8-18.2-12.1-22.3c-4.1-4.1,0,4.1,0,14.1c4.1,12.1,44.4,40.5,44.4,44.4s-8,12.1-12.1,14.1   c-8,4.1-8,0-14.1,8c-8,8,0,4.1,4.1,12.1c8,8,4.1,18.2-8,26.2c-12.1,8-18.2,48.6-36.4,48.6s-40.5-40.5-40.5-52.7   c0-14.1-4.1-18.2-12.1-26.2c-4.1-8,0-30.4-4.1-34.5c-36.4,4.1-40.5-8-40.5-12.1s-8-12.1-12.1-26.2c-4.1-14.1,0-26.2,4.1-34.5   c4.1-8,26.2-4.1,34.5-4.1s12.1-14.1,18.2-14.1c8,0,12.1,12.1,18.2,18.2c8,8,8-4.1,18.2-4.1c4.1,0,14.1,4.1,18.2,0   c4.1,0-8-14.1-12.1-18.2c-4.1-4.1-4.1,0-8,0c-14.1,0-14.1-12.1-22.3-14.1c-8-8-14.1,4.1-22.3,12.1c-8,8-18.2,0-18.2-14.1   s22.3-14.1,30.4-22.3h4.1v-8c8-4.1,14.1-8,12.1-14.1c-8-8-8,0-12.1-8c-8-8,12.1-12.1,30.4-30.4c18.2-22.3,36.4,0,30.4,8   c-8,8,4.1,8,12.1,4.1c8-4.1,22.3-18.2,36.4-18.2c12.1,0,12.1,4.1,14.1,12.1c4.1,8,14.1-12.1,14.1-18.2c0-8,18.2-18.2,34.5-22.3   c14.1-4.1,26.2,4.1,18.2,12.1c-8,8-4.1,12.1,4.1,8s18.2,4.1,34.5,8c14.1,4.1,36.4,4.1,56.6,4.1s12.1-4.1,44.4,12.1   C728,157.8,683.3,168,683.3,168L683.3,168z"></path>
</g>
</svg>