<?xml version='1.0' encoding='utf-8'?>
<!-- Generator: Adobe Illustrator 27.2.0, SVG Export Plug-In . SVG Version: 6.00 Build 0)  --><svg xmlns="http://www.w3.org/2000/svg" xmlns:xlink="http://www.w3.org/1999/xlink" version="1.1" id="Vrstva_1" x="0px" y="0px" viewBox="0 0 615.4 566.9" style="enable-background:new 0 0 615.4 566.9;" xml:space="preserve" width="434.22122" height="400.0">
<g>
	<path d="M201.9,374.7c0.3-6.5,6.7-25.3,6.7-25.3s1.2-1.8,1.9-1.9c1-0.1,3.5,1.9,3.5,1.9s6.1,18.7,7,25.2c0.1,0.8,0.5,2.4,0.4,3.2   c-0.2,1.6-1.4,4.8-2.5,6c-1.1,1.2-4,2.9-5.6,3.2c-1.6,0.3-5-0.3-6.4-1.1c-1.4-0.8-3.8-3.2-4.4-4.7   C201.7,379.7,201.8,376.3,201.9,374.7L201.9,374.7L201.9,374.7z"></path>
	<path d="M351.9,310.7c-0.1,1.6-0.1,5,0.6,6.5c0.6,1.4,2.9,4,4.3,4.7c1.4,0.8,4.8,1.4,6.4,1.1c1.6-0.3,4.5-2,5.6-3.2   c1.1-1.2,2.3-4.3,2.5-6c0.1-0.8-0.1-2.4-0.3-3.2c-1.1-6.5-7-25.2-7-25.2s-2.4-2.2-3.4-2c-0.7,0.1-2,2-2,2S352.4,304.1,351.9,310.7   L351.9,310.7z"></path>
	<path d="M364,346.2c0,0-2.5-2.1-3.5-2c-0.7,0.1-1.9,2-1.9,2s-6,18.8-6.6,25.3c-0.1,1.6-0.1,5,0.5,6.5c0.6,1.4,2.9,4,4.3,4.7   c1.4,0.8,4.8,1.4,6.4,1.1c1.6-0.3,4.6-1.9,5.7-3.2s2.2-4.4,2.4-6c0.1-0.8-0.1-2.4-0.3-3.1c-1.1-6.5-7-25.2-7-25.2"></path>
	<path d="M202,421.7c0.3-6.5,6.6-25.2,6.6-25.2s1.3-2,2-2c1-0.1,3.4,1.9,3.4,1.9s6.2,18.8,7,25.3c0.1,0.8,0.4,2.4,0.3,3.2   c-0.2,1.6-1.4,4.8-2.5,6c-1.1,1.2-4,2.8-5.6,3c-1.6,0.3-4.9-0.2-6.4-1c-1.4-0.8-3.7-3.3-4.4-4.8C201.9,426.7,201.9,423.3,202,421.7   L202,421.7L202,421.7z"></path>
	<path d="M270.9,417c0,0-0.2,0.1-0.3,0.1c-1.6,0.3-5-0.4-6.4-1.2c-1.4-0.8-3.5-3.4-4-4.9c-0.5-1.5-0.6-4.9,0-6.4   c0.5-1.5,4.1-4.9,4.1-4.9h44.8l7.6,5.1L270.8,417"></path>
	<path d="M327.3,411.9l-6-4l-30.2,8.1c0,0-4.5,2-5.5,3.3c-1,1.2-2.2,4.5-2.1,6.1c0,1.6,1.3,4.7,2.4,5.9c1.1,1.2,4.1,2.7,5.7,2.9   c1.5,0.2,4.5-0.6,5.9-1.2L327.3,411.9L327.3,411.9L327.3,411.9z"></path>
	<path d="M314.4,370.4l2.8,0.7l25,4.2l-25-4.2L314.4,370.4h-65c-1.6,0.2-5,0.9-6.4,1.8c-1.4,0.8-3.8,3.4-4.5,4.8   c-0.7,1.4-1.4,4.8-1.2,6.4c0.1,1.6,1.3,4.8,2.2,6.2c1,1.4,3.6,3.5,5.1,4.2c1.1,0.5,3.6,0.8,4.8,1h61.5l44.8,31.2   c0,0,2.3,2.3,2.6,3.3c0.5,1.5,0.4,4.8-0.4,6.2c-0.8,1.4-3.7,3-5.1,3.6c-4.4,1.8-14,2-18.6,3.2c-1.6,0.4-4.9,1.4-6.4,2.2   c-1.5,0.8-4.2,2.9-5.4,4.1c-1.2,1.2-3.2,4-4,5.5c-0.8,1.5-1.9,4.7-2.1,6.4c-0.3,1.7-0.1,6.8-0.1,6.8s0,0.1,0,0.1   c0.5,1.2,2.7,2.9,3.9,3.4c0.2,0,0.7,0,0.7,0l28.3-4.9l6.8-1.4l6.6-1.8l6.5-2.1l6.4-2.4l5.6-2.5l22.2-10.6l65.5-30.2l-29.5-51.2   l-28.5,16.3l-4.2,2l-6.5,1.8H393l1,1.4c0,0,1.7,4.7,1.7,6.4s-0.9,4.9-1.7,6.4c-0.8,1.4-3.3,3.8-4.8,4.6s-4.7,1.6-6.4,1.6   s-4.9-0.8-6.4-1.7c-1.4-0.9-3.8-3.4-4.6-4.9c-0.8-1.4-1.6-6.4-1.6-6.4l-0.1,0.2l0.1-0.2c0,0-3.1,1.4-4.2,1.6   c-1.6,0.4-5,0.6-6.6,0.5c-1.7-0.2-5-1.1-6.5-1.8c-1.5-0.7-4.3-2.8-5.4-4c-1.1-1.2-3-4.1-3.6-5.6c-0.7-1.5-1.6-6.5-1.6-6.5"></path>
	<path d="M309.8,323.1c-0.8-1.4-3.2-4-4.6-4.9c-1.4-1-6.2-2.5-6.2-2.5s-0.7-0.1-1-0.1c-19.1-1.8-76.2-7.9-76.2-7.9s-1.8-3.8-3-4   c-1.2-0.2-4.3,2.6-4.3,2.6l-0.2,0.6l-3.2,29.2c0,0,1.8,3.8,3,4.1c1.2,0.2,4.2-2.6,4.2-2.6l0.2-0.6l76.1,8.9c0,0,5-0.1,6.6-0.7   c1.6-0.5,4.5-2.3,5.7-3.5c1.2-1.1,3.2-4,3.7-5.5c0.6-1.6,1-5,0.9-6.6C311.6,327.9,310.6,324.6,309.8,323.1L309.8,323.1L309.8,323.1   z M219.2,332l2.1-19.4l76.2,8.1c0,0,2.1,0.3,2.7,0.7c1.4,0.7,4.1,2.8,4.9,4.1c0.8,1.4,1.2,6.4,1.2,6.4L219.2,332L219.2,332z"></path>
	<path d="M609.2,507.1c-1.1-3.6-4.4-10.3-6.3-13.6c-0.1-0.1-0.2-0.4-0.3-0.5c-35.3-56-135.4-227.5-135.4-227.5l-84.6-141.9   l-31.2-52.3c0,0-10.1-17-13.5-22.7c-1-1.7-3.1-5.2-4.1-6.9c-0.5-0.8-1.4-2.2-1.8-3c-0.1-0.3-0.4-0.8-0.6-1   c-2.3-3.2-7.2-9.6-10.5-11.7c-2.9-1.9-9.8-4-13.2-4s-10.3,2.1-13.2,4c-3.3,2.1-8.1,8.6-10.5,11.7c-0.1,0.1-0.2,0.4-0.3,0.5   c-35.3,56-135.6,227.5-135.6,227.5L63.5,407.6l-31.1,52.3c0,0-10.2,17.1-13.6,22.8c-1,1.7-3.1,5.2-4.1,6.9c-0.5,0.8-1.4,2.2-1.8,3   c-0.1,0.3-0.4,0.8-0.6,1.1c-1.6,3.3-5.1,9.9-6.2,13.5c-0.9,2.9-1.8,9-1.8,12c0,2.1,0.5,6.3,1.1,8.3c0.4,1.3,1.5,4,2.3,5.1   c1.6,2.2,5.7,5.7,8,7.1c2.5,1.4,8.1,3.2,10.9,3.8c4,0.9,16.2,1.4,16.2,1.4h528.6c0.3,0,0.9,0,1.2,0c5.6-0.4,17-1.2,22.3-3.2   c3.2-1.2,9.1-4.8,11.4-7.3c1.6-1.8,3.6-6.2,4.3-8.5c0.4-1.2,0.5-3.7,0.6-4.9c0-0.5,0-1.4,0-1.9C610.8,516.1,610.1,510,609.2,507.1   L609.2,507.1L609.2,507.1z M70.7,490.8l237-403.6l236.9,403.6L70.7,490.8L70.7,490.8z"></path>
	<path d="M358.4,267.9l-6.6-28.7c0,0-2.8-3-4-2.9c-1.2,0.1-3.3,3.8-3.3,3.8l0.1,0.7l-74.8,16.4c0,0-4.7,1.8-6,2.8   c-1.3,1-3.5,3.6-4.2,5.1c-0.8,1.5-1.7,4.8-1.8,6.5s0.6,5,1.3,6.6c0.7,1.5,2.7,4.3,3.9,5.4c1.3,1.1,4.3,2.7,5.9,3.2   c1.6,0.4,5,0.4,6.6,0.3c0.2,0,1-0.2,1-0.2l74.7-17.4c0,0,2.8,3,4,2.9c1.2-0.2,3.3-3.9,3.3-3.9L358.4,267.9L358.4,267.9L358.4,267.9   z M329.6,269.3h-66.1c0,0,1.2-2.9,1.9-3.6c1.1-1.2,5.5-3.4,5.5-3.4l74.8-16.7l4.2,18.9L329.6,269.3L329.6,269.3L329.6,269.3z"></path>
	<polygon points="225.9,446.2 222.9,448 216.9,449.9 215.2,451.7 212.6,454.2 206.4,455.2 201.3,451.5 195.2,441.7 192.7,440.3    132.6,440.3 132.6,470.6 268.5,470.6 268.5,440 233.9,440 231.3,440.4 229.6,441 228.5,441.6 227.3,442.9  "></polygon>
</g>
</svg>