<?xml version='1.0' encoding='utf-8'?>
<!-- Generator: Adobe Illustrator 27.2.0, SVG Export Plug-In . SVG Version: 6.00 Build 0)  --><svg xmlns="http://www.w3.org/2000/svg" xmlns:xlink="http://www.w3.org/1999/xlink" version="1.1" id="Vrstva_1" x="0px" y="0px" viewBox="0 0 535.4 566.9" style="enable-background:new 0 0 535.4 566.9;" xml:space="preserve" width="377.77386" height="400.0">
<style type="text/css">
	.st0{fill-rule:evenodd;clip-rule:evenodd;}
</style>
<g>
	<path class="st0" d="M372.5,106C349.6,74.6,314,53.2,266.9,53.2c-81.4,0-131.2,64.2-131.2,133.9c0,101.2-31.4,158.4-62.8,216.7   c0,1.5-1.5,2.9-1.5,2.9L372.5,106z M187.1,435.4h290.9c-5.6-10-11.4-21.5-17-31.4c-27.1-51.3-55.7-101.2-61.3-181.1L187.1,435.4   L187.1,435.4z M324.1,473.9c0,31.4-25.7,56.9-56.9,56.9c-31.2,0-56.9-25.7-56.9-56.9H324.1L324.1,473.9z" fill="#51F093"></path>
	<path class="st0" d="M530.7,39L23.2,546.5L4.7,527.9L512.2,20.4C512.2,20.4,530.7,39,530.7,39z" fill="#51F093"></path>
</g>
</svg>