<?xml version='1.0' encoding='utf-8'?>
<!-- Generator: Adobe Illustrator 27.2.0, SVG Export Plug-In . SVG Version: 6.00 Build 0)  --><svg xmlns="http://www.w3.org/2000/svg" xmlns:xlink="http://www.w3.org/1999/xlink" version="1.1" id="Vrstva_1" x="0px" y="0px" viewBox="0 0 743.8 566.9" style="enable-background:new 0 0 743.8 566.9;" xml:space="preserve" width="524.81915" height="400.0">
<style type="text/css">
	.st0{fill-rule:evenodd;clip-rule:evenodd;}
</style>
<g>
	<path class="st0" d="M346,546.5c-106.1-221.7-106.1-304.5,0-526.2c0,0,393.8,0,393.8,264S346,546.5,346,546.5L346,546.5z    M401.9,490.4c-8.5,0.9-16.3,1.6-23.2,2.1c-42-91.7-59.7-151.8-59.7-209s17.7-117.3,59.6-208.9c6.8,0.5,14.6,1.2,23,2.2   c34.7,3.9,80,11.5,124.5,26.5c91.4,30.6,161,83.9,161,181.1s-69.4,149.9-160.8,180.1C481.8,479.2,436.5,486.7,401.9,490.4   L401.9,490.4z" fill="#53A7F5"></path>
	<path d="M235.3,151.9c-5.5,17.9-10,35.4-13.4,52.6H4v-52.6H235.3z" fill="#53A7F5"></path>
	<path d="M213.9,283.5c0-7.3,0.2-14.5,0.6-21.8v-4.6H4v52.6h210.5v-4.5C214.1,298,213.9,290.8,213.9,283.5L213.9,283.5z" fill="#53A7F5"></path>
	<path d="M221.9,362.4c3.4,17.3,7.9,34.7,13.4,52.6H4v-52.6H221.9z" fill="#53A7F5"></path>
	<path d="M275.9,46.7c-8.1,18.1-15.5,35.6-22.1,52.6H4V46.7H275.9z" fill="#53A7F5"></path>
	<path d="M275.8,520.2c-8.1-18.1-15.5-35.6-22.1-52.6H4v52.6H275.8L275.8,520.2z" fill="#53A7F5"></path>
</g>
</svg>