<?xml version='1.0' encoding='utf-8'?>
<!-- Generator: Adobe Illustrator 27.2.0, SVG Export Plug-In . SVG Version: 6.00 Build 0)  --><svg xmlns="http://www.w3.org/2000/svg" xmlns:xlink="http://www.w3.org/1999/xlink" version="1.1" id="Vrstva_1" x="0px" y="0px" viewBox="0 0 711.4 566.9" style="enable-background:new 0 0 711.4 566.9;" xml:space="preserve" width="501.958" height="400.0">
<style type="text/css">
	.st0{fill:#C83C26;}
	.st1{fill:#9FC7A3;}
</style>
<g>
	<path class="st0" d="M706.4,283.5c0,96.9-78,175-175,175H179.7c-96.9,0-174.7-78-174.7-175s77.8-175,174.7-175h349.8   C628.5,108.5,706.4,188.5,706.4,283.5L706.4,283.5L706.4,283.5z"></path>
	<path class="st1" d="M478.4,458.4H179.7C82.7,458.4,5,380.5,5,283.4s77.8-174.9,174.7-174.9h298.4v349.8H478.4L478.4,458.4z"></path>
	<g>
		<path d="M235,285.4c3.9,5.8,5.8,13.4,5.8,21s-1.8,15.2-5.8,21c-4,5.8-9.5,11.4-17.1,15.2c-7.6,3.9-17.1,5.8-26.6,5.8    c-11.4,0-21-1.8-30.3-5.8c-7.6-3.9-15.2-9.5-21-17.1l17.1-9.5c9.5,9.5,21,15.2,34.3,15.2c5.8,0,11.4-1.8,17.1-3.9    c3.9-1.8,7.6-5.8,9.5-9.5c1.8-3.7,3.9-7.6,3.9-11.4c0-7.6-3.9-13.4-9.5-17.1c-5.8-3.9-15.2-5.8-28.5-5.8h-11.4v-19h15.2    c9.5,0,17.1-1.8,21-5.8c5.8-3.9,7.6-9.5,7.6-17.1c0-5.8-1.8-11.4-7.6-15.2c-5.8-3.9-11.4-5.8-19-5.8c-5.8,0-11.4,1.8-17.1,3.9    c-5.5,2.1-9.5,5.8-13.4,11.4l-17.1-9.5c5.8-7.6,11.4-13.4,21-17.1c7.6-3.9,17.1-5.8,26.6-5.8s19,1.8,26.6,5.8    c7.6,3.9,13.4,7.6,17.1,13.4c3.9,5.8,5.8,11.4,5.8,19s-1.8,13.4-5.8,19c-4,5.6-7.6,9.5-15.2,13.4    C223.5,274.1,231.1,279.8,235,285.4L235,285.4L235,285.4z"></path>
		<path d="M345.3,344.3h-22.8l-26.6-34.1l-22.8,34.1h-22.8l36.1-49.5l-36.1-49.5h22.8l24.7,34.3l24.7-34.3h22.8l-36.1,49.5    L345.3,344.3L345.3,344.3z"></path>
	</g>
	<g>
		<path d="M551,205.7h15.2v138.7h-20.8v-116l-38.1,15.2l-9.5-15.2L551,205.7L551,205.7L551,205.7z"></path>
		<path d="M682.6,344.3h-22.8l-26.6-34.1l-24.7,34.1h-22.8l36.1-49.5l-36.1-49.5h22.8l24.7,34.3l24.7-34.3h22.6l-36.1,49.5    L682.6,344.3L682.6,344.3z"></path>
	</g>
</g>
</svg>