<?xml version='1.0' encoding='utf-8'?>
<svg xmlns="http://www.w3.org/2000/svg" id="Vrstva_1" data-name="Vrstva 1" viewBox="0 0 904.69 566.93" width="638.3081" height="400.0">
  <defs>
    <style>
      .cls-1 {
        fill: #010101;
        fill-rule: evenodd;
      }
    </style>
  </defs>
  <path class="cls-1" d="m12.16,389.67l10.3,14.48h74.73l7.71,23.84c9.13,28.23,38.92,50.62,75.25,53.24,15.37,1.11,32.88-1.29,49.45-10.97,16.72-9.77,29.63-25.28,38.41-45.44l9.01-20.68h347.01l8.52,22c13.86,35.8,48.15,56.07,83.63,55.11,15.24-.41,32.93-4.89,49.04-17.26,16.18-12.42,28.23-30.85,35.44-54.81l3.43-11.4,95.93-67.45v-141.19l-218.49-91.62-.51-.21c-16.83-6.74-34.57-10.71-52.58-11.76l-1-.06-168.55-.04c-37.1,0-73.54,10.37-105.42,30.02l-.59.36-122.21,68.72-5.62,1.04c-41.81,7.76-75.07,13.95-101.47,20.17-26.28,6.2-48.21,12.96-66.6,22.74-15.98,8.5-26.92,18.36-34.84,30.97-7.73,12.29-13.82,29.17-17.15,53.78l-.31,2.3v52.17l.05.93v.21s.03.24.03.24l.04.51.11,1.14c.09.81.22,1.73.41,2.74.37,1.99,1,4.58,2.14,7.47,1.3,3.3,2.94,6.2,4.71,8.68v.03Zm440.89-239.38c-14.57,0-36.42,3.47-55.55,14.95-20.47,12.28-37.84,34.06-37.84,67.12s17.37,54.84,37.84,67.12c19.14,11.48,40.99,14.95,55.55,14.95h124.4v-50.94h-124.4c-8.07,0-20.18-2.19-29.35-7.69-7.83-4.7-13.11-11.22-13.11-23.44s5.27-18.74,13.11-23.44c9.16-5.5,21.27-7.69,29.35-7.69h67.92v-50.94h-67.92Zm192.36,138.7l-67.92,67.92v-135.84l67.92,67.92h0Z"></path>
</svg>