<?xml version='1.0' encoding='utf-8'?>
<!-- Generator: Adobe Illustrator 27.2.0, SVG Export Plug-In . SVG Version: 6.00 Build 0)  --><svg xmlns="http://www.w3.org/2000/svg" xmlns:xlink="http://www.w3.org/1999/xlink" version="1.1" id="Vrstva_1" x="0px" y="0px" viewBox="0 0 554.4 566.9" style="enable-background:new 0 0 554.4 566.9;" xml:space="preserve" width="391.1801" height="400.0">
<g>
	<path d="M550,559H4.4V7.9H550L550,559L550,559z M24.1,27.6v511.1h506.2V27.6H24.1z M353.8,324.9l61.9,19.7   c-9.5,34.3-25.3,60.2-47.4,77.6c-11.1,8.6-23.7,14.9-37.9,18.8c-14.2,3.9-29.7,6-46.5,6.2c-21,0-40.2-3.7-57.8-11.1   c-17.6-7.4-32.8-18-45.6-31.9c-12.8-13.9-22.9-30.8-30-50.7c-7.2-19.9-10.8-42.3-10.8-67.2c0-26.3,3.6-49.8,10.8-70.4   c7.2-20.6,17.3-38.1,30.2-52.2s28.5-25,46.7-32.5c18.2-7.5,38.4-11.2,60.5-11.2c39,0,70.5,11.4,94.6,34.2   c14.2,13.8,25.1,33.3,32.7,58.5l-63.5,15.1c-4.1-16.6-12.2-29.7-24.2-39.1c-12-9.4-26.3-14.2-43-14.2c-11.7,0-22.4,2.1-32,6.2   c-9.7,4.1-18,10.5-25,19.2c-7,8.7-12.4,19.8-16.2,33.3c-3.8,13.5-5.7,29.5-5.7,48.2c0,20.3,1.9,37.6,5.7,51.8   c3.8,14.2,9.2,25.6,16.2,34.4c7,8.7,15.2,15.1,24.6,19.1c9.5,4,19.9,6,31.4,6c16.6,0,31.1-5.3,43.4-16   C339.3,366,348.2,348.7,353.8,324.9L353.8,324.9L353.8,324.9z"></path>
</g>
</svg>