<?xml version='1.0' encoding='utf-8'?>
<!-- Generator: Adobe Illustrator 27.2.0, SVG Export Plug-In . SVG Version: 6.00 Build 0)  --><svg xmlns="http://www.w3.org/2000/svg" xmlns:xlink="http://www.w3.org/1999/xlink" version="1.1" id="Vrstva_1" x="0px" y="0px" viewBox="0 0 750 566.9" style="enable-background:new 0 0 750 566.9;" xml:space="preserve" width="529.19385" height="400.0">
<g>
	<path d="M502,21.3h25.1v327.1H502L401.3,247.8h-88.1V122h88.1L502,21.3L502,21.3z" fill="#FFCE63"></path>
	<path d="M575.6,107l16.3-60.8c54.1,22.8,92,76.3,92,138.7s-35.8,112.9-87.5,136.7L580,260.3l0,0c1.2-0.7,2.3-1.5,3.5-2.3   c0.6-0.4,1.3-0.9,1.9-1.3c1.2-0.9,2.4-1.8,3.5-2.7c10.7-8.6,19.4-19.7,25.2-32.4c5.1-11.2,7.9-23.6,7.9-36.7   C622,151.3,603.2,122,575.6,107z" fill="#FFCE63"></path>
	<path d="M195.4,265.6l56-31.5v60.8l-37.7,21.2l-8.6,1.6c-64.8,12-99.4,18.5-121.6,30.3c-8.9,4.7-13.6,9.4-16.8,14.5   c-3.4,5.4-7.2,14.5-9.4,30.8V431c0,0.1,0,0.5,0.3,1.1c0.2,0.4,0.4,0.8,0.6,1.1h63.1l11.9,36.7c3.2,9.9,15.7,21.3,34.6,22.7   c15.4,1.1,31.5-5,41.4-27.5l13.9-31.8h302.3l13.1,33.8c6.3,16.4,22,25.9,38.9,25.5c14.2-0.4,31.8-8.2,40.3-36.6l5.3-17.5l70-49.2   v-64c14.5-16.5,26.6-35.3,35.5-55.8l17.5,7.3v139.9l-77.5,54.5c-30.1,100-149.1,93-179.3,15H257.5c-38.9,89.3-152.7,68.5-174.9,0   H58.5c-31.8,0.8-54.1-27-54.1-55.2v-41.1C15.1,299,71.5,288.6,186.9,267.2L195.4,265.6L195.4,265.6z" fill="#FFCE63"></path>
</g>
</svg>