<?xml version='1.0' encoding='utf-8'?>
<!-- Generator: Adobe Illustrator 27.2.0, SVG Export Plug-In . SVG Version: 6.00 Build 0)  --><svg xmlns="http://www.w3.org/2000/svg" xmlns:xlink="http://www.w3.org/1999/xlink" version="1.1" id="Vrstva_1" x="0px" y="0px" viewBox="0 0 530.4 566.9" style="enable-background:new 0 0 530.4 566.9;" xml:space="preserve" width="374.2459" height="400.0">
<g>
	<path d="M520.6,241.5c-1.6-10.1-6.6-30.1-9.8-39.9c-3.2-9.6-11.1-28.2-15.7-37.2c-4.6-8.9-15.1-25.9-21-33.9   c-5.9-8-18.8-23.1-25.9-30.1c-7-7-22.1-20-30.2-25.9c-8-5.9-25-16.4-33.9-21c-9-4.6-27.6-12.5-37.2-15.7   c-9.7-3.2-29.6-8.1-39.8-9.8c-10.4-1.7-31.5-3.4-42-3.4c-10.5,0-31.6,1.7-42,3.4c-10.1,1.6-30.1,6.5-39.8,9.8   c-9.6,3.2-28.2,11.1-37.1,15.7c-8.9,4.6-25.9,15.1-33.9,21c-8,5.9-23.2,18.8-30.2,25.9c-7,7-20,22.1-25.9,30.1   c-5.9,8.1-16.4,25-21,33.9c-4.6,9-12.6,27.6-15.7,37.2c-3.2,9.7-8.1,29.7-9.8,39.9c-1.7,10.4-3.4,31.4-3.4,42s1.7,31.6,3.4,41.9   c1.6,10.1,6.5,30.1,9.8,39.9c3.2,9.6,11.1,28.2,15.7,37.2c4.6,8.9,15.1,25.9,21,33.9c5.9,8,18.8,23.1,25.9,30.1   c7,7,22.2,20,30.2,25.8c8,5.9,25,16.4,33.9,21c9,4.6,27.5,12.5,37.1,15.7c9.7,3.2,29.7,8.1,39.8,9.8c10.4,1.7,31.4,3.4,42,3.4   c10.5,0,31.6-1.7,42-3.4c10.1-1.7,30-6.5,39.8-9.8c9.6-3.2,28.2-11.1,37.2-15.7c8.8-4.6,25.9-15.1,33.9-21   c8-5.9,23.1-18.8,30.2-25.8c7-7,20-22.1,25.9-30.1c5.9-8,16.4-25.1,21-33.9c4.6-9,12.5-27.6,15.7-37.2c3.2-9.7,8.2-29.7,9.8-39.9   c1.7-10.4,3.4-31.4,3.4-41.9S522.3,251.9,520.6,241.5z M370,464.5c-7.7,4.5-24,12.2-32.4,15.3c-8.6,3.1-26.2,7.9-35.2,9.6   c-9.2,1.6-27.9,3.3-37.2,3.3c-9.4,0-28.3-1.8-37.6-3.4c-9-1.6-26.8-6.5-35.4-9.7c-8.5-3.1-24.7-11-32.5-15.5   c-7.7-4.5-22.4-14.8-29.2-20.5c-6.8-5.7-19.5-18.4-25.2-25.2c-5.8-6.8-16.1-21.5-20.6-29.3c-4.6-7.8-12.3-24.1-15.4-32.5   c-3.2-8.6-8.1-26.4-9.7-35.4c-1.7-9.3-3.4-28.2-3.4-37.6c0-9.4,1.6-28.1,3.3-37.3c1.6-9,6.4-26.6,9.6-35.2   c3.1-8.4,10.8-24.6,15.2-32.4c4.5-7.7,20.4-29.1,20.4-29.1L399,444.1C399,444.1,377.7,460,370,464.5L370,464.5L370,464.5L370,464.5   z M471.2,320.1c-1.5,8.8-6.2,26.1-9.2,34.5c-3,8.3-10.4,24.3-14.7,32c-4.3,7.6-19.6,28.7-19.6,28.7s-2-2-2.7-2.7   c-36.1-36.1-108.3-108.3-144.4-144.4c-22.9-22.9-68.7-68.7-91.6-91.6c-8.4-8.4-25.3-25.2-33.7-33.7c-3.7-3.7-11-11-14.6-14.7   c-1.1-1.1-3.4-3.4-4.5-4.5c-0.7-0.7-2.7-2.6-2.7-2.6s21.1-15.3,28.7-19.6c7.6-4.3,23.7-11.7,32-14.7c8.4-3,25.7-7.7,34.5-9.2   c9-1.6,27.4-3.2,36.6-3.2c9.4,0,28.3,1.7,37.6,3.4c9,1.6,26.8,6.5,35.4,9.7c8.5,3.2,24.8,11,32.6,15.6c7.7,4.5,22.3,14.8,29.1,20.6   c6.8,5.7,19.5,18.4,25.2,25.2c5.8,6.8,16.2,21.5,20.7,29.2c4.5,7.8,12.3,24.1,15.4,32.5c3.2,8.6,8.2,26.4,9.8,35.5   c1.7,9.3,3.3,28.1,3.3,37.5C474.3,292.6,472.7,311,471.2,320.1L471.2,320.1L471.2,320.1L471.2,320.1z"></path>
	<g>
		<path d="M268.2,321.1c-1.8,2.2-4.5,5.4-5.8,7.1c-2.8,3.7-8.3,11.2-10.8,15.2c-2.3,3.7-8.4,15.3-8.4,15.3s-5.7-24.3-8.2-32.3    c0-0.1-0.1-0.4-0.2-0.5c-2.2-6.5-6.3-19.8-8.3-26.4c-1.7-5.6-5.7-16.6-6.3-22.4c-0.1-1.2,0-1.7,0.2-3.5l-53.3-54.2    c-1.8,1.2-3.5,2.5-4.6,3.3c-3.7,2.7-10.1,9.2-13,12.7c-2,2.4-5.4,7.7-7,10.4c-1.5,2.7-4.2,8.2-5.4,11.1c-1.5,3.6-4.1,11-5.1,14.8    c-1.6,5.9-4.3,17.9-4.6,24c-0.1,2.3,0,7.1,1,9.2c0.5,1.1,2.3,2.8,3.4,3.4c0.4,0.3,1.4,0.5,1.9,0.5c0.8,0.1,2.5,0,3.2-0.3    c1.2-0.5,3.3-2,4-3.1c1.1-1.7,1.5-5.9,1.9-7.9c0.6-3.1,1.3-9.5,2.1-12.6c0.7-2.8,2.7-8.3,3.8-11c1-2.4,3.4-7,4.8-9.2    c1.8-3,5.8-8.7,8-11.4c0.3-0.4,0.8-1.5,1.4-1.6c1-0.1,2.7,1.6,3.1,2.6c2.2,5.5-1.3,17.7-2.2,23.5c-0.6,4.3-2.3,12.8-3.5,16.9    c-1.2,3.9-4.1,11.5-6,15c-0.8,1.5-2.9,4.2-4.1,5.5c-1.8,1.9-5.8,5.1-7.9,6.6c-4.4,3-14,8.2-18.8,10.6c-3.5,1.7-10.7,4.7-14.3,6.2    c-0.6,0.2-1.7,0.5-2.3,0.8c-1.9,1-5.4,3.3-6.9,4.9c-1,1-2.6,3.6-3.2,4.9c-0.5,1.1-0.9,3.5-0.9,4.7c0,1.5,0.7,4.5,1.3,5.8    c0.8,1.9,3.2,5.5,4.9,6.8c1.2,1,4.2,2.2,5.7,2.6c1.1,0.3,3.6,0.2,4.7,0.2c0.5,0,1.5-0.2,2-0.4c6.9-2.1,19.9-8.7,26.1-12.3    c6.5-3.8,18.8-12.6,24.7-17.4c3.4-2.8,10-8.9,12.9-12.3c1.5-1.8,4.2-5.6,5.5-7.6c2.4-3.9,3.7-16.2,8.3-16.4    c2.9-0.1,4.6,7.3,5.9,9.9c2.6,5.4,6.9,16.5,8.7,22.2c1.7,5.4,4.2,16.3,5.3,21.9c1.1,5.7,2.5,17.3,3.4,23.1c0.3,2,0.7,6,1.2,8    c0.3,1.2,1,3.6,1.6,4.7c0.8,1.5,2.4,4.7,3.7,5.8c2.4,1.9,8.3,4.3,11.4,4.4c2.2,0,6.5-1.5,8.2-2.8c1.8-1.4,4.2-5.4,5-7.4    c0.3-0.8,0.6-2.5,0.6-3.4c0.2-4.7-1.8-18.8-1.8-18.8s5.1,3.9,7,4.6c1.9,0.6,5.9,1.1,7.9,0.7c0.9-0.2,2.6-0.9,3.4-1.5    c0.8-0.6,2-2.1,2.5-3c0.3-0.5,0.6-1.5,0.9-2c1.8-3.1,5.9-9.1,8.2-11.9c2.9-3.4,9.5-9.4,12.8-12.3c0.2-0.2,0.8-0.6,1-0.8    c0.3-0.2,0.6-0.5,1-0.9L268.2,321.1L268.2,321.1L268.2,321.1z"></path>
		<path d="M426.4,263.2c-0.3-1.2-1.5-3.4-2.3-4.3c-1.1-1.3-3.7-3.5-5.2-4.5c-2.4-1.6-7.6-4.1-10.4-4.9c-0.1,0-0.4-0.1-0.5-0.1    c-1-0.3-3-1.2-3.9-1.7c-3.5-2.2-9.7-7.6-12.4-10.6c-5.7-6.1-14.7-20.4-19.7-27.1c-2.8-3.7-8-11.3-11.2-14.5    c-2.2-2.1-7.1-5.8-9.8-7.2c-2.2-1.1-7-2.5-9.4-3.2c-0.6-0.2-2.3,0-2.6-0.6c-0.1-0.4,0.5-1,0.8-1.2c0.2-0.2,0.8-0.3,1-0.4    c0.8-0.4,2.5-1.1,3.2-1.7c0.7-0.5,1.7-1.9,2-2.6c1.2-2.2,2.9-7.2,3.5-9.7c1-4.8,1.5-14.6,1.5-19.5c0-0.3,0-1.1-0.1-1.4    c-0.4-2-1.6-6-2.6-7.9c-0.6-1.2-2.3-3.5-3.4-4.4c-1.1-1.1-3.8-2.8-5.3-3.3c-1.8-0.7-5.8-1.2-7.7-1.2c-3.8,0.1-11.5,1.5-14.9,3.4    c-2.7,1.5-7.3,6.1-8.8,8.8c-1.8,3.1-3.2,10.4-3.5,14c-0.2,3.1,0,9.4,1,12.4c0.6,1.8,2.9,5,4.3,6.3c1.1,0.9,3.8,1.8,5,2.6    c0.3,0.2,0.8,0.6,1,0.9c0.1,0.2,0.2,0.9,0.2,1.1c0,0.4-0.3,1.1-0.4,1.4c-0.3,0.6-1,1.9-1.5,2.3c-1.2,0.8-4.3,0.6-5.7,0.9    c-1.7,0.4-5.1,1.6-6.7,2.4c-3.7,1.7-10.9,5.8-14.3,8.1c-3.6,2.5-10.5,8.1-13.7,11.1c-4.2,3.9-12.6,12.1-16,16.8    c-0.2,0.3-0.6,0.9-0.7,1.3c-0.3,1-0.6,3.1-0.6,4.1c0,2.4-0.4,2.7,0,6.2l79.6,79.4c4.7-0.6,7.1-1.7,10-0.2    c2.8,1.4,6.9,10.1,6.9,10.1l2.4,9.5l37.4,37.9l-6.7-15.4l-6.7-26.4c0,0-5.8-15.6-5.2-20.9c0-0.3,0.4-0.8,0.5-1    c1.1-1.9,3.2-5.6,4.2-7.5c0.1-0.2,0.3-0.5,0.3-0.8V300c0-0.1-0.1-0.3-0.1-0.4c-0.2-0.5-0.7-1.7-0.9-2.3    c-1.6-3.9-5.2-11.7-6.8-15.6c-2.3-5.6-6.6-17-8.5-22.8c-0.9-2.9-2.6-8.7-3.2-11.7c-0.7-3.8-5.2-13.9-1.6-15.3    c3.2-1.2,5.7,8.5,8,11c3,3.2,9.5,9.1,13.1,11.7c3.7,2.7,11.7,7.2,15.7,9.3c2.9,1.5,8.8,4.4,11.9,5.5c2.3,0.9,7.2,2.4,9.7,2.6    c1.3,0.1,4.2,0.1,5.5-0.2c0.5-0.1,1.7-0.5,2.1-0.9c0.7-0.5,1.7-2,1.9-2.8C426.7,267.1,426.7,264.4,426.4,263.2L426.4,263.2    L426.4,263.2z M296.1,228.9c-0.3,4.4-1.7,13-2.5,17.3c-0.8,3.8-3,11.4-4.1,15.1c-0.6,1.8,0.1,2.7-1.7,3c-2.1,0.3-5.8-3.1-6.8-5    c-0.8-1.5-0.6-2.6-0.9-4.3c-0.8-4.8-3.6-14.7-2-19.3c1.4-4,8.7-9.5,12.1-12.1c1.3-1,4.3-4.3,5.7-3.5    C297.9,221.2,296.2,226.7,296.1,228.9L296.1,228.9L296.1,228.9z"></path>
		<path d="M228.1,201.6c0.8-3.2,1.5-10,1.2-13.3c-0.3-3.2-1.9-9.6-3.5-12.3c-1.3-2.2-5.1-6-7.4-7.3c-2-1.1-6.6-2.3-8.9-2.4    c-2.2-0.1-6.6,0.9-8.8,1.6c-1.3,0.4-3.7,1.6-4.9,2.4c-0.8,0.5-1.5,1.1-2.7,2.2l33.9,33.8C227.5,204.6,227.8,202.7,228.1,201.6    L228.1,201.6L228.1,201.6z"></path>
	</g>
</g>
</svg>