<?xml version='1.0' encoding='utf-8'?>
<svg xmlns="http://www.w3.org/2000/svg" id="Vrstva_1" data-name="Vrstva 1" viewBox="0 0 551.32 566.93" width="388.9863" height="400.0">
  <defs>
    <style>
      .cls-1 {
        fill-rule: evenodd;
      }
    </style>
  </defs>
  <path class="cls-1" d="m245.34,64.42v32.91l8.78,205.69h43.9l9.3-205.69v-32.91h-61.97Zm12.39,347.11c5.85,3.08,12.22,4.63,19.11,4.63s12.57-1.54,18.07-4.63c5.51-3.43,9.81-7.88,12.91-13.37,3.44-5.83,5.16-12.17,5.16-19.03s-1.72-12.51-5.16-18c-3.1-5.49-7.4-9.77-12.91-12.86-5.51-3.43-11.53-5.14-18.07-5.14-6.89,0-13.26,1.71-19.11,5.14-5.51,3.09-9.98,7.37-13.43,12.86-3.1,5.48-4.65,11.48-4.65,18,0,6.86,1.55,13.2,4.65,19.03,3.44,5.49,7.92,9.94,13.43,13.37Z" fill="#FFCE63"></path>
  <path d="m125.03,101.27l4.34-5.76V7.27h-64.04v110.84c-7.85,15.92-15.8,34.24-22.98,53.49-15.35,41.18-28.35,89.79-28.35,131.77s13.28,83.53,28.9,118.17c19.3,42.8,27.91,92.4,37.67,138.13h54.22v-43.54h35.18v43.54h43.38v-43.54l40.61.34v43.19h43.38v-43.19h40.61v43.19h43.38v-43.19h35.18v43.19h54.22c9.8-45.67,18.45-95.22,37.68-137.98,15.62-34.72,28.89-75.82,28.89-118.32s-13-90.59-28.35-131.77c-6.93-18.6-14.6-36.33-22.19-51.87V7.27h-64.83v88.24l4.34,5.76c10.2,13.54,27.33,45.99,42.01,85.36,14.64,39.27,25.64,82.26,25.64,116.74s-10.72,68.7-25.1,100.66c-12.01,26.71-26.04,50.36-37.46,69.24h-107.73v-.34H119.93c-11.43-18.88-25.45-42.45-37.46-69.09-14.37-31.87-25.09-66.52-25.09-100.47s11-77.47,25.64-116.74c14.68-39.38,31.82-71.82,42.01-85.36Z" fill="#FFCE63"></path>
</svg>