<?xml version='1.0' encoding='utf-8'?>
<!-- Generator: Adobe Illustrator 27.2.0, SVG Export Plug-In . SVG Version: 6.00 Build 0)  --><svg xmlns="http://www.w3.org/2000/svg" xmlns:xlink="http://www.w3.org/1999/xlink" version="1.1" id="Vrstva_1" x="0px" y="0px" viewBox="0 0 994.6 566.9" style="enable-background:new 0 0 994.6 566.9;" xml:space="preserve" width="701.7816" height="400.0">
<g>
	<path d="M109.8,396.5c18.6,0,29.3-2.6,37.2-10.7c7.9-5.3,13.3-16,13.3-29.3c0-7.9-2.6-13.3-5.3-18.6c-2.6-5.3-7.9-7.9-13.3-13.3   c-5.3-2.6-13.3-7.9-26.5-10.7l-23.8-7.9c-18.6-7.9-34.5-13.3-45-21.2c-10.7-7.9-21.2-18.6-26.5-29.3c-5.3-13.3-10.7-26.5-10.7-45   c0-21.2,5.3-37.2,13.3-53.1C33.2,141.5,46.4,131,62.3,123c18.6-7.9,37.1-13.3,61-13.3c34.5,0,63.8,7.9,87.6,23.8l-10.7,58.3   c-10.7-7.9-23.8-13.3-37.1-15.9c-13.3-2.6-26.5-5.3-39.8-5.3c-15.9,0-29.3,2.6-37.1,10.7c-7.9,5.3-13.3,15.9-13.3,26.5   c0,7.9,0,13.3,2.6,18.6c2.6,5.3,7.9,7.9,13.3,13.3c5.3,2.6,15.9,7.9,26.5,13.3l23.8,7.9c18.6,7.9,34.5,13.3,45,21.2   c13.3,7.9,21.2,18.6,29.3,29.3c7.9,13.3,10.7,26.5,10.7,45s-5.3,37.1-13.3,53.1c-7.9,16-21.2,26.5-39.8,34.5   c-18.6,7.9-39.8,13.3-63.8,13.3c-21.2,0-39.8-2.6-55.7-5.3c-15.9-5.3-31.9-10.7-45-18.6l10.5-58.2c15.9,7.9,29.3,16,42.4,18.6   C75.3,393.8,91.2,396.5,109.8,396.5L109.8,396.5z"></path>
	<path d="M231.7,117.9h231v58.3h-82.4v273.4h-63.8V176.2h-85v-58.3H231.7L231.7,117.9z"></path>
	<path d="M600.8,454.8c-29.3,0-55.7-7.9-79.5-21.2c-21.2-16-39.8-34.5-50.5-61c-10.7-26.5-18.6-55.7-18.6-87.6s5.3-63.8,18.6-87.6   c10.7-26.5,29.3-47.8,50.5-61c21.2-15.9,47.8-21.2,79.5-21.2c29.3,0,55.7,7.9,79.5,21.2c21.2,15.9,39.8,34.5,50.5,61   c13.3,26.5,18.6,55.7,18.6,87.6s-5.3,61-18.6,87.6c-10.7,26.5-29.3,47.8-50.5,61C656.5,446.9,629.9,454.8,600.8,454.8z    M600.8,393.8c18.6,0,31.9-5.3,45-13.3c13.3-10.7,21.2-21.2,26.5-39.8c5.3-16,7.9-37.1,7.9-58.4c0-34.5-7.9-61-21.2-82.4   c-13.3-21.2-34.5-29.3-58.3-29.3c-18.6,0-31.9,5.3-45,13.3c-10.7,7.9-21.2,21.2-26.5,39.8c-5.3,15.9-7.9,37.2-7.9,58.4   s2.6,42.4,7.9,58.4s16,29.3,26.5,39.8C568.9,391.2,584.8,393.8,600.8,393.8L600.8,393.8z"></path>
	<path d="M882,117.9c21.2,0,39.8,5.3,55.7,13.3c15.9,10.7,26.5,21.2,37.2,39.8c7.9,15.9,13.3,34.5,13.3,55.7s-5.3,37.2-13.3,55.7   c-7.9,16-18.6,29.3-34.5,39.8c-15.9,10.7-34.5,13.3-55.7,13.3h-45v116.7h-63.8V117.9H882L882,117.9z M876.7,277   c15.9,0,26.5-5.3,34.5-13.3c7.9-10.7,10.7-21.2,10.7-39.8c0-15.9-2.6-29.3-10.7-37.1c-7.9-7.9-18.6-13.3-31.9-13.3h-37.2V277   L876.7,277L876.7,277z"></path>
</g>
</svg>