<?xml version='1.0' encoding='utf-8'?>
<svg xmlns="http://www.w3.org/2000/svg" id="Vrstva_1" data-name="Vrstva 1" viewBox="0 0 572.96 566.93" width="404.25452" height="400.0">
  <defs>
    <style>
      .cls-1 {
        fill-rule: evenodd;
      }
    </style>
  </defs>
  <path class="cls-1" d="m6.28,113.34c0-16.58,13.44-30.02,30.02-30.02h500.37c16.58,0,30.02,13.44,30.02,30.02v340.25c0,16.58-13.44,30.02-30.02,30.02H36.3c-16.58,0-30.02-13.44-30.02-30.02V113.34Zm403.03,290.21c-69.12,0-109.62-51.32-109.62-120.09s40.15-120.09,112.06-120.09c21.64,0,39.8,5.59,54.81,13.62l-9.08,43.29c-11.52-6.98-26.88-11.87-45.03-11.87-40.15,0-59.7,30.02-59.7,75.06s19.55,75.06,58.65,75.06c18.15,0,32.12-3.84,46.08-11.52l7.68,42.24c-15.01,8.73-33.51,14.31-55.86,14.31Zm-302.96-120.09c0,68.77,40.5,120.09,109.62,120.09,22.34,0,40.84-5.59,55.86-14.31l-7.68-42.24c-13.96,7.68-27.93,11.52-46.08,11.52-39.1,0-58.65-29.67-58.65-75.06s19.55-75.06,59.7-75.06c18.15,0,33.51,4.89,45.03,11.87l9.08-43.29c-15.01-8.03-33.16-13.62-54.81-13.62-71.91,0-112.06,50.62-112.06,120.09Z"></path>
</svg>