<?xml version='1.0' encoding='utf-8'?>
<!-- Generator: Adobe Illustrator 27.2.0, SVG Export Plug-In . SVG Version: 6.00 Build 0)  --><svg xmlns="http://www.w3.org/2000/svg" xmlns:xlink="http://www.w3.org/1999/xlink" version="1.1" id="Vrstva_1" x="0px" y="0px" viewBox="0 0 428.4 566.9" style="enable-background:new 0 0 428.4 566.9;" xml:space="preserve" width="302.2755" height="400.0">
<path d="M422.2,22.3v405c0,36.9-28.4,65.1-65.1,65.1c-26.9,0-52.3-16.9-60.9-41.1c-2.7-8.5-4.2-15.7-4.2-24.2  c0-36.9,28.4-65.1,65.1-65.1c14.2,0,28.4,5.7,39.6,12.7V118.4l-260.3,46.8v314.3c0,36.9-28.4,65.1-65.1,65.1s-65-28.4-65-65  s28.4-65.1,65.1-65.1c14.2,0,28.4,5.7,39.6,12.7V80.3L422.2,22.3L422.2,22.3z"></path>
</svg>