<?xml version='1.0' encoding='utf-8'?>
<!-- Generator: Adobe Illustrator 27.2.0, SVG Export Plug-In . SVG Version: 6.00 Build 0)  --><svg xmlns="http://www.w3.org/2000/svg" xmlns:xlink="http://www.w3.org/1999/xlink" version="1.1" id="Vrstva_1" x="0px" y="0px" viewBox="0 0 510.4 566.9" style="enable-background:new 0 0 510.4 566.9;" xml:space="preserve" width="360.13403" height="400.0">
<g>
	<path d="M484.4,436.7l-88.5-49.2v56.3h-38.7v-56.3l-63.4,35.3l46.1,24.4L322,482.5l-49.2-27.8v105.5h-39V454.7l-49.2,27.8   L167,447.2l49.5-24.4l-63.4-35.3v52.6h-38.7v-52.6L26,436.7L5,405.2l91.6-52.9l-49.2-28.1L65,288.9l49.5,28.1v-70.2l-46.1,27.8   l-21-31.6l49.2-28.5L5,162.1l21-35.3l88.5,52.9v-56.3h38.7v56.3l63.4-35.3l-46.1-24.8l17.9-35.3l45.5,24.8V6.8h39v102.4L322,84.4   l21.3,31.9l-49.5,28.2l63.4,35.3v-52.9h38.7v52.9l88.5-52.9l21,35.3l-91.6,52.6l49.2,28.5l-21,31.6l-46.1-27.8V317l46.1-24.8   l17.3,31.9l-45.5,28.1l91.6,52.9L484.4,436.7L484.4,436.7z M255.2,398.1l102.1-56.3V225.5l-102.1-59.7l-102.1,59.7v116.3   L255.2,398.1L255.2,398.1z"></path>
</g>
</svg>