<?xml version='1.0' encoding='utf-8'?>
<svg xmlns="http://www.w3.org/2000/svg" id="Vrstva_1" data-name="Vrstva 1" viewBox="0 0 575.5 566.9" width="406.06808" height="400.0">
  <defs>
    <style>
      .cls-1 {
        fill-rule: evenodd;
      }
    </style>
  </defs>
  <path class="cls-1" d="m569.02,127.2l.05.88-25.99,29.86c-68.28-59.47-157.58-95.48-255.29-95.48S100.72,98.5,32.41,158l-25.97-29.85.05-.88C81.79,61.86,180.16,22.26,287.79,22.26s205.94,39.57,281.22,104.93h0Zm-281.26,296.95c6.75,0,13.47-.24,20.09-.71v-78.02c-6.51-1.09-13.21-1.65-20.02-1.65-27.26,0-52.41,9.02-72.62,24.25l47.93,55.07c8.12.71,16.33,1.06,24.62,1.06Zm203.23-206.35l8.16-9.37c-56.52-49.26-130.46-79.09-211.36-79.09s-154.9,29.85-211.43,79.14l26.41,30.33c49.46-43.14,114.19-69.28,185.02-69.28,56.2,0,108.57,16.45,152.5,44.8,5.94-1.03,12.03-1.56,18.26-1.56,11.31,0,22.21,1.77,32.44,5.04h0Zm-203.22,18.62c30.69,0,59.87,6.44,86.25,18.03-8.15,10.6-14.33,22.78-18.04,36.01-20.95-8.91-44.01-13.84-68.21-13.84-43.93,0-84.04,16.24-114.68,43.01l-26.41-30.33c37.71-32.92,87.06-52.87,141.09-52.87h0Zm196.9,82.82v48.22h-52.24v-48.22c0-14.43,11.69-26.12,26.12-26.12s26.12,11.7,26.12,26.12h0Zm-92.44,0c0-36.62,29.68-66.31,66.31-66.31s66.31,29.68,66.31,66.31v48.57h44.22v176.82h-221.04v-176.82h44.19v-48.57h0Z"></path>
</svg>