<?xml version='1.0' encoding='utf-8'?>
<!-- Generator: Adobe Illustrator 27.2.0, SVG Export Plug-In . SVG Version: 6.00 Build 0)  --><svg xmlns="http://www.w3.org/2000/svg" xmlns:xlink="http://www.w3.org/1999/xlink" version="1.1" id="Vrstva_1" x="0px" y="0px" viewBox="0 0 535.4 566.9" style="enable-background:new 0 0 535.4 566.9;" xml:space="preserve" width="377.77386" height="400.0">
<style type="text/css">
	.st0{fill-rule:evenodd;clip-rule:evenodd;}
</style>
<g>
	<path class="st0" d="M267,510.3c-52.6,0-101-17-139.4-45.5L103.4,489c45.5,35.5,102.3,56.9,162.2,56.9s118-21.3,162.2-56.9   l-24.1-24.1C368,493.3,319.5,510.3,267,510.3L267,510.3z" fill="#F54C4C"></path>
	<path class="st0" d="M56.5,127.7C25.2,170.4,5.3,224.4,5.3,282.8s18.5,112.4,51.2,155.1l24.1-22.8c-27-37-44.1-84-44.1-132.3   s15.7-95.2,44.1-132.3L56.5,127.7L56.5,127.7z" fill="#F54C4C"></path>
	<path class="st0" d="M104.9,78l24.1,24.1c38.4-28.4,86.8-45.5,139.4-45.5s99.5,17,137.9,45.5L430.5,78   c-45.5-35.5-101-56.9-162.2-56.9S150.4,42.4,104.9,78L104.9,78z" fill="#F54C4C"></path>
	<path class="st0" d="M478.9,127.7l-24.1,22.8c28.4,38.4,44.1,84,44.1,133.7s-15.7,95.2-44.1,133.7l24.1,22.8   c32.7-42.6,51.2-96.7,51.2-156.4S510.1,170.4,478.9,127.7L478.9,127.7z" fill="#F54C4C"></path>
	<path class="st0" d="M390.8,176c0-17-14.2-31.2-31.2-31.2S328.3,159,328.3,176s14.2,31.2,31.2,31.2   C376.5,207.4,390.8,193,390.8,176z" fill="#F54C4C"></path>
	<path class="st0" d="M234.2,274.2c-9.9,0-15.7,0-21.3,5.6L120.5,378c-9.9,9.9-2.8,24.1,9.9,24.1h24.1l76.9-84l76.9,31.2l-41.2-56.9   L234.2,274.2L234.2,274.2z" fill="#F54C4C"></path>
	<path class="st0" d="M313.9,240l-18.5,47l42.6,61.2l34.1-84c0-1.5,1.5-2.8,1.5-4.3l54.1-27l-11.4-24.1l-47,24.1   c-2.8-4.3-7.1-7.1-11.4-8.6C338,215.8,319.5,224.4,313.9,240L313.9,240z" fill="#F54C4C"></path>
	<polygon class="st0" points="304,353.9 348.1,416.4 372.3,397.9 341,348.1  " fill="#F54C4C"></polygon>
</g>
</svg>