<?xml version='1.0' encoding='utf-8'?>
<!-- Generator: Adobe Illustrator 27.2.0, SVG Export Plug-In . SVG Version: 6.00 Build 0)  --><svg xmlns="http://www.w3.org/2000/svg" xmlns:xlink="http://www.w3.org/1999/xlink" version="1.1" id="Vrstva_1" x="0px" y="0px" viewBox="0 0 647.4 566.9" style="enable-background:new 0 0 647.4 566.9;" xml:space="preserve" width="456.80014" height="400.0">
<g>
	<path d="M46.3,453.9h65.3l-40.8,33.2H5.4V120.5h89.8V79.8h65.3v40.7h277.6l-40.8,41H46.3V453.9L46.3,453.9z M593.3,6.9l24.5,24.1   L87.1,560.1L70.8,536L593.3,6.9L593.3,6.9L593.3,6.9z M78.6,234.5h98.3v24.8H78.6V234.5z M641.9,120.5v366.7H193.2l40.5-33.2h367.7   V161.5h-82l40.8-41L641.9,120.5L641.9,120.5L641.9,120.5z M503.5,259.2h-33v-24.8h33v-40.4h32.7v40.4h40.5v24.8h-40.5v40.4h-32.7   V259.2L503.5,259.2z" fill="#F54C4C"></path>
</g>
</svg>