<?xml version='1.0' encoding='utf-8'?>
<!-- Generator: Adobe Illustrator 27.2.0, SVG Export Plug-In . SVG Version: 6.00 Build 0)  --><svg xmlns="http://www.w3.org/2000/svg" xmlns:xlink="http://www.w3.org/1999/xlink" version="1.1" id="Vrstva_1" x="0px" y="0px" viewBox="0 0 675.4 566.9" style="enable-background:new 0 0 675.4 566.9;" xml:space="preserve" width="476.5567" height="400.0">
<style type="text/css">
	.st0{fill-rule:evenodd;clip-rule:evenodd;}
</style>
<g>
	<path class="st0" d="M335.8,66.3c-121.2,0-219,97.8-219,219s97.8,219,219,219s219-99.6,219-220.7S457.2,66.3,335.8,66.3L335.8,66.3   z M73.6,283.4c0-144.8,117.5-262.3,262.3-262.3s262.3,117.5,262.3,262.3S480.6,545.7,335.8,545.7   C191.2,547.6,73.6,430.1,73.6,283.4L73.6,283.4z" fill="#FFCE63"></path>
	<path d="M48.3,346.8l-36.1,10.8c-3.7-25.3-7.2-48.9-7.2-74.2s3.7-52.4,7.2-74.2l36.1,10.9c-3.7,18.2-7.2,41.6-7.2,63.2   C41.2,307,44.6,328.8,48.3,346.8L48.3,346.8z" fill="#FFCE63"></path>
	<path d="M126,495.2l-25.3,25.3C64.6,484.4,37.5,442.7,23,393.9l36.1-11C73.5,424.7,95.3,462.6,126,495.2L126,495.2z" fill="#FFCE63"></path>
	<path d="M59.1,184.1L23,173.2c14.5-48.9,45.2-88.7,77.7-126.6L126,71.9C95.3,106.1,73.6,144.4,59.1,184.1L59.1,184.1z" fill="#FFCE63"></path>
	<path d="M614.5,184.1C600,142.5,578.4,106.4,544,73.9l25.3-25.4c36.1,36.1,63.2,77.7,77.7,126.6L614.5,184.1L614.5,184.1z" fill="#FFCE63"></path>
	<path d="M614.5,384.9l36.1,11c-14.5,48.9-45.2,88.7-77.7,126.6l-25.3-27.1C578.4,462.6,603.5,424.7,614.5,384.9L614.5,384.9z" fill="#FFCE63"></path>
	<path d="M670.5,283.4c0,25.3-3.7,48.9-7.2,74.2l-36.1-11c3.7-21.6,7.2-41.6,7.2-63.2s-3.7-45.2-7.2-63.2l36.1-10.9   C666.8,236.4,670.5,258.2,670.5,283.4L670.5,283.4z" fill="#FFCE63"></path>
</g>
</svg>