<?xml version='1.0' encoding='utf-8'?>
<!-- Generator: Adobe Illustrator 27.2.0, SVG Export Plug-In . SVG Version: 6.00 Build 0)  --><svg xmlns="http://www.w3.org/2000/svg" xmlns:xlink="http://www.w3.org/1999/xlink" version="1.1" id="Vrstva_1" x="0px" y="0px" viewBox="0 0 481.4 566.9" style="enable-background:new 0 0 481.4 566.9;" xml:space="preserve" width="339.67188" height="400.0">
<g>
	<path d="M242.3,102.9c-84.6,0-153.5,68.9-153.5,153.5c0,54.4,27.3,100.4,68.9,127.7v-34.4c-24.3-23-41.6-55.9-41.6-93.2   c0-68.9,55.9-124.7,124.7-124.7s124.7,55.9,124.7,124.7c0,37.2-17.2,68.9-41.6,93.2V384c41.6-27.3,68.9-74.6,68.9-127.7   C395.6,171.6,328.3,102.9,242.3,102.9L242.3,102.9z"></path>
	<path d="M242.3,19.6C111.8,19.6,5.7,125.7,5.7,256.3c0,90.3,51.6,167.7,124.7,207.9v-31.5c-58.8-37.2-97.6-103.3-97.6-176.3   c0-114.6,93.2-207.9,207.9-207.9s207.9,93.2,207.9,207.9c0,73-38.8,139.1-97.6,176.3v33c73-40.2,124.7-117.6,124.7-207.9   C478.8,125.7,374.2,19.6,242.3,19.6L242.3,19.6z"></path>
	<path d="M242.3,326.5c38.8,0,68.9-31.5,68.9-68.9s-31.5-68.9-68.9-68.9s-68.9,31.5-68.9,68.9S205,326.5,242.3,326.5z"></path>
	<path d="M312.5,422.6v124.7H173.4V422.6c0-38.8,30.1-68.9,68.9-68.9S312.5,383.9,312.5,422.6z"></path>
</g>
</svg>