<?xml version='1.0' encoding='utf-8'?>
<!-- Generator: Adobe Illustrator 27.2.0, SVG Export Plug-In . SVG Version: 6.00 Build 0)  --><svg xmlns="http://www.w3.org/2000/svg" xmlns:xlink="http://www.w3.org/1999/xlink" version="1.1" id="Vrstva_1" x="0px" y="0px" viewBox="0 0 653.4 566.9" style="enable-background:new 0 0 653.4 566.9;" xml:space="preserve" width="461.0337" height="400.0">
<style type="text/css">
	.st0{fill-rule:evenodd;clip-rule:evenodd;}
</style>
<g>
	<path class="st0" d="M6.7,92.7h169.9v45.1H6.7V92.7z"></path>
	<path class="st0" d="M6.7,205.5h150.9v45.1H6.7V205.5z"></path>
	<path class="st0" d="M6.7,318.2h150.9v45.1H6.7V318.2z"></path>
	<path class="st0" d="M6.7,431.1h169.9v45.1H6.7V431.1z"></path>
	<path class="st0" d="M261.6,19.7c-46.8,183.9-46.8,343.6,0,527.5c0,0,385.2-20.8,385.2-263.7S261.6,19.7,261.6,19.7L261.6,19.7z    M296.5,498.7c5.3,0,12.2-1.7,19.1-3.6c34.7-5.3,79.9-15.5,123.1-31.3c92.1-34.6,163.1-90.1,163.1-180.5s-71.2-145.8-163.1-180.5   c-45.1-15.5-90.1-26.1-123.1-31.3c-7-1.7-12.2-1.7-19.1-3.6C261.6,217.6,261.6,351.2,296.5,498.7L296.5,498.7z"></path>
	<path class="st0" d="M473.4,333.9l17.4,41.5h34.7l-85.1-196h-20.8l-85.1,196h34.7l17.4-41.5H473.4L473.4,333.9z M400.5,304.2   l31.3-72.9l29.5,72.9H400.5L400.5,304.2z"></path>
</g>
</svg>