<?xml version='1.0' encoding='utf-8'?>
<svg xmlns="http://www.w3.org/2000/svg" id="Vrstva_1" data-name="Vrstva 1" viewBox="0 0 1548.34 566.93" width="1092.4382" height="400.0">
  <defs>
    <style>
      .cls-1 {
        fill-rule: evenodd;
      }
    </style>
  </defs>
  <path d="m803.03,278.49c0,15.64-12.68,28.31-28.31,28.31s-28.31-12.68-28.31-28.31v-2.13c0-15.64,12.67-28.31,28.31-28.31s28.31,12.68,28.31,28.31v2.13Z"></path>
  <path d="m745.98,49.65V7.07h57.47v42.57l-8.09,163.91h-41.3l-8.09-163.91Z"></path>
  <path class="cls-1" d="m991.65,470.15h50.33l9.46,29.26c2.56,7.92,12.54,17.01,27.59,18.1,12.26.89,25.17-3.96,33.02-21.98l11.06-25.37h241.24l10.46,27c5.07,13.09,17.6,20.69,31.04,20.32,11.35-.31,25.37-6.58,32.17-29.19l4.21-13.99,55.86-39.28v-61.61l-121.1-50.78c-8.22-3.29-16.87-5.22-25.64-5.74l-102.81-.02c-18.82,0-37.34,5.26-53.59,15.28l-.72.45-78.41,44.09-6.89,1.28c-51.67,9.59-79.35,14.79-97.06,24.21-7.11,3.78-10.83,7.47-13.41,11.59-2.71,4.31-5.71,11.57-7.47,24.59v30.04c0,.06.02.41.22.91.13.34.3.63.46.85Zm-42.93-34.53c8.59-72.57,53.59-80.9,145.67-97.95,2.24-.42,4.52-.84,6.82-1.26l71.56-40.24c22.87-14.1,49.06-21.56,75.77-21.56l103.92.02c13.92.66,27.63,3.67,40.59,8.91l147.3,61.77v111.67l-61.86,43.5c-24.01,79.79-118.97,74.25-143.09,11.95h-184.61c-31.08,71.31-121.88,54.68-139.56,0h-19.31c-25.39.63-43.2-21.55-43.2-44.02v-32.77Z"></path>
  <path class="cls-1" d="m50.93,470.15h50.32l9.46,29.26c2.56,7.92,12.54,17.01,27.59,18.1,12.26.89,25.17-3.96,33.02-21.98l11.06-25.37h241.24l10.46,27c5.07,13.09,17.6,20.69,31.04,20.32,11.35-.31,25.37-6.58,32.17-29.19l4.21-13.99,55.86-39.28v-61.61l-121.11-50.78c-8.22-3.29-16.87-5.22-25.64-5.74l-102.81-.02c-18.82,0-37.34,5.26-53.59,15.28l-.72.45-78.41,44.09-6.89,1.28c-51.67,9.59-79.35,14.79-97.06,24.21-7.1,3.78-10.82,7.47-13.41,11.59-2.71,4.31-5.71,11.57-7.47,24.59v30.04c0,.06.02.41.22.91.14.34.3.63.46.85Zm-42.93-34.53c8.59-72.57,53.59-80.9,145.67-97.95,2.24-.42,4.52-.84,6.82-1.26l71.56-40.24c22.87-14.1,49.05-21.56,75.77-21.56l103.92.02c13.92.66,27.63,3.67,40.59,8.91l147.31,61.77v111.67l-61.87,43.5c-24.01,79.79-118.97,74.25-143.09,11.95h-184.61c-31.08,71.31-121.88,54.68-139.56,0h-19.31c-25.38.63-43.2-21.55-43.2-44.02v-32.77Z"></path>
  <path d="m643.77,375.45v160.12h41.92v-61.87h177v61.67h41.92v-160.12h-41.92v56.52h-177v-56.32h-41.92Z"></path>
</svg>