<?xml version='1.0' encoding='utf-8'?>
<!-- Generator: Adobe Illustrator 27.2.0, SVG Export Plug-In . SVG Version: 6.00 Build 0)  --><svg xmlns="http://www.w3.org/2000/svg" xmlns:xlink="http://www.w3.org/1999/xlink" version="1.1" id="Vrstva_1" x="0px" y="0px" viewBox="0 0 661.4 566.9" style="enable-background:new 0 0 661.4 566.9;" xml:space="preserve" width="466.6784" height="400.0">
<path d="M65.7,20.6h525.7c8.6,0,16.7,1.5,24.2,4.4c7.6,2.9,14.2,7.1,20,12.4c5.8,5.3,10.4,11.5,13.9,18.6c3.5,7.1,5.2,15,5.2,23.5  v264.5c0,8.4-1.8,16.1-5.2,23.4c-3.5,7.2-8.1,13.5-13.9,19s-12.4,9.6-20,12.5c-7.6,2.9-15.6,4.4-24.2,4.4H305.5l29.1,71.1  c8.6,2,15.7,6,21.3,12c5.6,6,8.5,13.4,8.5,22.2c0,5-1,9.8-2.9,14.4c-1.9,4.6-4.5,8.7-7.6,12.2c-3.2,3.5-6.7,6.2-10.7,8.1  c-4,1.9-8.2,2.9-12.7,2.9c-5,0-9.8-1-14.4-2.9c-4.6-1.9-8.6-4.6-12-8.1c-3.4-3.5-6-7.6-8-12.2c-1.9-4.6-2.9-9.4-2.9-14.4  c0-2.3,0.8-5.1,2.5-8.6c1.7-3.5,3.4-6.4,5.2-8.6l-37.6-88.1H65.6c-8.4,0-16.1-1.5-23.2-4.4c-7.1-2.9-13.4-7.1-18.8-12.5  c-5.4-5.4-9.6-11.7-12.5-19c-2.9-7.2-4.4-15-4.4-23.4V79.6c0-8.6,1.5-16.4,4.4-23.5s7.1-13.3,12.5-18.6C29.1,32.1,35.3,28,42.4,25  S57.3,20.6,65.7,20.6L65.7,20.6L65.7,20.6L65.7,20.6L65.7,20.6z M591.3,62.6H65.7c-4.3,0-8.2,1.7-11.7,5.1  c-3.5,3.4-5.2,7.3-5.2,11.8v264.5c0,6.5,1.8,11.8,5.2,15.6c3.5,3.8,7.4,5.8,11.7,5.8h176.5L137.5,108.7l37.6-12.5l113.5,269.3h302.8  c6.8,0,12-1.9,15.6-5.8c3.6-3.8,5.4-9,5.4-15.6V79.5c0-4.5-1.8-8.5-5.4-11.8C603.3,64.3,598.1,62.6,591.3,62.6L591.3,62.6  L591.3,62.6L591.3,62.6L591.3,62.6z"></path>
</svg>