<?xml version='1.0' encoding='utf-8'?>
<!-- Generator: Adobe Illustrator 27.2.0, SVG Export Plug-In . SVG Version: 6.00 Build 0)  --><svg xmlns="http://www.w3.org/2000/svg" xmlns:xlink="http://www.w3.org/1999/xlink" version="1.1" id="Vrstva_1" x="0px" y="0px" viewBox="0 0 526.4 566.9" style="enable-background:new 0 0 526.4 566.9;" xml:space="preserve" width="371.42355" height="400.0">
<style type="text/css">
	.st0{fill-rule:evenodd;clip-rule:evenodd;}
</style>
<g>
	<path class="st0" d="M207.9,267.3c60.2,0,109.2-49,109.2-109.2S268.1,49,207.9,49S98.7,97.9,98.7,158.1S147.7,267.3,207.9,267.3z    M412.2,518v-16.8c0-112.1-91-201.6-203-201.6S4.9,389.2,4.9,501v16.8h407.3V518L412.2,518z"></path>
	<path class="st0" d="M482.3,205.9c0,46.2-16.8,88.1-43.4,121.8l30.8,23.8c32.2-40.6,51.8-91.1,51.8-146.9S503.3,102.4,474,63.2   l-30.8,23.8C466.9,120.4,482.3,161,482.3,205.9L482.3,205.9z"></path>
	<path class="st0" d="M403.9,205.9c0,27.9-9.8,53.2-25.3,72.8l30.8,23.8c21-26.6,35.1-60.2,35.1-98.1c0-35.1-12.6-68.6-32.2-93.8   l-30.8,23.8C395.5,154,403.9,179.2,403.9,205.9L403.9,205.9z"></path>
</g>
</svg>