<?xml version='1.0' encoding='utf-8'?>
<!-- Generator: Adobe Illustrator 27.2.0, SVG Export Plug-In . SVG Version: 6.00 Build 0)  --><svg xmlns="http://www.w3.org/2000/svg" xmlns:xlink="http://www.w3.org/1999/xlink" version="1.1" id="Vrstva_1" x="0px" y="0px" viewBox="0 0 1453.5 566.9" style="enable-background:new 0 0 1453.5 566.9;" xml:space="preserve" width="1025.5776" height="400.0">
<g>
	<path d="M7.4,283.5c0-99,51.9-174.9,126.9-174.9S252.1,172.5,260.8,245h-64.9c-7.6-30.8-27.8-59.6-60.2-59.6   c-41.8,0-63.4,43.7-63.4,98s21.3,98,63.4,98c35.3,0,53-24.5,61.6-61.5h64.2c-7.6,71.1-50.1,138.4-128.7,138.4S7.4,382.5,7.4,283.5   L7.4,283.5L7.4,283.5L7.4,283.5z"></path>
	<path d="M442.8,402.6H330.3l-15.9,50H251l112.5-338.3h50.5l111,338.3h-66.3L442.8,402.6L442.8,402.6z M421.1,335.4l-34.6-109.1   l-34.6,109.1H421.1z"></path>
	<path d="M759.9,114.3v338.3h-37.5L601.3,271.9v180.7h-62V114.3h36l122.5,182.6V114.3H759.9L759.9,114.3z"></path>
	<path d="M784.4,283.5c0-99,51.9-174.9,126.9-174.9s117.9,63.9,126.5,136.5h-64.9c-7.6-30.8-27.8-59.6-60.2-59.6   c-41.8,0-63.4,43.7-63.4,98s21.3,98,63.4,98c35.3,0,53-24.5,61.6-61.5h64.2c-7.6,71.1-50.1,138.4-128.7,138.4   S784.4,382.5,784.4,283.5L784.4,283.5L784.4,283.5L784.4,283.5z"></path>
	<path d="M1247.2,377.6v75h-181.7V114.3h178.8v75h-116.8v59.6h103.8v69.2h-103.8v59.6H1247.2L1247.2,377.6L1247.2,377.6   L1247.2,377.6z"></path>
	<path d="M1446.2,377.6v75H1276V114.3h62v263.3L1446.2,377.6L1446.2,377.6z"></path>
</g>
</svg>