<?xml version='1.0' encoding='utf-8'?>
<svg xmlns="http://www.w3.org/2000/svg" id="Vrstva_1" data-name="Vrstva 1" viewBox="0 0 406.5 566.93" width="286.8079" height="400.0">
  <defs>
    <style>
      .cls-1 {
        fill-rule: evenodd;
      }
    </style>
  </defs>
  <path class="cls-1" d="m104.78,125.9c0-38.03,38.17-78.78,98.48-78.78s98.48,40.75,98.48,78.78v118.17h-17.51c.25-2.59.38-5.22.38-7.88,0-44.96-36.45-81.41-81.41-81.41s-81.41,36.45-81.41,81.41c0,2.66.13,5.28.38,7.88h-17.38v-118.17Zm39.54,166.52v.53c-19.17,9.61-44.68,21.63-77.37,35.6l15.47,36.22c24.32-10.39,44.84-19.76,61.89-27.95v166.61s39.39,0,39.39,0v-83.41h39.39v83.41h39.39l-.06-166.81c17.04,8.18,37.54,17.55,61.83,27.92l15.47-36.22c-32.66-13.95-58.15-25.97-77.32-35.57v-.69c-14.84,15.73-35.89,25.55-59.22,25.55s-44.05-9.67-58.87-25.18Zm-78.93-48.35v-118.17C65.38,60.64,127.11,7.73,203.25,7.73s137.87,52.91,137.87,118.17v118.17h59.09v315.13H6.3V244.07h59.09Zm199.51-7.88c0,34.08-27.63,61.71-61.71,61.71s-61.71-27.63-61.71-61.71,27.63-61.71,61.71-61.71,61.71,27.63,61.71,61.71Z"></path>
</svg>