<?xml version='1.0' encoding='utf-8'?>
<svg xmlns="http://www.w3.org/2000/svg" id="Vrstva_2" data-name="Vrstva 2" viewBox="0 0 470.39 566.93" width="331.88577" height="400.0">
  <path d="m81.55,490.21c0-16.06,2.56-29.96,7.56-40.89,4.99-11.34,11.34-18.62,18.62-23.62,7.56-4.99,17.27-7.56,28.61-7.56,16.06,0,29.96,6.34,39.68,18.62,10.12,12.28,14.85,29.96,14.85,52.23,0,23.62-4.99,40.89-16.06,54.79-10.12,11.34-22.4,17.27-38.6,17.27s-29.96-6.34-38.6-17.27c-9.72-13.63-16.06-31.17-16.06-53.58h0Zm23.62-1.2c0,16.06,2.56,27.4,8.77,36.03,6.34,7.56,13.5,12.28,22.4,12.28s16.06-3.78,22.4-11.34,8.77-19.84,8.77-36.03-2.56-27.4-8.77-36.03c-6.34-7.56-13.5-11.34-22.4-11.34s-17.27,3.78-22.4,11.34c-4.99,6.48-8.77,19.03-8.77,35.09Z"></path>
  <path d="m209.49,558.77v-138.06h77.19v23.62h-54.79v32.39h48.45v23.62h-47.23v58.44h-23.62Z"></path>
  <path d="m306.65,558.77v-138.06h77.19v23.62h-54.79v32.39h47.23v23.62h-47.23v58.44h-22.4Z"></path>
  <path d="m464.54,103.56c0-53.58-43.46-97.03-97.03-97.03s-97.03,43.46-97.03,97.03,37.25,92.04,87.05,95.68v130.64h21.05v-130.5c47.5-3.78,85.97-44.81,85.97-95.82h-.01Zm-65.86,22.4h-64.64v-43.46h64.64v43.46Z"></path>
  <path d="m213.26,173.2l-4.99-1.21c-3.78-1.21-8.77-2.56-14.85-3.78-13.5-2.56-32.39-4.99-54.79-4.99s-42.24,2.56-53.58,4.99c-7.56,1.21-12.28,2.56-14.85,3.78l-7.56,1.21-20.92,34.95H5.84v21.05h21.05l-21.05,33.74v105.67c0,11.34,11.34,16.06,16.06,16.06h22.27c6.34,0,16.06-6.34,16.06-16.06v-16.06h154.12v16.06c0,11.34,11.34,16.06,16.06,16.06h21.05c6.34,0,16.06-6.34,16.06-16.06v-105.67l-19.84-33.74h21.05v-21.05h-34.82l-20.65-34.95h.01Zm-136.71,18.76c3.78-1.21,7.56-1.21,11.34-2.56,11.34-2.56,29.96-4.99,49.8-4.99s39.68,2.56,49.8,4.99c4.99,1.21,7.56,1.21,11.34,2.56l31.17,48.45H45.52l31.04-48.45h0Zm89.48,70.85h75.84v38.6h-21.05l-11.34-14.85h-27.4l-16.06-23.75h0Zm-72.07,23.62h-27.26l-10.12,16.06h-21.05v-38.6h75.84s-17.41,22.54-17.41,22.54Z"></path>
</svg>