<?xml version='1.0' encoding='utf-8'?>
<!-- Generator: Adobe Illustrator 27.2.0, SVG Export Plug-In . SVG Version: 6.00 Build 0)  --><svg xmlns="http://www.w3.org/2000/svg" xmlns:xlink="http://www.w3.org/1999/xlink" version="1.1" id="Vrstva_1" x="0px" y="0px" viewBox="0 0 539.4 566.9" style="enable-background:new 0 0 539.4 566.9;" xml:space="preserve" width="380.59622" height="400.0">
<style type="text/css">
	.st0{fill-rule:evenodd;clip-rule:evenodd;}
</style>
<g>
	<path d="M154.3,560.7l-23.7-51.4H112v51.4H84.3V415.5h51.4c9.2,0,17.1,2.7,23.7,6.6c6.6,3.9,11.9,9.2,15.8,15.8s5.3,14.6,5.3,23.7   s-2.7,17.1-6.6,23.7c-3.9,6.6-9.2,11.9-15.8,15.8l29,59.4L154.3,560.7L154.3,560.7L154.3,560.7z M112,440.5v43.6h20   c6.6,0,10.5-1.4,14.6-5.3c2.7-3.9,5.3-9.2,5.3-15.8s-1.4-11.9-5.3-15.8c-2.7-3.9-8-5.3-14.6-5.3h-20V440.5L112,440.5z"></path>
	<path d="M229.5,500v35.6h55.5v25.1h-83.2V415.5h81.9v25.1h-52.8v34.3h47.5v23.9h-48.8L229.5,500L229.5,500L229.5,500z"></path>
	<path d="M418.2,560.7h-29l-8-26.3h-50l-9.2,26.3h-29l51.4-145.2h22.3L418.2,560.7L418.2,560.7z M354.8,455.1l-17.1,55.5H372   L354.8,455.1L354.8,455.1z"></path>
	<path d="M502.7,560.7l-23.7-51.4h-18.5v51.4h-27.7V415.5h50c9.2,0,17.1,2.7,23.7,6.6c6.6,3.9,11.9,9.2,15.8,15.8   c3.9,6.6,5.3,14.6,5.3,23.7s-2.7,17.1-6.6,23.7s-9.2,11.9-15.8,15.8l29,59.4L502.7,560.7L502.7,560.7L502.7,560.7z M460.5,440.5   v43.6h19.8c6.6,0,10.5-1.4,14.6-5.3c2.7-3.9,5.3-9.2,5.3-15.8s-1.3-11.9-5.3-15.8c-2.7-3.9-8-5.3-14.6-5.3h-19.8V440.5L460.5,440.5   z"></path>
	<path class="st0" d="M214.9,175.3v-73.9c0-34.3-27.7-61.9-61.9-61.9s-62.2,27.5-62.2,61.9v73.9H214.9L214.9,175.3z M57.9,101.3   v73.9H5.1v253.4h39.5v-52.8h257.4V175.3h-52.8v-73.9c0-52.7-42.2-95.1-95.1-95.1C100.1,6.3,57.9,49.8,57.9,101.3L57.9,101.3z    M139.8,243.9v116.2h26.3V243.9H139.8z"></path>
</g>
</svg>