<?xml version='1.0' encoding='utf-8'?>
<!-- Generator: Adobe Illustrator 27.2.0, SVG Export Plug-In . SVG Version: 6.00 Build 0)  --><svg xmlns="http://www.w3.org/2000/svg" xmlns:xlink="http://www.w3.org/1999/xlink" version="1.1" id="Vrstva_1" x="0px" y="0px" viewBox="0 0 745.8 566.9" style="enable-background:new 0 0 745.8 566.9;" xml:space="preserve" width="526.23035" height="400.0">
<style type="text/css">
	.st0{fill-rule:evenodd;clip-rule:evenodd;}
</style>
<g>
	<path class="st0" d="M34.6,139.4c18.6-43.5,45.3-82.7,78.2-115.6L150,60.9c-27.4,27.4-49.7,59.8-65.6,95.6L34.6,139.4L34.6,139.4z    M17.5,189c-8,30.2-12.3,61.9-12.3,94.7s4.3,64.4,12.3,94.5L67.3,361c-6.2-24.8-9.6-50.7-9.6-77.4s3.3-52.7,9.6-77.5L17.5,189   L17.5,189z M84.4,410.7l-49.8,17.2c18.6,43.6,45.4,82.8,78.4,115.8l37.1-37.1C122.6,479.1,100.2,446.7,84.4,410.7z M678.5,361.1   c6.2-24.8,9.6-50.7,9.6-77.4s-3.3-52.7-9.6-77.5l49.8-17.2c8,30.2,12.3,61.9,12.3,94.7s-4.3,64.4-12.3,94.5L678.5,361.1z    M661.4,410.7c-15.9,36-38.3,68.4-65.7,95.9l37.1,37.1c33-33,59.8-72.3,78.4-115.8L661.4,410.7L661.4,410.7z M711.2,139.4   l-49.8,17.2c-15.8-35.9-38.2-68.3-65.6-95.7l37.1-37.1C665.8,56.7,692.6,95.9,711.2,139.4z" fill="#FFCE63"></path>
	<path d="M372.9,546.1c-144.8,0-262.6-117.8-262.6-262.6S228.1,20.8,372.9,20.8s262.6,117.8,262.6,262.6S517.7,546.1,372.9,546.1   L372.9,546.1z M372.9,73.3c-115.9,0-210.1,94.2-210.1,210.1S257,493.6,372.9,493.6S583,399.3,583,283.5S488.8,73.3,372.9,73.3   L372.9,73.3z" fill="#FFCE63"></path>
</g>
</svg>