<?xml version='1.0' encoding='utf-8'?>
<!-- Generator: Adobe Illustrator 27.2.0, SVG Export Plug-In . SVG Version: 6.00 Build 0)  --><svg xmlns="http://www.w3.org/2000/svg" xmlns:xlink="http://www.w3.org/1999/xlink" version="1.1" id="Vrstva_1" x="0px" y="0px" viewBox="0 0 549.9 566.9" style="enable-background:new 0 0 549.9 566.9;" xml:space="preserve" width="388.00494" height="400.0">
<style type="text/css">
	.st0{fill-rule:evenodd;clip-rule:evenodd;}
</style>
<g>
	<path class="st0" d="M330.7,8.4c0,40.6-17.4,86.1-46.9,132.9C254.4,187.9,214,234.1,170.7,276c-43.3,41.8-89.2,78.8-129.3,106.9   c-13.6,9.6-26.4,18-38,25.1v19.3h247.1c0-91,73.8-164.8,164.8-164.8c39.8,0,76.3,14.1,104.8,37.6c5.2-28.9,8.8-57.9,11.3-85.9   c6.8-77.7,5.2-150.9,4.3-193.9c-0.1-4.2-0.2-8.2-0.2-11.8h-83.1c0,26.6-2.5,52.9-7.1,78.5H406c5-25.7,7.7-52,7.7-78.5L330.7,8.4   L330.7,8.4z M391.4,244c16.5-32.6,30.8-67.8,41.5-104.7h-40.1c-11.5,37-27.1,72.2-44.7,104.7H391.4z"></path>
	<path class="st0" d="M326.6,524c0.5,0.4,0.9,0.8,1.4,1.3c6.3,5.6,13.1,10.6,20.4,14.9c18.1,10.7,39,17.2,61.3,18.2l0.3,0h0.2   c1.7,0.1,3.4,0.1,5,0.1c2.6,0,5.3-0.1,7.9-0.2c0.3,0,0.7,0,1-0.1c0.3,0,0.7,0,1-0.1c29.6-2.2,56.5-14.2,77.4-32.8   c25.3-22.5,41.9-54.8,43.8-90.8c0.1-2.4,0.2-4.8,0.2-7.3c0-72.5-58.8-131.3-131.3-131.3S284,354.7,284,427.2c0,0.2,0,0.4,0,0.6   C284.1,465.9,300.5,500.1,326.6,524L326.6,524z M334.3,508.2c18.5-36.6,51.6-51.5,81-51.5s62.7,15.8,80.9,51.5   c-20.7,20.7-49.4,33.5-81,33.5S355,529,334.3,508.2L334.3,508.2z M462.1,389.7c0,25.9-21,46.9-46.9,46.9s-46.9-21-46.9-46.9   s21-46.9,46.9-46.9S462.1,363.8,462.1,389.7z"></path>
</g>
</svg>