<?xml version='1.0' encoding='utf-8'?>
<svg xmlns="http://www.w3.org/2000/svg" id="Vrstva_1" version="1.1" viewBox="0 0 415.56 400" width="415.56" height="400.0">
  <!-- Generator: Adobe Illustrator 30.4.0, SVG Export Plug-In . SVG Version: 2.1.4 Build 226)  -->
  <path d="M353.9,49.49l-11.11-44.36h-17.82l8.88,44.36h20.05Z" fill="#8bc8a2"></path>
  <path d="M388.74,188.65l21.55,86.11h-31.31l-17.24-86.11h27Z" fill="#8bc8a2"></path>
  <path d="M103.91,49.49l8.88-44.36h-17.82l-11.11,44.36h20.05Z" fill="#8bc8a2"></path>
  <path d="M77.35,75.59h21.34l-10.94,54.63h-24.07l13.68-54.63h-.01Z" fill="#8bc8a2"></path>
  <path d="M360.44,75.59l19.6,78.28h-25.26l-15.68-78.28h21.34Z" fill="#8bc8a2"></path>
  <path d="M219.5,5.38c-25.45,0-45.01,2.88-52.94,4.26l-5.43.95-36.63,64.58v84.62c0,6.96,2.77,13.18,7.78,17.51,4.81,4.16,10.89,5.93,16.71,5.93s11.85-1.71,16.76-5.55c4.81-3.76,8.26-9.44,8.69-16.4h90.35c.35,6.23,2.94,11.86,7.54,15.93,4.79,4.24,10.87,6.02,16.71,6.02s11.85-1.72,16.76-5.57c5.15-4.04,8.72-10.26,8.72-17.88v-84.63l-36.67-64.57-5.43-.95c-7.92-1.38-27.48-4.26-52.94-4.26h.02ZM147.83,81.29l2.73-4.81h137.91l2.74,4.82v56.69h-143.38v-56.7h0ZM202.16,88.38h-40.41v30.6h11.54v-18.37h23.09l5.77-12.24h.01ZM277.2,88.38h-40.41l5.77,12.24h23.09v18.37h11.54v-30.6h0ZM164.05,52.7l11.9-20.98c8.97-1.32,24.46-3.06,43.55-3.06s34.58,1.74,43.55,3.06l11.92,20.98h-110.92Z" fill="#9c9b9b" fill-rule="evenodd"></path>
  <path d="M297.45,356.07c-1.67,13.84-5.82,26.93-11.99,38.81h30.58c6.51-16.31,10.08-34.09,10.08-52.7,0-78.67-63.87-142.44-142.65-142.44s-142.65,63.77-142.65,142.44c0,18.62,3.58,36.4,10.08,52.7h30.58c-6.17-11.87-10.32-24.96-11.99-38.81h22.63v-27.8h-22.63c2.57-21.25,10.96-40.71,23.54-56.74l16.05,16.03,19.68-19.66-16.05-16.03c16.04-12.55,35.52-20.93,56.79-23.51v22.75h27.84v-22.75c21.29,2.56,40.8,10.95,56.86,23.52l-16.13,16.11,19.68,19.66,16.13-16.11c12.58,16.03,20.98,35.5,23.54,56.75h-22.79v27.8h22.79l.03-.02h0ZM157.13,335.53l-31.05-31.01,19.68-19.66,31.04,31c2.14-.54,4.37-.83,6.67-.83,15.01,0,27.17,12.15,27.17,27.14s-12.16,27.13-27.17,27.13-27.17-12.15-27.17-27.13c0-2.29.28-4.52.82-6.65h0Z" fill="#9c9b9b" fill-rule="evenodd"></path>
  <path d="M57.66,187.14v-28.78h22.26v66.79H13.14v-22.26h28.78L5.26,166.24l15.74-15.75,36.65,36.65h0Z" fill="#9c9b9b"></path>
</svg>