<?xml version='1.0' encoding='utf-8'?>
<!-- Generator: Adobe Illustrator 27.2.0, SVG Export Plug-In . SVG Version: 6.00 Build 0)  --><svg xmlns="http://www.w3.org/2000/svg" xmlns:xlink="http://www.w3.org/1999/xlink" version="1.1" id="Vrstva_1" x="0px" y="0px" viewBox="0 0 424.4 566.9" style="enable-background:new 0 0 424.4 566.9;" xml:space="preserve" width="299.45316" height="400.0">
<g>
	<path d="M94.1,155.1c1.3,10.2,3.2,21.3,5.8,33c2.6,11.8,5.8,23.7,9.6,35.9c5.1,20.7,11,39.7,17.6,56.9   c6.6,17.2,13.5,33.2,20.5,47.9v26.9c0,6.2-2.2,11.5-6.7,16c-4.5,4.5-9.8,6.7-16,6.7H80c-4.5,0-8.7-1.2-12.7-3.5   c-4-2.4-7-5.5-9.1-9.3c-7.5-14.1-14.6-31.5-21.5-52.1C29.9,293,24,270.8,18.8,247.1c-4.5-20.7-8-40.4-10.4-59   c-2.5-18.6-3.7-35.6-3.7-50.9c0-3.4,0.7-6.8,2.2-10.1c1.5-3.3,3.5-6.2,5.9-8.7c2.4-2.4,5.3-4.4,8.5-5.9c3.2-1.5,6.6-2.2,10.2-2.2   l17.6,1.3c6,0,11.6,1.1,17,3.4s10,5.3,14.1,9.3s7.3,8.6,9.6,13.9C92.3,143.5,93.7,149.1,94.1,155.1L94.1,155.1L94.1,155.1z    M87.7,78.5c0,3.8-1.4,7.2-4.3,9.9c-2.9,2.8-6.6,4.2-11,4.2c-0.4,0-1.9-0.2-4.5-0.6c-2.6-0.4-5.9-1-9.9-1.6   c-4.1-0.6-8.6-1.3-13.6-2.1c-5-0.8-10.1-1.4-15.2-2.1c-3.2,0-6.1-1.6-8.8-4.7c-2.7-3.1-4-6.2-4-9.4c0-11.1,1.4-20.8,4.2-29   c2.8-8.2,6.6-15,11.4-20.4c4.8-5.3,10.6-9.3,17.3-11.9c6.7-2.6,14-3.8,22-3.8c5.1,0,9.2,1.4,12.2,4.3c3,2.9,4.5,6.6,4.5,11   L87.7,78.5L87.7,78.5z M114.6,327.5c-1.9-4.5-4.4-10.1-7.4-16.8s-6.2-14.1-9.6-22.3c-3.4-8.1-6.8-16.9-10.2-26.3   c-3.4-9.4-6.4-19.1-9-29.2c-3.6-13.5-6.7-26.3-9.3-38.6c-2.6-12.3-4.5-24.5-5.8-36.7c0-1.3-0.1-2.7-0.2-4.3   c-0.1-1.6-0.4-3.1-0.8-4.6c-0.4-1.5-1.2-2.7-2.2-3.7c-1.1-1-2.6-1.4-4.5-1.4H43.2c-1.9,0-3.7,0.8-5.3,2.4c-1.6,1.6-2.4,3.4-2.4,5.3   c0,12,1.2,24.6,3.5,38s5.1,27.8,8.3,43.4l1.6,8c4.5,22.4,9.9,42.7,16.3,60.9c6.4,18.2,13,33.6,19.9,46.5h23.1   c1.9,0,3.5-0.8,4.6-2.4s1.8-3.4,1.8-5.3L114.6,327.5L114.6,327.5z M234.5,333.9c-0.9,0-1.3-0.4-1.3-1.3c0-1.7,0.4-3,1.3-3.8   l24.4-57.4c0.6-0.6,1.1-1,1.3-1.1c0.2-0.1,0.6-0.2,1.3-0.2l1.3,1.3l25.6,57.4c0,0.9,0.2,1.5,0.6,1.9c0.2,0.4,0.4,0.6,0.6,0.6   c0,1.1-0.2,1.8-0.6,2.2c-0.2,0.2-0.4,0.3-0.6,0.3h-14.1l-9,42c7-1.3,14-2.2,20.8-2.9c6.8-0.6,14.7-1,23.7-1l9-38.1h-9   c-1.7,0-2.6-1.1-2.6-3.2v-1.9l25.6-57.4c0.6-0.6,1.1-1,1.3-1.1c0.2-0.1,0.6-0.2,1.3-0.2l1.3,1.3l24.3,57.4c0.6,0.6,1,1.1,1.1,1.3   c0.1,0.2,0.2,0.6,0.2,1.3c0,1.7-0.8,2.6-2.6,2.6h-11.5l-9,38.1c3.2-0.6,6.2-1,9.1-1.1c2.9-0.1,6.2-0.2,10.1-0.2s8.1,0.1,12.7,0.2   c4.6,0.1,9.7,0.4,15.2,0.8c4.7,0.4,9.1,1.7,13.3,3.7c4.2,2,7.7,4.6,10.6,7.7c2.9,3.1,5.2,6.7,6.9,10.7c1.7,4.1,2.6,8.3,2.6,12.8   l-10.2,59.9c-0.4,3.8-1.6,7.4-3.5,10.7c-1.9,3.3-4.4,6.1-7.4,8.5c-3,2.4-6.4,4.2-10.2,5.6c-3.8,1.4-7.8,2.1-11.9,2.1h-30.8   l-6.4,17.9v5.1c0,0.6,0,1.3,0.2,2.1c0.1,0.7,0.5,1.8,1.1,3l14.1,24L329,559.8l-16.7-28.2c-1.1-1.9-1.8-4.1-2.1-6.4   c-0.3-2.3-0.5-4.8-0.5-7.4c0-1.9,0-3.8,0.2-5.6c0.1-1.8,0.5-3.4,1.1-4.6l5.1-14.1h-43.2l-6.4,17.9c-0.9,0.8-1.3,2.6-1.3,5.1   l1.3,5.1l15.4,24L255,559.8l-15.4-28.2c-1.3-1.9-2.5-4.1-3.5-6.4c-1.1-2.3-1.6-4.8-1.6-7.4c0-1.9,0.3-3.8,0.8-5.6   c0.5-1.8,1.1-3.4,1.8-4.6l5.1-12.8h-43.3l-6.4,16.7v3.8c0,0.6,0,1.7,0.2,3.2c0.1,1.5,0.5,2.6,1.1,3.2l14.1,24l-25.6,14.1   l-16.7-28.2c-1.1-1.9-2-4.1-2.7-6.4s-1.1-4.8-1.1-7.4c0-1.9,0.2-3.8,0.6-5.6c0.4-1.8,0.6-3.4,0.6-4.6l6.4-12.8h-29.5   c-6.8,0-12.9-1.9-18.3-5.6c-5.3-3.7-9.4-8.7-12.2-14.9l-24.4-54.8c-0.2,0-0.4-0.2-0.6-0.6c-0.4-0.4-0.6-1.1-0.6-1.9   c0-2.6,0.9-4.7,2.6-6.4s3.9-2.6,6.4-2.6c14.1,0,27-0.6,38.6-1.8c11.6-1.2,22.6-2.7,32.8-4.6H163c-1.3-2.6-2.2-5-2.9-7.2   c-0.6-2.2-1-5-1-8.2c0-1.3,0-2.5,0.2-3.7c0.1-1.2,0.5-2.1,1.1-2.7l11.5-45.8h-11.5c-0.2,0-0.4-0.2-0.6-0.6   c-0.4-0.4-0.6-1.1-0.6-1.9c-0.2,0-0.2-0.2,0-0.6c0-0.4,0.4-1.1,1.3-1.9l25.6-57.4c0-0.9,0.9-1.3,2.6-1.3c-0.2,0.2-0.2,0.4,0,0.6   c0,0.4,0.4,0.6,1.3,0.6l24,57.4c0.4,0.4,0.6,0.8,0.6,1.1s0.1,0.6,0.3,0.8c0,0.4,0.1,0.6,0.3,0.6c0,1.3-0.3,2-0.8,2.2   c-0.5,0.2-1.1,0.3-1.8,0.3h-11.2L191.2,381c-0.9,0-1.3,0.9-1.3,2.6c0,1.1,0.2,2.2,0.6,3.5c0.2,0.6,0.4,1.2,0.6,1.6l3.8,6.4   l38.1-11.5l12.8-49.7L234.5,333.9L234.5,333.9L234.5,333.9L234.5,333.9z M182.2,431c-4.1,1.1-9,2-14.7,2.9   c-5.8,0.9-11.4,1.7-16.8,2.6c-5.5,0.9-10.1,1.9-13.9,3.2s-5.8,3-5.8,5.1c0,1.7,0.4,3,1.3,3.8l3.8,12.8c1.7,1.7,3,2.6,3.8,2.6h41   l7.7-20.5c0-1.5-0.9-3.1-2.6-4.8L182.2,431L182.2,431L182.2,431z M243.4,413.1c-5.1,1.9-10.8,4-17.1,6.1   c-6.3,2.1-11.6,3.5-15.9,4.2l2.2,5.1c2.6,3.8,3.8,8.5,3.8,14.1c0,1.7-0.3,3.5-0.8,5.5c-0.5,1.9-1.1,3.8-1.8,5.8l-3.5,10.2h43.3   l6.4-16.7v-3.8c0-0.4-0.1-1.2-0.2-2.2c-0.1-1.1-0.5-1.9-1.1-2.6L243.4,413.1L243.4,413.1L243.4,413.1z M284.4,462.7h43.3l6.4-15.4   v-3.9c0-0.4-0.1-1.2-0.2-2.2c-0.1-1.1-0.5-1.9-1.1-2.6l-20.5-37.2h-2.6c-6.4,0-12.4,0.5-18.1,1.4c-5.7,1-11,1.8-16.2,2.4h-2.6   l14.1,23.1c1.1,1.7,2,3.5,2.7,5.5c0.7,1.9,1.1,4.1,1.1,6.4c0,4.7-0.9,9.2-2.6,13.5l-3.8,10.2L284.4,462.7L284.4,462.7L284.4,462.7z    M359.7,428.5c1.5,2.1,2.5,4.5,3,7c0.5,2.6,0.8,5.2,0.8,8c0,1.7-0.3,3.4-0.8,5.1c-0.5,1.7-1.1,3.4-1.8,5.1l-2.6,9h17.9   c0.6,0,1.4-0.1,2.2-0.3c0.8-0.2,1.3-1,1.3-2.2l9-54.8c0-0.9-0.9-1.3-2.6-1.3l-2.6-1.3c-8.1-0.6-15.2-1-21.3-1.1   c-6.1-0.1-11.7-0.2-16.8-0.2L359.7,428.5L359.7,428.5L359.7,428.5z"></path>
</g>
</svg>