<?xml version='1.0' encoding='utf-8'?>
<!-- Generator: Adobe Illustrator 27.2.0, SVG Export Plug-In . SVG Version: 6.00 Build 0)  --><svg xmlns="http://www.w3.org/2000/svg" xmlns:xlink="http://www.w3.org/1999/xlink" version="1.1" id="Vrstva_1" x="0px" y="0px" viewBox="0 0 559.4 566.9" style="enable-background:new 0 0 559.4 566.9;" xml:space="preserve" width="394.70807" height="400.0">
<style type="text/css">
	.st0{fill-rule:evenodd;clip-rule:evenodd;}
</style>
<g>
	<path class="st0" d="M373.6,558.5h149.1v-38.8H554v-29.8h-31.3v-64c0,0-1.5-1.5-6-4.5c-10.5-9-35.8-25.4-70-25.4   c-44.8,0-74.5,29.9-74.5,29.9v64h-31.3v29.8h31.3v38.8H373.6L373.6,558.5z M404.8,466.1c11.9-6,26.9-10.5,44.8-10.5   s32.8,4.5,44.8,10.5v64h-89.4v-64L404.8,466.1L404.8,466.1z"></path>
	<g>
		<path d="M313.9,297.6h26.9c0,35.8-14.9,71.5-40.3,96.9s-61,40.3-96.9,40.3v-26.9c29.9,0,56.6-11.9,77.5-32.8    C301.9,354.3,313.9,326,313.9,297.6L313.9,297.6z"></path>
		<path d="M217,379.6v-26.9c10.5,0,20.9-4.5,29.9-11.9c7.5-7.5,11.9-17.9,11.9-29.9h26.9c0,17.9-7.5,35.8-20.9,49.2    C252.8,372.1,236.4,379.6,217,379.6L217,379.6z"></path>
	</g>
	<path class="st0" d="M36.7,38.2c0,0,26.9-26.9,67-29.9h9c44.8,0,74.5,29.9,74.5,29.9v64h31.3v29.9h-32.8v161   c0,0-29.9,29.9-74.5,29.9s-74.5-29.9-74.5-29.9V132.3H5.4v-29.8h31.3L36.7,38.2L36.7,38.2z M111.2,68.1c-17.9,0-32.8,4.5-44.8,10.4   v64h89.4v-64C144,72.6,129.1,68.1,111.2,68.1L111.2,68.1z M66.4,233.6v44.8c1.5,1.5,3,3,6,3c10.4,6,23.9,11.9,38.8,11.9   c16.4,0,29.9-6,38.8-10.5c1.5-1.5,4.5-3,6-3v-44.8H66.4L66.4,233.6L66.4,233.6z"></path>
</g>
</svg>