<?xml version='1.0' encoding='utf-8'?>
<!-- Generator: Adobe Illustrator 27.2.0, SVG Export Plug-In . SVG Version: 6.00 Build 0)  --><svg xmlns="http://www.w3.org/2000/svg" xmlns:xlink="http://www.w3.org/1999/xlink" version="1.1" id="Vrstva_1" x="0px" y="0px" viewBox="0 0 563.4 566.9" style="enable-background:new 0 0 563.4 566.9;" xml:space="preserve" width="397.53043" height="400.0">
<style type="text/css">
	.st0{fill-rule:evenodd;clip-rule:evenodd;}
</style>
<g>
	<path class="st0" d="M457.6,409.2H558V8H156.7v100.3h301L457.6,409.2L457.6,409.2z M5.4,159.2v315.9l50.9-50.9l62.9-62.9l37.4,37.4   L282.4,273l74.9,74.9l49.4,49.4V159.2L5.4,159.2L5.4,159.2z M131.2,314.9c-18,0-29.9-15-29.9-30c0-18,12-30,29.9-30s30,12,30,30   S149.2,314.9,131.2,314.9z M406.7,469.1V559H5.4v-15l50.9-50.9l62.9-62.9l37.4,37.4l125.8-125.8l74.9,74.9L406.7,469.1z"></path>
</g>
</svg>