<?xml version='1.0' encoding='utf-8'?>
<!-- Generator: Adobe Illustrator 27.2.0, SVG Export Plug-In . SVG Version: 6.00 Build 0)  --><svg xmlns="http://www.w3.org/2000/svg" xmlns:xlink="http://www.w3.org/1999/xlink" version="1.1" id="Vrstva_1" x="0px" y="0px" viewBox="0 0 537.4 566.9" style="enable-background:new 0 0 537.4 566.9;" xml:space="preserve" width="379.18506" height="400.0">
<g>
	<path d="M423.4,229c0.8-0.8,2.2-2.8,2.6-3.9c0.5-1.1,0.8-3.5,0.8-4.7c0-0.6-0.2-1.9-0.4-2.5c-0.4-1.4-2-5.6-2-5.6s-1.7,1.6-2.2,2.1   c-1.2,1.1-3.6,3.3-4.8,4.4c-2.7,2.5-8.2,7.5-10.9,10c-7.4,6.9-22.2,20.6-29.6,27.5c-11.7,10.8-34.9,32.6-46.7,43.4   c-0.2,0.2-0.8,0.7-0.8,0.7l-2-2l-2.8-2.8l-1.6-1.6l2.2-2.2c1.2-1.2,3.6-3.4,4.8-4.6c2.7-2.6,8.1-7.8,10.9-10.4   c7.4-7.1,22.4-21.3,29.8-28.4c11.8-11.2,35.2-33.5,47-44.7c0.2-0.2,0.8-0.8,0.8-0.8s-7.2-2-9.7-1.8c-2,0.2-5.8,1.9-7.5,3   c-0.6,0.4-1.6,1.5-2.2,2c-1.1,1-3.3,3.1-4.5,4.1c-2.5,2.4-7.5,7.1-10,9.5c-6.8,6.5-20.6,19.3-27.5,25.8   c-10.8,10.2-32.6,30.4-43.2,40.8c-0.2,0.2-0.8,0.7-0.8,0.7l-2.1-2.4l-4.9-5.6l-1-1.2c0,0,1.6-1.5,2.1-2c1.1-1,3.4-3,4.6-4   c2.6-2.3,7.7-7,10.2-9.3c7-6.3,21-19,28-25.3c11-10,32.7-30.4,44.1-39.9c0.2-0.2,0.6-0.5,0.8-0.7c2.3-1.5,7.1-4.4,9.8-5.1   c2.1-0.6,6.5-0.7,8.7-0.6c3.4,0.2,10.5,0.9,13.5,2.5c2.4,1.3,6.3,5.3,7.6,7.6c1.5,2.9,2.4,9.6,2.4,12.8c0.1,2.9-0.8,8.6-1.7,11.4   c-0.8,2.6-3,7.8-4.6,9.9c-0.4,0.6-1.6,1.5-2.1,2c-1.1,1-3.3,3.1-4.4,4.1c-2.5,2.3-7.6,7-10.2,9.3c-6.8,6.3-20.5,19-27.3,25.3   c-10.8,10-43.2,39.8-43.2,39.8l-0.9,0.7l-2-2.5l-2.7-3.4l-1.6-2.1c0,0,1.5-1.4,2-1.9c1.1-1,3.3-3,4.4-4c2.5-2.3,7.5-6.8,10-9.1   c6.8-6.2,20.3-18.5,27.1-24.7c10.7-9.8,31.3-30.1,42.6-39.1C422.8,229.4,423.3,229.2,423.4,229L423.4,229L423.4,229z"></path>
	<path d="M297.1,359.5l-2.2-3.4l-1.4-2.1c0,0-8.8,6.6-11.8,8.6c-3.6,2.3-10.9,6.8-14.8,8.7c-3.9,2-16,6.8-16,6.8s1.8-1.9,2.4-2.5   c0.9-1,2.8-2.9,3.7-3.9c2.6-2.6,7.7-8,10.2-10.6c3.5-3.6,10.5-10.8,14-14.5c0.6-0.6,2.4-2.5,2.4-2.5l-1.3-1.5l-3.1-3.5l-0.7-0.7   c0,0-2.1,1.5-2.8,2.1c-1.1,0.8-3.1,2.6-4.2,3.4c-2.9,2.3-8.6,6.9-11.5,9.1c-3.9,3.1-11.8,9.4-15.7,12.5c-0.7,0.5-2.7,2.1-2.7,2.1   s4.8-10.9,6.9-14.3c1.4-2.3,4.7-6.6,6.4-8.8c3.4-4.1,14.3-15.6,14.3-15.6l-1.4-1.5c0,0-2.4-2.7-3.2-3.6c-0.2-0.2-0.7-0.7-0.7-0.7   s-9.3,5.9-12,8.4c-2.9,2.7-7.7,8.9-10,12.1c-2.5,3.6-6.8,11.3-8.6,15.2c-1.6,3.7-3.5,11.4-4.9,15.2c-0.6,1.7-1.9,5.1-2.8,6.7   c-1.2,2.3-4,6.7-5.9,8.5c-1.8,1.7-6.1,4.3-8.4,5.2c-2.9,1.1-9.1,1.6-12.2,1.9c-0.4,0-1.8,0-1.8,0h-1.8c0,0,2.4-14,3.9-18.5   c1.6-4.7,5.8-13.8,8.5-18.1c1.9-3,6.7-8.4,9-11.2c3.1-3.9,9.6-11.4,12.1-15.7c2.6-4.6,6.5-14.6,7.8-19.7c0.9-3.7,1.7-15.2,1.7-15.2   s-1.3,1.3-1.8,1.8c-0.7,0.7-2.2,2.1-3,2.9c-1,1-4.1,3.9-4.1,3.9l-0.6,0.7l0.6-3.2c0,0,0.8-4.1,1-5.4c0.3-1.8,1.3-7.4,1.3-7.4   l0.3-1.3l-2-2l-3.9-4.2l-9.1-9.6L192.9,248l-38.8-41.3l-0.7-0.7c0,0-1.1,1.9-1.5,2.5c-0.6,1-1.9,3.1-2.5,4.1   c-0.9,1.4-2.5,4.3-3.4,5.7c-0.2,0.2-0.6,0.9-0.6,0.9s-0.9-7.5-1.5-9.9c-0.7-2.6-2.7-7.8-3.8-10.2c-1.1-2.4-3.2-7.3-5-9.1   c-0.2-0.2-0.9-0.5-1.2-0.7c-0.5-0.2-1.4-0.6-1.9-0.8c-1-0.5-3.1-1.4-4.2-1.9c-0.6-0.3-2.5-1.2-2.5-1.2s3.8,10.7,4.7,14.4   c0.4,1.9,1.1,5.6,1.1,7.5c0,2.6-0.8,7.9-1.2,10.5c-1.1,7.2-4.6,21.4-5.7,28.6c-0.8,5.3-2.4,15.9-2.3,21.3c0,2.6,0.8,7.7,1.5,10.2   c0.6,2.4,3.6,9.3,3.6,9.3s-5.9-1.9-7.7-2.9c-3.9-2.2-11.1-7.7-14.2-10.9c-1.5-1.5-5-6.9-5-6.9v2.2c0,0.6,0,1.7,0,2.3   c0.3,3.8,1.2,11.5,2.1,15.2c1,4.2,3.8,12.3,5.7,16.2c1.7,3.5,5.9,9.9,8.3,12.9c0.5,0.7,1.8,1.8,2.4,2.4c1,0.9,2.9,2.7,3.9,3.6   c2.6,2.5,7.7,7.5,10.3,10c3.6,3.5,10.6,10.4,14.2,13.8c0.6,0.6,2.5,2.3,2.5,2.3s-0.4,0.4-0.6,0.5c-0.2,0.2-0.6,0.7-0.6,0.7   s-2.1-1.2-2.8-1.6c-1-0.6-3.1-1.9-4.2-2.5c-4.7-2.8-14-8.6-18.7-11.3c-0.3-0.2-1.4-0.7-1.4-0.7s4.5,12.6,7.1,16.2   c2.5,3.4,8.9,8.8,12.5,11c3.8,2.3,12.5,4.8,16.6,6.3c3.8,1.4,11.9,3.3,15.4,5.3c3.2,1.9,9,6.8,11.3,9.8c1.2,1.5,2.8,5.1,3.4,7   c0.7,2,1.6,8.4,1.6,8.4s-10.3,5-13.3,7.4c-1.2,0.9-3.3,3.1-4.2,4.4c-1.3,1.9-3.2,6.2-3.8,8.5c-0.8,2.8-1.5,8.6-1.2,11.5   c0.3,3.4,1.9,10.2,3.6,13.1c1.7,3,6.7,8,9.6,9.9c1.5,1.1,5,2.4,6.7,2.9c1.9,0.5,5.9,1.2,7.8,1c2.8-0.3,8.4-1.9,10.8-3.4   c1.5-1,3.8-4.1,4.7-5.7c2.4-3.8,5.7-12.3,7.6-16.4c1.5-3.2,4.3-9.8,6.1-12.8c2.6-4.2,8.7-12.3,12.5-15.6c4-3.6,13.7-9,18.4-11.6   c5.4-3,16.8-7.6,22.1-10.6c2.6-1.5,7.7-4.5,10-6.3c3.2-2.4,12.2-10.8,12.2-10.8L297.1,359.5L297.1,359.5L297.1,359.5z M188.1,373.4   c-0.1,0.2-0.3,0.7-0.3,0.7s-1.6-1.6-2.1-2.1c-0.8-0.9-2.5-2.6-3.4-3.4c-2.3-2.3-6.8-6.8-9.1-9.1c-3.1-3.1-9.4-9.4-12.5-12.5   c-0.5-0.6-1.7-1.6-2.1-2.2c-3.3-3.8-9.2-11.8-12-16c-1.5-2.2-4.2-6.7-5.3-9c-1.6-3.3-5.2-13.6-5.2-13.6s1.8,1.1,2.4,1.4   c0.9,0.5,2.7,1.6,3.6,2.1c2.5,1.5,7.4,4.3,9.9,5.8c3.3,2,10,5.9,13.4,7.8c0.6,0.4,2.4,1.4,2.4,1.4v-5.1c0-0.5,0-1.4,0-1.8   c-0.2-3.2-1-9.5-1.7-12.5c-0.5-2-1.8-6-2.5-8c-1.5-4-5-11.7-6.8-15.6c-1.7-3.7-5.2-10.9-6.8-14.6c-0.7-1.7-2-5.1-2.5-6.9   c-0.6-2.4-1.6-7.4-1.6-9.9c0-2.9,1.1-8.8,2-11.6c0.9-3,3.5-8.8,5.1-11.4c1.5-2.5,7.2-9.3,7.2-9.3v6.9c0,0.6,0.1,1.7,0,2.3   c-0.2,1.9-1.5,5.6-1.7,7.6c0,0.8,0.1,2.3,0.3,3.1c0.4,2.3,1.5,6.8,2.2,9c1.1,3.5,5.5,13.9,5.5,13.9l17.3-18.4c0,0-1.7,5.5-1.8,7.4   c0,0.5,0.2,1.6,0.4,2.1c0.4,1.1,1.4,3.2,1.9,4.3c0.3,0.7,1,2,1.3,2.6c0.5,1,1.4,2.9,1.9,3.8c2.1,4.3,6.3,12.8,8.4,17.1   c0.1,0.3,0.4,0.9,0.6,1.2c1,2.3,3.4,6.8,4.1,9.2c0.3,1,0.6,3.1,0.6,4.1c-0.1,2.4-1.4,7.1-2.1,9.5c-0.6,2-3.1,7.8-3.1,7.8   s10.2-6.3,13-9.1c2.9-2.9,9.5-13.4,9.5-13.4v4.6c0,0.4,0,1.2,0,1.7c-0.2,3.2-1.1,9.7-2,12.9c-0.9,3.2-3.6,9.4-4.9,12.5   c-0.3,0.8-1.1,2.2-1.4,3c-0.5,1.1-1.5,3.5-2,4.6c-1.5,3.4-4.5,10-6,13.4C198.7,349.6,191.7,365.5,188.1,373.4L188.1,373.4   L188.1,373.4z"></path>
	<path d="M204.1,147.2c0-0.2-0.4-0.4-0.5-0.6c-0.1-0.1-0.4-0.5-0.6-0.5c-0.8,0-1.8,1.4-2.3,1.9c-0.9,0.8-2.8,2.4-3.7,3.3   c-1.3,1.1-4,3.2-5.2,4.4c-0.2,0.2-0.8,0.9-0.8,0.9l-1.6-2.2l-2.5-3.5l-3.5-4.9l-0.6-0.8c0,0,1.5-1.3,2-1.8c0.5-0.4,1.5-1.3,2-1.7   c1.2-0.9,3.8-2.6,5.1-3.2c2.9-1.4,9.2-3.2,12.2-4.3c3.3-1.2,9.9-3.5,13-5.1c2.5-1.3,7.4-4.3,9.6-6c1.9-1.5,5.4-4.8,7-6.7   c1.4-1.7,3.3-5.9,4.9-7.4c0.4-0.3,1.3-0.7,1.7-1c0.5-0.3,1.6-0.9,2.1-1.2c0.3-0.2,1.3-0.8,1.3-0.8s-1.9,12.4-3.1,16.4   c-0.6,2-2,6.1-3.2,7.8c-2,2.8-7.8,6.5-10.1,8.9c-1.5,1.6-4.2,5-5.4,6.8c-2.4,3.5-8.7,14.8-8.7,14.8l0.6,0.6l0.5,0.6   c0,0,1.7-1.6,2.2-2.1c1-1,3.1-2.9,4.1-3.9c2.4-2.3,7.3-7,9.7-9.4c0.5-0.5,1.9-1.9,1.9-1.9s-0.6,1.9-0.8,2.5   c-0.3,0.9-0.9,2.9-1.2,3.8c-1.4,4.2-4.4,12.5-5.7,16.8c-0.1,0.3-0.3,0.9-0.4,1.2c-0.6,2.2-2,6.7-2.4,9c-0.1,0.7-0.4,2.2-0.4,3   c0,0.7,0.3,2.1,0.6,2.7c0.1,0.2,0.5,0.7,0.7,0.8c0.3,0.2,1.1,0.5,1.5,0.5c0.4,0,1.1-0.1,1.4-0.3c0.7-0.3,2-1.4,2.6-2   c0.7-0.7,1.7-2.2,2.2-3c0.9-1.4,2.2-4.4,3-5.8c1.8-2.8,5.6-8.2,8.1-10.4c1.5-1.3,5.1-3,6.8-4c0.4-0.2,1-0.6,1.4-0.8   c0.5-0.3,1.5-0.9,2-1.2c1.4-0.9,4.1-2.6,5.5-3.5c1.9-1.2,5.7-3.5,7.6-4.6c0.3-0.2,1-0.6,1.3-0.8c0.9-0.5,2.7-1.6,3.7-1.9   c0.4-0.1,1.1-0.4,1.5-0.4c0.3,0,1.2,0.3,1.2,0.3s0.2,0.2,0.3,0.3c0.1,0.1,0.2,0.4,0.2,0.6v0.2c0,0.1-0.1,0.4-0.2,0.5   c-0.3,0.5-1,1.5-1.4,2c-2.2,2.9-7,8.3-9,11.2c-1.9,2.6-5.3,8.1-6.7,11c-0.8,1.5-2,4.8-2.4,6.4c-0.7,2.5-1.6,7.7-1.6,10.3   c0,2.9,1.6,8.5,2,11.3c0.7,5.1,1.8,15.2,2,20.4c0,0.5,0,1.5,0,2v2l-12.2-11.2c0,0-2.7-4.3-3.3-5.9c-1-3-1.6-9.3-1.9-12.4   c0-0.6,0-2,0-2.6v-2.5c0,0-2.9,1.2-3.6,1.9c-0.6,0.6-1.6,2.3-1.8,3.2c-0.2,1,0.6,3.1,0.3,4.1c-0.1,0.2-0.5,0.5-0.6,0.7   c-0.1,0.1-0.6,0.5-0.6,0.5l-2.6-2.7l-4-4.1l-11-11.1l-14.9-15.2l-2.6-2.7c0,0,0.3-1,0.5-1.3c0.2-0.5,0.6-1.5,0.9-2   c0.5-1.4,1.6-4,2.1-5.4c0.7-1.8,2.1-5.5,2.9-7.3C203.6,148.2,204.1,147.5,204.1,147.2L204.1,147.2L204.1,147.2z"></path>
</g>
<path d="M528.5,240.8c-1.7-10.3-6.7-30.7-10-40.6c-3.2-9.7-11.3-28.7-16-37.8c-4.7-9-15.4-26.3-21.4-34.5  c-6-8.2-19.2-23.5-26.3-30.7s-22.5-20.4-30.7-26.3c-8.2-6-25.5-16.7-34.5-21.4c-9.1-4.7-28-12.8-37.8-16c-9.9-3.3-30.3-8.3-40.6-10  c-10.6-1.7-32-3.5-42.7-3.5s-32.2,1.7-42.8,3.5c-10.3,1.7-30.6,6.7-40.6,10c-9.7,3.2-28.7,11.3-37.8,16c-9,4.7-26.3,15.4-34.5,21.4  c-8.2,6-23.5,19.2-30.7,26.3c-7.1,7.2-20.4,22.5-26.3,30.7c-6,8.2-16.8,25.5-21.5,34.5c-4.7,9.1-12.7,28.1-15.9,37.8  c-3.3,9.9-8.4,30.3-10,40.6c-1.7,10.6-3.4,32-3.4,42.7s1.7,32.1,3.4,42.7c1.7,10.3,6.8,30.7,10,40.6c3.2,9.7,11.2,28.7,15.9,37.9  c4.7,9,15.5,26.3,21.5,34.5c6,8.1,19.2,23.5,26.3,30.7c7.1,7.2,22.5,20.4,30.7,26.3c8.2,6,25.5,16.7,34.5,21.4  c9.1,4.7,28,12.8,37.8,16c9.9,3.3,30.2,8.3,40.6,10c10.6,1.7,32.1,3.4,42.8,3.4s32.1-1.7,42.7-3.4c10.3-1.7,30.7-6.7,40.6-10  c9.7-3.2,28.7-11.3,37.8-16c9-4.7,26.3-15.4,34.5-21.4c8.2-6,23.5-19.2,30.7-26.3c7.2-7.1,20.4-22.5,26.3-30.7  c6-8.2,16.7-25.5,21.4-34.5c4.7-9.1,12.8-28.1,16-37.9c3.3-9.9,8.3-30.3,10-40.6c1.7-10.6,3.5-32,3.5-42.7S530.3,251.3,528.5,240.8  L528.5,240.8L528.5,240.8z M375.2,467.8c-7.9,4.6-24.4,12.4-33,15.5c-8.7,3.2-26.6,8.1-35.7,9.7c-9.4,1.7-28.4,3.4-37.9,3.4  s-28.9-1.8-38.3-3.5c-9.2-1.6-27.3-6.6-36-9.9c-8.6-3.2-25.3-11.2-33.2-15.8c-7.9-4.6-22.8-15-29.8-20.9c-7-5.8-19.8-18.8-25.7-25.7  c-5.9-7-16.3-21.9-20.9-29.8c-4.6-7.9-12.6-24.5-15.8-33.1c-3.3-8.8-8.2-26.8-9.9-36c-1.7-9.5-3.4-28.7-3.5-38.3  c0-9.5,1.7-28.6,3.4-38c1.6-9.1,6.5-27.1,9.8-35.8c3.1-8.5,11-25.1,15.5-32.9c4.5-7.8,20.7-29.6,20.7-29.6L404.8,447  C404.8,447,383.1,463.3,375.2,467.8L375.2,467.8L375.2,467.8z M478.3,320.8c-1.6,8.9-6.3,26.5-9.4,35.1c-3,8.4-10.6,24.8-15,32.5  c-4.4,7.7-20,29.2-20,29.2l-2.6-2.7l-147.1-147l-93.3-93.3l-34.2-34.3l-15-15l-4.5-4.6l-2.7-2.6c0,0,21.6-15.6,29.3-20  c7.8-4.4,24-11.9,32.5-15c8.6-3.1,26.2-7.8,35.2-9.4c9.2-1.6,28-3.3,37.3-3.2c9.6,0,28.8,1.7,38.2,3.4c9.2,1.7,27.3,6.6,36,9.9  c8.6,3.2,25.3,11.2,33.2,15.8c7.8,4.6,22.7,15.1,29.7,20.9c7,5.8,19.8,18.7,25.7,25.7c5.9,7,16.5,21.9,21.1,29.8  c4.6,7.9,12.5,24.5,15.7,33.1c3.3,8.8,8.3,26.9,10,36.1c1.7,9.4,3.4,28.6,3.5,38.2C481.6,292.8,479.9,311.5,478.3,320.8L478.3,320.8  L478.3,320.8z"></path>
</svg>