<?xml version='1.0' encoding='utf-8'?>
<!-- Generator: Adobe Illustrator 27.2.0, SVG Export Plug-In . SVG Version: 6.00 Build 0)  --><svg xmlns="http://www.w3.org/2000/svg" xmlns:xlink="http://www.w3.org/1999/xlink" version="1.1" id="Vrstva_1" x="0px" y="0px" viewBox="0 0 723.4 566.9" style="enable-background:new 0 0 723.4 566.9;" xml:space="preserve" width="510.4251" height="400.0">
<path d="M6.1,444.7V8.4h120.1c21.9,0,40.2,0.5,54.9,1.5c14.7,1,25.4,2.6,32.3,4.6c11,3.3,21.2,8.7,30.6,16.2s17.5,16.8,24.1,27.9  c6.6,11.1,11.9,23.7,15.7,38c3.8,14.3,5.7,29.7,5.7,46.2s-1.7,30.3-5.2,43.6c-3.4,13.2-8.1,25.1-14,35.7  c-5.9,10.6-12.8,19.7-20.6,27.3c-7.9,7.6-16.3,13.5-25.2,17.6c-18.4,8.4-50.1,12.6-95.2,12.6H80.7v165L6.1,444.7L6.1,444.7z   M80.7,82.5v123.8H122c13.5,0,24.6-0.4,33.3-1.1c8.7-0.8,15.9-2.1,21.8-4c5.9-1.9,10.7-4.6,14.5-8c3.8-3.4,7.6-7.7,11.5-12.8  c6.1-9.9,9.2-22,9.2-36.3c0-15.3-3.3-27.8-9.9-37.4s-14.7-16-24.1-19.1c-5.1-1.5-12.6-2.7-22.6-3.6c-9.9-0.9-22.8-1.3-38.6-1.3  L80.7,82.5L80.7,82.5z M507,558.5c-29.3,0-56.8-5.5-82.6-16.6c-25.8-11.1-48.2-26.2-67.3-45.3c-19.1-19.1-34.2-41.5-45.1-67.2  c-11-25.7-16.4-53.1-16.4-82.1s5.5-56.4,16.4-81.9c11-25.6,26-48,45.1-67.1s41.5-34.2,67.1-45.5c25.6-11.2,53.1-16.8,82.4-16.8  c29.3,0,56.4,5.6,82,16.8c25.6,11.2,48,26.4,67.1,45.5c19.1,19.1,34.2,41.4,45.1,67.1c11,25.6,16.4,52.9,16.4,81.9  s-5.5,56.4-16.4,82.1c-11,25.7-26,48.1-45.1,67.2c-19.1,19.1-41.4,34.2-66.9,45.3C563.3,553,536,558.5,507,558.5L507,558.5z   M386.5,337.3h-46.6c-2,0-3.9,0.1-5.5,0.2c-1.7,0.1-3.1,0.6-4.4,1.5c-1.3,0.9-2.3,2.3-3.1,4.2s-1.1,4.6-1.1,8.2  c0,14,1.7,27.5,5.2,40.3c3.4,12.9,8.1,25.3,14,37.2l0.4,1.5c3.6,7.4,7.8,11.1,12.6,11.1c1.8,0,3.7-0.6,5.7-1.9l37.9-33.2  c-4.9-8.6-8.5-17.8-11.1-27.3s-3.8-19.7-3.8-30.4L386.5,337.3L386.5,337.3L386.5,337.3L386.5,337.3z M507,165.8c-18.3,0-36,2.7-53,8  c-17,5.4-32.6,12.7-47,22.2s-27.2,20.6-38.4,33.6c-11.2,13-20.3,27.3-27.1,42.8c-0.8,1.5-1.1,3-1.1,4.6c0,2.3,1,4.3,3.1,5.9  c2,1.7,5.1,2.5,9.2,2.5h307.8c4.3,0,7.5-0.9,9.6-2.7c2-1.8,3.1-3.8,3.1-6.1c0-1.3-0.4-2.7-1.2-4.2c-7.4-15.5-16.7-29.8-27.9-42.8  c-11.2-13-24-24.2-38.2-33.6c-14.3-9.4-29.8-16.8-46.5-22.2C542.5,168.5,525.1,165.8,507,165.8L507,165.8L507,165.8z M506.6,529.1  c19.6,0,38.2-2.9,55.6-8.8s33.8-14.3,49.1-25.2c1.3-1.3,2.5-2.5,3.6-3.6s1.7-2.6,1.7-4.4c0-2-0.8-4.3-2.5-6.7  c-1.7-2.4-4.4-5.4-8.2-9l-29.4-26c-9.7,7.4-20.5,13-32.3,17c-11.8,4-24.4,5.9-37.7,5.9c-13.2,0-26.2-2-38-5.9  c-11.8-4-22.6-9.6-32.3-17l-29.4,26c-3.8,3.6-6.4,6.6-7.8,9.2c-1.4,2.5-2.2,4.7-2.5,6.5c0,2,0.5,3.6,1.5,4.6s2.3,2.2,3.8,3.4  c15,11,31.3,19.4,48.8,25.2C468,526.2,486.7,529.1,506.6,529.1L506.6,529.1z M506.6,432.4c8.4,0,16.3-1.6,23.5-5  c7.3-3.3,13.6-7.8,18.9-13.4s9.6-12.2,12.8-19.7c3.2-7.5,4.8-15.6,4.8-24.3s-1.6-16.3-4.8-23.7c-3.2-7.4-7.5-13.9-12.8-19.7  c-5.3-5.7-11.7-10.2-18.9-13.6s-15.1-5-23.5-5c-8.4,0-16.3,1.7-23.5,5c-7.3,3.3-13.6,7.8-19.1,13.6s-9.8,12.3-12.8,19.7  s-4.6,15.3-4.6,23.7s1.5,16.8,4.6,24.3s7.3,14.1,12.8,19.7c5.5,5.6,11.8,10.1,19.1,13.4S498.2,432.4,506.6,432.4z M626.3,337.3v11.5  c0,10.7-1.3,20.8-3.8,30.4c-2.5,9.5-6.2,18.7-11.1,27.3l38.2,33.2c1.8,1.3,3.6,1.9,5.4,1.9c4.6,0,8.8-3.7,12.6-11.1l0.4-1.5  c12-23.4,18.6-49.3,19.9-77.6c-0.5-7.1-2.2-11.3-5-12.4c-2.8-1.1-6.2-1.7-10.3-1.7H626.3L626.3,337.3L626.3,337.3z"></path>
</svg>