<?xml version='1.0' encoding='utf-8'?>
<!-- Generator: Adobe Illustrator 27.2.0, SVG Export Plug-In . SVG Version: 6.00 Build 0)  --><svg xmlns="http://www.w3.org/2000/svg" xmlns:xlink="http://www.w3.org/1999/xlink" version="1.1" id="Vrstva_1" x="0px" y="0px" viewBox="0 0 571.4 566.9" style="enable-background:new 0 0 571.4 566.9;" xml:space="preserve" width="403.17517" height="400.0">
<g>
	<path d="M484.4,93.1C431,39.7,360.5,10.5,285.8,10.5S139,39.7,87.1,93.1C33.4,146.6,4.5,216.9,4.5,291.9v16.8h65.8v-33.7H38.1   c3-55.1,24.4-105.4,61.1-146.8l23,23l23-23l-23-23c41.2-35.1,93.1-56.6,146.8-61.1v32.1h33.7V44.1c55.1,3,105.4,24.4,146.8,61.1   l-23.1,23l23,23l23-23c35.1,41.2,56.6,93.2,61.1,146.8h-32.1v33.7h65.8v-15.3C566.9,218.5,536.4,146.6,484.4,93.1L484.4,93.1z"></path>
	<path d="M334.6,293.4c0-27.5-23-50.4-50.4-50.4c-7.7,0-15.3,1.6-21.4,4.7l-71.9-71.9l-23,22.8l71.9,71.9c-3,6.1-4.7,13.8-4.7,21.4   c0,27.5,23,50.4,50.4,50.4S334.6,320.9,334.6,293.4L334.6,293.4z"></path>
	<polygon points="137.4,392.8 102.3,392.8 102.3,556.3 209.3,556.3 209.3,524.2 137.4,524.2  "></polygon>
	<rect x="226.2" y="392.8" width="35.1" height="163.6"></rect>
	<polygon points="377.4,508.9 317.9,392.8 288.8,392.8 288.8,556.3 322.3,556.3 322.3,472.3 363.5,556.3 386.5,556.3 429.4,470.6    429.4,556.3 463.1,556.3 463.1,392.8 432.4,392.8  "></polygon>
</g>
</svg>