<?xml version='1.0' encoding='utf-8'?>
<!-- Generator: Adobe Illustrator 27.2.0, SVG Export Plug-In . SVG Version: 6.00 Build 0)  --><svg xmlns="http://www.w3.org/2000/svg" xmlns:xlink="http://www.w3.org/1999/xlink" version="1.1" id="Vrstva_1" x="0px" y="0px" viewBox="0 0 547.4 566.9" style="enable-background:new 0 0 547.4 566.9;" xml:space="preserve" width="386.24097" height="400.0">
<g>
	<path d="M445.7,168.2c5.2,0.8,10,2.5,14.4,5.2c4.5,2.7,8.3,6,11.6,10c3.3,4,5.9,8.4,7.7,13.2c1.9,4.9,2.8,9.9,2.8,15   c0,3.6-0.3,6.6-0.9,9.2l-44.7,166.8c-2.6,11.5-7.1,22.1-13.5,31.9c-6.5,9.7-14.3,18.2-23.5,25.3c-9.2,7.1-19.6,12.8-31,16.8   c-11.4,4.1-23.4,6.1-35.9,6.1c-3.2,0-6.3-0.1-9.4-0.3c-3.1-0.2-6.1-0.6-9.1-1.2l-92.9-17.9c-4-1.4-8.5-2.1-13.7-2.1   c-3,0-6,0.2-8.9,0.8c-3,0.5-5.7,1.5-8,3.1l-74.5,44.7c-3.8,2.4-7.6,4.8-11.5,7.3c-3.9,2.5-7.8,4.7-11.8,6.7c-4,2-8.1,3.6-12.4,4.9   c-4.3,1.3-8.7,1.9-13.2,1.9c-11.9,0-22.8-2.5-32.6-7.4c-9.8-5-17.7-12.6-23.7-22.9c-1.6-2.8-3-5.9-4.2-9.2   c-1.2-3.4-1.8-6.6-1.8-9.8c0-4.2,1.2-7.9,3.6-11.3s5.6-6.1,9.5-8.3l78.3-48.2l70.3-41.7c7.3-4.6,14.7-8.4,22.2-11.5   s15.6-4.6,24.6-4.6h3.3c1.2,0,2.4,0.1,3.6,0.3l13.1,2.1l56.3,11.3c6.5,0,11.9-2.5,16.1-7.5l2.4-4.5l34-124.8   c2.4-7.9,6.1-15.2,11.3-21.7c5.2-6.6,11.1-12.2,17.7-16.8c6.7-4.7,13.9-8.3,21.7-10.9c7.8-2.6,15.8-3.9,24-3.9   c5,0,9.8,0.5,14.5,1.5C436.2,166.8,440.9,167.6,445.7,168.2L445.7,168.2L445.7,168.2z M441.8,203.3c-4.4-0.6-8.6-1.3-12.8-2.2   s-8.5-1.3-13.1-1.3s-8.6,0.7-12.8,2.2c-4.2,1.5-8,3.5-11.6,6c-3.6,2.5-6.8,5.5-9.5,8.9s-4.9,7.2-6.3,11.2l-33.4,123   c-4.6,12.5-11.2,22-19.8,28.4c-8.6,6.5-18.6,9.7-29.9,9.7h-4.5c-1.4,0-2.9-0.2-4.5-0.6l-68.2-13.1c-1.4-0.4-2.7-0.6-3.9-0.6h-3.3   c-6.4-0.2-12.1,1.1-17.3,4c-5.2,2.9-10.4,5.9-15.8,9.1L99,433L45.4,466c-2,1.8-3,3.7-3,5.7c0,4.6,2.2,8.2,6.6,10.9s9.1,4,14.3,4   c2.2,0,4.3-0.2,6.3-0.6c2-0.4,3.8-1.1,5.4-2.1L183,418.7c4.6-2.2,9.5-3.9,14.7-5.1c5.3-1.2,10.6-1.8,15.9-1.8c2.4,0,4.7,0.1,7,0.5   c2.3,0.3,4.5,0.6,6.7,1l92.6,17.9c2.4,0.4,4.7,0.8,7,1c2.3,0.3,4.6,0.5,7,0.5c7.1,0,14.2-1.1,21.1-3.3c7-2.2,13.4-5.3,19.2-9.4   s11.1-8.9,15.6-14.4c4.6-5.6,8-11.8,10.4-18.8l16.7-59.9l30.1-115c0-1.8-0.5-3.5-1.5-5.2S443.4,204,441.8,203.3L441.8,203.3   L441.8,203.3z M357.8,511.9c1.2,3,1.8,6.1,1.8,9.5c0,3.6-0.7,6.9-2.1,10c-1.4,3.1-3.2,5.8-5.5,8c-2.3,2.3-5,4.1-8,5.5   c-3.1,1.4-6.4,2.1-10,2.1c-3.4,0-6.6-0.7-9.7-2.1c-3.1-1.4-5.8-3.3-8-5.7c-2.3-2.4-4.1-5.1-5.5-8.2s-2.1-6.3-2.1-9.7   c0-6.8,2.4-12.7,7.3-17.7c4.9-5.1,11-7.6,18.3-7.6c5.2,0,9.8,1.4,14,4.3C352.5,503.3,355.6,507.1,357.8,511.9L357.8,511.9   L357.8,511.9z M494.2,54.7c4,7.9,6,16.6,6,25.9s-1.7,17.8-5.2,25.5c-3.5,7.7-8.1,14.2-13.8,19.5c-5.8,5.4-12.3,9.5-19.7,12.5   c-7.3,3-14.9,4.5-22.6,4.5s-15.3-1.5-22.6-4.6c-7.3-3.1-14-7.3-19.8-12.8c-5.9-5.5-10.5-12-14-19.5c-3.5-7.5-5.2-15.8-5.2-24.7   c0-7.5,1.5-15,4.6-22.3c3.1-7.3,7.3-13.9,12.7-19.7s11.8-10.4,19.4-13.9c7.5-3.5,15.8-5.2,24.7-5.2c5.6,0,11.2,0.9,16.8,2.5   c5.7,1.7,10.9,4,15.8,7c4.9,3,9.3,6.6,13.4,10.9S491.9,49.3,494.2,54.7L494.2,54.7L494.2,54.7z M435,490.1c3,4.6,4.5,9.6,4.5,15.2   c0,7.3-2.6,13.2-7.7,17.7c-5.2,4.5-11.1,6.7-17.9,6.7c-3.6,0-6.8-0.7-9.8-2.1c-3-1.4-5.6-3.3-7.9-5.7c-2.3-2.4-4.1-5.1-5.4-8.2   c-1.3-3.1-1.9-6.3-1.9-9.7c0-3.8,0.8-7.2,2.2-10.3c1.5-3.1,3.4-5.7,5.8-7.9c2.4-2.2,5.1-3.9,8.2-5.1c3.1-1.2,6.2-1.8,9.4-1.8   c3.4,0,7.1,1,11.2,2.8C429.6,483.8,432.8,486.6,435,490.1L435,490.1L435,490.1z M461.5,67.5c-2.8-4-6.2-7-10.1-9.2   c-4-2.2-8.2-3.3-12.8-3.3c-3.6,0-7,0.7-10.1,2.1s-6,3.3-8.3,5.7c-2.4,2.4-4.3,5.2-5.7,8.3c-1.4,3.2-2.1,6.6-2.1,10.1   c0,3.4,0.7,6.7,2.1,9.8s3.3,6,5.7,8.3c2.4,2.4,5.2,4.3,8.3,5.8c3.2,1.5,6.5,2.2,9.8,2.2c3.6,0,7-0.7,10.3-2.1   c3.3-1.4,6.1-3.3,8.5-5.8c2.4-2.5,4.3-5.4,5.8-8.6s2.2-6.8,2.2-10.6C465,75.4,463.8,71.1,461.5,67.5L461.5,67.5z M487.1,426.4   c2.2,3.8,3.3,7.9,3.3,12.5c0,3.8-0.7,7.2-2.2,10.3c-1.5,3.1-3.4,5.7-5.8,7.9c-2.4,2.2-5.1,3.9-8.2,5.1c-3.1,1.2-6.1,1.8-9.1,1.8   c-3.4,0-6.6-0.6-9.7-1.9c-3.1-1.3-5.8-3.1-8.2-5.4s-4.3-5-5.7-8.2c-1.4-3.2-2.1-6.6-2.1-10.4c0-3,0.6-6,1.9-8.9   c1.3-3,3.1-5.7,5.4-8c2.3-2.4,5-4.3,8.2-5.7c3.2-1.4,6.5-2.1,10.1-2.1c4.4,0,8.6,1.2,12.7,3.6C481.8,419.2,484.9,422.4,487.1,426.4   L487.1,426.4L487.1,426.4z M516.6,343.9c2,3.4,3,7.5,3,12.5c0,3.6-0.7,6.9-2.1,9.8c-1.4,3-3.2,5.6-5.4,7.8   c-2.2,2.2-4.7,3.9-7.6,5.2c-2.9,1.3-5.9,1.9-9.1,1.9s-6.4-0.5-9.5-1.6c-3.2-1.1-6-2.7-8.5-4.9c-2.5-2.2-4.5-4.9-6.1-8   c-1.6-3.2-2.4-6.8-2.4-10.7c0-3.6,0.7-6.9,2.1-10c1.4-3.1,3.3-5.8,5.7-8c2.4-2.3,5.1-4.1,8.2-5.4c3.1-1.3,6.2-1.9,9.4-1.9   c5,0,9.4,1.2,13.3,3.7C511.4,336.7,514.4,339.9,516.6,343.9L516.6,343.9L516.6,343.9z M540.4,260.2c1.2,3.4,1.8,6.6,1.8,9.8   c0,7.4-2.6,13.5-7.8,18.3c-5.2,4.9-11.1,7.3-17.9,7.3c-3.4,0-6.6-0.7-9.7-2.1c-3.1-1.4-5.8-3.3-8-5.7c-2.3-2.4-4.1-5.1-5.4-8   c-1.3-3-1.9-6-1.9-9.2s0.6-6.3,1.9-9.4c1.3-3.1,3-5.9,5.2-8.3c2.2-2.5,4.9-4.5,8-6c3.2-1.5,6.7-2.2,10.4-2.2c4.6,0,9,1.4,13.4,4.2   S538.2,255.5,540.4,260.2L540.4,260.2z"></path>
</g>
</svg>