<?xml version='1.0' encoding='utf-8'?>
<svg xmlns="http://www.w3.org/2000/svg" id="Vrstva_1" data-name="Vrstva 1" viewBox="0 0 536.69 566.93" width="378.66403" height="400.0">
  <defs>
    <style>
      .cls-1 {
        fill-rule: evenodd;
      }
    </style>
  </defs>
  <path class="cls-1" d="m131.24,95.08l-50.3,103.58h374.93l-50.39-103.57c-25.63-3.79-75.03-9.59-137.13-9.59s-111.48,5.8-137.11,9.59ZM4.29,160.94h53.03l48.56-100,9.64-1.58c22.63-3.72,79.18-11.58,152.82-11.58s130.21,7.87,152.83,11.58l9.63,1.58,48.65,100h52.94v37.72h-34.59l34.59,71.1-.04,192.82c0,31.25-25.33,56.58-56.58,56.58h-9.39c-31.25,0-56.58-25.33-56.58-56.58v-9.29H126.89v9.29c0,31.25-25.33,56.58-56.58,56.58h-9.26c-31.25,0-56.58-25.33-56.58-56.58v-192.81s34.54-71.1,34.54-71.1H4.29v-37.72Zm188.61,113.17h-113.17v37.72h56.58l37.72,37.72h188.61l37.72-37.72h56.58v-37.72h-113.17l-28.29,28.29h-94.31l-28.29-28.29Z"></path>
</svg>