<?xml version='1.0' encoding='utf-8'?>
<!-- Generator: Adobe Illustrator 27.2.0, SVG Export Plug-In . SVG Version: 6.00 Build 0)  --><svg xmlns="http://www.w3.org/2000/svg" xmlns:xlink="http://www.w3.org/1999/xlink" version="1.1" id="Vrstva_1" x="0px" y="0px" viewBox="0 0 586.4 566.9" style="enable-background:new 0 0 586.4 566.9;" xml:space="preserve" width="413.75906" height="400.0">
<style type="text/css">
	.st0{fill-rule:evenodd;clip-rule:evenodd;}
</style>
<g>
	<path class="st0" d="M580.9,296.1c0-76.9-29.8-150.5-84.8-204c-55-53.5-127-84.8-204-84.8s-150.4,30-203.9,84.8   c-54.8,54.8-84.7,127.1-84.7,204v15.7l61.3-1.6v-29.8h-30c3.1-57.9,26.6-113,64.4-157l20.4,20.4l22-22l-20.4-20.2   c43.9-39.2,98.8-61.3,157-64.4v29.8h29.8V37.3c57.9,3.1,113,26.6,157,64.4l-20.4,20.4l22,22l20.3-20.6   c39.2,43.9,61.3,98.8,64.4,157h-29.8v29.8l61.3,1.6C580.9,307,580.9,302.3,580.9,296.1L580.9,296.1z M337.8,296.1   c0,25.1-20.4,45.6-45.6,45.6s-45.6-20.4-45.6-45.6c0-6.2,1.6-14.2,4.7-20.4l-66-66l22-22l66,66c6.2-3.1,12.6-4.7,20.4-4.7   C317.4,250.5,337.8,271,337.8,296.1L337.8,296.1z"></path>
	<path class="st0" d="M155.7,373l12.6-31.3h-36.1l-7.8,20.4c-4.7-1.6-10.9-1.6-17.3-1.6c-50.1,0-91,40.9-91,91   c0,32.9,17.3,61.3,42.3,76.9l-12.6,31.3h36.2l7.8-20.4c4.7,1.6,10.9,1.6,17.3,1.6c50.1,0,91-40.8,91-91   C198.1,416.9,182.3,388.7,155.7,373L155.7,373z M113.3,388.7h-4.7c-32.9,0-59.7,26.6-59.7,59.7c0,18.8,9.4,36.1,23.5,47   L113.3,388.7z M102.4,509.5l42.3-106.7c14.2,10.9,23.5,28.2,23.5,47c0,32.9-26.6,59.7-59.7,59.7H102.4z"></path>
</g>
</svg>