<?xml version='1.0' encoding='utf-8'?>
<svg xmlns="http://www.w3.org/2000/svg" id="Vrstva_1" data-name="Vrstva 1" viewBox="0 0 521.57 400" width="521.57" height="400.0">
  <path d="m177.88,329.23c4.66,11.92,9.81,24.2,15.45,36.9H2.54v-36.9h175.34Zm-22.44-73.8c2.4,12.14,5.57,24.34,9.45,36.9H2.54v-36.9h152.9Zm-5.15-70.42c-.28,5.01-.42,10.02-.42,15.03s.14,10.02.42,15.03v3.39H2.54v-36.9h147.75v3.46h0Zm14.68-77.33c-3.88,12.56-7.06,24.84-9.45,36.9H2.54v-36.9h162.43Zm28.44-73.88c-5.64,12.7-10.87,25.05-15.45,36.9H2.54v-36.9h190.86Z"></path>
  <path d="m242.65,384.9l-5.22-11.15c-36.48-77.69-50.66-126.37-50.66-173.72h0c0-47.35,14.18-96.03,50.66-173.65l5.29-11.22,12.35.64c9.95.49,20.32,1.34,30.76,2.47,23.64,2.61,59.27,8.33,95.04,20.25,114.24,38.24,138.23,109.3,138.23,162.14s-23.99,123.76-138.23,161.51c-35.7,11.78-71.34,17.29-94.97,19.83-10.51,1.13-20.89,1.91-30.83,2.4l-12.42.49h0Zm-18.98-184.87c0,39.23,11.85,81,41.91,146.69,5.36-.42,10.8-.85,16.23-1.48,21.87-2.33,54.75-7.41,87.35-18.2,75.92-25.12,112.82-66.47,112.82-126.44s-36.97-101.61-112.97-127.08c-32.67-10.94-65.55-16.16-87.35-18.56-5.43-.64-10.8-1.13-16.16-1.55-29.99,65.62-41.84,107.39-41.84,146.62h0Z"></path>
  <path d="m334.73,107.67h26.95l59.98,161.3h-35l-10.73-31.61h-57.36l-10.94,31.61h-33.8l60.89-161.3h0Zm31.82,101.32l-18.7-56.09-19.4,56.09h38.1Z"></path>
</svg>