<?xml version='1.0' encoding='utf-8'?>
<!-- Generator: Adobe Illustrator 27.2.0, SVG Export Plug-In . SVG Version: 6.00 Build 0)  --><svg xmlns="http://www.w3.org/2000/svg" xmlns:xlink="http://www.w3.org/1999/xlink" version="1.1" id="Vrstva_1" x="0px" y="0px" viewBox="0 0 568.4 566.9" style="enable-background:new 0 0 568.4 566.9;" xml:space="preserve" width="401.0584" height="400.0">
<style type="text/css">
	.st0{fill-rule:evenodd;clip-rule:evenodd;fill:#8BC8A2;}
	.st1{fill:#808181;}
</style>
<g>
	<path class="st0" d="M465.9,7.4l16.8,63.8h-29L441.5,7.4L465.9,7.4L465.9,7.4z M564.9,398.3l-32-124.9h-39.6L517.5,398h47.3   L564.9,398.3z M132.9,7.4l-12.2,63.8H91.9l16.6-63.8L132.9,7.4L132.9,7.4z M113,109.3H82.7L70.5,158h33.4L113,109.3L113,109.3z    M520.7,223.3l-29-114.1h-30.3l22.8,114.1H520.7z"></path>
	<path class="st1" d="M242.4,483.5c-4.5,0-9.1,1.4-13.7,3.1l-43.9-44l-21.3,21.3l44,44c-1.4,4.5-3.1,9.1-3.1,13.7   c0,21.3,16.8,38,38,38s38-16.8,38-38C280.5,500.2,262.2,483.5,242.4,483.5L242.4,483.5z"></path>
	<path class="st1" d="M453.8,521.5c0-117.2-94.3-211.5-211.5-211.5S29.5,404.3,29.5,521.5v15.2h60.7v-30.3H61.3   c3.1-38,18.3-74.4,42.5-101.8l24.2,24.2l21.3-21.3L125,383.3c27.4-24.2,63.8-39.6,101.8-42.5v29h30.4v-29   c39.6,3.1,74.4,18.3,101.8,42.5l-24.2,24.2l21.3,21.3l24.2-24.2c24.2,27.4,39.6,63.8,42.5,101.8h-29v30.3h61   C453.9,532.1,453.9,527.6,453.8,521.5L453.8,521.5L453.8,521.5z"></path>
	<polygon class="st1" points="14.3,325.3 120.8,325.3 120.8,218.8 90.2,218.8 90.2,273.5 24.9,208.2 3.5,229.5 69.1,294.9    14.3,294.9  "></polygon>
	<path class="st1" d="M423.3,98.7h-34.8l-22.8-36.6c0,0-32-9.1-77.6-9.1s-77.6,9.1-77.6,9.1l-22.8,36.6h-34.8v24.2h19.7l-19.7,32   v108c0,10.6,10.6,16.8,16.8,16.8h22.8c6.1,0,16.8-6.1,16.8-16.8v-16.8h159.7v16.8c0,10.6,10.6,16.8,16.8,16.8h22.5   c6.2,0,16.8-6.1,16.8-16.8v-108l-19.7-32H425V98.7L423.3,98.7L423.3,98.7z M224.1,83.5c3.1,0,6.1-1.4,10.6-1.4   c12.2-1.4,30.4-4.5,51.8-4.5s39.6,1.4,51.8,4.5c4.5,0,7.7,1.4,10.6,1.4l30.3,48.7H193.7L224.1,83.5L224.1,83.5L224.1,83.5z    M398.9,171.6h-59.3l15.2,19.7h30.3l13.7,16.8v13.7H175.4v-13.7l13.7-16.8h30.4l15.2-19.7h-59.3v-16.8h223.5V171.6z"></path>
</g>
</svg>