<?xml version='1.0' encoding='utf-8'?>
<!-- Generator: Adobe Illustrator 27.2.0, SVG Export Plug-In . SVG Version: 6.00 Build 0)  --><svg xmlns="http://www.w3.org/2000/svg" xmlns:xlink="http://www.w3.org/1999/xlink" version="1.1" id="Vrstva_1" x="0px" y="0px" viewBox="0 0 339.4 566.9" style="enable-background:new 0 0 339.4 566.9;" xml:space="preserve" width="239.47784" height="400.0">
<style type="text/css">
	.st0{fill-rule:evenodd;clip-rule:evenodd;}
</style>
<g>
	<path class="st0" d="M281.3,517.3l52-52V49.6H6.2v467.7L281.3,517.3L281.3,517.3z M106.4,143.5c0,11.4-8.9,20.2-20.2,20.2   S66,154.8,66,143.5s8.9-20.2,20.2-20.2C97.4,123.1,106.4,132.1,106.4,143.5z M86,233.4c11.4,0,20.2-8.9,20.2-20.2S97.3,193,86,193   s-20.2,8.9-20.2,20.2C65.8,224.6,74.6,233.4,86,233.4L86,233.4z M106.4,282.9c0,11.4-8.9,20.2-20.2,20.2S66,294.2,66,282.9   s8.9-20.2,20.2-20.2C97.4,262.6,106.4,272.7,106.4,282.9z M263.5,132.1h-128v22.8h128V132.1L263.5,132.1z M135.5,201.8h128v22.8   h-128V201.8L135.5,201.8z M263.5,271.5h-128v22.8h128V271.5z"></path>
</g>
</svg>