<?xml version='1.0' encoding='utf-8'?>
<!-- Generator: Adobe Illustrator 27.2.0, SVG Export Plug-In . SVG Version: 6.00 Build 0)  --><svg xmlns="http://www.w3.org/2000/svg" xmlns:xlink="http://www.w3.org/1999/xlink" version="1.1" id="Vrstva_1" x="0px" y="0px" viewBox="0 0 532.4 566.9" style="enable-background:new 0 0 532.4 566.9;" xml:space="preserve" width="375.6571" height="400.0">
<g>
	<path d="M267.2,546C122.5,546,4.7,428.2,4.7,283.5S122.4,20.9,267.2,20.9s262.5,117.8,262.5,262.5S411.9,546,267.2,546L267.2,546z    M267.2,78C153.9,78,61.8,170.2,61.8,283.5s92.2,205.4,205.4,205.4s205.4-92.1,205.4-205.4S380.5,78,267.2,78L267.2,78L267.2,78z"></path>
	<path d="M169.2,416c-7,0-14.1-2.6-19.6-7.8c-11.5-10.8-12-28.9-1.2-40.4l195.9-208c10.8-11.5,28.9-12,40.4-1.2   c11.5,10.8,12,28.9,1.2,40.4L190,407C184.4,413,176.8,416,169.2,416L169.2,416z"></path>
	<path d="M371.2,410c-7,0-14.1-2.6-19.6-7.8l-208-195.9c-11.5-10.8-12-28.9-1.2-40.4c10.8-11.5,28.9-12,40.4-1.2l208,195.9   c11.5,10.8,12,28.9,1.2,40.4C386.4,407,378.8,410,371.2,410L371.2,410z"></path>
</g>
</svg>