<?xml version='1.0' encoding='utf-8'?>
<!-- Generator: Adobe Illustrator 27.2.0, SVG Export Plug-In . SVG Version: 6.00 Build 0)  --><svg xmlns="http://www.w3.org/2000/svg" xmlns:xlink="http://www.w3.org/1999/xlink" version="1.1" id="Vrstva_1" x="0px" y="0px" viewBox="0 0 624.4 566.9" style="enable-background:new 0 0 624.4 566.9;" xml:space="preserve" width="440.57153" height="400.0">
<style type="text/css">
	.st0{fill-rule:evenodd;clip-rule:evenodd;}
</style>
<g>
	<path class="st0" d="M171.1,166.5h162.7l-38.2,38.2l33.1,33.1l94.5-94.5l-94.5-94.5l-33.1,33.1l38.2,38.2H171.1   C79.9,119.9,6.8,193,6.8,284.3s73.1,164.3,164.3,164.3v-46.4c-64.7,0-117.9-53.2-117.9-117.9C55,217.9,106.4,166.5,171.1,166.5   L171.1,166.5z"></path>
	<path class="st0" d="M455,118.3v46.4c64.7,0,117.9,53.2,117.9,117.9S519.7,400.5,455,400.5H290.7l38.2-38.2l-33.1-33.1l-94.5,94.5   l94.5,94.5l33.1-33.1l-38.2-36.5h162.5c91.2,0,164.3-73.1,164.3-164.3C619.3,193,544.6,118.3,455,118.3L455,118.3z"></path>
</g>
</svg>