<?xml version='1.0' encoding='utf-8'?>
<!-- Generator: Adobe Illustrator 27.2.0, SVG Export Plug-In . SVG Version: 6.00 Build 0)  --><svg xmlns="http://www.w3.org/2000/svg" xmlns:xlink="http://www.w3.org/1999/xlink" version="1.1" id="Vrstva_1" x="0px" y="0px" viewBox="0 0 574.4 566.9" style="enable-background:new 0 0 574.4 566.9;" xml:space="preserve" width="405.29196" height="400.0">
<g>
	<path d="M57.2,409.4H212v44.1H7.1V114.9h50.1L57.2,409.4L57.2,409.4z"></path>
	<path d="M304.6,435.1c-27.3-15.2-48.5-36.5-63.8-63.8c-15.2-27.3-22.8-56.2-22.8-88.1s7.5-62.2,22.8-89.5   c15.2-27.3,36.5-47.1,63.8-62.2s56.2-22.8,88.1-22.8s62.2,7.6,89.5,22.8s47.1,36.5,62.2,63.8c15.2,27.3,22.8,56.2,22.8,88.1   s-7.5,60.7-22.8,88.1c-15.2,27.3-36.5,48.5-62.2,63.8c-27.3,15.2-56.2,22.8-89.5,22.8C359.3,459.5,330.5,450.4,304.6,435.1   L304.6,435.1z M455,397.2c18.2-10.6,33.4-25.9,44.1-45.6s16.6-42.5,16.6-66.9c0-25.9-6-48.5-16.6-68.2s-25.9-35-44.1-44.1   c-18.2-10.6-39.4-15.2-62.2-15.2s-44.1,4.6-62.2,15.2s-33.4,25.9-44.1,45.6s-16.6,42.5-16.6,68.2s6,48.5,16.6,68.2   s25.9,35,44.1,45.6s39.4,15.2,62.2,15.2C415.5,412.3,436.8,407.8,455,397.2L455,397.2z"></path>
</g>
</svg>