<?xml version='1.0' encoding='utf-8'?>
<svg xmlns="http://www.w3.org/2000/svg" id="Vrstva_1" data-name="Vrstva 1" viewBox="0 0 557.11 566.93" width="393.07147" height="400.0">
  <defs>
    <style>
      .cls-1 {
        fill-rule: evenodd;
      }
    </style>
  </defs>
  <path class="cls-1" d="m405.98,46.79l-254.88,254.88,35.85,35.85-109.24,109.24-17.65-17.65-36.41,36.42c-20.11,20.11-20.11,52.71,0,72.82,20.11,20.11,52.71,20.11,72.82,0l36.41-36.42-17.63-17.63,109.24-109.24,35.84,35.84,254.88-254.88-18.18-18.18,36.45-36.45c20.11-20.11,20.11-52.71,0-72.82-20.11-20.11-52.71-20.11-72.82,0l-36.45,36.45-18.24-18.24h.01ZM60.06,480.71c-11.73,0-21.24,9.51-21.24,21.24s9.51,21.24,21.24,21.24,21.24-9.51,21.24-21.24-9.51-21.24-21.24-21.24ZM518.34,65c0-11.73-9.51-21.24-21.24-21.24s-21.24,9.51-21.24,21.24,9.51,21.24,21.24,21.24,21.24-9.51,21.24-21.24Z" fill="#FFCE63"></path>
</svg>