<?xml version='1.0' encoding='utf-8'?>
<!-- Generator: Adobe Illustrator 27.2.0, SVG Export Plug-In . SVG Version: 6.00 Build 0)  --><svg xmlns="http://www.w3.org/2000/svg" xmlns:xlink="http://www.w3.org/1999/xlink" version="1.1" id="Vrstva_1" x="0px" y="0px" viewBox="0 0 556.4 566.9" style="enable-background:new 0 0 556.4 566.9;" xml:space="preserve" width="392.5913" height="400.0">
<style type="text/css">
	.st0{fill-rule:evenodd;clip-rule:evenodd;}
</style>
<g>
	<path class="st0" d="M344.5,142.5V59.1c0-22.3-18-40.3-40.3-40.3h-53.6c-22.3,0-40.3,18-40.3,40.3v216.3L344.5,142.5L344.5,142.5z    M158.1,327.5v-18h-26.8v44.9L158.1,327.5L158.1,327.5z M179,457.2l19.4-19.4c7.5,2.9,16.4,6,25.5,6h107.4   c37.3,0,65.7-29.8,65.7-65.7v-65.7h26.9v65.9c0,50.6-41.7,92.5-92.5,92.5h-40.3v79h-26.9v-79.1H224   C208.7,469.1,192.5,464.7,179,457.2L179,457.2z M247.6,388.6l96.9-96.9v58.2c0,22.3-18,40.3-40.3,40.3h-53.6   C250.6,390,249.1,390,247.6,388.6L247.6,388.6z"></path>
	<path class="st0" d="M553.3,27.8L22.5,558.6L3.1,539.2L533.9,8.3L553.3,27.8z"></path>
</g>
</svg>