<?xml version='1.0' encoding='utf-8'?>
<svg xmlns="http://www.w3.org/2000/svg" id="Vrstva_1" version="1.1" viewBox="0 0 310.81 400" width="310.81" height="400.0">
  <!-- Generator: Adobe Illustrator 30.4.0, SVG Export Plug-In . SVG Version: 2.1.4 Build 226)  -->
  <path d="M56.08,4.77L3.81,57.04l19.95,19.95,18.23-18.23v8.5c0,28.07,20.64,51.87,48.43,55.84l36.51,5.21c10.58,1.51,19.39,8.87,22.77,19l5.83,17.5h31.35l-10.44-26.42c-6.76-20.27-24.38-34.98-45.54-38l-36.51-5.21c-13.89-1.98-24.21-13.89-24.21-27.92v-8.5l18.23,18.23,19.94-19.95L56.08,4.77Z" fill="#8bc8a2" fill-rule="evenodd"></path>
  <path d="M166.74,157.11c46.55,0,83.44,6.81,83.44,6.81l49.86,82.78-.14,109.23-.46,5.74s-4.78,26.54-34.53,26.54c-.83,0-1.67-.02-2.53-.06-32-1.55-33.19-30.19-33.19-30.19h-115.15s-2.79,30.32-33.8,30.32c-1.17,0-2.38-.04-3.64-.13-34.42-2.47-33.34-33.34-33.34-33.34v-108.12l49.78-82.78c24.72-5.11,50.41-6.81,73.7-6.81M166.74,150.14c-27.5,0-52.78,2.34-75.11,6.95l-2.98.61-1.57,2.61-49.78,82.78-.99,1.65v109.95c-.04,1.51,0,9.98,4.49,18.96,4.49,8.93,14.25,19.9,35.3,21.41,1.4.1,2.79.15,4.13.15,19.26,0,29.39-10.08,34.48-18.53,2.58-4.28,4.11-8.49,5.01-11.8h103.57c.78,3.14,2.14,7.06,4.47,11.06,4.79,8.19,14.62,18.16,34.27,19.11.96.05,1.93.07,2.86.07,18.26,0,28.57-8.75,34.01-16.09,5.71-7.72,7.22-15.33,7.37-16.18l.06-.34.03-.34.46-5.74.02-.28v-.28l.14-109.23v-1.94l-.99-1.66-49.86-82.78-1.62-2.68-3.08-.57c-1.53-.28-38.05-6.92-84.7-6.92h0v.05h0Z" fill="#fff"></path>
  <path d="M112.83,193.29l-14.82,24.65h147.24l-14.84-24.64c-12.11-1.67-33.02-3.89-58.79-3.89s-46.67,2.22-58.78,3.89h0ZM100.37,162.71c10.65-1.75,36.99-5.4,71.25-5.4s60.6,3.65,71.25,5.4l7.32,1.2,3.82,6.35,43.73,72.6,2.3,3.82v4.46l-.02,103.66c0,18.41-14.93,33.34-33.34,33.34h-4.3c-17.35,0-31.61-13.26-33.19-30.19h-115.15c-1.59,16.93-15.84,30.19-33.19,30.19h-4.24c-18.41,0-33.34-14.92-33.34-33.34v-108.12l2.29-3.82,43.66-72.6,3.82-6.36,7.32-1.21h0v.02h0ZM144.07,249.82h-64.21v45.87h18.34v-27.52h36.7l9.17-18.34h0ZM263.33,249.82h-64.21l9.17,18.34h36.7v27.52h18.34v-45.87h0Z" fill-rule="evenodd"></path>
</svg>