<?xml version='1.0' encoding='utf-8'?>
<svg xmlns="http://www.w3.org/2000/svg" id="Vrstva_1" data-name="Vrstva 1" viewBox="0 0 595.75 566.93" width="420.33408" height="400.0">
  <defs>
    <style>
      .cls-1 {
        fill-rule: evenodd;
      }
    </style>
  </defs>
  <path class="cls-1" d="m44.36,471.31l-37.54-56.43,37.54-56.43h281.59v-47.03c0-15.58,12.61-28.22,28.16-28.22h150.18c15.55,0,28.16,12.63,28.16,28.22v206.92c0,15.58-12.61,28.22-28.16,28.22h-150.18c-15.55,0-28.16-12.63-28.16-28.22v-47.03h-28.16l-46.93-47.02-46.93,47.02h-18.78l-46.92-47.01-46.92,47.01h-46.95Zm369.11-103.46v94.05h50.23v-94.05h-50.23Z" fill="#FFCE63"></path>
  <path d="m359.58,158.71l-24.66-28.37c28.81-21.95,64.79-34.99,103.81-34.99s74.98,13.03,103.79,34.97l-24.66,28.37c-22.17-16.26-49.53-25.86-79.13-25.86s-56.97,9.61-79.15,25.87Z" fill="#FFCE63"></path>
  <path d="m407.88,214.27l-25.36-29.18c16.6-9.4,35.79-14.76,56.22-14.76s39.61,5.36,56.2,14.75l-25.36,29.18c-9.44-4.14-19.87-6.44-30.84-6.44s-21.42,2.3-30.86,6.45Z" fill="#FFCE63"></path>
  <path d="m288.57,76.6c40.17-35.02,92.69-56.22,150.16-56.22s110.03,21.22,150.2,56.26l-24.59,28.3c-33.59-29.31-77.53-47.07-125.61-47.07s-91.98,17.74-125.57,47.03l-24.59-28.3Z" fill="#FFCE63"></path>
</svg>