<?xml version='1.0' encoding='utf-8'?>
<svg xmlns="http://www.w3.org/2000/svg" id="Vrstva_1" data-name="Vrstva 1" viewBox="0 0 591.37 566.93" width="417.24374" height="400.0">
  <defs>
    <style>
      .cls-1 {
        fill-rule: evenodd;
      }
    </style>
  </defs>
  <path class="cls-1" d="m422.81,504.77c-2.38,19.63-8.26,38.19-17,55.02h43.36c9.22-23.11,14.3-48.33,14.3-74.73,0-111.55-90.56-201.97-202.26-201.97S58.94,373.51,58.94,485.05c0,26.4,5.07,51.62,14.3,74.73h43.36c-8.74-16.83-14.62-35.39-17-55.02h32.1v-39.42h-32.1c3.65-30.13,15.55-57.73,33.38-80.46l22.76,22.73,27.91-27.87-22.76-22.73c22.75-17.8,50.37-29.68,80.53-33.33v32.25h39.47v-32.27c30.2,3.63,57.85,15.52,80.63,33.34l-22.87,22.84,27.91,27.87,22.87-22.84c17.83,22.73,29.74,50.33,33.38,80.46h-32.31v39.42h32.31Zm-198.95-29.14l-44.03-43.97,27.91-27.87,44.02,43.96c3.03-.76,6.2-1.17,9.46-1.17,21.28,0,38.53,17.22,38.53,38.47s-17.25,38.47-38.53,38.47-38.53-17.22-38.53-38.47c0-3.25.4-6.41,1.16-9.42Z" fill="#51F093"></path>
  <path d="m82.81,265.24v-40.81h31.57v94.69H19.68v-31.56h40.81l-51.97-51.97,22.32-22.32,51.97,51.97Z" fill="#51F093"></path>
  <path class="cls-1" d="m487.13,7.15l15.75,62.9h-28.41l-12.6-62.9h25.26Zm95.72,382.33l-30.57-122.09h-38.29l24.45,122.09h44.4ZM161,7.15l-12.6,62.9h-28.41l15.75-62.9h25.26Zm-20.01,99.91h-30.26l-19.4,77.47h34.14l15.52-77.47Zm398.94,111l-27.79-111h-30.26l22.23,111h35.82Z" fill="#51F093"></path>
  <path class="cls-1" d="m312.06,7.15c35.96,0,63.61,4.08,74.8,6.03l7.83,1.36,51.92,91.54-.02,119.75c0,10.35-4.43,19.25-11.68,25.27-6.92,5.75-15.6,8.23-23.85,8.23-8.25,0-16.92-2.49-23.84-8.26-6.65-5.55-10.88-13.53-11.52-22.78h-127.85c-.64,9.25-4.86,17.22-11.51,22.78-6.92,5.77-15.58,8.26-23.84,8.26-8.25,0-16.92-2.49-23.85-8.23-7.24-6.01-11.68-14.92-11.68-25.27l-.02-119.75L228.9,14.54l7.82-1.36c11.19-1.95,38.84-6.03,74.81-6.03h.53Zm48.49,118.31h29.07v29.06h18.75v-48.44h-67.21l19.38,19.38Zm-145.33,29.06h18.76v-29.06h29.07l19.38-19.38h-67.21v48.44Zm96.58-113.75c-26.69.02-48.36,2.45-61.01,4.3l-16.61,29.33h155.23l-16.61-29.33c-12.64-1.85-34.32-4.28-61.01-4.3Z" fill="#51F093"></path>
</svg>