<?xml version='1.0' encoding='utf-8'?>
<!-- Generator: Adobe Illustrator 27.2.0, SVG Export Plug-In . SVG Version: 6.00 Build 0)  --><svg xmlns="http://www.w3.org/2000/svg" xmlns:xlink="http://www.w3.org/1999/xlink" version="1.1" id="Vrstva_1" x="0px" y="0px" viewBox="0 0 770.4 566.9" style="enable-background:new 0 0 770.4 566.9;" xml:space="preserve" width="543.5879" height="400.0">
<g>
	<path d="M50.3,465.5c0,3.9,0.6,8.4,1.8,13.6c1.2,5.2,3.4,10.1,6.8,14.8c3.4,4.7,8.2,8.6,14.6,11.9c6.3,3.2,14.8,4.9,25.5,4.9   c5.7,0,11.4-0.5,17.1-1.6c5.7-1,10.9-2.9,15.6-5.4s8.4-6.2,11.3-10.9c2.9-4.7,4.3-10.8,4.3-18.3c0-5.5-1-10-3.1-13.8   c-2.1-3.8-4.9-6.9-8.6-9.3c-3.6-2.5-8-4.6-13-6.4c-5.1-1.8-10.7-3.6-16.9-5.4l-24.9-7c-9.3-2.6-18.4-5.5-27.2-8.8   c-8.8-3.2-16.6-7.8-23.3-13.6c-6.8-5.8-12.2-13.5-16.3-23c-4.2-9.5-6.2-22-6.2-37.5c0-7.8,1.1-16.7,3.3-26.8   c2.2-10.1,6.5-19.6,12.8-28.4C30,285.5,39,278,50.7,272s26.8-9.1,45.5-9.1c17.6,0,32.2,3.1,43.8,9.3c11.5,6.2,20.7,14,27.6,23.3   c6.9,9.3,11.7,19.2,14.4,29.8c2.7,10.5,4.1,20,4.1,28.6h-46.3c-0.3-3.1-0.9-7.1-1.9-11.9c-1-4.8-3.1-9.5-6.2-14   c-3.1-4.5-7.8-8.4-14-11.7c-6.2-3.2-14.5-4.9-24.9-4.9c-4.7,0-9.4,0.6-14.2,1.8c-4.8,1.2-9.1,3-13,5.6c-3.9,2.6-7.1,6.1-9.5,10.5   c-2.5,4.4-3.7,9.7-3.7,16c0,5.4,0.8,9.9,2.5,13.4c1.7,3.5,3.8,6.4,6.2,8.6c2.5,2.2,5.1,3.8,8,4.9c2.8,1,5.4,1.9,7.8,2.7l56.4,16.7   c7.8,2.3,15.3,5.2,22.6,8.8s13.7,8.1,19.2,13.8c5.6,5.7,10.1,12.8,13.4,21.4c3.4,8.6,5.1,19.2,5.1,31.9c0,14-1.8,26-5.2,36   c-3.5,10-8,18.4-13.6,25.3c-5.6,6.9-11.9,12.3-18.9,16.3c-7,4-13.9,7.1-20.6,9.1c-6.8,2.1-13,3.4-18.9,4.1c-5.8,0.7-10.4,1-13.8,1   c-21,0-37.9-3.2-50.8-9.7c-12.8-6.5-22.8-14.5-30-24.1S9.8,505.5,7.5,494.7C5.2,483.8,4,474,4,465.5L50.3,465.5L50.3,465.5   L50.3,465.5L50.3,465.5z M330.9,262.8c5.2,0,11.5,0.6,18.9,1.8c7.4,1.2,15.3,3.6,23.6,7.4c8.3,3.8,16.6,9,24.7,15.6   s15.5,15.4,22,26.5c6.5,11,11.8,24.4,15.8,40.3c4,15.8,6,34.8,6,56.8s-2,41-6,57c-4,16-9.3,29.4-15.8,40.3   c-6.5,10.9-13.8,19.7-22,26.4s-16.4,11.9-24.7,15.6s-16.2,6-23.6,7.2s-13.7,1.8-18.9,1.8s-11.5-0.6-18.9-1.8s-15.2-3.6-23.4-7.2   c-8.2-3.6-16.4-8.8-24.5-15.6c-8.2-6.7-15.6-15.6-22.2-26.4c-6.6-10.9-12-24.3-16-40.3c-4-16-6-34.9-6-57s2-41,6-56.8   s9.4-29.2,16-40.3c6.6-11,14-19.8,22.2-26.5c8.2-6.6,16.4-11.8,24.5-15.6c8.2-3.8,16-6.2,23.4-7.4S325.7,262.8,330.9,262.8z    M330.9,509.8c6.5,0,13.4-1.4,20.7-4.3c7.4-2.8,14.1-8,20.4-15.4c6.2-7.4,11.3-17.5,15.3-30.3c4-12.8,6-29.1,6-48.8s-2-35.9-6-48.6   c-4-12.7-9.1-22.8-15.3-30.1c-6.2-7.4-13-12.5-20.4-15.4c-7.4-2.9-14.3-4.3-20.7-4.3s-13.4,1.4-20.8,4.3c-7.4,2.9-14.2,8-20.4,15.4   c-6.2,7.4-11.3,17.4-15.3,30.1c-4,12.7-6,28.9-6,48.6s2,36,6,48.8c4,12.8,9.1,23,15.3,30.3c6.2,7.4,13,12.5,20.4,15.4   C317.6,508.4,324.5,509.8,330.9,509.8L330.9,509.8z M649.7,176.1c-4.4-3.4-10.5-7.6-18.3-12.6c-7.8-5.1-16.5-10.4-26.1-15.9   c-9.6-5.6-19.7-11.3-30.3-17.1s-20.9-11.3-30.9-16.3s-19.2-9.5-27.6-13.4c-8.4-3.9-15.2-6.7-20.4-8.6c-1,3.4-2.3,7.5-3.9,12.2   c-1.5,4.8-3.5,9.3-5.8,13.6c-2.3,4.3-5.2,7.7-8.8,10.3c-3.5,2.6-7.7,3.4-12.6,2.3c-5.4-0.8-12.4-2.2-20.8-4.3   c-8.4-2.1-17-4.3-25.7-6.8c-8.7-2.5-16.8-4.9-24.3-7.2c-7.5-2.3-13-4.1-16.3-5.4l-3.1-1.2c-3.9-2.6-6.3-6.2-7.2-10.9   c-0.9-4.7-0.9-9.7,0-15.2c0.9-5.4,2.6-11.2,5.1-17.1c2.5-6,5.1-11.7,7.8-17.1s5.4-10.3,8.2-14.6c2.7-4.3,4.9-7.7,6.4-10.3   c1.6-2.3,3.4-4.1,5.5-5.4c1-0.8,2.2-1.4,3.5-1.9c0.5,0,3.2-0.6,8.2-1.8c4.9-1.2,11.8-2.1,20.6-2.9c8.8-0.8,19.5-0.9,31.9-0.4   c12.4,0.5,26.4,2.3,42,5.5c15.6,3.1,32.5,8,50.9,14.8c18.4,6.8,37.9,15.8,58.3,27.2c31.1,16.6,56.4,33.8,75.8,51.7   c19.5,17.9,34.6,34.4,45.5,49.4c10.9,15,18.3,27.6,22.4,37.5c4,10,6.2,15.4,6.4,16.1c0.3,1,0.4,2.1,0.4,3.1s-0.1,2.1-0.2,3.1   c-0.1,1-0.5,2.2-1,3.5c-1.3,2.9-2.5,5.4-3.7,7.6c-1.2,2.2-2.3,4.5-3.5,6.8c-1.2,2.3-2.5,4.9-3.9,7.6c-1.4,2.7-3.3,6.2-5.6,10.3   c-2.1,3.4-4.6,7.4-7.6,12.1c-3,4.7-6.4,8.8-10.1,12.5c-3.8,3.6-7.9,6.4-12.5,8.4c-4.5,2-9.3,1.9-14.2-0.2l-3.1-1.6   c-2.9-2.1-7.3-5.6-13.2-10.7c-6-5.1-12.3-10.6-19.1-16.7c-6.7-6.1-13.3-12.1-19.6-18.1c-6.4-6-11.3-10.9-15-14.8   c-3.6-3.6-5.2-7.6-4.9-12.1c0.4-4.4,1.8-8.8,4.1-13c2.3-4.3,5.1-8.4,8.2-12.2S647.4,178.7,649.7,176.1L649.7,176.1L649.7,176.1z    M659,208.7c3.4,3.4,7.4,7.3,12.1,11.7s9.4,8.8,14.2,13.2c4.8,4.4,9.5,8.6,14.2,12.6s8.7,7.3,12.1,9.9c2.6-2.6,5.1-5.6,7.6-9.1   s4.8-7.2,7-11.1c2.2-3.9,4.3-7.8,6.2-11.7c2-3.9,3.7-7.5,5.2-10.9c-5.5-14.5-13.2-28.3-23.2-41.4c-10-13.1-21.1-25.3-33.3-36.6   s-25.2-21.6-38.9-30.9C628.6,95.2,615.2,87,602.2,80c-12.7-7.3-26.7-14.1-41.8-20.4c-15.2-6.3-30.9-11.6-47.1-15.8   c-16.2-4.2-32.5-6.9-49-8.2c-16.5-1.3-32.2-0.4-47.3,2.7c-3.9,6.2-8,13.5-12.5,22s-7.6,16-9.7,22.7c4.1,1.6,9.1,3.2,15,5.1   c5.8,1.8,11.9,3.6,18.3,5.2c6.4,1.7,12.6,3.3,18.9,4.9c6.2,1.6,11.7,2.9,16.3,3.9c2.6-7.3,4.9-14.7,7-22.2l1.2-5.1   c0.5-1.6,0.8-2.5,1-2.9c0.1-0.4,0.5-1.2,1-2.5c0.5-1.6,1.4-2.7,2.5-3.5c1.2-0.8,2.3-1.4,3.3-1.9c1-0.5,2.3-0.9,3.9-1.2   c4.4-0.8,12.2,0.7,23.3,4.5c11.1,3.8,23.7,8.9,37.7,15.6S573,97,588.4,105.3c15.4,8.3,29.7,16.6,42.8,24.9   c13.1,8.3,24.2,16.1,33.5,23.3c9.2,7.3,14.7,13,16.5,17.1c0.3,1.6,0.5,3,0.8,4.3c0.5,2.9,0.1,5.4-1.2,7.8c-0.5,1-1,1.8-1.4,2.1   s-1.1,1.2-2.1,2.5l-3.5,3.9c-2.6,2.9-5.2,5.7-7.8,8.6C663.4,202.7,661.1,205.6,659,208.7L659,208.7L659,208.7z M514.7,465.5   c0,3.9,0.6,8.4,1.8,13.6c1.2,5.2,3.5,10.1,7,14.8s8.4,8.6,14.8,11.9c6.3,3.2,14.8,4.9,25.5,4.9c5.7,0,11.4-0.5,17.1-1.6   c5.7-1,10.9-2.9,15.6-5.4s8.4-6.2,11.3-10.9c2.8-4.7,4.3-10.8,4.3-18.3c0-5.5-1-10-3.1-13.8s-5-6.9-8.8-9.3   c-3.8-2.5-8.2-4.6-13.2-6.4c-5.1-1.8-10.7-3.6-16.9-5.4l-24.5-7c-9.3-2.6-18.4-5.5-27.2-8.8c-8.8-3.2-16.7-7.8-23.5-13.6   c-6.9-5.8-12.4-13.5-16.5-23c-4.2-9.5-6.2-22-6.2-37.5c0-7.8,1.1-16.7,3.3-26.8c2.2-10.1,6.5-19.6,13-28.4   c6.5-8.8,15.5-16.3,27-22.4c11.5-6.1,26.7-9.1,45.3-9.1c17.6,0,32.3,3.1,44,9.3c11.7,6.2,20.9,14,27.6,23.3   c6.7,9.3,11.5,19.2,14.4,29.8c2.8,10.5,4.3,20,4.3,28.6h-46.3c-0.5-3.1-1.3-7.1-2.3-11.9c-1-4.8-3.1-9.5-6.2-14   c-3.1-4.5-7.8-8.4-14-11.7c-6.2-3.2-14.5-4.9-24.9-4.9c-4.7,0-9.3,0.6-14,1.8c-4.7,1.2-8.9,3-12.8,5.6c-3.9,2.6-7.1,6.1-9.5,10.5   c-2.5,4.4-3.7,9.7-3.7,16c0,5.4,0.8,9.9,2.5,13.4c1.7,3.5,3.8,6.4,6.2,8.6c2.5,2.2,5.1,3.8,8,4.9c2.8,1,5.5,1.9,7.8,2.7l56,16.7   c7.8,2.3,15.4,5.2,22.8,8.8c7.4,3.5,13.9,8.1,19.5,13.8c5.6,5.7,10,12.8,13.4,21.4c3.4,8.6,5.1,19.2,5.1,31.9c0,14-1.8,26-5.2,36   c-3.5,10-8.1,18.4-13.8,25.3c-5.7,6.9-12,12.3-18.9,16.3c-6.9,4-13.7,7.1-20.4,9.1s-13,3.4-18.9,4.1c-5.8,0.7-10.5,1-13.8,1   c-21,0-38-3.2-51-9.7c-13-6.5-23-14.5-30.1-24.1c-7.1-9.6-11.9-19.8-14.2-30.7c-2.3-10.9-3.5-20.6-3.5-29.2L514.7,465.5   L514.7,465.5L514.7,465.5z" fill="#FFCE63"></path>
</g>
</svg>