<?xml version='1.0' encoding='utf-8'?>
<!-- Generator: Adobe Illustrator 27.2.0, SVG Export Plug-In . SVG Version: 6.00 Build 0)  --><svg xmlns="http://www.w3.org/2000/svg" xmlns:xlink="http://www.w3.org/1999/xlink" version="1.1" id="Vrstva_1" x="0px" y="0px" viewBox="0 0 573.4 566.9" style="enable-background:new 0 0 573.4 566.9;" xml:space="preserve" width="404.58636" height="400.0">
<g>
	<circle cx="429" cy="98.6" r="62.4" fill="#FFCE63"></circle>
	<path d="M567.5,139.6l-24.3-19.8l-83.7,97.3c-6.2-6.1-12.2-10.7-19.8-15.2c-15.2-9.1-38.1-9.1-53.3-3.1   c-18.3,6.1-31.9,18.3-38.1,38.1L316.4,319l91.4,135.4c0,0,65.4-172,66.9-178c1.5-4.5,3.1-9.1,3.1-13.8s0-9.1-1.5-13.8L567.5,139.6   L567.5,139.6z" fill="#FFCE63"></path>
	<circle cx="147.5" cy="129" r="109.5" fill="#FFCE63"></circle>
	<polygon points="375.9,462.2 432.1,547.4 458,527.6 407.8,453.1  " fill="#FFCE63"></polygon>
	<path d="M375.9,462.2l-102-147.5l-53.3-18.3c-18.3-6.1-38.1-3.1-50.2,12.1L15.2,471.3C6.1,483.4,3,500.1,9,515.3   c6.1,15.2,18.3,24.3,38.1,24.3h47.1L222,401.1L375.9,462.2L375.9,462.2z" fill="#FFCE63"></path>
</g>
</svg>