<?xml version='1.0' encoding='utf-8'?>
<svg xmlns="http://www.w3.org/2000/svg" id="Vrstva_1" version="1.1" viewBox="0 0 218.76 400" width="218.76" height="400.0">
  <!-- Generator: Adobe Illustrator 30.2.1, SVG Export Plug-In . SVG Version: 2.1.1 Build 1)  -->
  <g>
    <path d="M165.25,17.12l-55.86,55.86L53.52,17.12,12.47,58.17l96.91,96.91,96.91-96.91-41.05-41.05h0ZM53.52,39.77l-18.4,18.4,74.27,74.27,74.27-74.27-18.4-18.4-55.86,55.86-55.87-55.86h-.01Z" fill-rule="evenodd"></path>
    <path d="M165.25,17.12l41.05,41.05-96.91,96.91L12.47,58.17,53.52,17.12l55.87,55.86,55.87-55.87M109.39,95.63l-55.87-55.87-18.4,18.4,74.27,74.27,74.27-74.27-18.4-18.4-55.86,55.86M165.25,7.14l-4.99,4.99-50.87,50.87L58.51,12.13l-4.99-4.99-4.99,4.99L7.48,53.18l-4.99,4.99,4.99,4.99,96.91,96.91,4.99,4.99,4.99-4.99,96.91-96.91,4.99-4.99-4.99-4.99-41.05-41.05-4.99-4.99h.01ZM45.1,58.17l8.42-8.42,50.87,50.87,4.99,4.99,4.99-4.99,50.87-50.87,8.42,8.42-64.29,64.29L45.1,58.17h0Z" fill="#fff"></path>
  </g>
  <g>
    <path d="M109.38,191.67l55.86-55.86,41.05,41.05-96.91,96.91L12.47,176.86l41.05-41.05,55.87,55.86h-.01ZM35.12,176.86l18.4-18.4,55.87,55.86,55.86-55.86,18.4,18.4-74.27,74.27-74.27-74.27h0Z" fill-rule="evenodd"></path>
    <path d="M165.25,135.81l41.05,41.05-96.91,96.91L12.47,176.86l41.05-41.05,55.87,55.86,55.86-55.86M109.38,214.33l-55.87-55.86-18.4,18.4,74.27,74.27,74.27-74.27-18.4-18.4-55.86,55.86M165.25,125.84l-4.99,4.99-50.87,50.87-50.87-50.87-4.99-4.99-4.99,4.99L7.49,171.87l-4.99,4.99,4.99,4.99,96.91,96.91,4.99,4.99,4.99-4.99,96.91-96.91,4.99-4.99-4.99-4.99-41.05-41.05-4.99-4.99h0,0ZM109.39,224.3l4.99-4.99,50.87-50.87,8.42,8.42-64.29,64.29-64.29-64.29,8.42-8.42,50.87,50.87,4.99,4.99h.02Z" fill="#fff"></path>
  </g>
  <g>
    <path d="M19.95,385.8v-58.06h179.14v58.06H19.95ZM183.08,343.76v26.03H35.97v-26.03h147.11Z" fill-rule="evenodd"></path>
    <path d="M199.09,327.74v58.06H19.95v-58.06h179.14M35.97,369.79h147.11v-26.03H35.97v26.03M206.15,320.69H12.9v72.17h193.25v-72.17h0ZM43.02,350.82h133v11.92H43.02v-11.92h0Z" fill="#fff"></path>
  </g>
  <path d="M53.52,158.45l55.87,55.86,55.86-55.86,18.4,18.4-74.27,74.27-74.27-74.27,18.4-18.4h0Z" fill="#76be85"></path>
  <path d="M35.97,369.79h147.11v-26.03H35.97v26.03Z" fill="#76be85"></path>
  <path d="M109.38,95.63l-55.87-55.87-18.4,18.4,74.27,74.27,74.27-74.27-18.4-18.4-55.86,55.87h-.01Z" fill="#4c4e4f" fill-rule="evenodd"></path>
</svg>