<?xml version='1.0' encoding='utf-8'?>
<svg xmlns="http://www.w3.org/2000/svg" id="Vrstva_1" data-name="Vrstva 1" viewBox="0 0 569.13 566.93" width="401.55222" height="400.0">
  <defs>
    <style>
      .cls-1 {
        fill-rule: evenodd;
      }
    </style>
  </defs>
  <path class="cls-1" d="m370.57,89.62c-14.56-5.56-35.4-7.76-54.74-.95-20.58,7.24-38.01,24.27-43.72,53.53-1.81,9.29,4.25,18.29,13.54,20.1s18.29-4.25,20.1-13.54c3.36-17.26,12.26-24.53,21.46-27.76,10.44-3.67,22.83-2.53,31.14.64,9.63,3.68,18.52,13.11,22.88,25.75,4.26,12.37,3.58,26.21-3.74,38.02-33.01,53.22-95.61,52.06-140.18,48.09-41.31-3.68-79.35-14.1-124.54-35.87-8.53-4.11-18.77-.52-22.87,8-4.11,8.53-.52,18.77,8,22.87,48.54,23.37,90.57,35.05,136.37,39.13,42.53,3.79,127.17,8.68,172.35-64.16,13.47-21.71,14.17-46.49,7.02-67.24-7.05-20.49-22.34-38.7-43.05-46.61h-.02ZM29.05,281.07c-8.56-4.03-18.77-.37-22.8,8.2-4.03,8.56-.36,18.77,8.2,22.8,69.69,32.84,165.7,59.57,240.88,59.57s110.22-10.96,170.16-35.06c25.91-10.42,52.99-10.52,72.61-1.57,18.43,8.41,32.15,25.54,32.15,55.59s-16.27,47.29-39.14,54.44c-23.5,7.34-55.25,2.6-83.55-20.73-7.3-6.02-18.1-4.98-24.12,2.32-6.02,7.3-4.98,18.1,2.32,24.12,36.22,29.85,79.83,38.16,115.56,26.99,36.35-11.36,63.19-42.72,63.19-87.15s-21.13-72.59-52.2-86.77c-29.89-13.64-66.94-12.19-99.62.95-57.23,23.01-88.2,32.59-157.38,32.59s-159.76-24.96-226.27-56.3h0Z"></path>
</svg>