<?xml version='1.0' encoding='utf-8'?>
<svg xmlns="http://www.w3.org/2000/svg" id="Vrstva_1" data-name="Vrstva 1" viewBox="0 0 536.41 566.93" width="378.46646" height="400.0">
  <defs>
    <style>
      .cls-1 {
        fill-rule: evenodd;
      }
    </style>
  </defs>
  <path class="cls-1" d="m68.47,6.95v27.21l5.56,130.83v.21s1.66,39.01,1.66,39.01h36.13l7.66-170.05V6.95h-51.01Zm10.2,286.95c4.82,2.55,10.06,3.83,15.73,3.83s10.34-1.27,14.88-3.83c4.53-2.84,8.08-6.52,10.63-11.05,2.83-4.82,4.25-10.06,4.25-15.73s-1.42-10.34-4.25-14.88c-2.55-4.53-6.09-8.08-10.63-10.63-4.53-2.83-9.49-4.25-14.88-4.25-5.67,0-10.91,1.42-15.73,4.25-4.53,2.55-8.22,6.09-11.05,10.63-2.55,4.53-3.83,9.49-3.83,14.88,0,5.67,1.28,10.91,3.83,15.73,2.83,4.53,6.52,8.22,11.05,11.05Z" fill="#FFCE63"></path>
  <path d="m155.25,337.25c13.12-13.35,32.78-17.79,50.31-11.34l1.58.58,99.66,138.74-105.25-38.7-117.13,119.22c-18.5,18.83-48.67,19.01-67.4.42-18.73-18.6-18.93-48.95-.42-67.79l138.66-141.13ZM402.17,68.33c32.03,0,57.22,25.32,57.22,57.53-.01,32.19-25.19,57.52-57.22,57.53-32.03,0-57.2-25.33-57.22-57.53,0-32.21,25.18-57.53,57.22-57.53Z" fill="#FFCE63"></path>
  <path d="m455.91,249.9c1.6,10.76-.42,22.14-6.52,32.14l-65.2,132.88-61.11-85.07,45.06-97.92c13.63-22.34,42.54-29.5,64.89-16.2,12.92,10.19,17.67,16.86,22.88,34.18Z" fill="#FFCE63"></path>
  <path d="m476.13,226.17c-5.81-13.61-12.13-21.63-24.07-32.76l51.51-60.46,30.02,25.85-57.45,67.36Z" fill="#FFCE63"></path>
  <path d="m420.1,543.06l-15.97,11.66-41.81-57.26,15.93-11.67,15.96-11.63,41.85,57.27-15.96,11.63Z" fill="#FFCE63"></path>
  <path d="m364.62,467.13l-15.97,11.66-41.81-57.26,15.93-11.67,15.96-11.63,41.85,57.27-15.96,11.63Z" fill="#FFCE63"></path>
  <path d="m309.15,391.06l-15.97,11.66-41.27-57.18,58.05,12.84,15.16,21.05-15.96,11.63Z" fill="#FFCE63"></path>
</svg>