<?xml version='1.0' encoding='utf-8'?>
<svg xmlns="http://www.w3.org/2000/svg" id="Vrstva_1" data-name="Vrstva 1" viewBox="0 0 523.42 566.93" width="369.30133" height="400.0">
  <defs>
    <style>
      .cls-1 {
        fill-rule: evenodd;
      }
    </style>
  </defs>
  <path class="cls-1" d="m21.64,33V7.14h48.48v25.85l-7.27,161.59H28.51l-6.87-161.59Zm24.64,250.47c-5.39,0-10.37-1.21-14.95-3.64-4.31-2.69-7.81-6.19-10.5-10.5-2.42-4.58-3.64-9.56-3.64-14.95s1.21-9.83,3.64-14.14c2.69-4.31,6.19-7.68,10.5-10.1,4.58-2.69,9.56-4.04,14.95-4.04s9.83,1.35,14.14,4.04c4.31,2.42,7.68,5.79,10.1,10.1,2.69,4.31,4.04,9.02,4.04,14.14,0,5.39-1.35,10.37-4.04,14.95-2.42,4.31-5.79,7.81-10.1,10.5-4.31,2.42-9.02,3.64-14.14,3.64Zm306.37,276.32c8.52-16.64,14.25-34.95,16.59-54.3h-32.31v-39.47h32.31c-3.64-30.18-15.55-57.82-33.38-80.59l-22.87,22.87-27.91-27.91,22.87-22.87c-22.78-17.85-50.43-29.75-80.62-33.4v32.32h-39.47v-32.31c-30.17,3.65-57.79,15.56-80.54,33.39l22.77,22.77-27.91,27.91-22.77-22.77c-17.83,22.77-29.74,50.41-33.38,80.59h32.11v39.47h-32.1c2.34,19.35,8.08,37.65,16.59,54.3H19.35c-9.03-22.93-13.98-47.91-13.98-74.05,0-111.71,90.56-202.27,202.27-202.27s202.27,90.56,202.27,202.27c0,26.14-4.96,51.12-13.98,74.05h-43.27Zm-226.4-127.52l44.03,44.03c-.76,3.02-1.16,6.18-1.16,9.44,0,21.28,17.25,38.53,38.53,38.53s38.53-17.25,38.53-38.53-17.25-38.53-38.53-38.53c-3.26,0-6.43.41-9.46,1.17l-44.02-44.02-27.91,27.91ZM303.18,48.75l-18.23,32.2h170.98l-18.26-32.2c-13.92-2.04-37.82-4.71-67.25-4.71s-53.32,2.67-67.24,4.71Zm-43.42,76.67l4.29-7.58h212.81l4.3,7.58-.03,87.42h-18.1v.06h-177.81v-.06h-25.46v-87.42Zm28.57-111.66c12.28-2.14,42.62-6.61,82.08-6.61s69.81,4.47,82.09,6.62l8.58,1.5,56.98,100.44-.02,131.41c0,11.35-4.86,21.12-12.81,27.72-7.6,6.31-17.11,9.03-26.16,9.03s-18.57-2.73-26.16-9.07c-7.3-6.09-11.93-14.84-12.63-24.99h-139.58l-.02.13h-77.42c-.26-1.93-.39-3.91-.39-5.94V115.7s56.88-100.44,56.88-100.44l8.59-1.5Zm-7.39,122.53h62.61l-8.94,18.99h-35.78v28.49h-17.89v-47.48Zm116.27,0h62.61v47.48s-17.89,0-17.89,0v-28.49h-35.78l-8.95-18.99Z" fill="#FFCE63"></path>
</svg>