<?xml version='1.0' encoding='utf-8'?>
<!-- Generator: Adobe Illustrator 27.2.0, SVG Export Plug-In . SVG Version: 6.00 Build 0)  --><svg xmlns="http://www.w3.org/2000/svg" xmlns:xlink="http://www.w3.org/1999/xlink" version="1.1" id="Vrstva_1" x="0px" y="0px" viewBox="0 0 461.4 566.9" style="enable-background:new 0 0 461.4 566.9;" xml:space="preserve" width="325.56006" height="400.0">
<path d="M252.2,361h-32.1V158.9h28.1v151.7l55.5-54.4l27.1,27.6L252.2,361L252.2,361L252.2,361L252.2,361L252.2,361z M241.5,98.9  V82.6c12.4-4.8,22.4-14.7,22.4-28.8c0-18.3-14.9-33.3-33.2-33.3s-33.4,15-33.4,33.3c0,14.1,10,23.9,22.5,28.8v16.4  c-44.4,2.1-85.3,16.8-119.2,41.1l-31.7-17.9l-38.4,38.4l17.9,31.6C22.2,228.8,6.4,273.5,6.4,322.1c0,123.9,100.5,224.3,224.3,224.3  S455,446,455,322.1C455,202,360.3,104.7,241.5,98.9L241.5,98.9L241.5,98.9z"></path>
</svg>