<?xml version='1.0' encoding='utf-8'?>
<svg xmlns="http://www.w3.org/2000/svg" id="Vrstva_1" data-name="Vrstva 1" viewBox="0 0 530.09 566.93" width="374.00742" height="400.0">
  <defs>
    <style>
      .cls-1 {
        fill-rule: evenodd;
      }
    </style>
  </defs>
  <path class="cls-1" d="m445.72,80.33l-14.99-59.87h-24.04l11.99,59.87h27.04ZM19.42,384.37c10.06-23.27,23.86-44.55,40.64-63.08l10.64-53.13h-36.44l-29.1,116.21h14.26ZM108.32,80.33l11.99-59.87h-24.04l-14.99,59.87h27.04Zm-35.86,35.22h28.8l-21.16,105.65h-34.09l26.45-105.65Zm382.08,0l26.45,105.65h-34.09l-21.16-105.65h28.8Zm-69.94,378.54c-2.26,18.69-7.86,36.35-16.18,52.37h41.27c8.78-22,13.61-46,13.61-71.13,0-106.17-86.19-192.25-192.52-192.25S38.25,369.16,38.25,475.34c0,25.13,4.83,49.13,13.61,71.13h41.27c-8.32-16.02-13.92-33.68-16.18-52.37h30.55v-37.52h-30.55c3.47-28.68,14.8-54.95,31.77-76.58l21.67,21.63,26.57-26.53-21.67-21.64c21.66-16.94,47.94-28.25,76.65-31.73v30.7h37.57v-30.71c28.74,3.46,55.06,14.78,76.74,31.74l-21.77,21.74,26.57,26.53,21.77-21.74c16.98,21.64,28.31,47.9,31.78,76.59h-30.76v37.52h30.76Zm-189.37-27.73l-41.91-41.85,26.57-26.53,41.9,41.84c2.88-.73,5.9-1.11,9.01-1.11,20.25,0,36.67,16.39,36.67,36.62s-16.42,36.62-36.67,36.62-36.67-16.39-36.67-36.62c0-3.09.38-6.1,1.11-8.97Zm279.33-183.28v24.57l6.54,153.58h32.68l6.92-153.58v-24.57h-46.14Zm9.23,259.17c4.36,2.3,9.1,3.46,14.23,3.46s9.36-1.15,13.46-3.46c4.1-2.56,7.31-5.89,9.61-9.98,2.56-4.35,3.84-9.09,3.84-14.21s-1.28-9.34-3.84-13.44c-2.31-4.1-5.51-7.3-9.61-9.6-4.1-2.56-8.59-3.84-13.46-3.84-5.13,0-9.87,1.28-14.23,3.84-4.1,2.3-7.43,5.5-10,9.6-2.31,4.1-3.46,8.58-3.46,13.44,0,5.12,1.15,9.85,3.46,14.21,2.56,4.1,5.9,7.42,10,9.98ZM189.56,84.07l15.91-28.05c12-1.76,32.71-4.08,58.23-4.08s46.24,2.33,58.24,4.09l15.94,28.05h-148.31Zm-18.03,31.79l-3.65,6.44v75.81s191.7,0,191.7,0v-75.8s-3.65-6.44-3.65-6.44h-184.4Zm92.17-95.07c-34.03,0-60.19,3.85-70.78,5.7l-7.26,1.26-3.63,6.4-45.34,79.94v113.15c0,9.31,3.71,17.62,10.4,23.42,6.43,5.57,14.56,7.93,22.35,7.93s15.84-2.3,22.41-7.43c6.44-5.03,11.05-12.62,11.63-21.92h120.81c.48,8.33,3.93,15.86,10.07,21.3,6.4,5.67,14.54,8.05,22.34,8.05s15.84-2.3,22.41-7.44c6.89-5.39,11.66-13.71,11.66-23.91l.02-113.16-45.42-79.95-3.63-6.39-7.25-1.26c-10.58-1.84-36.75-5.7-70.78-5.7Zm-23.18,110.98h-54.03v40.92h15.44v-24.55h30.87l7.72-16.37Zm100.34,0h-54.03l7.72,16.37h30.87v24.55h15.44v-40.92Z" fill="#FFCE63"></path>
</svg>