<?xml version='1.0' encoding='utf-8'?>
<svg xmlns="http://www.w3.org/2000/svg" id="Vrstva_1" data-name="Vrstva 1" viewBox="0 0 538.68 566.93" width="380.06808" height="400.0">
  <defs>
    <style>
      .cls-1 {
        fill-rule: evenodd;
      }
    </style>
  </defs>
  <path class="cls-1" d="m520.58,368.72c9.08-26.76,14-55.43,14-85.26s-4.92-58.5-14-85.26h-127.93c6.11,27.62,9.31,56.12,9.31,85.26s-3.2,57.64-9.31,85.26h127.93Zm-16.26,37.89h-122.05c-16.15,49.32-41.76,95.24-75.04,136.24v3.17c85.78-12.27,158.32-65.58,197.09-139.41Zm-272.87,139.41v-3.17c-33.28-41-58.89-86.93-75.04-136.24H34.36c38.77,73.83,111.31,127.14,197.09,139.41ZM18.09,368.72c-9.08-26.76-14-55.43-14-85.26s4.92-58.5,14-85.26h127.93c-6.11,27.62-9.31,56.12-9.31,85.26s3.2,57.64,9.31,85.26H18.09Zm16.26-208.41h122.05c16.15-49.31,41.76-95.24,75.04-136.24v-3.16c-85.78,12.27-158.32,65.58-197.09,139.41ZM307.23,20.91v3.16c33.29,41,58.89,86.93,75.04,136.24h122.05c-38.77-73.82-111.31-127.14-197.09-139.41Zm-110.54,385.7c13.61,37.07,33.21,72.11,57.92,104.2h29.46c24.71-32.09,44.3-67.13,57.92-104.2h-145.29ZM254.61,56.11c-24.71,32.09-44.3,67.13-57.92,104.2h145.29c-13.61-37.07-33.21-72.11-57.92-104.2h-29.46Zm-80,227.35c0-29.09,3.59-57.62,10.45-85.26h168.56c6.86,27.64,10.45,56.17,10.45,85.26s-3.59,57.62-10.45,85.26h-168.56c-6.86-27.64-10.45-56.17-10.45-85.26Z"></path>
</svg>