<?xml version='1.0' encoding='utf-8'?>
<!-- Generator: Adobe Illustrator 27.2.0, SVG Export Plug-In . SVG Version: 6.00 Build 0)  --><svg xmlns="http://www.w3.org/2000/svg" xmlns:xlink="http://www.w3.org/1999/xlink" version="1.1" id="Vrstva_1" x="0px" y="0px" viewBox="0 0 418.4 566.9" style="enable-background:new 0 0 418.4 566.9;" xml:space="preserve" width="295.2196" height="400.0">
<style type="text/css">
	.st0{fill-rule:evenodd;clip-rule:evenodd;}
</style>
<g>
	<path d="M229.1,20.2H44.7c-21,0-39.5,18.5-39.5,39.5v447.6c0,21,18.5,39.5,39.5,39.5h184.3c21,0,39.5-18.5,39.5-39.5V59.7   C268.5,38.6,250.1,20.2,229.1,20.2L229.1,20.2z M136.9,494.2c-15.8,0-26.4-10.6-26.4-26.4s10.6-26.4,26.4-26.4s26.4,10.6,26.4,26.4   S152.6,494.2,136.9,494.2L136.9,494.2z M202.7,101.8H71V70.2h131.7L202.7,101.8L202.7,101.8z"></path>
	<g>
		<path class="st0" d="M380.4,217.7c0,38.9-13.5,74.7-36.1,102.8l25.7,20.5c27-33.8,43.3-76.6,43.3-123.3s-15-86.3-40.3-119.5    l-26.2,20C367.9,145.8,380.4,180.3,380.4,217.7L380.4,217.7z"></path>
		<path class="st0" d="M314.6,217.7c0,23.3-8.1,44.8-21.6,61.7l25.7,20.5c18-22.5,28.8-51.1,28.8-82.2s-10-57.6-26.8-79.6l-26.2,20    C307.1,174.5,314.6,195.3,314.6,217.7L314.6,217.7z"></path>
	</g>
</g>
</svg>