<?xml version='1.0' encoding='utf-8'?>
<!-- Generator: Adobe Illustrator 27.2.0, SVG Export Plug-In . SVG Version: 6.00 Build 0)  --><svg xmlns="http://www.w3.org/2000/svg" xmlns:xlink="http://www.w3.org/1999/xlink" version="1.1" id="Vrstva_1" x="0px" y="0px" viewBox="0 0 1757.5 566.9" style="enable-background:new 0 0 1757.5 566.9;" xml:space="preserve" width="1240.0775" height="400.0">
<path d="M239.8,283.5c0,94.9-61.4,169.6-135.9,169.6H5.7V113.9H104C178.4,113.9,239.8,189,239.8,283.5L239.8,283.5L239.8,283.5  L239.8,283.5z M174.8,283.5c0-55.9-30.7-94.4-73.7-94.4H67.8v188.9H101C144.1,377.9,174.8,339.4,174.8,283.5L174.8,283.5z"></path>
<path d="M264.4,113.9h62.2v339.2h-62.2V113.9z"></path>
<path d="M353.3,343.2H418c0,30.8,13,40.5,43,40.5c33.6,0,43.4-9.1,43.4-28.9c0-17.4-13.4-25.1-39-30.8l-24.6-5.8  c-50.6-12-85.3-39-85.3-104.1s32.2-106,105.5-106c81.3,0,103.7,51.5,103.7,113.7h-62.9c0-25.5-11.2-38.6-39.4-38.6  c-33.2,0-40.5,7.2-40.5,27c0,16.4,9.8,24.6,43.4,32.8l23.1,5.8c47.7,12.1,83.8,34.7,83.8,102.2S539,458.8,461,458.8  S353.6,411.1,353.3,343.2L353.3,343.2z"></path>
<path d="M799.6,189h-79.5v264h-62.2V189h-81v-75.2h222.6L799.6,189L799.6,189L799.6,189z"></path>
<path d="M945.2,403H832.5l-15.9,50.1H753l112.8-339.2h50.6l111.3,339.2h-66.5L945.2,403L945.2,403z M923.5,335.5l-34.7-109.4  l-34.7,109.4H923.5z"></path>
<path d="M1263.3,113.9v339.2h-37.6l-121.4-181.2v181.2h-62.2V113.9h36.1L1201.1,297V113.9H1263.3L1263.3,113.9z"></path>
<path d="M1287.8,283.5c0-99.3,52-175.4,127.2-175.4s118.2,64.1,126.8,136.8h-65.1c-7.6-30.8-27.8-59.8-60.3-59.8  c-41.9,0-63.6,43.8-63.6,98.3s21.3,98.3,63.6,98.3c35.4,0,53.1-24.6,61.8-61.7h64.3c-7.6,71.3-50.2,138.8-129,138.8  C1338.4,458.8,1287.8,382.7,1287.8,283.5L1287.8,283.5L1287.8,283.5z"></path>
<path d="M1751.8,377.9v75.2h-182.1V113.9h179.2V189h-117.1v59.8h104.1v69.4h-104.1v59.8L1751.8,377.9L1751.8,377.9L1751.8,377.9  L1751.8,377.9z"></path>
</svg>