<?xml version='1.0' encoding='utf-8'?>
<!-- Generator: Adobe Illustrator 27.2.0, SVG Export Plug-In . SVG Version: 6.00 Build 0)  --><svg xmlns="http://www.w3.org/2000/svg" xmlns:xlink="http://www.w3.org/1999/xlink" version="1.1" id="Vrstva_1" x="0px" y="0px" viewBox="0 0 489.4 566.9" style="enable-background:new 0 0 489.4 566.9;" xml:space="preserve" width="345.31662" height="400.0">
<g>
	<path d="M184.5,209.1l-58.1-1.4l-56.8-2.9l-9.4-1.5l-9.1-4l-7.3-5.7l-6.4-7.3l-4.5-8.6l-2.6-9.3l-3.4-39.2V89.7l3.4-39.2l2.6-9.4   l4.5-8.5l6.4-7.3l7.2-5.6l9.1-4l9.4-1.5l86.5-3.5l86.1-2.6l95.3,1.1l94.9,2.8l6.8,1.1l6.6,2.6l5.5,4l4.6,5.3l3.1,6.2l2,6.8l4,47.6   v48l-4,47.6l-2,6.6l-3.1,6.2l-4.6,5.4l-5.5,4.2l-6.6,2.6l-6.8,0.9l-31.5,1.4l-32.6,0.2L347,197.6l-16.5-9.7l-14.2-12.5l-36.3,0.5   l-36.3,0.2L225.7,188l-19.2,10.4L184.5,209.1L184.5,209.1L184.5,209.1z M437.1,178l4-45.6V86.5l-4-45.9l-1.7-3.5l-3.5-1.5   l-32.7-1.2L367,33.3l-2.8-2l-3.5-0.9L278.2,29l-82.4,0.2l-4.2,0.9l-3.7,2l-57.9,1.1L71.8,35l-7.9,2.5l-6.2,5.3l-3.1,7.8l-3.4,29.2   l-1.1,29.8l1.1,29.8l3.4,29.2l3.1,7.4l6.2,5.7l7.9,2.2l51.3,1.5l51.1,1.1l4.5-0.5l4-1.1l18.5-7.4l17.2-9.7l15.9-11.4l2.9-1.1   l2.6-0.6l40.8-0.2l40.9-0.5l3.5,0.9l3.3,2.2l11.4,11l13.3,8.8l14.8,6.6l5.1,1.4l5.5,0.2l26.9-0.9l26.9-1.1l3.5-1.4L437.1,178   L437.1,178L437.1,178z M201,160.4l-23.3,9.7l-5.1,0.2l-4-2.6l-2.6-4.5l-3.5-26.6l-1.5-27.1l1.5-27.3l3.5-26.6l2.6-4.5l4-2.5   l5.1,0.2l23.3,9.4l21.2,13.4l1.1,1.4v1.5l-2.6,34.6l2.6,35.1v1.4l-1.1,1.4L201,160.4L201,160.4z M332.8,272.8l-8.5,13.9l-9,13.3   l-1.1,0.9l-1.5-0.5L253.9,264l-57.8-38.1l-2.2-3.1v-3.7l3.7-6.4l5.1-5.1l6.8-3.1l7.1-0.9h10.5l51.8,34.1l53.3,32.4l0.9,1.4   L332.8,272.8L332.8,272.8L332.8,272.8z M347.7,45l2,2l-1.4,2.5l-27.1,17.1L279.5,66l-40.9-0.2l-29.5-17.3l-1.1-2.8l2.2-2h68.5   L347.7,45L347.7,45z M379.3,168.1l-14.5-7.7l-14.1-8.2l-1.1-1.5l-0.2-1.5l2.5-26.4V96.1l-2.5-26.2l0.2-1.7l1.1-1.4l14.1-8.4   l14.5-7.7l4.2-0.6l4,0.9l2.8,2.6l2,4.2l3.5,34.1v35.1l-3.5,34.3l-2,4l-2.8,2.6l-4,1.1L379.3,168.1L379.3,168.1L379.3,168.1z" fill="#FFCE63"></path>
	<path d="M5.4,439.3c0-67.3,43.4-119.5,94.6-119.5s94.6,51.9,94.6,119.5s-43.4,119.5-94.6,119.5S5.4,506.8,5.4,439.3L5.4,439.3z    M150.1,439.3c0-37.4-23.2-66.9-50.2-66.9s-50.2,30.2-50.2,66.9s23.2,66.9,50.2,66.9S150.1,476.7,150.1,439.3z" fill="#FFCE63"></path>
	<path d="M253.6,374.8v47.4h78.8v48.6h-78.8v84h-42.4V323.6h128v51.2L253.6,374.8L253.6,374.8z" fill="#FFCE63"></path>
	<path d="M398.4,374.8v47.4h78.8v48.6h-78.8v84H356V323.6h128v51.2L398.4,374.8L398.4,374.8L398.4,374.8z" fill="#FFCE63"></path>
</g>
</svg>