<?xml version='1.0' encoding='utf-8'?>
<!-- Generator: Adobe Illustrator 27.2.0, SVG Export Plug-In . SVG Version: 6.00 Build 0)  --><svg xmlns="http://www.w3.org/2000/svg" xmlns:xlink="http://www.w3.org/1999/xlink" version="1.1" id="Vrstva_1" x="0px" y="0px" viewBox="0 0 609.4 566.9" style="enable-background:new 0 0 609.4 566.9;" xml:space="preserve" width="429.98767" height="400.0">
<style type="text/css">
	.st0{fill-rule:evenodd;clip-rule:evenodd;}
</style>
<g>
	<polygon class="st0" points="380.5,166.8 516,166.8 478.4,204.3 511.2,237 605.7,144 511.2,49.3 478.4,81.9 516,119.5 359.3,119.5    132.5,400.2 3.6,400.2 3.6,447.6 155.3,447.6  "></polygon>
	<polygon class="st0" points="197.8,246.8 227.1,209.2 155.3,119.5 3.6,119.5 3.6,166.8 132.5,166.8  "></polygon>
	<polygon class="st0" points="478.4,362.6 516,400.2 380.5,400.2 317,320.3 287.5,357.7 359.3,447.6 516,447.6 478.4,485.1    511.2,517.6 605.7,423 511.2,330  "></polygon>
</g>
</svg>