<?xml version='1.0' encoding='utf-8'?>
<!-- Generator: Adobe Illustrator 27.2.0, SVG Export Plug-In . SVG Version: 6.00 Build 0)  --><svg xmlns="http://www.w3.org/2000/svg" xmlns:xlink="http://www.w3.org/1999/xlink" version="1.1" id="Vrstva_1" x="0px" y="0px" viewBox="0 0 482.4 566.9" style="enable-background:new 0 0 482.4 566.9;" xml:space="preserve" width="340.37747" height="400.0">
<g>
	<g>
		<path d="M171,341.3c11.4,9.9,22.6,24,19.8,34.1c-4.2,11.4-29.7,17-70.7,28.3l0,0c-4.2,1.4-9.9,2.7-14.1,4.2    c-63.8,17-100.4,35.4-100.4,73.6c0,24,5.8,39.5,18.5,63.8h72.1c-21.2-22.6-42.4-49.5-42.4-66.5c0-32.4,46.7-50.9,96.2-63.8h2.7    c28.3-7.1,67.9-18.5,67.9-36.8c0-11.4-9.9-24-19.8-34.1h-29.8v-2.9L171,341.3L171,341.3z" fill="#FFCE63"></path>
		<path d="M445.4,341.3h-32.4c15.6,9.9,35.4,24,34.1,34.1c-1.4,11.4-11.4,15.6-29.7,25.5c-7.1,2.7-14.1,7.1-22.6,11.4    c-4.2,1.4-7.1,4.2-11.4,5.8l0,0c-35.4,17-62.3,29.7-62.3,62.3c0,24,18.5,43.8,39.5,63.8h73.6c-42.4-28.3-65.1-46.7-65.1-66.5    c0-24,19.8-39.5,66.5-63.8c2.7-1.4,4.2-2.7,7.1-4.2c18.5-8.5,34.1-17,34.1-34.1C476.5,363.9,459.4,349.8,445.4,341.3L445.4,341.3z    " fill="#FFCE63"></path>
	</g>
	<path d="M95.9,267.7v21.2c0,14.1,14.1,21.2,21.2,21.2h28.3c7.1,0,21.2-7.1,21.2-21.2v-21.2H369v21.2c0,14.1,14.1,21.2,21.2,21.2   h28.3c7.1,0,21.2-7.1,21.2-21.2v-21.2l0,0v-116l-27-42.4h27V81.1h-45.3l-29.7-48.2c0,0-41-11.4-99.1-11.4s-99.1,11.4-99.1,11.4   l-29.7,48.2H93.1v28.3h29.7l-27,42.4L95.9,267.7L95.9,267.7L95.9,267.7z M408.5,151.7v50.9h-28.3l-14.1-21.2h-36.8l-21.2-28.3   h100.4L408.5,151.7L408.5,151.7z M189.3,58.4c4.2-1.4,8.5-1.4,14.1-2.7c17-2.7,39.5-5.8,66.5-5.8s50.9,2.7,66.5,5.8   c5.8,1.4,9.8,1.4,14.1,2.7l41,65.1H148.4L189.3,58.4L189.3,58.4z M132.8,151.7h101.8L213.4,180h-36.8l-14.1,21.2h-28.3v-49.5H132.8   z" fill="#FFCE63"></path>
</g>
</svg>