<?xml version='1.0' encoding='utf-8'?>
<!-- Generator: Adobe Illustrator 27.2.0, SVG Export Plug-In . SVG Version: 6.00 Build 0)  --><svg xmlns="http://www.w3.org/2000/svg" xmlns:xlink="http://www.w3.org/1999/xlink" version="1.1" id="Vrstva_1" x="0px" y="0px" viewBox="0 0 636.4 566.9" style="enable-background:new 0 0 636.4 566.9;" xml:space="preserve" width="449.03864" height="400.0">
<style type="text/css">
	.st0{fill-rule:evenodd;clip-rule:evenodd;}
</style>
<g>
	<path class="st0" d="M628.9,20.9H56.5v202.7c20.2-21.9,50.6-37.2,84.4-37.2c64.2,0,114.8,50.6,114.8,114.9   c0,21.9-6.8,42.1-16.8,60.8l76-55.7c35.5-25.3,82.7-18.5,109.8,16.8c23.6,32.1,18.5,75.9-8.5,101.3h214.4V20.9H628.9z M580,107   H318.2V68.3h261.7V107H580z M580,178H318.2v-38.9h261.7V178H580z M318.2,250.6h261.7v-38.9H318.2L318.2,250.6L318.2,250.6z"></path>
	<path class="st0" d="M206.9,304.6c0,37.2-30.4,67.6-67.6,67.6s-67.6-30.4-67.6-67.6s30.4-67.6,67.6-67.6S206.9,267.4,206.9,304.6z    M274.4,534.2V546H5.8v-11.9c0-75.9,60.8-136.8,133.4-136.8c33.8,0,64.2,11.9,87.8,33.8l113.1-84.4c13.6-10.2,32.1-6.8,42.1,6.8   c10.2,13.6,6.8,32.1-6.8,42.1l-113.1,84.4C271,497.1,274.4,515.6,274.4,534.2L274.4,534.2z"></path>
</g>
</svg>