<?xml version='1.0' encoding='utf-8'?>
<svg xmlns="http://www.w3.org/2000/svg" id="Vrstva_1" data-name="Vrstva 1" viewBox="0 0 573.71 566.93" width="404.7837" height="400.0">
  <defs>
    <style>
      .cls-1 {
        fill-rule: evenodd;
      }
    </style>
  </defs>
  <path d="m331.4,136.34h62.58l-8.94,18.99h-35.76v28.48h-17.88v-47.46Z" fill="#51F093"></path>
  <path d="m447.62,136.34h62.58v47.46s-17.88,0-17.88,0v-28.48h-35.76l-8.94-18.99Z" fill="#51F093"></path>
  <path class="cls-1" d="m338.79,13.88c12.28-2.14,42.6-6.61,82.05-6.61s69.78,4.47,82.05,6.61l8.57,1.5,56.95,100.39-.02,131.35c0,11.35-4.86,21.11-12.81,27.71-7.59,6.3-17.1,9.03-26.15,9.03s-18.56-2.73-26.15-9.07c-7.29-6.09-11.93-14.83-12.63-24.98h-139.52l-.02.13h-77.38c-.26-1.93-.39-3.91-.39-5.93V115.77s56.86-100.4,56.86-100.4l8.58-1.5Zm14.84,34.97l-18.23,32.18h170.91l-18.26-32.18c-13.91-2.04-37.8-4.71-67.22-4.71s-53.29,2.67-67.2,4.71Zm-43.4,76.64l4.29-7.57h212.71l4.3,7.58-.03,87.38h-18.1v.06h-177.72v-.06h-25.45v-87.38Z" fill="#51F093"></path>
  <path d="m57.26,287.42L5.29,235.45l22.32-22.32,51.97,51.97v-40.81h31.57v94.7H16.45v-31.57h40.81Z" fill="#51F093"></path>
  <path d="m403.04,559.66c8.51-16.64,14.25-34.94,16.59-54.28h-32.31v-39.46h32.31c-3.65-30.17-15.55-57.8-33.38-80.56l-22.87,22.87-27.9-27.9,22.87-22.87c-22.77-17.83-50.41-29.73-80.59-33.37v32.31h-39.46v-32.29c-30.14,3.66-57.75,15.55-80.49,33.37l22.75,22.75-27.9,27.9-22.75-22.75c-17.82,22.75-29.72,50.37-33.36,80.53h32.07v39.46h-32.07c2.34,19.34,8.07,37.64,16.58,54.28h-43.25c-9.02-22.92-13.98-47.89-13.98-74.02,0-111.66,90.52-202.18,202.18-202.18s202.18,90.52,202.18,202.18c0,26.13-4.96,51.09-13.98,74.02h-43.25Z" fill="#51F093"></path>
  <path d="m176.74,432.21l44,44c-.76,3.02-1.17,6.18-1.17,9.44,0,21.27,17.24,38.51,38.51,38.51s38.51-17.24,38.51-38.51-17.24-38.51-38.51-38.51c-3.26,0-6.43.41-9.45,1.17l-44-44-27.9,27.9Z" fill="#51F093"></path>
</svg>