<?xml version='1.0' encoding='utf-8'?>
<svg xmlns="http://www.w3.org/2000/svg" id="Vrstva_1" data-name="Vrstva 1" viewBox="0 0 482.53 566.93" width="340.4512" height="400.0">
  <defs>
    <style>
      .cls-1 {
        fill-rule: evenodd;
      }
    </style>
  </defs>
  <path class="cls-1" d="m437.51,263.74c-2.4,24.16-9.16,47.04-19.48,67.84h43.17c10.79-27.08,16.73-56.63,16.73-87.57,0-130.71-105.96-236.66-236.66-236.66S4.6,113.31,4.6,244.02c0,30.93,5.94,60.48,16.73,87.57h43.17c-10.32-20.8-17.08-43.68-19.48-67.84h39.69c-.8-6.46-1.22-13.04-1.22-19.72s.42-13.26,1.22-19.72h-39.69c3.94-39.65,19.62-75.85,43.51-105.06l28.07,28.07c8.1-10.42,17.47-19.8,27.88-27.9l-28.07-28.06c29.23-23.93,65.45-39.63,105.13-43.57v39.69c6.46-.8,13.04-1.22,19.72-1.22s13.26.42,19.72,1.22v-39.69c39.65,3.94,75.85,19.62,105.06,43.51l-28.07,28.07c10.42,8.1,19.8,17.47,27.9,27.88l28.06-28.07c23.93,29.23,39.63,65.45,43.57,105.13h-39.69c.8,6.46,1.22,13.04,1.22,19.72s-.42,13.26-1.22,19.72h39.69Zm-234.35-29.94l-54.73-54.72,27.89-27.89,54.72,54.73c3.26-.87,6.68-1.34,10.22-1.34,21.78,0,39.44,17.66,39.44,39.44s-17.66,39.44-39.44,39.44-39.44-17.66-39.44-39.44c0-3.53.46-6.96,1.34-10.22ZM45.12,559.57v-188.32h38.86v153.16h71.19v35.17H45.12Zm136.05-188.32v188.32h38.86v-188.32h-38.86Zm75.19,0v188.32h35.45v-101.25l42.26,101.25h25.81l41.98-101.82v101.82h35.45v-188.32h-34.6l-55.02,135.57-56.44-135.57h-34.89Z" fill="#51F093"></path>
</svg>