<?xml version='1.0' encoding='utf-8'?>
<!-- Generator: Adobe Illustrator 27.2.0, SVG Export Plug-In . SVG Version: 6.00 Build 0)  --><svg xmlns="http://www.w3.org/2000/svg" xmlns:xlink="http://www.w3.org/1999/xlink" version="1.1" id="Vrstva_1" x="0px" y="0px" viewBox="0 0 608.4 566.9" style="enable-background:new 0 0 608.4 566.9;" xml:space="preserve" width="429.28207" height="400.0">
<g>
	<path d="M390.2,117.8V20.4H216.5v97.4c-42.2,27.5-69.8,76.2-69.8,131.5c0,87.7,69.8,157.4,157.4,157.4S461.6,337,461.6,249.3   C461.6,194.2,432.4,145.5,390.2,117.8L390.2,117.8z M250.7,54.6h107.2V100c-16.2-6.5-34-9.7-53.5-9.7s-37.3,3.2-53.5,9.7   L250.7,54.6L250.7,54.6L250.7,54.6z M302.5,372.8c-68.2,0-123.4-55.2-123.4-123.4S234.3,126,302.5,126s123.4,55.2,123.4,123.4   C427.6,317.6,372.4,372.8,302.5,372.8z" fill="#FFCE63"></path>
	<g>
		<rect x="5.5" y="231.5" width="69.8" height="34" fill="#FFCE63"></rect>
		<rect x="101.1" y="27.2" transform="matrix(0.7071 -0.7071 0.7071 0.7071 -9.3174 101.6825)" width="34" height="69.8" fill="#FFCE63"></rect>
		<rect x="287.9" y="476.8" width="34" height="69.8" fill="#FFCE63"></rect>
		<rect x="83.4" y="418.4" transform="matrix(0.7071 -0.7071 0.7071 0.7071 -273.2254 211.1754)" width="69.8" height="34" fill="#FFCE63"></rect>
		<rect x="474.7" y="400.2" transform="matrix(0.7071 -0.7071 0.7071 0.7071 -163.6474 475.1285)" width="34" height="69.8" fill="#FFCE63"></rect>
		<rect x="533.2" y="231.5" width="69.8" height="34" fill="#FFCE63"></rect>
		<rect x="456.5" y="44.7" transform="matrix(0.7071 -0.7071 0.7071 0.7071 100.3145 365.5375)" width="69.8" height="34" fill="#FFCE63"></rect>
	</g>
	<g>
		<circle cx="304.2" cy="307.9" r="21" fill="#FFCE63"></circle>
		<rect x="288" y="160" width="34" height="95.7" fill="#FFCE63"></rect>
	</g>
</g>
</svg>