<?xml version='1.0' encoding='utf-8'?>
<svg xmlns="http://www.w3.org/2000/svg" id="Vrstva_1" data-name="Vrstva 1" viewBox="0 0 758.58 566.93" width="535.21954" height="400.0">
  <path d="m379.2,227.39c48.59,0,85.94,5.19,101.04,7.67l10.37,1.7,5.43,9,62.01,102.95,3.26,5.43v6.32l-.03,146.99c0,26.1-21.16,47.27-47.27,47.27h-6.11c-24.6,0-44.81-18.8-47.06-42.81h-163.29c-2.25,24.01-22.46,42.8-47.06,42.81h-6.02c-26.11,0-47.27-21.17-47.27-47.27v-153.31l3.26-5.41,61.9-102.95,5.43-9.01,10.39-1.7c15.1-2.48,52.44-7.67,101.02-7.67ZM65.84,508.11H8.25l39.65-158.37h49.67l-31.72,158.37Zm684.49,0h-57.59l-31.72-158.37h49.67l39.65,158.37Zm-501.23-84.49h26.01v-39.02h52.03l13.01-26.01h-91.06v65.03Zm182.11-39.02h52.03v39.02h26.01v-65.03h-91.06l13.01,26.01Zm-52.01-111.71c-36.53,0-66.16,3.15-83.34,5.53l-21.02,34.94h208.79l-21.05-34.94c-17.18-2.38-46.83-5.53-83.37-5.53Zm-268.83,12.88h-46.46l36.06-143.98h39.25l-28.84,143.98Zm584.29,0h-46.46l-28.84-143.98h39.25l36.06,143.98ZM148.83,93.8h-36.85l20.44-81.59h32.76l-16.34,81.59Zm497.77,0h-36.85l-16.34-81.59h32.76l20.44,81.59Z" fill="#808080"></path>
</svg>