<?xml version='1.0' encoding='utf-8'?>
<svg xmlns="http://www.w3.org/2000/svg" id="Vrstva_1" data-name="Vrstva 1" viewBox="0 0 519.59 566.93" width="366.5991" height="400.0">
  <defs>
    <style>
      .cls-1 {
        fill-rule: evenodd;
      }
    </style>
  </defs>
  <path d="m457.89,179.47c-31.3,0-56-24.6-56-56s24.6-56,56-56,56,24.6,56,56-24.6,56-56,56Z" fill="#FFCE63"></path>
  <path d="m125.39,173.97c0,7.6-2.6,15-6.8,24.3-5.1,11.9-9.7,36.2,26.9,37.9,28.1,1.7,58.7-28.1,57-52.7-.9-26.4-25.4-45.5-53.2-47.9-4.9-.4-7.5-3.1-7.5-7.4,0-7.7,12.2-10.6,18-10.6,7.6,0,15,2.6,24.3,6.8,11.9,5.1,36.2,9.7,37.9-26.9,1.7-28.1-28.1-58.7-52.7-57-26.4.9-45.7,26.2-48.1,53.2-.4,4.9-2.9,7.5-7.2,7.5-8.8,0-10.6-11.7-10.6-18,0-7.7,2.6-15,6.8-24.3,5.1-11.9,9.7-36.2-26.9-37.9-28.1-1.7-58.7,28.1-57,52.7.9,26.4,25.5,45.7,53.2,48.1,4.9.4,7.5,2.9,7.5,7.2,0,8.3-13.2,10.6-19.2,10.6-7.7,0-13.8-2.6-23.1-6.8-11.8-5-36.1-9.6-37.8,26.9-1.7,28.1,28.1,58.7,52.7,57,26.4-.9,45.7-26.1,48.1-53.2.4-4.9,2.9-7.5,7.2-7.5,8.9,0,10.5,12.1,10.5,18h0Z" fill="#FFCE63"></path>
  <path class="cls-1" d="m469.39,211.47c22,13.5,28.8,42.2,15.4,64.2l-98.5,160.5c-11.6,18.9-34.9,27-55.8,19.4l-107.5-39.4-114.6,116c-18.1,18.3-47.6,18.5-66,.4-18.3-18.1-18.5-47.6-.4-66l135.7-137.4c12.8-13,32.1-17.3,49.2-11l99.9,36.5,78.5-128c13.5-21.8,42.2-28.6,64.1-15.2h0Z" fill="#FFCE63"></path>
</svg>