<?xml version='1.0' encoding='utf-8'?>
<!-- Generator: Adobe Illustrator 27.2.0, SVG Export Plug-In . SVG Version: 6.00 Build 0)  --><svg xmlns="http://www.w3.org/2000/svg" xmlns:xlink="http://www.w3.org/1999/xlink" version="1.1" id="Vrstva_1" x="0px" y="0px" viewBox="0 0 762.4 566.9" style="enable-background:new 0 0 762.4 566.9;" xml:space="preserve" width="537.9432" height="400.0">
<g>
	<path d="M176.2,462.6V477l-43.8,19.3l43.8,19.9v14.4l-62.8-29.4v-9.8L176.2,462.6L176.2,462.6z M113.4,548.5v-11.5h62.8v11.5H113.4   z"></path>
	<path d="M273,522v12.7h-15v22.5h-14.4v-22.5h-51.9v-9.2l55.3-69.7h11V522L273,522L273,522z M210.5,522h33.1v-41.2L210.5,522   L210.5,522z"></path>
	<path d="M290.9,545.5c-6.5-8.9-9.8-21.9-9.8-39.1c0-17.2,3.3-30.2,9.8-39.1c6.5-8.9,15.9-13.3,28.2-13.3s21.7,4.4,28.2,13.3   c6.5,8.9,9.8,21.9,9.8,39.1c0,17.2-3.3,30.2-9.8,39.1c-6.5,8.9-15.9,13.3-28.2,13.3S297.4,554.4,290.9,545.5L290.9,545.5z    M336,535.6c3.7-6.3,5.6-16,5.6-29.2c0-13.1-1.9-22.9-5.6-29.2c-3.8-6.3-9.4-9.4-16.9-9.4s-13.1,3.1-16.9,9.4s-5.6,16-5.6,29.2   s1.9,22.9,5.6,29.2c3.7,6.3,9.4,9.4,16.9,9.4S332.2,541.9,336,535.6L336,535.6z"></path>
	<path d="M377.3,545.5c-6.5-8.9-9.8-21.9-9.8-39.1c0-17.2,3.3-30.2,9.8-39.1c6.5-8.9,15.9-13.3,28.2-13.3s21.7,4.4,28.2,13.3   c6.5,8.9,9.8,21.9,9.8,39.1c0,17.2-3.3,30.2-9.8,39.1c-6.5,8.9-15.9,13.3-28.2,13.3S383.9,554.4,377.3,545.5z M422.4,535.6   c3.8-6.3,5.6-16,5.6-29.2c0-13.1-1.9-22.9-5.6-29.2c-3.7-6.3-9.4-9.4-16.9-9.4s-13.1,3.1-16.9,9.4s-5.6,16-5.6,29.2   s1.9,22.9,5.6,29.2c3.8,6.3,9.4,9.4,16.9,9.4S418.7,541.9,422.4,535.6z"></path>
	<path d="M463.8,545.5c-6.5-8.9-9.8-21.9-9.8-39.1c0-17.2,3.3-30.2,9.8-39.1c6.5-8.9,15.9-13.3,28.2-13.3s21.7,4.4,28.2,13.3   c6.5,8.9,9.8,21.9,9.8,39.1c0,17.2-3.3,30.2-9.8,39.1c-6.5,8.9-15.9,13.3-28.2,13.3S470.3,554.4,463.8,545.5L463.8,545.5   L463.8,545.5z M508.9,535.6c3.8-6.3,5.6-16,5.6-29.2c0-13.1-1.9-22.9-5.6-29.2c-3.7-6.3-9.4-9.4-16.9-9.4s-13.1,3.1-16.9,9.4   s-5.6,16-5.6,29.2s1.9,22.9,5.6,29.2c3.8,6.3,9.4,9.4,16.9,9.4S505.1,541.9,508.9,535.6z"></path>
	<path d="M637.8,487.6c4.1,2.5,7.3,5.9,9.4,10.2c2.2,4.4,3.2,9.4,3.2,14.9v44.4h-14.4v-42.7c0-6.2-1.4-10.7-4.3-13.3   c-2.9-2.6-6.8-4-11.8-4c-3.1,0-6.2,0.7-9.2,2.1c-3.1,1.4-5.2,3.1-6.5,5.3c0.5,2.9,0.7,5.6,0.7,8.2v44.4h-14.4v-42.7   c0-5.9-1.5-10.3-4.6-13.1s-7.1-4.2-12.1-4.2c-2.9,0-5.6,0.7-8.2,2.1c-2.6,1.4-4.8,3.2-6.8,5.4v52.4h-14.4v-71.5h10.4l4,7.5   c2-3,4.6-5.3,7.8-6.8c3.2-1.6,6.7-2.4,10.7-2.4c5.3,0,9.8,0.9,13.6,2.7c3.8,1.8,6.8,4.4,9.2,7.8c3-3.8,6.3-6.4,10.1-8.1   s8-2.5,12.7-2.5C628.7,483.9,633.7,485.1,637.8,487.6L637.8,487.6z"></path>
	<polygon points="3.9,411.5 198.3,8.1 318.6,253.6 378.2,132 437.7,252.3 479,160 492.4,169.7 562.9,8.1 758.5,411.5  "></polygon>
</g>
</svg>