<?xml version='1.0' encoding='utf-8'?>
<!-- Generator: Adobe Illustrator 27.2.0, SVG Export Plug-In . SVG Version: 6.00 Build 0)  --><svg xmlns="http://www.w3.org/2000/svg" xmlns:xlink="http://www.w3.org/1999/xlink" version="1.1" id="Vrstva_1" x="0px" y="0px" viewBox="0 0 416.4 566.9" style="enable-background:new 0 0 416.4 566.9;" xml:space="preserve" width="293.8084" height="400.0">
<style type="text/css">
	.st0{fill:#7F8584;}
	.st1{fill:#C83C24;}
</style>
<g>
	<path class="st0" d="M299.6,218.2c0,49.5-27,92.5-64.3,117.9V98.8C272.6,125.8,299.6,167.6,299.6,218.2L299.6,218.2z M203.9,82.3   v412.2L148.4,451v-85.1c-79-1.4-144.9-65.7-144.9-146.4S69.3,73.1,150.1,73.1C170.9,71.9,187.5,74.8,203.9,82.3L203.9,82.3z    M150,309.5V127.1c-49.3,1.5-89.6,41.8-89.6,91.1S100.8,307.8,150,309.5z M233.9,7.7c-16.5,0-28.3,13.3-28.3,28.3   c0,16.5,13.3,28.3,28.3,28.3S262.2,51,262.2,36S250.3,7.7,233.9,7.7z"></path>
	<path class="st1" d="M283,458.9l-64.3-59.6c-8.9-7.5-8.9-20.8-1.4-30c7.5-9,20.8-8.9,30-1.4l64.3,59.6l61.2-64.3   c7.5-8.9,20.8-8.9,30,0c8.9,8.9,8.9,20.8,0,30l-61.2,64.3l64.3,59.6c8.9,7.5,8.9,20.8,1.4,30c-4.6,4.6-10.6,7.5-15,7.5   s-10.6-1.4-15-6.1l-64.5-59.7l-61.2,64.3c-4.6,4.6-8.9,6.1-15,6.1s-10.6-1.4-15-6.1c-8.9-7.5-8.9-20.8,0-30L283,458.9L283,458.9   L283,458.9z"></path>
</g>
</svg>