<?xml version='1.0' encoding='utf-8'?>
<svg xmlns="http://www.w3.org/2000/svg" id="Vrstva_1" data-name="Vrstva 1" viewBox="0 0 501.01 566.93" width="353.48987" height="400.0">
  <defs>
    <style>
      .cls-1 {
        fill: #fff;
      }

      .cls-2, .cls-3 {
        fill: #dc1a18;
      }

      .cls-3 {
        fill-rule: evenodd;
      }
    </style>
  </defs>
  <g>
    <path d="m435.93,17.72c-15.4,0-27.89,12.49-27.89,27.89v83.67h74.38V17.72h-46.49Z"></path>
    <path class="cls-1" d="m482.41,17.72v111.57h-74.38V45.61c0-15.4,12.49-27.89,27.89-27.89h46.49m11.34-11.34h-57.83c-21.63,0-39.23,17.6-39.23,39.23v95.01h97.05V6.38h0Z"></path>
  </g>
  <g>
    <path d="m410.63,538.36l71.77-371.89h-74.38l-84.73,115.93c-8.9,10.36-13.69,23.64-13.46,37.3l1.5,88.5-21.17-3.25c1.42,4.6,3.06,9.49,4.96,14.68l.21.57.1.28c10.05,29.04,15.08,59.41,9.96,89.02-1.75,10.14-4.63,19.77-8.57,28.85h113.81Z"></path>
    <path class="cls-1" d="m482.4,166.47l-71.77,371.89h-113.81c3.94-9.09,6.82-18.72,8.57-28.86,5.12-29.61.1-59.98-9.96-89.02l-.1-.28-.21-.57c-1.9-5.19-3.54-10.08-4.96-14.68l21.17,3.25-1.5-88.5c-.23-13.66,4.56-26.93,13.46-37.3l84.73-115.93h74.38m13.74-11.34h-93.87l-3.4,4.65-84.47,115.59c-10.53,12.43-16.17,28.22-15.9,44.52l1.27,75.06-7.88-1.21-17.87-2.75,5.31,17.28c1.51,4.91,3.24,10.04,5.15,15.25l.17.47.06.18c10.59,30.59,13.79,58.64,9.5,83.39-1.59,9.16-4.21,18-7.8,26.26l-6.89,15.86h17.29s113.81.01,113.81.01h9.36s1.77-9.19,1.77-9.19l71.77-371.89,2.6-13.49h0Z"></path>
  </g>
  <g>
    <path d="m41.32,517.17l11.98-9.66c6.14-4.95,8.52-9.57,9.52-15.35,1.23-7.09.76-19.16-5.72-38.02-8.31-22.76-13.72-43.61-16.59-62.72-19.12,16.94-30.08,43.99-21.22,67.44l22.03,58.31Z"></path>
    <path class="cls-1" d="m40.51,391.42c2.87,19.12,8.28,39.96,16.59,62.72,6.48,18.85,6.95,30.93,5.72,38.02-1,5.78-3.38,10.4-9.52,15.35l-11.98,9.66-22.03-58.31c-8.86-23.46,2.1-50.5,21.22-67.44m8.12-22.34l-15.64,13.85c-24.43,21.64-34.19,53.77-24.3,79.94l22.03,58.31,5.53,14.65,12.19-9.83,11.98-9.66c7.82-6.3,12-13.16,13.57-22.24,1.96-11.33-.11-26.01-6.17-43.64l-.03-.1-.04-.1c-7.83-21.46-13.23-41.83-16.03-60.52l-3.1-20.66h0Z"></path>
  </g>
  <path class="cls-3" d="m106.62,349.36c-1.74,18.15.96,44.48,14.6,81.71l.11.29c8.92,25.76,12.45,50.15,8.61,72.36-3.92,22.68-15.34,41.85-33.92,56.83l-21.82-27.06c12.24-9.87,19.05-21.63,21.49-35.7,2.51-14.5.54-32.63-7.16-54.92-14.84-40.56-18.87-72.17-16.51-96.83l34.6,3.32Z"></path>
  <path class="cls-2" d="m57.72,350.74l30.86-82.44,31.71,82.44h-62.57Z"></path>
  <path class="cls-3" d="m177.8,349.36c-1.74,18.15.96,44.48,14.6,81.71l.11.29c8.92,25.76,12.45,50.15,8.61,72.36-3.92,22.68-15.34,41.85-33.92,56.83l-21.82-27.06c12.24-9.87,19.05-21.63,21.49-35.7,2.51-14.5.54-32.63-7.16-54.92-14.84-40.56-18.87-72.17-16.51-96.83l34.6,3.32Z"></path>
  <path class="cls-2" d="m128.9,350.74l30.86-82.44,31.71,82.44h-62.57Z"></path>
  <path class="cls-3" d="m248.99,349.36c-1.74,18.15.96,44.48,14.6,81.71l.11.29c8.92,25.76,12.45,50.15,8.61,72.36-3.92,22.68-15.34,41.85-33.92,56.83l-21.82-27.06c12.24-9.87,19.05-21.63,21.49-35.7,2.51-14.5.54-32.63-7.16-54.92-14.84-40.56-18.87-72.17-16.51-96.83l34.6,3.32Z"></path>
  <path class="cls-2" d="m200.08,350.74l30.86-82.44,31.71,82.44h-62.57Z"></path>
</svg>