<?xml version='1.0' encoding='utf-8'?>
<!-- Generator: Adobe Illustrator 27.2.0, SVG Export Plug-In . SVG Version: 6.00 Build 0)  --><svg xmlns="http://www.w3.org/2000/svg" xmlns:xlink="http://www.w3.org/1999/xlink" version="1.1" id="Vrstva_1" x="0px" y="0px" viewBox="0 0 575.4 566.9" style="enable-background:new 0 0 575.4 566.9;" xml:space="preserve" width="405.99753" height="400.0">
<style type="text/css">
	.st0{fill-rule:evenodd;clip-rule:evenodd;}
</style>
<g>
	<path class="st0" d="M5.2,36.2v365.9c0,16.9,10.7,27.5,27.6,27.5h168.5V302.6h56.6V36.2c0-16.9-10.7-27.5-27.5-27.5H34.4   C17.5,8.7,5.2,19.4,5.2,36.2L5.2,36.2z M61.8,125.1h140.8V91.4H61.8L61.8,125.1L61.8,125.1z M159.8,347.1   c0,15.4-12.3,27.5-27.5,27.5s-27.6-12.3-27.6-27.5s12.3-27.5,27.6-27.5S159.8,331.7,159.8,347.1z"></path>
	<path class="st0" d="M329.7,347.1L443,276.6v281.7L329.7,488h-84.3V347.1H329.7L329.7,347.1z"></path>
	<path class="st0" d="M470.5,317.8L470.5,317.8v23l0,0c42.8,0,76.5,33.7,76.5,76.5s-33.7,76.5-76.5,76.5l0,0v23l0,0   c55.1,0,99.6-44.4,99.6-99.6S525.8,317.8,470.5,317.8L470.5,317.8z"></path>
	<path class="st0" d="M470.5,373.1v23c12.3,0,21.4,9.1,21.4,21.4s-9.1,21.4-21.4,21.4v23c24.5,0,44.4-19.8,44.4-44.4   S495.1,373.1,470.5,373.1z"></path>
</g>
</svg>