<?xml version='1.0' encoding='utf-8'?>
<!-- Generator: Adobe Illustrator 27.2.0, SVG Export Plug-In . SVG Version: 6.00 Build 0)  --><svg xmlns="http://www.w3.org/2000/svg" xmlns:xlink="http://www.w3.org/1999/xlink" version="1.1" id="Vrstva_1" x="0px" y="0px" viewBox="0 0 321.4 566.9" style="enable-background:new 0 0 321.4 566.9;" xml:space="preserve" width="226.7772" height="400.0">
<g>
	<path d="M175.4,389.8H147v169.4h28.4V389.8L175.4,389.8z"></path>
	<path d="M97.8,88.8l10.5,10.5l37.4,36.1V7.7L88.8,78.2L97.8,88.8L97.8,88.8z"></path>
	<path d="M311.9,195.2l-12,12l-13.5,12L178.7,326.9v63c37.4-4.6,73.5-22.4,98.9-50.9c25.4-28.4,38.9-66,38.9-103.4   C316.4,222.1,314.9,208.5,311.9,195.2L311.9,195.2z"></path>
	<path d="M22.8,207l-12-12c-3,13.5-6,26.9-6,40.4c0,37.4,13.5,75,38.9,103.4c25.4,28.4,59.9,46.5,98.9,50.9v-63L34.8,219L22.8,207   L22.8,207z"></path>
	<path d="M225.1,88.8l10.5-10.5l-57-70.5v127.3L216,99.1L225.1,88.8L225.1,88.8z"></path>
	<path d="M296.9,159.1c-3-6-7.5-12-12-18L258,106.6l-10.5,10.5l-10.5,10.5l-58.5,58.4v91.3L296.9,159.1L296.9,159.1z"></path>
	<path d="M75.2,117.2l-10.5-10.5l-22.4,28.4l-6,6c-4.6,6-7.5,12-12,18l10.5,10.5l10.5,10.5l97.4,97.4v-91.3l-58.4-58.3L75.2,117.2   L75.2,117.2z"></path>
</g>
</svg>