<?xml version='1.0' encoding='utf-8'?>
<!-- Generator: Adobe Illustrator 27.2.0, SVG Export Plug-In . SVG Version: 6.00 Build 0)  --><svg xmlns="http://www.w3.org/2000/svg" xmlns:xlink="http://www.w3.org/1999/xlink" version="1.1" id="Vrstva_1" x="0px" y="0px" viewBox="0 0 421.4 566.9" style="enable-background:new 0 0 421.4 566.9;" xml:space="preserve" width="297.33636" height="400.0">
<path d="M72,516.6h277.5l8.9-344.6h58.2v-39.3h-114v-29.2c0-29.2-21.6-53.2-54.5-53.2h-74.8c-32.9,0-54.5,24-54.5,53.2v29.2H4.8V172  h58.4L72,516.6L72,516.6z M162,106.1c0-10.2,8.9-19,19-19h60.8c10.2,0,19,8.9,19,19v25.3H162L162,106.1L162,106.1z M150.5,457.1  V201.1h32.9V457h-32.9V457.1z M238,457.1V201.1h32.9V457H238V457.1z"></path>
</svg>