<?xml version='1.0' encoding='utf-8'?>
<!-- Generator: Adobe Illustrator 27.2.0, SVG Export Plug-In . SVG Version: 6.00 Build 0)  --><svg xmlns="http://www.w3.org/2000/svg" xmlns:xlink="http://www.w3.org/1999/xlink" version="1.1" id="Vrstva_1" x="0px" y="0px" viewBox="0 0 639.4 566.9" style="enable-background:new 0 0 639.4 566.9;" xml:space="preserve" width="451.15543" height="400.0">
<g>
	<path d="M632.8,507.7c-1.1-3.6-4.6-10.4-6.5-13.6c-0.1-0.1-0.2-0.4-0.3-0.5c-36.6-56.1-140.6-228.1-140.6-228.1l-87.8-142.2   l-32.4-52.4c0,0-10.5-17.1-14-22.8c-1.1-1.7-3.2-5.2-4.3-7c-0.5-0.8-1.4-2.3-1.9-3c-0.2-0.3-0.4-0.8-0.6-1.1   c-2.4-3.2-7.5-9.6-10.9-11.7c-3-1.9-10.1-4-13.7-4s-10.7,2.1-13.7,4c-3.4,2.1-8.4,8.6-10.9,11.7c-0.1,0.1-0.2,0.4-0.3,0.5   C258.1,93.6,154,265.6,154,265.6L66.2,407.9l-32.2,52.4c0,0-10.6,17.1-14.1,22.9c-1.1,1.7-3.2,5.2-4.3,6.9c-0.5,0.8-1.4,2.2-1.9,3   c-0.2,0.3-0.4,0.8-0.6,1.1c-1.7,3.3-5.3,10-6.4,13.5c-0.9,2.9-1.8,9-1.9,12.1c0,2.1,0.5,6.3,1.1,8.3c0.4,1.3,1.5,4,2.4,5.1   c1.7,2.2,5.9,5.8,8.3,7.1c2.6,1.5,8.4,3.2,11.3,3.8c4.1,0.9,16.8,1.4,16.8,1.4h548.9c0.3,0,0.9,0,1.2,0c5.8-0.4,17.7-1.2,23.2-3.2   c3.3-1.2,9.5-4.8,11.8-7.3c1.7-1.8,3.7-6.2,4.4-8.5c0.4-1.2,0.5-3.7,0.6-4.9c0-0.5,0-1.4,0-1.9   C634.4,516.7,633.7,510.6,632.8,507.7L632.8,507.7L632.8,507.7L632.8,507.7z M73.7,491.3L319.7,86.8l245.9,404.5L73.7,491.3   L73.7,491.3z"></path>
	<polygon points="293.8,150.7 347.1,150.7 296.9,307.4 380,274.4 317.9,438.9 343.5,437.6 300.1,478.2 284.2,421.9 303.3,434.7    324,310.6 255.9,336.9  "></polygon>
</g>
</svg>