<?xml version='1.0' encoding='utf-8'?>
<svg xmlns="http://www.w3.org/2000/svg" id="Vrstva_1" data-name="Vrstva 1" viewBox="0 0 343.09 566.93" width="242.0687" height="400.0">
  <path d="m5.84,47.36h172.1c26.55,0,50.26,5.22,71.12,15.65,21.33,9.96,37.93,23.94,49.78,41.96,12.33,18.02,18.49,38.17,18.49,60.45,0,27.97-7.11,52.15-21.33,72.54-14.22,19.91-34.37,35.56-60.45,46.94l-3.56-20.62c34.14,6.64,60.21,20.15,78.23,40.54,18.02,19.91,27.02,44.57,27.02,73.96s-6.16,54.05-18.49,75.38c-12.33,20.86-30.1,36.98-53.34,48.36-23.23,11.38-50.49,17.07-81.78,17.07H5.84V47.36Zm174.95,393.27c13.75,0,25.13-2.37,34.14-7.11,9.48-5.22,16.59-12.33,21.33-21.33,4.74-9.48,7.11-20.39,7.11-32.71,0-11.38-2.37-21.57-7.11-30.58-4.74-9.01-11.85-16.12-21.33-21.33-9.48-5.22-21.1-7.82-34.85-7.82h-92.45v-74.67h79.65c13.28,0,24.42-2.84,33.42-8.53,9.48-5.69,16.36-13.27,20.62-22.76,4.74-9.96,7.11-20.86,7.11-32.71,0-16.59-5.21-29.87-15.65-39.83-9.96-9.96-25.13-14.93-45.51-14.93h-70.41v314.34h83.92Z"></path>
</svg>