<?xml version='1.0' encoding='utf-8'?>
<!-- Generator: Adobe Illustrator 27.2.0, SVG Export Plug-In . SVG Version: 6.00 Build 0)  --><svg xmlns="http://www.w3.org/2000/svg" xmlns:xlink="http://www.w3.org/1999/xlink" version="1.1" id="Vrstva_1" x="0px" y="0px" viewBox="0 0 824.4 566.9" style="enable-background:new 0 0 824.4 566.9;" xml:space="preserve" width="581.6899" height="400.0">
<style type="text/css">
	.st0{fill:#7F8584;}
	.st1{fill:#66B6D3;}
</style>
<g>
	<g>
		<g>
			<path d="M809.7,165.7c-1.6-2.1-4.3-3.4-7-3.4h-73.5c-2.8,0-5.5,1.3-7.1,3.6L611.8,312.9c-1.5,2.1-2.1,4.8-1.6,7.3l21.1,98.1     L434,396c-19.6-2.8-39.8,10.7-49.8,25.7c-6.4,9.8-10,20.8-10,30.8c0,8.2,1.8,16,5.2,23.5L412,545c1.5,3.1,4.6,5,8,5h296.2     c4.2,0,7.7-2.8,8.6-6.8l86.3-369.8C812.1,170.6,811.3,167.8,809.7,165.7L809.7,165.7L809.7,165.7z M716.4,541H420.1l-32.5-69.1     c-2.1-4.5-4.3-11.1-4.3-19.6s3.3-17.8,8.5-25.9c8.8-13.2,26-23.9,41.1-21.7l209.8,23.8l-23.8-110.2l110.2-147.1h73.5L716.4,541     L716.4,541L716.4,541z"></path>
			<path d="M716.2,558H420c-6.5,0-12.5-3.8-15.2-9.6l-32.5-69.1c-4-8.6-6-17.6-6-26.9c0-11.5,4-24,11.2-35.1     c11-16.5,33.6-32.6,57.5-29.3l186.1,21l-18.8-87.5c-0.8-4.6,0.3-9.5,3-13.3l0.1-0.1L715.6,161c3.1-4.2,8.2-6.8,13.5-6.8h73.5     c5.1,0,10.1,2.4,13.3,6.5l0,0c3.3,4.2,4.4,9.7,2.9,14.7L732.6,545C730.9,552.7,724.2,558,716.2,558L716.2,558z M425.2,533H710     l82.6-353.8h-59.5l-105.7,141l25.3,117.6l-221.1-25.1c-12.1-1.8-26.5,7.9-33.3,18.2c-4.5,7-7.1,14.8-7.1,21.4     c0,5.7,1.2,11.2,3.6,16.2L425.2,533L425.2,533z"></path>
		</g>
		<g>
			<path d="M800.5,16.9h-49.8c-16,0-32.5,17.7-32.5,34.9v73.5c0,4.9,4,8.9,8.9,8.9h73.4c4.9,0,8.9-4,8.9-8.9V25.8     C809.4,20.9,805.4,16.9,800.5,16.9L800.5,16.9z M800.5,125.3h-73.4V51.8c0-12.9,12.9-26,23.6-26h49.8V125.3z"></path>
			<path d="M800.5,142.2h-73.4c-9.3,0-16.9-7.6-16.9-16.9V51.8c0-21.7,20.1-42.9,40.5-42.9h49.8c9.3,0,16.9,7.6,16.9,16.9v99.5     C817.4,134.7,809.8,142.2,800.5,142.2L800.5,142.2z M735.1,117.3h57.4V33.8h-41.8c-6.3,0-15.6,9.5-15.6,18V117.3z"></path>
		</g>
	</g>
	<g>
		<path class="st0" d="M201.6,184.3H32.9c-15.1,0-28.1-12.9-28.1-28.1s12.9-28.1,28.1-28.1h168.6c15.1,0,28.1,12.9,28.1,28.1    C231.9,171.2,219,184.3,201.6,184.3z"></path>
		<path class="st0" d="M201.6,335.7H32.9c-15.1,0-28.1-12.9-28.1-28.1s12.9-28.1,28.1-28.1h168.6c15.1,0,28.1,12.9,28.1,28.1    C231.9,322.7,219,335.7,201.6,335.7z"></path>
		<path class="st0" d="M201.6,484.8H32.9c-15.1,0-28.1-12.9-28.1-28.1s12.9-28.1,28.1-28.1h168.6c15.1,0,28.1,12.9,28.1,28.1    C231.9,471.9,219,484.8,201.6,484.8z"></path>
	</g>
	<path class="st1" d="M554.3,158.4c2.2-4.3,1.6-12.3,0-21.5c-4.3-26-26-45.5-54.1-45.5c-26,0-49.8,19.5-54.1,45.5h-2.2V48   c-4.3-2.2-12.3-2.4-21.5,0c-26,6.5-45.5,28.1-45.5,54.1s19.5,49.8,45.5,54.1v2.2h-88.7c-2.2,4.3-2.4,11.6,0,21.5   c6.5,26,28.1,45.5,54.1,45.5s49.8-19.5,54.1-45.5h2.2v88.7c4.3,2.2,13.4,2.2,21.5,0c26-6.5,45.5-28.1,45.5-54.1   s-19.6-49.9-45.5-54.1v-2.2L554.3,158.4L554.3,158.4L554.3,158.4z"></path>
</g>
</svg>