<?xml version='1.0' encoding='utf-8'?>
<!-- Generator: Adobe Illustrator 27.2.0, SVG Export Plug-In . SVG Version: 6.00 Build 0)  --><svg xmlns="http://www.w3.org/2000/svg" xmlns:xlink="http://www.w3.org/1999/xlink" version="1.1" id="Vrstva_1" x="0px" y="0px" viewBox="0 0 500.4 566.9" style="enable-background:new 0 0 500.4 566.9;" xml:space="preserve" width="353.07812" height="400.0">
<g>
	<path d="M494.9,291.3c0-93-44.4-177.4-70.1-213.3V19.5H392v70.1l2.8,4.3c22.8,30.1,65.8,108.9,65.8,197.5s-50.1,155.9-71.6,183.1   H111.6C90.2,447.2,40,375.8,40,291.3c0-88.7,43.1-167.5,65.8-197.5l2.8-4.3V19.5H75.7v58.6c-25.8,35.7-70.2,120-70.2,213.2   c0,47.2,12.8,90.2,30.1,125.8l0,0c1.4,2.8,2.8,5.8,4.3,7.2c0,1.4,1.4,1.4,1.4,2.8c34.4,70.1,28.6,103.1,31.5,110.2   c1.4,7.2,4.3,8.5,8.5,10.1h32.8v-40h43v40H190v-40h43v40h32.7v-40h43v40h32.8v-40h43v40h34.2c4.3,0,5.8-2.8,8.5-10.1   c2.8-7.2-1.4-40,31.5-108.9c0-1.4,1.4-2.8,1.4-4.3c1.4-2.8,2.8-4.3,2.8-7.2l0,0C480.6,382.9,494.9,338.5,494.9,291.3L494.9,291.3z" fill="#FFCE63"></path>
	<g>
		<circle cx="250.3" cy="382.9" r="32.8" fill="#FFCE63"></circle>
		<rect x="225.8" y="118.3" width="50.1" height="197.4" fill="#FFCE63"></rect>
	</g>
</g>
</svg>