<?xml version='1.0' encoding='utf-8'?>
<!-- Generator: Adobe Illustrator 27.2.0, SVG Export Plug-In . SVG Version: 6.00 Build 0)  --><svg xmlns="http://www.w3.org/2000/svg" xmlns:xlink="http://www.w3.org/1999/xlink" version="1.1" id="Vrstva_1" x="0px" y="0px" viewBox="0 0 451.4 566.9" style="enable-background:new 0 0 451.4 566.9;" xml:space="preserve" width="318.50412" height="400.0">
<path d="M177.6,180.2c-15.8,8-30.5,17.7-44.1,29c-13.6,11.3-22.9,23.4-32.8,36.3c-10,12.9-15.8,26.6-21.3,40  c-5.6,13.5-7.1,28.2-7.1,40.1c0,23.8,1.3,43,10.4,62.4c9.1,19.4,21,36.1,35.9,50c14.8,13.9,32.6,23.5,51.6,31.2s38.5,11.4,58.5,11.4  c13.1,0,26.1-1.7,39.1-5.1c13-3.4,25.3-8.4,37.1-14.8c11.7-6.4,19.3-13.2,29.4-22.5c10.1-9.3,18.8-19.8,26.1-31.5  c7.3-11.7,13.1-24.6,17.3-38.7c4.2-14.1,6.3-29,6.3-44.8s-2.7-30.7-8.2-44.7c-5.5-14-12.7-26.9-21.5-38.8  c-8.9-11.9-19-22.8-30.5-32.7c-11.4-9.9-23.1-18.8-35-26.8v-63.3c19.9,8,39.4,18.8,58.3,32.2c19,13.5,35.8,29.1,50.7,47  c14.8,17.9,26.8,37.6,35.9,59s13.6,44.1,13.6,68c0,31.6-5.6,61-16.8,88.2s-26.7,50.6-46.4,70.5s-43.2,35.3-70.3,46.6  c-27.1,11.2-56.5,16.8-88.2,16.8c-18.6,0-43.7-3.7-61-8.8c-17.4-5.1-31.2-8.8-48-17.8c-15.3-9.4-30.4-18.3-43-31.7  c-14.5-11.2-30.1-30.1-39.1-46.5S18,406.2,12.9,387c-5.1-19.2-7.6-39.4-7.6-60.5c0-23.8,6.2-47.4,12.4-68.9  c6.6-20.6,19-37.9,31.9-55.7s36.4-39.3,56.5-52.8c20-13.5,43.9-24.2,71.6-32.2L177.6,180.2L177.6,180.2L177.6,180.2L177.6,180.2z   M264.2,354.8V21.7h-63.3v333.1H264.2L264.2,354.8z"></path>
</svg>