<?xml version='1.0' encoding='utf-8'?>
<svg xmlns="http://www.w3.org/2000/svg" id="Vrstva_1" data-name="Vrstva 1" viewBox="0 0 616.95 566.93" width="435.29184" height="400.0">
  <defs>
    <style>
      .cls-1 {
        fill-rule: evenodd;
      }
    </style>
  </defs>
  <path class="cls-1" d="m298.57,71.28c31.45-30.63,73.57-49.35,119.87-49.35s88.43,18.73,119.87,49.35l-.02,110.17h75.3v43.59h-75.31l-.05,270.7c-31.43,30.57-73.52,49.26-119.77,49.26s-88.34-18.69-119.77-49.26l-.07-259.79-84.33,84.16-30.79-30.85,115.1-114.88-.03-103.1Zm66.88,188.2h106.36v-100.26s-22.89-15.26-52.57-15.26c-33.92,0-53.79,15.26-53.79,15.26v100.26Zm0,120.75h106.36v79.77s-22.89,15.26-52.57,15.26c-33.92,0-53.79-15.26-53.79-15.26v-79.77ZM206.28,80.67h-1.97s1.97,3.42,1.97,3.42v-3.42Zm-113.89,34.9l21.89,37.86c-40.75,28.81-67.34,76.25-67.34,129.87s26.65,101.17,67.48,129.97l-21.89,37.86C38.73,414.7,3.36,353.14,3.36,283.3S38.67,152.02,92.39,115.57Zm45.11,78.01l21.88,37.85c-16.16,11.6-26.67,30.53-26.67,51.88s10.57,40.39,26.8,51.98l-21.88,37.84c-29.22-19.21-48.51-52.25-48.51-89.82s19.23-70.51,48.37-89.73Zm68.78,292.36v-3.08l-1.78,3.07h1.78Z" fill="#FFCE63"></path>
</svg>