<?xml version='1.0' encoding='utf-8'?>
<svg xmlns="http://www.w3.org/2000/svg" id="Vrstva_1" data-name="Vrstva 1" viewBox="0 0 896.69 566.93" width="632.66364" height="400.0">
  <path d="m717.85,109.08c96.31,0,174.39,78.08,174.39,174.39s-78.07,174.39-174.39,174.39H178.84c-96.31,0-174.39-78.08-174.39-174.39S82.53,109.08,178.84,109.08s174.39,78.08,174.39,174.39c0,42.16-14.96,80.82-39.86,110.97h269.96c-24.9-30.15-39.86-68.82-39.86-110.97,0-96.31,78.08-174.39,174.39-174.39Zm-539.01,63.41c-61.29,0-110.97,49.68-110.97,110.97s49.68,110.97,110.97,110.97,110.97-49.68,110.97-110.97-49.68-110.97-110.97-110.97Zm539.01,0c-61.29,0-110.97,49.68-110.97,110.97s49.68,110.97,110.97,110.97,110.97-49.68,110.97-110.97-49.68-110.97-110.97-110.97Z"></path>
</svg>