<?xml version='1.0' encoding='utf-8'?>
<svg xmlns="http://www.w3.org/2000/svg" id="Vrstva_1" data-name="Vrstva 1" viewBox="0 0 545.28 566.93" width="384.7248" height="400.0">
  <defs>
    <style>
      .cls-1 {
        fill-rule: evenodd;
      }
    </style>
  </defs>
  <path class="cls-1" d="m471.58,368.3h43.85c16.65-32.21,26.05-68.77,26.05-107.52,0-129.51-104.99-234.5-234.5-234.5S77.86,125.99,72.69,250.92h37.96c2.15-43.48,18.43-83.25,44.34-114.81l32.22,32.22,27.16-27.16-32.24-32.23c29.29-24.11,65.67-39.91,105.55-43.8v45.78h38.41v-45.8c39.91,3.85,76.33,19.63,105.65,43.73l-32.45,32.45,27.16,27.16,32.45-32.45c24.11,29.32,39.9,65.73,43.75,105.64h-45.86v38.41h45.85c-3.15,32.36-14.14,62.42-31.05,88.26v-.02ZM215.36,196.04l49.58,49.58c-1.71,4.74-2.64,9.84-2.64,15.17,0,24.67,20,44.67,44.67,44.67s44.67-20,44.67-44.67-20-44.67-44.67-44.67c-5.35,0-10.48.94-15.23,2.67l-49.56-49.56-26.81,26.81h0Zm-49.49,46.62l-23.22,47.6c-10.23-3.27-21.12-5.03-32.43-5.03-58.78,0-106.42,47.65-106.42,106.42,0,36.55,18.43,68.8,46.5,87.96l-29.77,61.04h34.19l23.2-47.57c10.19,3.24,21.05,4.99,32.31,4.99,58.78,0,106.42-47.65,106.42-106.42,0-36.51-18.38-68.72-46.4-87.89l29.8-61.1h-34.19,0Zm-55.65,73.3c6.47,0,12.76.81,18.76,2.34l-65.01,133.29c-17.91-13.85-29.45-35.54-29.45-59.93,0-41.81,33.89-75.7,75.7-75.7Zm0,151.4c-6.43,0-12.67-.8-18.63-2.31l64.99-133.24c17.85,13.85,29.35,35.51,29.35,59.85,0,41.81-33.89,75.7-75.7,75.7h-.01Z"></path>
</svg>