<?xml version='1.0' encoding='utf-8'?>
<svg xmlns="http://www.w3.org/2000/svg" id="Vrstva_1" data-name="Vrstva 1" viewBox="0 0 737.82 566.93" width="520.5722" height="400.0">
  <defs>
    <style>
      .cls-1 {
        fill-rule: evenodd;
      }
    </style>
  </defs>
  <path class="cls-1" d="m369.36,48.31C131.35,48.31,7.51,168.13,7.51,168.13l34.23,116.02h141.08l43.34-85.78,8.01-15.85h29.62l8.21,15.25,39.06,72.55,37.24-72.15,8.08-15.65h29.65l8.14,15.48,37.88,72.06,37.62-72.01,8.12-15.53h29.98l7.96,15.97,43.74,87.76h137.19l34.76-117.64s-132.02-120.3-362.06-120.3Zm312.01,289.65h-153.91l-7.14-14.32-28.28-56.74-37.01,70.83-6.71,12.84h-32.37l-6.72-12.79-37.74-71.8-36.97,71.62-6.69,12.96h-32.29l-6.76-12.56-38.82-72.1-28.17,55.75-7.17,14.2H57l53.92,182.76s106.27-64.63,258.54-64.63,258.54,64.63,258.54,64.63l53.38-180.66h-.01Z"></path>
</svg>