<?xml version='1.0' encoding='utf-8'?>
<svg xmlns="http://www.w3.org/2000/svg" id="Vrstva_1" data-name="Vrstva 1" viewBox="0 0 734.86 566.93" width="518.48376" height="400.0">
  <defs>
    <style>
      .cls-1 {
        fill-rule: evenodd;
      }
    </style>
  </defs>
  <path class="cls-1" d="m165.19,101.4c0,22.34-18.11,40.46-40.46,40.46s-40.46-18.11-40.46-40.46,18.11-40.46,40.46-40.46,40.46,18.11,40.46,40.46Zm50.04,26.97c-11.61,39-47.73,67.43-90.5,67.43-52.14,0-94.4-42.27-94.4-94.4S72.59,6.99,124.73,6.99c42.77,0,78.89,28.44,90.5,67.43h57.85c74.48,0,134.86,60.38,134.86,134.86s-60.38,134.86-134.86,134.86h-134.86c-44.69,0-80.92,36.23-80.92,80.92s36.23,80.92,80.92,80.92h347.39c17.76,19.86,35.09,36.47,48.24,48.35,2.21,1.99,4.31,3.86,6.28,5.6H138.22c-74.48,0-134.86-60.38-134.86-134.86s60.38-134.86,134.86-134.86h134.86c44.69,0,80.92-36.23,80.92-80.92s-36.23-80.92-80.92-80.92h-57.85Zm354.55,385.73c-2.75-2.49-5.7-5.2-8.8-8.11-41.14-38.68-108.84-112.97-108.84-183.02,0-77.68,62.54-140.66,139.68-140.66s139.68,62.97,139.68,140.66c0,100.61-139.68,209.99-139.68,209.99,0,0-8.83-6.91-22.04-18.86Zm76.3-192.01c0,29.97-24.3,54.27-54.27,54.27s-54.27-24.3-54.27-54.27,24.3-54.27,54.27-54.27,54.27,24.3,54.27,54.27Z"></path>
</svg>