<?xml version='1.0' encoding='utf-8'?>
<!-- Generator: Adobe Illustrator 27.2.0, SVG Export Plug-In . SVG Version: 6.00 Build 0)  --><svg xmlns="http://www.w3.org/2000/svg" xmlns:xlink="http://www.w3.org/1999/xlink" version="1.1" id="Vrstva_1" x="0px" y="0px" viewBox="0 0 236.4 566.9" style="enable-background:new 0 0 236.4 566.9;" xml:space="preserve" width="166.8019" height="400.0">
<path d="M229.2,349.5c0,69-38.6,110-93,110H7.1V107.4h127.6c42,0,82.5,35,82.5,98c0,27-10.9,46.5-26.3,61.5  C214.6,284,229.2,314,229.2,349.5L229.2,349.5z M71.7,181.4v68h54c16.1,0,27-13.5,27-34c0-18.5-10.9-34-27-34L71.7,181.4L71.7,181.4  z M161.7,351.5c0-18-12.4-34-28.5-34H71.7v68h61.5C149.3,385.5,161.7,372.5,161.7,351.5L161.7,351.5z"></path>
</svg>