<?xml version='1.0' encoding='utf-8'?>
<!-- Generator: Adobe Illustrator 27.2.0, SVG Export Plug-In . SVG Version: 6.00 Build 0)  --><svg xmlns="http://www.w3.org/2000/svg" xmlns:xlink="http://www.w3.org/1999/xlink" version="1.1" id="Vrstva_1" x="0px" y="0px" viewBox="0 0 621.4 566.9" style="enable-background:new 0 0 621.4 566.9;" xml:space="preserve" width="438.45477" height="400.0">
<g>
	<path d="M617.7,313.7L576.8,518H104.2l215-118.8c4.8,0.1,9.2,0.5,14,0.5c5.8,0,11.2,0,17-0.1l35.8-0.8l-14.5-28.3l102.8-56.7   L617.7,313.7L617.7,313.7L617.7,313.7z M513.2,364.3l28.8-34.8h-27.7L477,364.3H513.2L513.2,364.3z M470.4,415.8l28.7-34.7h-40.1   l-37,34.7H470.4L470.4,415.8z M394.1,441.9L348,485.1h65.2l35.8-43.2L394.1,441.9L394.1,441.9z"></path>
	<path d="M221,263.5c-29.3,26.2-25,63.8,6.6,91.5c21,18.5,74.1,27.7,117,26.2c-5.3-20.9-11.1-43.7-15.2-64.5   c-4.9-24.4-12-41.8-20.9-50.6C284.5,242.1,245,242.4,221,263.5L221,263.5z"></path>
	<path d="M206.4,247.1c12.3-11.1,27.5-16.1,42.9-18.8L74.2,52.7c-5.1-5.2-13.6-5.2-18.6,0L7.5,100.9c-5.2,5.2-5.2,13.6,0,18.7   L180,292.7C183.1,275.7,192.2,259.7,206.4,247.1L206.4,247.1z"></path>
</g>
</svg>