<?xml version='1.0' encoding='utf-8'?>
<!-- Generator: Adobe Illustrator 27.2.0, SVG Export Plug-In . SVG Version: 6.00 Build 0)  --><svg xmlns="http://www.w3.org/2000/svg" xmlns:xlink="http://www.w3.org/1999/xlink" version="1.1" id="Vrstva_1" x="0px" y="0px" viewBox="0 0 581 566.9" style="enable-background:new 0 0 581 566.9;" xml:space="preserve" width="409.94882" height="400.0">
<style type="text/css">
	.st0{fill-rule:evenodd;clip-rule:evenodd;}
</style>
<g>
	<path class="st0" d="M471.1,260.4c60.3-10.1,106.3-62.6,106.3-125.8c0-70.4-57.1-127.5-127.5-127.5S322.4,64.2,322.4,134.7   c0,63.2,46,115.6,106.3,125.8v214.3h42.5L471.1,260.4L471.1,260.4z M402,173V96.2h95.8V173H402z" fill="#FFCE63"></path>
	<path d="M8.9,212.6v-31.2h58.5v31.2l-8.8,195H17.2L8.9,212.6z M38.6,514.9c-6.5,0-12.5-1.5-18-4.4c-5.2-3.2-9.4-7.5-12.7-12.7   c-2.9-5.5-4.4-11.5-4.4-18s1.5-11.9,4.4-17.1c3.2-5.2,7.5-9.3,12.7-12.2c5.5-3.2,11.5-4.9,18-4.9s11.9,1.6,17.1,4.9   c5.2,2.9,9.3,7,12.2,12.2c3.2,5.2,4.9,10.9,4.9,17.1c0,6.5-1.6,12.5-4.9,18c-2.9,5.2-7,9.4-12.2,12.7   C50.5,513.4,44.8,514.9,38.6,514.9z" fill="#FFCE63"></path>
	<path class="st0" d="M183.4,219.7c48.5,0,85.8,5.5,100.9,8.1l10.5,1.8l70,123.5l0,161.5c0,14-6,26-15.7,34.1   c-9.3,7.8-21,11.1-32.2,11.1c-11.1,0-22.8-3.4-32.1-11.1c-9-7.5-14.7-18.2-15.5-30.7H109.8V379.3h7.5l26.1-26.1h-33.6v-42.7h177.9   l-22.4-39.5c-17.1-2.5-46.3-5.8-82.3-5.8c-30.3,0-55.8,2.4-73.2,4.6v-45.8c18.7-2.2,43.8-4.1,72.9-4.1L183.4,219.7L183.4,219.7z    M248.8,379.3H288v39.2h25.3v-65.3h-90.6L248.8,379.3z" fill="#FFCE63"></path>
</g>
</svg>