<?xml version='1.0' encoding='utf-8'?>
<svg xmlns="http://www.w3.org/2000/svg" id="Vrstva_1" data-name="Vrstva 1" viewBox="0 0 745.76 566.93" width="526.1743" height="400.0">
  <defs>
    <style>
      .cls-1 {
        fill-rule: evenodd;
      }
    </style>
  </defs>
  <path class="cls-1" d="m372.88,493.57c116.04,0,210.11-94.07,210.11-210.11s-94.07-210.11-210.11-210.11-210.11,94.07-210.11,210.11,94.07,210.11,210.11,210.11Zm0,52.53c145.05,0,262.64-117.59,262.64-262.64S517.93,20.83,372.88,20.83,110.24,138.41,110.24,283.46s117.59,262.64,262.64,262.64ZM112.88,23.47C46.34,90.01,5.19,181.93,5.19,283.47s41.16,193.46,107.7,260l37.14-37.14c-57.03-57.03-92.31-135.82-92.31-222.86S92.99,117.65,150.02,60.61l-37.14-37.14Zm482.85,37.14l37.14-37.14c66.54,66.54,107.7,158.46,107.7,260s-41.16,193.46-107.7,260l-37.14-37.14c57.03-57.03,92.31-135.82,92.31-222.86s-35.28-165.82-92.31-222.86Zm-204.48,110h-86.04v244.15h50.37v-83.47h35.67c17.16,0,31.87-3.43,44.12-10.3,12.26-7.11,21.45-16.79,27.58-29.05,6.37-12.26,9.56-25.86,9.56-40.81s-3.19-28.93-9.56-41.18c-6.37-12.26-15.69-21.82-27.94-28.68-12.26-7.11-26.84-10.66-43.76-10.66Zm20.22,107.73c-5.88,6.62-14.59,9.93-26.11,9.93h-29.78v-73.54h29.78c11.28,0,19.86,3.31,25.74,9.93,6.13,6.37,9.19,15.2,9.19,26.47s-2.94,20.59-8.82,27.21Z"></path>
</svg>