<?xml version='1.0' encoding='utf-8'?>
<!-- Generator: Adobe Illustrator 27.2.0, SVG Export Plug-In . SVG Version: 6.00 Build 0)  --><svg xmlns="http://www.w3.org/2000/svg" xmlns:xlink="http://www.w3.org/1999/xlink" version="1.1" id="Vrstva_1" x="0px" y="0px" viewBox="0 0 675.4 566.9" style="enable-background:new 0 0 675.4 566.9;" xml:space="preserve" width="476.5567" height="400.0">
<g>
	<polygon points="103.2,125.1 137.6,125.1 151.9,48.9 121.3,48.9  "></polygon>
	<polygon points="57.8,306 101.4,306 128.5,170.1 90.5,170.1  "></polygon>
	<polygon points="3.6,518 57.8,518 88.6,367.6 41.6,367.6  "></polygon>
	<polygon points="633.8,367.6 586.8,367.6 617.6,518 671.8,518  "></polygon>
	<polygon points="584.9,170.1 546.9,170.1 574.1,306 617.6,306  "></polygon>
	<polygon points="554.2,48.9 523.4,48.9 537.8,125.1 572.2,125.1  "></polygon>
	<path d="M445.4,172l-5.5-7.3l-7.3-1.9c-5.5-1.9-12.8-1.9-21.7-3.6c-16.4-1.9-43.5-5.5-74.3-5.5s-57.9,3.6-74.3,5.5   c-9.1,1.9-16.4,3.6-23.5,3.6l-5.5,1.9l-30.8,49.1h-47.2v30.8h28.9l-28.9,45.3v121.3l0,0v23.5c0,14.5,14.5,23.5,23.5,23.5h31   c7.3,0,23.5-7.3,23.5-23.5v-23.5h212v23.5c0,14.5,14.5,23.5,23.5,23.5h30.8c7.3,0,23.5-7.3,23.5-23.5v-23.5l0,0V289.9l-28.9-45.3   H523v-30.8h-47.2L445.4,172L445.4,172z M253.4,193.7c3.6,0,9.1-1.9,14.5-1.9c16.4-1.9,39.9-5.5,70.7-5.5c28.9,0,54.3,3.6,70.7,5.5   c5.5,0,10.9,1.9,14.5,1.9l41.7,67.1H211.8L253.4,193.7L253.4,193.7z M374.8,291.6h106.9v52.5h-30.8l-14.5-23.5h-38L374.8,291.6   L374.8,291.6z M277,320.7h-38l-14.5,21.7h-30.8v-52.5h106.8L277,320.7z"></path>
</g>
</svg>