<?xml version='1.0' encoding='utf-8'?>
<!-- Generator: Adobe Illustrator 27.2.0, SVG Export Plug-In . SVG Version: 6.00 Build 0)  --><svg xmlns="http://www.w3.org/2000/svg" xmlns:xlink="http://www.w3.org/1999/xlink" version="1.1" id="Vrstva_1" x="0px" y="0px" viewBox="0 0 453.4 566.9" style="enable-background:new 0 0 453.4 566.9;" xml:space="preserve" width="319.9153" height="400.0">
<g>
	<path d="M379.4,35.8c10.6,3,16.5,10.7,20,16.9c3.5,6.2,5.3,12.5,5.3,19v154.4h6.8c11.4,0,20.3,3,26.8,9c6.5,6,9.7,15.1,9.7,27.2   V492c0,1.6-0.2,3.8-0.6,6.6c-0.4,2.8-1.2,5.7-2.3,8.5c-1.2,2.8-2.9,5.3-5.3,7.3c-2.3,2.1-9.7,4.1-9.7,4.1   c-67.5,18-135.1,26-202.9,26s-134.5-7.8-199.8-25.9c0,0-6.6-2-9.4-3.5c-2.8-1.6-5-3.6-6.8-6.2S8,503.7,7,500.7   c-1-3-1.5-5.9-1.5-8.7V262.3c0-5.1,1.1-9.9,3.4-14.3c2.2-4.4,5.1-8.2,8.5-11.5c3.4-3.2,7.2-5.8,11.5-7.6c4.2-1.9,8.4-2.8,12.5-2.8   h7.4V71.7c0-5.3,0.7-9.7,2.1-13.2c1.4-3.5,3.3-6.6,5.7-9.3c2.4-2.7,5.4-5,9-6.9s12.2-5.1,13-5.3c15.4-4.4,49.5-9.1,74.5-11.3   c25-2.2,50.1-3.4,75.4-3.4s50.4,1.1,75.4,3.4C328.9,27.9,354.6,28.8,379.4,35.8L379.4,35.8L379.4,35.8z M45.2,467.3v3.2   c0,5.1,3.3,9.5,10,13.1c6.7,3.6,15.4,6.7,26.2,9.3c10.8,2.5,22.9,4.6,36.3,6.2c13.4,1.6,26.9,2.8,40.4,3.7   c13.5,0.9,26.5,1.5,38.8,1.8c12.4,0.3,22.8,0.4,31.2,0.4c56.5,0,111.7-5.4,165.6-16.2c0.4,0,1.6-0.6,3.5-1.9s4-2.9,6-5   c2.1-2.1,3.9-4.4,5.6-6.9c1.7-2.5,2.5-5.1,2.5-7.6V294.6c0-4.5-0.9-8.5-2.7-12.1s-4.2-6.6-7.2-9.1c-3-2.5-6.5-4.5-10.3-5.7   c-3.8-1.3-7.8-1.9-11.9-1.9H74.1c-2.4,0-5.1,0.4-8.4,1.2c-3.2,0.8-6.4,2.2-9.4,4.3c-3,2.1-5.6,5-7.8,8.7c-2.2,3.7-3.2,8.6-3.2,14.7   L45.2,467.3L45.2,467.3L45.2,467.3z M88.5,226.1h280.3V100.5c0-1.4-0.5-5.1-2.1-8.7c-1.6-3.6-3.6-7.3-6.2-11   c-2.7-3.6-6-5.6-9.4-8.4c-3.4-2.8-11-4.3-11-4.3c-38-5.3-75.7-7.9-113-7.9c-10,0-21.6,0.1-34.9,0.3c-13.2,0.2-26.2,0.8-38.8,1.9   c-12.6,1.1-24.2,2.9-34.7,5.4c-10.5,2.6-19.4,6.2-24.1,10.9c-2.2,3.9-3.4,6.6-4.7,11c-1.4,4.4-1.4,9-1.4,10.8V226.1L88.5,226.1z    M206.7,438.5c0.1,8.3,1.5,24.8,20,25c15.9,0.2,19.4-15.6,19.4-25v-108c0-9.4-3.7-25.4-19.4-25.2c-18.5,0.2-20,22.3-20,25.2V438.5z   "></path>
</g>
</svg>