<?xml version='1.0' encoding='utf-8'?>
<svg xmlns="http://www.w3.org/2000/svg" id="Vrstva_1" data-name="Vrstva 1" viewBox="0 0 573.02 566.93" width="404.29684" height="400.0">
  <defs>
    <style>
      .cls-1 {
        fill-rule: evenodd;
      }
    </style>
  </defs>
  <path class="cls-1" d="m499.24,21.33v33.97l9.03,212.3h45.14l9.56-212.3V21.33h-63.72Zm12.74,358.26c6.02,3.18,12.57,4.78,19.65,4.78s12.92-1.59,18.59-4.78c5.66-3.54,10.09-8.14,13.27-13.8,3.54-6.01,5.31-12.56,5.31-19.64s-1.77-12.92-5.31-18.58c-3.19-5.66-7.61-10.08-13.27-13.27-5.66-3.54-11.86-5.31-18.59-5.31-7.08,0-13.63,1.77-19.65,5.31-5.66,3.18-10.27,7.61-13.81,13.27-3.19,5.66-4.78,11.85-4.78,18.58,0,7.08,1.59,13.62,4.78,19.64,3.54,5.66,8.14,10.26,13.81,13.8ZM226.03,160.99c-87.03,0-159.75,61.23-177.39,142.94,20.4-4.4,86.67-16.98,177.82-16.98s155.52,12.22,176.92,16.78c-17.72-81.61-90.39-142.75-177.35-142.75Zm-79.91,344.3c-54.07-26.55-92.92-79.15-100.3-141.33l106.28,32.89,18.48,36.95c36.97,18.48,73.94,18.48,110.9,0l18.48-36.95,106.26-32.85c-7.39,62.16-46.23,114.74-100.29,141.29h-159.82Zm168.69,40.31c78.3-34.22,133.02-112.34,133.02-203.22,0-122.44-99.31-221.69-221.81-221.69S4.22,219.94,4.22,342.38c0,90.88,54.72,169,133.02,203.22h177.57Z" fill="#FFCE63"></path>
</svg>