<?xml version='1.0' encoding='utf-8'?>
<svg xmlns="http://www.w3.org/2000/svg" id="Vrstva_1" data-name="Vrstva 1" viewBox="0 0 563.05 566.93" width="397.26245" height="400.0">
  <defs>
    <style>
      .cls-1 {
        fill-rule: evenodd;
      }
    </style>
  </defs>
  <path class="cls-1" d="m386.92,150.32l-2.32,2.33c-10.63-3.42-18.96-2.57-29.96-1.45-6.63.68-14.24,1.45-23.91,1.45-31.09,0-35.22,51.28-36.08,72.31-.26,6.45.37,11.77,1.67,16.14l-85,85.18c2.82-7.22,4.47-14.68,3.32-22.46-1.57-10.62-9.7-21.37-17.05-28.81l-1.28-1.31c-4.2-4.3-9.22-9.45-14.93-10.99-7.41-2-15.9-2.54-23.66-3.03h0l-1.19-.08c-2.2-.14-4.4-.27-6.6-.4h0c-5.47-.32-10.94-.65-16.41-1.13-6.54-.58-13.39-4.1-19.11-7.13-8.44-4.46-12.86-10.39-15.06-19.54-2.28-9.47,2.87-18.22,10.63-23.67,7.5-5.27,14.97-5.06,22.78-.69,3.39,1.9,5.96,4.84,8.5,7.76,3.32,3.8,6.6,7.56,11.6,8.87,12.8,3.35,18.81-8.04,21.18-18.69,2.12-9.55,3.48-18.63,4.77-27.32,4.54-30.42,8.35-55.98,42.01-79.55,7.34-5.14,14.5-13.76,5.12-20.38-4.16-2.93-8.81-6-13.72-7.43-6.53-1.89-11.22,2.87-15.81,7.54-3.03,3.08-6.02,6.12-9.46,7.17-10.36,3.15-33.69,1.58-40.44-8.58-2.51-3.78-4.91-7.94-7.19-12.17,24.87-12.95,53.14-20.27,83.1-20.27,18.94,0,37.19,2.92,54.34,8.34.74,25.39,4.98,64.12,17.92,64.12,24.04,0,40.07-10.7,53.43-21.4,16.16,15.72,29.39,34.44,38.81,55.26Zm26.95-27.01C377.51,54.62,305.42,7.84,222.43,7.84,102.82,7.84,5.86,105,5.86,224.86c0,83.17,46.69,155.41,115.23,191.84l-76.06,76.22,27.81,27.87L518.32,74.38l-27.81-27.87-76.64,76.8Zm-171.75,283.42l.08-.08v-25.09h45.71l38.6-92.69c3.33-8,12.18-12.21,20.61-10.19,5.79,1.38,12.88,2.92,20.54,4.23v-.03c10.3,1.76,21.62,3.1,32.16,3.1s21.19-1.26,31.31-2.94l-.02.08c8.27-1.36,15.97-3.01,22.17-4.48,8.44-2,17.28,2.25,20.58,10.28l38,92.63h45.36v39.38h-241.86s-33.84,0-33.84,0h-39.37v-14.21Zm159.81-160.14l36.56-36.64c.33,4.93.5,9.9.5,14.91,0,5.63-.21,11.2-.63,16.72-11.41,2.48-25.01,4.76-36.43,5.02ZM122.42,375.43c-.58-6.34-.43-12.65.17-19.13.12-1.32.43-2.68.73-4.05.67-2.98,1.35-6.01.18-8.83-3.82-9.23-13.09-16.81-20.64-22.98h0l-.38-.31-2.16-1.75c-9.31-7.54-19.14-15.51-21.31-27.97-.51-2.92-.11-5.65.3-8.39.27-1.84.54-3.7.54-5.63,0-4.44-2.03-8.91-3.82-12.87-.43-.94-.83-1.87-1.24-2.79-2.1-4.81-4.11-9.39-7.9-13.26l-1.56-1.6c-3.51-3.62-6.92-7.13-11.17-10.01-2.88-1.95-6.43-3.28-9.98-4.63h0s-.02-.01-.02-.01c-.71-.27-1.42-.54-2.13-.81,1.83,60.51,33.31,113.55,80.39,145.01Zm300.02,143.38h-45.41c-4.24,22.92-24.29,40.28-48.39,40.28-27.18,0-49.22-22.08-49.22-49.32s22.04-49.32,49.22-49.32c19.11,0,35.68,10.92,43.83,26.87h54.53c8.15-15.95,24.72-26.87,43.83-26.87,27.18,0,49.22,22.08,49.22,49.32s-22.04,49.32-49.22,49.32c-24.1,0-44.15-17.36-48.39-40.28Z"></path>
</svg>