<?xml version='1.0' encoding='utf-8'?>
<svg xmlns="http://www.w3.org/2000/svg" id="Vrstva_1" data-name="Vrstva 1" viewBox="0 0 667.67 566.93" width="471.07758" height="400.0">
  <defs>
    <style>
      .cls-1 {
        fill-rule: evenodd;
      }
    </style>
  </defs>
  <path class="cls-1" d="m294.12,100.61c-13.36,0-26.12,10.99-26.12,26.12s12.76,26.12,26.12,26.12h365.7v52.24h-365.7c-38.88,0-78.36-31.15-78.36-78.36s39.48-78.36,78.36-78.36h52.24v52.24h-52.24Zm-209.01,104.64c-13.36,0-26.12,10.99-26.12,26.12s12.76,26.12,26.12,26.12h444.07v52.24H85.1c-38.88,0-78.36-31.15-78.36-78.36s39.48-78.36,78.36-78.36h39.18v52.24h-39.18,0Zm130.59,234.94c0,15.13,12.76,26.12,26.12,26.12h65.3v52.24h-65.3c-38.88,0-78.36-31.15-78.36-78.37s39.48-78.36,78.36-78.36h417.95v52.24H241.82c-13.36,0-26.12,10.99-26.12,26.12h0Z"></path>
</svg>