<?xml version='1.0' encoding='utf-8'?>
<!-- Generator: Adobe Illustrator 27.2.0, SVG Export Plug-In . SVG Version: 6.00 Build 0)  --><svg xmlns="http://www.w3.org/2000/svg" xmlns:xlink="http://www.w3.org/1999/xlink" version="1.1" id="Vrstva_1" x="0px" y="0px" viewBox="0 0 271.4 566.9" style="enable-background:new 0 0 271.4 566.9;" xml:space="preserve" width="191.4976" height="400.0">
<path d="M266.8,358.4c0,84.1-51.3,160.3-130.1,160.3C62.3,518.7,8,460.9,4.6,366.3h84.3c7.4,34.2,23.2,49.9,43.9,49.9  c29.6,0,45.4-28.9,45.4-57.8s-15.8-57.8-45.4-57.8c-17.2,0-31.5,11.8-40.4,28.9H9.5L36.1,48.2h207v102.5h-140l-5.9,63.8  c14.3-8.5,29.1-13.8,43.4-13.8C233.3,200.7,266.8,290,266.8,358.4L266.8,358.4L266.8,358.4z"></path>
</svg>