<?xml version='1.0' encoding='utf-8'?>
<!-- Generator: Adobe Illustrator 27.2.0, SVG Export Plug-In . SVG Version: 6.00 Build 0)  --><svg xmlns="http://www.w3.org/2000/svg" xmlns:xlink="http://www.w3.org/1999/xlink" version="1.1" id="Vrstva_1" x="0px" y="0px" viewBox="0 0 561.4 566.9" style="enable-background:new 0 0 561.4 566.9;" xml:space="preserve" width="396.11926" height="400.0">
<style type="text/css">
	.st0{fill-rule:evenodd;clip-rule:evenodd;}
</style>
<g>
	<path d="M311.5,417.1c-25.5,10.6-52.3,18-80.7,18c-50.7,0-100.1-19.4-135.9-55.2C57.6,345.5,35,297.7,32.1,247   C29.1,196.3,44,146.8,77,106.6s77.6-65.8,128.4-73.2c-4.6,3-7.5,6-13.4,8.8c-19.4,7.5-67.2,34.3-70.1,50.7   c-1.5,13.4,13.4,16.4,49.2-4.6c35.8-20.9,49.2-38.9,68.6-38.9S301,58.4,301,65.9s-13.4,29.8-25.5,28.3   c-13.4-1.5-25.5-14.9-38.9-11.9c-14.9,2.9-34.3,20.9-23.9,28.3c18,1.5,37.3-4.6,41.8,0c4.6,4.6,0,19.4-20.9,18   c-18-1.5-34.3,1.5-50.7,7.5c-10.6,6-35.8,6-35.8,23.9c1.5,18,10.6,23.9,20.9,14.9c10.6-8.9,16.4-19.4,27-13.4   c10.6,6,10.6,18,28.3,18s29.8-18,38.9-25.5c8.9-7.5,37.3,6,35.8,11.9c-1.5,5.9-3,11.9-18,13.4c-14.9,1.5-14.9-1.5-23.9,8.9   c-8.9,10.6-19.4,7.5-29.8,8.9c-10.6,1.5-16.4,13.4-23.9,6c-7.5-7.5-11.9-22.4-20.9-22.4s-13.4,16.4-22.4,16.4   c-8.9,1.5-35.8-4.6-40.4,2.9c-4.6,6-7.5,11.9-7.5,18s0,13.4,2.9,19.4c4.6,16.4,13.4,22.4,13.4,28.3s3,18,47.7,11.9   c1.5,7.5-3,29.8,3,37.3c7.5,8.9,10.6,18,11.9,29.8c1.5,14.9,25.5,59.8,49.2,59.8s31.4-46.4,43.3-53.8c3-1.5,4.6-3,6-4.6   c1.5-1.5,3-4.6,3-7.5v-8.9c0-2.8-1.5-6-3-7.5c-7.5-8.9-11.9-6-6-13.4c6-6,8.9-4.6,16.4-8.9c7.5-4.6,14.9-14.9,14.9-16.4   c0-3-50.7-35.8-52.3-47.7c-1.5-10.6-3-28.3,6-23.9c9,4.4,37.3,44.9,44.9,44.9c6-1.5,11.9-3,18-7.5c4.6-4.6,8.9-8.9,10.6-14.9   c4.6-14.9,4.6-11.9-16.4-18c-20.9-6-31.4-13.4-25.5-22.4c6-8.9,27-13.4,52.3,1.5c25.5,14.9,31.4,14.9,32.8,26.9   c1.5,13.4-3,35.8,7.5,35.8s3-49.2,8.8-49.2c7.5,1.5,14.9,6,19.4,10.6c6,6,8.8,11.9,11.9,19.4c-1.5,25.5-6,52.3-16.4,74.7l19.4,7.5   c11.9-28.3,20.9-58.3,20.9-89.6c0-59.8-23.9-116.5-65.8-159.7C349.2,31.7,290.8,7.9,231.3,7.9c-44.9,0-88.1,13.4-125.4,37.3   C68.7,70.7,40.1,105,22.4,146.8S1.5,233.5,9,276.8c8.9,43.3,29.8,83.5,61.3,115c31.5,31.5,71.6,52.3,115,61.3   c43.4,8.9,89.6,4.6,129.9-13.4c1.5,0,1.5-1.5,3-1.5L311.5,417.1L311.5,417.1z"></path>
	<polygon class="st0" points="315.8,318.6 409.9,559 451.7,454.5 556.2,412.7  "></polygon>
</g>
</svg>