<?xml version='1.0' encoding='utf-8'?>
<!-- Generator: Adobe Illustrator 27.2.0, SVG Export Plug-In . SVG Version: 6.00 Build 0)  --><svg xmlns="http://www.w3.org/2000/svg" xmlns:xlink="http://www.w3.org/1999/xlink" version="1.1" id="Vrstva_1" x="0px" y="0px" viewBox="0 0 514.2 566.9" style="enable-background:new 0 0 514.2 566.9;" xml:space="preserve" width="362.8153" height="400.0">
<g>
	<path d="M509.6,136.1l-0.2,0.2l0.2,0.2l-88,87.1l-25.5-25.2l46.1-45.6H203c-69.7,0-126.3,55.9-126.3,125v36.8H40.7v-36.8   c0-88.7,72.7-160.7,162.3-160.7h236.3l-43.3-42.8L421.6,49L509.6,136.1L509.6,136.1z"></path>
	<path d="M337.3,438.9c-8.5,1.4-17.2,2.1-26.1,2.1H74.9l43.3,42.8L92.7,509l-88-87.1l0.2-0.2l-0.2-0.2l88-87.1l25.5,25.2l-46.1,45.6   h239.1c8.9,0,17.7-0.9,26.1-2.7L337.3,438.9L337.3,438.9z"></path>
	<path d="M426.7,331l37.5-20.1v207h-37.5V331z M385.4,324.8l78.8-13.9l-24.4,36.5l-54.4,9.9V324.8z"></path>
</g>
</svg>