<?xml version='1.0' encoding='utf-8'?>
<!-- Generator: Adobe Illustrator 27.2.0, SVG Export Plug-In . SVG Version: 6.00 Build 0)  --><svg xmlns="http://www.w3.org/2000/svg" xmlns:xlink="http://www.w3.org/1999/xlink" version="1.1" id="Vrstva_1" x="0px" y="0px" viewBox="0 0 592.4 566.9" style="enable-background:new 0 0 592.4 566.9;" xml:space="preserve" width="417.9926" height="400.0">
<g>
	<path d="M101.3,268.9H5.6v-33.1h95.7c-0.6,3.7-1.6,14.3-1.6,16.4C99.6,255.3,100.7,266.1,101.3,268.9L101.3,268.9z M143.5,124.2   L77.8,58.8l23.4-23.5l65.3,66c-3.5,2.9-6.9,6.1-11.1,10C151.3,115.2,147.6,119.8,143.5,124.2L143.5,124.2z M170,403l-70.5,68.7   L77.8,449l69.1-68.8c3.1,5.2,6.5,9.5,10,13C160.4,396.6,164.8,399.9,170,403L170,403z M136.9,252.7c0-15,2-29.4,5.9-43.1   s9.4-26.6,16.4-38.6c7-12,15.2-22.8,24.7-32.4c9.5-9.6,20.1-17.7,31.7-24.4V22.2h160.7v91.9c11.9,6.7,22.6,14.8,32.2,24.4   s17.9,20.4,25,32.4c7.1,12,12.5,24.9,16.3,38.6c3.8,13.8,5.6,28.1,5.6,43.1c0,22.1-4.2,42.9-12.7,62.4s-19.9,36.5-34.2,51.1   c-14.4,14.6-31,26-50,34.4c-19,8.4-39.3,12.5-61,12.5s-44-4.2-63.8-12.5c-19.8-8.3-36.9-19.8-51.3-34.4   c-14.4-14.6-25.6-31.6-33.6-51.1C140.9,295.5,136.9,274.8,136.9,252.7L136.9,252.7z M166.6,252.7c0,17.7,3.4,34.4,10.3,50   c6.9,15.6,16.3,29.1,28.1,40.5c11.9,11.4,25.8,20.4,41.7,27c16,6.7,32.9,10,50.8,10s33.7-3.3,49.2-10c15.5-6.7,29.2-15.7,41-27   c11.8-11.4,21-24.9,27.8-40.5c6.8-15.6,10.2-32.3,10.2-50s-3.4-34-10.2-49.4c-6.8-15.4-16-29.1-27.8-41c-11.8-11.9-25.4-21.2-41-28   c-15.5-6.8-31.9-10.2-49.2-10.2s-34.8,3.4-50.8,10.2c-16,6.8-29.9,16.1-41.7,28c-11.9,11.9-21.3,25.5-28.1,41   C170,218.7,166.6,235.1,166.6,252.7L166.6,252.7L166.6,252.7z M248.5,55.4v46c16.3-6.7,32.6-10,49.1-10c8.8,0,16.6,0.9,23.5,2.7   c6.9,1.8,14.5,4.2,22.8,7.3v-46L248.5,55.4L248.5,55.4z M311,449v95.7h-30V449L311,449L311,449z M425.8,101.3l65.7-66l23.1,23.5   l-68.8,65.3c-2.7-4.4-6.2-8.5-9.8-12.7C432.3,107.2,429.1,104.3,425.8,101.3L425.8,101.3z M445.8,380.2l68.8,68.8L493,470.5   L425.8,403c3.3-3.1,8.4-7.1,11.7-11.4C440.8,387.4,442.8,384.4,445.8,380.2L445.8,380.2L445.8,380.2z M491.4,235.8h95.4v33.1h-95.4   c1.2-5,2.2-9.9,2-16C493.3,246.3,492.6,240.7,491.4,235.8L491.4,235.8z"></path>
</g>
</svg>