<?xml version='1.0' encoding='utf-8'?>
<!-- Generator: Adobe Illustrator 27.2.0, SVG Export Plug-In . SVG Version: 6.00 Build 0)  --><svg xmlns="http://www.w3.org/2000/svg" xmlns:xlink="http://www.w3.org/1999/xlink" version="1.1" id="Vrstva_1" x="0px" y="0px" viewBox="0 0 416.4 566.9" style="enable-background:new 0 0 416.4 566.9;" xml:space="preserve" width="293.8084" height="400.0">
<g>
	<path d="M205.4,58.6c16.4,0,31.2,2.9,47.6,7.5c25.4,8.9,46.2,23.9,62.7,43.2c-17.9,7.5-44.7,22.3-62.7,32.8l-4.4,2.9   c-17.9,2.9-58.2,8.9-70.2,13.3c-14.9,6-32.8,23.9-32.8,52.2s10.4,31.2,17.9,31.2h14.9v-4.4c0-29.8,23.9-53.6,53.6-53.6   s53.6,23.9,53.6,53.6v4.4h52.2c-19.3,53.6-70.2,93.9-131.1,93.9c-77.5,0-138.6-62.7-138.6-138.6c0-13.3,1.5-26.8,6-38.7l-21.1-6   c-7.5,26.8-8.9,55.2-1.5,83.5c7.5,26.8,20.8,52.2,40.2,73.1c19.4,20.8,43.2,35.8,71.6,43.2c26.8,7.5,55.2,8.9,83.5,1.5   c26.8-6,52.2-20.8,73.1-40.2c20.8-19.4,35.8-43.2,43.2-71.7c7.5-26.8,8.9-55.2,1.5-83.5c-6-26.8-20.8-52.2-40.2-73.1l0,0v-1.5l0,0   c-14.9-16.4-32.8-28.3-53.6-37.2c-19.4-8.9-41.6-13.3-64.2-11.9h-11.9l1.5,20.8C199.4,58.6,202.3,58.6,205.4,58.6L205.4,58.6z" fill="#FFCE63"></path>
	<path d="M233.6,270.3c17.9,0,31.2-14.9,31.2-32.8s-14.9-32.8-31.2-32.8c-17.9,0-32.8,14.9-32.8,32.8S215.8,270.3,233.6,270.3z" fill="#FFCE63"></path>
	<path d="M83.1,328.5c-23.9-22.3-41.6-52.2-50.6-85S23.6,177.9,34,145l-20.9-6c-10.4,35.8-10.4,74.6-1.5,110.3   C22,285.1,41.4,318,68.3,343.3L83.1,328.5L83.1,328.5z" fill="#FFCE63"></path>
	<path d="M332.1,328.5l14.9,14.9c38.7-35.8,61.2-86.5,64.2-138.6c1.5-52.2-16.4-104.3-52.2-143l-16.4,14.9   c31.2,35.8,47.6,82.1,46.2,128.2C387.1,252.4,366.2,297,332.1,328.5L332.1,328.5z" fill="#FFCE63"></path>
	<path d="M142.6,407.3c-10.4-7.5-22.3-10.4-37.2-10.4s-26.8,2.9-37.2,10.4c-10.4,7.5-17.9,16.4-23.9,28.3s-8.9,25.4-8.9,41.6   c0,14.9,2.9,29.8,8.9,41.6c6,11.9,13.3,22.3,23.9,28.3c10.4,7.5,22.3,10.4,37.2,10.4s26.8-2.9,37.2-10.4   c10.4-7.5,17.9-16.4,23.9-28.3c6-11.9,8.9-26.8,8.9-41.6s-2.9-29.8-8.9-41.6C160.5,425.3,153,414.8,142.6,407.3z M139.7,505.8   c-2.9,7.5-7.5,13.3-11.9,17.9c-6,4.4-11.9,6-20.8,6c-7.5,0-14.9-1.5-20.8-6c-6-4.4-8.9-10.4-11.9-17.9c-2.9-7.5-4.4-16.4-4.4-26.8   s1.5-19.4,4.4-26.8c2.9-7.5,7.5-13.3,11.9-17.9c6-4.4,11.9-6,20.8-6c11.9,0,20.8,4.4,28.3,14.9c6,8.9,8.9,22.3,8.9,38.7   C142.6,489.4,142.6,498.3,139.7,505.8L139.7,505.8z" fill="#FFCE63"></path>
	<polygon points="191.9,556.6 221.8,556.6 221.8,493.9 275.3,493.9 275.3,467.1 221.8,467.1 221.8,428.4 281.3,428.4 281.3,400    191.9,400  " fill="#FFCE63"></polygon>
	<polygon points="300.7,556.6 332.1,556.6 332.1,493.9 384.1,493.9 384.1,467.1 332.1,467.1 332.1,428.4 390.1,428.4 390.1,400    300.7,400  " fill="#FFCE63"></polygon>
	<polygon points="86.1,106.3 105.4,165.9 126.2,106.3 191.9,106.3 138.1,69 159.1,9.3 105.4,46.6 53.1,9.3 72.6,69 20.4,106.3  " fill="#FFCE63"></polygon>
</g>
</svg>