<?xml version='1.0' encoding='utf-8'?>
<!-- Generator: Adobe Illustrator 27.2.0, SVG Export Plug-In . SVG Version: 6.00 Build 0)  --><svg xmlns="http://www.w3.org/2000/svg" xmlns:xlink="http://www.w3.org/1999/xlink" version="1.1" id="Vrstva_1" x="0px" y="0px" viewBox="0 0 1069.6 566.9" style="enable-background:new 0 0 1069.6 566.9;" xml:space="preserve" width="754.701" height="400.0">
<g>
	<path d="M181.4,114.8h67.5v338.4h-67.5V320.5H71.9v132.6H4.6V114.8h67.5v130.6h109.7V114.8H181.4L181.4,114.8z" fill="#808080"></path>
	<path d="M350.9,435.7c-22.9-15.5-41.5-36.4-55.1-63.2c-13.6-26.7-20.6-56.4-20.6-88.9s7.1-61.2,20.6-88.2   c13.6-26.7,32.3-47.6,55.1-63.7c22.9-15.5,48.1-23.2,74.8-23.2s52,7.7,74.8,22.9c22.9,15.6,41.5,36.4,55.1,63.2   c13.7,26.6,20.7,56.3,20.7,88.9s-7.1,62.2-20.7,88.9c-13.6,26.7-32.3,47.6-55.1,63.2c-22.8,15.5-48.1,22.9-74.8,22.9   C399,459,374,451.2,350.9,435.7L350.9,435.7L350.9,435.7z M465.4,368.9c12.4-9,22.1-20.6,29.4-35.7c7.3-14.8,10.9-31.3,10.9-49.3   s-3.4-34.5-10.9-49.3c-7.3-14.8-17-26.7-29.4-35.7c-12.4-9-25.5-13.1-39.6-13.1s-27.2,4.4-39.6,13.1c-12.4,9-22.1,20.6-29.4,35.7   s-10.9,31.3-10.9,48.8s3.4,34.5,10.9,49.3c7.3,14.8,17,26.7,29.4,35.7c12.4,9,25.5,13.1,39.6,13.1   C439.9,381.9,452.9,377.3,465.4,368.9L465.4,368.9z" fill="#808080"></path>
	<path d="M670.3,378.1h117.6v74.8H602.8V114.8h67.5V378.1L670.3,378.1L670.3,378.1z" fill="#808080"></path>
	<path d="M991.4,137.4c22.6,15.1,40.3,35.7,53.5,61.7c13.2,26,20.2,54.4,20.2,85s-6.6,59.2-20.2,85.2   c-13.1,25.5-31.1,46.1-53.5,61.2c-22.4,15-46.9,22.6-73.6,22.6H811.2V114.8h106.6C944.6,114.8,969.3,122.1,991.4,137.4L991.4,137.4   z M956.2,366.2c12.2-8.2,21.6-18.9,28.4-33.2c7.1-14.3,10.2-30.6,10.2-48.8s-3.4-34.5-10.2-48.8c-7.1-14.3-16.3-25.3-28.4-33.2   c-12.2-8.2-26-12.2-41.5-12.2h-36.2v188.4h36.2C930.2,378.1,944.1,374.2,956.2,366.2L956.2,366.2z" fill="#808080"></path>
</g>
</svg>