<?xml version='1.0' encoding='utf-8'?>
<!-- Generator: Adobe Illustrator 27.2.0, SVG Export Plug-In . SVG Version: 6.00 Build 0)  --><svg xmlns="http://www.w3.org/2000/svg" xmlns:xlink="http://www.w3.org/1999/xlink" version="1.1" id="Vrstva_1" x="0px" y="0px" viewBox="0 0 576.4 566.9" style="enable-background:new 0 0 576.4 566.9;" xml:space="preserve" width="406.70312" height="400.0">
<style type="text/css">
	.st0{fill-rule:evenodd;clip-rule:evenodd;}
</style>
<g>
	<g>
		<path class="st0" d="M557.1,9.1c7.8,35.5,12.4,80.1,9.2,134.2c-4.8,64.7-21.6,118.8-44.8,171.1h-33.9    c24.7-54,41.7-107.8,46.3-174.1c3-54.1-1.6-98.6-10.8-131C522.9,9.1,557.1,9.1,557.1,9.1L557.1,9.1z M427.7,9.1    c-3,23.2-10.8,44.8-23.2,66.3c-21.6,35.5-57.1,69.5-106.4,106.4c-66.3,50.9-149.5,97.2-217.4,131H11.4    c75.5-35.5,184.9-91,269.7-155.7c49.3-38.6,80.1-67.8,98.6-98.6c9.2-15.4,15.4-32.4,18.5-50.9h29.4v1.4L427.7,9.1L427.7,9.1z"></path>
		<path class="st0" d="M489.2,9.1c0,21.6-1.6,44.8-6.2,67.7h-30.8c4.8-23.2,6.2-46.3,6.2-67.8C458.4,9.1,489.2,9.1,489.2,9.1z     M325.9,312.8c26.2-23.2,49.3-47.9,72.5-75.5h-40.1c-24.6,29.4-50.9,54.1-80.1,75.5H325.9L325.9,312.8z M439.9,115.5h32.4    c-7.8,20.2-18.5,41.7-33.9,64.7c-3,4.8-6.2,7.8-7.8,12.4h-37c6.2-9.2,14-18.4,20.2-29.4C425.9,146.3,433.7,130.9,439.9,115.5    L439.9,115.5z"></path>
	</g>
	<g>
		<path d="M127.1,389.8h29.4v168.1h-29.4v-92.4l-35.5,92.4H70.2l-35.5-90.9v90.9H3.9V389.8h29.4L81,511.4L127.1,389.8L127.1,389.8z"></path>
		<path d="M247.2,559.3c-15.4,0-27.7-3-40.1-10.8c-10.8-7.8-20.2-18.5-26.2-30.8c-6.2-14-9.2-27.7-9.2-44.8s3-30.9,9.2-44.8    s14-23.2,26.2-30.9c10.8-7.8,24.6-10.8,40.1-10.8s27.7,3,40.1,10.8c10.8,7.8,20.2,18.5,26.2,30.9c6,12.4,9.2,27.7,9.2,44.8    s-3,30.9-9.2,44.8s-14,23.2-26.2,30.8C276.6,556.2,262.6,559.3,247.2,559.3z M247.2,530c9.2,0,17-1.6,21.6-6.2    c6.2-4.8,10.8-10.8,14-20.2c3-7.8,4.8-18.5,4.8-29.4c0-17-3-30.9-10.8-41.7c-6.2-10.8-17-15.4-29.4-15.4c-9.2,0-15.4,3-21.6,7.8    c-6.2,4.8-10.8,10.8-14,20.2c-3,7.8-4.8,18.5-4.8,29.4s1.6,21.6,4.8,29.4c3,7.8,7.8,15.4,14,20.2C231.9,527,239.7,530,247.2,530    L247.2,530z"></path>
		<path d="M387.6,389.8c15.4,0,27.7,3,38.6,10.8c10.8,6.2,20.2,17,26.2,29.4c6.2,12.4,9.2,27.7,9.2,44.8s-3,30.9-9.2,43.1    c-6.2,12.4-15.4,23.2-26.2,29.4c-10.8,7.8-24.7,10.8-40.1,10.8h-47.9V389.8L387.6,389.8L387.6,389.8z M386,527    c14,0,24.7-4.8,32.4-14c7.8-9.2,10.8-23.2,10.8-40.1s-3-30.9-10.8-40.1c-7.8-9.2-18.5-14-32.4-14h-14v107.8h14V527L386,527z"></path>
		<path d="M509.2,486.8v41.7h63.3v29.4H477V389.8h94.1V419h-61.7v40.1h55.5v27.7L509.2,486.8L509.2,486.8z"></path>
	</g>
</g>
</svg>