<?xml version='1.0' encoding='utf-8'?>
<svg xmlns="http://www.w3.org/2000/svg" id="Vrstva_1" data-name="Vrstva 1" viewBox="0 0 486.59 566.93" width="343.31577" height="400.0">
  <defs>
    <style>
      .cls-1 {
        fill-rule: evenodd;
      }
    </style>
  </defs>
  <path d="m53.56,7.46c15.66,0,28.36,12.7,28.36,28.36v85.07H6.3V7.46h47.26Z"></path>
  <path d="m79.28,536.76L6.31,158.69h75.61l86.13,117.86c9.05,10.54,13.92,24.03,13.69,37.92l-1.52,89.97,10.02-1.54c3.17,15.11,7.82,31.22,14.09,48.39,6.58,19.17,7.06,31.45,5.81,38.65-1.02,5.87-3.44,10.57-9.68,15.61l-26.49,21.36-14.31,9.85h-80.4Z"></path>
  <path d="m455.87,512.19l21.25-56.25c11.94-31.62-11.52-69.63-42.79-81.64l1.54,5.97c2.01,9.99,5.3,21.89,10.45,35.94l.21.58.1.29c10.22,29.52,15.33,60.39,10.12,90.5-.27,1.55-.56,3.1-.88,4.63Z"></path>
  <path class="cls-1" d="m254.8,344.77c-1.77,18.46.98,45.22,14.84,83.07l.11.29c9.07,26.19,12.66,50.98,8.75,73.56-3.99,23.06-15.6,42.54-34.48,57.77l-22.18-27.51c12.44-10.04,19.37-21.99,21.84-36.29,2.55-14.74.55-33.17-7.28-55.83-15.08-41.23-19.19-73.37-16.78-98.44l35.18,3.37Z"></path>
  <path d="m205.08,346.17l31.37-83.81,32.23,83.81h-63.6Z"></path>
  <path class="cls-1" d="m327.16,344.77c-1.77,18.46.98,45.22,14.84,83.07l.11.29c9.07,26.19,12.66,50.98,8.75,73.56-3.99,23.06-15.6,42.54-34.48,57.77l-22.18-27.51c12.44-10.04,19.37-21.99,21.84-36.29,2.55-14.74.55-33.17-7.28-55.83-15.08-41.23-19.19-73.37-16.78-98.44l35.18,3.37Z"></path>
  <path d="m277.44,346.17l31.37-83.81,32.23,83.81h-63.6Z"></path>
  <path class="cls-1" d="m399.53,344.77c-1.77,18.46.98,45.22,14.84,83.07l.11.29c9.07,26.19,12.66,50.98,8.75,73.56-3.99,23.06-15.6,42.54-34.48,57.77l-22.18-27.51c12.44-10.04,19.37-21.99,21.84-36.29,2.55-14.74.55-33.17-7.28-55.83-15.08-41.23-19.19-73.37-16.78-98.44l35.18,3.37Z"></path>
  <path d="m349.81,346.17l31.37-83.81,32.23,83.81h-63.6Z"></path>
  <path d="m354.31,147.16c0,6.99-2.33,13.66-6.21,22.21-4.66,10.87-8.86,33.08,24.53,34.63,25.63,1.55,53.58-25.63,52.03-48.15-.78-24.07-23.15-41.54-48.58-43.73-4.5-.39-6.84-2.86-6.84-6.75,0-7.04,11.15-9.63,16.45-9.63,6.99,0,13.66,2.33,22.2,6.21,10.87,4.66,33.08,8.86,34.63-24.53,1.55-25.63-25.63-53.58-48.15-52.03-24.07.78-41.76,23.96-43.95,48.58-.4,4.5-2.65,6.84-6.53,6.84-8,0-9.63-10.66-9.63-16.45,0-6.99,2.33-13.66,6.21-22.21,4.66-10.87,8.86-33.08-24.53-34.63-25.63-1.55-53.58,25.63-52.03,48.15.78,24.07,23.3,41.76,48.58,43.95,4.5.39,6.84,2.65,6.84,6.53,0,7.54-12.09,9.63-17.54,9.63-6.99,0-12.57-2.33-21.11-6.21-10.87-4.66-33.08-8.86-34.63,24.53-1.55,25.63,25.63,53.58,48.15,52.03,24.07-.78,41.76-23.8,43.95-48.58.4-4.5,2.65-6.84,6.53-6.84,8.18,0,9.63,11.07,9.63,16.45Z"></path>
</svg>