<?xml version='1.0' encoding='utf-8'?>
<!-- Generator: Adobe Illustrator 27.2.0, SVG Export Plug-In . SVG Version: 6.00 Build 0)  --><svg xmlns="http://www.w3.org/2000/svg" xmlns:xlink="http://www.w3.org/1999/xlink" version="1.1" id="Vrstva_1" x="0px" y="0px" viewBox="0 0 819.4 566.9" style="enable-background:new 0 0 819.4 566.9;" xml:space="preserve" width="578.1619" height="400.0">
<style type="text/css">
	.st0{fill:#7F8584;}
	.st1{fill:#C83C24;}
</style>
<g>
	<g>
		<g>
			<path d="M369,494.1c-1.8-15-6.8-28.3-10.4-37.9l-0.4-1c0-0.1-0.1-0.3-0.1-0.4c-0.1-0.4-0.6-1.3-0.9-2.4c-0.4-1-0.9-2.1-1-2.8     l-0.6-1.5c-2.5-6.7-6.7-17.9-9.6-30.6c-0.7-3.3-3.3-5.9-6.5-6.7s-6.7,0.3-8.9,2.8c-1.2,1.3-2.1,2.7-3,4.1     c-5.9,8.9-9,19.5-9.3,30.9c0,9,1.6,17,4.6,22.5l27.1,55.4c1.5,3.1,4.6,5,8,5h0.4c3.5-0.2,6.7-2.4,7.9-5.6     C369.7,516.9,370.6,506.4,369,494.1L369,494.1L369,494.1z M357.9,522.8l-27.1-55.5c-2.2-4.1-3.5-10.8-3.5-18.5     c0.1-9.2,2.7-18.4,7.9-26.2c0.7-1.2,1.3-2.1,2.2-3.1c3.3,14.4,8,26.6,10.5,33.5c0.4,1,1.6,4.3,2.1,5.3     c3.4,9.2,8.4,22.4,10.2,36.9C361.4,505.1,361.1,514.4,357.9,522.8L357.9,522.8z"></path>
			<path d="M358.7,542.8l-1.6-3.3c-6.2-0.3-11.8-4-14.5-9.6l-27-55.1c-3.6-6.7-5.5-15.7-5.5-26.1v-0.2c0.3-13,4-25.1,10.6-35     c0.9-1.5,2.1-3.3,3.8-5.2c4.1-4.6,10.4-6.6,16.5-5.3l0.6-0.7l0.2,0.9c5.9,1.6,10.5,6.5,11.9,12.5c3,12.8,7.4,24.5,9.3,29.5     l0.8,2.1l0.1,0.5c0.1,0.3,0.4,1,0.6,1.4l0.2,0.5l0.1,0.5c0.1,0.2,0.2,0.6,0.3,0.9c0.2,0.4,0.3,0.8,0.4,1.1c0,0.1,0.1,0.2,0.1,0.3     l0.7,1.8c3.6,9.9,8.6,23.4,10.5,38.8c1.8,13.7,0.7,25.4-3.3,35.7c-2.2,5.8-7.4,9.9-13.6,10.7L358.7,542.8L358.7,542.8z      M335.2,448.9c0,7.2,1.4,12.3,2.6,14.7l0.1,0.3l13.5,27.6c-2-11.3-5.8-21.5-8.7-29.3l-0.3-0.9c-0.3-0.6-0.6-1.5-1.1-2.8     c-0.4-1-0.7-1.9-0.9-2.4l-0.1-0.4l-0.6-1.6c-1.1-3-2.5-6.7-4-11.1C335.5,444.9,335.3,446.9,335.2,448.9L335.2,448.9z"></path>
		</g>
		<g>
			<path d="M804.2,160.5c-1.6-2.1-4.3-3.4-7-3.4h-74.2c-2.8,0-5.5,1.3-7.1,3.6L604.8,308.9c-1.6,2.1-2.1,4.7-1.6,7.2l22.2,99.3     l-35.8-3.4c-3-0.3-5.8,0.9-7.7,3.3c-1.9,2.2-2.5,5.3-1.6,8.1c1.3,4.4,2.8,8.3,4,11.8c0.4,1,0.7,2.2,1.2,3.3c0,0,1.5,3.9,2.1,5.5     l0.6,1.5c3.3,8.9,9.5,25.5,11.7,43.7c1.9,16,0.6,31.5-3.8,44.7c-0.9,2.7-0.4,5.8,1.2,8s4.3,3.7,7.2,3.7h106.3     c4.1,0,7.7-2.8,8.6-6.8l86.6-370.7C806.5,165.4,805.8,162.5,804.2,160.5L804.2,160.5L804.2,160.5z M710.6,536.6H604.4     c5.6-16.6,6.1-33.7,4.3-48.5c-2.5-20.3-9.5-38.3-12.7-47.2c-0.4-1-1.6-4.1-2.1-5.3c-1.5-4.1-3.4-9-5-14.5l48,4.6l-24.9-111.3     l111.2-148.3h74.2L710.6,536.6L710.6,536.6L710.6,536.6z"></path>
			<path d="M710.6,553.6H604.4c-5.4,0-10.5-2.6-13.7-7c-3.1-4.3-4-10.1-2.3-15.3c4.1-12.1,5.3-26.3,3.5-41.2c-2-16.8-7.6-32-11-41.1     l-0.9-2.3c-0.5-1.4-1.7-4.6-2-5.2c-0.3-0.8-0.6-1.5-0.8-2.1c-0.1-0.4-0.3-0.8-0.4-1l-0.2-0.6c-0.4-1.2-0.8-2.4-1.3-3.7     c-0.9-2.5-1.8-5.3-2.8-8.3c-1.7-5.4-0.5-11.4,3.2-15.6c3.6-4.4,9-6.6,14.6-6.1l24.8,2.4l-19.9-88.9c-0.9-4.9,0.3-9.8,3.2-13.5     l111.1-148.3c3.1-4.2,8.2-6.8,13.5-6.8h74.2c5.1,0,10.1,2.4,13.2,6.5c3.2,4.1,4.4,9.5,3.1,14.6L727,540.7     C725.3,548.3,718.6,553.7,710.6,553.6L710.6,553.6z M614.9,528.6h89.4l82.9-354.7h-60.1L620.5,316.1L647,434.6l-46.6-4.5     c0.3,0.9,0.7,1.8,1,2.6c0.6,1.5,1.6,4.2,1.9,4.9l0.2,0.4l0.6,1.6c3.5,9.6,10.1,27.4,12.6,47.4     C618.4,501.8,617.8,515.7,614.9,528.6L614.9,528.6z"></path>
		</g>
		<g>
			<path d="M797.1,14.9h-49.4c-18.5,0-33.6,15.1-33.6,33.6v74.2c0,4.9,4,8.9,8.9,8.9h74.2c4.9,0,8.9-4,8.9-8.9V23.8     C806,18.9,802,14.9,797.1,14.9L797.1,14.9L797.1,14.9z M797.1,122.7h-74.2V48.5c0-13.8,11.1-24.7,24.7-24.7h49.4L797.1,122.7     L797.1,122.7z"></path>
			<path d="M797.1,139.6h-74.2c-9.3,0-16.9-7.6-16.9-16.9V48.5c0-22.9,18.7-41.6,41.6-41.6h49.4c9.3,0,16.9,7.6,16.9,16.9v98.9     C814,132,806.4,139.6,797.1,139.6L797.1,139.6z M730.9,114.7h58.2V31.8h-41.4c-9.2,0-16.7,7.5-16.7,16.7     C730.9,48.5,730.9,114.7,730.9,114.7z"></path>
		</g>
	</g>
	<g>
		<path class="st0" d="M200.5,182.1H33.1c-15.1,0-27.8-12.9-27.8-27.8s12.9-27.8,27.8-27.8h167.7c15.1,0,27.8,12.9,27.8,27.8    S215.8,182.1,200.5,182.1L200.5,182.1z"></path>
		<path class="st0" d="M200.5,332.5H33.1c-15.1,0-27.8-12.9-27.8-27.8s12.9-27.8,27.8-27.8h167.7c15.1,0,27.8,12.9,27.8,27.8    S215.8,332.5,200.5,332.5L200.5,332.5z"></path>
		<path class="st0" d="M200.5,482.9H33.1C18,482.9,5.3,470,5.3,455s12.9-28,27.8-28h167.7c15.1,0,27.8,12.9,27.8,27.8    S215.8,482.9,200.5,482.9L200.5,482.9z"></path>
	</g>
	<g>
		<path class="st1" d="M390.8,451.5c0.4,1.2,1.6,4.3,2.1,5.3c3.4,9,8.3,22.2,10.2,36.6c1.9,15.2,0.1,29.3-10.2,40.9L409,560    c19.8-22.3,22.4-50.9,19.4-73.9c-2.5-19.8-9.2-37.5-12.6-46c-0.4-1-1.6-4.3-2.1-5.3c-3.4-9-8.3-22.2-10.2-36.6    c-1.9-15.2-0.1-29.3,10.2-40.9l-16.1-25.8c-19.8,22.4-22.4,50.9-19.4,73.9C380.8,425.3,387.5,442.8,390.8,451.5L390.8,451.5    L390.8,451.5z"></path>
		<path class="st1" d="M456.3,451.5c0.4,1.2,1.6,4.3,2.1,5.3c3.4,9,8.3,22.2,10.2,36.6c1.9,15.2,0.1,29.3-10.2,40.9l16.1,25.8    c19.8-22.3,22.3-50.9,19.5-73.9c-2.5-19.8-9.2-37.5-12.6-46c-0.4-1-1.6-4.3-2.1-5.3c-3.4-9-8.3-22.2-10.2-36.6    c-1.9-15.2-0.1-29.3,10.2-40.9l-16.1-25.8c-19.8,22.4-22.4,50.9-19.4,73.9C446.6,425.3,453.2,442.8,456.3,451.5L456.3,451.5    L456.3,451.5z"></path>
		<path class="st1" d="M522.1,451.5c0.4,0.9,1.6,4.1,2.1,5.3c3.4,9,8.3,22.2,10.2,36.6c1.9,15.2,0.2,29.3-10.2,40.9l16.1,25.8    c19.8-22.3,22.3-50.9,19.4-73.9c-2.5-19.8-9.2-37.5-12.6-46c-0.4-1-1.6-4.3-2.1-5.3c-3.4-9-8.3-22.2-10.2-36.6    c-1.9-15.2-0.2-29.3,10.2-40.9l-16.1-25.8c-19.8,22.4-22.4,50.9-19.4,73.9C512.1,425.3,518.8,442.8,522.1,451.5L522.1,451.5    L522.1,451.5z"></path>
	</g>
</g>
</svg>