<?xml version='1.0' encoding='utf-8'?>
<!-- Generator: Adobe Illustrator 27.2.0, SVG Export Plug-In . SVG Version: 6.00 Build 0)  --><svg xmlns="http://www.w3.org/2000/svg" xmlns:xlink="http://www.w3.org/1999/xlink" version="1.1" id="Vrstva_1" x="0px" y="0px" viewBox="0 0 531.4 566.9" style="enable-background:new 0 0 531.4 566.9;" xml:space="preserve" width="374.9515" height="400.0">
<path d="M266.2,21.5C121.8,21.5,4.2,139,4.2,283.5s117.5,262,261.9,262s262-117.5,262-261.9S410.6,21.5,266.2,21.5z M45.9,283.5  c0-51,17.5-98.1,46.7-135.5L401.7,457c-37.4,29.3-84.5,46.7-135.5,46.7C144.7,503.8,45.9,404.9,45.9,283.5L45.9,283.5L45.9,283.5z   M432,428.4L121.2,117.7c38.8-34,89.5-54.6,145-54.6c121.5,0,220.3,98.8,220.3,220.3C486.5,338.9,465.9,389.6,432,428.4L432,428.4  L432,428.4z"></path>
<g>
	<path d="M374,352.6c5.2-30.1,8.1-58.2,9.3-69.2c2.3-21.5-1.1-94.2-1.8-105.5c-0.9-13.8-22-14.7-23.7-0.1c-1,8.4-6.8,59.1-7.8,67.1   c-0.9,8-10,7.3-10.4-0.1c-0.3-6.6-4.2-119.9-4.7-129.3c-0.9-17.2-25.6-18-26.7-2.1c-0.7,9.8-6.8,104.6-7.3,113.9   c-0.5,9.4-10.7,8.4-11.2,0.5c-0.4-7.1-7.6-135.1-8.2-143.6c-1.2-15.9-27.5-14.9-27.6,0.6c0,8-2.6,83.4-3.2,94.2   c-0.5,9.4-11.8,8.4-12.6-0.1c-0.6-6.6-5.1-54.6-6.1-63.1c-2.2-19-23-16.9-25.6-1.9c-0.7,4.1-5.5,31.5-10.3,60.8L374,352.6   L374,352.6L374,352.6z"></path>
	<path d="M185.6,257c-1.2,23.7-0.7,45-0.5,59.6c-15.3-19.6-29-45-36.5-63.5c-1.9-4.8-24.9-9.5-24.6-3.6   c8.4,186.2,104.2,233.9,144.9,233.9s72.5-28.9,83.7-51.9c0.8-1.6,1.6-3.4,2.4-5.2L185.6,257L185.6,257L185.6,257z"></path>
</g>
</svg>