<?xml version='1.0' encoding='utf-8'?>
<!-- Generator: Adobe Illustrator 27.2.0, SVG Export Plug-In . SVG Version: 6.00 Build 0)  --><svg xmlns="http://www.w3.org/2000/svg" xmlns:xlink="http://www.w3.org/1999/xlink" version="1.1" id="Vrstva_1" x="0px" y="0px" viewBox="0 0 536.4 566.9" style="enable-background:new 0 0 536.4 566.9;" xml:space="preserve" width="378.47946" height="400.0">
<style type="text/css">
	.st0{fill-rule:evenodd;clip-rule:evenodd;}
</style>
<g>
	<path class="st0" d="M268.1,61C143.9,61,44.1,160.8,44.1,284.9s101.3,222.5,223.9,222.5s224-99.8,224-223.9S392.2,61,268.1,61   L268.1,61z M5.7,283.5C5.7,138,122.7,21,268.2,21s262.5,117,262.5,262.5s-117,262.5-262.5,262.5C124.1,547.2,5.7,428.9,5.7,283.5z" fill="#FFCE63"></path>
	<path d="M406.4,313.4l-2.8-12.9c8.6-2.8,40-18.5,45.6-45.6c-18.5,18.5-45.6,21.3-54.2,18.5h-2.8c-12.9-24.3-42.8-58.5-88.4-64.1   h-18.5c-75.5,0-102.6,61.3-106.9,61.3c0,0-27.1-42.8-58.5-45.6c-8.6-2.8-21.3,0-32.7,12.9c0,29.9,91.2,75.5,91.2,75.5l-8.6,12.9   L148.4,359H194l8.6-29.9h176.9L388,359h47.1L406.4,313.4L406.4,313.4z" fill="#FFCE63"></path>
</g>
</svg>