<?xml version='1.0' encoding='utf-8'?>
<svg xmlns="http://www.w3.org/2000/svg" id="Vrstva_1" data-name="Vrstva 1" viewBox="0 0 623.49 566.93" width="439.90616" height="400.0">
  <defs>
    <style>
      .cls-1 {
        fill-rule: evenodd;
      }
    </style>
  </defs>
  <path class="cls-1" d="m618.57,412.99c0,73.84-59.86,133.7-133.7,133.7s-133.7-59.86-133.7-133.7,59.86-133.7,133.7-133.7,133.7,59.86,133.7,133.7Zm-144.84-81.68v81.71h22.28v-81.71h-22.28Zm74.28,103.99v-22.28h-74.28v22.28h74.28Z"></path>
  <path d="m231.29,379.17c8.61-18.94,13.77-33.73,13.77-49.23,0-11.93-3.22-36.48-21.36-36.48-8.61,0-13.59,5.2-14.47,15.17-4.84,54.95-44.06,105.98-97.43,107.71-49.93,3.44-110.18-58.53-106.74-115.35,3.44-74.03,52.67-64.72,76.77-54.39,18.94,8.61,31.31,13.77,46.81,13.77,12.1,0,38.9-4.64,38.9-21.36,0-8.61-5.2-13.61-15.17-14.47-56.05-4.84-105.98-44.06-107.71-97.43-3.44-49.93,58.53-110.18,115.35-106.74,74.03,3.44,64.72,52.67,54.39,76.77-8.61,18.94-13.77,33.73-13.77,49.23,0,12.83,3.63,36.48,21.36,36.48,8.61,0,13.59-5.2,14.47-15.17,4.84-54.58,44.06-105.98,97.43-107.71,49.93-3.44,110.18,58.53,106.74,115.35-3.44,74.03-52.67,64.72-76.77,54.39-18.94-8.61-33.73-13.77-49.23-13.77-11.77,0-36.48,5.74-36.48,21.36,0,8.61,5.2,14.1,15.17,14.96,26.01,2.23,50.58,11.68,69.67,26.45-36.64,33.09-59.67,80.98-59.67,134.24,0,14.19,1.63,28,4.73,41.25-7.44,1.56-14.95,2.2-22.37,1.75-74.03-3.44-64.72-52.67-54.39-76.77Z"></path>
</svg>