<?xml version='1.0' encoding='utf-8'?>
<!-- Generator: Adobe Illustrator 27.2.0, SVG Export Plug-In . SVG Version: 6.00 Build 0)  --><svg xmlns="http://www.w3.org/2000/svg" xmlns:xlink="http://www.w3.org/1999/xlink" version="1.1" id="Vrstva_1" x="0px" y="0px" viewBox="0 0 276.4 566.9" style="enable-background:new 0 0 276.4 566.9;" xml:space="preserve" width="195.02557" height="400.0">
<path d="M227.9,20H44.5c-10,0-19.9,4.3-28.5,11.3c-7.2,7.2-11.3,17-11.3,28.5V505c0,10,4.3,19.8,11.3,28.5  c7.2,7.2,17,11.3,28.5,11.3h183.5c10,0,19.8-4.3,28.5-11.3c7.2-7.2,11.3-17,11.3-28.5V59.9c0-10-4.3-19.8-11.3-28.5  C247.8,24.4,237.9,20,227.9,20z M135.5,492.2c-5.7,0-10-1.5-14.2-4.3c-4.3-2.8-7.2-7.2-10-11.3c-1.5-4.3-2.8-10-1.5-15.7  c1.5-5.7,2.8-10,7.2-12.8c4.3-4.3,8.5-5.7,12.8-7.2c5.7-1.5,10,0,15.7,1.5c4.3,1.5,8.5,5.7,11.3,10c2.8,4.3,4.3,10,4.3,14.2  c0,7.2-2.8,14.2-7.2,18.5C149.7,489.4,142.5,492.2,135.5,492.2L135.5,492.2z M202.4,102.6H71.7V69.7h130.8L202.4,102.6L202.4,102.6  L202.4,102.6z"></path>
</svg>