<?xml version='1.0' encoding='utf-8'?>
<!-- Generator: Adobe Illustrator 27.2.0, SVG Export Plug-In . SVG Version: 6.00 Build 0)  --><svg xmlns="http://www.w3.org/2000/svg" xmlns:xlink="http://www.w3.org/1999/xlink" version="1.1" id="Vrstva_1" x="0px" y="0px" viewBox="0 0 253.4 566.9" style="enable-background:new 0 0 253.4 566.9;" xml:space="preserve" width="178.79695" height="400.0">
<g>
	<g>
		<polygon points="130.2,549.6 13.3,415.4 13.3,341.6 129.4,474.9 240.1,341.9 240.1,417.7   " fill="#53A7F5"></polygon>
		<path d="M130.3,561.9L5.3,418.4v-98.1l123.9,142.3l118.8-142.8v100.8L130.3,561.9L130.3,561.9z M21.3,412.4L130,537.3l102-122.5    V364L129.5,487.2L21.3,363L21.3,412.4L21.3,412.4z" fill="#53A7F5"></path>
	</g>
	<g>
		<path d="M14.4,186.6l114.4,131.4l0.8,0.8l0.8-0.8l109.1-131v72.7L130.3,390.7L14.6,257.5L14.4,186.6 M13.3,184.2V258L130,392.2    l110.1-131.9v-75.8l-110.8,133L13.3,184.2L13.3,184.2L13.3,184.2z" fill="#53A7F5"></path>
		<path d="M130.1,404.5L5.3,261v-98.2l123.8,142.3l119-142.7v100.8L130.1,404.5L130.1,404.5z M22.5,254.5l107.6,123.8l101.3-121.4    v-47.7l-95.2,114.3l-6.7,6.7l-6.8-6.8L22.4,208.1L22.5,254.5L22.5,254.5z" fill="#53A7F5"></path>
	</g>
	<g>
		<path d="M14.4,29.2l114.4,131.4l0.8,0.8l0.8-0.8l109.1-131v72.7L130.3,233.2L14.4,100.1L14.4,29.2 M13.3,26.6v73.8L130,234.6    l110.1-131.9V27.1L129.2,160L13.3,26.6L13.3,26.6L13.3,26.6z" fill="#53A7F5"></path>
		<path d="M130.1,246.9L5.3,103.4V5.2l123.8,142.5L248.1,5v100.6L130.1,246.9L130.1,246.9z M22.4,97.1l107.8,123.8L231.5,99.5V51.8    l-95.2,114.3l-6.7,6.7l-6.8-6.8L22.4,50.6V97.1L22.4,97.1z" fill="#53A7F5"></path>
	</g>
</g>
</svg>