<?xml version='1.0' encoding='utf-8'?>
<svg xmlns="http://www.w3.org/2000/svg" id="Vrstva_1" data-name="Vrstva 1" viewBox="0 0 681.62 566.93" width="480.92004" height="400.0">
  <defs>
    <style>
      .cls-1 {
        fill: #fff;
      }

      .cls-2 {
        fill: #9c9b9b;
      }

      .cls-3 {
        fill-rule: evenodd;
      }
    </style>
  </defs>
  <path class="cls-3" d="m258.94,258.38l-21.91,36.43h217.68l-21.95-36.43c-17.91-2.48-48.82-5.75-86.92-5.75s-68.99,3.27-86.9,5.75Zm-18.42-45.21c15.74-2.59,54.68-7.99,105.33-7.99s89.59,5.41,105.33,7.99l10.82,1.78,5.66,9.39,64.66,107.33,3.4,5.65v6.6l-.03,153.25h0c0,27.22-22.07,49.28-49.29,49.28h-6.37c-25.65,0-46.73-19.6-49.07-44.63h-170.25c-2.34,25.04-23.42,44.63-49.07,44.63h-6.27c-27.22,0-49.29-22.07-49.29-49.28h0s0-153.26,0-153.26v-6.58l3.39-5.64,64.54-107.34,5.66-9.41,10.83-1.78Zm64.61,128.8h-94.94v67.81h27.13v-40.68h54.25l13.56-27.12Zm176.31,0h-94.94l13.56,27.12h54.25v40.68h27.13v-67.81Z"></path>
  <path class="cls-2" d="m614.81,21.75l62.32,92.68-62.32,92.15h-79.9l62.32-92.15-62.32-92.68h79.9Z"></path>
  <path class="cls-1" d="m339.25,204.82c68.66,0,123.06,10.04,123.06,10.04l73.54,122.08-.21,161.1-.68,8.47s-7.06,39.15-50.93,39.15c-1.21,0-2.46-.03-3.73-.09-47.2-2.29-48.95-44.52-48.95-44.52h-169.84s-4.11,44.72-49.84,44.72c-1.73,0-3.52-.06-5.37-.2-50.77-3.64-49.17-49.16-49.17-49.16v-159.45s73.42-122.09,73.42-122.09c36.46-7.53,74.35-10.04,108.69-10.04m0-10c-40.55,0-77.8,3.45-110.71,10.24l-4.29.89-2.26,3.75-73.41,122.09-1.43,2.38v162.09c-.06,2.2-.03,14.64,6.6,27.84,6.59,13.12,20.93,29.22,51.84,31.43,2.06.15,4.1.22,6.08.22,28.29,0,43.15-14.79,50.63-27.2,3.84-6.36,6.1-12.65,7.41-17.53h153.15c1.14,4.64,3.14,10.49,6.62,16.45,7.03,12.03,21.47,26.66,50.33,28.06,1.41.07,2.83.1,4.21.1,26.83,0,41.97-12.85,49.95-23.62,8.4-11.34,10.6-22.51,10.82-23.75l.09-.49.04-.49.68-8.47.03-.39v-.39s.21-161.1.21-161.1v-2.79s-1.43-2.39-1.43-2.39l-73.54-122.08-2.32-3.86-4.43-.82c-2.26-.42-56.09-10.2-124.88-10.2h0Z"></path>
  <g>
    <path d="m16.55,113.84L78.87,21.17h79.9l-62.32,92.68,62.32,92.15h-79.9L16.55,113.84Z"></path>
    <path class="cls-1" d="m158.77,21.17l-62.32,92.68,62.32,92.15h-79.9L16.55,113.84,78.87,21.17h79.9m18.78-10h-104.01l-2.97,4.42L8.25,108.26l-3.76,5.6,3.78,5.59,62.33,92.15,2.97,4.4h104.05l-10.55-15.6-58.55-86.57,58.56-87.08,10.48-15.58h0Z"></path>
  </g>
</svg>