<?xml version='1.0' encoding='utf-8'?>
<svg xmlns="http://www.w3.org/2000/svg" id="Vrstva_1" data-name="Vrstva 1" viewBox="0 0 535.37 566.93" width="377.7327" height="400.0">
  <defs>
    <style>
      .cls-1 {
        fill-rule: evenodd;
      }
    </style>
  </defs>
  <path class="cls-1" d="m428.16,194.24c14.97-1.52,25.86-2.63,41.18,3.49-11.51-27.05-28.31-51.31-49.1-71.48-16.21,12.97-35.67,25.93-64.85,25.93-15.7,0-20.85-46.92-21.75-77.67-20.82-6.56-42.97-10.1-65.96-10.1-36.37,0-70.68,8.87-100.87,24.55,2.77,5.12,5.68,10.17,8.73,14.74,8.2,12.3,36.52,14.21,49.09,10.39,4.18-1.27,7.81-4.95,11.48-8.68,5.57-5.65,11.26-11.43,19.19-9.14,5.97,1.73,11.61,5.45,16.66,9,11.39,8.01,2.69,18.46-6.22,24.68-40.87,28.56-45.49,59.51-50.99,96.36-1.57,10.52-3.22,21.53-5.8,33.09-2.88,12.9-10.17,26.69-25.7,22.64-6.08-1.59-10.05-6.13-14.08-10.74-3.09-3.53-6.2-7.1-10.32-9.39-9.49-5.29-18.55-5.55-27.65.84-9.42,6.6-15.66,17.2-12.9,28.67,2.67,11.08,8.04,18.27,18.28,23.66,6.95,3.66,15.25,7.92,23.2,8.63,6.64.59,13.27.98,19.92,1.37,2.67.16,5.34.32,8.02.48.48.03.96.06,1.44.09,9.41.59,19.72,1.25,28.71,3.67,6.92,1.86,13.02,8.1,18.12,13.31.53.54,1.05,1.07,1.55,1.58,8.92,9.01,18.79,22.03,20.69,34.89,2.47,16.65-5.69,32.1-13.47,46.83-2.14,4.05-4.25,8.05-6.11,12-1.39,2.97-2.91,5.96-4.44,8.97-3.4,6.69-6.85,13.48-9.11,20.45-1.43,4.42-2.49,8.93-3.55,13.43-.8,3.42-1.61,6.85-2.58,10.23-.51,1.79-1.15,3.71-1.95,5.62,16.26,3.85,33.22,5.89,50.66,5.89,82.48,0,154.32-45.58,191.68-112.93-.66-1.17-1.29-2.45-1.85-3.88-1.49-3.76-2.22-6.03-2.89-8.13h0c-1.6-5-2.89-9.02-13.45-29.82q-1.16-2.28-2.02-3.88c-.86-1.6-2.58-4.8-7.19-13.47-6.76-12.73-32.82-3.03-32.82-3.03-19.76,0-45.4-4.53-43.81-43.8,1.03-25.48,6.05-87.59,43.79-87.59,11.73,0,20.97-.94,29.02-1.76ZM146.3,465.85c-.7-7.68-.52-15.32.21-23.17.15-1.6.52-3.24.89-4.9.81-3.61,1.64-7.28.22-10.69-4.63-11.18-15.89-20.36-25.05-27.83l-.46-.38c-.87-.71-1.74-1.41-2.62-2.12-11.3-9.14-23.24-18.78-25.87-33.88-.62-3.54-.13-6.84.36-10.16.33-2.23.66-4.48.66-6.82,0-5.38-2.46-10.79-4.64-15.59-.51-1.13-1.01-2.26-1.5-3.38-2.55-5.82-4.99-11.37-9.59-16.06-.64-.65-1.26-1.3-1.89-1.94-4.26-4.39-8.39-8.64-13.56-12.12-3.5-2.36-7.8-3.98-12.12-5.6-.87-.33-1.74-.66-2.61-.99,2.22,73.29,40.43,137.54,97.57,175.64Zm384.25-182.38c0,145.17-117.68,262.86-262.86,262.86S4.83,428.64,4.83,283.46,122.51,20.61,267.69,20.61s262.86,117.69,262.86,262.86Z"></path>
</svg>