<?xml version='1.0' encoding='utf-8'?>
<svg xmlns="http://www.w3.org/2000/svg" id="Vrstva_1" data-name="Vrstva 1" viewBox="0 0 532.73 566.93" width="375.87006" height="400.0">
  <defs>
    <style>
      .cls-1 {
        fill-rule: evenodd;
      }
    </style>
  </defs>
  <path class="cls-1" d="m122.44,63.97l25.7,25.7c34.43-21.05,74.91-33.18,118.23-33.18s81.72,11.52,115.57,31.59l25.77-25.77c-40.8-26.13-89.3-41.28-141.35-41.28s-102.6,15.8-143.93,42.95ZM3.92,283.46c0-52.05,15.15-100.55,41.28-141.35l25.77,25.77c-20.07,33.85-31.59,73.37-31.59,115.58s11.52,81.72,31.59,115.57l-25.77,25.77C19.07,384.01,3.92,335.51,3.92,283.46Zm489.42,0c0,43.31-12.13,83.79-33.18,118.23l25.7,25.7c27.15-41.33,42.95-90.78,42.95-143.93s-15.8-102.6-42.95-143.93l-25.7,25.7c21.05,34.43,33.19,74.91,33.19,118.23Zm-226.98,226.98c-43.31,0-83.8-12.13-118.23-33.19l-25.7,25.7c41.33,27.16,90.78,42.95,143.93,42.95s100.55-15.15,141.35-41.28l-25.77-25.77c-33.85,20.07-73.37,31.59-115.58,31.59Zm-85.98-293.96l17.31-28.79c14.15-1.96,38.57-4.54,68.66-4.54s54.52,2.59,68.67,4.54l17.34,28.79h-171.98Zm85.97-70.82c-40.02,0-70.78,4.27-83.22,6.32l-8.56,1.4-4.47,7.43-50.99,84.81-2.68,4.46v126.3h0c0,21.51,17.43,38.94,38.94,38.94h4.96c20.27,0,36.92-15.48,38.77-35.27h134.51c1.85,19.78,18.5,35.27,38.77,35.27h5.03c21.51,0,38.94-17.43,38.94-38.94h0s.02-121.09.02-121.09v-5.21s-2.69-4.46-2.69-4.46l-51.08-84.81-4.47-7.42-8.55-1.4c-12.44-2.04-43.2-6.32-83.22-6.32Zm-107.18,108.08h75.01l-10.72,21.43h-42.86v32.15h-21.43v-53.58Zm139.3,0h75.01v53.58s-21.43,0-21.43,0v-32.15h-42.86l-10.72-21.43Z"></path>
</svg>