<?xml version='1.0' encoding='utf-8'?>
<svg xmlns="http://www.w3.org/2000/svg" id="Vrstva_1" data-name="Vrstva 1" viewBox="0 0 556.51 566.93" width="392.64813" height="400.0">
  <path d="m101.43,439.01c86.94,0,157.42-70.52,157.42-157.5,0-65.45,53.04-118.51,118.46-118.51h100.71l-49.68,49.71,27.55,27.55,95.04-95.08-.22-.2.22-.23-95.04-95.08-27.55,27.56,46.78,46.79h-97.81c-86.94,0-157.42,70.51-157.42,157.49,0,65.45-53.03,118.51-118.46,118.51H5.57v38.99h95.85Zm92.42-227.74c5.02-13.11,11.4-25.55,18.98-37.14-28.49-28.54-67.88-46.21-111.39-46.21H5.57v38.99h95.85c37.37,0,70.71,17.31,92.42,44.36Zm357.1,210.94l-.24-.23.23-.23-95.04-95.08-27.55,27.55,49.68,49.71h-100.71c-38.58,0-72.84-18.45-94.47-47.01-5.39,12.95-12.13,25.2-20.03,36.58,28.7,30.42,69.39,49.4,114.5,49.4h97.83l-46.8,46.8,27.55,27.55,95.06-95.06Z"></path>
</svg>