<?xml version='1.0' encoding='utf-8'?>
<!-- Generator: Adobe Illustrator 27.2.0, SVG Export Plug-In . SVG Version: 6.00 Build 0)  --><svg xmlns="http://www.w3.org/2000/svg" xmlns:xlink="http://www.w3.org/1999/xlink" version="1.1" id="Vrstva_1" x="0px" y="0px" viewBox="0 0 719.4 566.9" style="enable-background:new 0 0 719.4 566.9;" xml:space="preserve" width="507.60272" height="400.0">
<g>
	<path d="M320.2,500.9c-25.3,11.9-56.8,17.9-94.3,17.9c-29.8,0-58.1-3.4-84.8-10.2c-26.7-6.8-50.1-16-70.2-27.4   c-20.1-11.4-36.1-24.6-48.1-39.7c-11.9-15-17.9-30.8-17.9-47.1c0-15.4,3.9-28.8,11.7-40.1c7.8-11.3,18.9-22.2,33.3-32.6l22.4,20.5   c-9.2,5.5-16.3,11.7-21.4,18.8c-5.1,7.1-7.6,14.6-7.6,22.5c0,8.7,4,17.3,11.9,25.9s18.8,16.2,32.4,22.9   c13.7,6.7,29.7,12.1,48.1,16.2c18.4,4.1,38,6.1,58.9,6.1c23.9,0,44.9-1.4,63.2-4.3c18.3-2.9,34.2-7.5,47.9-14l-10.8-45.1   l101.7,57.8l-60,96.9L320.2,500.9L320.2,500.9L320.2,500.9z M470,342.1c-15.7,0-32.7,0.2-51,0.6c-18.4,0.4-37.3,0.6-56.6,0.6   s-40.1-0.2-60-0.8c-19.9-0.5-38.9-1.5-57.2-3.2c-18.3-1.6-35.3-3.9-51-6.7c-15.8-2.9-29.5-6.5-41.2-11c-10.4-2.7-18.7-5.7-24.8-9   c-6.1-3.2-10.7-6.8-13.8-10.8c-3.1-4-5.1-8.4-6-13.2c-0.9-4.8-1.3-10.2-1.3-16.2c0-14.2,0.5-28.5,1.5-43.1c1-14.5,2.3-28.9,3.9-43   c1.6-14.2,3.4-27.9,5.4-41.2c2-13.3,3.9-25.7,5.6-37.1c1-6.7,2.9-12.5,5.8-17.5c2.9-5,6.8-9.3,11.7-13c5-3.7,11.2-7,18.8-9.9   c7.6-2.8,16.7-5.6,27.4-8.4c9.7-3.7,23.3-7.3,40.8-10.6c17.5-3.3,37-6.5,58.3-9.3c21.4-2.8,43.8-5.4,67.3-7.6   c23.5-2.2,46.1-4.2,68-5.8c21.9-1.6,42.1-2.9,60.6-3.7c18.5-0.9,33.4-1.3,44.5-1.3c11.9,0,22.2,0.4,30.9,1.3   c8.7,0.9,16.5,2.8,23.3,5.8c6.8,3,13,7.3,18.5,12.9c5.5,5.6,10.9,13,16.4,22.2c5.5,10.4,9.9,22.5,13.2,36.3   c3.4,13.8,6.1,28.9,8.2,45.5c2.1,16.5,3.7,34.3,4.8,53.3c1.1,19,2.2,38.9,3.2,59.8c1.7,14.2,5.2,25.5,10.4,33.9   c5.2,8.5,11.2,15.4,17.9,20.9c6.7,5.5,13.7,9.9,21,13.2c7.3,3.4,14,6.9,19.9,10.6l-93.5,107.3l-38.4-38.4   c-13.7-16.4-26.6-29.2-38.9-38.4s-25.4-15.1-39.3-17.9L470,342.1L470,342.1L470,342.1z M260.2,300c11.4,0.7,23.7,1.4,36.7,1.9   c13,0.5,26.3,0.9,39.7,1.1s26.7,0.4,39.9,0.4H413c31.5,0,59.5-0.6,83.8-1.9c24.3-1.2,44.8-3.7,61.3-7.3c16.5-3.6,29-8.8,37.5-15.5   c8.4-6.7,12.7-15.5,12.7-26.5c0-20.1-1-38.3-3-54.4s-4-32.1-6-47.7c-2.7-21.9-5.7-38.7-8.8-50.5c-3.1-11.8-7.3-20.4-12.5-25.9   c-5.2-5.5-11.9-8.6-19.9-9.5c-8.1-0.9-18.2-1.3-30.4-1.3c-15.2,0-32,0.4-50.7,1.1c-18.6,0.8-38,1.7-58.1,3   c-20.1,1.2-40.5,2.9-61.1,4.8c-20.6,2-40.6,4.2-59.8,6.5c-19.3,2.4-37.3,4.9-54,7.6c-16.8,2.7-31.4,5.7-44,8.9   c-12.6,3.2-22.4,6.5-29.6,9.9c-7.2,3.3-10.8,6.9-10.8,10.6c-3.5,21.9-6.3,46.4-8.4,73.6c-2.1,27.2-4.2,55-6.1,83.3   c0,1.2,1.3,3.4,3.9,6.5c2.6,3.1,7.9,6.2,16,9.3c8.1,3.1,19.7,5.8,34.8,8.2C214.9,298.8,235.1,300,260.2,300L260.2,300L260.2,300z"></path>
</g>
</svg>