<?xml version='1.0' encoding='utf-8'?>
<!-- Generator: Adobe Illustrator 27.2.0, SVG Export Plug-In . SVG Version: 6.00 Build 0)  --><svg xmlns="http://www.w3.org/2000/svg" xmlns:xlink="http://www.w3.org/1999/xlink" version="1.1" id="Vrstva_1" x="0px" y="0px" viewBox="0 0 607.4 566.9" style="enable-background:new 0 0 607.4 566.9;" xml:space="preserve" width="428.57648" height="400.0">
<style type="text/css">
	.st0{fill-rule:evenodd;clip-rule:evenodd;}
</style>
<g>
	<path class="st0" d="M85.2,252.7h168.2c48.5,0,88.9-40.4,88.9-92.2c0-45.4-27.5-85.8-69.6-93.9c-19.4-33.9-55-59.9-98.7-59.9   c-50,0-90.7,35.6-106.8,81c-37.1,8.3-61.4,40.6-61.4,81.1C4.3,214,41.5,252.7,85.2,252.7L85.2,252.7z"></path>
	<rect x="35.7" y="277.1" transform="matrix(0.7071 -0.7071 0.7071 0.7071 -196.4383 123.6593)" width="30.8" height="43.7"></rect>
	<rect x="96" y="337.2" transform="matrix(0.7071 -0.7071 0.7071 0.7071 -221.2425 183.9406)" width="30.8" height="43.7"></rect>
	<rect x="113.2" y="276.5" transform="matrix(0.7071 -0.7071 0.7071 0.7071 -173.2915 178.322)" width="30.8" height="43.7"></rect>
	<polygon class="st0" points="311.8,312.7 276.3,312.7 293.9,285.2 268.2,269 250.3,298.1 232.4,269 206.6,285.2 222.8,312.7    188.9,312.7 188.9,343.5 222.8,343.5 206.6,372.5 232.4,388.8 250.3,359.5 268.2,388.8 293.9,372.5 276.3,343.5 311.8,343.5  "></polygon>
	<path class="st0" d="M588.6,252.7h-63.2v9.6c-1.7,19.4-3.2,35.6-5,51.8H480c3.2-16.1,6.5-37.3,8.1-61.4h-58.3   c0,16.1-5,38.9-27.5,67.9c-19.4,24.3-50,53.5-74.4,72.9c-72.9,55-153.8,103.6-280,166.7h257.5c17.9-12.9,61.4-45.4,88.9-76h48.5   c-26,33.9-55,61.4-72.9,76h194.2c26-46.9,37.3-118.2,37.3-186.1C599.9,325.6,598.2,294.9,588.6,252.7L588.6,252.7z M475.4,432.4   c0,1.6-1.7,3.1-3.2,5h-45.4c21-32.5,38.9-66.4,40.4-76v-1.6h42.1C502.8,380.7,493.1,403.4,475.4,432.4L475.4,432.4z"></path>
</g>
</svg>