<?xml version='1.0' encoding='utf-8'?>
<!-- Generator: Adobe Illustrator 27.2.0, SVG Export Plug-In . SVG Version: 6.00 Build 0)  --><svg xmlns="http://www.w3.org/2000/svg" xmlns:xlink="http://www.w3.org/1999/xlink" version="1.1" id="Vrstva_1" x="0px" y="0px" viewBox="0 0 380.4 566.9" style="enable-background:new 0 0 380.4 566.9;" xml:space="preserve" width="268.4071" height="400.0">
<g>
	<rect x="25" y="525.1" width="334.1" height="19.9"></rect>
	<path d="M255.3,500.8c9.8,4,56.4,0.7,91-36.5s16-81.3,24.5-100.1c5.9-13.1,6.6-27.3,3-35.4c-12.7-27.6-13.1,28.2-38.5,21.9   c-32.8-8.1,3.7-45,5.7-84.9c1.8-36.1-9.4-50.5-20.6-25.4c-10.9,24.1-47.7,21.4-27.5-26.7c21.7-51.4,9.2-85.7,0.7-87.3   c-9-1.7-13.1,23.9-26.5,40.9c-12.4,15.7-37.2,28.4-38.1-8.8c-0.7-37.2,27.1-49.2,23-78.9c-6.3-45.1-32.8-60.6-42-57.1   s-0.2,22.5,0,40.9c0.5,48.3-43.7,52.7-43.3,73.7c0.4,21,15.3,27.4,8.8,48.5s-24.9,44.2-38.5,28.9c-13.6-15.3,3.1-52.1-6.6-57.5   c-9.8-5.3-29.1,8.8-34.8,30.4c-5.7,21.6,11.2,47,13.3,69.7s-20.3,51-35.2,31.9c-14.9-19.2-2-48.1-8.8-55.5   C58,226,45.3,234.2,37,250.7c-8.8,17.5-9.8,46.1,4.4,63s16.8,39.1,6.1,44.6c-12.9,6.8-24.3-10.1-27.8-21.7   c-3.7-12.2-10.3-16.8-13.8-4.2c-6.4,23,8.8,77.4,35.9,108.9c38.7,44.8,87,58.6,93,43.7c6.1-14.9-53.6-45.9-35.6-93.8   c10-26.5,18.8-17.7,19.7,2.6c0.9,20.3,20.8,37.4,27.3,31c6.5-6.5-3.3-14.2-4.4-33.9c-1.1-19.7,5.9-31.9,13.5-19   c7.5,12.9,17.3,15.3,14-2.2s9.6-26.4,10-42.4c0.4-16.2,7.2-15.5,11.6-8.5c5.5,8.8,7,24,5,39.2c-2,15.3,7.5,16.6,13.3,10.1   c9.6-11.1,7.7-24.9,14.9-19.9c12.4,8.7,15.1,33.5,8.7,48.8c-6.5,15.3-11.2,27.6,6.5,23.4c11.6-2.8,21-14.9,18.4-29.5   c-2.4-14.6,9.2-14.7,17.5,0.4c11.2,20.1,8.5,59.7-12.7,80.9C249.6,485.1,248,497.8,255.3,500.8L255.3,500.8z"></path>
</g>
</svg>