<?xml version='1.0' encoding='utf-8'?>
<!-- Generator: Adobe Illustrator 27.2.0, SVG Export Plug-In . SVG Version: 6.00 Build 0)  --><svg xmlns="http://www.w3.org/2000/svg" xmlns:xlink="http://www.w3.org/1999/xlink" version="1.1" id="Vrstva_1" x="0px" y="0px" viewBox="0 0 579.4 566.9" style="enable-background:new 0 0 579.4 566.9;" xml:space="preserve" width="408.81992" height="400.0">
<path d="M573.4,267C562.4,391,452.9,482.5,329,471.4c-42.7-3.8-81.5-19.3-113.6-43L82.9,539.3c-5.4,4.5-12.2,6.4-18.7,5.8  c-6.5-0.6-12.8-3.7-17.4-9.1L11,493.2c-4.4-5.2-6.5-11.9-5.9-18.7c0.6-6.8,3.9-13,9.1-17.4l132.5-110.8  c-17.6-35.8-26-76.7-22.2-119.4C135.7,103,245.1,11.5,369,22.6C493,33.6,584.5,143.1,573.4,267L573.4,267L573.4,267z M362,101  c-80.6-7.2-151.8,52.3-159,133c-7.2,80.6,52.3,151.8,133,159c80.6,7.2,151.8-52.4,159-133C502.2,179.4,442.7,108.2,362,101L362,101  L362,101z"></path>
</svg>