<?xml version='1.0' encoding='utf-8'?>
<!-- Generator: Adobe Illustrator 27.2.0, SVG Export Plug-In . SVG Version: 6.00 Build 0)  --><svg xmlns="http://www.w3.org/2000/svg" xmlns:xlink="http://www.w3.org/1999/xlink" version="1.1" id="Vrstva_1" x="0px" y="0px" viewBox="0 0 632.4 566.9" style="enable-background:new 0 0 632.4 566.9;" xml:space="preserve" width="446.21628" height="400.0">
<path d="M606,548.6C606,548.6,606,548.6,606,548.6H26.3c-7.8,0-15-4.2-18.8-10.9c-3.8-6.8-3.8-15.1,0.2-21.8l289.8-487  c3.9-6.6,11-10.6,18.6-10.6s14.7,4,18.6,10.6l289.2,486c2.3,3.5,3.7,7.6,3.7,12.1C627.7,538.9,618,548.6,606,548.6L606,548.6  L606,548.6z M64.4,505.3h503.5L316.1,82.2L64.4,505.3L64.4,505.3L64.4,505.3z"></path>
<path d="M352.7,439.3c0,20.6-16.4,37.2-36.5,37.2s-36.5-16.6-36.5-37.2s16.4-36.5,36.5-36.5S352.7,419.2,352.7,439.3L352.7,439.3z"></path>
<path d="M316.2,477.4c-20.6,0-37.4-17.1-37.4-38.1s16.8-37.3,37.4-37.3s37.4,16.7,37.4,37.3S336.8,477.4,316.2,477.4z M316.2,403.7  c-19.6,0-35.6,16-35.6,35.6s16,36.4,35.6,36.4s35.6-16.3,35.6-36.4S335.8,403.7,316.2,403.7L316.2,403.7z"></path>
<path d="M357.9,196.6c0-23-18.7-41.7-41.7-41.7s-41.7,18.7-41.7,41.7c0,2.5,18.3,167.5,18.3,167.5c1.6,11.7,11.2,20.9,23.4,20.9  s21.9-9.1,23.5-20.9C339.6,364.1,357.9,199.1,357.9,196.6L357.9,196.6L357.9,196.6z"></path>
<path d="M316.2,385.8c-12.3,0-22.6-9.1-24.3-21.6c-0.8-6.8-18.3-165.1-18.3-167.6c0-23.5,19.1-42.6,42.5-42.6s42.6,19.1,42.6,42.6  c0,2.5-17.5,160.8-18.3,167.6C338.7,376.7,328.5,385.8,316.2,385.8L316.2,385.8z M316.2,155.8c-22.5,0-40.8,18.3-40.8,40.8  c0,2.3,12,110.5,18.3,167.4c1.6,11.6,11.1,20.1,22.6,20.1s21-8.5,22.6-20.1c6.3-56.9,18.2-165.1,18.2-167.4  C357,174.1,338.7,155.8,316.2,155.8L316.2,155.8L316.2,155.8z"></path>
</svg>