<?xml version='1.0' encoding='utf-8'?>
<!-- Generator: Adobe Illustrator 27.2.0, SVG Export Plug-In . SVG Version: 6.00 Build 0)  --><svg xmlns="http://www.w3.org/2000/svg" xmlns:xlink="http://www.w3.org/1999/xlink" version="1.1" id="Vrstva_1" x="0px" y="0px" viewBox="0 0 341.4 566.9" style="enable-background:new 0 0 341.4 566.9;" xml:space="preserve" width="240.88904" height="400.0">
<style type="text/css">
	.st0{fill:#A0C7A2;}
</style>
<g>
	<g>
		<path d="M208.7,493.4l-58.8-47.1v-81c-36.9-1.4-70.6-16.3-97.1-42.8C26.3,296,11.4,259.2,11.4,220.9    c0-79.4,64.7-144.4,144.4-144.4c16.3,0,33.9,2.9,51.6,10.4l1.4,1.4L208.7,493.4L208.7,493.4L208.7,493.4z M155.8,443.4l45.7,36.9    v-389c-16.3-5.9-32.4-8.8-47.1-8.8c-76.5,0-138.7,61.8-138.7,138.7s60.2,137.1,135.6,138.7h2.9v83.9h1.6L155.8,443.4L155.8,443.4z     M230.9,342V100.3l4.5,2.9c41.2,28,63.3,70.6,63.3,117.9s-23.6,88.4-63.3,116.5L230.9,342L230.9,342L230.9,342z M238.3,113.5    v216.6c35.3-26.5,55.9-66.1,55.9-107.7C294.3,178.2,273.7,140,238.3,113.5C238.3,113.5,238.3,113.5,238.3,113.5z M155.8,312.4    h-2.9c-23.6,0-47.1-10.4-63.3-28c-16.3-17.7-26.5-39.8-26.5-63.3s8.8-47.1,26.5-63.3c16.3-17.7,39.8-26.5,63.3-28h2.9V312.4    L155.8,312.4z M149.9,135.5c-45.7,2.9-79.4,39.8-79.4,85.3s35.3,82.4,79.4,85.3V135.5L149.9,135.5z M233.8,76.4    c-17.7,0-31-13.3-31-31s13.3-31,31-31c16.3,0,31,13.3,31,31S251.5,76.4,233.8,76.4L233.8,76.4z M233.8,22.1    c-13.3,0-25.1,10.4-25.1,25.1c0,13.3,10.4,25.1,25.1,25.1c13.3,0,25.1-10.4,25.1-25.1S247,22.1,233.8,22.1z"></path>
		<path d="M214.7,505.9l-70.8-56.8V371c-36.2-2.8-69.1-18-95.4-44.2c-27.4-27.4-43.1-66-43.1-105.9c0-82.9,67.5-150.4,150.4-150.4    c18.8,0,36.9,3.7,53.9,10.9l1.1,0.5l4,4L214.7,505.9L214.7,505.9z M160.2,439.3l35.3,28.5V95.6c-13.9-4.6-28.1-7.1-41.1-7.1    C81.2,88.5,21.7,148,21.7,221.2s58.2,131.1,129.7,132.7h8.8L160.2,439.3L160.2,439.3z M224.9,356.5V89.3l13.8,8.9    c21.2,14.4,37.7,32.5,49,53.8c11.2,21.1,16.9,44.3,16.9,69c0,47.3-23.8,91.4-65.4,121.1L224.9,356.5L224.9,356.5z M244.3,126.1    v191.4c28.1-25.1,43.9-59.1,43.9-95C288.3,185.2,272.8,151.4,244.3,126.1z M161.8,318.4h-8.9c-25.2,0-50.5-11.2-67.7-29.9    c-18.1-19.7-28.1-43.6-28.1-67.3c0-26.5,10.3-51.1,28.3-67.5c16.2-17.5,40-28,67.1-29.7h0.4l8.9,0V318.4L161.8,318.4z     M143.9,142.2c-38.9,5.5-67.4,38.3-67.4,78.7s29.1,73,67.4,78.7V142.2z M233.8,82.5c-21.1,0-37-15.9-37-37s15.9-37,37-37    s37,16.6,37,37S254.9,82.5,233.8,82.5L233.8,82.5z M233.8,28.1c-9.4,0-19.1,7.1-19.1,19.1c0,9.4,7.1,19.1,19.1,19.1    c9.4,0,19.1-7.1,19.1-19.1S243.2,28.1,233.8,28.1z"></path>
	</g>
	<polygon class="st0" points="336,418.5 297.7,418.5 297.7,296.1 224,434.6 260.9,434.6 260.9,558.5  "></polygon>
</g>
</svg>