<?xml version='1.0' encoding='utf-8'?>
<svg xmlns="http://www.w3.org/2000/svg" id="Vrstva_1" data-name="Vrstva 1" viewBox="0 0 651.95 566.93" width="459.98624" height="400.0">
  <defs>
    <style>
      .cls-1 {
        fill-rule: evenodd;
      }
    </style>
  </defs>
  <path d="m273.03,132.08l-14.44,69.86-8.62,1.04-26.37-64.57-76.83,5.27-1.88-7.68,66.4-41.8-51.81-52.9,5.53-6.58,72.44,16.81,19.9-44.39,4.91.96,9.08,52.1,53.85-16.44,3.66,4.11-37.27,52.62,66.29,29.01-1.24,7.55-83.6-4.99Z"></path>
  <path d="m551.6,15.08l-32.23,32.23c49.49,49.49,80.1,117.87,80.1,193.39,0,15.53-1.3,30.77-3.78,45.59h46.13c2.13-14.89,3.23-30.11,3.23-45.59,0-88.11-35.71-167.88-93.45-225.62Z"></path>
  <path d="m417.14,449.64c-27.92,12.2-58.75,18.96-91.16,18.96-125.87,0-227.91-102.04-227.91-227.91,0-26.98,4.69-52.87,13.3-76.89l38.74,28.3h.1c-4.27,15.47-6.55,31.76-6.55,48.59,0,100.7,81.63,182.33,182.33,182.33,33.21,0,64.35-8.88,91.16-24.39v51.01Z"></path>
  <path d="m549.33,286.29c2.99-14.73,4.56-29.98,4.56-45.59,0-32.41-6.77-63.24-18.96-91.15-30.14-69-93.46-120.18-169.78-133.4l2.6,47.04c49.62,11.63,91.43,43.53,116.24,86.48-17.65.85-34.88,6.18-50.11,15.57l-.31.19-63.85,35.91-2.93.54c-21.85,4.05-39.22,7.29-53.02,10.54-13.73,3.24-25.19,6.77-34.8,11.88-8.35,4.44-14.06,9.59-18.2,16.18-4.04,6.42-7.22,15.24-8.96,28.1l-.16,1.2v27.26l.03.48v.05s0,.06,0,.06v.13s.03.27.03.27l.06.6c.05.42.11.9.21,1.43.19,1.04.52,2.39,1.12,3.9.68,1.72,1.54,3.24,2.46,4.54l5.38,7.57h17.06c1.38-36.55,31.44-65.75,68.32-65.75s66.95,29.21,68.32,65.75h5.33c6.43-17.37,23.15-29.76,42.76-29.76h86.6Z"></path>
  <path d="m6.9,240.7C6.9,152.59,42.61,72.82,100.36,15.08l32.23,32.23c-49.49,49.49-80.1,117.87-80.1,193.39s30.61,143.9,80.1,193.39l-32.23,32.23C42.61,408.58,6.9,328.81,6.9,240.7Z"></path>
  <path d="m382.3,318.67c0,19.87-16.11,35.98-35.99,35.98s-35.99-16.11-35.99-35.98,16.11-35.99,35.99-35.99,35.99,16.11,35.99,35.99Z"></path>
  <path class="cls-1" d="m485.52,514.2v-14.32c0-38.64,27.13-76.84,68.37-76.84s68.37,38.19,68.37,76.84v14.32s22.79,0,22.79,0v45.58h-182.33v-45.58h22.79Zm45.58,0h45.58v-14.32c0-21.05-13.68-31.25-22.79-31.25s-22.79,10.2-22.79,31.25v14.33Z"></path>
  <path class="cls-1" d="m622.26,377.46v14.32c0,38.64-27.13,76.85-68.37,76.85s-68.37-38.2-68.37-76.84v-14.32s-22.79,0-22.79,0v-45.58h182.33v45.58h-22.79Zm-45.58,0h-45.58v14.32c0,21.05,13.68,31.26,22.79,31.26s22.79-10.2,22.79-31.26v-14.33Z"></path>
  <path d="m462.72,559.78h182.33v-45.58h-182.33v45.58Z"></path>
  <path class="cls-1" d="m462.72,559.78h182.33v-45.58h-22.79v-14.32c0-.21,0-.42,0-.62-.05-6.81-.94-13.61-2.61-20.17-.03-.12-.06-.24-.09-.36-3.15-12.21-8.96-23.62-16.98-32.9,8.02-9.27,13.84-20.69,16.98-32.9,1.72-6.66,2.64-13.56,2.7-20.47,0-.23,0-.46,0-.68v-14.32s22.79,0,22.79,0v-45.58h-182.33v45.58h22.79v14.32c0,.21,0,.42,0,.63.05,6.94.98,13.85,2.7,20.53,3.15,12.21,8.96,23.62,16.98,32.9-8.02,9.27-13.84,20.68-16.98,32.9-.03.12-.06.23-.09.35-1.66,6.55-2.55,13.32-2.61,20.12,0,.23,0,.45,0,.68v14.32s-22.79,0-22.79,0v45.58Zm68.38-45.58h45.58v-14.32c0-.16,0-.32,0-.48-.09-8.59-2.46-15.35-5.86-20.32-4.8-7.01-11.64-10.46-16.93-10.46s-12.13,3.44-16.93,10.46c-3.39,4.96-5.77,11.7-5.86,20.27,0,.17,0,.34,0,.52v14.33Zm45.58-136.74h-45.58v14.32c0,.16,0,.32,0,.48.09,8.59,2.46,15.35,5.86,20.32,4.8,7.02,11.64,10.46,16.93,10.46s12.13-3.45,16.93-10.46c3.39-4.96,5.77-11.7,5.86-20.27,0-.17,0-.34,0-.52v-14.33Z"></path>
</svg>