<?xml version='1.0' encoding='utf-8'?>
<svg xmlns="http://www.w3.org/2000/svg" id="Vrstva_1" data-name="Vrstva 1" viewBox="0 0 604.01 566.93" width="426.16196" height="400.0">
  <defs>
    <style>
      .cls-1 {
        fill-rule: evenodd;
      }
    </style>
  </defs>
  <path class="cls-1" d="m8.84,12.98h106.02c20.92,0,39.14,4.6,54.68,13.79,15.53,8.87,27.42,21.08,35.66,36.61,8.24,15.53,12.36,32.96,12.36,52.3s-4.12,36.77-12.36,52.3c-7.92,15.53-19.81,27.73-35.66,36.61-15.53,8.87-34.07,13.31-55.63,13.31h-48.49v110.78H8.84V12.98Zm99.84,155.47c16.48,0,28.84-4.75,37.08-14.26,8.56-9.51,12.84-22.35,12.84-38.51s-4.28-28.84-12.84-38.03c-8.56-9.51-20.92-14.26-37.08-14.26h-43.26v105.07h43.26Zm134.72,23.8c.63-1.13,1.24-2.28,1.83-3.44,6.57-12.45,11.18-26.17,13.9-40.53h73.54c24.02,0,43.49,19.47,43.49,43.49v318.91c0,24.02-19.47,43.49-43.49,43.49h-144.96c-24.02,0-43.49-19.47-43.49-43.49v-250.39c27.82-5.06,53.87-17.19,74.26-36.16,2.36,1.25,5.04,1.95,7.9,1.95h67.65c9.34,0,16.91-7.57,16.91-16.91s-7.57-16.91-16.91-16.91h-50.63Zm227.76,22.24l22.55-39.06c60.65,35.09,101.46,100.67,101.46,175.78s-40.8,140.69-101.46,175.79l-22.55-39.06c47.17-27.29,78.91-78.3,78.91-136.72s-31.74-109.43-78.91-136.72Zm-22.55,39.06l-22.55,39.06c20.22,11.7,33.82,33.56,33.82,58.59s-13.6,46.9-33.82,58.6l22.55,39.06c33.7-19.5,56.36-55.93,56.36-97.66s-22.67-78.16-56.36-97.66Z"></path>
</svg>