<?xml version='1.0' encoding='utf-8'?>
<!-- Generator: Adobe Illustrator 27.2.0, SVG Export Plug-In . SVG Version: 6.00 Build 0)  --><svg xmlns="http://www.w3.org/2000/svg" xmlns:xlink="http://www.w3.org/1999/xlink" version="1.1" id="Vrstva_1" x="0px" y="0px" viewBox="0 0 595.4 566.9" style="enable-background:new 0 0 595.4 566.9;" xml:space="preserve" width="420.10938" height="400.0">
<style type="text/css">
	.st0{fill-rule:evenodd;clip-rule:evenodd;}
</style>
<g>
	<rect x="280.3" y="251.1" width="31.7" height="33.3" fill="#FFCE63"></rect>
	<rect x="280.3" y="316" width="31.7" height="33.3" fill="#FFCE63"></rect>
	<path class="st0" d="M383.3,54.4V21c-18.9,3.2-36.4,9.5-52.2,22.2l22.1,22.2C364.1,60.7,373.8,57.5,383.3,54.4z" fill="#FFCE63"></path>
	<path class="st0" d="M468.8,43.3c-15.9-12.7-33.3-19.1-52.2-22.2v33.3c9.5,3.2,18.9,6.3,30,12.7C446.5,67.1,468.8,43.3,468.8,43.3z   " fill="#FFCE63"></path>
	<path class="st0" d="M481.6,135.2h33.3c0-27-9.5-49.2-22.2-68.2l-22.2,22.2C478.4,103.6,481.6,119.4,481.6,135.2L481.6,135.2z" fill="#FFCE63"></path>
	<path class="st0" d="M128,89.2l-22.2-22.2C93.1,86,83.6,109.7,83.6,135.2h31.7C115.3,119.4,121.7,103.6,128,89.2z" fill="#FFCE63"></path>
	<path class="st0" d="M180.3,54.4V21c-18.9,3.2-36.4,9.5-52.2,22.2l22.2,22.2C161.4,60.7,170.7,57.5,180.3,54.4z" fill="#FFCE63"></path>
	<path class="st0" d="M265.9,43.3C250,30.6,232.5,24.3,213.6,21v33.3c9.5,3.2,18.9,6.3,30,12.7C243.6,67.1,265.9,43.3,265.9,43.3z" fill="#FFCE63"></path>
	<path class="st0" d="M278.6,135.2h39.7c0-15.9,3.2-33.3,12.7-46l-22.2-22.2c-3.2,3.2-6.4,9.5-9.5,15.9c-3.2-6.3-6.4-12.7-9.5-15.9   l-22.2,22.2C275.5,103.6,278.6,119.4,278.6,135.2L278.6,135.2z" fill="#FFCE63"></path>
	<path class="st0" d="M571.9,247.9c-3.2-1.6-7.8-4.8-12.7-9.5c-11.1-7.8-28.6-15.9-52.2-25.3c-46-18.9-117.3-36.4-212.4-36.4   s-165.1,17.2-211,36.2c-23.8,9.5-41.1,18.9-52.2,25.3c-6.4,3.2-9.5,6.4-12.7,9.5c0,0-4.8,3.2-7.8,6.4c-3.2,3.2-6.4,6.4-6.4,6.4   l126.7,236.2l14.1-4.8c0,0,1.6,0,3.2-1.6c1.6,0,6.4-1.6,11.1-3.2c9.5-3.2,22.2-6.4,36.4-9.5c30-7.8,68.2-14.1,101.6-14.1   s73,6.4,101.6,14.1c14.2,3.2,27,7.8,36.4,9.5c4.8,1.6,7.8,3.2,11.1,3.2c1.1,0,2.1,0.5,3.2,1.6l14.2,4.8l127-236.2   c0,0-3.2-3.2-7.8-6.4C576.6,251.1,573.5,247.9,571.9,247.9L571.9,247.9z M445.1,458.7h-1.6c-9.5-3.2-22.2-6.4-38.1-11.1   c-30-7.8-71.3-15.9-109.4-15.9s-79.4,7.8-109.4,15.9c-15.9,3.2-28.6,7.8-38.1,11.1h-1.6L112,392.1c3.2-3.2,6.4-6.4,7.8-9.5   c12.7,18.9,34.9,31.7,58.6,31.7c25.3,0,46-12.7,58.6-31.7c12.7,18.9,34.9,31.7,58.6,31.7c25.3,0,46-12.7,58.6-31.7   c12.7,18.9,34.9,31.7,58.6,31.7c25.3,0,46-12.7,58.6-31.7c3.2,3.2,4.8,6.4,7.8,9.5L445.1,458.7L445.1,458.7z M497.3,362   c-4.8-7.8-7.8-17.5-7.8-28.6h-31.7c0,28.6-20.6,49.2-42.7,49.2s-42.7-20.6-42.7-49.2h-31.7c0,28.6-20.6,49.2-42.7,49.2   s-42.7-20.6-42.7-49.2h-31.7c0,28.6-20.6,49.2-42.7,49.2S138,362,138,333.5h-32.1c0,11.1-3.2,20.6-7.8,30L47.3,270   c1.6-1.6,3.2-1.6,4.8-3.2c9.5-6.4,25.3-14.2,47.5-23.8c42.7-17.5,109.4-34.9,199.9-34.9s156.9,17.5,199.9,34.9   c22.2,7.8,36.4,17.5,47.5,23.8c1.6,1.6,3.2,1.6,4.8,3.2L497.3,362L497.3,362z" fill="#FFCE63"></path>
	<rect x="280.3" y="512.6" width="31.7" height="33.3" fill="#FFCE63"></rect>
</g>
</svg>