<?xml version='1.0' encoding='utf-8'?>
<!-- Generator: Adobe Illustrator 27.2.0, SVG Export Plug-In . SVG Version: 6.00 Build 0)  --><svg xmlns="http://www.w3.org/2000/svg" xmlns:xlink="http://www.w3.org/1999/xlink" version="1.1" id="Vrstva_1" x="0px" y="0px" viewBox="0 0 421.4 566.9" style="enable-background:new 0 0 421.4 566.9;" xml:space="preserve" width="297.33636" height="400.0">
<style type="text/css">
	.st0{fill-rule:evenodd;clip-rule:evenodd;}
</style>
<g>
	<path class="st0" d="M135.1,68.8v374.7h280.7V68.8H135.1z M352.4,312.7H201.2v-36.8h151.2V312.7z M352.4,218.7H201.2v-36.8h151.2   V218.7z"></path>
	<path class="st0" d="M43.8,443.5L43.8,443.5c0-2.4-1.3-6.3-1.3-8.9l0,0c0-25.4,20.3-46.9,46.9-46.9c3.8,0,6.3,0,8.9,1.3V68.8l0,0   v-5.1c-10.1-8.9-22.8-14-36.8-14c-30.4,0-55.9,25.4-55.9,55.9l0,0v327.7c0,46.9,38.1,83.8,83.9,83.8h271.8v-36.8h-272   C66.6,480.3,47.4,465.1,43.8,443.5L43.8,443.5z"></path>
</g>
</svg>