<?xml version='1.0' encoding='utf-8'?>
<svg xmlns="http://www.w3.org/2000/svg" id="Vrstva_1" data-name="Vrstva 1" viewBox="0 0 549.9 566.93" width="387.98444" height="400.0">
  <defs>
    <style>
      .cls-1 {
        fill-rule: evenodd;
      }
    </style>
  </defs>
  <path class="cls-1" d="m383.49,293.33v-35.3l-139.4,139.4c9.78,2.89,20.14,4.45,30.86,4.45,59.95,0,108.54-48.6,108.54-108.54Zm0-146.32v-31.3c0-59.95-48.6-108.54-108.54-108.54s-108.54,48.6-108.54,108.54v177.62c0,20.29,5.57,39.27,15.25,55.52l-32.46,32.46c-14.11-22.67-22.26-49.44-22.26-78.11h-39.47c0,39.6,12.28,76.34,33.24,106.61L4.44,526.07l27.91,27.91L545.46,40.86l-27.91-27.91-134.06,134.06Zm-108.54,304.2c-24.55,0-47.71-5.98-68.09-16.56l-28.98,28.98c23,13.95,49.24,23.08,77.33,26.02v70.1h39.47v-70.1c94.27-9.86,167.75-89.58,167.75-186.46h-39.47c0,81.75-66.27,148.01-148.01,148.01Z"></path>
</svg>