<?xml version='1.0' encoding='utf-8'?>
<!-- Generator: Adobe Illustrator 27.2.0, SVG Export Plug-In . SVG Version: 6.00 Build 0)  --><svg xmlns="http://www.w3.org/2000/svg" xmlns:xlink="http://www.w3.org/1999/xlink" version="1.1" id="Vrstva_1" x="0px" y="0px" viewBox="0 0 551.4 566.9" style="enable-background:new 0 0 551.4 566.9;" xml:space="preserve" width="389.06332" height="400.0">
<path d="M505.4,221.8c-19.5-15-39.1-28.5-61.6-40.5l49.5-49.5c19.5,10.4,37.5,24,54.1,37.5L505.4,221.8L505.4,221.8z"></path>
<g>
	<path d="M37.6,546.4L543.9,40.1l-19.6-19.6L18.2,528.3L37.6,546.4L37.6,546.4z"></path>
	<path d="M401.1,88.1l-55.6,55.6c-19.5-3-40.5-4.6-61.6-4.6c-88.8,0-171.2,31.7-234.3,82.6L7.5,170.7   c75.2-61.5,171.2-97.6,276.4-97.6C324.5,73.1,363.6,77.7,401.1,88.1L401.1,88.1z"></path>
	<path d="M368,273c28.5,9,54.1,24,76.6,42.1l42.1-51.1c-21-16.4-43.5-31.7-67.6-42.1L368,273L368,273z"></path>
	<path d="M258.4,381.2c9-1.4,16.4-3,25.5-3c31.7,0,61.6,10.4,84.2,30l42.1-51.1c-24-19.5-54.1-34.5-85.6-40.5L258.4,381.2   L258.4,381.2z"></path>
	<path d="M223.9,267.1l73.5-73.5h-12.1c-76.6,0-145.7,27.1-201.3,70.6l42.1,51.1C153.3,292.5,186.4,276,223.9,267.1L223.9,267.1z"></path>
	<path d="M283.8,432.1c19.5,0,36.1,6,51.1,18.1l-49.5,61.6l-51.1-61.6C247.9,438.3,266,432.1,283.8,432.1L283.8,432.1z"></path>
</g>
</svg>