<?xml version='1.0' encoding='utf-8'?>
<svg xmlns="http://www.w3.org/2000/svg" id="Vrstva_1" data-name="Vrstva 1" viewBox="0 0 680.85 566.93" width="480.37677" height="400.0">
  <path d="m190.75,306.18l-1.93,8.23-6.99,29.99v.05s-47.56,195.49-47.56,195.49l-1.24,5.12h-65.84l2.02-8.29,45.49-187.2H4.32l3.26-8.98,10.84-29.98,1.61-4.43h170.71Zm181.11,89.31v149.57h-64.08v-149.57h64.08Zm288.95-89.31l1.6,4.41,10.87,29.99,3.26,8.98h-111.61l45.5,187.2,2.02,8.29h-65.84l-1.24-5.12-47.57-195.49v-.05s-7.01-29.99-7.01-29.99l-1.93-8.23h171.95Zm-288.95-100.52v155.78h-64.08v-155.78h64.08ZM255.16,21.88l-1.92,8.23-47.02,201.5-1.2,5.19H45.16l3.25-8.98,10.86-29.99,1.6-4.43h88.37L188.14,27.05l1.2-5.17h65.81Zm235.12,0l1.2,5.19.52,2.24.17-.03,1.52,6.52,36.71,157.58h89.53l1.6,4.43,10.87,29.98,3.25,9h-161.04l-1.2-5.19-47.02-201.5-1.93-8.23h65.81Zm-118.42,0v149.74h-64.08V21.88h64.08Z"></path>
</svg>