<?xml version='1.0' encoding='utf-8'?>
<!-- Generator: Adobe Illustrator 27.2.0, SVG Export Plug-In . SVG Version: 6.00 Build 0)  --><svg xmlns="http://www.w3.org/2000/svg" xmlns:xlink="http://www.w3.org/1999/xlink" version="1.1" id="Vrstva_1" x="0px" y="0px" viewBox="0 0 447 566.9" style="enable-background:new 0 0 447 566.9;" xml:space="preserve" width="315.39954" height="400.0">
<style type="text/css">
	.st0{fill-rule:evenodd;clip-rule:evenodd;}
</style>
<g>
	<path d="M347.5,58.5h26V21.1H73.6v37.5h26l-8.7,17.9l33.7,16.4l16.8-34.3h26.9l-8.8,45.2l36.8,7.2l10.2-52.3h34.8l10.2,52.3   l36.8-7.2l-8.8-45.2h26.4l16.8,34.3l33.7-16.4L347.5,58.5L347.5,58.5z"></path>
	<path d="M48,164l26.3-53.9l33.7,16.4l-26.3,53.9C81.7,180.5,48,164,48,164z"></path>
	<path d="M31.6,197.7L5.3,251.6L39,268.1l26.3-53.9L31.6,197.7L31.6,197.7z"></path>
	<path d="M140.8,199.4l11.4-58.9l36.8,7.1l-11.4,58.9L140.8,199.4z"></path>
	<path d="M372.7,110.1L399,164l-33.7,16.4L339,126.6C339,126.6,372.7,110.1,372.7,110.1z"></path>
	<path d="M441.7,251.6l-26.3-53.9l-33.7,16.4l26.3,53.9L441.7,251.6z"></path>
	<path d="M269.9,206.5l-11.4-58.9l36.8-7.1l11.4,58.9L269.9,206.5z"></path>
	<path class="st0" d="M137.1,270.6l-26.8,55.3h226.6l-26.9-55.3c-17-2.4-47.9-5.9-86.4-5.9S154,268.1,137.1,270.6L137.1,270.6z    M48.2,297.6h40.3l23.5-48.5l3.6-7.4l8.2-1.3c14.8-2.4,51.7-7.6,99.7-7.6s84.9,5.1,99.7,7.6l8.1,1.3l3.6,7.4l23.6,48.5h40.4v31.9   h-23.3v3.1l21.3,43.8l1.6,3.3v3.7l0,122.2l0,0c0,22.3-18.1,40.4-40.4,40.4h-6.1c-22.3,0-40.4-18.1-40.4-40.4v-2.3h-176v2.3   c0,22.3-18.1,40.4-40.4,40.4h-6c-22.3,0-40.4-18.1-40.4-40.4V383.2v-3.7l1.6-3.3l21.4-44.1v-2.7H48.2L48.2,297.6L48.2,297.6z    M181.1,394.8h-63.9v21.2h31.9l21.3,21.2h106.4l21.3-21.2h31.9v-21.2h-63.9l-16,15.9h-53.2L181.1,394.8L181.1,394.8z"></path>
</g>
</svg>