<?xml version='1.0' encoding='utf-8'?>
<!-- Generator: Adobe Illustrator 27.2.0, SVG Export Plug-In . SVG Version: 6.00 Build 0)  --><svg xmlns="http://www.w3.org/2000/svg" xmlns:xlink="http://www.w3.org/1999/xlink" version="1.1" id="Vrstva_1" x="0px" y="0px" viewBox="0 0 587.6 566.9" style="enable-background:new 0 0 587.6 566.9;" xml:space="preserve" width="414.6057" height="400.0">
<style type="text/css">
	.st0{fill:#1D1D1B;}
</style>
<path class="st0" d="M180,19.4c33.5,0,65.2,5.2,89.5,19.7c24.3,14.6,42.7,34.4,55.3,59.7c12.6,25.2,18.9,53.6,18.9,85.1  c0,31-6.3,59.2-18.9,84.4c-12.1,25.2-30.3,45.1-54.6,59.7c-24.3,14.6-53.4,21.8-87.3,21.8H114v182.8H11.3V19.4H180z M171.2,264.7  c22.8,0,40-7,51.7-21.1c11.6-14.6,17.5-34.4,17.5-59.7c0-24.7-6.1-44.1-18.2-58.2c-11.6-14.1-28.6-21.1-50.9-21.1H114v160.1H171.2z"></path>
<path class="st0" d="M429.3,262.3l35.4,108.9h114.5l-92.7,67.3l35.4,108.9l-92.7-67.3l-92.7,67.3L372,438.6l-92.7-67.3h114.5  L429.3,262.3z"></path>
</svg>