<?xml version='1.0' encoding='utf-8'?>
<svg xmlns="http://www.w3.org/2000/svg" id="Vrstva_1" data-name="Vrstva 1" viewBox="0 0 535.37 566.93" width="377.7327" height="400.0">
  <path d="m515.98,358.46h-87l-6.62,49.61c10.26-7.28,22.83-11.25,38.71-11.25,42.34,0,69.14,29.77,69.15,71.46,0,45.65-30.44,78.08-83.37,78.08-27.13,0-50.61-8.61-68.8-28.13l15.88-29.78c14.89,14.23,31.09,22.17,51.61,22.17,26.8,0,43.34-15.55,43.34-42.01,0-21.5-11.91-37.72-34.74-37.72-17.2,0-31.43,8.6-40.03,22.16l-32.1-10.26,15.55-120.09h118.44v35.74Zm-196.09,183.93h-39.7v-179.64l-43.66,7.94v-34.74l83.36-14.89v221.32ZM263.14,20.57c106.07,0,191.16,63.55,229.78,153.51V56.67h37.55v188.23h-187.67v-37.55h122.68c-28.97-87.24-106.13-149.24-202.34-149.24-123.58,0-220.68,100.4-220.69,225.23,0,91.36,54.21,169.98,132.09,205.32l.07,40.68C75.43,491.88,4.9,395.84,4.9,283.35c0-144.68,113.03-262.78,258.24-262.78Z"></path>
</svg>