<?xml version='1.0' encoding='utf-8'?>
<!-- Generator: Adobe Illustrator 27.2.0, SVG Export Plug-In . SVG Version: 6.00 Build 0)  --><svg xmlns="http://www.w3.org/2000/svg" xmlns:xlink="http://www.w3.org/1999/xlink" version="1.1" id="Vrstva_1" x="0px" y="0px" viewBox="0 0 534.4 566.9" style="enable-background:new 0 0 534.4 566.9;" xml:space="preserve" width="377.06827" height="400.0">
<style type="text/css">
	.st0{fill-rule:evenodd;clip-rule:evenodd;}
</style>
<g>
	<path d="M272.2,119.8c0,54-44.2,98.3-98.3,98.3s-98.3-44.2-98.3-98.3s44.2-98.3,98.3-98.3S272.2,65.7,272.2,119.8z"></path>
	<path class="st0" d="M243.6,276.3c-21.4-10.1-44.2-15.7-69.7-15.7c-92.5,0-168,75.4-168,168v14.1h197.9c0-2.8-1.4-5.7-1.4-8.4   c-7.1-35.6-2.8-74,10.1-106.7C218.1,309.2,229.5,290.6,243.6,276.3L243.6,276.3z"></path>
	<path class="st0" d="M300.6,276.3c24.2-15.7,52.6-24.2,81.2-24.2c38.5,0,76.9,15.7,104,42.7c27.2,27.1,42.7,65.5,42.7,104   c0,28.5-8.4,57-24.2,81.2c-15.7,24.2-39.9,42.7-65.5,54c-27.2,11.3-57,14.2-85.5,8.4c-28.5-5.7-54-19.9-75.4-39.9   c-19.9-19.9-34.2-47-39.9-75.5c-5.7-28.5-2.8-58.4,8.4-85.5C258,316.2,276.5,292.2,300.6,276.3L300.6,276.3z M401.8,418.7h72.5   v-38.5h-72.5v-72.5h-38.5v72.5h-72.5v38.5h72.5v72.5h38.5V418.7z"></path>
</g>
</svg>