<?xml version='1.0' encoding='utf-8'?>
<!-- Generator: Adobe Illustrator 27.2.0, SVG Export Plug-In . SVG Version: 6.00 Build 0)  --><svg xmlns="http://www.w3.org/2000/svg" xmlns:xlink="http://www.w3.org/1999/xlink" version="1.1" id="Vrstva_1" x="0px" y="0px" viewBox="0 0 833.4 566.9" style="enable-background:new 0 0 833.4 566.9;" xml:space="preserve" width="588.0402" height="400.0">
<g>
	<path d="M175.1,377v74.5H6.1V115.4h61.6V377H175.1L175.1,377L175.1,377z"></path>
	<path d="M171.2,283.5c0-97.9,63-173.8,137.5-173.8s137.5,75.4,137.5,173.8s-63,173.8-137.5,173.8S171.2,381.8,171.2,283.5   L171.2,283.5L171.2,283.5z M381.8,283.5c0-54.4-33.7-97.4-73.1-97.4s-73.1,43.9-73.1,97.4s33.7,97.4,73.1,97.4   S381.8,337.9,381.8,283.5z"></path>
	<path d="M827.3,115.4l-96,336.2h-45.8L631.8,261l-56.6,190.5h-44.4l-97.4-336.2h67.3L553.3,314L611,115.4h38.7l57.7,194.8   l54.1-194.8L827.3,115.4L827.3,115.4L827.3,115.4z"></path>
</g>
</svg>