<?xml version='1.0' encoding='utf-8'?>
<!-- Generator: Adobe Illustrator 27.2.0, SVG Export Plug-In . SVG Version: 6.00 Build 0)  --><svg xmlns="http://www.w3.org/2000/svg" xmlns:xlink="http://www.w3.org/1999/xlink" version="1.1" id="Vrstva_1" x="0px" y="0px" viewBox="0 0 646.3 566.9" style="enable-background:new 0 0 646.3 566.9;" xml:space="preserve" width="456.02396" height="400.0">
<g>
	<path d="M535.9,47.5V139h-44.5V91.9H242.2c-2.3,0-4.6,1-6.1,2.7L49.5,299.8c-1.4,1.5-2.2,3.5-2.2,5.6V475h444.2v-82.6h44.4v127H2.9   v-214c0-13.1,4.9-25.8,13.7-35.5L203.2,64.8c10-11,24.2-17.2,39-17.2H535.9L535.9,47.5z" fill="#FFCE63"></path>
	<path d="M334.7,331.2c-28.7,0-57.9,23-57.9,57.9c0,34.9,29.2,57.9,57.9,57.9h48.2v-38.6h-48.2c-9.9,0-19.3-8.1-19.3-19.3   c0-11.2,9.4-19.3,19.3-19.3h308.8v-38.6L334.7,331.2L334.7,331.2z" fill="#FFCE63"></path>
	<path d="M218.8,187c-28.7,0-57.9,23-57.9,57.9c0,34.9,29.2,57.9,57.9,57.9h328.1v-38.6H218.8c-9.9,0-19.3-8.1-19.3-19.3   c0-11.2,9.4-19.3,19.3-19.3h28.9V187L218.8,187L218.8,187z" fill="#FFCE63"></path>
	<path d="M373.2,119.9c-28.7,0-57.9,23-57.9,57.9c0,34.9,29.2,57.9,57.9,57.9h270.2v-38.6H373.2c-9.9,0-19.3-8.1-19.3-19.3   c0-11.2,9.4-19.3,19.3-19.3h38.6v-38.6L373.2,119.9L373.2,119.9z" fill="#FFCE63"></path>
</g>
</svg>