<?xml version='1.0' encoding='utf-8'?>
<!-- Generator: Adobe Illustrator 27.2.0, SVG Export Plug-In . SVG Version: 6.00 Build 0)  --><svg xmlns="http://www.w3.org/2000/svg" xmlns:xlink="http://www.w3.org/1999/xlink" version="1.1" id="Vrstva_1" x="0px" y="0px" viewBox="0 0 672.4 566.9" style="enable-background:new 0 0 672.4 566.9;" xml:space="preserve" width="474.4399" height="400.0">
<g>
	<path d="M120.2,542.3l32.2-139.8c-41.2-23.3-71.7-53.8-87.8-89.5h-59v-43.1h84.2c7.2,46.6,48.4,87.8,111.1,111.1L165,540.4" fill="#51F093"></path>
	<path d="M666.7,200.2H562.7c-28.7-37.6-82.5-68.1-148.7-80.6l-21.5-95h43.1l14.4,62.7c52,14.4,95,39.4,125.4,71.7h91.3v41.2    M109.5,200.2H5.6v-43.1h91.3c30.5-30.5,73.4-55.5,125.4-71.7l14.4-62.7h43.1l-21.5,95C192,132.1,138.2,162.5,109.5,200.2    M552,542.3h-44.8l-37.5-159.4c62.7-25.1,103.9-64.5,111.1-111.1H665v43.1h-59.2c-16.1,34-46.6,66.4-87.8,87.8L552,542.3" fill="#51F093"></path>
	<path d="M224.2,176.9C226,176.9,224.2,176.9,224.2,176.9 M226,311.1C224.8,311.1,224.8,311.1,226,311.1   C224.2,311.1,226,311.1,226,311.1 M335.3,291.5C336.5,291.5,336.5,291.5,335.3,291.5c35.9,0,68.1-8.9,87.8-21.5   c10.7-5.4,16.1-12.6,19.8-16.1c3.5-5.4,3.5-7.2,3.5-8.9s0-5.4-3.5-8.9c-3.5-5.4-8.9-10.7-19.8-16.1c-19.8-12.6-50.1-21.5-86-21.5   s-66.4,8.9-86,21.5c-10.7,5.4-16.1,12.6-19.8,16.1c-3.5,5.4-3.5,7.2-3.5,8.9s0,5.4,3.5,8.9c3.5,5.4,8.9,10.7,19.8,16.1   C268.9,282.5,299.4,291.5,335.3,291.5 M335.3,338.1c-43.1,0-82.5-10.7-111.1-26.8c-14.4-8.9-25.1-17.9-34-30.5   c-7.2-10.7-12.6-23.3-12.6-35.9c0-12.6,3.5-25.1,12.6-35.9c7.2-10.7,19.8-21.5,34-30.5c28.7-17.9,68.1-26.8,111.1-26.8   s82.5,10.7,111.1,26.8c14.4,8.9,25.1,17.9,34,30.5c7.2,10.7,12.6,23.3,12.6,35.9s-3.5,25.1-12.6,35.9c-7.2,10.7-19.8,21.5-34,30.5   C417.7,327.4,380,338.1,335.3,338.1" fill="#51F093"></path>
	<rect x="312" y="449.2" width="46.6" height="95" fill="#51F093"></rect>
</g>
</svg>