<?xml version='1.0' encoding='utf-8'?>
<svg xmlns="http://www.w3.org/2000/svg" id="Vrstva_1" data-name="Vrstva 1" viewBox="0 0 559.09 566.93" width="394.46848" height="400.0">
  <defs>
    <style>
      .cls-1 {
        fill-rule: evenodd;
      }
    </style>
  </defs>
  <path class="cls-1" d="m513.54,221.55l38.91,4.09,1.07-20.47c0-108.07-87.61-195.67-195.67-195.67l-19.46.97,3.89,38.93c5.12-.51,10.31-.76,15.57-.76,86.45,0,156.54,70.09,156.54,156.54,0,5.53-.29,10.99-.85,16.38Zm-167.42-133.21c3.84-.38,7.73-.57,11.67-.57,64.84,0,117.4,52.56,117.4,117.4,0,4.15-.22,8.25-.63,12.28l-38.92-4.09c.28-2.69.42-5.42.42-8.19,0-43.23-35.04-78.27-78.27-78.27-2.63,0-5.22.13-7.78.38l-3.89-38.94Zm6.1,180.78c12.26-1.25,21.17-2.16,33.71,2.85-9.43-22.15-23.18-42.01-40.21-58.53-13.28,10.62-29.21,21.23-53.1,21.23-12.86,0-17.07-38.42-17.81-63.6-17.04-5.37-35.18-8.27-54-8.27-29.78,0-57.87,7.26-82.6,20.1,2.27,4.2,4.65,8.33,7.15,12.07,6.72,10.07,29.9,11.63,40.2,8.51,3.42-1.04,6.39-4.05,9.4-7.11,4.56-4.63,9.22-9.36,15.71-7.48,4.89,1.41,9.51,4.46,13.64,7.37,9.32,6.56,2.2,15.11-5.09,20.21-33.46,23.38-37.25,48.73-41.76,78.9-1.29,8.62-2.63,17.63-4.75,27.1-2.36,10.56-8.33,21.86-21.05,18.54-4.98-1.3-8.23-5.02-11.53-8.8-2.53-2.89-5.08-5.81-8.45-7.69-7.77-4.33-15.19-4.54-22.64.68-7.71,5.41-12.82,14.08-10.56,23.48,2.19,9.08,6.58,14.96,14.97,19.38,5.69,3,12.49,6.49,19,7.07,5.43.48,10.87.8,16.31,1.12h.02c2.18.13,4.36.26,6.54.4l1.18.08c7.7.49,16.15,1.02,23.51,3,5.67,1.53,10.66,6.63,14.84,10.9l1.27,1.3c7.3,7.38,15.39,18.04,16.95,28.57,2.02,13.63-4.66,26.29-11.03,38.35-1.75,3.32-3.48,6.59-5,9.83-1.14,2.43-2.38,4.88-3.64,7.34h0c-2.78,5.48-5.61,11.04-7.46,16.74-1.17,3.62-2.04,7.31-2.91,11h0c-.66,2.8-1.32,5.61-2.11,8.38-.42,1.46-.94,3.04-1.6,4.6,13.31,3.15,27.2,4.82,41.48,4.82,67.54,0,126.37-37.33,156.96-92.48-.54-.96-1.05-2-1.51-3.17-1.22-3.08-1.82-4.94-2.37-6.66h0c-1.31-4.09-2.36-7.39-11.01-24.42q-.95-1.87-1.65-3.18c-.7-1.31-2.12-3.93-5.89-11.03-5.53-10.43-26.87-2.48-26.87-2.48-16.18,0-37.17-3.71-35.87-35.86.85-20.86,4.96-71.72,35.86-71.72,9.61,0,17.17-.77,23.76-1.44Zm-230.81,222.4c-.58-6.29-.42-12.55.17-18.97.12-1.31.42-2.66.73-4.01.66-2.95,1.34-5.96.18-8.75-3.79-9.16-13.01-16.67-20.52-22.79l-.38-.31-2.15-1.74c-9.26-7.48-19.03-15.38-21.18-27.74-.5-2.9-.11-5.6.29-8.32.27-1.83.54-3.67.54-5.58,0-4.4-2.01-8.84-3.8-12.77-.42-.93-.83-1.85-1.23-2.77-2.09-4.77-4.08-9.31-7.85-13.15l-1.55-1.59h0c-3.49-3.59-6.87-7.07-11.11-9.92-2.87-1.93-6.39-3.26-9.92-4.59h-.02c-.71-.27-1.42-.54-2.12-.81,1.81,60.02,33.11,112.62,79.9,143.82Zm314.64-149.34c0,118.87-96.37,215.24-215.24,215.24S5.57,461.06,5.57,342.19,101.94,126.94,220.81,126.94s215.24,96.37,215.24,215.24Z"></path>
</svg>