<?xml version='1.0' encoding='utf-8'?>
<svg xmlns="http://www.w3.org/2000/svg" id="Vrstva_1" data-name="Vrstva 1" viewBox="0 0 559.09 566.93" width="394.46848" height="400.0">
  <defs>
    <style>
      .cls-1 {
        fill-rule: evenodd;
      }
    </style>
  </defs>
  <path class="cls-1" d="m513.11,221.66l38.84,4.08,1.07-20.43c0-107.87-87.45-195.32-195.32-195.32l-19.42.97,3.88,38.86c5.11-.51,10.29-.76,15.54-.76,86.3,0,156.26,69.96,156.26,156.26,0,5.52-.29,10.97-.85,16.35Zm-167.11-132.96c3.83-.38,7.72-.57,11.65-.57,64.72,0,117.19,52.47,117.19,117.19,0,4.14-.21,8.23-.63,12.26l-38.85-4.09c.28-2.69.42-5.41.42-8.17,0-43.15-34.98-78.13-78.13-78.13-2.62,0-5.21.13-7.77.38l-3.88-38.87Zm3.24,378.26s-.03.03-.04.05c6.89,10.08,14.39,19.7,21.98,28.65.01-.01.03-.03.04-.04,30.63,36.12,62.8,61.31,62.8,61.31,0,0,117.19-91.77,117.19-176.18,0-65.18-52.47-118.01-117.19-118.01-4.42,0-8.79.25-13.09.73h0c-57.51,6.39-102.48,54.69-104.13,113.9.02,0,.05.01.08.02-.03,1.12-.05,2.23-.05,3.36,0,29.23,14.05,59.34,32.42,86.21Zm-3.64-253.38c7.92,7.68,15.13,16.09,21.52,25.12,11.07-5.27,22.85-9.27,35.18-11.81-38.13-59.91-105.12-99.65-181.39-99.65C102.26,127.23,6.07,223.42,6.07,342.08s96.19,214.85,214.85,214.85c44.43,0,85.72-13.49,119.98-36.59-7.4-8.75-14.87-18.27-21.94-28.4-28.16,18.46-61.84,29.2-98.03,29.2-14.25,0-28.12-1.67-41.41-4.81.65-1.56,1.18-3.13,1.59-4.59.79-2.76,1.45-5.56,2.11-8.36.87-3.68,1.73-7.37,2.9-10.98,1.84-5.69,4.66-11.25,7.44-16.71,1.25-2.46,2.49-4.9,3.63-7.33,1.52-3.23,3.24-6.5,4.99-9.81,6.36-12.04,13.03-24.67,11.01-38.28-1.56-10.51-9.63-21.15-16.91-28.52l-1.27-1.29c-4.16-4.26-9.15-9.36-14.81-10.88-7.35-1.98-15.78-2.51-23.47-3l-1.18-.08c-2.14-.14-4.29-.26-6.43-.39h-.07s-.05,0-.05,0c-5.43-.32-10.85-.64-16.28-1.12-6.49-.58-13.28-4.06-18.96-7.05-8.37-4.41-12.76-10.28-14.94-19.34-2.26-9.38,2.85-18.04,10.54-23.44,7.44-5.22,14.85-5.01,22.6-.68,3.37,1.88,5.91,4.79,8.44,7.68,3.29,3.77,6.54,7.48,11.51,8.78,12.7,3.31,18.66-7.96,21.01-18.51,2.11-9.45,3.45-18.45,4.74-27.05,4.5-30.12,8.28-55.42,41.68-78.76,7.28-5.09,14.39-13.63,5.08-20.18-4.13-2.9-8.74-5.95-13.62-7.36-6.48-1.88-11.13,2.85-15.68,7.47-3.01,3.05-5.97,6.06-9.39,7.1-10.28,3.12-33.42,1.56-40.12-8.5-2.49-3.74-4.87-7.86-7.14-12.05,24.68-12.82,52.72-20.07,82.45-20.07,18.78,0,36.89,2.89,53.91,8.26.73,25.14,4.94,63.49,17.78,63.49,23.85,0,39.75-10.59,53.01-21.19ZM121.7,491.15c-.57-6.28-.42-12.53.17-18.94.12-1.31.42-2.65.73-4.01.66-2.95,1.34-5.95.18-8.74-3.79-9.14-12.98-16.64-20.48-22.75l-.38-.31-2.14-1.74c-9.24-7.47-18.99-15.35-21.14-27.69-.5-2.89-.11-5.59.29-8.31.27-1.83.54-3.66.54-5.57,0-4.4-2.01-8.82-3.79-12.74-.42-.93-.83-1.85-1.23-2.76-2.09-4.76-4.08-9.29-7.84-13.13l-1.54-1.58c-3.48-3.58-6.86-7.06-11.09-9.91-2.86-1.93-6.38-3.25-9.91-4.58h0c-.71-.27-1.43-.54-2.13-.81,1.81,59.91,33.05,112.42,79.75,143.56Zm357.83-111.17c0,25.15-20.38,45.53-45.53,45.53s-45.53-20.38-45.53-45.53,20.38-45.53,45.53-45.53,45.53,20.38,45.53,45.53Z"></path>
</svg>