<?xml version='1.0' encoding='utf-8'?>
<svg xmlns="http://www.w3.org/2000/svg" id="Vrstva_1" data-name="Vrstva 1" viewBox="0 0 477.9 566.93" width="337.18448" height="400.0">
  <path d="m192.24,183.83l-5.49,9.82c-4.29,7.66-9.68,14.86-16.16,21.34-14.25,14.25-31.82,23.15-50.21,26.72,11.06,27.32,30.99,58.97,66.07,94.05,35.23,35.23,66.94,55.13,94.27,66.1,3.59-18.32,12.49-35.82,26.69-50.01,6.49-6.49,13.69-11.9,21.37-16.19l9.81-5.47,134.9,102.55-2.64,10.9c-4.07,16.82-12.68,32.77-25.78,45.87-24.93,24.93-60.01,33.49-91.87,25.76-18.34-2.71-123.45-22.13-223.79-122.47-54.73-54.73-85.45-110.97-102.48-153.69-8.52-21.35-13.62-39.35-16.61-52.13-1.5-6.4-2.47-11.5-3.07-15.07-.39-2.3-.71-4.62-1-6.94-6.02-30.7,2.86-63.82,26.69-87.65,13.09-13.09,29.03-21.69,45.84-25.76l10.9-2.65,102.57,134.92Z"></path>
</svg>