<?xml version='1.0' encoding='utf-8'?>
<svg xmlns="http://www.w3.org/2000/svg" id="Vrstva_1" data-name="Vrstva 1" viewBox="0 0 541.98 566.93" width="382.39642" height="400.0">
  <defs>
    <style>
      .cls-1 {
        fill-rule: evenodd;
      }
    </style>
  </defs>
  <path d="m451.2,21.36c-14.9,0-26.9,12.1-26.9,26.9v80.8h71.8V21.36h-44.9Z"></path>
  <path d="m426.8,524.06l69.3-359.1h-71.8l-81.8,112c-8.6,10-13.2,22.8-13,36l1.5,85.5-20.4-3.1c1.4,4.5,3,9.2,4.8,14.2l.2.5.1.3c9.7,28,14.6,57.4,9.6,86-1.7,9.8-4.5,19.1-8.3,27.9l109.8-.2h0Z"></path>
  <path d="m70.1,503.66l11.6-9.3c5.9-4.8,8.2-9.2,9.2-14.8,1.2-6.8.7-18.5-5.5-36.7-8-22-13.2-42.1-16-60.6-18.5,16.3-29.1,42.4-20.5,65.1l21.2,56.3h0Z"></path>
  <path class="cls-1" d="m133.3,341.56c-1.7,17.5.9,43,14.1,78.9l.1.3c8.6,24.9,12,48.4,8.3,69.9-3.8,21.9-14.8,40.4-32.8,54.9l-21.1-26.1c11.8-9.5,18.4-20.9,20.8-34.5,2.4-14,.5-31.5-6.9-53-14.3-39.2-18.2-69.7-15.9-93.5l33.4,3.1Z"></path>
  <path d="m86.1,342.96l29.8-79.6,30.6,79.6h-60.4Z"></path>
  <path class="cls-1" d="m202.1,341.56c-1.7,17.5.9,43,14.1,78.9l.1.3c8.6,24.9,12,48.4,8.3,69.9-3.8,21.9-14.8,40.4-32.8,54.9l-21.1-26.1c11.8-9.5,18.4-20.9,20.8-34.5,2.4-14,.5-31.5-6.9-53-14.3-39.2-18.2-69.7-15.9-93.5l33.4,3.1Z"></path>
  <path d="m154.9,342.96l29.8-79.6,30.6,79.6h-60.4Z"></path>
  <path class="cls-1" d="m270.8,341.56c-1.7,17.5.9,43,14.1,78.9l.1.3c8.6,24.9,12,48.4,8.3,69.9-3.8,21.9-14.8,40.4-32.8,54.9l-21.1-26.1c11.8-9.5,18.4-20.9,20.8-34.5,2.4-14,.5-31.5-6.9-53-14.3-39.2-18.2-69.7-15.9-93.5l33.4,3.1h0Z"></path>
  <path d="m223.6,342.96l29.8-79.6,30.6,79.6h-60.4Z"></path>
  <path d="m158.7,154.06c0,6.6-2.2,13-5.9,21.1-4.4,10.3-8.4,31.4,23.3,32.9,24.3,1.5,50.9-24.3,49.4-45.7-.7-22.9-22-39.5-46.2-41.5-4.3-.4-6.5-2.7-6.5-6.4,0-6.7,10.6-9.2,15.6-9.2,6.6,0,13,2.2,21.1,5.9,10.3,4.4,31.4,8.4,32.9-23.3,1.5-24.3-24.3-50.9-45.7-49.4-22.9.7-39.7,22.8-41.8,46.2-.4,4.3-2.5,6.5-6.2,6.5-7.6,0-9.2-10.1-9.2-15.6,0-6.6,2.2-13,5.9-21.1,4.4-10.3,8.4-31.4-23.3-32.9-24.2-1.6-50.7,24.2-49.2,45.6.7,22.8,22.1,39.6,46.1,41.7,4.3.4,6.5,2.5,6.5,6.2,0,7.2-11.5,9.2-16.7,9.2-6.6,0-11.9-2.2-20-5.9-10.3-4.5-31.4-8.4-32.9,23.3-1.5,24.3,24.3,50.9,45.7,49.4,22.9-.7,39.7-22.6,41.8-46.2.4-4.3,2.5-6.5,6.2-6.5,7.7,0,9.1,10.6,9.1,15.7h0Z"></path>
</svg>