<?xml version='1.0' encoding='utf-8'?>
<!-- Generator: Adobe Illustrator 27.2.0, SVG Export Plug-In . SVG Version: 6.00 Build 0)  --><svg xmlns="http://www.w3.org/2000/svg" xmlns:xlink="http://www.w3.org/1999/xlink" version="1.1" id="Vrstva_1" x="0px" y="0px" viewBox="0 0 507.4 566.9" style="enable-background:new 0 0 507.4 566.9;" xml:space="preserve" width="358.01727" height="400.0">
<style type="text/css">
	.st0{fill-rule:evenodd;clip-rule:evenodd;}
</style>
<g>
	<g>
		<path d="M174.3,151.7v187.9c0,0,0,3.5-3.7,3.5c-28-0.4-55.7-12.1-75.2-34.8c-35.6-41.2-30-102.7,12.3-137.4    c18.4-14.9,40.5-22.5,62.8-22.8C174.4,148.1,174.4,151.7,174.3,151.7L174.3,151.7z M174.3,414.2v56.4c0,0,0,58.9,58,63    c6.4,0.1,6.4-6.3,6.4-6.3V102.9c0,0,0-6.3-6.4-8.9c-54.7-20.6-119.3-12.3-167.3,27c-70.4,57.6-79.7,160.2-20.6,229    c31.9,37,77.2,56.8,123.2,58C174.4,408,174.4,414.2,174.3,414.2L174.3,414.2z"></path>
		<path d="M272.2,126.7v237.6c0,6.3,0,11.2,6.4,6.3c0.1-0.1,0.5-0.4,0.7-0.5c70.5-57.7,79.8-160.1,20.5-229    c-6.7-7.5-13.6-14.3-21.1-20.6C272.2,115.5,272.2,120.5,272.2,126.7z"></path>
		<path d="M238.9,54.8c0-17.9,14.9-32.5,33.3-32.5s33.3,14.6,33.3,32.5s-14.9,32.3-33.3,32.3S238.9,72.7,238.9,54.8z"></path>
	</g>
	<g>
		<path class="st0" d="M390.3,432.5V331.3h26.2v101.1L390.3,432.5L390.3,432.5z"></path>
		<path class="st0" d="M469.1,416.4c-6.8-14.6-18.3-26.5-32.6-33.8l11.7-23.2c19.5,10,35.3,26.2,44.6,46.3    c9.3,19.9,11.5,42.4,6.3,64c-5.2,21.4-17.3,40.4-34.7,54c-17.3,13.6-38.8,21-60.6,21s-43.2-7.4-60.6-21    c-17.3-13.6-29.5-32.6-34.7-54c-5.2-21.4-3-43.8,6.3-64c9.3-19.9,24.8-36.3,44.3-46.3l11.7,23.2c-14.3,7.4-25.8,19.4-32.6,33.8    c-6.8,14.7-8.3,31.1-4.6,46.8s12.7,29.6,25.4,39.6c12.7,10,28.4,15.4,44.3,15.4s31.9-5.6,44.3-15.4c12.5-10,21.6-24,25.4-39.6    C477.2,447.5,475.6,431.1,469.1,416.4L469.1,416.4z"></path>
	</g>
</g>
</svg>