<?xml version='1.0' encoding='utf-8'?>
<svg xmlns="http://www.w3.org/2000/svg" id="Vrstva_1" data-name="Vrstva 1" viewBox="0 0 532.07 566.93" width="375.4044" height="400.0">
  <path d="m523.03,424.18c3.81,5.95,5.24,12.14,5.24,18.81,0,9.05-3.1,16.43-10.24,22.38-7.14,5.95-15,8.57-24.05,8.57h-59.05l-158.58-285.72h-20L97.78,473.95h-60.24c-11.19,0-20.48-4.76-27.86-14.76-7.38-10-7.86-20.95-1.19-32.86L237.31,37.98c7.38-11.19,17.14-16.43,29.05-16.43,12.62,0,21.91,5.24,27.86,16.43l228.82,386.2Zm-428.58,104.76l171.91-307.87,171.91,307.87-17.14,16.43-154.77-63.34-156.19,63.34-15.71-16.43Z"></path>
</svg>