<?xml version='1.0' encoding='utf-8'?>
<!-- Generator: Adobe Illustrator 27.2.0, SVG Export Plug-In . SVG Version: 6.00 Build 0)  --><svg xmlns="http://www.w3.org/2000/svg" xmlns:xlink="http://www.w3.org/1999/xlink" version="1.1" id="Vrstva_1" x="0px" y="0px" viewBox="0 0 797.4 566.9" style="enable-background:new 0 0 797.4 566.9;" xml:space="preserve" width="562.6389" height="400.0">
<g>
	<path d="M264.3,106.1c-110.9,0-201,90.2-201,201s90.2,201,201,201s200.9-90.2,200.9-201S375.2,106.1,264.3,106.1z M264.3,479.5   c-95,0-172.4-77.4-172.4-172.4s77.4-172.4,172.4-172.4s172.4,77.2,172.4,172.4S359.4,479.5,264.3,479.5z"></path>
	<path d="M102.2,144.9l-20.2-20.2C34.2,172.3,5.9,240.6,5.9,307.1s28.3,135,75.9,182.4l20.2-20.2c-42.3-42.4-67.5-102.9-67.5-162.2   S59.8,187.3,102.2,144.9L102.2,144.9L102.2,144.9z"></path>
	<path d="M446.8,124.7l-20.2,20.2c42.4,42.4,67.7,102.8,67.7,162.2s-25.2,119.8-67.7,162.2l20.2,20.2   c47.8-47.8,75.9-115.9,75.9-182.4S494.3,172.3,446.8,124.7L446.8,124.7L446.8,124.7z"></path>
	<path d="M248.8,206.4l-71.5,201.2h39.7l12-37.2h68.9l11.6,37.2h41l-69.9-201.2L248.8,206.4L248.8,206.4L248.8,206.4z M239.6,337   l24.6-76.2L288,337H239.6L239.6,337z"></path>
	<rect x="542.1" y="505" width="249.4" height="53.7"></rect>
	<polygon points="666.9,8.1 542.1,470.1 791.5,470.1  "></polygon>
</g>
</svg>