<?xml version='1.0' encoding='utf-8'?>
<!-- Generator: Adobe Illustrator 27.2.0, SVG Export Plug-In . SVG Version: 6.00 Build 0)  --><svg xmlns="http://www.w3.org/2000/svg" xmlns:xlink="http://www.w3.org/1999/xlink" version="1.1" id="Vrstva_1" x="0px" y="0px" viewBox="0 0 282.4 566.9" style="enable-background:new 0 0 282.4 566.9;" xml:space="preserve" width="199.25912" height="400.0">
<path d="M277.5,360.8c0,82.5-48.3,157.2-129.5,157.2S4.9,445.8,4.9,286C4.9,141.7,49.4,49,146,49c56.5,0,109.2,32.2,127.1,136.6  h-80.7c-9.7-29.6-26.1-38.7-46.4-38.7c-33.3,0-54.1,25.8-57.5,99.9c16.9-25.1,41.1-38,69.1-38C234.9,208.7,277.5,273.1,277.5,360.8  L277.5,360.8L277.5,360.8z M194.4,358.2c0-36.1-21.3-59.3-48.3-59.3c-20.3,0-44.9,11.6-57,36.7c4.4,55.4,26.1,84.4,57,84.4  C173.1,420,194.4,394.3,194.4,358.2L194.4,358.2L194.4,358.2z"></path>
</svg>