<?xml version='1.0' encoding='utf-8'?>
<svg xmlns="http://www.w3.org/2000/svg" id="Vrstva_1" data-name="Vrstva 1" viewBox="0 0 571 566.9" width="402.8929" height="400.0">
  <defs>
    <style>
      .cls-1 {
        fill-rule: evenodd;
      }
    </style>
  </defs>
  <path class="cls-1" d="m556.27,242.65l-136.28,107.11,46.27,169.65,1.98,7.25c-9.56,7.9-19.64,15.19-30.18,21.81l-6.28-4.18-145.93-96.98-146.57,97.11-6.18,4.1c-10.56-6.64-20.66-13.94-30.25-21.86l1.95-7.15,46.3-169.74L14.85,243.01l-8.02-6.28c2.83-11.55,6.35-22.81,10.54-33.75l10.15-.61,174.79-10.53,62.17-162.9,3.83-10.05c5.69-.34,11.43-.51,17.23-.51s11.85.18,17.72.54l3.81,10.07,61.7,162.85,174.75,10.18,10.04.59c4.21,10.97,7.75,22.26,10.6,33.81l-7.91,6.22h.01Zm-174.69,117.58l34.28,125.68-107.98-71.76-22-14.63-22.01,14.59-108.68,72.01,34.33-125.91,6.95-25.51-20.8-16.3-100.85-79.01,129.91-7.83,25.64-1.54,9.16-24,46.2-121.07,45.82,120.98,9.15,24.14,25.77,1.5,129.84,7.57-100.9,79.31-20.75,16.31,6.95,25.47-.02-.02Z"></path>
</svg>