<?xml version='1.0' encoding='utf-8'?>
<svg xmlns="http://www.w3.org/2000/svg" id="Vrstva_1" data-name="Vrstva 1" viewBox="0 0 541.98 566.93" width="382.39642" height="400.0">
  <defs>
    <style>
      .cls-1 {
        fill-rule: evenodd;
      }
    </style>
  </defs>
  <path class="cls-1" d="m196.9,179.82c-1.72,17.99.95,44.07,14.47,80.95l.11.29h0c8.84,25.52,12.34,49.68,8.53,71.69-3.89,22.47-15.2,41.46-33.6,56.3l-21.62-26.81c12.13-9.78,18.88-21.43,21.29-35.37,2.49-14.37.54-32.33-7.09-54.41-14.7-40.18-18.7-71.5-16.36-95.93l34.28,3.29h0Z"></path>
  <path d="m148.43,181.17l30.57-81.68,31.41,81.68h-61.98Z"></path>
  <path class="cls-1" d="m284.4,179.82c-1.72,17.99.95,44.07,14.47,80.95l.11.29h0c8.84,25.52,12.34,49.68,8.53,71.69-3.89,22.47-15.2,41.46-33.6,56.3l-21.62-26.81c12.13-9.78,18.88-21.43,21.29-35.37,2.49-14.37.54-32.33-7.09-54.41-14.7-40.18-18.7-71.5-16.36-95.93l34.28,3.29h-.01Z"></path>
  <path d="m235.94,181.17l30.57-81.68,31.41,81.68h-61.99,0Z"></path>
  <path class="cls-1" d="m372.08,179.82c-1.73,17.99.95,44.07,14.46,80.95l.11.29h0c8.84,25.52,12.34,49.68,8.53,71.69-3.89,22.47-15.2,41.46-33.6,56.3l-21.62-26.81c12.13-9.78,18.88-21.43,21.29-35.37,2.49-14.37.54-32.33-7.09-54.41-14.7-40.18-18.7-71.5-16.36-95.93l34.28,3.29h0Z"></path>
  <path d="m323.61,181.17l30.57-81.68,31.41,81.68h-61.99,0Z"></path>
  <path d="m80.93,490.73h25.05c6.44,0,11.37-1.84,14.79-5.52,3.42-3.81,5.13-9.01,5.13-15.58s-1.78-11.24-5.33-14.79c-3.42-3.55-8.22-5.33-14.4-5.33h-22.48v-20.91h24.85c8.55,0,15.98,1.78,22.29,5.33s11.11,8.48,14.4,14.79c3.29,6.18,4.93,13.21,4.93,21.1s-1.64,14.46-4.93,20.51c-3.29,5.92-7.95,10.58-14,14-5.92,3.29-12.82,5.19-20.71,5.72l-.59,1.38h-28.99v-20.71h0Zm-18.93-62.12h23.47v130.96h-23.47v-130.96h0Zm37.28,71.4h24.85l33.13,59.56h-26.43l-31.56-59.56h0Z"></path>
  <path d="m171.97,428.61h23.47v130.96h-23.47v-130.96h0Zm14,109.66h63.51v21.3h-63.51v-21.3Zm.39-55.42h55.62v20.51h-55.62v-20.51Zm-.79-54.24h62.52v21.3h-62.52v-21.3Z"></path>
  <path d="m305.57,428.61h18.34l48.71,130.96h-24.85l-36.49-107.29h6.51l-37.47,107.29h-23.86l49.11-130.96h0Zm-19.53,82.05h58.97l1.97,20.51h-60.94v-20.51Z"></path>
  <path d="m405.08,490.73h25.05c6.44,0,11.37-1.84,14.79-5.52,3.42-3.81,5.13-9.01,5.13-15.58s-1.78-11.24-5.33-14.79c-3.42-3.55-8.22-5.33-14.4-5.33h-22.48v-20.91h24.85c8.55,0,15.98,1.78,22.29,5.33s11.11,8.48,14.4,14.79c3.29,6.18,4.93,13.21,4.93,21.1s-1.64,14.46-4.93,20.51c-3.29,5.92-7.95,10.58-14,14-5.92,3.29-12.82,5.19-20.71,5.72l-.59,1.38h-28.99v-20.71h-.01Zm-18.93-62.12h23.47v130.96h-23.47v-130.96h0Zm37.28,71.4h24.85l33.13,59.56h-26.43l-31.56-59.56h0Z"></path>
  <path d="m487.95,30.52s-1.64-22.29-25.07-23.17l-386.49.14s-20.62,1.48-22.39,24.55l.1,240.02s.61,22.89,24.42,24.63l385.08.16s21.26-.59,24.38-23.25l-.03-243.09h0Zm-34.12,231.97H87.97V41h365.86v221.47h0Z"></path>
</svg>