<?xml version='1.0' encoding='utf-8'?>
<!-- Generator: Adobe Illustrator 27.2.0, SVG Export Plug-In . SVG Version: 6.00 Build 0)  --><svg xmlns="http://www.w3.org/2000/svg" xmlns:xlink="http://www.w3.org/1999/xlink" version="1.1" id="Vrstva_1" x="0px" y="0px" viewBox="0 0 670.4 566.9" style="enable-background:new 0 0 670.4 566.9;" xml:space="preserve" width="473.02875" height="400.0">
<style type="text/css">
	.st0{fill-rule:evenodd;clip-rule:evenodd;}
</style>
<g>
	<path class="st0" d="M59.3,259.9C75.6,150.3,170.8,71.2,280.2,71.2s203.2,77.3,219.2,188.7h-62.9c-27,0-37.6-5.4-46.7-10.7   c-9.1-5.3-16.2-9-35.9-9H206.8c-19.8,0-28.6,5.4-35.9,9c-9,5.4-19.8,10.7-46.7,10.7H59.3L59.3,259.9z M122.2,310.1H55.9   c3.7,55.6,28.6,102.5,59.2,136.5c16.2,18.1,34.2,32.3,48.5,41.3c10.7,7.3,18.1,9,19.8,9h68.3V396.4h-7.3c-62.9,0-73.6-21.6-84.5-52   C154.5,321,133.2,310.1,122.2,310.1L122.2,310.1z M303.7,396.4v100.5H372c1.7,0,9-3.7,19.8-9c14.4-9,32.3-21.6,48.5-41.3   c30.5-34.2,55.7-79,59.2-136.5h-66.6c-10.7,0-32.3,10.7-41.3,34.2c-10.7,32.3-21.6,52-84.5,52L303.7,396.4L303.7,396.4L303.7,396.4   z M5.7,294.2c0-158.3,125.8-273,273-273s273,114.9,273,273S415.1,545.7,373.9,545.7H185.1C142,547.1,5.7,452,5.7,294.2L5.7,294.2z" fill="#F54C4C"></path>
	<path d="M623.5,468.3c-23.3,0-43.1-19.8-43.1-43.1s19.8-43.1,43.1-43.1s43.1,19.8,43.1,43.1C668.3,446.6,646.8,468.3,623.5,468.3z" fill="#F54C4C"></path>
	<path d="M594.6,322.8V64.2h57.5v258.8h-57.5V322.8z" fill="#F54C4C"></path>
</g>
</svg>