<?xml version='1.0' encoding='utf-8'?>
<!-- Generator: Adobe Illustrator 27.2.0, SVG Export Plug-In . SVG Version: 6.00 Build 0)  --><svg xmlns="http://www.w3.org/2000/svg" xmlns:xlink="http://www.w3.org/1999/xlink" version="1.1" id="Vrstva_1" x="0px" y="0px" viewBox="0 0 565.4 566.9" style="enable-background:new 0 0 565.4 566.9;" xml:space="preserve" width="398.94162" height="400.0">
<style type="text/css">
	.st0{fill-rule:evenodd;clip-rule:evenodd;}
</style>
<g>
	<path class="st0" d="M209.3,352.2c12.1-77.1,78.6-131.4,155.7-131.4s143.5,54.3,155.7,131.4h-42.4c-19.6,0-27.2-4.5-33.2-7.6   s-12.1-7.6-25.6-7.6H313.7c-13.6,0-19.6,3.1-25.6,7.6c-7.6,4.5-13.6,7.6-33.2,7.6H209.3L209.3,352.2z M253.1,388.5h-43.9   c3.1,39.2,21.1,72.4,42.4,95.2c12.1,13.6,24.1,22.8,33.2,28.7c7.6,4.5,12.1,6,13.6,6h46.8v-68h-3.1c-45.3,0-52.8-15.1-60.5-37.7   C275.7,396.2,260.8,388.5,253.1,388.5L253.1,388.5z M384.6,450.5v69.6h46.8c1.5,0,6-1.5,13.6-6c10.5-6,22.8-15.1,33.2-28.7   c21.1-24.1,39.2-56,42.4-95.2h-43.7c-7.6,0-22.8,7.6-28.7,24.1C440.5,437,433,452,387.7,452h-3.1L384.6,450.5L384.6,450.5   L384.6,450.5z M168.4,378.1c0-113.3,90.7-196.5,196.5-196.5s196.5,83.2,196.5,196.5s-98.2,181.3-128.4,181.3H297   C266.8,559.3,168.4,491.4,168.4,378.1L168.4,378.1z"></path>
	<path d="M112.7,7.6c21.1,0,39.2,4.5,56,13.6c15.1,9.1,27.2,22.8,34.7,37.7c7.6,16.8,12.1,34.7,12.1,54.3s-4.5,37.7-12.1,54.3   c-7.6,16.8-19.6,28.7-34.7,37.7c-15.1,9.1-34.7,13.6-56,13.6H67.2v114.8H3.9V7.6H112.7L112.7,7.6z M105.1,166.4   c15.1,0,25.6-4.5,33.2-13.6c7.6-9.1,10.5-22.8,10.5-37.7s-4.5-28.7-12.1-37.7c-7.6-9.1-18.1-13.6-33.2-13.6H65.9v102.8h39.2   L105.1,166.4L105.1,166.4z"></path>
</g>
</svg>