<?xml version='1.0' encoding='utf-8'?>
<svg xmlns="http://www.w3.org/2000/svg" id="Vrstva_1" data-name="Vrstva 1" viewBox="0 0 394.68 566.93" width="278.46823" height="400.0">
  <path d="m197.34,445.18c27.91,0,50.54,22.63,50.54,50.54s-22.63,50.54-50.54,50.54-50.54-22.63-50.54-50.54,22.63-50.54,50.54-50.54ZM55.83,303.68c27.91,0,50.54,22.63,50.54,50.54s-22.63,50.54-50.54,50.54-50.54-22.63-50.54-50.54,22.63-50.54,50.54-50.54Zm141.5,0c27.91,0,50.54,22.63,50.54,50.54s-22.63,50.54-50.54,50.54-50.54-22.63-50.54-50.54,22.63-50.54,50.54-50.54Zm141.5,0c27.91,0,50.54,22.63,50.54,50.54s-22.63,50.54-50.54,50.54-50.54-22.63-50.54-50.54,22.63-50.54,50.54-50.54ZM55.83,162.18c27.91,0,50.54,22.63,50.54,50.54s-22.63,50.54-50.54,50.54S5.3,240.62,5.3,212.71s22.63-50.54,50.54-50.54Zm141.5,0c27.91,0,50.54,22.63,50.54,50.54s-22.63,50.54-50.54,50.54-50.54-22.63-50.54-50.54,22.63-50.54,50.54-50.54Zm141.5,0c27.91,0,50.54,22.63,50.54,50.54s-22.63,50.54-50.54,50.54-50.54-22.63-50.54-50.54,22.63-50.54,50.54-50.54ZM55.83,20.67c27.91,0,50.54,22.63,50.54,50.54s-22.63,50.54-50.54,50.54S5.3,99.12,5.3,71.21,27.92,20.67,55.83,20.67Zm141.5,0c27.91,0,50.54,22.63,50.54,50.54s-22.63,50.54-50.54,50.54-50.54-22.63-50.54-50.54,22.63-50.54,50.54-50.54Zm141.5,0c27.91,0,50.54,22.63,50.54,50.54s-22.63,50.54-50.54,50.54-50.54-22.63-50.54-50.54,22.63-50.54,50.54-50.54Z"></path>
</svg>