<?xml version='1.0' encoding='utf-8'?>
<!-- Generator: Adobe Illustrator 27.2.0, SVG Export Plug-In . SVG Version: 6.00 Build 0)  --><svg xmlns="http://www.w3.org/2000/svg" xmlns:xlink="http://www.w3.org/1999/xlink" version="1.1" id="Vrstva_1" x="0px" y="0px" viewBox="0 0 808.4 566.9" style="enable-background:new 0 0 808.4 566.9;" xml:space="preserve" width="570.4004" height="400.0">
<g>
	<path d="M472.6,428.7c-8.8,0-15.1,2.2-21.8,4.3l-69.3-69.3l-32.4,32.4l69.3,69.3c-2.2,6.6-4.3,13-4.3,21.8   c0,32.4,26.1,58.6,58.6,58.6s58.6-26.1,58.6-58.6C531,454.8,505,428.8,472.6,428.7L472.6,428.7z" fill="#51F093"></path>
	<path d="M472.6,155.5c-184.2,0-331.8,149.7-331.8,331.8v23.9h93.4v-47.7h-45.7c4.3-60.8,28.2-115,65.1-160.3l36.9,36.9l34.7-32.4   l-36.9-36.9c43.4-36.9,99.8-60.8,160.3-67.1v45.7h47.7v-45.7c60.8,4.3,117.1,28.2,160.3,67.1l-36.9,36.7l34.7,32.4l36.9-36.9   c36.9,43.4,60.8,99.8,65.1,160.3h-45.7v47.8h93.4v-23.9C804.2,305.1,654.6,155.5,472.6,155.5L472.6,155.5z" fill="#51F093"></path>
	<polygon points="45.4,227.1 210.2,227.1 210.2,62.3 164.5,62.3 164.5,146.8 38.8,21.1 4.2,55.6 129.8,179.4 45.4,179.4  " fill="#51F093"></polygon>
</g>
</svg>