<?xml version='1.0' encoding='utf-8'?>
<svg xmlns="http://www.w3.org/2000/svg" id="Vrstva_1" data-name="Vrstva 1" viewBox="0 0 561.13 566.93" width="395.90778" height="400.0">
  <defs>
    <style>
      .cls-1 {
        fill-rule: evenodd;
      }
    </style>
  </defs>
  <path class="cls-1" d="m83.64,93.1l.02,60.4h66.74v-60.4c-9.92-6.02-21.31-9.37-33.38-9.37s-23.46,3.35-33.38,9.37Zm-39.36,4.35H5.31v39.35h38.98v16.7s-.02,0-.02,0v72.75h.05l.02,66.92c19.08,18.4,44.62,29.65,72.69,29.65s53.61-11.25,72.69-29.65v-66.92h.05v-72.75h-.02v-16.7h39.05v-39.35h-39.04v-23.36s0,0,0,0v-36.36c-19.08-18.43-44.64-29.7-72.74-29.7s-53.66,11.27-72.75,29.7v36.36s0,0,0,0v23.36Zm106.1,176.67v-47.87s-66.7,0-66.7,0v47.87c9.93,6.01,21.31,9.34,33.36,9.34s23.43-3.34,33.34-9.34Zm81.59,203.49c66.92-37.99,112.06-109.88,112.06-192.33v-1.82h-39.35v1.82c0,68.86-38.31,128.77-94.79,159.58l22.08,32.75Zm-42.88-63.61c47.2-24.08,79.52-73.15,79.52-129.77v-.77h-39.35v.77c0,43.04-25.59,80.1-62.39,96.8l22.23,32.97Zm221.57,45.06l.02,60.38h66.74v-60.38c-9.92-6.02-21.31-9.37-33.38-9.37s-23.46,3.35-33.38,9.37Zm-39.36,4.33h-38.97v39.35h38.98v16.7s-.02,0-.02,0v39.47h145.5v-39.47h-.02v-16.7h39.05v-39.35h-39.04v-23.35s0,0,0,0v-36.38c-19.08-18.43-44.64-29.7-72.74-29.7s-53.67,11.27-72.75,29.7v36.38s0,0,0,0v23.35Z" fill="#FFCE63"></path>
</svg>