<?xml version='1.0' encoding='utf-8'?>
<svg xmlns="http://www.w3.org/2000/svg" id="Vrstva_1" data-name="Vrstva 1" viewBox="0 0 771.19 566.93" width="544.1166" height="400.0">
  <defs>
    <style>
      .cls-1 {
        fill-rule: evenodd;
      }
    </style>
  </defs>
  <path class="cls-1" d="m111.6,91.16L132.54,7.53h33.58l-16.75,83.63h-37.77ZM45.92,353.5L5.28,515.81h59.03l32.51-162.32h-50.91Zm53.37-213.14l-36.95,147.56h47.62l29.56-147.56h-40.23Zm560.3-49.2l-20.94-83.63h-33.58l16.75,83.63h37.77Zm65.68,262.34l40.64,162.32h-59.03l-32.51-162.32h50.91Zm-53.37-213.14l36.95,147.56h-47.62l-29.56-147.56h40.23Zm-190.84-52.1h-179.03l20.12-33.41c14.49-1.98,39.11-4.54,69.38-4.54s54.91,2.57,69.39,4.55l20.15,33.4Zm-199.13,87.43v-54.06l.35-.59h76.26l-21.89,21.86h-32.83v32.78h-21.89ZM391.53,9.69c-40.94,0-72.42,4.36-85.16,6.46l-9.28,1.52-4.85,8.05-52.07,86.47-2.91,4.83v129.1c0,22.59,18.33,40.9,40.95,40.9h5.06c20.94,0,38.22-15.7,40.66-35.96h135.19c2.44,20.26,19.71,35.96,40.66,35.96h5.13c22.62,0,40.95-18.31,40.95-40.89l.02-123.47v-5.65s-2.92-4.84-2.92-4.84l-52.16-86.47-4.85-8.04-9.27-1.52c-12.74-2.09-44.22-6.46-85.17-6.46Zm32.69,111.35h76.61v54.64s-21.89,0-21.89,0v-32.78h-32.83l-21.89-21.86Zm-183.82,438.36c-18.88,0-35.25-4.42-49.1-13.26-13.86-8.84-24.5-21.09-31.93-36.75-7.43-15.67-11.15-33.54-11.15-53.62s3.72-37.96,11.15-53.62c7.43-15.67,18.08-27.92,31.93-36.75,13.86-8.84,30.23-13.26,49.1-13.26s35.25,4.42,49.1,13.26c14.06,8.84,24.7,21.09,31.93,36.75,7.43,15.67,11.15,33.54,11.15,53.62s-3.72,37.96-11.15,53.62c-7.23,15.67-17.77,27.92-31.63,36.75-13.86,8.84-30.33,13.26-49.41,13.26Zm0-33.74c11.85,0,21.79-2.81,29.82-8.44,8.23-5.82,14.36-13.96,18.38-24.4,4.22-10.44,6.33-22.79,6.33-37.05s-2.11-26.61-6.33-37.05c-4.02-10.44-10.14-18.48-18.38-24.1-8.03-5.82-17.97-8.74-29.82-8.74s-21.59,2.91-29.82,8.74c-8.03,5.62-14.16,13.66-18.38,24.1-4.02,10.44-6.03,22.79-6.03,37.05s2.01,26.61,6.03,37.05c4.22,10.44,10.34,18.58,18.38,24.4,8.23,5.62,18.18,8.44,29.82,8.44Zm139.06-169.99h-19.28v200.03h35.85v-82.54h72.9v-31.63h-72.9v-53.32h82.54v-32.54h-99.11Zm144.21,0h-19.28v200.03h35.85v-82.54h72.9v-31.63h-72.9v-53.32h82.54v-32.54h-99.11Z"></path>
</svg>