<?xml version='1.0' encoding='utf-8'?>
<svg xmlns="http://www.w3.org/2000/svg" id="Vrstva_1" data-name="Vrstva 1" viewBox="0 0 675.02 566.93" width="476.2634" height="400.0">
  <defs>
    <style>
      .cls-1 {
        fill: #fff;
      }

      .cls-2 {
        fill: #9c9b9b;
      }

      .cls-3 {
        fill-rule: evenodd;
      }
    </style>
  </defs>
  <g>
    <path class="cls-3" d="m249.96,253.61l-21.92,36.45h217.81l-21.96-36.45c-17.92-2.48-48.85-5.76-86.97-5.76s-69.03,3.28-86.96,5.75Zm-18.44-45.24c15.75-2.59,54.71-8,105.39-8s89.65,5.41,105.4,8l10.83,1.78,5.66,9.4,64.7,107.4,3.4,5.65v6.6l-.03,153.35h0c0,27.24-22.08,49.31-49.32,49.31h-6.37c-25.67,0-46.76-19.61-49.1-44.66h-170.35c-2.34,25.05-23.43,44.66-49.1,44.66h-6.28c-27.24,0-49.32-22.08-49.32-49.31h0s0-153.35,0-153.35v-6.59l3.39-5.65,64.58-107.4,5.66-9.41,10.84-1.78Zm64.65,128.88h-95v67.85h27.14v-40.71h54.28l13.57-27.14Zm176.42,0h-94.99l13.57,27.14h54.28v40.71h27.14v-67.85Z"></path>
    <path class="cls-2" d="m6.3,108.42L68.8,15.49h80.12l-62.5,92.93,62.5,92.41h-80.12L6.3,108.42Z"></path>
    <path class="cls-2" d="m606.22,16.07l62.5,92.93-62.5,92.41h-80.12l62.5-92.41-62.5-92.93h80.12Z"></path>
  </g>
  <path class="cls-1" d="m329.82,200.5c68.66,0,123.06,10.04,123.06,10.04l73.54,122.08-.21,161.1-.68,8.47s-7.06,39.15-50.93,39.15c-1.21,0-2.46-.03-3.73-.09-47.2-2.29-48.95-44.52-48.95-44.52h-169.84s-4.12,44.72-49.84,44.72c-1.73,0-3.52-.06-5.37-.2-50.77-3.64-49.17-49.16-49.17-49.16v-159.45s73.42-122.09,73.42-122.09c36.46-7.53,74.35-10.04,108.69-10.04m0-10c-40.55,0-77.8,3.45-110.71,10.24l-4.29.89-2.26,3.75-73.41,122.09-1.43,2.38v162.09c-.06,2.2-.03,14.64,6.6,27.84,6.59,13.12,20.93,29.22,51.84,31.43,2.06.15,4.1.22,6.08.22,28.29,0,43.15-14.79,50.63-27.19,3.84-6.36,6.1-12.65,7.41-17.53h153.15c1.14,4.64,3.14,10.49,6.62,16.45,7.03,12.03,21.47,26.66,50.33,28.06,1.41.07,2.83.1,4.21.1,26.83,0,41.97-12.85,49.95-23.62,8.4-11.34,10.6-22.51,10.82-23.75l.09-.49.04-.49.68-8.47.03-.39v-.39s.21-161.1.21-161.1v-2.79s-1.43-2.39-1.43-2.39l-73.54-122.08-2.32-3.86-4.43-.82c-2.26-.42-56.09-10.2-124.88-10.2h0Z"></path>
</svg>