<?xml version='1.0' encoding='utf-8'?>
<!-- Generator: Adobe Illustrator 27.2.0, SVG Export Plug-In . SVG Version: 6.00 Build 0)  --><svg xmlns="http://www.w3.org/2000/svg" xmlns:xlink="http://www.w3.org/1999/xlink" version="1.1" id="Vrstva_1" x="0px" y="0px" viewBox="0 0 654.4 566.9" style="enable-background:new 0 0 654.4 566.9;" xml:space="preserve" width="461.7393" height="400.0">
<style type="text/css">
	.st0{fill-rule:evenodd;clip-rule:evenodd;}
</style>
<g>
	<path class="st0" d="M157,369.7c50.5,34.9,115.3,62.9,184.9,62.9s136.3-29.7,188.5-64.4c50.5-34.9,90.8-78.6,111.8-106.4l7.1-8.7   l-7.1-8.7c-21-29.7-59.4-71.5-111.8-108.2C479.8,100.9,415.4,71.4,342,71.4s-134.4,28-184.9,62.8v38.4c5.2-3.5,10.6-7.1,15.8-10.6   c49-33.2,106.4-59.4,171-59.4s122.1,26.1,171,59.4c43.6,29.7,76.8,64.4,97.6,90.8c-21,26.1-54.2,61.1-97.6,90.8   c-49,33.2-106.4,59.4-171,59.4s-122.1-26.1-171-59.4c-5.2-3.5-10.6-7.1-15.8-10.6L157,369.7L157,369.7L157,369.7z M343.7,191.9   c-33.2,0-61.1,26.1-61.1,61.1c0,33.2,26.1,61.1,61.1,61.1c33.2,0,61.1-26.1,61.1-61.1C403.1,219.8,376.9,191.9,343.7,191.9   L343.7,191.9z M253.1,252.8c0-50.5,40.3-90.8,90.8-90.8s90.8,40.3,90.8,90.8s-40.3,90.8-90.8,90.8S253.1,301.8,253.1,252.8z"></path>
	<path d="M62.6,546.2C31,546.2,5,520.2,5,488.6s26.4-57.6,57.6-57.6s57.6,26.1,57.6,57.6C120.3,520,94.2,546.2,62.6,546.2z"></path>
	<path d="M17.3,359.4V20.7h92.5v338.6H17.3V359.4z"></path>
</g>
</svg>