<?xml version='1.0' encoding='utf-8'?>
<!-- Generator: Adobe Illustrator 27.2.0, SVG Export Plug-In . SVG Version: 6.00 Build 0)  --><svg xmlns="http://www.w3.org/2000/svg" xmlns:xlink="http://www.w3.org/1999/xlink" version="1.1" id="Vrstva_1" x="0px" y="0px" viewBox="0 0 565.4 566.9" style="enable-background:new 0 0 565.4 566.9;" xml:space="preserve" width="398.94162" height="400.0">
<style type="text/css">
	.st0{fill-rule:evenodd;clip-rule:evenodd;}
</style>
<g>
	<path class="st0" d="M82,193c3-10.5,7.5-19.5,12-30l-30-30c-12,18-19.5,39-25.5,59.8H82L82,193L82,193z M10.2,193   c6-28.5,18-55.5,33-79.3c4.5-7.5,10.5-15,16.5-22.5l19.5,19.5l49.5,49.5c-13.5,18-22.5,39-25.5,61.3H7.2   C7.2,212.5,8.7,203.5,10.2,193L10.2,193z M239.2,76.2c-28.5,0-54,7.5-77.8,19.5l-30-30c31.5-19.5,68.8-30,107.8-30   c101.8,0,187.1,73.3,203.6,170.6c10.5,3,19.5,6,28.5,9C459.3,98.5,360.5,7.3,239.2,7.3c-48,0-91.3,13.5-128.8,37.5   c-7.5,4.5-15,10.5-22.5,16.5l19.5,19.5l49.5,49.5c22.5-16.5,51-27,82.3-27c62.8,0,115.3,42,131.8,98.8c9-1.5,18-1.5,27-1.5h1.5   C381.5,128.7,317,76.2,239.2,76.2L239.2,76.2z"></path>
	<path class="st0" d="M200.3,374.1c-51-15-88.3-58.3-97.3-110.8H7.2c9,110.8,95.8,199.1,206.6,212.6c-4.5-12-7.5-22.5-10.5-34.5   C197.3,417.5,197.3,395.1,200.3,374.1L200.3,374.1z"></path>
	<path class="st0" d="M510.1,288.8c-30-30-70.3-46.5-112.3-46.5c-31.5,0-61.3,9-88.3,27c-25.5,18-46.5,42-58.3,71.8   c-12,28.5-15,61.3-9,91.3c6,31.5,21,58.3,43.5,80.8c3,3,6,6,9,7.5l0,0c21,18,45,30,73.3,36c31.5,6,62.8,3,91.3-9   c16.5-6,30-15,43.5-27l0,0c3-3,6-6,9-9c1.5-1.5,3-3,6-4.5c4.5-6,9-12,13.5-18c18-25.5,27-56.8,27-88.3   C556.6,359.3,540.1,318.8,510.1,288.8L510.1,288.8z M397.8,284.3c33,0,61.3,27,61.3,61.3s-27,61.3-61.3,61.3s-61.3-27-61.3-61.3   C338,311.3,365,284.3,397.8,284.3z M448.8,522.3c-24,10.5-51,12-76.3,7.5c-25.5-4.5-49.5-18-67.3-36c-1.5-1.5-3-3-3-4.5   c15-37.5,52.5-64.3,95.8-64.3s80.8,27,95.8,65.8C481.8,502.9,466.8,514.9,448.8,522.3z"></path>
</g>
</svg>