<?xml version='1.0' encoding='utf-8'?>
<!-- Generator: Adobe Illustrator 27.2.0, SVG Export Plug-In . SVG Version: 6.00 Build 0)  --><svg xmlns="http://www.w3.org/2000/svg" xmlns:xlink="http://www.w3.org/1999/xlink" version="1.1" id="Vrstva_1" x="0px" y="0px" viewBox="0 0 556.4 566.9" style="enable-background:new 0 0 556.4 566.9;" xml:space="preserve" width="392.5913" height="400.0">
<style type="text/css">
	.st0{fill-rule:evenodd;clip-rule:evenodd;}
</style>
<g>
	<path class="st0" d="M150.4,230.5h-27c-7.5,52.3,19.5,100.2,68.8,128.6l19.5-19.5C165.4,317.3,141.4,273.9,150.4,230.5L150.4,230.5   z" fill="#FFCE63"></path>
	<path class="st0" d="M89.1,230.5H62.3c-3,65.8,32.9,130.1,86.7,168.8l19.5-19.5C120.7,347.1,87.7,287.3,89.1,230.5L89.1,230.5z" fill="#FFCE63"></path>
	<path class="st0" d="M32.3,230.5h-27c-3,82.2,38.9,158.6,106.1,206.3l19.5-19.5C68.2,375.5,32.3,303.7,32.3,230.5L32.3,230.5z" fill="#FFCE63"></path>
	<path class="st0" d="M291,339.6l19.5,19.5c49.5-27,76.3-76.3,70.2-128.6h-27C359.7,273.9,334.4,317.3,291,339.6L291,339.6z" fill="#FFCE63"></path>
	<path class="st0" d="M439,230.5h-27c6.1,59.7-27,116.7-79.2,149.5l19.5,19.5C406.2,362.1,442.1,296.2,439,230.5L439,230.5z" fill="#FFCE63"></path>
	<polygon class="st0" points="265.6,407 291,380 265.6,380 265.6,326.2 235.7,326.2 235.7,380 210.4,380 235.7,407 235.7,408.4    237.2,408.4 250.6,421.9 264,408.4 265.6,408.4  " fill="#FFCE63"></polygon>
	<polygon class="st0" points="319.5,421.9 292.5,448.8 291,448.8 291,448.8 277.5,462.3 291,475.7 291,475.7 292.5,475.7    319.5,502.5 319.5,475.7 373.1,475.7 373.1,448.8 319.5,448.8  " fill="#FFCE63"></polygon>
	<path class="st0" d="M180.4,273.9c0,0,28.4,28.4,70.2,28.4s70.2-28.4,70.2-28.4V124.4h28.4V96h-28.4V36c0,0-28.4-28.4-70.2-28.4   S180.4,36,180.4,36v59.7H152v28.4h28.4V273.9L180.4,273.9z M247.6,37.6h6.1H247.6z M208.8,74.9c12-4.5,25.5-8.9,42-8.9   s30,4.5,42,8.9v59.7h-83.8L208.8,74.9L208.8,74.9L208.8,74.9z M208.8,218.5h83.8v42c-1.4,1.4-3,1.4-4.5,3   c-8.9,6.1-22.5,10.5-37.5,10.5c-15,0-27-4.5-37.5-10.5c-1.4-1.4-3-1.4-4.5-3L208.8,218.5L208.8,218.5L208.8,218.5z" fill="#FFCE63"></path>
	<path class="st0" d="M551.2,392h-35.9v-28.4h-28.4V392h-59.7c0,0-25.5,25.5-28.4,64.3v4.5c0,31.4,16.4,55.4,23.9,65.7   c3,3,4.5,4.5,4.5,4.5h59.7v28.4h28.4V531h35.9L551.2,392L551.2,392L551.2,392z M428.7,465.3L428.7,465.3v-3l0,0v-3V465.3z    M525.8,504.1h-59.7c-4.5-12-8.9-25.5-8.9-42s4.5-30,8.9-42h59.7V504.1L525.8,504.1z" fill="#FFCE63"></path>
</g>
</svg>