<?xml version='1.0' encoding='utf-8'?>
<svg xmlns="http://www.w3.org/2000/svg" id="Vrstva_1" data-name="Vrstva 1" viewBox="0 0 563.06 566.9" width="397.2905" height="400.0">
  <path d="m286.28,8.92c151.69,0,269.78,123.38,269.79,274.53,0,151.57-122.56,274.54-273.85,274.54-101.76,0-190.52-55.64-237.71-138.19l33.98-19.58c40.45,70.83,116.57,118.54,203.73,118.54,129.51,0,234.62-105.31,234.62-235.31-.01-130.42-101.45-235.3-230.56-235.3-100.86,0-181.68,65.22-211.7,156.86h108.88v39.23H6.99V67.71h39.23v101.6C86.57,75.32,175.46,8.92,286.28,8.92Zm-4.5,274.75h97.83v39.23h-137.06V126.56h39.23v157.11h0Z"></path>
</svg>