<?xml version='1.0' encoding='utf-8'?>
<svg xmlns="http://www.w3.org/2000/svg" id="Vrstva_1" data-name="Vrstva 1" viewBox="0 0 544.62 566.93" width="384.2591" height="400.0">
  <defs>
    <style>
      .cls-1 {
        fill-rule: evenodd;
      }
    </style>
  </defs>
  <path class="cls-1" d="m93.34,436.05l-82.41,82.36,27.04,27.03L535.16,48.52l-27.04-27.03-46.73,46.7-14.08-14.08-27.04,27.04,14.07,14.07-31.85,31.83h-32.31c-85.33,0-154.51,69.17-154.51,154.5,0,13.64-2.35,26.72-6.66,38.88l-70.77,70.74c-12.14,4.3-25.21,6.64-38.83,6.64H5.33v38.24h88.01Zm160.75-160.66l109.99-109.94c-59.33,3.07-106.89,50.62-109.99,109.94Zm25.15,82.41l-4.96,4.96c-4.68,10.05-10.2,19.63-16.46,28.65,28.17,29.84,68.1,48.47,112.38,48.47h96.01l-45.93,45.91,27.04,27.03,93.3-93.25-.24-.24.21-.21-93.28-93.27-27.04,27.04,48.76,48.76h-98.85c-36.83,0-69.65-17.12-90.96-43.84Zm235.95-235.83l-93.51,93.47,25.65,25.64,93.28-93.27-.21-.22.21-.21-25.41-25.41Zm-306.44,54.23c-7.43,11.37-13.7,23.57-18.63,36.44-21.31-26.54-54.02-43.52-90.71-43.52H5.33v-38.24h94.08c42.71,0,81.36,17.32,109.33,45.33Z"></path>
</svg>