<?xml version='1.0' encoding='utf-8'?>
<svg xmlns="http://www.w3.org/2000/svg" id="Vrstva_1" data-name="Vrstva 1" viewBox="0 0 518.2 566.93" width="365.61835" height="400.0">
  <path d="m477.71,284.74c0,90.55-73.41,163.96-163.96,163.96H75.05l43.72,43.72-25.76,25.77L4.12,429.29l.18-.19-.18-.18,88.88-88.88,25.76,25.76-46.46,46.46h241.44c70.43,0,127.52-57.1,127.52-127.52v-37.89h36.44v37.89Zm36.36-147.12l-.19.18.19.19-88.88,88.89-25.76-25.77,46.45-46.45h-241.43c-70.43,0-127.52,57.09-127.52,127.52v37.53h-36.44v-37.53c0-90.55,73.41-163.96,163.96-163.96h238.72l-43.73-43.73,25.76-25.76,88.88,88.88Z"></path>
</svg>