<?xml version='1.0' encoding='utf-8'?>
<svg xmlns="http://www.w3.org/2000/svg" id="Vrstva_1" version="1.1" viewBox="0 0 403.85 400" width="403.85" height="400.0">
  <!-- Generator: Adobe Illustrator 30.2.1, SVG Export Plug-In . SVG Version: 2.1.1 Build 1)  -->
  <path d="M201.93,5.1C94.35,5.1,7.03,92.41,7.03,200s87.31,194.9,194.9,194.9,194.9-87.31,194.9-194.9S309.51,5.1,201.93,5.1Z" fill="#fff"></path>
  <path d="M201.93,18.11C101.47,18.11,20.02,99.55,20.02,200.01s81.44,181.91,181.91,181.91,181.91-81.44,181.91-181.91S302.39,18.11,201.93,18.11ZM201.93,353.84c-83.86,0-151.84-67.98-151.84-151.84S118.07,50.15,201.93,50.15s151.84,67.98,151.84,151.84-67.98,151.84-151.84,151.84h0Z" fill="#76be85"></path>
  <g>
    <path d="M126.16,173.2l-25.71-2.88s1.71-15.81,14.2-25.8,26.12-9.98,26.12-9.98c0,0,18.79-1.87,31.8,5.98,0,0,13.01,6.61,16.93,19.61,0,0,4.34,9.09,0,21.27s-13.91,15.87-13.91,15.87c0,0,12.72,5.14,16.9,16.75,0,0,4.95,10.69,1.09,23.08s-13.48,18.89-13.48,18.89c0,0-9.45,7.83-27.88,9.41s-31.91-6-31.91-6c0,0-10.22-4.65-16.57-15.64,0,0-3.66-8.23-3.85-12.87l26.4-2.93s.52,5.48,6.09,9.5c0,0,8.78,6.19,21.58,3.1s12.59-13.84,12.59-13.84c0,0,1.86-8.78-9.4-14.04,0,0-6.82-2.46-16.26-1.91h-7.22l-.06-21.68,12.08.08s10.77.54,15.87-7.36-.31-16.42-.31-16.42c0,0-4.18-7.75-18.51-6.74s-16.42,13.63-16.42,13.63l-.21.9h.02l.03.02Z"></path>
    <path d="M302.15,178.27s-1.4-15.95-13.63-30.2-33.76-13.52-33.76-13.52c-15.69-.51-26.85,6.5-26.85,6.5-18.27,11.46-21.79,34.59-21.79,34.59,0,0-5.57,27.41,1.09,53.12s25.35,32.58,25.35,32.58c0,0,14.87,6.61,31.91,3.3,17.04-3.3,24.06-12.81,24.06-12.81,11.46-12.54,13.63-30.66,13.63-30.66,4.03-23.23,0-42.9,0-42.9h-.01ZM272.21,225.71c-4.44,13.22-14.04,13.84-14.04,13.84,0,0-11.98,3.82-19.83-7.95s-5.79-40.78-5.79-40.78c0,0,.52-18.27,8.57-26.02,0,0,4.15-5.06,12.81-4.95,0,0,10.63-.52,16.1,9.6s5.37,25.92,5.37,25.92c0,0,1.24,17.14-3.2,30.35h.01Z"></path>
  </g>
</svg>