<?xml version='1.0' encoding='utf-8'?>
<svg xmlns="http://www.w3.org/2000/svg" id="Vrstva_1" data-name="Vrstva 1" viewBox="0 0 709.14 566.93" width="500.3369" height="400.0">
  <path d="m267.76,21.08h60.97s-.51,7.18-.51,7.18c-8.23,118.43,65.56,236.56,155.57,333.26,79.4,85.3,166.13,148.24,202.2,172.04l18.66,12.32h-106.27s-1.79-1.38-1.79-1.38c-44.57-33.9-102.5-82.57-157.21-141.35-91.43-98.24-180.54-231.83-171.99-375.77l.37-6.32v.02Zm-67.81,333h68.84s1.93,3.37,1.93,3.37c2.45,4.28,4.96,8.54,7.51,12.75,42.85,70.63,97.81,127.58,148.29,163.48l17.13,12.19h-98.91s-1.91-1.76-1.91-1.76c-42.27-38.5-83.11-87.16-116.5-142.2-7.47-12.32-14.61-25.02-21.34-38.06l-5.05-9.78h0ZM41.59,21.05h65.4s-3.74,9.23-3.74,9.23c-47.2,116.68-47.43,241.74-17.09,348.1,17.38,60.94,44.43,114.57,77.37,156.63l8.51,10.85h-75.72s-1.98-3.03-1.98-3.03c-28.51-43.37-51.2-93.68-66.6-147.66C-4.38,282.58-5.82,150.74,39.98,25.46l1.6-4.4h.01Zm105.69,160.56h61.3s.88,5.7.88,5.7c6.82,44.79,20.86,88.21,39.9,128.99l4.46,9.55h-66.81s-1.73-4.1-1.73-4.1c-17.58-41.72-30.61-86.26-36.95-132.51l-1.05-7.63h0Zm9.96-160.55h62.99s-2.33,8.49-2.33,8.49c-10.75,39.15-14.5,78.34-12.6,116.82l.35,7.04h-60.88s-.29-6.41-.29-6.41c-1.75-39.54,1.66-80.03,11.51-120.81l1.25-5.14h0Z" fill="#51F093"></path>
</svg>