<?xml version='1.0' encoding='utf-8'?>
<!-- Generator: Adobe Illustrator 27.2.0, SVG Export Plug-In . SVG Version: 6.00 Build 0)  --><svg xmlns="http://www.w3.org/2000/svg" xmlns:cc="http://creativecommons.org/ns#" xmlns:rdf="http://www.w3.org/1999/02/22-rdf-syntax-ns#" xmlns:dc="http://purl.org/dc/elements/1.1/" overflow="visible" version="1.2" viewBox="0 0 426.6 400" xml:space="preserve" width="426.6" height="400.0"><metadata><rdf:RDF><cc:Work rdf:about=""><dc:format>image/svg+xml</dc:format><dc:type rdf:resource="http://purl.org/dc/dcmitype/StillImage"></dc:type><dc:title></dc:title></cc:Work></rdf:RDF></metadata><g fill-rule="evenodd"><path d="m7.6 186.6c0-55.6 24.2-108.8 60.5-145.2l16.1 16.1c-32.2 32.2-53.9 79.7-53.9 129s21.5 96.9 53.9 129.1l-16.1 16.1c-36.5-36.1-60.5-89.3-60.5-145.1z" fill="#FFCE63"></path><path d="m358.6 41.4c36.3 36.3 60.6 89.5 60.6 145.3s-24.3 108.8-60.6 145.3l-16.1-16c32.2-32.2 53.9-79.7 53.9-129.1s-21.5-96.9-53.9-129l16.1-16.5z" fill="#FFCE63"></path><path d="m213.4 49.6c-75.8 0-137.3 61.4-137.3 137.3s61.4 137.3 137.3 137.3 137.3-61.4 137.3-137.3-61.6-137.3-137.3-137.3zm-160.1 137c0-88.4 71.8-160 160-160 88.4 0 160 71.8 160 160s-71.8 160-160 160c-88.4 0.1-160-71.5-160-160z" fill="#FFCE63"></path></g><path d="m193.1 304.9c-16.8 0-31.2-14.4-31.2-31.2s14.4-31.2 31.2-31.2 31.2 14.4 31.2 31.2c-0.1 17.2-14.5 31.2-31.2 31.2z" fill="#FFCE63"></path><path d="M181.7,271.8V73h22.7v198.8H181.7z" fill="#FFCE63"></path><path d="m265.3 116.6h-72.2v-22.7h72.2v22.7z" fill="#FFCE63"></path><path d="m265.3 167.6h-72.2v-22.7h72.2v22.7z" fill="#FFCE63"></path><path d="m265.3 218.6h-72.2v-22.7h72.2v22.7z" fill="#FFCE63"></path></svg>