<?xml version='1.0' encoding='utf-8'?>
<!-- Generator: Adobe Illustrator 27.2.0, SVG Export Plug-In . SVG Version: 6.00 Build 0)  --><svg xmlns="http://www.w3.org/2000/svg" xmlns:xlink="http://www.w3.org/1999/xlink" version="1.1" id="Vrstva_1" x="0px" y="0px" viewBox="0 0 804.4 566.9" style="enable-background:new 0 0 804.4 566.9;" xml:space="preserve" width="567.578" height="400.0">
<g>
	<g>
		<path d="M324.2,55l-17.2-17.1C334.9,20.9,367.1,10,401.4,10s66.7,10.5,94.7,27.7L479,54.8c-21.5-12.9-49.5-21.5-77.3-21.5    C373.5,31.4,347.8,39.8,324.2,55L324.2,55z"></path>
		<path d="M255.4,89.3c-17.1,25.7-27.9,57.9-27.9,92.3s10.7,66.5,27.9,94.4l17.1-17.1c-12.9-21.5-21.5-49.4-21.5-77.2    s8.6-53.7,21.5-77.2L255.4,89.3L255.4,89.3z"></path>
		<path d="M552,181.5c0,27.9-8.6,55.8-21.5,77.2l17.1,17.1c17.1-27.9,27.9-60.1,27.9-94.4s-10.7-68.7-27.9-94.4l-17.1,17.1    C545.6,127.8,552,153.8,552,181.5z"></path>
		<path d="M324.2,310.3c23.8,12.9,49.5,21.5,77.3,21.5s53.8-8.6,77.3-21.5l17.1,17.1c-27.9,17.1-60.2,27.9-94.5,27.9    s-68.8-10.7-94.5-27.9L324.2,310.3L324.2,310.3z"></path>
	</g>
	<path d="M496.1,130h-23.8l-17.1-25.7c0,0-21.5-6.4-53.8-6.4s-53.8,6.4-53.8,6.4l-17.1,27.9h-23.8v19.3h10.7l-8.6,17.1v62.3l0,0   v10.7c0,8.6,8.6,10.7,10.7,10.7h15c4.3,0,10.7-4.3,10.7-10.7v-10.7H455v10.7c0,8.6,8.6,10.7,10.7,10.7h15.2   c4.3,0,10.7-4.3,10.7-10.7v-10.7l0,0v-62.3l-6.4-19.3h10.7V130L496.1,130L496.1,130z M360.7,121.4c2.2,0,4.3,0,6.4-2.2   c8.6-2.2,21.5-2.2,36.5-2.2s27.9,2.2,36.5,2.2c2.2,0,4.3,0,6.4,2.2l21.5,34.4H341.6L360.7,121.4z M371.6,183.7h-19.3l-8.6,10.7h-15   v-25.7h55.9L371.6,183.7L371.6,183.7z M433.7,183.7l-10.7-15h55.9v27.9h-15l-8.6-10.7h-21.5L433.7,183.7L433.7,183.7L433.7,183.7z"></path>
</g>
<g>
	<path d="M142.4,554.8l-15-38.6H47.9l-17.1,38.6H5l73.1-169.6h17.1l73.1,169.6H142.4L142.4,554.8z M56.6,494.7h60.2l-30.2-73   L56.6,494.7L56.6,494.7z"></path>
	<path d="M202.6,550.7c-10.7-6.4-21.6-12.9-27.9-23.7l21.6-12.9c4.3,6.4,10.7,10.7,19.3,15s17.1,6.4,27.9,6.4s21.5-2.2,25.7-6.4   s8.6-10.7,8.6-19.3c0-6.4-2.2-12.9-8.6-17.1c-4.3-4.3-12.9-8.6-23.8-10.7l-17.1-4.3c-15-4.3-25.7-8.6-34.5-17.1   c-8.6-8.6-12.9-17.1-12.9-32.2c0-8.6,2.2-17.1,6.4-25.7c4.3-6.4,10.7-12.9,21.6-17.1c8.6-4.3,19.3-6.4,30.2-6.4   c12.9,0,23.8,2.2,34.5,6.4c10.7,4.3,19.3,10.7,25.7,19.3l-21.5,12.9c-4.3-6.4-10.7-10.7-17.1-12.9c-6.4-2.2-15-4.3-21.5-4.3   c-10.7,0-19.3,2.2-23.8,6.4c-6.4,4.3-8.6,10.7-8.6,17.1s2.2,12.9,8.6,17.1c6.4,4.3,15,8.6,27.9,10.7l17.1,4.3   c27.9,6.4,43.1,23.7,43.1,47.2c0,10.7-2.2,19.3-8.6,25.7c-6.4,6.4-12.9,12.9-21.5,17.1c-8.6,4.3-19.3,6.4-32.2,6.4   C228.3,557,215.6,554.8,202.6,550.7L202.6,550.7z"></path>
	<path d="M342.3,550.7c-10.7-6.4-21.5-12.9-27.9-23.7l21.5-12.9c4.3,6.4,10.7,10.7,19.3,15s17.1,6.4,27.9,6.4s21.5-2.2,25.7-6.4   s8.6-10.7,8.6-19.3c0-6.4-2.2-12.9-8.6-17.1c-4.3-4.3-12.9-8.6-23.8-10.7l-17.1-4.3c-15-4.3-25.7-8.6-34.5-17.1   c-8.6-8.6-12.9-17.1-12.9-32.2c0-8.6,2.2-17.1,6.4-25.7c4.3-6.4,10.7-12.9,21.5-17.1c8.6-4.3,19.3-6.4,30.2-6.4   c12.9,0,23.8,2.2,34.5,6.4c10.7,4.3,19.3,10.7,25.7,19.3l-21.5,12.9c-4.3-6.4-10.7-10.7-17.1-12.9c-6.4-2.2-15-4.3-21.5-4.3   c-10.7,0-19.3,2.2-23.8,6.4c-6.4,4.3-8.6,10.7-8.6,17.1s2.2,12.9,8.6,17.1c6.4,4.3,15,8.6,27.9,10.7l17.1,4.3   c27.9,6.4,43.1,23.7,43.1,47.2c0,10.7-2.2,19.3-8.6,25.7c-6.4,6.4-12.9,12.9-21.5,17.1c-8.6,4.3-19.3,6.4-32.2,6.4   C366.1,557,353.2,554.8,342.3,550.7L342.3,550.7z"></path>
	<path d="M469.1,385.4h25.7V555h-25.7L469.1,385.4L469.1,385.4z"></path>
	<path d="M548.5,550.7c-10.7-6.4-21.5-12.9-27.9-23.7l21.5-12.8c4.3,6.4,10.7,10.7,19.3,15s17.1,6.4,27.9,6.4s21.5-2.2,25.7-6.4   c6.4-4.3,8.6-10.7,8.6-19.3c0-6.4-2.2-12.9-8.6-17.1c-4.3-4.3-12.9-8.6-23.8-10.7l-17.1-4.3c-15-4.3-25.7-8.6-34.5-17.1   c-8.6-8.6-12.9-17.1-12.9-32.2c0-8.6,2.2-17.1,6.4-25.7c4.3-6.4,10.7-12.9,21.5-17.1c8.6-4.3,19.3-6.4,30.2-6.4   c12.9,0,23.8,2.2,34.5,6.4c10.7,4.3,19.3,10.7,25.7,19.3L623.6,418c-4.3-6.4-10.7-10.7-17.1-12.9s-15-4.3-21.5-4.3   c-10.7,0-19.3,2.2-23.8,6.4c-6.4,4.3-8.6,10.7-8.6,17.1s2.2,12.9,8.6,17.1c6.4,4.3,15,8.6,27.9,10.7l17.1,4.3   c27.9,6.4,43.1,23.7,43.1,47.2c0,10.7-2.2,19.3-8.6,25.7s-12.9,12.9-21.5,17.1c-10.7,8.6-21.5,10.7-32.2,10.7   C572.3,557,559.4,554.8,548.5,550.7z"></path>
	<path d="M797.9,385.4v21.5H742V555h-25.7V406.9h-58v-21.5H797.9z"></path>
</g>
</svg>