<?xml version='1.0' encoding='utf-8'?>
<!-- Generator: Adobe Illustrator 27.2.0, SVG Export Plug-In . SVG Version: 6.00 Build 0)  --><svg xmlns="http://www.w3.org/2000/svg" xmlns:xlink="http://www.w3.org/1999/xlink" version="1.1" id="Vrstva_1" x="0px" y="0px" viewBox="0 0 536.4 566.9" style="enable-background:new 0 0 536.4 566.9;" xml:space="preserve" width="378.47946" height="400.0">
<path d="M268.3,21.3c-51.3,0-102.7,15.8-145.5,44.2s-77.1,70-97,118.4S0,285.2,11.4,335.2c10,51.4,35.7,98.4,71.4,134.1  c37.1,37.1,84.1,61.4,134.1,71.4c51.3,10,104.3,4.4,151.2-14.4c48.5-19.9,88.5-54.2,118.4-97c28.5-42.8,44.2-94.3,44.2-145.5  c0-70-27.2-137-77.1-185.5S338.2,21.3,268.3,21.3z M268.3,519.5c-60,0-115.6-22.9-159.9-64.2c-42.8-39.8-70-95.6-72.7-155.5  c-4.4-58.6,14.4-117.1,51.4-164c37-45.8,89.9-77.2,148.2-85.8c-4.4,4.4-10,7.1-14.4,10c-22.9,10-78.5,39.8-81.4,58.6  c-1.4,15.8,14.4,19.9,57-4.4c41.5-24.3,58.8-45.7,80.1-45.7s71.4,10,71.4,18.5s-14.4,34.3-29.9,32.9c-14.4-1.4-29.9-17.1-45.7-14.4  c-17.1,2.8-39.8,24.3-27.2,32.9c21.3,1.4,42.8-5.7,48.5,0s0,21.3-24.3,21.3c-19.9-1.4-41.4,1.4-60,8.5c-12.8,5.7-42.8,7.1-41.4,27.2  c1.4,19.9,12.8,27.2,24.3,17.1c11.4-10,18.5-22.9,31.3-15.8c12.8,7.1,12.8,19.9,32.9,19.9c21.3,0,35.7-21.3,45.7-29.9  c10-8.5,42.8,5.7,41.4,14.4c-1.4,7.1-4.4,14.4-21.3,15.8c-17.1,2.9-17.1-1.4-27.2,10c-10,11.4-22.9,8.5-34.3,11.4  c-11.4,2.8-18.5,15.8-27.2,7.1c-8.5-8.5-12.8-25.8-24.3-25.8s-15.8,18.5-25.8,19.9c-10,1.4-41.4-4.4-48.5,4.4  c-4.4,5.7-7.1,12.8-7.1,21.3c-1.4,7.1,0,14.4,2.9,21.3c5.7,18.5,15.8,25.8,15.8,32.9s2.9,19.9,55.6,14.4c1.4,8.5-2.9,35.7,2.9,44.2  c8.5,10,12.8,21.3,14.4,34.3c1.4,17.1,29.9,68.6,57,68.6s37.1-54.2,51.4-62.7c2.9-1.4,5.7-2.9,7.1-5.7c1.4-2.9,4.4-5.7,4.4-8.5  c1.4-2.9,1.4-7.1,0-10c0-2.9-1.4-5.7-4.4-8.5c-8.5-10-14.4-7.1-7.1-14.4c7.1-7.1,10-5.7,18.5-10c8.5-4.4,17.1-17.1,17.1-19.9  s-60-42.8-61.5-55.6c-2.9-12.8-2.9-32.9,7.1-27.2s44.2,52.8,52.8,52.8c7.1-1.4,14.4-4.4,19.9-8.5c5.7-4.4,10-11.4,12.8-18.5  c5.7-17.1,4.4-14.4-18.5-19.9c-22.9-5.7-35.7-14.4-29.9-25.8c5.7-10,31.3-15.8,61.5,1.4c30,17.2,35.7,17.1,38.5,31.3  c2.8,15.8-4.4,41.4,8.5,41.4s2.8-57,11.4-57c8.5,1.4,17.1,5.7,22.9,12.8c7.1,5.7,11.4,14.4,14.4,22.9  c-1.4,61.5-27.2,119.8-71.4,161.3C389.7,496.6,329.6,519.5,268.3,519.5L268.3,519.5z"></path>
</svg>