<?xml version='1.0' encoding='utf-8'?>
<svg xmlns="http://www.w3.org/2000/svg" id="Vrstva_1" data-name="Vrstva 1" viewBox="0 0 561.13 566.93" width="395.90778" height="400.0">
  <defs>
    <style>
      .cls-1 {
        fill-rule: evenodd;
      }
    </style>
  </defs>
  <path class="cls-1" d="m371.86,80.45c0,33.17,26.06,59.23,59.23,59.23s59.23-26.06,59.23-59.23-26.06-59.23-59.23-59.23-59.23,26.06-59.23,59.23Zm87.52,95.1c22.69,14.45,29.8,45.26,15.88,68.82l-101.76,172.21c-11.99,20.3-36.1,29.01-57.64,20.83l-111.12-42.21-118.42,124.48c-18.7,19.66-49.22,19.86-68.16.44-18.94-19.42-19.13-51.1-.42-70.76l140.19-147.36c13.26-13.94,33.13-18.56,50.85-11.83l103.18,39.2,81.14-137.32c13.92-23.56,43.6-30.94,66.28-16.49h0Zm97.27,112.2c0,16.36-13.26,29.61-29.62,29.61s-29.61-13.26-29.61-29.61,13.26-29.62,29.61-29.62,29.62,13.26,29.62,29.62Zm-112.6,166.66c16.36,0,29.62-13.26,29.62-29.62s-13.26-29.61-29.62-29.61-29.61,13.26-29.61,29.61,13.26,29.62,29.61,29.62h0Zm-94.71,91.28c16.36,0,29.61-13.26,29.61-29.62s-13.26-29.61-29.61-29.61-29.62,13.26-29.62,29.61,13.26,29.62,29.62,29.62Zm-118.46-39.04c16.36,0,29.61-13.26,29.61-29.61s-13.26-29.62-29.61-29.62-29.62,13.26-29.62,29.62,13.26,29.61,29.62,29.61h0Z"></path>
</svg>