<?xml version='1.0' encoding='utf-8'?>
<!-- Generator: Adobe Illustrator 27.2.0, SVG Export Plug-In . SVG Version: 6.00 Build 0)  --><svg xmlns="http://www.w3.org/2000/svg" xmlns:xlink="http://www.w3.org/1999/xlink" version="1.1" id="Vrstva_1" x="0px" y="0px" viewBox="0 0 638.4 566.9" style="enable-background:new 0 0 638.4 566.9;" xml:space="preserve" width="450.44983" height="400.0">
<g>
	<path d="M440.4,63.1c-49.2-18.6-98.5-28.7-130.7-34c-16.9-3.4-30.6-5.2-42.4-5.2l-18.6-1.7l-5.2,16.9   c-40.7,169.6-40.7,318.9,0,488.7l5.2,16.9l18.6-1.7c10.1-1.7,25.5-3.4,42.4-5.2c32.3-5.2,81.4-15.4,130.7-33.9   c125.5-45.8,191.7-122.3,191.7-220.5S566.1,108.7,440.4,63.1L440.4,63.1z M426.9,466.8c-45.8,16.9-93.3,27-123.8,32.3l0,0   c-8.5,1.7-15.4,1.7-20.3,3.4c-34-151-34-281.6,0-432.6c6.8,0,13.7,1.7,20.3,3.4c30.6,5.2,78,13.7,123.8,32.3   c108.6,40.7,164.5,101.7,164.5,181.6C589.7,365,535.3,426,426.9,466.8z" fill="#53A7F5"></path>
	<rect x="6.2" y="132.5" width="156.1" height="42.4" fill="#53A7F5"></rect>
	<rect x="6.2" y="393.7" width="156.1" height="42.4" fill="#53A7F5"></rect>
	<rect x="6.2" y="220.9" width="139.2" height="42.4" fill="#53A7F5"></rect>
	<rect x="6.2" y="307.3" width="139.2" height="42.4" fill="#53A7F5"></rect>
</g>
</svg>