<?xml version='1.0' encoding='utf-8'?>
<!-- Generator: Adobe Illustrator 27.2.0, SVG Export Plug-In . SVG Version: 6.00 Build 0)  --><svg xmlns="http://www.w3.org/2000/svg" xmlns:xlink="http://www.w3.org/1999/xlink" version="1.1" id="Vrstva_1" x="0px" y="0px" viewBox="0 0 548.4 566.9" style="enable-background:new 0 0 548.4 566.9;" xml:space="preserve" width="386.94656" height="400.0">
<g>
	<path d="M242,484.4c-4.5,0-9,1.5-13.5,3L183.6,444l-21,21l43.4,43.4c-1.5,4.5-3,9-3,13.5c0,21,16.5,37.4,37.4,37.4   s37.4-16.5,37.4-37.4C277.9,500.9,263,484.4,242,484.4L242,484.4z"></path>
	<path d="M242,311c-116.6,0-210.9,94.3-210.9,210.9v15H91v-29.9H61.1c3-38.9,18-73.3,41.9-101.8l23.9,23.9l21-21l-22.5-23.9   c28.4-23.9,62.9-38.9,101.8-41.9v29.9h29.9v-29.9c38.9,3,73.3,18,101.8,41.9L335,408.1l21,21l23.9-23.9   c23.9,28.4,38.9,62.9,41.9,101.8h-29.9v29.9h59.9v-15C452.9,405.1,358.7,311,242,311L242,311z"></path>
	<polygon points="14.7,325.9 120.9,325.9 120.9,221.2 91,221.2 91,275 25.2,209.2 4.2,231.6 70.1,296 14.7,296  "></polygon>
	<path d="M544.2,70.2h-46.4l-28.4-44.9l-4.5-6l-6-1.5c-4.5-1.5-12-3-21-4.5c-49.4-7.5-100.3-7.5-149.5,0c-9,1.5-16.5,3-22.5,4.5   l-6,1.5L230,68.7h-46.4v29.9h25.4l-28.4,44.9v121.1h287.2V287c0,15,15,22.5,22.5,22.5h29.9c7.5,0,22.5-7.5,22.5-22.5V145   l-28.4-44.9h28.4V70.2L544.2,70.2L544.2,70.2z M277.9,47.7c4.5-1.5,9-1.5,15-3c46.4-7.5,94.3-7.5,139,0c6,1.5,10.5,1.5,15,3   l41.9,67.3H234.5L277.9,47.7L277.9,47.7z M212.1,218.2l21-23.9h40.4l21-26.9h-82.3v-13.5l6-9h290.2l6,9v13.5h-82.3l21,26.9h40.4   l21,23.9v16.5H212.1L212.1,218.2L212.1,218.2z"></path>
</g>
</svg>