<?xml version='1.0' encoding='utf-8'?>
<svg xmlns="http://www.w3.org/2000/svg" id="Vrstva_1" data-name="Vrstva 1" viewBox="0 0 535.37 566.93" width="377.7327" height="400.0">
  <defs>
    <style>
      .cls-1 {
        fill-rule: evenodd;
      }
    </style>
  </defs>
  <path class="cls-1" d="m272.26,58.21c123.55,0,220.62,100.36,220.62,225.16,0,91.33-54.2,169.92-132.05,205.25l-.07,40.67c99.16-37.45,169.66-133.46,169.66-245.92,0-144.64-113-262.7-258.15-262.7-106.08,0-191.18,63.58-229.76,153.56V56.89H4.96v188.18h187.62v-37.54h-122.67c28.93-87.29,106.12-149.32,202.35-149.32Zm-56.8,488.05c-27.12,0-50.6-8.6-68.79-28.11l15.87-29.77c14.88,14.22,31.09,22.16,51.59,22.16,26.79,0,43.32-15.54,43.32-42,0-21.5-11.91-37.7-34.73-37.7-17.2,0-31.42,8.6-40.02,22.16l-32.08-10.25,15.54-120.05h118.4v35.72h-86.98l-6.61,49.61c10.25-7.27,22.82-11.24,38.69-11.24,42.33,0,69.12,29.76,69.12,71.43,0,45.64-30.43,78.05-83.34,78.05ZM48.89,362.63v179.58h39.69v-221.25l-83.34,14.88v34.73l43.65-7.94Z"></path>
</svg>