<?xml version='1.0' encoding='utf-8'?>
<!-- Generator: Adobe Illustrator 27.2.0, SVG Export Plug-In . SVG Version: 6.00 Build 0)  --><svg xmlns="http://www.w3.org/2000/svg" xmlns:xlink="http://www.w3.org/1999/xlink" version="1.1" id="Vrstva_1" x="0px" y="0px" viewBox="0 0 571.4 566.9" style="enable-background:new 0 0 571.4 566.9;" xml:space="preserve" width="403.17517" height="400.0">
<style type="text/css">
	.st0{fill-rule:evenodd;clip-rule:evenodd;fill:#808181;}
	.st1{fill-rule:evenodd;clip-rule:evenodd;fill:#8BC8A2;}
</style>
<g>
	<path class="st0" d="M467.4,7.3l16.8,63.8h-29L443.1,7.3C443.1,7.3,467.4,7.3,467.4,7.3z M566.5,398.3l-32-124.9h-39.6l24.2,124.7   h47.3L566.5,398.3L566.5,398.3z M134.3,7.3l-12.2,63.8H93.3L110,7.3L134.3,7.3L134.3,7.3z M114.4,109.3H84.1L71.9,158h33.4   L114.4,109.3z M522.3,223.3l-29-114.2H463l22.8,114.2H522.3L522.3,223.3z"></path>
	<path class="st1" d="M243.9,483.5c-4.5,0-9.1,1.4-13.7,3.1l-43.9-44.1l-21.3,21.3l44.1,44.1c-1.4,4.5-3.1,9.1-3.1,13.7   c0,21.3,16.8,38.1,38.1,38.1s38.1-16.8,38.1-38.1C282.1,500.3,263.7,483.5,243.9,483.5L243.9,483.5z"></path>
	<path class="st1" d="M455.4,521.6c0-117.2-94.3-211.5-211.5-211.5S30.9,404.3,30.9,521.6v15.2h60.7v-30.4h-29   c3.1-38.1,18.3-74.4,42.5-101.9l24.2,24.2l21.3-21.3l-24.2-24.2c27.4-24.2,63.8-39.6,101.9-42.5v29h30.4v-29   c39.6,3.1,74.4,18.3,101.9,42.5l-24.2,24.2l21.3,21.3l24.2-24.2c24.2,27.4,39.6,63.8,42.5,101.9h-29v30.4h61   C455.4,532.2,455.4,527.8,455.4,521.6L455.4,521.6z"></path>
	<polygon class="st1" points="15.7,325.3 122.3,325.3 122.3,218.8 91.6,218.8 91.6,273.5 26.3,208.2 4.9,229.5 70.5,294.9    15.7,294.9  "></polygon>
	<path class="st1" d="M424.9,98.6h-34.8l-21.3-33.4l-3.1-4.5l-4.5-1.5c-3.1-1.4-9.1-1.4-16.8-3.1c-12.2-1.4-32-4.5-56.4-4.5   c-18.3,0-38.1,1.4-56.4,4.5c-7.7,1.4-12.2,1.4-16.8,3.1l-4.5,1.4l-22.8,36.7h-34.8v24.2h19.7l-19.7,32V263   c0,10.6,10.6,16.8,16.8,16.8h22.8c6.2,0,16.8-6.2,16.8-16.8v-16.8h159.8V263c0,10.6,10.6,16.8,16.8,16.8h22.8   c6.2,0,16.8-6.2,16.8-16.8V155l-19.7-32h19.7V98.6L424.9,98.6L424.9,98.6L424.9,98.6z M225.5,83.4c3.1,0,6.2-1.4,10.6-1.4   c12.2-1.4,30.4-4.5,51.8-4.5s41.1,1.4,51.8,4.5c4.5,0,7.7,1.4,10.6,1.4l30.4,48.7H195.2L225.5,83.4L225.5,83.4L225.5,83.4z    M243.9,177.7h-29l-10.6,16.8h-22.8v-39.6h79L243.9,177.7z M333.5,177.7l-16.8-22.8h79v39.3H373l-10.5-16.6L333.5,177.7   L333.5,177.7L333.5,177.7z"></path>
</g>
</svg>