<?xml version='1.0' encoding='utf-8'?>
<!-- Generator: Adobe Illustrator 27.2.0, SVG Export Plug-In . SVG Version: 6.00 Build 0)  --><svg xmlns="http://www.w3.org/2000/svg" xmlns:xlink="http://www.w3.org/1999/xlink" version="1.1" id="Vrstva_1" x="0px" y="0px" viewBox="0 0 558.4 566.9" style="enable-background:new 0 0 558.4 566.9;" xml:space="preserve" width="394.00247" height="400.0">
<style type="text/css">
	.st0{fill:#010101;}
</style>
<rect x="176.8" y="511.9" class="st0" width="28.6" height="32.2"></rect>
<g>
	<polygon class="st0" points="147.1,96.7 137.6,96.7 140,130.3 150.3,140.6  "></polygon>
	<polygon class="st0" points="152.5,170.8 142.2,160.5 158.8,389.8 167.7,380.9  "></polygon>
	<path class="st0" d="M308.2,510.7c-1.1-3.1-2-6.2-2.7-9.5l0,0h9.8c-0.8-3.5-1.3-7-1.3-10.7c0-27,21.9-48.9,48.9-48.9   c8.9,0,17.1,2.6,24.3,6.7l0.5-10.6l0,0l0,0c-7.5-3.6-16-5.6-24.8-5.6c-32.2,0-58.5,26.2-58.5,58.5c0,3.7,0.4,7.2,1,10.7h-129   l-6.8-94.1l-8.9,8.9l6.9,94.8L308.2,510.7L308.2,510.7L308.2,510.7z"></path>
	<path class="st0" d="M402.1,146.5l10.1-10.1l0.5-10h9.5l9.5-9.6h-18.6l1-20.3h-9.6L402.1,146.5L402.1,146.5L402.1,146.5z    M409.5,117v9.6l0,0V117L409.5,117z"></path>
	<path class="st0" d="M389.2,407.5l-1.5,30.1l0,0l0,0l0,0c3.3,1.5,6.4,3.4,9.3,5.5l0,0l1.3-26.4L389.2,407.5z"></path>
	<path class="st0" d="M147.1,96.7h301.7V78.8h-3.1c-2.6,4-6.7,7.1-11.5,8.3c4.8-1.3,8.9-4.3,11.5-8.3h-11.2h0h0l4.7-0.9   c-0.2-1-2.8-12.7-22.6-24.4c-2.5,2-4.5,4.6-5.7,7.6c12.7,7.3,17,14.3,18.3,17.2c-1.3-2.9-5.7-9.9-18.3-17.2   c-0.9,2.2-1.5,4.7-1.5,7.3c0,3.8,1.2,7.4,3.1,10.4c3.3,5,8.8,8.5,15.2,8.9c-6.4-0.4-12-3.9-15.2-8.9H197.1V42.7l-28.6,10.1v-2.9   v28.9h-35.2h-5.4l0,0H110v17.9L147.1,96.7L147.1,96.7z"></path>
	<path class="st0" d="M243.6,53.7h79.9V40.2c-3.1-0.2-6.3-0.4-9.5-0.6v4.6h-60.9v-4.7c-3.3,0.1-6.4,0.3-9.5,0.5V53.7L243.6,53.7z"></path>
	<path class="st0" d="M287.8,23.9h60.9V30c3.3,0.2,6.5,0.4,9.5,0.6V14.3h-79.9v16.1c3.1-0.2,6.3-0.4,9.5-0.5V23.9L287.8,23.9z"></path>
	<path class="st0" d="M197.1,27.5h-28.6v15.2c7.9-2.6,17.4-5,28.6-7V27.5L197.1,27.5z"></path>
	<path class="st0" d="M133.3,78.8h4.1c0-0.2-0.2-5.1,5.3-11.1c4-4.3,11.7-9.9,25.8-14.9V42.7c-17.7,5.9-27.9,12.9-33.5,19.4   c-6.8,7.8-7.1,14.5-7,16.7H133.3z"></path>
	<path class="st0" d="M416.6,53.5c-16.4-9.7-44.6-19.4-93.1-22.9c-3.1-0.2-6.3-0.4-9.5-0.6v9.5c3.3,0.2,6.5,0.4,9.5,0.6l0,0   c46.2,3.3,72.5,12.3,87.4,20.9C412.1,58.1,414.1,55.5,416.6,53.5L416.6,53.5z"></path>
	<path class="st0" d="M168.4,52.8c7.5-2.7,16.9-5.3,28.6-7.5c12.6-2.3,28-4.2,46.5-5.3l0,0c3.1-0.2,6.3-0.4,9.5-0.5v-9.6   c-3.3,0.1-6.4,0.3-9.5,0.5c-18.1,1.1-33.6,2.9-46.5,5.2c-11.3,2-20.7,4.4-28.6,7l0,0L168.4,52.8L168.4,52.8L168.4,52.8z"></path>
	<polygon class="st0" points="168.4,52.8 168.4,52.8 168.4,52.8  "></polygon>
	<path class="st0" d="M439.2,77.9L439.2,77.9l-4.7,0.9h11.2l0,0l0,0c2-3,3.1-6.6,3.1-10.4c0-10.7-8.8-19.4-19.7-19.4   c-4.8,0-9.1,1.7-12.5,4.5l0,0C436.4,65.2,439,76.9,439.2,77.9C439.2,77.9,439.2,77.9,439.2,77.9z"></path>
	<path class="st0" d="M397,443l-0.6,11.9c9.4,8.9,15.4,21.5,15.4,35.4c0,27-21.9,48.9-48.9,48.9c-19.7,0-36.6-11.8-44.4-28.6l0,0   c-1.4-3-2.5-6.2-3.3-9.5l0,0h-9.8c0.6,3.3,1.5,6.5,2.7,9.5l0,0l0,0l0,0c8.3,22.2,29.7,38.2,54.8,38.2c32.2,0,58.5-26.2,58.5-58.5   C421.4,470.9,411.8,453.7,397,443L397,443L397,443L397,443L397,443z"></path>
	<path class="st0" d="M396.5,455L396.5,455l0.6-11.9c-2.9-2.1-6-3.9-9.3-5.5l-0.5,10.6C390.6,450.2,393.7,452.4,396.5,455L396.5,455   z"></path>
	<path class="st0" d="M362.9,517.3c6.7,0,12.7-2.5,17.4-6.6h-34.8C350.2,514.7,356.2,517.3,362.9,517.3L362.9,517.3z"></path>
	<path class="st0" d="M384.6,501.2l1.2-24.5c-4.7-7.8-13.2-13-22.9-13c-14.8,0-26.9,12-26.9,26.8c0,3.8,0.8,7.5,2.3,10.7l0,0   c1.6,3.7,4.1,6.9,7.2,9.5h34.8c5.7-4.9,9.4-12.1,9.4-20.3c0-5.1-1.5-9.8-3.9-13.8L384.6,501.2L384.6,501.2L384.6,501.2z"></path>
	<polygon class="st0" points="444.1,164.7 412,164.7 400.6,176 390.6,380.8 399.7,389.9 410.3,174.2 409.4,174.2 409.4,174.2    410.3,174.2 453.6,174.2 453.6,123.1 444.1,132.6  "></polygon>
	<polygon class="st0" points="243.6,213.6 243.6,189.7 336.7,189.7 336.7,212 346.2,202.4 346.2,180.2 234.1,180.2 234.1,223.2    325.5,223.2 335,213.6  "></polygon>
	
		<rect x="-102.2" y="276.7" transform="matrix(0.7071 -0.7071 0.7071 0.7071 -118.6693 280.4501)" class="st0" width="762.7" height="13.5"></rect>
	
		<rect x="272.4" y="-97.9" transform="matrix(0.7071 -0.7071 0.7071 0.7071 -118.6593 280.4401)" class="st0" width="13.5" height="762.7"></rect>
</g>
</svg>