<?xml version='1.0' encoding='utf-8'?>
<!-- Generator: Adobe Illustrator 27.2.0, SVG Export Plug-In . SVG Version: 6.00 Build 0)  --><svg xmlns="http://www.w3.org/2000/svg" xmlns:xlink="http://www.w3.org/1999/xlink" version="1.1" id="Vrstva_1" x="0px" y="0px" viewBox="0 0 1142.6 566.9" style="enable-background:new 0 0 1142.6 566.9;" xml:space="preserve" width="806.20917" height="400.0">
<style type="text/css">
	.st0{fill-rule:evenodd;clip-rule:evenodd;}
</style>
<g>
	<g>
		<polygon class="st0" points="271.2,516.4 271.2,50.5 5,283.5   "></polygon>
		<polygon class="st0" points="544.7,516.4 544.7,50.5 278.5,283.5   "></polygon>
	</g>
	<g>
		<path d="M825.1,131v341h-34.8v-298l-93.1,48l-15.6-24.3l121.8-66.8L825.1,131L825.1,131z"></path>
		<path d="M833.1,480.1h-50.8V187.3l-87.9,45.3l-24.1-37.6l131.1-71.9h31.8V480.1z M798.2,464.1h18.8V139h-11.7l-112.5,61.7l7,10.9    l98.2-50.7L798.2,464.1L798.2,464.1z"></path>
	</g>
	<g>
		<path d="M1129.6,367.6c0,59-46,110.3-124.1,110.3c-46.6,0-81.9-15-109.1-47.4l21.4-24.8c21.8,25.7,48.9,40.2,86.8,40.2    c49.8,0,88.2-30.4,88.2-78.1s-35.9-80.4-90.6-80.4c-26.7,0-55.3,7.8-78.5,30.6l-17.4-20.8L927.9,131h182.7V163H956l-15.4,111.4    c17.4-12.1,38.4-19,64.9-19C1079.6,255.4,1129.6,303.1,1129.6,367.6L1129.6,367.6L1129.6,367.6z"></path>
		<path d="M1005.5,485.9c-49.2,0-86.8-16.4-115.2-50.2l-4.4-5.2l32-37l6,7.1c21.7,25.5,47.3,37.4,80.7,37.4    c47.2,0,80.2-28.8,80.2-70.1c0-43.3-33.2-72.4-82.6-72.4c-29.3,0-53.8,9.5-72.9,28.3l-6.2,6l-25.2-30.1L920.9,123h197.8V171H963    l-12.2,88.2c16.2-7.9,34.2-11.7,54.8-11.7c37.5,0,71.4,12.1,95.2,34c18.2,16.7,30.1,38.5,34.7,62.9l1.8,11.2l0.4,12    c0,32-12.5,61.5-35.2,83.1C1078.1,473.7,1044.6,485.9,1005.5,485.9L1005.5,485.9z M907,430.5c24.8,26.9,56.3,39.4,98.5,39.4    c79.4,0,115.8-52.6,116.1-101.7v-0.6c0-61.3-47.7-104.1-116.1-104.1c-23.6,0-43.4,5.7-60.4,17.5l-15,10.4L949,155h153.6V139H934.9    l-20.3,155.8l9.8,11.7c21.1-17.7,47.8-27,77.8-27c58.1,0,98.6,36.3,98.6,88.4c0,25-10,47.4-28.2,63c-17.4,14.9-41.5,23.1-68,23.1    c-34.7,0-63.2-11.8-86.6-36.1L907,430.5L907,430.5z"></path>
	</g>
</g>
</svg>