<?xml version='1.0' encoding='utf-8'?>
<!-- Generator: Adobe Illustrator 27.2.0, SVG Export Plug-In . SVG Version: 6.00 Build 0)  --><svg xmlns="http://www.w3.org/2000/svg" xmlns:xlink="http://www.w3.org/1999/xlink" version="1.1" id="Vrstva_1" x="0px" y="0px" viewBox="0 0 484.4 566.9" style="enable-background:new 0 0 484.4 566.9;" xml:space="preserve" width="341.78867" height="400.0">
<path d="M266.9,546.1C121.3,546.1,4.6,429.4,4.6,284.2S121.5,20.8,266.9,20.8c84.1,0,162.6,39.8,212.5,108.3  c4.3,7.1,2.8,15.8-4.3,21.3c-7.1,4.3-15.8,2.8-20.1-2.8c-44.2-61.2-114.2-96.8-189.8-96.8C137,50.7,31.3,156.1,31.3,284.2  s106.9,232.1,235.4,232.1c74.1,0,145.6-35.5,188.2-95.4c5.7-7.1,14.2-8.5,21.3-2.8c5.7,4.3,7.1,14.2,2.8,20.1  C430.7,506.3,350.9,546.2,266.9,546.1L266.9,546.1z M218.3,171.7c-2.8-1.5-5.7-2.8-7.1-2.8c-5.7,0-10,4.3-10,10v208  c0,5.7,4.3,10,10,10c1.5,0,4.3,0,5.7-1.5s178.2-102.5,179.7-103.9c1.5-1.4,2.8-4.3,2.8-7.1s-1.5-4.3-2.8-7.1  C395.1,275.8,222.6,173.2,218.3,171.7L218.3,171.7z"></path>
</svg>