<?xml version='1.0' encoding='utf-8'?>
<!-- Generator: Adobe Illustrator 27.2.0, SVG Export Plug-In . SVG Version: 6.00 Build 0)  --><svg xmlns="http://www.w3.org/2000/svg" xmlns:xlink="http://www.w3.org/1999/xlink" version="1.1" id="Vrstva_1" x="0px" y="0px" viewBox="0 0 535.4 566.9" style="enable-background:new 0 0 535.4 566.9;" xml:space="preserve" width="377.77386" height="400.0">
<g>
	<path d="M502.9,268.5l-27,7.1c-7.1-22.8-27-31.4-34.1-31.4c-5.7,0-2.8,24.3-4.3,41.3c0,8.6-2.8,14.3-7.1,14.3   c-5.7,0-7.1-4.3-8.6-10c-1.4-8.6,0-19.8-1.4-27c-2.8-14.3-8.6-12.7-37.1-30c-27-17.1-52.7-10-58.5-1.4c-7.1,8.6,7.1,18.6,28.5,24.3   c22.8,7.1,22.8,4.3,17.1,19.8c-5.7,15.7-22.8,25.7-31.4,25.7s-40-44.2-50-50c-8.6-5.7-8.6,14.3-7.1,25.7   c1.4,7.1,21.4,24.3,38.4,35.7c11.4,8.6,21.4,15.7,21.4,17.1c0,2.9-8.6,12.7-15.7,18.5c-5.7,2.9-8.6,2.9-10,4.3   c-2.9,1.4-4.3,2.9-8.6,5.7c-7.1,7.1-1.4,5.7,7.1,14.3l1.4,1.4c5.7,7.1,5.7,14.3,0,22.8c-2.9,2.9-5.7,7.1-8.6,8.6   c-12.7,8.6-22.8,59.8-48.4,59.8s-52.7-48.4-54.2-65.6c-1.4-17.1-8.6-24.3-12.7-32.8c-7.1-8.6-1.4-34.1-2.9-41.2   c-50,5.7-52.7-7.1-52.7-12.7c0-7.1-10-12.7-15.7-31.4c-5.9-18.5-2.9-31.4,4.3-41.3c7.1-8.6,35.7-2.9,45.5-4.3   c8.6-1.4,14.3-18.6,25.7-18.6s15.7,15.7,24.3,24.3c8.4,8.4,14.3-4.3,25.7-7.1c10-2.9,22.8,1.4,32.8-10s10-8.6,25.7-8.6   c15.7-1.4,18.5-8.6,19.8-15.7c1.4-7.1-28.5-19.8-40-12.7c-8.6,8.6-24.3,27-42.8,27s-19.8-12.7-31.4-19.8   c-11.4-7.1-18.5,5.7-28.5,14.3c-11.4,10-22.8,2.9-22.8-15.7s27-19.8,40-25.7c11.4-7.1,34.1-8.6,57.1-8.6s27-14.3,22.8-19.8   c-4.3-5.7-25.7,1.4-45.5,0c-10-8.6,10-27,25.7-31.4c15.7-2.8,28.5,11.4,42.8,12.7c14.3,1.3,28.5-22.8,28.5-30   c0-8.6-47.1-18.5-68.5-18.5s-35.7,21.4-75.6,42.8c-40,24.3-55.5,19.8-54.2,4.3c2.9-17,55.7-47,77.1-55.4c5.7-2.8,10-5.7,14.3-8.6   C115,70.4,31,163,31,277C31,401.1,130.8,501,255,501c8.6,0,17.1,0,25.7-1.4v25.7c-8.6,1.4-17.1,1.4-25.7,1.4   C116.7,526.7,5.5,415.5,5.5,277.2S116.5,20.4,253.4,20.4S501.5,131.7,502.9,268.5L502.9,268.5z"></path>
	<path d="M529.9,315.6v171.1c0,8.6-4.3,18.5-10,25.7c-5.7,5.7-12.7,8.6-22.8,8.6c-18.5,0-32.8-14.3-32.8-32.8s14.3-32.8,32.8-32.8   c2.8,0,4.3,0,7.1,1.4v-89.8l-19.8,4.3l-32.8,5.7l-52.7,10v127c0,8.6-2.8,14.3-7.1,19.8c-7.1,8.6-15.7,12.7-25.7,12.7   c-18.5,0-32.8-14.3-32.8-32.8v-7.1c2.9-14.3,17.1-25.7,32.8-25.7c2.8,0,4.3,0,7.1,1.4v-134l96.9-19.8l28.5-5.7L529.9,315.6   L529.9,315.6z"></path>
</g>
</svg>