<?xml version='1.0' encoding='utf-8'?>
<svg xmlns="http://www.w3.org/2000/svg" id="Vrstva_1" data-name="Vrstva 1" viewBox="0 0 577.49 566.93" width="407.45065" height="400.0">
  <defs>
    <style>
      .cls-1 {
        fill-rule: evenodd;
      }
    </style>
  </defs>
  <path class="cls-1" d="m27.56,356.91s-20,29.9-20,59.9v129.7h109.9l40-29.9,114.9,24.9h299.8c0-59.8-35-104.7-89.9-99.7l-84.9-5-129-94.8c-10-10-25-15-40-10-13,3.8-25.8,8.1-38.4,12.4-53.2,18-104.8,35.5-162.4,12.5h0Z"></path>
  <path class="cls-1" d="m331.36,89.91c-1.5,15.6.8,38.1,12.5,70.1l.1.2h0c7.6,22.1,10.7,43,7.4,62.1-3.4,19.4-13.2,35.9-29.1,48.7l-18.7-23.2c10.5-8.5,16.3-18.6,18.4-30.6,2.1-12.4.5-28-6.1-47.1-12.7-34.8-16.2-61.9-14.2-83l29.7,2.8h0Z"></path>
  <path d="m289.46,91.11l26.5-70.7,27.2,70.7h-53.7Z"></path>
  <path class="cls-1" d="m407.26,89.91c-1.5,15.6.8,38.1,12.5,70.1l.1.2h0c7.6,22.1,10.7,43,7.4,62.1-3.4,19.4-13.2,35.9-29.1,48.7l-18.7-23.2c10.5-8.5,16.3-18.6,18.4-30.6,2.1-12.4.5-28-6.1-47.1-12.7-34.8-16.2-61.9-14.2-83l29.7,2.8h0Z"></path>
  <path d="m365.26,91.11l26.5-70.7,27.2,70.6-53.7.1h0Z"></path>
  <path class="cls-1" d="m482.96,89.91c-1.5,15.6.8,38.1,12.5,70.1l.1.2h0c7.6,22.1,10.7,43,7.4,62.1-3.4,19.4-13.2,35.9-29.1,48.7l-18.7-23.2c10.5-8.5,16.3-18.6,18.4-30.6,2.1-12.4.5-28-6.1-47.1-12.7-34.8-16.2-61.9-14.2-83l29.7,2.8h0Z"></path>
  <path d="m440.96,91.11l26.5-70.7,27.2,70.7h-53.7Z"></path>
</svg>