<?xml version='1.0' encoding='utf-8'?>
<!-- Generator: Adobe Illustrator 27.2.0, SVG Export Plug-In . SVG Version: 6.00 Build 0)  --><svg xmlns="http://www.w3.org/2000/svg" xmlns:xlink="http://www.w3.org/1999/xlink" version="1.1" id="Vrstva_1" x="0px" y="0px" viewBox="0 0 711.1 566.9" style="enable-background:new 0 0 711.1 566.9;" xml:space="preserve" width="501.7463" height="400.0">
<style type="text/css">
	.st0{fill-rule:evenodd;clip-rule:evenodd;}
</style>
<g>
	<path d="M128.7,8.2L108,91h37.4l16.6-82.8H128.7z" fill="#FFCE63"></path>
	<path d="M2.7,511.5l40.2-160.7h50.4L61.1,511.5H2.7z" fill="#FFCE63"></path>
	<path d="M59.2,285.8l36.6-146.1h39.8l-29.3,146.1H59.2z" fill="#FFCE63"></path>
	<path d="M641.5,86.2v32.7l8.7,204.2h43.4l9.2-204.2V86.2C702.8,86.2,641.5,86.2,641.5,86.2z" fill="#FFCE63"></path>
	<path d="M653.8,430.8c5.8,3.1,12.1,4.6,18.9,4.6s12.4-1.5,17.9-4.6c5.4-3.4,9.7-7.8,12.8-13.3c3.4-5.8,5.1-12.1,5.1-18.9   s-1.7-12.4-5.1-17.9c-3.1-5.4-7.3-9.7-12.8-12.8c-5.4-3.4-11.4-5.1-17.9-5.1c-6.8,0-13.1,1.7-18.9,5.1c-5.5,3.1-9.9,7.3-13.3,12.8   c-3.1,5.5-4.6,11.4-4.6,17.9c0,6.8,1.5,13.1,4.6,18.9C643.9,422.9,648.3,427.4,653.8,430.8L653.8,430.8z" fill="#FFCE63"></path>
	<path class="st0" d="M379.2,226.6c-49.3,0-87.2,5.3-102.5,7.8l-10.5,1.7l-71.6,119.1v155.6c0,26.5,21.5,48,48,48h6.1   c25,0,45.5-19.1,47.8-43.5H462c2.3,24.4,22.8,43.5,47.8,43.5h6.2c26.5,0,48-21.5,48-48l0-155.6l-71.8-119.1l-10.5-1.7   C466.4,231.8,428.5,226.6,379.2,226.6L379.2,226.6z M273.3,313.8l21.3-35.5c17.4-2.4,47.5-5.6,84.6-5.6s67.2,3.2,84.6,5.6   l21.4,35.5H273.3L273.3,313.8z M247.1,359.7h92.4l-13.2,26.4h-52.8v39.6h-26.4L247.1,359.7L247.1,359.7z M418.8,359.7h92.4v66   h-26.4v-39.6H432L418.8,359.7L418.8,359.7z" fill="#FFCE63"></path>
</g>
</svg>