<?xml version='1.0' encoding='utf-8'?>
<!-- Generator: Adobe Illustrator 27.2.0, SVG Export Plug-In . SVG Version: 6.00 Build 0)  --><svg xmlns="http://www.w3.org/2000/svg" xmlns:xlink="http://www.w3.org/1999/xlink" version="1.1" id="Vrstva_1" x="0px" y="0px" viewBox="0 0 564.4 566.9" style="enable-background:new 0 0 564.4 566.9;" xml:space="preserve" width="398.23602" height="400.0">
<path d="M263.4,48.9c-19.6,0-39.1,9-52.6,24.1L30.4,265.4C13.8,282,4.8,303,4.8,327.1V518h554.8v-469H263.4L263.4,48.9z   M385.2,236.8l43.6,43.6l24.1-24.1l-84.2-84.2l-84.2,84.2l24.1,24.1l43.6-43.6v73.7H132.7l138.2-150.3c3-3,6-4.5,10.5-4.5l245-1.5  v156.3H386.7v-73.7L385.2,236.8L385.2,236.8z M234.8,95.6c7.5-9,18-13.5,28.6-13.5h263.1v37.6l-245,1.5c-13.5,0-24.1,4.5-34.6,13.5  L87.5,309H42.4c3-7.5,6-15,13.5-21.1L234.8,95.6L234.8,95.6z M37.9,483.4V343.6H525v139.8H37.9z" fill="#FFCE63"></path>
</svg>