<?xml version='1.0' encoding='utf-8'?>
<!-- Generator: Adobe Illustrator 27.2.0, SVG Export Plug-In . SVG Version: 6.00 Build 0)  --><svg xmlns="http://www.w3.org/2000/svg" xmlns:xlink="http://www.w3.org/1999/xlink" version="1.1" id="Vrstva_1" x="0px" y="0px" viewBox="0 0 719.4 566.9" style="enable-background:new 0 0 719.4 566.9;" xml:space="preserve" width="507.60272" height="400.0">
<g>
	<path d="M714.4,281.9c0,30.8-3.9,57.4-11.8,79.8c-7.8,22.3-18.6,40.7-32.3,55.1c-13.7,14.4-29.8,25-48.2,32   c-18.4,6.9-38.2,10.4-59.2,10.4c-48.8,0-85.5-14.9-110.1-44.5c-24.6-29.7-36.9-72.9-36.9-129.5c0-30.8,3.9-57.4,11.8-79.8   c7.9-22.3,18.6-40.7,32.3-55.1c13.7-14.4,29.8-25,48.2-31.9c18.4-6.9,38.2-10.4,59.2-10.4c48.8,0,85.5,14.8,110.1,44.4   C702.1,181.9,714.4,225.1,714.4,281.9L714.4,281.9L714.4,281.9L714.4,281.9z M640.6,285c0-40.2-5.9-70.1-17.6-89.9   c-11.7-19.7-31-29.6-57.9-29.6c-13.4,0-24.9,2.6-34.3,7.7c-9.5,5.1-17.3,12.6-23.4,22.5c-6.2,9.9-10.6,22-13.5,36.5   c-2.8,14.5-4.3,31.1-4.3,49.8c0,40.2,5.9,70.1,17.7,89.9s31.1,29.6,57.7,29.6c13.4,0,24.9-2.6,34.5-7.7   c9.5-5.1,17.3-12.6,23.4-22.5c6-9.9,10.5-22,13.3-36.5C639.2,320.3,640.6,303.7,640.6,285L640.6,285z"></path>
	<path d="M303.5,281.9c0,30.8-3.9,57.4-11.8,79.8c-7.9,22.3-18.6,40.7-32.3,55.1c-13.7,14.4-29.8,25-48.2,32   c-18.4,6.9-38.2,10.4-59.2,10.4c-48.8,0-85.5-14.9-110.1-44.5C17.3,384.8,5,341.7,5,285c0-30.8,3.9-57.4,11.8-79.8   c7.8-22.3,18.6-40.7,32.3-55.1c13.7-14.4,29.8-25,48.2-31.9c18.4-6.9,38.2-10.4,59.2-10.4c48.8,0,85.5,14.8,110.1,44.4   C291.2,181.9,303.5,225.1,303.5,281.9L303.5,281.9L303.5,281.9L303.5,281.9z M229.7,285c0-40.2-5.9-70.1-17.6-89.9   c-11.7-19.7-31-29.6-57.9-29.6c-13.4,0-24.9,2.6-34.3,7.7c-9.5,5.1-17.3,12.6-23.4,22.5c-6.1,9.9-10.6,22-13.5,36.5   s-4.3,31.1-4.3,49.8c0,40.2,5.9,70.1,17.7,89.9c11.8,19.8,31.1,29.6,57.7,29.6c13.4,0,24.9-2.6,34.5-7.7   c9.5-5.1,17.3-12.6,23.4-22.5c6-9.9,10.5-22,13.3-36.5C228.3,320.3,229.7,303.7,229.7,285L229.7,285L229.7,285z"></path>
	<path d="M350,374.9c6.4,0,12.4,1.1,17.9,3.3c5.5,2.2,10.3,5.1,14.4,8.8c4,3.7,7.2,8.1,9.5,13.1c2.3,5,3.4,10.5,3.4,16.2   s-1.1,10.9-3.4,15.9c-2.3,5-5.5,9.3-9.5,13c-4.1,3.7-8.8,6.6-14.4,8.8s-11.5,3.3-17.9,3.3s-11.9-1.1-17.2-3.3   c-5.4-2.2-10-5.1-14-8.8c-4-3.7-7.1-8.1-9.4-13c-2.3-5-3.4-10.3-3.4-15.9s1.1-11.1,3.4-16.2c2.3-5,5.4-9.4,9.4-13.1   c4-3.7,8.6-6.6,14-8.8C338.2,375.9,343.9,374.9,350,374.9z"></path>
</g>
</svg>