<?xml version='1.0' encoding='utf-8'?>
<svg xmlns="http://www.w3.org/2000/svg" id="Vrstva_1" data-name="Vrstva 1" viewBox="0 0 637.47 548.54" width="464.8485" height="400.0">
  <path d="m457.23,11.79l1.74,8.95,100.1,509.97,1.19,6.05h72.11l-1.76-8.95L530.53,17.84l-1.19-6.05h-72.11Zm-120.8,340.56v184.41h70.76v-184.41h-70.76ZM89.54,11.79l-1.42,5.68L11.59,322.75l-5.13,20.48-1.38,5.51,4.92,2.83,18.31,10.49,119.55,68.52-6.77,98.17-.56,8.01h70.94l.48-6.99,8.03-116.43,1.2-17.42.32-4.69-4.07-2.34-15.16-8.69-115.52-66.24L160.15,21.1l2.33-9.32h-72.94Zm101.11,133.53l-28.96,144.24-1.47,7.35,7.35,1.48,54.66,10.97,7.35,1.48,1.48-7.35,28.53-142.11,1.42-7.08-7.02-1.7-54.25-13.1-7.57-1.83-1.54,7.65Zm145.79,7.34v157.64h70.76v-157.64h-70.76ZM217.45,11.79l-1.2,6.02-14.37,71.57-1.42,7.07,7.02,1.7,54.24,13.1,7.59,1.83,1.52-7.65,17.01-84.66,1.8-8.98h-72.18Zm118.98,0v98.8h70.76V11.79h-70.76Z" fill="#51F093"></path>
</svg>