<?xml version='1.0' encoding='utf-8'?>
<svg xmlns="http://www.w3.org/2000/svg" id="Vrstva_1" data-name="Vrstva 1" viewBox="0 0 494.78 566.93" width="349.09424" height="400.0">
  <path d="m338.12,400.06h27.41v152.93h-27.41v-152.93Zm25.1,65.64h58.04v24.18h-58.04v-24.18Zm-10.36-65.64h75.77v24.87h-75.77v-24.87Z" fill="#FFCE63"></path>
  <path d="m227.91,400.06h27.41v152.93h-27.41v-152.93Zm25.1,65.64h58.04v24.18h-58.04v-24.18Zm-10.36-65.64h75.77v24.87h-75.77v-24.87Z" fill="#FFCE63"></path>
  <path d="m136.3,555.82c-14.43,0-26.95-3.38-37.54-10.13-10.59-6.76-18.73-16.12-24.41-28.1s-8.52-25.64-8.52-41,2.84-29.02,8.52-41,13.82-21.34,24.41-28.1c10.59-6.76,23.11-10.13,37.54-10.13s26.95,3.38,37.54,10.13c10.75,6.76,18.89,16.12,24.41,28.1,5.68,11.98,8.52,25.64,8.52,41s-2.84,29.02-8.52,41c-5.53,11.98-13.59,21.34-24.18,28.1-10.59,6.76-23.18,10.13-37.77,10.13Zm0-25.79c9.06,0,16.66-2.15,22.8-6.45,6.3-4.45,10.98-10.67,14.05-18.66,3.22-7.98,4.84-17.43,4.84-28.33s-1.61-20.34-4.84-28.33c-3.07-7.98-7.75-14.13-14.05-18.42-6.14-4.45-13.74-6.68-22.8-6.68s-16.51,2.23-22.8,6.68c-6.14,4.3-10.82,10.44-14.05,18.42-3.07,7.98-4.61,17.43-4.61,28.33s1.54,20.34,4.61,28.33c3.22,7.98,7.91,14.2,14.05,18.66,6.3,4.3,13.9,6.45,22.8,6.45Z" fill="#FFCE63"></path>
  <path d="m77.18,17.1C33.62,60.66,6.68,120.83,6.68,187.3s26.94,126.65,70.5,170.21l24.32-24.32c-37.34-37.34-60.43-88.92-60.43-145.89s23.09-108.55,60.43-145.89l-24.32-24.31Z" fill="#FFCE63"></path>
  <path d="m393.28,41.41l24.31-24.31c43.56,43.56,70.5,103.74,70.5,170.21s-26.94,126.65-70.5,170.21l-24.31-24.32c37.34-37.34,60.43-88.92,60.43-145.89s-23.09-108.55-60.43-145.89Z" fill="#FFCE63"></path>
  <path d="m409.7,244.15c6.23-17.79,9.62-36.92,9.62-56.84,0-24.45-5.1-47.71-14.3-68.77h-34.68c-14.62,0-28.99,4.08-41.56,11.83l-.23.14-48.17,27.09-2.21.41c-16.48,3.06-29.59,5.5-39.99,7.95-10.36,2.44-19.01,5.11-26.25,8.97-6.3,3.35-10.61,7.24-13.73,12.21-3.05,4.85-5.45,11.5-6.76,21.2l-.12.91v20.56l.02.37v.03s0,.05,0,.05v.1s.02.2.02.2l.04.45c.03.32.09.68.16,1.08.14.78.39,1.8.84,2.94.51,1.3,1.16,2.45,1.86,3.42l4.06,5.71h12.87c1.04-27.57,23.72-49.61,51.54-49.61s50.5,22.03,51.54,49.61h95.43Z" fill="#FFCE63"></path>
  <path d="m262.73,273.27c14.99,0,27.15-12.15,27.15-27.15s-12.16-27.15-27.15-27.15-27.15,12.15-27.15,27.15,12.16,27.15,27.15,27.15Z" fill="#FFCE63"></path>
  <path d="m114.78,150.64h-.07s-29.22-21.34-29.22-21.34c-6.49,18.12-10.03,37.65-10.03,58.01,0,94.96,76.98,171.93,171.93,171.93s171.93-76.98,171.93-171.93c0-84.88-61.51-155.4-142.39-169.4l1.96,35.48c60.78,14.25,106.04,68.8,106.04,133.92,0,75.97-61.58,137.55-137.55,137.55s-137.55-61.58-137.55-137.55c0-12.7,1.72-24.99,4.94-36.66Z" fill="#FFCE63"></path>
  <path d="m196.55,158.06l10.9-52.7,63.06,3.77.94-5.7-50.01-21.88,28.12-39.7-2.76-3.1-40.63,12.4-6.85-39.31-3.7-.73-15.01,33.49-54.65-12.69-4.17,4.96,39.08,39.91-50.09,31.53,1.42,5.79,57.96-3.98,19.89,48.71,6.5-.79Z" fill="#FFCE63"></path>
</svg>