<?xml version='1.0' encoding='utf-8'?>
<!-- Generator: Adobe Illustrator 27.2.0, SVG Export Plug-In . SVG Version: 6.00 Build 0)  --><svg xmlns="http://www.w3.org/2000/svg" xmlns:xlink="http://www.w3.org/1999/xlink" version="1.1" id="Vrstva_1" x="0px" y="0px" viewBox="0 0 380.4 566.9" style="enable-background:new 0 0 380.4 566.9;" xml:space="preserve" width="268.4071" height="400.0">
<path d="M5.9,19.9V547h305.7l62.9-64.2V19.9H5.9z M283.1,276.9c0,10-5.7,19.9-12.7,25.8c-5.7,4.3-12.7,7.1-19.9,7.1  c-18.6,0-32.9-14.3-32.9-32.9s14.3-32.9,32.9-32.9h7.1v-90l-105.9,21.5v127.2c0,8.6-2.9,14.3-7.1,19.9c-5.7,8.6-15.7,12.7-25.8,12.7  c-18.6,0-32.9-14.3-32.9-32.9s14.3-32.9,32.9-32.9h7.1V128.3L284.6,97v180.1h-1.4L283.1,276.9L283.1,276.9z"></path>
</svg>