<?xml version='1.0' encoding='utf-8'?>
<svg xmlns="http://www.w3.org/2000/svg" id="Vrstva_1" data-name="Vrstva 1" viewBox="0 0 485.83 566.93" width="342.77954" height="400.0">
  <path d="m266.34,546.22C121.82,546.22,3.58,427.98,3.58,283.46S121.82,20.71,266.34,20.71c84.46,0,163.28,41.29,212.08,108.86,3.75,7.51,3.75,15.01-3.75,20.64-5.63,3.75-15.01,3.75-20.65-3.75-41.29-60.06-112.61-95.72-187.68-95.72-127.62,0-232.73,103.22-232.73,232.73s105.1,232.73,232.73,232.73c75.07,0,144.52-35.66,189.56-95.72,5.63-5.63,15.01-7.51,20.64-1.88,5.63,5.63,7.51,13.14,3.75,20.64-50.67,65.69-129.5,106.98-213.96,106.98Zm-46.92-375.36c-1.88-1.88-5.63-3.75-7.51-3.75-5.63,0-9.38,3.75-9.38,9.38v208.33c0,5.63,3.75,9.38,9.38,9.38,1.88,0,3.75,0,5.63-1.88,1.88-1.88,178.3-101.35,180.17-103.23,1.88-1.88,3.75-3.75,3.75-7.51,0-1.88-1.88-5.63-1.88-5.63-3.75-1.88-178.3-103.23-180.17-105.1Z"></path>
</svg>