<?xml version='1.0' encoding='utf-8'?>
<svg xmlns="http://www.w3.org/2000/svg" id="Vrstva_1" data-name="Vrstva 1" viewBox="0 0 650 566.9" width="458.63467" height="400.0">
  <defs>
    <style>
      .cls-1 {
        fill-rule: evenodd;
      }
    </style>
  </defs>
  <path class="cls-1" d="m7.31,270.51V11.1h76.18c24.22,0,45.58,5.33,64.07,16.01,18.49,10.42,32.68,25.52,42.58,45.31,10.16,19.53,15.24,42.32,15.24,68.36s-5.08,48.18-15.24,67.98c-9.9,19.53-24.09,34.77-42.58,45.71-18.49,10.68-39.98,16.01-64.46,16.01H7.31Zm46.49-42.18h27.74c16.15,0,29.82-3.52,41.02-10.54,11.46-7.3,19.93-17.45,25.4-30.47,5.73-13.03,8.59-28.52,8.59-46.49s-2.86-33.6-8.59-46.88c-5.47-13.28-13.8-23.31-25-30.08-11.2-7.04-25-10.54-41.41-10.54h-27.74v175.02h0Z"></path>
  <path class="cls-1" d="m304.42,11.1h36.34l81.2,218.31c-14.37,5.87-27.89,13.43-40.28,22.43l-12.79-37.59h-94.83l-19.65,56.25h-47.27L304.42,11.1Zm17.69,65.58l32.96,96.94h-66.82s33.86-96.94,33.86-96.94Z"></path>
  <path class="cls-1" d="m612.87,255.56c7.99-5.6,14.37-12.6,19.14-21,6.77-11.72,10.16-25.4,10.16-41.02s-4.82-29.43-14.46-40.63c-6.95-8.08-16.15-14.26-27.58-18.55,8.07-5.25,14.65-11.57,19.76-18.95,7.56-10.94,11.33-23.96,11.33-39.07,0-12.51-3.26-23.7-9.77-33.6-6.51-9.9-15.63-17.58-27.35-23.05-11.46-5.73-24.35-8.59-38.67-8.59h-91.42v206.5c10.02-1.61,20.29-2.44,30.76-2.44,5.29,0,10.53.22,15.72.63v-56.64h47.66c7.82,0,14.46,1.57,19.93,4.69,5.47,3.12,9.51,7.3,12.11,12.51,2.86,5.21,4.3,11.2,4.3,17.97,0,7.3-1.43,13.67-4.3,19.14-2.61,5.21-6.64,9.25-12.11,12.11-3.17,1.74-6.82,2.96-10.94,3.63,16.49,6.68,31.85,15.59,45.71,26.35h0Zm-102.35-203.84v68.76h40.24c7.3,0,13.54-1.56,18.75-4.69,5.47-3.38,9.51-7.82,12.11-13.28,2.61-5.73,3.9-11.98,3.9-18.75,0-9.9-3-17.71-8.99-23.44-5.73-5.73-14.46-8.59-26.18-8.59h-39.84Z"></path>
  <g>
    <path class="cls-1" d="m584.77,357.88c8.4-.85,14.5-1.47,23.09,1.95-6.46-15.16-15.88-28.77-27.52-40.08-9.09,7.28-20,14.54-36.36,14.54-8.8,0-11.69-26.31-12.19-43.55-11.68-3.68-24.1-5.67-36.98-5.67-20.39,0-39.63,4.97-56.55,13.76,1.56,2.87,3.19,5.7,4.9,8.26,4.6,6.9,20.48,7.97,27.52,5.82,2.35-.72,4.38-2.77,6.43-4.87,3.12-3.17,6.31-6.41,10.76-5.13,3.34.97,6.51,3.05,9.34,5.04,6.38,4.49,1.5,10.35-3.49,13.85-22.92,16.01-25.5,33.37-28.59,54.02-.88,5.9-1.81,12.07-3.25,18.56-1.62,7.23-5.71,14.97-14.42,12.69-3.4-.89-5.64-3.44-7.9-6.02-1.73-1.98-3.48-3.98-5.79-5.26-5.32-2.97-10.4-3.11-15.51.47-5.28,3.71-8.78,9.64-7.23,16.08,1.49,6.22,4.5,10.24,10.24,13.26,3.89,2.05,8.55,4.44,13,4.84,3.73.33,7.44.55,11.17.77,1.49.09,3,.18,4.49.27.27.02.54.03.81.05,5.27.33,11.05.7,16.1,2.05,3.88,1.05,7.31,4.55,10.16,7.46.3.3.59.6.87.88,5,5.05,10.53,12.35,11.6,19.56,1.38,9.33-3.2,18-7.56,26.26-1.2,2.27-2.39,4.51-3.42,6.73-.78,1.67-1.63,3.34-2.49,5.03-1.91,3.75-3.84,7.57-5.11,11.47-.8,2.48-1.39,5-1.99,7.53-.46,1.92-.9,3.84-1.44,5.74-.29,1-.64,2.09-1.09,3.16,9.11,2.16,18.63,3.3,28.41,3.3,46.25,0,86.52-25.56,107.47-63.32-.36-.65-.72-1.37-1.04-2.17-.84-2.11-1.25-3.38-1.62-4.56-.89-2.8-1.62-5.06-7.53-16.72-.43-.85-.81-1.58-1.13-2.18-.48-.89-1.45-2.69-4.03-7.56-3.79-7.14-18.4-1.7-18.4-1.7-11.08,0-25.46-2.54-24.57-24.56.58-14.28,3.39-49.11,24.56-49.11,6.58,0,11.76-.53,16.27-.99v.02Zm-158.05,152.29c-.39-4.31-.29-8.59.11-12.99.08-.9.29-1.82.5-2.75.46-2.02.91-4.08.12-5.99-2.59-6.27-8.9-11.42-14.04-15.6l-.26-.21c-.49-.39-.98-.79-1.47-1.19-6.34-5.13-13.03-10.53-14.5-18.99-.34-1.98-.07-3.83.2-5.7.19-1.26.37-2.51.37-3.82,0-3.02-1.38-6.05-2.61-8.74-.29-.63-.57-1.27-.84-1.89-1.43-3.26-2.79-6.37-5.38-9.01-.35-.36-.71-.73-1.06-1.09-2.39-2.46-4.71-4.85-7.61-6.8-1.96-1.32-4.37-2.23-6.8-3.14-.49-.19-.98-.37-1.46-.56,1.25,41.1,22.67,77.11,54.71,98.48h.01Zm215.44-102.27c0,81.4-65.99,147.38-147.38,147.38s-147.38-65.99-147.38-147.38,65.99-147.38,147.38-147.38,147.38,65.99,147.38,147.38h0Z"></path>
    <path d="m494.8,555.8c-81.56,0-147.9-66.35-147.9-147.9s66.35-147.9,147.9-147.9,147.9,66.35,147.9,147.9-66.35,147.9-147.9,147.9Zm0-294.75c-80.97,0-146.86,65.88-146.86,146.86s65.88,146.86,146.86,146.86,146.86-65.88,146.86-146.86-65.88-146.86-146.86-146.86Zm0,270.21c-9.63,0-19.23-1.11-28.52-3.31l-.59-.15.24-.56c.39-.93.75-1.97,1.07-3.09.53-1.87.99-3.79,1.42-5.66.6-2.55,1.2-5.14,2.01-7.63,1.28-3.93,3.23-7.78,5.13-11.52.86-1.7,1.72-3.39,2.49-5.03,1.06-2.26,2.27-4.55,3.44-6.76,4.36-8.25,8.85-16.77,7.5-25.94-1.16-7.87-7.68-15.45-11.46-19.27l-.87-.89c-2.76-2.81-6.18-6.32-9.92-7.33-5-1.35-10.85-1.71-15.99-2.03l-.81-.05c-1.18-.07-2.37-.15-3.54-.22l-.95-.05c-3.72-.22-7.48-.45-11.19-.77-4.7-.42-9.61-3.01-13.2-4.9-5.81-3.06-8.96-7.13-10.51-13.61-1.45-6.02,1.4-12.39,7.44-16.63,5.04-3.54,10.3-3.71,16.06-.5,2.39,1.33,4.18,3.38,5.93,5.38,2.25,2.57,4.38,5.01,7.64,5.86,2.72.71,5.15.44,7.19-.82,3.84-2.35,5.7-7.55,6.58-11.49,1.44-6.49,2.36-12.6,3.24-18.52,3.06-20.52,5.71-38.24,28.81-54.37,1.9-1.33,6.3-4.81,6.31-8.48,0-1.67-.94-3.19-2.82-4.5-2.71-1.9-5.86-4.02-9.19-4.97-4.15-1.2-7.11,1.81-10.24,4.99-2.07,2.1-4.19,4.26-6.66,5-6.87,2.09-23.18,1.36-28.11-6.04-1.52-2.27-3.12-4.99-4.92-8.3l-.25-.47.47-.24c17.41-9.04,37.04-13.82,56.79-13.82,12.67,0,25.17,1.91,37.13,5.69l.35.11v.37c.59,19.85,4,43.04,11.69,43.04,15.82,0,26.67-6.93,36.03-14.43l.35-.29.33.32c11.88,11.54,21.18,25.07,27.65,40.25l.49,1.15-1.16-.47c-8.48-3.38-14.5-2.77-22.84-1.92l-.05-.52.04.52c-4.55.47-9.7.99-16.3.99-18.24,0-23.13,26.43-24.04,48.61-.33,8.05,1.42,14.14,5.2,18.06,5.09,5.3,13.12,5.95,18.75,5.95,1.36-.5,15.11-5.26,18.95,1.97,2.55,4.81,3.53,6.61,4.02,7.52l-.4.34.46-.25c.46.84.47.87,1.1,2.13,5.94,11.7,6.66,13.95,7.57,16.79.36,1.13.77,2.42,1.61,4.53.28.72.61,1.41,1.01,2.11l.15.25-.13.25c-21.76,39.22-63.11,63.59-107.93,63.59h-.01Zm-27.69-4.17c9.03,2.09,18.35,3.14,27.69,3.14,44.34,0,85.26-24.06,106.88-62.8-.35-.65-.65-1.31-.92-1.98-.85-2.14-1.27-3.45-1.63-4.59-.89-2.8-1.6-5.01-7.5-16.65-.63-1.25-.64-1.28-1.09-2.11l-.05-.09c-.49-.9-1.46-2.72-4.02-7.52-3.54-6.65-17.62-1.5-17.76-1.45l-.18.03c-5.83,0-14.2-.65-19.59-6.27-3.98-4.14-5.82-10.47-5.49-18.83,1.32-32.45,9.98-49.61,25.07-49.61,6.55,0,11.68-.52,16.2-.99l.06.52-.05-.52c8.11-.83,14.06-1.43,22.18,1.55-6.32-14.45-15.27-27.38-26.6-38.46-9.43,7.5-20.38,14.36-36.33,14.36-10.47,0-12.36-32.94-12.7-43.68-11.76-3.67-24.04-5.53-36.47-5.53-19.41,0-38.7,4.65-55.85,13.46,1.68,3.07,3.2,5.61,4.62,7.76,4.49,6.75,20.17,7.68,26.94,5.61,2.21-.67,4.15-2.64,6.21-4.72,3.22-3.27,6.54-6.64,11.28-5.27,3.47,1.01,6.73,3.18,9.5,5.12,2.17,1.53,3.27,3.33,3.27,5.36,0,4.17-4.72,7.92-6.76,9.33-22.73,15.88-25.34,33.4-28.38,53.68-.88,5.94-1.81,12.07-3.26,18.59-.92,4.14-2.9,9.61-7.06,12.15-2.3,1.4-4.99,1.72-8,.93-3.56-.93-5.9-3.6-8.16-6.19-1.68-1.92-3.41-3.91-5.65-5.16-5.37-2.99-10.26-2.85-14.96.44-4.45,3.12-8.64,8.84-7.03,15.53,1.48,6.15,4.46,10.03,9.98,12.93,3.51,1.85,8.31,4.38,12.81,4.78,3.68.32,7.44.55,11.07.76l1.04.06c1.18.07,2.37.13,3.55.22l.81.05c5.2.33,11.11.7,16.2,2.08,4.02,1.08,7.56,4.69,10.39,7.6l.87.89c3.87,3.91,10.53,11.69,11.75,19.85,1.41,9.5-3.18,18.17-7.61,26.56-1.16,2.21-2.37,4.47-3.41,6.72-.78,1.66-1.64,3.35-2.47,4.99-1.91,3.76-3.85,7.58-5.1,11.44-.8,2.46-1.39,5.01-1.98,7.49-.46,1.93-.91,3.87-1.45,5.76-.27.93-.56,1.82-.88,2.64v.04Zm-39.75-15.87l-.9-.6c-33.2-22.14-53.73-59.11-54.93-98.9l-.02-.78,2.19.84c2.4.9,4.89,1.84,6.9,3.2,2.95,1.98,5.25,4.36,7.69,6.86l1.06,1.08c2.65,2.71,4.03,5.84,5.48,9.16l.05.11c.26.59.52,1.17.79,1.77,1.25,2.73,2.65,5.83,2.65,8.96,0,1.36-.19,2.66-.37,3.9-.28,1.88-.53,3.63-.21,5.53,1.44,8.27,7.98,13.56,14.31,18.68l1.73,1.41c5.15,4.19,11.55,9.41,14.2,15.81.85,2.07.37,4.22-.09,6.31-.21.93-.4,1.82-.49,2.68-.44,4.73-.48,8.96-.11,12.9l.1,1.08h-.02Zm-54.78-98.76c1.42,38.8,21.38,74.81,53.55,96.69-.27-3.69-.2-7.64.21-12.01.08-.93.3-1.89.51-2.81.46-2.02.88-3.92.16-5.69-2.54-6.14-8.84-11.27-13.9-15.39l-1.73-1.41c-6.49-5.24-13.18-10.66-14.69-19.3-.36-2.05-.07-3.99.2-5.84.19-1.24.36-2.48.36-3.77,0-2.91-1.36-5.88-2.55-8.52-.27-.6-.53-1.19-.79-1.79l-.05-.11c-1.42-3.23-2.75-6.28-5.27-8.85l-1.06-1.09c-2.4-2.47-4.66-4.81-7.52-6.73-1.92-1.3-4.34-2.2-6.68-3.08l-.74-.28h0Z"></path>
  </g>
</svg>