<?xml version='1.0' encoding='utf-8'?>
<!-- Generator: Adobe Illustrator 27.2.0, SVG Export Plug-In . SVG Version: 6.00 Build 0)  --><svg xmlns="http://www.w3.org/2000/svg" xmlns:xlink="http://www.w3.org/1999/xlink" version="1.1" id="Vrstva_1" x="0px" y="0px" viewBox="0 0 587.4 566.9" style="enable-background:new 0 0 587.4 566.9;" xml:space="preserve" width="414.46463" height="400.0">
<g>
	<path d="M107.8,560.4c-0.9,0-1.6-0.1-2-0.4c-0.4-0.3-0.8-0.8-1.2-1.5l-33-63.6c-1.6,0.1-3.1,0.1-4.8,0.1h-4.9c-4,0-8-0.1-11.9-0.2   s-8.3-0.4-13.2-0.7v64.1c0,1.5-0.7,2.2-2.2,2.2H6.2c-1.5,0-2.2-0.8-2.2-2.2V380.3c0-1.5,0.7-2.3,2.2-2.4c9.3-0.7,18.3-1.1,26.9-1.3   c8.6-0.2,17.2-0.3,25.7-0.3c15.9,0,29.1,0.7,39.5,2.2s18.8,4.1,25,7.9c6.2,3.8,10.6,9.1,13.1,15.9c2.5,6.8,3.8,15.5,3.8,26.1v14.6   c0,9.5-1,17.4-3,23.9c-2,6.4-5.5,11.6-10.5,15.6c-5.4,4.2-13,7.3-22.9,9.3c1.1,1.7,2.3,3.6,3.5,5.5c1.2,1.9,2.5,4.1,3.9,6.5   l31.3,54.6c0.7,1.3,0.4,2-1.1,2L107.8,560.4L107.8,560.4z M60.7,405.7c-1.9,0-3.9,0-6.2,0.1c-2.2,0-4.4,0.1-6.6,0.1   c-2.1,0-4.2,0.1-6.1,0.2c-1.9,0.1-3.6,0.3-5,0.4v58.2c3.7,0.3,7.8,0.5,12.2,0.7c4.4,0.1,8.6,0.2,12.4,0.2c8.9,0,16.3-0.3,22.2-0.8   c5.9-0.5,10.6-1.7,14.1-3.5s6-4.5,7.4-7.9c1.4-3.5,2.2-8.1,2.2-14v-7.9c0-5.9-0.7-10.6-2.2-14.1s-4-6.1-7.6-7.8s-8.4-2.8-14.3-3.3   C77.2,405.9,69.7,405.7,60.7,405.7L60.7,405.7L60.7,405.7z"></path>
	<path d="M161.7,560.4c-1.5,0-2.2-0.7-2.2-2.2V380.3c0-1.5,0.7-2.2,2.2-2.2h110.5c1.5,0,2.2,0.7,2.2,2.2V407c0,1.5-0.7,2.2-2.2,2.2   h-79.8v41.3h64.1c1.5,0,2.2,0.7,2.2,2.2v26.6c0,1.5-0.7,2.2-2.2,2.2h-64.1v47.7h79.8c1.5,0,2.2,0.7,2.2,2.2v26.7   c0,1.5-0.7,2.2-2.2,2.2L161.7,560.4L161.7,560.4z"></path>
	<path d="M275.9,560.4c-1.5,0-2-0.7-1.5-2.1l57.7-178.1c0.3-0.8,0.7-1.4,1-1.7c0.4-0.3,1-0.4,1.9-0.4h40.8c0.9,0,1.5,0.1,1.9,0.4   c0.4,0.3,0.7,0.9,1,1.7l57.9,178.1c0.5,1.4,0,2.1-1.5,2.1h-31.6c-0.9,0-1.5-0.1-1.9-0.4s-0.7-0.8-0.9-1.7l-10.8-35h-69.5l-10.6,35   c-0.2,0.8-0.6,1.4-0.9,1.7c-0.4,0.3-1,0.4-1.9,0.4H275.9L275.9,560.4z M355.3,410l-25.6,83.7H381L355.3,410z"></path>
	<path d="M548.2,560.4c-0.9,0-1.6-0.1-2-0.4s-0.8-0.8-1.2-1.5l-33-63.6c-1.6,0.1-3.2,0.1-4.8,0.1h-4.9c-4,0-8-0.1-11.9-0.2   c-3.9-0.1-8.3-0.4-13.2-0.7v64.1c0,1.5-0.7,2.2-2.2,2.2h-28.4c-1.5,0-2.2-0.8-2.2-2.2V380.3c0-1.5,0.7-2.3,2.2-2.4   c9.3-0.7,18.3-1.1,26.9-1.3c8.7-0.2,17.2-0.3,25.7-0.3c15.9,0,29.1,0.7,39.5,2.2c10.5,1.4,18.8,4.1,25,7.9   c6.2,3.8,10.6,9.1,13.1,15.9c2.5,6.8,3.8,15.5,3.8,26.1v14.6c0,9.5-1,17.4-3,23.9c-2,6.4-5.5,11.6-10.5,15.6   c-5.3,4.2-13,7.3-22.9,9.3c1.2,1.7,2.3,3.6,3.5,5.5c1.2,1.9,2.5,4.1,3.9,6.5l31.3,54.6c0.7,1.3,0.4,2-1.1,2L548.2,560.4   L548.2,560.4L548.2,560.4z M501.1,405.7c-1.9,0-4,0-6.2,0.1c-2.2,0-4.4,0.1-6.5,0.1c-2.2,0-4.2,0.1-6.1,0.2c-1.9,0.1-3.6,0.3-5,0.4   v58.2c3.7,0.3,7.8,0.5,12.2,0.7c4.4,0.1,8.5,0.2,12.4,0.2c8.9,0,16.3-0.3,22.2-0.8c5.9-0.5,10.7-1.7,14.2-3.5s6-4.5,7.4-7.9   c1.4-3.5,2.2-8.1,2.2-14v-7.9c0-5.9-0.7-10.6-2.2-14.1c-1.5-3.5-4-6.1-7.6-7.8c-3.6-1.7-8.4-2.8-14.3-3.3   C517.7,405.9,510.2,405.7,501.1,405.7L501.1,405.7L501.1,405.7z"></path>
	<path d="M432.4,8.5H138.8C110,8.5,86.5,32,86.5,60.9v156.9c0,28.9,23.5,52.3,52.4,52.3h74.9l1.4,3.9l-15.3,24.6l28.1,17.5   l19.6-31.5c2.7-4.3,3.2-9.7,1.5-14.5l0-0.1h28.5l1.4,3.9l-15.3,24.6l28.1,17.5l19.6-31.5c2.7-4.3,3.2-9.7,1.5-14.5l0-0.1h28.5   l1.4,3.9l-15.3,24.6l28.1,17.5l19.6-31.5c2.7-4.3,3.2-9.7,1.5-14.5l0-0.1h55.9c28.8,0,52.3-23.4,52.3-52.3V60.9   C484.7,32,461.2,8.5,432.4,8.5L432.4,8.5L432.4,8.5L432.4,8.5z M452.5,217.8c0,11.1-9,20.1-20.1,20.1h-67.7l-10.4-28.4l21.9-39.3   c2.1-3.9,2.7-8.4,1.4-12.7l-11-37.8v-0.6H378l-27.9-64.5l-27.9,64.5h11.3v3c0,1.6,0.2,3.1,0.6,4.6l9.7,33.4l-22.3,39.9   c-2.4,4.2-2.7,9.2-1.1,13.8l8.9,24.1h-28.5l-10.4-28.4l21.9-39.3c2.1-3.9,2.7-8.4,1.4-12.7l-11-37.8v-0.6h11.3l-27.9-64.5   l-27.9,64.5h11.3v3c0,1.6,0.2,3.1,0.6,4.6l9.7,33.4l-22.3,39.9c-2.4,4.2-2.7,9.2-1.1,13.8l8.9,24.1h-28.5l-10.4-28.4l21.9-39.3   c2.1-3.9,2.7-8.4,1.4-12.7l-11-37.8v-0.6h11.3l-27.9-64.5l-27.9,64.5h11.3v3c0,1.6,0.2,3.1,0.6,4.6l9.7,33.4l-22.3,39.9   c-2.4,4.2-2.7,9.2-1.1,13.8l8.9,24.1h-63.1c-11.1,0-20.2-9-20.2-20.1V60.9c0-11.1,9.1-20.2,20.2-20.2h293.6   c11.1,0,20.1,9,20.1,20.2L452.5,217.8L452.5,217.8L452.5,217.8L452.5,217.8z"></path>
</g>
</svg>