<?xml version='1.0' encoding='utf-8'?>
<svg xmlns="http://www.w3.org/2000/svg" id="Vrstva_1" version="1.1" viewBox="0 0 226.14 400" width="226.14" height="400.0">
  <!-- Generator: Adobe Illustrator 30.2.1, SVG Export Plug-In . SVG Version: 2.1.1 Build 1)  -->
  <rect x="17.29" y="20.4" width="191.57" height="359.2" fill="#010101"></rect>
  <g>
    <path d="M216.28,387.02H9.86V12.98h206.42v374.04h0ZM17.29,379.6h191.57V20.4H17.29v359.2Z" fill="#010101"></path>
    <path d="M216.28,12.98v374.04H9.86V12.98h206.42M17.29,379.6h191.57V20.4H17.29v359.2M223.42,5.84H2.72v388.32h220.7V5.84h0ZM24.43,27.54h177.3v344.92H24.43V27.54h0Z" display="none" fill="#fff"></path>
  </g>
  <path d="M208.84,379.61H17.27V20.4h191.57v359.2h0ZM42.17,354.71h141.77V45.3H42.17v309.4h0ZM113.08,259.86c19.84,0,35.91,16.09,35.91,35.92s-16.08,35.91-35.91,35.91-35.92-16.08-35.92-35.91,16.09-35.92,35.92-35.92h0ZM113.08,284.76c-6.08,0-11.02,4.94-11.02,11.02s4.94,11.01,11.02,11.01,11.01-4.93,11.01-11.01-4.93-11.02-11.01-11.02ZM113.08,164.09c19.84,0,35.91,16.09,35.91,35.92s-16.08,35.91-35.91,35.91-35.92-16.08-35.92-35.91,16.09-35.92,35.92-35.92h0ZM113.08,188.99c-6.08,0-11.02,4.94-11.02,11.02s4.94,11.01,11.02,11.01,11.01-4.93,11.01-11.01-4.93-11.02-11.01-11.02Z" fill="#fff"></path>
  <path d="M149,104.22c0,19.84-16.08,35.92-35.92,35.92s-35.92-16.08-35.92-35.92,16.08-35.92,35.92-35.92,35.92,16.08,35.92,35.92Z" fill="#c93c24"></path>
  <path d="M17.26,20.38v359.22h191.61V20.38H17.26ZM183.94,354.71H42.15V45.28h141.79v309.42h0Z" fill="#78bd73"></path>
</svg>