<?xml version='1.0' encoding='utf-8'?>
<!-- Generator: Adobe Illustrator 27.2.0, SVG Export Plug-In . SVG Version: 6.00 Build 0)  --><svg xmlns="http://www.w3.org/2000/svg" xmlns:xlink="http://www.w3.org/1999/xlink" version="1.1" id="Vrstva_1" x="0px" y="0px" viewBox="0 0 490.4 566.9" style="enable-background:new 0 0 490.4 566.9;" xml:space="preserve" width="346.02222" height="400.0">
<g>
	<path d="M416.2,392.4h-79.8c-38.5,0-69.8,28.5-75.5,64.1c-4.3,0-10,1.4-14.2,1.4c-109.7,0-198-88.3-198-198s88.3-198,198-198   s198,88.3,198,198c0,28.5-5.7,55.6-17.1,79.8l37,17.1c14.2-29.9,20-62.7,20-96.9c0-131.1-106.8-239.4-239.4-239.4   S5.8,127.4,5.8,259.9s106.9,239.4,239.4,239.4c5.7,0,12.8-1.4,18.5-1.4c11.4,28.5,38.5,48.4,71.2,48.4h79.8v-27.1h62.7v-27.1h-62.7   v-45.6h62.7v-27.1h-62.7v-27.1L416.2,392.4L416.2,392.4z"></path>
	<polygon points="225.3,240 132.7,240 132.7,279.9 266.6,279.9 266.6,111.8 225.3,111.8  "></polygon>
</g>
</svg>