<?xml version='1.0' encoding='utf-8'?>
<!-- Generator: Adobe Illustrator 27.2.0, SVG Export Plug-In . SVG Version: 6.00 Build 0)  --><svg xmlns="http://www.w3.org/2000/svg" xmlns:xlink="http://www.w3.org/1999/xlink" version="1.1" id="Vrstva_1" x="0px" y="0px" viewBox="0 0 657.4 566.9" style="enable-background:new 0 0 657.4 566.9;" xml:space="preserve" width="463.85605" height="400.0">
<g>
	<path d="M264.3,540V26.9L6.1,283.5L264.3,540L264.3,540L264.3,540z M223.5,125v317L64,283.5L223.5,125L223.5,125L223.5,125z"></path>
	<path d="M350.1,302.4h197.2V125.1H350.1L350.1,302.4L350.1,302.4z M506.4,261.6H391.1v-95.5h115.4V261.6z"></path>
	<polygon points="454.3,405.7 651.3,405.7 651.3,228.5 569.3,228.5 569.3,269.3 610.5,269.3 610.5,364.9 495.1,364.9 495.1,324.3    454.3,324.3  "></polygon>
</g>
</svg>