<?xml version='1.0' encoding='utf-8'?>
<!-- Generator: Adobe Illustrator 27.2.0, SVG Export Plug-In . SVG Version: 6.00 Build 0)  --><svg xmlns="http://www.w3.org/2000/svg" xmlns:xlink="http://www.w3.org/1999/xlink" version="1.1" id="Vrstva_1" x="0px" y="0px" viewBox="0 0 604.4 566.9" style="enable-background:new 0 0 604.4 566.9;" xml:space="preserve" width="426.45972" height="400.0">
<g>
	<path d="M573.6,445.1l21.6,37.6c1.5,2.6,2.4,5.2,2.7,7.9c0.3,2.7,0.5,5.8,0.5,9.5v4.2c0,5.4-1.1,10.5-3.2,15.4   c-2.2,4.9-5,9.3-8.7,13.2s-7.9,6.9-12.9,9.2s-10.2,3.4-15.8,3.4H49.5c-5.6,0-10.9-1.1-16.1-3.4c-5.1-2.2-9.8-5.3-13.8-9.2   s-7.4-8.3-9.8-13.2C7.3,514.8,6,509.7,6,504.3c0-4.7,0.8-9.3,2.2-13.7c1.5-4.4,3.9-9.6,7.5-15.2L264.7,43   c3.2-6.2,8.3-11.4,15.3-15.4c7-4.1,14.3-6.1,22-6.1c7.7,0,15.5,2,22.7,6.1c7.2,4.1,13.1,9.2,17.9,15.4L573.6,445.1L573.6,445.1   L573.6,445.1z M564.2,495L314.6,58.4c-1.5-2.2-2.6-3.1-4.4-4.3c-1.8-1.2-3.4-1.9-6.8-1.8c-2.9,0.1-5,0.4-7.1,1.9   c-2.2,1.5-3.5,4.2-3.5,4.2L40.1,495c-2.1,2.8-3.2,5.9-3.2,9.3c0,1.5,1.3,3.4,4,5.8c2.7,2.4,5.5,3.5,8.5,3.5h508.3   c3.2,0,5.6-1.2,7.1-3.5c1.5-2.4,2.2-4.3,2.2-5.8s-0.1-3.1-0.3-4.7C566.6,498.1,565.8,496.5,564.2,495L564.2,495L564.2,495z    M302,130.2c-5.6,0-10.8,1.1-15.6,3.4c-4.8,2.2-9.1,5.4-12.7,9.5c-3.6,4.1-6.5,9-8.7,14.8c-2.1,5.8-3.2,12.1-3.2,19v168.6   c0,6.2,1.1,12.2,3.2,17.9c2.1,5.7,5,10.7,8.7,15c3.6,4.3,7.9,7.7,12.7,10.1c4.8,2.5,10,3.7,15.6,3.7c6.2,0,12-1.2,17.4-3.7   c5.4-2.5,10-5.9,14-10.1c4-4.3,7.1-9.3,9.3-15c2.2-5.7,3.4-11.6,3.4-17.9V176.8c0-6.9-1.1-13.2-3.4-19s-5.4-10.7-9.3-14.8   c-4-4.1-8.6-7.2-14-9.5C314.1,131.3,308.2,130.2,302,130.2L302,130.2L302,130.2z M261.8,454.5c0,5.6,1.1,10.8,3.4,15.6   c2.2,4.8,5.3,9.1,9.2,12.9c3.9,3.8,8.4,6.7,13.7,8.8c5.2,2.1,11,3.2,17.2,3.2c5.6,0,10.8-1.1,15.8-3.2c4.9-2.1,9.3-5.1,13-8.8   c3.8-3.8,6.7-8,8.8-12.9s3.2-10,3.2-15.6s-1.1-10.8-3.2-15.8c-2.2-4.9-5.1-9.2-8.8-12.9c-3.8-3.6-8.1-6.5-13-8.7   c-4.9-2.1-10.2-3.2-15.8-3.2c-6.2,0-12,1.1-17.2,3.2c-5.3,2.1-9.8,5-13.7,8.7c-3.9,3.6-6.9,7.9-9.2,12.9S261.8,448.9,261.8,454.5z" fill="#FFCE63"></path>
</g>
</svg>