<?xml version='1.0' encoding='utf-8'?>
<!-- Generator: Adobe Illustrator 27.2.0, SVG Export Plug-In . SVG Version: 6.00 Build 0)  --><svg xmlns="http://www.w3.org/2000/svg" xmlns:xlink="http://www.w3.org/1999/xlink" version="1.1" id="Vrstva_1" x="0px" y="0px" viewBox="0 0 803.4 566.9" style="enable-background:new 0 0 803.4 566.9;" xml:space="preserve" width="566.87244" height="400.0">
<path d="M763.3,153.6c8.6,5.6,29.9,18.2,36.5,22.9l-218,340.9c-17.2-9.1-35.4-17.3-54.6-24.7c-16.5-6.1-35.3-11.8-56.5-17  c-21.2-5.2-43.3-7.7-66.4-7.7s-45.5,2.6-67.1,7.7c-21.6,5.2-41,10.8-57.9,17c-19.9,7.4-38.7,15.6-56.4,24.7L3.6,176.5  c6.9-4.7,31.7-20.9,36.2-22.9c53.6-34.4,111.1-60.4,172.3-77.8s125.3-26.2,192.2-26.2s129.9,8.7,189.8,26.2  C654,93.2,710.3,119.3,763.3,153.6L763.3,153.6L763.3,153.6z M736,190.3c-48-29.9-99.7-53.4-155.1-70.5  c-55.5-17.1-114.3-25.6-176.6-25.6c-31,0-61.2,2.2-90.6,6.6c-29.4,4.4-58.1,10.8-86.1,19.2s-55.3,18.4-81.9,30.2  c-26.6,11.8-52.4,25.2-77.5,40.1l62.3,95.4h84.1L277,146.6l64.2,144l64.2-143.9l64.2,143.9l64.2-144l62,139.1h80.4L736,190.3  L736,190.3z M655.5,318.9h-81.2l-40.6-91.1l-64.2,143.9l-64.2-143.9l-64.2,143.9L277,227.7L236,318.9h-83.8l88.2,134.7  c14.8-5.9,30.7-11.2,48-15.9c14.8-3.9,32-7.6,51.8-10.9c19.8-3.3,41.1-5,64-5s43.8,1.9,63.6,5.7c19.8,3.8,37.2,7.9,52.2,12.4  c17.5,5.4,33.6,11.4,48.3,18.1L655.5,318.9L655.5,318.9L655.5,318.9z"></path>
</svg>