<?xml version='1.0' encoding='utf-8'?>
<!-- Generator: Adobe Illustrator 27.2.0, SVG Export Plug-In . SVG Version: 6.00 Build 0)  --><svg xmlns="http://www.w3.org/2000/svg" xmlns:xlink="http://www.w3.org/1999/xlink" version="1.1" id="Vrstva_1" x="0px" y="0px" viewBox="0 0 468.7 566.9" style="enable-background:new 0 0 468.7 566.9;" xml:space="preserve" width="330.71088" height="400.0">
<style type="text/css">
	.st0{fill-rule:evenodd;clip-rule:evenodd;}
</style>
<g>
	<path class="st0" d="M180.5,27.8c13.7-2.4,47.7-7.3,91.9-7.3s78.2,4.9,91.9,7.3l8.5,1.5l63.7,110.3l0,145.2   c0,23.6-18.4,42.8-41,42.8h-5.6c-22,0-40-18-41-40.7H195.9c-1,22.7-19,40.7-41,40.7h-5.5c-22.7,0-41.1-19.1-41.1-42.8V139.6   L172,29.3L180.5,27.8L180.5,27.8z M195,64.9l-22.2,38.5H372l-22.3-38.6c-15.6-2.3-43.2-5.4-77.4-5.4S210.6,62.6,195,64.9L195,64.9z    M236.7,143.1h-83.1V205h23.7v-37.1h47.5L236.7,143.1L236.7,143.1z M391.1,143.1H308l11.9,24.8h47.5V205h23.7L391.1,143.1   L391.1,143.1z" fill="#FFCE63"></path>
	<path class="st0" d="M217.8,365.8h-51.3c10.8,8.9,22.5,21.1,18.8,30.2c-4,9.9-28.8,15.7-68.5,25c-4.5,1.1-9.2,2.2-14.1,3.3   c-62.6,14.8-98.6,31.9-98.6,65.3c0,21.9,6,35.8,18.5,56.7h94.4c-21.4-19.7-42-44.3-42-59.6c0-29,45.2-45.2,93.3-56.9l2.2-0.5   c27.5-6.7,66.6-16.2,66.6-33.3C237.3,386.2,226.9,374.4,217.8,365.8L217.8,365.8z M422.4,546.4h-95.7   c-20.5-17.3-38.9-34.8-38.9-56.7c0-28.5,26.2-40.5,60.5-56.4c3.6-1.6,7.2-3.3,11-5.1c8.4-4,15.7-7.1,21.9-9.7   c18.7-8,27.7-11.8,29.1-22.4c1.1-8.2-17.4-21-33-30.2h56.3c14.5,8.6,30.9,20.5,30.9,30.2c0,15.4-16,22.7-33.5,30.8   c-2.4,1.1-4.7,2.2-7.1,3.3c-45.2,21.6-65.1,34.8-65.1,56.6C358.8,505.4,381.5,521.3,422.4,546.4L422.4,546.4z" fill="#FFCE63"></path>
</g>
</svg>