<?xml version='1.0' encoding='utf-8'?>
<!-- Generator: Adobe Illustrator 27.2.0, SVG Export Plug-In . SVG Version: 6.00 Build 0)  --><svg xmlns="http://www.w3.org/2000/svg" xmlns:xlink="http://www.w3.org/1999/xlink" version="1.1" id="Vrstva_1" x="0px" y="0px" viewBox="0 0 428.4 566.9" style="enable-background:new 0 0 428.4 566.9;" xml:space="preserve" width="302.2755" height="400.0">
<style type="text/css">
	.st0{fill-rule:evenodd;clip-rule:evenodd;}
</style>
<g>
	<path class="st0" d="M212.6,560.5c-15.6,0-29.2-3.6-40.7-10.7c-11.4-7.3-20.1-17.3-26.1-30c-6-12.7-9-27-9-43.1s3-30.7,9-43.4   c6-12.7,14.7-22.6,26.1-29.7c11.5-7.1,25.1-10.7,40.7-10.7s29.1,3.6,40.4,10.7c11.5,7.1,20.3,17.1,26.3,30   c6.2,12.7,9.3,27,9.3,43.1s-3.1,30.5-9.3,43.1c-6,12.7-14.8,22.7-26.3,30C241.6,556.9,228.1,560.5,212.6,560.5L212.6,560.5z    M212.6,529.3c13.3,0,23.5-4.7,30.5-14.1c7-9.4,10.5-22.3,10.5-38.5s-3.5-29.1-10.5-38.5c-7-9.4-17.1-14.1-30.5-14.1   s-23.5,4.7-30.5,14.1c-6.8,9.4-10.2,22.3-10.2,38.5s3.4,29.1,10.2,38.5C189.1,524.6,199.2,529.3,212.6,529.3L212.6,529.3z    M361.7,560.2c-10.7,0-20.4-1.1-29-3.4c-8.6-2.4-16.5-5.9-23.6-10.5l5.6-30.2c7.3,4.5,14.5,8,21.5,10.2c7.1,2.1,15.2,3.2,24.1,3.2   c17.5,0,26.3-5.3,26.3-15.8c0-3.6-0.8-6.5-2.4-8.8c-1.5-2.3-3.7-4.2-6.8-5.9c-3.1-1.8-7.5-3.7-13.4-5.9l-11.9-4.6   c-9.6-3.6-17.5-7.1-23.6-10.7c-6-3.7-10.8-8.5-14.4-14.4c-3.4-6-5.1-13.6-5.1-22.7c0-9.8,2.4-18.2,7.3-25.3   c4.9-7.3,11.9-12.8,21-16.6c9.1-3.9,19.7-5.9,31.9-5.9c17.9,0,33.1,3.9,45.8,11.7l-6.1,29.7c-6-3.7-12.1-6.5-18.3-8.3   c-6.2-1.8-13-2.7-20.5-2.7c-8.3,0-14.8,1.4-19.5,4.1c-4.5,2.6-6.8,6.2-6.8,11c0,3.4,0.6,6.2,2,8.5c1.5,2.1,3.7,4.1,6.8,5.9   c3.1,1.6,7.7,3.6,13.9,6.1l11.9,4.4c9.4,3.6,17.2,7.4,23.4,11.5c6.3,3.9,11.3,8.9,14.9,15.1c3.7,6,5.6,13.5,5.6,22.4   c0,9.6-2.4,18-7.1,25.3c-4.5,7.2-11.4,12.7-20.5,16.6S374.5,560.3,361.7,560.2L361.7,560.2z M30.2,556.8c8.6,2.3,18.3,3.4,29,3.4   c12.8,0,23.8-2,32.9-5.8c9.1-3.9,15.9-9.4,20.5-16.6c4.7-7.3,7.1-15.8,7.1-25.3c0-8.9-1.9-16.4-5.6-22.4   c-3.6-6.2-8.5-11.2-14.9-15.1c-6.2-4.1-14-7.9-23.4-11.5l-11.9-4.4c-6.2-2.4-10.8-4.5-13.9-6.1c-3.1-1.8-5.4-3.7-6.8-5.9   c-1.3-2.3-2-5.1-2-8.5c0-4.7,2.3-8.4,6.8-11c4.7-2.8,11.2-4.1,19.5-4.1c7.5,0,14.3,0.9,20.5,2.7c6.2,1.8,12.3,4.5,18.3,8.3   l6.1-29.7c-12.7-7.8-27.9-11.7-45.8-11.7c-12.2,0-22.8,2-31.9,5.9c-9.1,3.7-16.1,9.3-21,16.6c-4.9,7.1-7.3,15.6-7.3,25.3   c0,9.1,1.7,16.6,5.1,22.7c3.6,5.9,8.4,10.6,14.4,14.4c6.2,3.6,14,7.1,23.6,10.7l11.9,4.6c5.8,2.1,10.3,4.1,13.4,5.9   c3.1,1.6,5.4,3.6,6.8,5.9c1.6,2.3,2.4,5.2,2.4,8.8c0,10.6-8.8,15.8-26.3,15.8c-8.9,0-17-1.1-24.1-3.2c-7-2.3-14.1-5.7-21.4-10.2   l-5.6,30.2C13.7,550.9,21.6,554.4,30.2,556.8L30.2,556.8z" fill="#FFCE63"></path>
	<path class="st0" d="M128.5,47.6L104,97.7h220.8l-24.5-50.1c-17.2-2.4-47.9-5.8-85.9-5.8S145.7,45.2,128.5,47.6L128.5,47.6z    M36.1,69.3h42.2l22.2-45.5l4-8.2l9.1-1.5c15-2.4,52.2-7.6,100.7-7.6s85.7,5.1,100.7,7.6l9.1,1.5l4,8.2l22.3,45.5h41.8v39.4h-22.5   l20.7,42.3l1.8,3.7v4.1l0,122.2l0,0c0,23.3-19,42.2-42.4,42.2h-6.1c-23.4,0-42.4-18.9-42.4-42.2v-0.5H127.5v0.5   c0,23.3-19,42.2-42.4,42.2h-6c-23.4,0-42.4-18.9-42.4-42.2l0,0V158.7v-4.1l1.8-3.7l20.7-42.3H36.1L36.1,69.3L36.1,69.3z    M166.8,165.3H96.6v23.4h35.3l23.5,23.4H273l23.5-23.4h35.1v-23.4h-70.3L243.4,183h-58.7L166.8,165.3L166.8,165.3z" fill="#FFCE63"></path>
</g>
</svg>