<?xml version='1.0' encoding='utf-8'?>
<svg xmlns="http://www.w3.org/2000/svg" id="Vrstva_1" data-name="Vrstva 1" viewBox="0 0 428.36 566.93" width="302.23132" height="400.0">
  <defs>
    <style>
      .cls-1 {
        fill-rule: evenodd;
      }
    </style>
  </defs>
  <path class="cls-1" d="m166.77,41.98l-17.13,29.69h153.56l-17.16-29.69c-12.02-1.76-33.29-4.17-59.64-4.17s-47.61,2.41-59.63,4.17Zm-11.18-28.58c10.56-1.81,36.75-5.6,70.81-5.6s60.26,3.79,70.82,5.6l6.57,1.12,49.13,85.01-.02,111.96c0,18.21-14.17,32.98-31.64,32.98h-4.3c-16.96,0-30.81-13.92-31.61-31.39h-117.9c-.79,17.48-14.64,31.39-31.61,31.39h-4.23c-17.48,0-31.64-14.76-31.64-32.98v-111.96S149.02,14.52,149.02,14.52l6.57-1.12Zm43.34,88.84h-64.07v47.69h18.3v-28.61h36.61l9.15-19.08Zm118.98,0h-64.06l9.15,19.08h36.61v28.61h18.3v-47.69Zm9.15,292.3v161.66h33.36v-63.54h57.94v-29.22h-57.94v-38.71h65v-30.19h-98.36Zm-121.85,161.66v-161.66h98.36v30.19h-65v38.71h57.94v29.22h-57.94v63.54h-33.36ZM29.51,475.38c0,47.96,27.76,83.75,75.72,83.75s75.96-35.79,75.96-83.75-28-83.75-75.96-83.75-75.72,35.55-75.72,83.75Zm116.62,0c0,31.41-13.39,52.59-40.9,52.59s-40.66-21.18-40.66-52.59,13.39-52.59,40.66-52.59,40.9,21.18,40.9,52.59Z" fill="#FFCE63"></path>
  <path d="m290.59,338.59c0,6.05,5.02,11.65,14.54,17.86l-75.88-.02c-4.35-5-7.04-10.3-7.04-16.09,0-17.59,17.68-25.06,45.07-34.84h.04c2.84-1.03,5.77-2.07,8.73-3.15,6.73-2.45,12.54-4.37,17.49-6.01,2.09-.69,4.1-1.33,6.01-1.94,11.72-3.74,19.66-6.28,20.62-11.91.81-4.73-14.99-11.95-27.26-17.55l-2.48-1.13,62.22.02c11.58,5.32,24.68,12.66,24.68,18.68,0,9.5-12.74,14.05-26.76,19.06-1.88.67-3.79,1.35-5.69,2.05-36.11,13.33-54.3,21.53-54.3,34.97Z" fill="#FFCE63"></path>
  <path d="m185.84,263.82h-53.25c8.63,5.48,17.08,9.6,17.08,15.99,0,4.52-16.26,9.52-36.95,12.88-6.6,1.07-13.86,2.25-21.53,3.64-3.6.65-7.36,1.34-11.27,2.05-49.95,9.17-76.97,21.36-76.97,41.96,0,6.07.97,11.16,2.94,16.09h76.86c-6.5-6.68-10.82-13.02-10.82-17.86,0-17.95,36.1-25.53,74.47-32.76l1.78-.33c21.94-4.12,53.19-12.38,53.19-22.99,0-6.07-8.24-13.39-15.53-18.68Z" fill="#FFCE63"></path>
</svg>