<?xml version='1.0' encoding='utf-8'?>
<!-- Generator: Adobe Illustrator 27.2.0, SVG Export Plug-In . SVG Version: 6.00 Build 0)  --><svg xmlns="http://www.w3.org/2000/svg" xmlns:xlink="http://www.w3.org/1999/xlink" version="1.1" id="Vrstva_1" x="0px" y="0px" viewBox="0 0 129.4 566.9" style="enable-background:new 0 0 129.4 566.9;" xml:space="preserve" width="91.30357" height="400.0">
<g>
	<path d="M125,462.4c0,33.3-27,60.3-60.3,60.3s-60.3-27-60.3-60.3s27-60.3,60.3-60.3S125,429.1,125,462.4L125,462.4z"></path>
	<path d="M125,283.5c0,33.3-27,60.3-60.3,60.3s-60.3-27-60.3-60.3s27-60.3,60.3-60.3S125,250.1,125,283.5L125,283.5z"></path>
	<path d="M125,104.5c0,33.3-27,60.3-60.3,60.3s-60.3-27-60.3-60.3s27-60.3,60.3-60.3S125,71.2,125,104.5z"></path>
</g>
</svg>