<?xml version='1.0' encoding='utf-8'?>
<svg xmlns="http://www.w3.org/2000/svg" id="Vrstva_1" data-name="Vrstva 1" viewBox="0 0 305.5 566.93" width="215.54689" height="400.0">
  <path d="m245.06,20.9c30.59,0,55.38,25.19,55.38,56.26v412.61c0,31.07-24.79,56.27-55.38,56.27H60.44c-30.59,0-55.38-25.19-55.38-56.27V77.16c0-31.07,24.8-56.26,55.38-56.26h184.62Zm-92.31,262.06l-62.06-62.06-26.65,26.65,62.06,62.06-62.06,62.06,26.65,26.65,62.06-62.06,62.06,62.06,26.65-26.65-62.06-62.06,62.06-62.06-26.65-26.65-62.06,62.06Zm-36.92-205.8c-10.2,0-18.46,8.4-18.46,18.76,0,10.36,8.27,18.75,18.46,18.76h73.85c10.2,0,18.46-8.4,18.46-18.76,0-10.36-8.26-18.75-18.46-18.76h-73.85Z" fill="#E30613"></path>
</svg>