<?xml version='1.0' encoding='utf-8'?>
<!-- Generator: Adobe Illustrator 27.2.0, SVG Export Plug-In . SVG Version: 6.00 Build 0)  --><svg xmlns="http://www.w3.org/2000/svg" xmlns:xlink="http://www.w3.org/1999/xlink" version="1.1" id="Vrstva_1" x="0px" y="0px" viewBox="0 0 172.4 566.9" style="enable-background:new 0 0 172.4 566.9;" xml:space="preserve" width="121.64402" height="400.0">
<path d="M133.8,107.3c9.1-10.4,13.5-24,13.5-39C147.3,35.3,118.8,7,86,7S24.7,35.5,24.7,68.3c0,15.1,6,28.6,13.5,39  c-19.5,6-31.5,22.6-31.5,43.5v176.9h30v182.9c0,25.5,22.6,49.5,49.5,49.5s49.5-22.6,49.5-49.5V327.6h30v-177  C166.8,128.2,153.3,111.8,133.8,107.3L133.8,107.3z M85.9,523.9c-10.5,0-16.5-6-16.5-16.4c0-10.5,6-16.5,16.5-16.5s16.5,6,16.5,16.5  C102.3,517.9,96.5,523.9,85.9,523.9z M85.9,32.3c21,0,36,16.5,36,36s-16.5,36.1-36,36.1s-36-16.4-36-36S66.4,32.3,85.9,32.3z   M138.3,300.6h-3.1v-3.1H36.3v3.1h-3.1v-150c0-12,7.5-19.5,19.5-19.5h65.9c12,0,19.5,7.5,19.5,19.5v150H138.3L138.3,300.6z" fill="#FFCE63"></path>
</svg>