<?xml version='1.0' encoding='utf-8'?>
<svg xmlns="http://www.w3.org/2000/svg" id="Vrstva_1" data-name="Vrstva 1" viewBox="0 0 544.09 566.93" width="383.88516" height="400.0">
  <path d="m104.25,7.53l-44.6,119.2h20.2c-2.1,34.6,4.2,78.3,24.4,133.4,11.1,32.2,14,58.4,10.3,79.4-3.5,20.3-13.4,37.3-31.1,51.6l31.6,39.1c26.9-21.7,43.4-49.4,49-82.2,5.6-32.1.4-67.4-12.4-104.6l-.1-.4c-19.3-52.6-23.4-90.1-21.3-116.3h19.9L104.25,7.53Z"></path>
  <path d="m272.35,528.73H5.55v-40h252.3c1.9,14.8,7.4,28.4,14.5,40h0Z"></path>
  <path d="m418.25,284.33c-2.5-13.3-6.2-27-11-40.9l-.1-.4c-19.3-52.6-23.4-90.1-21.3-116.3h19.9L359.85,7.53l-44.6,119.2h20.1c-2.1,34.6,4.2,78.3,24.4,133.4,2.4,6.8,4.3,13.3,6,19.6,7-1.3,14.2-1.9,21.7-1.5,10.5.5,21.1,2.4,30.8,6.1h0Z"></path>
  <path d="m293.75,329.53c1.3-27-4-55.9-14.5-86.1l-.1-.4c-19.3-52.6-23.4-90.1-21.3-116.3h20L231.95,7.53l-44.6,119.2h20.1c-2.1,34.6,4.2,78.3,24.4,133.4,11.1,32.2,14,58.4,10.4,79.4-3.5,20.3-13.4,37.3-31.1,51.6l31.6,39.1c15.7-12.7,27.9-27.4,36.4-44.1-.1-1.4-.2-2.8-.3-4.2-1.1-19.9,5.5-37.8,14.9-52.4h0Z"></path>
  <path d="m431.65,490.53c0,8.5-2.8,16.5-7.5,26.9-5.6,13.2-10.7,40.1,29.7,41.9,31,1.9,64.9-31,63-58.3-.9-29.1-28-50.3-58.8-53-5.5-.5-8.3-3.5-8.3-8.2,0-8.5,13.5-11.7,19.9-11.7,8.5,0,16.5,2.8,26.9,7.5,13.2,5.6,40.1,10.7,41.9-29.7,1.9-31-31-64.9-58.3-63-29.1.9-50.6,29-53.2,58.8-.5,5.5-3.2,8.3-7.9,8.3-9.7,0-11.7-12.9-11.7-19.9,0-8.5,2.8-16.5,7.5-26.9,5.6-13.2,10.7-40.1-29.7-41.9-31-1.9-64.9,31-63,58.3.9,29.1,28.2,50.6,58.8,53.2,5.5.5,8.3,3.2,8.3,7.9,0,9.1-14.6,11.7-21.2,11.7-8.5,0-15.2-2.8-25.6-7.5-13.2-5.6-40.1-10.7-41.9,29.7-1.9,31,31,64.9,58.3,63,29.1-.9,50.6-28.8,53.2-58.8.5-5.5,3.2-8.3,7.9-8.3,9.9.1,11.7,13.5,11.7,20h0Z"></path>
</svg>