<?xml version='1.0' encoding='utf-8'?>
<!-- Generator: Adobe Illustrator 27.2.0, SVG Export Plug-In . SVG Version: 6.00 Build 0)  --><svg xmlns="http://www.w3.org/2000/svg" xmlns:xlink="http://www.w3.org/1999/xlink" version="1.1" id="Vrstva_1" x="0px" y="0px" viewBox="0 0 669.4 566.9" style="enable-background:new 0 0 669.4 566.9;" xml:space="preserve" width="472.32315" height="400.0">
<g>
	<path d="M498.3,445.8c0,0-20,42.9-20,54.3s8.6,19.9,20,19.9s19.9-8.6,19.9-19.9S498.3,445.8,498.3,445.8z"></path>
	<path d="M474,356.8L417.9,382l-114.4,51l-13-37.8h-69.4V370h28.5v-28.5h-85.6V370h28.5v25.3H133v-23.2l-99.7-33.6L5.9,419.6   l98.8,33.2v94.6h248.9l37.3-51.7l58.4-80.9l14.2-19.5l37.1,28.5v-34.1L474,356.8L474,356.8z M104.7,422.6l-62.4-21.1l9.1-27.1   l53.4,18.1L104.7,422.6L104.7,422.6z M365.4,479.7l-28.8,39.2H133.2v-95.1h137.3l18.8,46.4L412.7,415L365.4,479.7L365.4,479.7z"></path>
	<polygon points="627.5,281.8 614.8,256.1 564.7,280.9 564.7,217.4 614.8,242.2 627.5,216.4 581.8,193.9 663.5,146.8 649.1,121.8    567.5,169.1 570.7,118.3 542.2,116.5 538.5,172.1 483.5,140.3 529.9,109.3 514.1,85.4 471.7,113.7 471.7,19.5 442.9,19.5    442.9,113.7 400.7,85.4 384.7,109.3 431.1,140.3 376.1,172.1 372.6,116.5 343.9,118.3 347.1,169.1 265.5,121.8 251.1,146.8    332.7,193.9 287.3,216.4 300,242.2 350.1,217.4 350.1,280.9 300,256.1 287.3,281.8 333,304.6 271,340.3 285.4,365.1 347.3,329.4    344.8,367.9 373.3,369.7 376.3,326.1 425.5,354.7 438.3,328.9 378.9,294.6 378.9,203.9 457.3,158.4 535.9,203.9 535.9,294.6    488.4,322 501.4,347.7 538.5,326.1 542.2,382 570.7,380.2 567.5,329.4 649.1,376.5 663.5,351.7 581.8,304.6  "></polygon>
</g>
</svg>