<?xml version='1.0' encoding='utf-8'?>
<!-- Generator: Adobe Illustrator 27.2.0, SVG Export Plug-In . SVG Version: 6.00 Build 0)  --><svg xmlns="http://www.w3.org/2000/svg" xmlns:xlink="http://www.w3.org/1999/xlink" version="1.1" id="Vrstva_1" x="0px" y="0px" viewBox="0 0 781.4 566.9" style="enable-background:new 0 0 781.4 566.9;" xml:space="preserve" width="551.3494" height="400.0">
<g>
	<path d="M576.6,460c4.1,4.4,6.2,9.6,6.2,15.8s-2.1,11.4-6.2,15.8c-4.1,4.4-9.2,6.6-15.4,6.6h-25v-44.7h25   C567.3,453.4,572.5,455.6,576.6,460L576.6,460z M601,475.8c0-6.9-1.7-13.2-5.2-19c-3.5-5.7-8.3-10.3-14.3-13.7   c-6.1-3.4-12.9-5.1-20.3-5.1h-42.7v119.1h17.6v-43.3h25c7.7,0,14.6-1.7,20.7-5.1c6.1-3.4,10.8-8,14.2-13.7   C599.3,489,601,482.6,601,475.8L601,475.8L601,475.8z"></path>
	<path d="M474.9,473.4c3.8,6.8,5.7,14.8,5.7,24.1s-1.9,16.8-5.7,23.7s-9,12.2-15.6,16c-6.6,3.8-14,5.7-22.1,5.7s-15.4-1.8-22.1-5.6   c-6.6-3.8-11.8-9-15.6-15.9c-3.8-6.9-5.7-14.8-5.7-23.8s1.9-17,5.7-23.8c3.8-6.9,9-12.2,15.6-15.9c6.6-3.8,14-5.6,22.1-5.6   s15.4,1.8,22.1,5.5C465.9,461.3,471.1,466.5,474.9,473.4L474.9,473.4L474.9,473.4z M498.8,497.5c0-11.4-2.7-21.8-8-31.2   c-5.3-9.4-12.8-16.9-22.1-22.2c-9.4-5.5-19.9-8.1-31.4-8.1s-21.8,2.7-31.1,8c-9.4,5.4-16.8,12.8-22.2,22.1s-8.3,19.9-8.3,31.4   s2.7,21.6,8.3,31c5.5,9.4,12.9,16.9,22.4,22.4c9.4,5.5,19.8,8.3,31,8.3s22-2.8,31.4-8.3c9.4-5.5,16.8-13,22.1-22.4   C496.2,518.9,498.8,508.6,498.8,497.5L498.8,497.5z"></path>
	<polygon points="374.1,453.5 334.2,453.5 334.2,557 316.6,557 316.6,453.5 276.6,453.5 276.6,437.9 374.1,437.9  "></polygon>
	<path d="M264.5,542.7c-3.6,5.2-8.8,9.2-15.3,12.2s-14.1,4.2-22.6,4.2c-9.9,0-18.8-1.9-27-6c-8.1-3.9-14.6-9.2-19.2-15.9l14.7-9.4   c3.2,4.5,7.5,8.1,13.1,10.8c5.6,2.7,11.9,4,19.1,4c8.3,0,14.3-1.6,18.4-4.6c4-3.2,6-7.4,6-12.9c0-5-1.8-8.9-5.5-11.8   s-9.2-5.3-16.9-7l-11.6-2.7c-10.1-2.3-18.2-6.2-24.4-11.5c-6.3-5.4-9.4-12.8-9.4-22.2c0-6.6,1.7-12.4,5.1-17.5   c3.4-5.1,8.3-9.1,14.6-12c6.3-2.9,13.5-4.2,21.5-4.2c8.6,0,16.6,1.7,24.3,5.1c7.7,3.4,13.5,8,17.6,14.1l-14.7,9.4   c-2.9-3.9-6.9-6.8-11.8-9c-5-2.2-10.1-3.2-15.4-3.2c-7.3,0-13,1.6-17,4.6c-4,3-6,7.2-6,12.4c0,4.9,2.2,8.6,6.6,11.5   c4.4,2.8,10.9,5.4,19.9,7.4l11.5,2.7c19.8,4.7,29.8,16,29.8,33.8C269.9,531.4,268.1,537.5,264.5,542.7L264.5,542.7L264.5,542.7z"></path>
	<polygon points="776.5,360.2 675.1,360.2 675.1,206.5 774.8,206.5 774.8,226.6 697.8,226.6 697.8,272 763.3,272 763.3,292.2    697.8,292.2 697.8,340.2 776.5,340.2  "></polygon>
	<polygon points="638.4,360.2 625.2,360.2 537,252.4 537,360.2 515.2,360.2 515.2,206.5 527.4,206.5 616.6,317.2 616.6,206.5    638.4,206.5  "></polygon>
	<rect x="455.8" y="206.5" width="22.7" height="153.8"></rect>
	<path d="M312.5,313.5c4.6,9.1,11.2,16.3,19.5,21.5c8.3,5.2,17.9,7.8,28.6,7.8c9.6,0,18.1-1.6,25.5-4.9s12.9-7.2,16.4-11.7v-29.7   h-46.2v-20.1h68.1v83.9h-15.7l-6.1-11.3c-10.5,9.4-24.4,14-41.9,14c-15.6,0-29.3-3.5-41.3-10.7c-11.9-7.2-21.1-16.8-27.6-28.9   s-9.7-25.4-9.7-39.9s3.3-27.8,9.7-40c6.4-12,15.7-21.6,27.5-28.8c11.9-7.2,25.4-10.7,40.5-10.7c14.1,0,26.5,2.9,37.2,8.6   s19.6,13.6,26.5,23.7L405,247.7c-5.7-7.4-12.4-13-20.3-16.8c-7.9-3.8-16.5-5.7-26-5.7c-10.6,0-19.9,2.7-28.1,8   c-8,5.4-14.3,12.5-18.7,21.3c-4.4,8.8-6.6,18.2-6.6,28.3C305.6,294,307.9,304.3,312.5,313.5L312.5,313.5L312.5,313.5z"></path>
	<polygon points="155.2,360.2 133.4,360.2 133.4,206.5 145.6,206.5 234.7,317.2 234.7,206.5 256.6,206.5 256.6,360.2 243.4,360.2    155.2,252.4  "></polygon>
	<polygon points="106.3,360.2 4.9,360.2 4.9,206.5 104.5,206.5 104.5,226.6 27.7,226.6 27.7,272 93.2,272 93.2,292.2 27.7,292.2    27.7,340.2 106.3,340.2  "></polygon>
	<polygon points="639.8,25.3 600,25.3 600,128.9 582.3,128.9 582.3,25.3 542.3,25.3 542.3,9.8 639.8,9.8  "></polygon>
	<path d="M487.4,66.7h-20.3V25.3h20.3c6.9,0,12.4,1.8,16.7,5.6s6.3,8.6,6.3,14.7s-2.2,11.1-6.4,15.1   C499.7,64.6,494.2,66.7,487.4,66.7L487.4,66.7z M449.5,128.9h17.6V82.2h18.8l34.6,46.7h21l-38-50.4c7.7-2.4,13.7-6.6,18.3-12.3   c4.6-5.7,6.8-12.5,6.8-20.5c0-6.9-1.7-13-5.1-18.5c-3.4-5.5-8.3-9.7-14.5-12.8c-6.2-3.2-13.4-4.6-21.6-4.6h-37.9v119.1L449.5,128.9   L449.5,128.9z"></path>
	<path d="M398.4,87h-42.3l21.3-51L398.4,87z M371.7,9.8l-51.4,119.1h18.2l10.9-26.4h55.4l10.8,26.4h19L383.2,9.8L371.7,9.8   L371.7,9.8z"></path>
	<polygon points="237.8,9.8 335.3,9.8 335.3,25.3 295.3,25.3 295.3,128.9 277.7,128.9 277.7,25.3 237.8,25.3  "></polygon>
	<path d="M207.3,85.3c-3.6-2.9-9.2-5.3-16.9-7.1l-11.6-2.7c-10.1-2.3-18.2-6.2-24.4-11.5c-6.3-5.3-9.4-12.8-9.4-22.2   c0-6.6,1.7-12.4,5.1-17.5c3.4-5.1,8.3-9.1,14.6-12c6.3-2.9,13.5-4.4,21.5-4.4c8.6,0,16.6,1.7,24.3,5.1c7.7,3.4,13.5,8,17.6,14.1   l-14.7,9.4c-2.9-3.9-6.9-6.8-11.8-9c-5-2.2-10.1-3.2-15.4-3.2c-7.3,0-13,1.6-17,4.6c-4,3-6,7.2-6,12.4c0,4.9,2.2,8.6,6.6,11.5   c4.4,2.8,10.9,5.3,19.9,7.4l11.6,2.7c19.8,4.7,29.8,16,29.8,33.8c0,6.9-1.8,12.9-5.5,18.1s-8.8,9.2-15.3,12.2   c-6.6,2.9-14.1,4.2-22.6,4.2c-9.9,0-18.8-1.9-27-6c-8.1-3.9-14.6-9.2-19.2-15.9l14.7-9.4c3.2,4.5,7.5,8.1,13.1,10.8   c5.6,2.7,11.9,4,19.1,4c8.3,0,14.3-1.6,18.4-4.6c4-3.2,6-7.4,6-12.9S211,88.2,207.3,85.3L207.3,85.3L207.3,85.3z"></path>
</g>
</svg>