<?xml version='1.0' encoding='utf-8'?>
<!-- Generator: Adobe Illustrator 27.2.0, SVG Export Plug-In . SVG Version: 6.00 Build 0)  --><svg xmlns="http://www.w3.org/2000/svg" xmlns:xlink="http://www.w3.org/1999/xlink" version="1.1" id="Vrstva_1" x="0px" y="0px" viewBox="0 0 562.4 566.9" style="enable-background:new 0 0 562.4 566.9;" xml:space="preserve" width="396.82486" height="400.0">
<g>
	<path d="M557,131.8c0-68.7-55.3-124-124-124s-124,55.3-124,124c0,64.2,47.8,116.6,110.6,122.6v165.8h26.9V254.1   C507.6,248.4,557,195.9,557,131.8L557,131.8z M473.3,160.2H391v-55.3h82.3V160.2z"></path>
	<path d="M265.4,294.6l-6-1.4c-4.6-1.4-10.5-2.9-19.5-4.6c-16.4-2.9-40.3-6-68.7-6s-52.4,2.9-67.3,6c-8.9,1.4-15,2.9-19.4,4.6   l-8.9,1.4L48.6,338H5.4v26.9h26.9L5.4,406.7v131.5c0,13.4,13.4,20.9,20.9,20.9h26.9c7.5,0,20.9-7.5,20.9-20.9v-20.9h192.8v20.9   c0,13.4,13.4,20.9,20.9,20.9h26.9c7.5,0,20.9-7.5,20.9-20.9V406.7l-26.9-41.8h26.9V338h-43.4L265.4,294.6L265.4,294.6z M93.6,317.1   c4.6-1.4,8.9-1.4,13.4-2.9c13.4-2.9,37.3-6,62.8-6s49.3,2.9,62.8,6c6,1.4,8.9,1.4,13.4,2.9l38.9,61.2H54.7L93.6,317.1L93.6,317.1z    M205.6,406.8h95.7v47.8h-26.9L261,435.2h-34.4L205.6,406.8L205.6,406.8z M115.9,435.1H81.5L68.1,456H41.1v-47.8h95.7L115.9,435.1   L115.9,435.1z"></path>
</g>
</svg>