<?xml version='1.0' encoding='utf-8'?>
<!-- Generator: Adobe Illustrator 27.2.0, SVG Export Plug-In . SVG Version: 6.00 Build 0)  --><svg xmlns="http://www.w3.org/2000/svg" xmlns:xlink="http://www.w3.org/1999/xlink" version="1.1" id="Vrstva_1" x="0px" y="0px" viewBox="0 0 687.4 566.9" style="enable-background:new 0 0 687.4 566.9;" xml:space="preserve" width="485.0238" height="400.0">
<path d="M512.7,509.3H154.5c-38.5,0-73.6-14.8-101.1-40.4c-27.5-25.8-44.2-60.7-47.8-97.2C2,334.8,13,296.4,36.9,267  c23.9-29.4,56.9-49.7,93.7-56.9c14.8-44.2,44.2-82.7,82.7-110.2s84.6-42.3,130.5-42.3c40.4,0,79.1,11,114,31.3s62.4,49.7,82.7,84.6  c42.3,7.4,79.1,29.4,106.6,62.4c25.8,33,38.5,75.3,34.9,117.6c-3.6,42.3-22,82.7-53.3,110.2C597.3,490.9,555,509.3,512.7,509.3  L512.7,509.3z"></path>
</svg>