<?xml version='1.0' encoding='utf-8'?>
<svg xmlns="http://www.w3.org/2000/svg" id="Vrstva_1" data-name="Vrstva 1" viewBox="0 0 1121.94 566.93" width="791.5897" height="400.0">
  <path d="m115.17,457.86c-22.4,0-42.6-2.4-60.5-7.1-18-5.1-34.4-12.4-49.3-21.9l11.7-63.1c15.3,9.5,30.2,16.6,44.8,21.4,14.9,4.4,31.7,6.6,50.3,6.6,36.6,0,54.9-11,54.9-33.1,0-7.5-1.7-13.6-5.1-18.3-3.1-4.8-7.8-8.8-14.2-12.2-6.4-3.7-15.8-7.8-28-12.2l-24.9-9.7c-20-7.5-36.5-14.9-49.3-22.4-12.5-7.8-22.5-17.8-30-30-7.1-12.5-10.7-28.3-10.7-47.3,0-20.3,5.1-38,15.3-52.9,10-15.2,24.6-26.7,43.6-34.5,19-8.1,41.2-12.2,66.6-12.2,37.3,0,69.2,8.1,95.6,24.4l-12.7,62c-12.5-7.8-25.3-13.6-38.1-17.3s-27.1-5.6-42.7-5.6c-17.3,0-30.8,2.9-40.7,8.6-9.5,5.4-14.2,13.1-14.2,22.9,0,7.1,1.4,13.1,4.1,17.8,3.1,4.4,7.8,8.5,14.2,12.2,6.4,3.4,16.1,7.6,29,12.7l24.9,9.1c19.7,7.5,35.9,15.4,48.8,23.9,13.2,8.1,23.6,18.6,31,31.5,7.8,12.5,11.7,28.1,11.7,46.8,0,20-4.9,37.6-14.8,52.9-9.5,14.9-23.7,26.4-42.7,34.6s-41.8,12.4-68.6,12.4h0Z"></path>
  <path d="m252.77,114.56h78.3l65.7,142.4,64.6-142.4h77.3l-107.9,211.1v126.6h-69.7v-125.6l-108.3-212.1Z"></path>
  <path d="m574.57,114.56h46.8l135.3,197.3V114.56h67.1v337.7h-48.3l-134.3-196.3v196.3h-66.6V114.56h0Z"></path>
  <path d="m1033.67,458.36c-32.9,0-61.4-7.5-85.4-22.4-24.1-15.3-42.5-36.1-55.4-62.5-12.5-26.4-18.8-56.5-18.8-90s6.3-64.1,18.8-90.5c12.9-26.4,31.5-47.1,55.9-62,24.8-14.9,54.2-22.4,88.5-22.4,28.5,0,55.1,6.6,79.8,19.8l-13.2,63.1c-8.8-5.4-18.8-9.7-30-12.7-11.2-3.1-23.1-4.6-35.6-4.6-28.5,0-50.2,9.8-65.1,29.5-14.6,19.3-21.9,45.9-21.9,79.8s7.3,60.7,21.9,80.4c14.6,19.3,35.8,29,63.6,29,12.9,0,24.6-1.4,35.1-4.1,10.8-2.7,21.5-7,32-12.7l11.2,61.5c-24.1,13.9-51.2,20.8-81.4,20.8h0Z"></path>
</svg>