<?xml version='1.0' encoding='utf-8'?>
<!-- Generator: Adobe Illustrator 27.2.0, SVG Export Plug-In . SVG Version: 6.00 Build 0)  --><svg xmlns="http://www.w3.org/2000/svg" xmlns:xlink="http://www.w3.org/1999/xlink" version="1.1" id="Vrstva_1" x="0px" y="0px" viewBox="0 0 545.4 566.9" style="enable-background:new 0 0 545.4 566.9;" xml:space="preserve" width="384.82977" height="400.0">
<style type="text/css">
	.st0{fill-rule:evenodd;clip-rule:evenodd;}
</style>
<g>
	<path d="M208.9,255.3c-4.3-17.3-23-24.6-37.5-17.3L51.7,304.3c-28.8,15.9-44.7,46.1-44.7,77.8v72.1c0,49,41.8,90.9,90.9,90.9h200.4   c10.1,0,18.8-8.7,18.8-18.8s-8.7-18.7-18.8-18.7h-83.6v-27.4H350c10.1,0,18.8-8.7,18.8-18.8s-8.7-18.8-18.8-18.8H227.5v-26H376   c10.1,0,18.8-8.7,18.8-18.8s-8.7-18.8-18.8-18.8H227.6v-28.8h122.6c10.1,0,18.8-8.7,18.8-18.8s-8.7-18.8-18.8-18.8H147.1   c1.4,0,30.2-17.3,47.6-28.8C207.4,276.9,213.1,265.3,208.9,255.3L208.9,255.3z"></path>
	<path class="st0" d="M353,153c0,1.4,1.4,1.4,1.4,2.8s1.4,1.4,1.4,2.8c4.3,10.1,8.7,24.6,11.5,40.3c1.4,17.3,0,31.7-11.5,44.7   l17.3,28.8c21.6-24.6,24.6-56.2,21.6-80.7c-2.8-21.6-10.1-40.3-12.9-50.4c0-1.4-1.4-1.4-1.4-2.8s-1.4-1.4-1.4-2.8   c-4.3-10.1-8.7-24.6-11.5-40.3c-1.4-17.3,0-31.7,11.5-44.7l-17.3-28.8c-21.6,24.6-24.6,56.2-21.6,80.7   C341.5,124,348.8,144.3,353,153L353,153z"></path>
	<path class="st0" d="M423.6,153c0,1.4,1.4,1.4,1.4,2.8s1.4,1.4,1.4,2.8c4.3,10.1,8.7,24.6,11.5,40.3c1.4,17.3,0,31.7-11.5,44.7   l17.3,28.8c21.6-24.6,24.6-56.2,21.6-80.7c-2.8-21.6-10.1-40.3-14.5-50.4c0-1.4-1.4-1.4-1.4-2.8s-1.4-1.4-1.4-2.8   c-4.3-10.1-8.7-24.6-11.5-40.3c-1.4-17.3,0-31.7,11.5-44.7l-17.3-28.8c-21.4,24.3-24.3,56.1-21.4,80.5   C413.5,124,420.8,144.3,423.6,153L423.6,153z"></path>
	<path class="st0" d="M495.7,153c0,1.4,1.4,1.4,1.4,2.8s1.4,1.4,1.4,2.8c4.3,10.1,8.7,24.6,11.5,40.3c1.4,17.3,0,31.7-11.5,44.7   l17.3,28.8c21.6-24.6,24.6-56.2,21.6-80.7c-2.8-21.6-10.1-40.3-14.5-50.4c0-1.4-1.4-1.4-1.4-2.8s-1.4-1.4-1.4-2.8   c-4.3-10.1-8.7-24.6-11.5-40.3c-1.4-17.3,0-31.7,11.5-44.7l-17.2-29c-21.6,24.6-24.6,56.2-21.6,80.7   C485.7,124,492.9,144.3,495.7,153L495.7,153z"></path>
</g>
</svg>