<?xml version='1.0' encoding='utf-8'?>
<!-- Generator: Adobe Illustrator 27.2.0, SVG Export Plug-In . SVG Version: 6.00 Build 0)  --><svg xmlns="http://www.w3.org/2000/svg" xmlns:xlink="http://www.w3.org/1999/xlink" version="1.1" id="Vrstva_1" x="0px" y="0px" viewBox="0 0 483.8 566.9" style="enable-background:new 0 0 483.8 566.9;" xml:space="preserve" width="341.3653" height="400.0">
<style type="text/css">
	.st0{fill-rule:evenodd;clip-rule:evenodd;}
</style>
<g>
	<path d="M420.8,417.7l50,72.3c-10.6,7.1-21.7,13.9-33.5,20.2l-48-69.4C400.7,433.6,411.2,425.8,420.8,417.7L420.8,417.7z"></path>
	<path d="M317.3,471.9l18,75.3c-12.4,2.6-25.3,4.7-38.6,6.3l-17.8-74.3C292.4,477.5,305.2,475.1,317.3,471.9L317.3,471.9z"></path>
	<path d="M204.9,478.8l-16.4,74.3c-13.3-1.6-26.1-3.8-38.5-6.5l16.6-75.4C178.7,474.6,191.4,477.2,204.9,478.8L204.9,478.8z"></path>
	<path d="M95,439.9l-47.7,68.9c-11.7-6.3-22.8-13.1-33.4-20.3l49.7-71.8C73.2,425,83.6,432.8,95,439.9L95,439.9z"></path>
	<path class="st0" d="M117.2,407.8c-11.5-7.1-21.9-15-31.3-23.3l0,0C27.7,333.2,7.8,266.3,7.8,266.3s83.6-141.8,233.8-141.8   S476,266.8,476,266.8s-19.3,67.4-77.5,118.6c-9.4,8.3-19.8,16.1-31.4,23.2c-17.1,10.5-36.6,19.3-58.9,25.2c-12,3.2-24.8,5.6-38.5,7   c-8.6,0.9-17.5,1.3-26.8,1.3c-10.3,0-20.2-0.6-29.6-1.6l0,0c-13.6-1.5-26.3-4-38.3-7.4l0,0C153.3,427.1,134.1,418.3,117.2,407.8   L117.2,407.8L117.2,407.8z M317.1,283.3c0,41.5-33.7,75.2-75.2,75.2s-75.2-33.7-75.2-75.2s33.7-75.2,75.2-75.2   S317.1,241.8,317.1,283.3z"></path>
	<path d="M469.2,79l-48.8,70.4c-9.9-7.6-20.6-15.1-32.2-22l47.1-68C447.1,65.6,458.4,72.1,469.2,79L469.2,79z"></path>
	<path d="M334.8,21.2l-17.9,74.8c-12.2-3.5-24.9-6.2-38.2-8.1l17.7-74C309.6,15.8,322.4,18.2,334.8,21.2L334.8,21.2z"></path>
	<path d="M188.5,13.7l16.4,74.2c-13.3,1.8-26,4.5-38.2,8l-16.6-75.2C162.6,17.8,175.4,15.4,188.5,13.7L188.5,13.7z"></path>
	<path d="M48.1,58.9l47.2,68.2c-11.6,7-22.3,14.4-32.2,22L14.2,78.5C25,71.7,36.3,65.1,48.1,58.9z"></path>
</g>
</svg>