<?xml version='1.0' encoding='utf-8'?>
<!-- Generator: Adobe Illustrator 27.2.0, SVG Export Plug-In . SVG Version: 6.00 Build 0)  --><svg xmlns="http://www.w3.org/2000/svg" xmlns:xlink="http://www.w3.org/1999/xlink" version="1.1" id="Vrstva_1" x="0px" y="0px" viewBox="0 0 618.4 566.9" style="enable-background:new 0 0 618.4 566.9;" xml:space="preserve" width="436.33798" height="400.0">
<g>
	<path d="M127.7,311v244.6H89.8V352.4l-70,35.1l-16-26.4l97.7-50L127.7,311L127.7,311z"></path>
	<path d="M171.8,433.3c0-79.2,36.4-126.4,102-126.4s102.1,47.3,102.1,126.4s-36.5,126.4-102.1,126.4S171.8,512.5,171.8,433.3   L171.8,433.3L171.8,433.3z M336.5,433.3c0-60.5-21.1-93.1-62.7-93.1s-62.6,32.6-62.6,93.1s21.1,93,62.6,93   C315.3,526.3,336.5,493,336.5,433.3z"></path>
	<path d="M402.5,433.3c0-79.2,36.4-126.4,102.1-126.4s102.1,47.3,102.1,126.4s-36.5,126.4-102.1,126.4S402.5,512.5,402.5,433.3   L402.5,433.3L402.5,433.3z M567.2,433.3c0-60.5-21.1-93.1-62.7-93.1s-62.8,32.6-62.8,93.1s21.1,93,62.8,93   C546,526.3,567.2,493,567.2,433.3z"></path>
	<path d="M186.9,43.3h-75.5v212.6H78.1V43.3H2.6v-32h184.3V43.3z"></path>
	<path d="M189.7,133.6c0-72.2,51.2-126.4,116.5-126.4s116.4,55.2,116.4,126.4s-49.8,126.4-116.4,126.4S189.7,204.5,189.7,133.6   L189.7,133.6z M388.1,133.6c0-58.4-35.8-93.1-81.9-93.1s-81.9,36.1-81.9,93.1s35.9,93.1,81.9,93.1S388.1,189.9,388.1,133.6z"></path>
	<path d="M615.8,89.2c0,42.4-30.7,77.8-75.5,77.8h-47.4v88.9h-33.3V11.3h80.7C583.8,11.3,615.8,46.8,615.8,89.2L615.8,89.2   L615.8,89.2z M581.3,89.2c0-25-17-45.8-41-45.8h-47.4V135h47.4C564.3,135,581.3,114.2,581.3,89.2z"></path>
</g>
</svg>