<?xml version='1.0' encoding='utf-8'?>
<svg xmlns="http://www.w3.org/2000/svg" id="Vrstva_1" data-name="Vrstva 1" viewBox="0 0 575.5 566.9" width="406.06808" height="400.0">
  <defs>
    <style>
      .cls-1 {
        fill-rule: evenodd;
      }
    </style>
  </defs>
  <path class="cls-1" d="m567.86,128.06l-.05-.88C492.85,61.83,394.93,22.26,287.79,22.26S82.67,61.85,7.68,127.25l-.05.88,25.87,29.85c68.02-59.5,156.96-95.54,254.29-95.54s186.21,36.01,254.2,95.47l25.88-29.85h0Zm-299.87,295.34c-.18-3.1-.25-6.22-.25-9.36,0-25.02,5.36-48.79,14.99-70.21-25.18,1.05-48.37,9.88-67.23,24.14l47.72,55.06c1.58.14,3.16.26,4.76.37h0Zm19.78-294.1c80.57,0,154.19,29.82,210.46,79.08l-26.28,30.33c-49.26-43.11-113.67-69.22-184.19-69.22s-134.99,26.13-184.23,69.27l-26.29-30.33c56.29-49.28,129.94-79.13,210.53-79.13h0Zm87.55,125.84c-26.72-12.06-56.37-18.77-87.57-18.77-53.8,0-102.93,19.95-140.49,52.87l26.29,30.33c30.51-26.79,70.45-43.01,114.19-43.01,14.63,0,28.85,1.82,42.41,5.24,13.48-11.07,28.69-20.11,45.15-26.65h.02Z"></path>
  <path class="cls-1" d="m437.81,544.64c71.83,0,130.05-58.47,130.05-130.59s-58.23-130.59-130.05-130.59-130.05,58.47-130.05,130.59,58.23,130.59,130.05,130.59h0Zm15.73-227.4h-32.41v118.71h32.41v-118.71h0Zm5.19,172.34c0-11.69-9.44-21.15-21.06-21.15s-21.07,9.47-21.07,21.15,9.44,21.15,21.07,21.15,21.06-9.47,21.06-21.15h0Z"></path>
</svg>