<?xml version='1.0' encoding='utf-8'?>
<!-- Generator: Adobe Illustrator 27.2.0, SVG Export Plug-In . SVG Version: 6.00 Build 0)  --><svg xmlns="http://www.w3.org/2000/svg" xmlns:xlink="http://www.w3.org/1999/xlink" version="1.1" id="Vrstva_1" x="0px" y="0px" viewBox="0 0 592.4 566.9" style="enable-background:new 0 0 592.4 566.9;" xml:space="preserve" width="417.9926" height="400.0">
<g>
	<path d="M3.5,154.6C83.1,89.4,184.9,51.2,296.1,51.2s213.2,38.2,292.8,103.4L546,210.3c-68.3-55.7-154.3-87.5-248.1-87.5   s-181.4,33.4-248.2,87.5L3.5,154.6L3.5,154.6z"></path>
	<path d="M509.3,253.2c-58.8-47.7-132.1-76.4-213.2-76.4s-154.2,28.7-213,74.7l44.6,54.1c46.2-38.2,105-60.5,168.6-60.5   s122.4,22.3,168.6,60.5L509.3,253.2L509.3,253.2z"></path>
	<path d="M429.7,351.9c-36.5-30.1-82.8-47.7-133.5-47.7s-97,17.5-133.5,47.7l44.6,54.1c23.9-19,55.7-31.8,89.1-31.8   s65.2,11.1,89.1,31.8L429.7,351.9L429.7,351.9z"></path>
	<path d="M349.4,450.5c-14.3-11.1-33.4-19-54.1-19s-38.2,6.4-52.4,19l54.1,65.2L349.4,450.5z"></path>
</g>
</svg>