<?xml version='1.0' encoding='utf-8'?>
<!-- Generator: Adobe Illustrator 27.2.0, SVG Export Plug-In . SVG Version: 6.00 Build 0)  --><svg xmlns="http://www.w3.org/2000/svg" xmlns:xlink="http://www.w3.org/1999/xlink" version="1.1" id="Vrstva_1" x="0px" y="0px" viewBox="0 0 449 566.9" style="enable-background:new 0 0 449 566.9;" xml:space="preserve" width="316.8107" height="400.0">
<style type="text/css">
	.st0{fill:#010101;}
	.st1{fill:#FFFFFF;}
	.st2{fill:#51F093;}
</style>
<g>
	<g>
		<g>
			<g>
				<g>
					<g>
						<g>
							<path class="st0" d="M65,304.6c0,77.8,63.1,141,141,141s141-63.1,141-141h37.6c0,92.3-70,168.2-159.7,177.5v66.8h-37.6v-66.8         c-89.8-9.4-159.7-85.3-159.7-177.5H65z M205.9,22.7c22,0,42.3,6.9,59.1,18.6c-8.7,15.3-13.7,33.1-13.7,52         c0,41.1,23.6,76.7,58,94v107.9c0,57.1-46.3,103.4-103.4,103.4s-103.4-46.3-103.4-103.4V126C102.5,69,148.8,22.7,205.9,22.7z"></path>
							<path class="st1" d="M205.9,22.7c22,0,42.3,6.9,59.1,18.6c-8.7,15.3-13.7,33.1-13.7,52c0,41.1,23.6,76.7,58,94v107.9         c0,57.1-46.3,103.4-103.4,103.4c-57.1,0-103.4-46.3-103.4-103.4V126C102.5,69,148.8,22.7,205.9,22.7 M384.4,304.6         c0,92.3-70,168.2-159.7,177.5v66.8h-37.6v-66.8c-89.8-9.4-159.7-85.3-159.7-177.5H65c0,77.8,63.1,141,141,141         s141-63.1,141-141H384.4 M205.9,12.7c-30.3,0-58.7,11.8-80.2,33.2C104.3,67.3,92.5,95.8,92.5,126v169.1         c0,30.3,11.8,58.7,33.2,80.2c21.4,21.4,49.9,33.2,80.2,33.2c30.3,0,58.7-11.8,80.2-33.2c21.4-21.4,33.2-49.9,33.2-80.2V187.2         v-6.2l-5.5-2.8c-32.4-16.3-52.5-48.9-52.5-85.1c0-16.5,4.3-32.7,12.4-47l4.5-7.9l-7.5-5.2C251.6,19.7,229.2,12.7,205.9,12.7         L205.9,12.7z M394.4,294.6h-10h-37.6h-10v10c0,72.2-58.7,131-131,131s-131-58.7-131-131v-10H65H27.4h-10v10         c0,46.9,17.3,91.8,48.8,126.6c29.2,32.2,68.3,53.2,110.9,59.8v58v10h10h37.6h10v-10v-58c42.6-6.5,81.7-27.5,110.9-59.8         c31.5-34.7,48.8-79.7,48.8-126.6V294.6L394.4,294.6z"></path>
						</g>
						<circle class="st2" cx="356.5" cy="93.2" r="75.2"></circle>
					</g>
				</g>
			</g>
		</g>
	</g>
</g>
</svg>