<?xml version='1.0' encoding='utf-8'?>
<svg xmlns="http://www.w3.org/2000/svg" id="Vrstva_1" data-name="Vrstva 1" viewBox="0 0 571.07 566.93" width="402.921" height="400.0">
  <path d="m443.79,335.17c1.46-3.96,7.07-3.96,8.54,0l28.75,77.73,77.68,28.77c3.95,1.47,3.95,7.07,0,8.54l-77.68,28.75-28.75,77.74c-1.46,3.96-7.07,3.96-8.54,0l-28.75-77.74-77.84-28.81c-3.9-1.44-3.9-6.96,0-8.41l77.84-28.83,28.75-77.73ZM228.39,13.2c2.93-7.91,14.11-7.91,17.04,0l57.5,155.47,155.39,57.51c7.91,2.93,7.91,14.13,0,17.06l-155.39,57.53-57.5,155.47c-2.93,7.91-14.11,7.91-17.04,0l-57.5-155.47L15.2,243.13c-7.8-2.89-7.8-13.93,0-16.82l155.69-57.64L228.39,13.2Z" fill="#53A7F5"></path>
</svg>