<?xml version='1.0' encoding='utf-8'?>
<svg xmlns="http://www.w3.org/2000/svg" id="Vrstva_1" data-name="Vrstva 1" viewBox="0 0 501.01 566.93" width="353.48987" height="400.0">
  <defs>
    <style>
      .cls-1 {
        fill: #fff;
      }

      .cls-2, .cls-3 {
        fill: #dc1a18;
      }

      .cls-3 {
        fill-rule: evenodd;
      }
    </style>
  </defs>
  <g>
    <path d="m65.31,18.19c15.39,0,27.86,12.47,27.86,27.86v83.58H18.88V18.19h46.43Z"></path>
    <path class="cls-1" d="m65.31,18.19c15.39,0,27.86,12.47,27.86,27.86v83.58H18.88V18.19h46.43m0-11.81H7.07v135.06h97.92V46.05c0-21.88-17.8-39.67-39.67-39.67h0Z"></path>
  </g>
  <g>
    <path d="m90.58,538.24L18.89,166.77h74.29l84.63,115.8c8.89,10.35,13.68,23.61,13.45,37.25l-1.5,88.4,9.85-1.51c3.12,14.85,7.69,30.67,13.85,47.55,6.47,18.83,6.94,30.9,5.71,37.97-1,5.77-3.38,10.39-9.51,15.33l-26.02,20.99-14.06,9.68h-78.99Z"></path>
    <path class="cls-1" d="m93.18,166.77l84.63,115.8c8.89,10.35,13.68,23.61,13.45,37.25l-1.5,88.4,9.85-1.51c3.12,14.85,7.69,30.67,13.85,47.55,6.47,18.83,6.94,30.9,5.71,37.97-1,5.77-3.38,10.39-9.51,15.33l-26.02,20.99-14.06,9.68h-78.99S18.89,166.77,18.89,166.77h74.29m6-11.81H4.58l2.71,14.05,71.69,371.46,1.85,9.57h9.75s78.99-.01,78.99-.01h3.67s3.02-2.08,3.02-2.08l14.06-9.68.37-.25.35-.28,26.02-20.99c7.91-6.37,12.14-13.32,13.73-22.51,1.97-11.4-.11-26.15-6.18-43.82l-.04-.11-.04-.11c-5.84-16-10.34-31.46-13.38-45.93l-2.3-10.95-7.06,1.08,1.26-74.4c.28-16.39-5.39-32.28-15.98-44.78l-84.37-115.44-3.54-4.84h0Z"></path>
  </g>
  <g>
    <path d="m460.59,514.1l20.88-55.27c11.73-31.06-11.32-68.42-42.04-80.22l1.51,5.87c1.98,9.81,5.21,21.5,10.27,35.31l.21.57.1.28c10.04,29.01,15.06,59.34,9.95,88.92-.26,1.53-.55,3.04-.87,4.54Z"></path>
    <path class="cls-1" d="m439.43,378.61c30.72,11.8,53.78,49.15,42.04,80.22l-20.88,55.27c.32-1.5.61-3.02.87-4.54,5.12-29.58.1-59.91-9.95-88.92l-.1-.28-.21-.57c-5.06-13.8-8.29-25.5-10.27-35.31l-1.51-5.87m-17.16-19.25l5.72,22.19,1.44,5.57c2.29,11.24,5.88,23.6,10.69,36.72l.17.47.06.17c10.55,30.47,13.74,58.41,9.47,83.05-.24,1.37-.5,2.76-.79,4.14l22.61,6.6,20.88-55.27c6.77-17.91,4.7-38.23-5.82-57.23-9.68-17.48-25.37-31.4-43.04-38.19l-21.4-8.22h0Z"></path>
  </g>
  <path class="cls-3" d="m263.03,349.6c-1.74,18.13.96,44.43,14.58,81.62l.11.29c8.91,25.73,12.44,50.09,8.6,72.28-3.92,22.65-15.32,41.8-33.88,56.76l-21.79-27.03c12.23-9.86,19.03-21.61,21.46-35.66,2.51-14.48.54-32.59-7.15-54.86-14.82-40.51-18.85-72.08-16.49-96.72l34.56,3.31Z"></path>
  <path class="cls-2" d="m214.19,350.98l30.82-82.35,31.67,82.35h-62.49Z"></path>
  <path class="cls-3" d="m334.13,349.6c-1.74,18.13.96,44.43,14.58,81.62l.11.29c8.91,25.73,12.44,50.09,8.6,72.28-3.92,22.65-15.32,41.8-33.88,56.76l-21.79-27.03c12.23-9.86,19.03-21.61,21.46-35.66,2.51-14.48.54-32.59-7.15-54.86-14.82-40.51-18.85-72.08-16.49-96.72l34.56,3.31Z"></path>
  <path class="cls-2" d="m285.29,350.98l30.82-82.35,31.67,82.35h-62.49Z"></path>
  <path class="cls-3" d="m405.23,349.6c-1.74,18.13.96,44.43,14.58,81.62l.11.29c8.91,25.73,12.44,50.09,8.6,72.28-3.92,22.65-15.32,41.8-33.88,56.76l-21.79-27.03c12.23-9.86,19.03-21.61,21.46-35.66,2.51-14.48.54-32.59-7.15-54.86-14.82-40.51-18.85-72.08-16.49-96.72l34.56,3.31Z"></path>
  <path class="cls-2" d="m356.39,350.98l30.82-82.35,31.67,82.35h-62.49Z"></path>
</svg>