<?xml version='1.0' encoding='utf-8'?>
<!-- Generator: Adobe Illustrator 27.2.0, SVG Export Plug-In . SVG Version: 6.00 Build 0)  --><svg xmlns="http://www.w3.org/2000/svg" xmlns:xlink="http://www.w3.org/1999/xlink" version="1.1" id="Vrstva_1" x="0px" y="0px" viewBox="0 0 1150.6 566.9" style="enable-background:new 0 0 1150.6 566.9;" xml:space="preserve" width="811.8539" height="400.0">
<style type="text/css">
	.st0{fill-rule:evenodd;clip-rule:evenodd;}
</style>
<g>
	<g>
		<polygon class="st0" points="879,517.9 879,49 1146.8,283.5   "></polygon>
		<polygon class="st0" points="603.7,517.9 603.7,49 871.6,283.5   "></polygon>
	</g>
	<g>
		<path d="M159.5,130.1v343.2h-35.1V173.4l-93.6,48.3l-15.7-24.4l122.6-67.2H159.5z"></path>
		<path d="M167.5,481.3h-51.1V186.6L28,232.2L3.7,194.4l131.9-72.3h31.9L167.5,481.3L167.5,481.3z M132.4,465.3h19.1V138.1h-11.8    L26.5,200.2l7.1,11.1l98.8-51L132.4,465.3L132.4,465.3z"></path>
	</g>
	<g>
		<path d="M466,368.1c0,59.4-46.3,111-124.9,111c-46.9,0-82.4-15.1-109.8-47.7l21.5-24.9c22,25.8,49.2,40.4,87.3,40.4    c50.1,0,88.7-30.6,88.7-78.6s-36.1-80.9-91.2-80.9c-26.9,0-55.7,7.8-79,30.8l-17.5-20.9L263,130.1h183.9v32.1H291.3l-15.5,112.1    c17.5-12.1,38.6-19.1,65.4-19.1C415.7,255.2,466,303.2,466,368.1L466,368.1L466,368.1z"></path>
		<path d="M341.1,487.1c-49.5,0-87.4-16.5-115.9-50.5l-4.4-5.2l32.1-37.1l6.1,7.1c21.9,25.7,47.7,37.6,81.2,37.6    c47.5,0,80.7-29,80.7-70.6c0-43.6-33.4-72.9-83.2-72.9c-29.5,0-54.2,9.6-73.4,28.5l-6.2,6l-25.3-30.2L256,122.1h198.9v48.1H298.3    l-12.3,88.9c16.3-8,34.5-11.8,55.2-11.8c37.8,0,71.8,12.2,95.8,34.2c17.2,15.8,28.8,36.1,34,58.9l2.2,12.9l0.8,14.9    c0,32.2-12.6,61.8-35.5,83.6C414.1,474.9,380.4,487.1,341.1,487.1L341.1,487.1z M241.9,431.4c25,27.1,56.7,39.7,99.2,39.7    c80,0,116.5-53,116.9-102.4v-0.6c0-61.7-48-104.9-116.9-104.9c-23.8,0-43.7,5.8-60.8,17.6l-15,10.4l19-137.1h154.6v-16.1H270    l-20.5,156.9l9.9,11.8c21.2-17.9,48.1-27.2,78.3-27.2c58.4,0,99.2,36.5,99.2,88.9c0,25.2-10.1,47.7-28.4,63.4    c-17.5,15-41.8,23.2-68.4,23.2c-35,0-63.6-11.9-87.2-36.4L241.9,431.4L241.9,431.4z"></path>
	</g>
</g>
</svg>