<?xml version='1.0' encoding='utf-8'?>
<!-- Generator: Adobe Illustrator 27.2.0, SVG Export Plug-In . SVG Version: 6.00 Build 0)  --><svg xmlns="http://www.w3.org/2000/svg" xmlns:xlink="http://www.w3.org/1999/xlink" version="1.1" id="Vrstva_1" x="0px" y="0px" viewBox="0 0 551.2 566.9" style="enable-background:new 0 0 551.2 566.9;" xml:space="preserve" width="388.92218" height="400.0">
<style type="text/css">
	.st0{fill-rule:evenodd;clip-rule:evenodd;fill:#010101;}
</style>
<g>
	<path class="st0" d="M421.4,155.6c4.8-1.7,10-2.6,15.4-2.6c25.4,0,46,20.6,46,46v117.7c0,8.5,6.9,15.4,15.4,15.4   c8.5,0,15.3-6.9,15.3-15.4V123.5L472,82l21.7-21.7l50.5,50.5v205.9c0,25.4-20.6,46-46,46s-46-20.6-46-46V199   c0-8.5-6.9-15.4-15.4-15.4c-8.5,0-15.3,6.9-15.4,15.4v194.4h30.7v30.7H255.7c1-6.7,1.5-13.6,1.5-20.6c0-37.4-14.2-71.4-37.4-97   l17-34.8l1.9-4.6c3.6-10.8,2.3-22.8-3.8-32.6c-5.7-9.1-14.9-15.2-25.2-17.2l0,0l-0.1,0c-0.4-0.1-0.7-0.1-1.1-0.1   c-0.7-0.1-1.4-0.2-2.1-0.3c-1.1-0.1-2.3-0.2-3.4-0.2l-0.8-0.1l-0.3,0l-0.1,0h-5.7V14.8h225.1L421.4,155.6L421.4,155.6z    M252.5,184.3h53l-24.3,50.2h22.2l69.5-80.1h-53l24.3-50.2H322L252.5,184.3z"></path>
	<path class="st0" d="M192.7,254.9h-24.3l-23.1,47.5c-10.2-3.3-21-5-32.3-5c-58.5,0-106,47.5-106,106.1c0,36.5,18.4,68.6,46.3,87.7   l-29.6,60.9h34l23.1-47.5c10.2,3.2,21,5,32.2,5c58.5,0,106-47.5,106-106.1c0-36.4-18.3-68.5-46.2-87.7l29.7-60.9h-0.2l-0.1,0h-0.4   L192.7,254.9L192.7,254.9z M112.9,328c6.4,0,12.7,0.8,18.7,2.3L66.9,463.2c-17.8-13.8-29.3-35.5-29.3-59.8   C37.5,361.8,71.3,328,112.9,328L112.9,328z M112.9,479c-6.4,0-12.6-0.8-18.6-2.3l64.7-132.9c17.8,13.8,29.2,35.4,29.2,59.7   C188.3,445.2,154.5,479,112.9,479L112.9,479z"></path>
</g>
</svg>