<?xml version='1.0' encoding='utf-8'?>
<svg xmlns="http://www.w3.org/2000/svg" id="Vrstva_1" data-name="Vrstva 1" viewBox="0 0 551.2 566.9" width="388.92218" height="400.0">
  <defs>
    <style>
      .cls-1 {
        fill-rule: evenodd;
      }
    </style>
  </defs>
  <path class="cls-1" d="m140.72,391.53c8.01,10.01,17.11,19.12,27.13,27.13l-66.64,66.64-27.13-27.13,66.64-66.64Zm115.7,160.78v-96.96c6.3.7,12.7,1.05,19.18,1.05s12.88-.36,19.18-1.05v96.96h-38.36Zm197.43-63.16l-70.49-70.49c10.01-8.01,19.12-17.11,27.13-27.13l70.49,70.49-27.13,27.13Zm90.29-186.19h-96.96c.7-6.3,1.05-12.7,1.05-19.18s-.36-12.88-1.05-19.18h96.96v38.36Zm-63.16-197.43l-70.49,70.49c-8.01-10.01-17.11-19.12-27.13-27.13l70.49-70.49,27.13,27.13ZM294.78,15.25v96.96c-6.3-.7-12.7-1.05-19.18-1.05s-12.88.36-19.18,1.05V15.25h38.36ZM101.21,82.26l66.64,66.64c-10.01,8.01-19.12,17.11-27.13,27.13l-66.64-66.64,27.13-27.13ZM7.07,264.6h96.96c-.7,6.3-1.05,12.7-1.05,19.18s.36,12.88,1.05,19.18H7.07v-38.36Zm268.53,153.45c74.15,0,134.27-60.11,134.27-134.27s-60.11-134.27-134.27-134.27-134.27,60.11-134.27,134.27,60.11,134.27,134.27,134.27Z"></path>
</svg>