<?xml version='1.0' encoding='utf-8'?>
<!-- Generator: Adobe Illustrator 27.2.0, SVG Export Plug-In . SVG Version: 6.00 Build 0)  --><svg xmlns="http://www.w3.org/2000/svg" xmlns:xlink="http://www.w3.org/1999/xlink" version="1.1" id="Vrstva_1" x="0px" y="0px" viewBox="0 0 363.9 566.9" style="enable-background:new 0 0 363.9 566.9;" xml:space="preserve" width="256.76486" height="400.0">
<style type="text/css">
	.st0{fill-rule:evenodd;clip-rule:evenodd;}
</style>
<g>
	<path class="st0" d="M317.2,529.3c-14,16.5-33.1,26.8-57.3,26.8c-30.1,0-50.6-20.4-65.3-37.1c-3.4-3.8-6.7-7.8-9.8-11.5   c-0.5-0.5-0.9-1.1-1.4-1.6c-3.6-4.3-7.1-8.4-10.7-12.3c-7.1-7.9-13.7-14-20.5-18.3c-14.5-9.1-28.3-11.8-44.7-14.4   c-1.1-0.2-2.2-0.3-3.2-0.5c-15.2-2.4-33.8-5.2-51.8-16c-24.5-14.7-37.8-30.6-42.9-53.1c-2.3-10.1-2.7-20.9-2.7-31.7   c0-5.1,0.1-10.6,0.2-16.2c0-0.4,0-0.8,0-1.2c0.1-6.1,0.2-12.6,0.2-19.6h39c0,7.4-0.1,14.1-0.2,20.3c0,0.4,0,0.8,0,1.1   c-0.1,5.8-0.2,10.9-0.2,15.6c0,10.2,0.5,17.4,1.8,23.2c2.1,9.3,6.7,17.3,25,28.3c11.3,6.8,22.9,8.6,39.7,11.2   c0.5,0.1,0.9,0.1,1.4,0.2c17,2.7,37.7,6.3,59.3,19.8c11.2,7,20.6,16.3,28.7,25.1c4.1,4.5,7.9,9.1,11.6,13.4   c0.5,0.6,0.9,1.1,1.4,1.7c3.2,3.8,6.2,7.4,9.2,10.8c14.6,16.6,24.8,23.9,36.1,23.9s20.3-4.5,27.6-13.1c7.9-9.4,14.5-23.9,19.4-43.3   c9.8-38.9,11.4-90.2,11.4-138.4h39c0,47.9-1.5,103.7-12.6,147.9C339,492.4,330.6,513.5,317.2,529.3L317.2,529.3z"></path>
	<path class="st0" d="M146.4,103.7l0,69.3h80.9v-69.3c-11.9-7.6-25.8-11.9-40.5-11.9S158.3,96,146.4,103.7z M105.9,84.3   C105.9,84.3,105.9,84.3,105.9,84.3l0,88.6h-0.4v81h0.4l0,74.4c21.2,20.5,49.7,33,80.9,33s59.7-12.5,80.9-33l0-101.8l0,0v-73.8h40.3   v-40.5h-40.2v-28l0,0V43.9c-21.2-20.5-49.7-33.1-81-33.1s-59.8,12.5-81,33.1L105.9,84.3L105.9,84.3z M227.4,254h-80.9v55   c11.9,7.6,25.8,11.9,40.5,11.9s28.5-4.3,40.4-11.9L227.4,254L227.4,254z M105.6,152.8H65.1v-40.5h40.5   C105.6,112.3,105.6,152.8,105.6,152.8z"></path>
</g>
</svg>