<?xml version='1.0' encoding='utf-8'?>
<svg xmlns="http://www.w3.org/2000/svg" id="Vrstva_1" data-name="Vrstva 1" viewBox="0 0 564.05 566.93" width="397.96802" height="400.0">
  <path d="m366.04,218.67c15.68,0,28.4,12.72,28.4,28.4v270.24c0,15.68-12.72,28.4-28.4,28.4H54.93c-15.68,0-28.4-12.72-28.4-28.4V247.07c0-15.68,12.72-28.4,28.4-28.4h311.11Zm191.91,40.88v245.27h-50.49l-72.15-58.42v-128.44l72.15-58.42h50.49Zm-347.47,71.67v57.91h40.88v-57.91h-40.88Zm0-112.42v74.94h40.88v-74.94h-40.88Zm28.08-129.56l23.74,13.73c-6.95,12.01-10.94,25.95-10.94,40.88v37.47h-40.88v-37.47c0-14.93-3.99-28.87-10.94-40.88l23.74-13.73c1.14-2.29,2.35-4.53,3.62-6.73l4.02,2.32,4.02-2.32c1.27,2.2,2.48,4.45,3.62,6.73Zm-180.65,13.73c-6.95,12.01-10.94,25.95-10.94,40.88v20.44H6.09v-20.44c0-22.31,5.97-43.28,16.42-61.34l35.4,20.47Zm381.43-20.47c10.45,18.06,16.42,39.04,16.42,61.34v20.44h-40.88v-20.44c0-14.93-3.99-28.87-10.94-40.88l35.4-20.47ZM128.73,21.23c22.31,0,43.28,5.97,61.34,16.42l-20.47,35.4c-12.01-6.95-25.95-10.94-40.88-10.94s-28.87,3.99-40.88,10.94l-20.47-35.4c18.06-10.45,39.04-16.42,61.34-16.42Zm204.39,0c22.31,0,43.28,5.97,61.35,16.42l-20.47,35.4c-12-6.95-25.95-10.94-40.88-10.94s-28.87,3.99-40.88,10.94l-20.47-35.4c18.06-10.45,39.04-16.42,61.35-16.42Z"></path>
</svg>