<?xml version='1.0' encoding='utf-8'?>
<!-- Generator: Adobe Illustrator 27.2.0, SVG Export Plug-In . SVG Version: 6.00 Build 0)  --><svg xmlns="http://www.w3.org/2000/svg" xmlns:xlink="http://www.w3.org/1999/xlink" version="1.1" id="Vrstva_1" x="0px" y="0px" viewBox="0 0 553.5 566.9" style="enable-background:new 0 0 553.5 566.9;" xml:space="preserve" width="390.54504" height="400.0">
<g>
	<path d="M155.5,482.2c35.3,21.6,76.8,34,121.3,34s83.8-11.8,118.5-32.4l26.4,26.4c-41.8,26.8-91.6,42.3-145,42.3   s-105.2-16.2-147.6-44L155.5,482.2L155.5,482.2z M501.9,135.9c27.9,42.4,44.1,93.1,44.1,147.6s-16.2,105.2-44,147.6l-26.4-26.4   c21.6-35.3,34-76.8,34-121.2s-12.4-85.9-34-121.3L501.9,135.9L501.9,135.9z M76.4,164.9C55.8,199.6,44,240.2,44,283.5   S55.8,367.3,76.4,402l-26.4,26.4c-26.8-41.8-42.3-91.6-42.3-145s15.5-103.1,42.3-145L76.4,164.9L76.4,164.9z M276.7,14.3   c53.4,0,103.1,15.5,145,42.3l-26.4,26.4C360.5,62.5,320,50.7,276.7,50.7s-85.9,12.4-121.2,34l-26.4-26.4   C171.5,30.5,222.2,14.3,276.7,14.3L276.7,14.3z" fill="#F54C4C"></path>
	<path d="M226.7,306.6c7.1-7.3,17.8-9.7,27.4-6.2l0.9,0.3l54.2,75.4l-57.2-21l-63.7,64.8c-10.1,10.2-26.4,10.3-36.6,0.2   c-10.2-10.1-10.3-26.6-0.2-36.9L226.7,306.6L226.7,306.6z M310.6,318l68.9,94.3l-8.9,6.1l-8.7,6.4l-0.2-0.3l-0.1,0.1l-84-115.6   L310.6,318L310.6,318z M235,139.2c39,0,70.5,31.6,70.5,70.6S274,280.3,235,280.3s-70.5-31.6-70.5-70.5   C164.5,170.8,196.1,139.2,235,139.2z M360.9,160.4c17.4,0,31.1,13.8,31.1,31.3c0,17.5-13.7,31.3-31.1,31.3s-31.1-13.8-31.1-31.3   C329.8,174.2,343.5,160.4,360.9,160.4z" fill="#F54C4C"></path>
	<path d="M390.1,259.1c0.9,5.9-0.2,12-3.5,17.5l-35.4,72.2l-33.2-46.2l24.5-53.2c7.4-12.1,23.1-16,35.3-8.8   C384.7,246.1,387.3,249.7,390.1,259.1L390.1,259.1z" fill="#F54C4C"></path>
	<path d="M401.1,246.2c-3.2-7.4-6.6-11.8-13.1-17.8l28-32.9l16.3,14.1L401.1,246.2L401.1,246.2z" fill="#F54C4C"></path>
</g>
</svg>