<?xml version='1.0' encoding='utf-8'?>
<!-- Generator: Adobe Illustrator 27.2.0, SVG Export Plug-In . SVG Version: 6.00 Build 0)  --><svg xmlns="http://www.w3.org/2000/svg" xmlns:xlink="http://www.w3.org/1999/xlink" version="1.1" id="Vrstva_1" x="0px" y="0px" viewBox="0 0 535.4 566.9" style="enable-background:new 0 0 535.4 566.9;" xml:space="preserve" width="377.77386" height="400.0">
<g>
	<path d="M5.8,283.5c0-98.9,63.7-175.6,138.9-175.6s138.9,76.2,138.9,175.6S220,459,144.7,459S5.8,382.8,5.8,283.5L5.8,283.5z    M218.5,283.5c0-55-34-98.4-73.8-98.4s-73.8,44.4-73.8,98.4s34,98.4,73.8,98.4S218.5,338.4,218.5,283.5L218.5,283.5L218.5,283.5z"></path>
	<path d="M529.6,113.7v339.5H492L370.4,271.9v181.3h-62.2V113.7h36.2l123,183.3V113.7H529.6L529.6,113.7z"></path>
</g>
</svg>