<?xml version='1.0' encoding='utf-8'?>
<!-- Generator: Adobe Illustrator 27.2.0, SVG Export Plug-In . SVG Version: 6.00 Build 0)  --><svg xmlns="http://www.w3.org/2000/svg" xmlns:xlink="http://www.w3.org/1999/xlink" version="1.1" id="Vrstva_1" x="0px" y="0px" viewBox="0 0 1427.9 566.9" style="enable-background:new 0 0 1427.9 566.9;" xml:space="preserve" width="1007.5145" height="400.0">
<g>
	<path d="M6.1,342.9h64.3c0,30.7,12.9,40.3,42.8,40.3c33.4,0,43.1-9.1,43.1-28.8c0-17.3-13.3-24.9-38.8-30.7L93.1,318   C42.8,306,8.3,279.1,8.3,214.4s32-105.4,105-105.4c80.9,0,103.2,51.3,103.2,113.1h-62.5c0-25.4-11.1-38.3-39.2-38.3   c-33.1,0-40.3,7.2-40.3,26.8c0,16.3,9.7,24.4,43.1,32.6l23,5.8c47.5,12,83.4,34.5,83.4,101.6s-33.1,107.4-110.7,107.4   C32,457.9,6.5,410.5,6.1,342.9L6.1,342.9L6.1,342.9z"></path>
	<path d="M449.7,227.8c0,61.4-34.2,111.2-87.7,111.2h-50.3v113.1h-61.8V114.7H362C414.1,114.7,449.7,163.6,449.7,227.8z M385,227.8   c0-25.4-14.7-40.3-33.1-40.3h-40.3V270h40.3C371.4,270,385,253.3,385,227.8L385,227.8z"></path>
	<path d="M658.2,377.4v74.8H477.1V114.7h178.3v74.8H538.9v59.4h103.5v69H538.9v59.4L658.2,377.4L658.2,377.4L658.2,377.4   L658.2,377.4z"></path>
	<path d="M868.2,377.4v74.8H687V114.7h178.3v74.8H748.8v59.4h103.5v69H748.8v59.4L868.2,377.4L868.2,377.4L868.2,377.4L868.2,377.4z   "></path>
	<path d="M1129.9,283.5c0,94.4-61.1,168.7-135.2,168.7h-97.8V114.7h97.8C1068.8,114.7,1129.9,189.5,1129.9,283.5L1129.9,283.5   L1129.9,283.5L1129.9,283.5z M1065.2,283.5c0-55.6-30.6-94-73.3-94h-33.1v187.9h33.1C1034.6,377.4,1065.2,339.1,1065.2,283.5   L1065.2,283.5L1065.2,283.5L1065.2,283.5z"></path>
	<path d="M1421.8,316.1h-72.4v78.6h-65.3v-78.6h-74.2v-65.2h74.2v-78.6h65.3v78.6h72.4V316.1z"></path>
</g>
</svg>