<?xml version='1.0' encoding='utf-8'?>
<!-- Generator: Adobe Illustrator 27.2.0, SVG Export Plug-In . SVG Version: 6.00 Build 0)  --><svg xmlns="http://www.w3.org/2000/svg" xmlns:xlink="http://www.w3.org/1999/xlink" version="1.1" id="Vrstva_1" x="0px" y="0px" viewBox="0 0 561.4 566.9" style="enable-background:new 0 0 561.4 566.9;" xml:space="preserve" width="396.11926" height="400.0">
<g>
	<path d="M344.4,222.8h-12.1l-3.1,10.4c-25.5,94.3-25.5,173.8,0,268.2l3.1,12h12c9.1,0,211.2-12,211.2-146.9   C555.8,230.4,353.4,222.8,344.4,222.8L344.4,222.8z M354.9,481.9c-19.5-79.4-19.5-148.4,0-227.7c40.5,3.1,169.1,22.4,169.1,112.3   S396.8,477.5,354.9,481.9L354.9,481.9z"></path>
	<path d="M245.5,58C226,26.5,191.5,7,155.6,7c-43.5,0-80.8,28.4-94.3,68.8c-33,9.1-55.5,37.5-55.5,71.9c0,40.6,33,73.3,70.4,73.3   h154.4c45,0,79.4-35.9,79.4-82.4C310,100,284.5,68.5,245.5,58L245.5,58z M230.5,191.4H76.4c-21,0-40.6-19.5-40.6-43.5   c0-22.4,16.4-40.6,39-43.5l10.4-1.5l3.1-10.4c7.5-33,35.9-55.5,67.3-55.5c25.5,0,52.5,16.4,65.9,40.5l3.1,6l7.5,1.5   c27,4.5,45,27,45,52.5C278.5,168.8,257.5,191.4,230.5,191.4L230.5,191.4z"></path>
	<rect x="64.7" y="246.9" transform="matrix(0.707 -0.7072 0.7072 0.707 -166.6477 135.103)" width="30" height="43.5"></rect>
	<rect x="141.3" y="247.3" transform="matrix(0.707 -0.7072 0.7072 0.707 -144.4491 189.3259)" width="30" height="43.5"></rect>
	<rect x="217.8" y="247.4" transform="matrix(0.707 -0.7072 0.7072 0.707 -122.1297 243.4623)" width="30" height="43.5"></rect>
	<rect x="111.1" y="308.1" transform="matrix(0.7071 -0.7071 0.7071 0.7071 -196.3136 185.7961)" width="30" height="43.5"></rect>
	<rect x="187.7" y="308.4" transform="matrix(0.7071 -0.7071 0.7071 0.7071 -174.0473 240.0164)" width="30" height="43.5"></rect>
	<polygon points="205.1,559.9 245.5,559.9 289,513.4 281.5,473.1  "></polygon>
	<polygon points="278.5,399.5 128.6,559.9 172.2,559.9 278.5,446.1  "></polygon>
	<polygon points="278.5,323.2 55.3,559.9 95.9,559.9 278.5,369.6  "></polygon>
</g>
</svg>