<?xml version='1.0' encoding='utf-8'?>
<svg xmlns="http://www.w3.org/2000/svg" id="Vrstva_1" version="1.1" viewBox="0 0 218.76 400" width="218.76" height="400.0">
  <!-- Generator: Adobe Illustrator 30.2.1, SVG Export Plug-In . SVG Version: 2.1.1 Build 1)  -->
  <g>
    <path d="M164.25,15.65l-54.87,54.87L54.51,15.65,14.19,55.97l95.2,95.2,95.2-95.2-40.32-40.32h-.02ZM54.51,37.9l-18.08,18.08,72.95,72.95,72.95-72.95-18.08-18.08-54.87,54.87-54.87-54.87h0Z" fill-rule="evenodd"></path>
    <path d="M164.25,15.65l40.32,40.32-95.2,95.2L14.19,55.97,54.51,15.65l54.87,54.87,54.87-54.87M109.38,92.77l-54.87-54.87-18.08,18.08,72.95,72.95,72.95-72.95-18.08-18.08-54.87,54.87M164.25,5.67l-4.99,4.99-49.88,49.88L59.5,10.66l-4.99-4.99-4.99,4.99L9.2,50.98l-4.99,4.99,4.99,4.99,95.2,95.2,4.99,4.99,4.99-4.99,95.2-95.2,4.99-4.99-4.99-4.99-40.32-40.32-4.99-4.99h-.02ZM109.38,102.74l4.99-4.99,49.88-49.88,8.1,8.1-62.97,62.97-62.97-62.97,8.1-8.1,49.88,49.88,4.99,4.99h0Z" fill="#fff"></path>
  </g>
  <g>
    <path d="M109.38,187.11l54.87-54.87,40.32,40.32-95.2,95.2L14.19,172.56l40.32-40.32,54.87,54.87h0ZM36.43,172.56l18.08-18.08,54.87,54.87,54.87-54.87,18.08,18.08-72.95,72.95-72.95-72.95h0Z" fill-rule="evenodd"></path>
    <path d="M164.25,132.24l40.32,40.32-95.2,95.2L14.19,172.56l40.32-40.32,54.87,54.87,54.87-54.87M109.38,209.37l-54.87-54.87-18.08,18.08,72.95,72.95,72.95-72.95-18.08-18.08-54.87,54.87M164.25,122.27l-4.99,4.99-49.88,49.88-49.88-49.88-4.99-4.99-4.99,4.99-40.32,40.32-4.99,4.99,4.99,4.99,95.2,95.2,4.99,4.99,4.99-4.99,95.2-95.2,4.99-4.99-4.99-4.99-40.32-40.32-4.99-4.99h-.02ZM109.38,219.34l4.99-4.99,49.88-49.88,8.1,8.1-62.97,62.97-62.97-62.97,8.1-8.1,49.88,49.88,4.99,4.99h0Z" fill="#fff"></path>
  </g>
  <g>
    <path d="M109.38,303.7l54.87-54.87,40.32,40.32-95.2,95.2L14.19,289.16l40.32-40.32,54.87,54.87h0ZM36.43,289.15l18.08-18.08,54.87,54.87,54.87-54.87,18.08,18.08-72.95,72.95-72.95-72.95h0Z" fill-rule="evenodd"></path>
    <path d="M164.25,248.83l40.32,40.32-95.2,95.2L14.19,289.16l40.32-40.32,54.87,54.87,54.87-54.87M109.38,325.96l-54.87-54.87-18.08,18.08,72.95,72.95,72.95-72.95-18.08-18.08-54.87,54.87M164.25,238.86l-4.99,4.99-49.88,49.88-49.88-49.88-4.99-4.99-4.99,4.99-40.32,40.32-4.99,4.99,4.99,4.99,95.2,95.2,4.99,4.99,4.99-4.99,95.2-95.2,4.99-4.99-4.99-4.99-40.32-40.32-4.99-4.99h-.02ZM109.38,335.94l4.99-4.99,49.88-49.88,8.1,8.1-62.97,62.97-62.97-62.97,8.1-8.1,49.88,49.88,4.99,4.99h0Z" fill="#fff"></path>
  </g>
  <path d="M54.51,37.9l54.87,54.87,54.87-54.87,18.08,18.08-72.95,72.95L36.43,55.97l18.08-18.08h0Z" fill="#4c4e4f"></path>
  <path d="M54.51,154.49l54.87,54.87,54.87-54.87,18.08,18.08-72.95,72.95-72.95-72.95,18.08-18.08h0Z" fill="#4c4e4f"></path>
  <path d="M109.38,325.95l-54.87-54.87-18.08,18.08,72.95,72.95,72.95-72.95-18.08-18.08-54.87,54.87h0Z" fill="#76be85" fill-rule="evenodd"></path>
</svg>