<?xml version='1.0' encoding='utf-8'?>
<svg xmlns="http://www.w3.org/2000/svg" id="Vrstva_1" data-name="Vrstva 1" viewBox="0 0 305.5 566.93" width="215.54689" height="400.0">
  <path d="m245.18,20.57c30.63,0,55.45,25.22,55.45,56.34v413.13c0,31.11-24.83,56.34-55.45,56.34H60.32c-30.63,0-55.45-25.22-55.45-56.34V76.9c0-31.11,24.83-56.34,55.45-56.34h184.85Zm-77.21,188.96l-113.8,130.57h86.67l-39.7,81.77h36.39l113.81-130.57h-86.68l39.7-81.77h-36.4Zm-52.19-132.62c-10.21,0-18.48,8.41-18.48,18.78,0,10.37,8.28,18.78,18.48,18.78h73.94c10.21,0,18.48-8.41,18.48-18.78,0-10.37-8.27-18.78-18.48-18.78h-73.94Z" fill="#51F093"></path>
</svg>