<?xml version='1.0' encoding='utf-8'?>
<!-- Generator: Adobe Illustrator 27.2.0, SVG Export Plug-In . SVG Version: 6.00 Build 0)  --><svg xmlns="http://www.w3.org/2000/svg" xmlns:xlink="http://www.w3.org/1999/xlink" version="1.1" id="Vrstva_1" x="0px" y="0px" viewBox="0 0 1545.2 566.9" style="enable-background:new 0 0 1545.2 566.9;" xml:space="preserve" width="1090.2804" height="400.0">
<g>
	<g>
		<path d="M936.1,458.9c-30.4,0-57.4-6.7-77.5-23.6c-20.3-13.4-37.1-33.7-50.6-60.7c-10.1-27-16.8-54-16.8-87.7s6.7-60.7,16.8-87.7    c10.1-27,27-47.3,50.6-60.7c23.6-13.4,47.3-23.6,77.5-23.6c30.3,0,57.4,6.7,77.6,23.6c23.6,13.4,40.4,33.7,50.6,60.7    c13.4,27,16.8,54,16.8,87.7s-6.7,60.7-16.8,87.7s-27,47.3-50.6,60.7C993.5,452.2,966.5,458.9,936.1,458.9z M936.1,398.2    c16.8,0,33.7-3.4,43.8-13.4c13.4-10.1,20.3-23.6,27-40.4c6.7-16.9,10.1-37.1,10.1-57.4c0-33.7-6.7-60.7-20.3-81    c-13.4-20.3-33.7-30.4-60.7-30.4c-16.8,0-30.4,3.4-43.8,13.4c-10.1,10.1-20.3,20.3-27,37.1c-6.7,16.9-10.1,37.1-10.1,57.4    c0,23.6,3.4,40.4,10.1,57.4c6.7,16.9,13.4,30.4,27,40.4C905.8,394.8,919.3,398.2,936.1,398.2L936.1,398.2z"></path>
		<path d="M1303.9,124.9v57.4h-124.8v84.4h111.4v57.4h-111.4v131.5h-64.1V124.9H1303.9L1303.9,124.9z"></path>
		<path d="M1536.7,124.9v57.4h-124.8v84.4h111.4v57.4h-111.4v131.5h-64.1V124.9H1536.7L1536.7,124.9z"></path>
	</g>
	<g>
		<path d="M356,371.2c-6.7,0-10.1,0-13.4,3.4l-81-81l-40.4,40.4l81,81c0,3.4-3.4,10.1-3.4,13.4c0,30.4,27,57.4,57.4,57.4    s57.4-27,57.4-57.4C413.3,398.2,386.3,371.2,356,371.2L356,371.2z"></path>
		<path d="M356,81C167,81,8.5,239.5,8.5,428.5v30.4h114.7v-57.4H65.8c6.7-57.4,30.4-111.4,64.1-151.8l40.4,40.4l40.4-40.4    l-37.1-43.8c43.8-33.7,94.4-57.4,151.8-64.1v57.4h57.4v-57.4c57.4,6.7,111.4,30.4,151.8,64.1l-40.4,40.4l40.4,40.4l40.4-40.4    c33.7,43.8,60.7,94.4,64.1,151.8h-57.4v57.4h114.7v-30.4C703.5,243,541.5,81,356,81L356,81z"></path>
	</g>
</g>
</svg>