<?xml version='1.0' encoding='utf-8'?>
<!-- Generator: Adobe Illustrator 27.2.0, SVG Export Plug-In . SVG Version: 6.00 Build 0)  --><svg xmlns="http://www.w3.org/2000/svg" xmlns:xlink="http://www.w3.org/1999/xlink" version="1.1" id="Vrstva_1" x="0px" y="0px" viewBox="0 0 684.4 566.9" style="enable-background:new 0 0 684.4 566.9;" xml:space="preserve" width="482.907" height="400.0">
<g>
	<path d="M341.4,20.8c-145.2,0-262.7,117.6-262.7,262.7s117.6,262.7,262.7,262.7s262.7-117.6,262.7-262.7   C605.9,138.4,486.5,20.8,341.4,20.8L341.4,20.8z M341.4,509.4c-124.8,0-225.9-101.1-225.9-225.9S216.6,57.5,341.4,57.5   s225.9,101.1,225.9,225.9S466.3,509.4,341.4,509.4z" fill="#FFCE63"></path>
	<g>
		<path d="M130.1,72.2l-25.8-25.6C41.9,109.1,5.1,199,5.1,285.3s36.7,176.4,99.2,238.7l25.8-25.6C75.1,443.4,42,364.3,42,285.3    S75,127.4,130.1,72.2z" fill="#FFCE63"></path>
		<path d="M582,44.7l-25.8,25.8c55.1,55.1,88.1,134.1,88.1,213.1s-33,156.2-88.1,213.1l25.8,25.8c62.5-62.5,99.2-152.5,99.2-238.7    S642.7,107.2,582,44.7L582,44.7z" fill="#FFCE63"></path>
	</g>
	<g>
		<path d="M201.8,202.8L143,366.2h33l9.3-29.3h57l9.3,29.3h33l-57-163.4L201.8,202.8L201.8,202.8z M194.4,309.2l20.2-62.5l18.4,62.5    H194.4L194.4,309.2z" fill="#FFCE63"></path>
		<path d="M383.5,279.8c5.6-3.7,9.3-9.3,12.8-14.7c3.7-5.6,5.6-12.8,5.6-20.2c0-9.3-1.9-16.5-5.6-22.1c-3.7-7.4-9.3-10.9-16.5-14.7    c-7.4-3.7-14.7-5.6-23.9-5.6h-58.8V366h58.8c11,0,20.2-1.9,27.6-5.6s12.8-9.3,18.4-16.5c3.7-7.4,5.6-16.5,5.6-25.8    s-1.9-16.5-5.6-22.1C398.4,289,392.8,283.5,383.5,279.8L383.5,279.8z M330.3,230.2h22.1c5.6,0,11,1.9,14.7,5.6s5.6,9.3,5.6,14.7    s-1.9,11-5.6,14.7s-7.4,5.6-14.7,5.6h-22.1V230.2z M370.8,333.2c-3.7,3.7-9.3,5.6-14.7,5.6h-25.8v-42.3h25.8    c5.6,0,11,1.9,14.7,5.6s5.6,9.3,5.6,14.7C376.3,323.9,374.5,329.5,370.8,333.2z" fill="#FFCE63"></path>
		<path d="M525.1,298.1c-3.7-5.6-7.4-11-14.7-14.7c-5.6-3.7-12.8-7.4-22.1-11l-11-3.7c-5.6-1.9-11-3.7-12.8-5.6    c-3.7-1.9-5.6-3.7-7.4-5.6c-1.8-1.9-1.8-5.6-1.8-9.3c0-5.6,1.8-9.3,7.4-12.8c3.7-3.7,11-5.6,18.4-5.6s14.7,1.9,20.2,3.7    c5.6,1.9,11,3.7,18.4,7.4l5.6-29.3c-11-7.4-25.8-10.9-44.1-10.9c-11,0-22.1,1.9-31.2,5.6c-9.3,3.7-14.7,9.3-20.2,16.5    c-5.6,7.4-7.4,16.5-7.4,25.8c0,9.3,1.9,16.5,5.6,22.1c3.7,5.6,7.4,11,12.8,14.7c5.6,3.7,12.8,7.4,22.1,11l11,3.7    c5.6,1.9,9.3,3.7,12.8,5.6c3.7,1.9,5.6,3.7,7.4,5.6s1.8,5.6,1.8,9.3c0,5.6-1.8,11-5.6,14.7s-11,5.6-18.4,5.6    c-9.3,0-16.5-1.9-22.1-3.7c-7.4-1.9-12.8-5.6-20.2-9.3l-5.6,29.3c7.4,3.7,14.7,7.4,22.1,9.3s16.5,3.7,27.6,3.7    c12.8,0,22.1-1.9,31.2-5.6c9.3-3.7,14.7-9.3,20.2-16.5c3.7-7.4,7.4-16.5,7.4-25.8C528.8,311.1,528.8,303.7,525.1,298.1    L525.1,298.1z" fill="#FFCE63"></path>
	</g>
</g>
</svg>