<?xml version='1.0' encoding='utf-8'?>
<!-- Generator: Adobe Illustrator 27.2.0, SVG Export Plug-In . SVG Version: 6.00 Build 0)  --><svg xmlns="http://www.w3.org/2000/svg" xmlns:xlink="http://www.w3.org/1999/xlink" version="1.1" id="Vrstva_1" x="0px" y="0px" viewBox="0 0 650.4 566.9" style="enable-background:new 0 0 650.4 566.9;" xml:space="preserve" width="458.91693" height="400.0">
<g>
	<path d="M9.5,94.3l3.4-16.5l7.8-16.2l10.5-13.8l13.2-11.8l15.5-7.1l16.9-4.7l63.1-8.4l63.4-5.1l64.1-2.7h63.8l63.1,2.7l63.1,5.1   l63.5,8.4l16.9,4.7l15.5,7.1L566,47.7l11.1,13.8l6.8,16.2l3.7,16.5l4.7,76.3l0.7,75.9l-3.4,75.9l3,16.2l11.1,11.1l31.4,18.2   l7.8,7.4l2.7,10.5v73.2l-1.7,8.4l-5.1,6.8l-8.1,4.4l-7.8,1l-8.4-3l-85-48.3L511,421l-20.9-0.7l-27.3,3l-26.7,3.4l8.8,19.9l5.7,20.9   l-1,21.9l-8.1,20.2l-29.4,49.3l-27-16.2l29-49.6l5.7-16.5l-3.4-17.2l-13.5-30l-40.5,2l-39.5,1l6.8,14.2l5.7,20.9l-1.4,21.9   l-8.4,20.2l-29,49.3l-27-16.2l29.4-49.6l5.1-16.5l-3-17.2l-12.8-26.7l-40.8-1l-41.2-1.7l8.1,16.5l4.7,20.9l-1,21.9l-7.8,20.2   l-29.4,49.3l-28-16.2l29.7-49.6l5.4-16.5l-3.4-17.2l-14.5-32.4l-46.6-4.4L76.6,416l-16.9-4l-15.5-8.4L31,392l-10.5-13.8L12.8,362   l-3.4-16.5l-3.7-63.1l-1-62.4l1-63.1L9.5,94.3L9.5,94.3L9.5,94.3z M51.7,98.7l-4.4,60.4l-1.7,60.8l1.7,60.4l4.4,61.4l5.4,15.2   l10.8,11.8l14.9,5.7l34.1,5.1l33.1,3.4l-3.4-14.9v-15.2l3-14.9l6.7-14.5l26-43.5l5.7-15.2l-2-15.5l-19.9-58.7h-19.6l36.1-94.2   l36.8,94.2h-19.6l16.5,48.3l3,19.2l-1.7,19.9l-7.8,18.2L182.6,340l-3.7,11.1l-0.7,11.5l3.4,11.8l4.4,11.8l42.5,2.7l41.2,1.4l-1.7-3   l-4.7-15.5l-1-16.5l3-16.2l6.4-15.5l27-43.5l5.4-15.2l-1.7-15.5l-20.2-58.7h-19.9l36.8-94.2l36.8,94.2h-19.9l16.2,48.3l3.7,19.2   l-2.4,19.9l-8.1,18.2L299.1,340l-4.7,11.1l-1,11.5l3.7,11.8l7.4,16.2l39.5-0.3l40.5-2.4l-0.7-0.7l-5.4-15.5l-0.7-16.5l3-16.2   l7.1-15.5l26.3-43.5l5.4-15.2l-2-15.5L398,190.4h-20.2l36.5-94.2l36.8,94.2h-20.2l16.5,48.3l3.7,19.2l-2,19.9l-7.8,18.2l-27,43.9   l-3.7,11.1l-1,11.5l3,11.8l5.1,11.1l48.6-4.4l48.6-6.8l14.8-5.7l11.1-11.8l4.7-15.2l4-61.4l1.7-60.4l-1.7-60.8l-4-60.4l-4.7-15.9   l-11.1-11.5l-14.8-6.1l-71.5-9.1L371,50.7l-71.9-2.4l-72.6,2.4l-72.2,5.4l-71.6,9.1l-14.9,6.1L57.1,82.8L51.7,98.7L51.7,98.7   L51.7,98.7z"></path>
</g>
</svg>