<?xml version='1.0' encoding='utf-8'?>
<svg xmlns="http://www.w3.org/2000/svg" id="Vrstva_1" data-name="Vrstva 1" viewBox="0 0 635.41 566.93" width="448.31635" height="400.0">
  <path d="m107.1,20.98l-1.19,6.05L5.82,537l-1.76,8.95h72.11s1.19-6.05,1.19-6.05L177.46,29.93l1.74-8.95h-72.11Zm122.15,340.56v184.41s70.76,0,70.76,0v-184.41s-70.76,0-70.76,0ZM473.96,20.98l2.33,9.32,73.38,292.86-115.52,66.24-15.16,8.69-4.07,2.34.32,4.69,1.2,17.42,8.03,116.43.48,6.99h70.94s-.56-8.01-.56-8.01l-6.77-98.17,119.55-68.52,18.31-10.49,4.92-2.83-1.38-5.51-5.13-20.48L548.33,26.66l-1.42-5.68h-72.94Zm-29.71,125.88l-7.57,1.83-54.25,13.1-7.02,1.7,1.42,7.08,28.53,142.11,1.48,7.35,7.35-1.48,54.66-10.97,7.35-1.48-1.47-7.35-28.96-144.24-1.54-7.65Zm-215.01,14.98v157.64s70.76,0,70.76,0v-157.64s-70.76,0-70.76,0ZM346.8,20.98l1.8,8.98,17.01,84.66,1.52,7.65,7.59-1.83,54.24-13.1,7.02-1.7-1.42-7.07-14.37-71.57-1.2-6.02h-72.18Zm-117.56,0v98.8s70.76,0,70.76,0V20.98s-70.76,0-70.76,0Z" fill="#51F093"></path>
</svg>