<?xml version='1.0' encoding='utf-8'?>
<svg xmlns="http://www.w3.org/2000/svg" id="Vrstva_1" data-name="Vrstva 1" viewBox="0 0 625.87 566.93" width="441.5854" height="400.0">
  <path d="m312.85,21.1c194.85,0,306.9,101.6,307.53,102.17l-75.1,254.13-12.74,43.19s-14.47-8.8-40.1-19.34c-38.42-15.81-101.93-35.56-179.5-35.56-6.86,0-13.62.14-20.24.43l27.62,92.52c20.74,3.51,36.54,21.54,36.54,43.28,0,24.26-19.66,43.92-43.92,43.92s-43.92-19.66-43.92-43.92c0-10.6,3.74-20.34,9.99-27.92l-30.84-103.75c-48.13,6.76-87.66,19.87-114.73,31.01-25.63,10.55-40.1,19.34-40.1,19.34l-12.74-43.19L5.49,122.88S110.68,21.1,312.85,21.1Zm-146.13,65.02c-24.79,7.59-46.11,16.44-63.91,25.22-20.05,9.89-35.68,19.71-46.79,27.49l64.89,220.07c5.89-2.36,12.25-4.8,19.04-7.21,25.88-9.17,58.43-18.32,96.03-24.06l-69.27-241.52Zm146.13-21.1c-38.46,0-72.99,3.98-103.54,10.25l70.98,247.52c10.59-.69,21.48-1.03,32.64-1.03,70.81,0,130.75,14.97,172.98,29.94,6.8,2.41,13.15,4.84,19.04,7.21l64.72-219.05c-11.75-7.98-28.2-18.04-49.02-28.18-47.62-23.19-117.95-46.67-207.81-46.67Z" fill="#FFCE63"></path>
</svg>