<?xml version='1.0' encoding='utf-8'?>
<!-- Generator: Adobe Illustrator 27.2.0, SVG Export Plug-In . SVG Version: 6.00 Build 0)  --><svg xmlns="http://www.w3.org/2000/svg" xmlns:xlink="http://www.w3.org/1999/xlink" version="1.1" id="Vrstva_1" x="0px" y="0px" viewBox="0 0 571.4 566.9" style="enable-background:new 0 0 571.4 566.9;" xml:space="preserve" width="403.17517" height="400.0">
<g>
	<path d="M243.8,483.6c-4.5,0-9.1,1.4-13.7,3l-44-44.2l-21.4,21.4l44,44c-1.4,4.5-3,9.1-3,13.7c0,21.4,16.8,38.1,38.1,38.1   s36.5-16.8,36.5-38.1C280.6,500.2,263.6,483.6,243.8,483.6L243.8,483.6z" fill="#51F093"></path>
	<path d="M243.8,310.1c-117.2,0-211.6,94.3-211.6,211.6V537h60.9v-30.5H64.2c3-38.1,18.3-74.5,42.6-101.9l24.4,24.2l21.4-21.4   l-24.2-24.2c27.4-24.2,64-39.6,101.9-42.6v28.9h30.5v-28.9c39.6,3,74.5,18.3,101.9,42.6l-24.4,24.2l21.4,21.4l24.3-24.2   c24.2,27.4,39.6,64,42.6,101.9h-28.9V537h60.9v-15.3C455.5,404.4,361.2,310.1,243.8,310.1L243.8,310.1z" fill="#51F093"></path>
	<polygon points="15.4,325.3 122.1,325.3 122.1,218.7 91.7,218.7 91.7,273.4 26.1,208.2 4.8,229.4 70.3,294.8 15.4,294.8  " fill="#51F093"></polygon>
	<polygon points="467.6,7.2 441.8,7.2 455.5,71 484.3,71  " fill="#51F093"></polygon>
	<polygon points="534.6,273.4 495,273.4 520.9,398.4 566.6,398.4  " fill="#51F093"></polygon>
	<polygon points="493.6,109.1 463.1,109.1 485.9,223.2 522.5,223.2  " fill="#51F093"></polygon>
	<polygon points="134.2,7.2 108.3,7.2 93.1,71 122.1,71  " fill="#51F093"></polygon>
	<polygon points="114.5,109.1 84,109.1 71.9,157.9 103.8,157.9  " fill="#51F093"></polygon>
	<path d="M169.2,279.6H192c6.2,0,16.8-6.2,16.8-16.8v-16.8h159.8v16.8c0,10.7,10.7,16.8,16.8,16.8h22.8c6.2,0,16.8-6.2,16.8-16.8   V154.8l-19.8-31.9h19.8V98.4h-34.9l-22.7-36.5c0,0-31.9-9.1-77.7-9.1s-77.7,9.1-77.7,9.1l-22.8,36.5h-34.9v24.2H174l-19.8,31.9   v108.1C152.6,273.4,163.1,279.6,169.2,279.6L169.2,279.6z M176.8,221.7V208l13.7-16.8H221l15.3-19.8H177v-16.8h223.8v16.8h-59.3   l15.3,19.8h30.5l13.7,16.8v13.7H176.8L176.8,221.7z M225.5,83.2c3,0,6.2-1.4,10.7-1.4c12.1-1.4,30.5-4.5,51.7-4.5   s39.6,1.4,51.7,4.5c4.5,0,7.6,1.4,10.7,1.4l30.5,48.8H195.2L225.5,83.2L225.5,83.2z" fill="#51F093"></path>
</g>
</svg>