<?xml version='1.0' encoding='utf-8'?>
<svg xmlns="http://www.w3.org/2000/svg" id="Vrstva_1" data-name="Vrstva 1" viewBox="0 0 110.64 566.93" width="78.062546" height="400.0">
  <path d="m55.32,420.77c28.44,0,51.49,23.05,51.49,51.49s-23.05,51.49-51.49,51.49S3.83,500.69,3.83,472.25s23.05-51.49,51.49-51.49Zm0-188.79c28.44,0,51.49,23.05,51.49,51.49s-23.05,51.49-51.49,51.49S3.83,311.9,3.83,283.46s23.05-51.49,51.49-51.49Zm0-188.79c28.44,0,51.49,23.05,51.49,51.49s-23.05,51.49-51.49,51.49S3.83,123.11,3.83,94.68s23.05-51.49,51.49-51.49Z"></path>
</svg>