<?xml version='1.0' encoding='utf-8'?>
<svg xmlns="http://www.w3.org/2000/svg" id="Vrstva_1" data-name="Vrstva 1" viewBox="0 0 745.76 566.93" width="526.1743" height="400.0">
  <defs>
    <style>
      .cls-1 {
        fill-rule: evenodd;
      }
    </style>
  </defs>
  <path class="cls-1" d="m372.88,494.1c116.33,0,210.64-94.31,210.64-210.64s-94.31-210.64-210.64-210.64-210.64,94.31-210.64,210.64,94.31,210.64,210.64,210.64Zm0,52.66c145.42,0,263.3-117.88,263.3-263.3S518.3,20.17,372.88,20.17,109.58,138.05,109.58,283.47s117.88,263.3,263.3,263.3ZM112.23,22.81C45.52,89.52,4.26,181.68,4.26,283.47s41.26,193.95,107.96,260.65l37.24-37.24c-57.18-57.18-92.54-136.17-92.54-223.42S92.29,117.23,149.46,60.05l-37.24-37.24Zm484.07,37.24l37.24-37.24c66.71,66.71,107.96,158.86,107.96,260.65s-41.26,193.95-107.96,260.65l-37.24-37.24c57.18-57.18,92.54-136.17,92.54-223.42s-35.36-166.24-92.54-223.42Z" fill="#FFCE63"></path>
  <path d="m498.18,372.83c-10.96,0-20.09-1.97-27.39-5.92-7.3-4.09-12.86-10.16-16.65-18.19-3.65-8.18-5.77-18.55-6.36-31.12l31.12-5.26c.29,7.3,1.02,13.44,2.19,18.41,1.31,4.82,3.21,8.47,5.7,10.96,2.63,2.34,5.84,3.51,9.64,3.51,4.68,0,7.82-1.46,9.42-4.38,1.75-2.92,2.63-6.28,2.63-10.08,0-7.45-1.83-13.66-5.48-18.63-3.51-5.11-8.18-10.23-14.03-15.34l-18.41-16c-6.57-5.55-11.98-11.83-16.22-18.85-4.09-7.01-6.14-15.63-6.14-25.86,0-14.61,4.24-25.79,12.71-33.53,8.62-7.89,20.38-11.83,35.28-11.83,8.91,0,16.22,1.46,21.91,4.38,5.7,2.92,10.08,6.87,13.15,11.84,3.21,4.82,5.41,10.15,6.57,16,1.31,5.7,2.12,11.4,2.41,17.09l-30.9,4.6c-.29-5.41-.8-10.16-1.53-14.24-.58-4.09-1.9-7.3-3.95-9.64-1.9-2.34-4.82-3.51-8.77-3.51-4.24,0-7.38,1.61-9.42,4.82-2.05,3.07-3.07,6.5-3.07,10.3,0,6.28,1.39,11.47,4.16,15.56,2.92,3.95,6.87,8.11,11.84,12.49l17.97,15.78c7.45,6.43,13.81,13.81,19.07,22.13,5.41,8.18,8.11,18.34,8.11,30.46,0,8.33-1.9,15.85-5.7,22.57-3.8,6.72-9.13,11.98-16,15.78-6.72,3.8-14.68,5.7-23.89,5.7Z" fill="#FFCE63"></path>
  <path d="m326.32,370.42v-177.51h44.93c7.74,0,14.9.66,21.48,1.97,6.57,1.31,12.35,3.65,17.31,7.01,5.11,3.36,8.98,8.04,11.61,14.03,2.78,5.84,4.16,13.51,4.16,23.01,0,7.16-1.02,13.3-3.07,18.41-2.05,4.97-4.97,8.91-8.77,11.83-3.8,2.92-8.47,4.9-14.03,5.92,6.87,1.02,12.64,3.36,17.31,7.01,4.68,3.65,8.18,8.47,10.52,14.46,2.34,5.99,3.51,13.22,3.51,21.7,0,8.91-1.17,16.65-3.51,23.23-2.19,6.57-5.48,11.98-9.86,16.22-4.38,4.24-9.79,7.45-16.22,9.64-6.43,2.04-13.88,3.07-22.35,3.07h-53.03Zm36.16-25.42h10.08c9.06,0,15.27-2.26,18.63-6.79,3.51-4.53,5.26-11.32,5.26-20.38,0-7.01-.8-12.56-2.41-16.65-1.61-4.24-4.24-7.31-7.89-9.2-3.51-2.05-8.25-3.07-14.24-3.07h-9.42v56.1Zm0-80.43h8.98c6.28,0,11.03-.88,14.24-2.63,3.22-1.9,5.41-4.68,6.57-8.33,1.31-3.8,1.97-8.4,1.97-13.81s-.95-9.72-2.85-12.93c-1.75-3.36-4.53-5.77-8.33-7.23-3.65-1.46-8.33-2.19-14.03-2.19h-6.57v47.12Z" fill="#FFCE63"></path>
  <path d="m200.92,370.42l34.41-177.51h40.1l34.19,177.51h-33.53l-6.36-39.01h-28.05l-6.79,39.01h-33.97Zm44.05-61.14h21.26l-10.74-71.66-10.52,71.66Z" fill="#FFCE63"></path>
</svg>