<?xml version='1.0' encoding='utf-8'?>
<svg xmlns="http://www.w3.org/2000/svg" id="Vrstva_1" data-name="Vrstva 1" viewBox="0 0 652.2 566.93" width="460.16263" height="400.0">
  <defs>
    <style>
      .cls-1 {
        fill-rule: evenodd;
      }
    </style>
  </defs>
  <path class="cls-1" d="m587.64,72.95h-52.06v52.56h105.23v420.91H11.4V125.51h366.34v-52.56h-52.58V20.51h262.48v52.45Zm-157.29,105.17H64.01v229.23c.52.07,1.04.16,1.56.21,8.16.78,16.38-.73,23.72-4.37,7.34-3.64,13.52-9.25,17.84-16.21,4.32-6.96,6.61-14.99,6.61-23.19h40.18c0,5.77,1.14,11.49,3.35,16.82,2.21,5.34,5.45,10.19,9.53,14.27,4.08,4.08,8.93,7.32,14.26,9.53,5.34,2.21,11.06,3.35,16.83,3.35s11.49-1.14,16.82-3.35c5.34-2.21,10.19-5.45,14.27-9.53,4.08-4.08,7.32-8.94,9.53-14.27,2.21-5.33,3.35-11.05,3.35-16.82h40.24c0,5.77,1.14,11.49,3.35,16.82,2.21,5.34,5.45,10.19,9.53,14.27,4.08,4.08,8.93,7.32,14.27,9.53s11.05,3.35,16.83,3.35,11.49-1.14,16.82-3.35c5.34-2.21,10.19-5.45,14.27-9.53,4.08-4.08,7.32-8.94,9.53-14.27,2.21-5.33,3.35-11.05,3.35-16.82h40.24c0,5.77,1.14,11.49,3.35,16.82,2.21,5.34,5.45,10.19,9.53,14.27,4.08,4.08,8.93,7.32,14.26,9.53,5.34,2.21,11.06,3.35,16.83,3.35s11.49-1.14,16.82-3.35c5.34-2.21,10.19-5.45,14.27-9.53,4.08-4.08,7.32-8.94,9.53-14.27,2.21-5.33,3.35-11.05,3.35-16.82h38.97s0,.06,0,.09h1.27c.01,7.38,1.88,14.63,5.44,21.09,3.55,6.47,8.68,11.94,14.9,15.9,6.22,3.97,13.34,6.31,20.7,6.8,2.91.2,5.82.09,8.69-.29v-229.26h-105.23v-105.17h-52.61v105.17Z" fill="#F54C4C"></path>
</svg>