<?xml version='1.0' encoding='utf-8'?>
<!-- Generator: Adobe Illustrator 27.2.0, SVG Export Plug-In . SVG Version: 6.00 Build 0)  --><svg xmlns="http://www.w3.org/2000/svg" xmlns:xlink="http://www.w3.org/1999/xlink" version="1.1" id="Vrstva_1" x="0px" y="0px" viewBox="0 0 539.9 566.9" style="enable-background:new 0 0 539.9 566.9;" xml:space="preserve" width="380.94904" height="400.0">
<style type="text/css">
	.st0{fill-rule:evenodd;clip-rule:evenodd;}
</style>
<g>
	<path class="st0" d="M270.2,44.4c29,0,55.5,11.6,75.2,30.7v63.3h37.4V176h-37.4l0,163.1c-19.7,19-46.1,30.6-75.1,30.6   c-29,0-55.4-11.6-75.1-30.6l-0.3-69.1l0.3-75.2v-18.8l0-37.6V75.1C214.8,56.1,241.2,44.4,270.2,44.4L270.2,44.4z M232.7,321.1   c11,7.1,23.9,11,37.5,11c13.6,0,26.5-4,37.5-11v-51.2h-75.1L232.7,321.1L232.7,321.1z M270.2,119.6c-13.7,0-26.5,4-37.6,11.1   l0,64.1h75.1l0-64.1C296.8,123.6,283.9,119.6,270.2,119.6L270.2,119.6z M195.1,176h-37.8v-37.6h37.8L195.1,176L195.1,176z" fill="#FFCE63"></path>
	<path d="M48.5,322.4c0,42.3,16.2,84.6,48.5,116.9c22.8,22.8,50.5,37.5,79.7,44.2l-14.7,38.9c-34.5-8.9-67.2-26.9-94.2-53.9   C27.3,428.2,7.1,375.3,7.1,322.4H48.5L48.5,322.4z" fill="#FFCE63"></path>
	<path d="M532.8,322.4c0,52.9-20.2,105.8-60.6,146.1c-27,27-59.7,44.9-94.2,53.9l-14.7-38.9c29.2-6.7,57-21.4,79.8-44.1   c32.3-32.3,48.4-74.6,48.4-116.9L532.8,322.4L532.8,322.4z" fill="#FFCE63"></path>
	<path d="M131.1,322.4c0,21.2,8.1,42.3,24.2,58.5c14.3,14.3,32.4,22.2,51.1,23.8l-15,39.7c-23.9-4.4-46.8-15.8-65.3-34.3   c-24.2-24.2-36.3-55.9-36.3-87.7L131.1,322.4L131.1,322.4z" fill="#FFCE63"></path>
	<path d="M450.1,322.4c0,31.7-12.1,63.5-36.3,87.7c-18.5,18.5-41.4,29.9-65.3,34.2l-15-39.6c18.6-1.7,36.8-9.6,51.1-23.8   c16.1-16.1,24.2-37.3,24.2-58.5L450.1,322.4L450.1,322.4z" fill="#FFCE63"></path>
</g>
</svg>