<?xml version='1.0' encoding='utf-8'?>
<!-- Generator: Adobe Illustrator 27.2.0, SVG Export Plug-In . SVG Version: 6.00 Build 0)  --><svg xmlns="http://www.w3.org/2000/svg" xmlns:xlink="http://www.w3.org/1999/xlink" version="1.1" id="Vrstva_1" x="0px" y="0px" viewBox="0 0 477.4 566.9" style="enable-background:new 0 0 477.4 566.9;" xml:space="preserve" width="336.84952" height="400.0">
<g>
	<path d="M4.6,49.4v257.5h210.6v-6.4c0-81.2,65.9-145.8,145.8-145.8c6.3,0,11.4,0,17.8,1.3V49.4H4.6z M145.5,225.8H51.6v-22.9h93.9   V225.8z M145.5,167.4H51.6V97.6h93.9V167.4z"></path>
	<path d="M380.1,191.5c-6.3-1.3-11.4-1.3-17.8-1.3c-60.8,0-111.6,50.7-111.6,111.7v6.4c0,5.1,1.3,8.9,1.3,14   c2.5,11.4,6.4,22.9,11.4,33l97.7,162.3l93.9-157.3l3.8-6.4c6.3-8.9,8.9-21.6,11.4-33c1.3-7.6,2.5-12.7,2.5-20.3   C474,246,432.2,199.1,380.1,191.5L380.1,191.5z M362.5,331c-20.3,0-35.6-15.2-35.6-35.6s15.2-35.6,35.6-35.6s35.6,15.2,35.6,35.6   C397.9,315.8,382.7,331,362.5,331z"></path>
</g>
</svg>