<?xml version='1.0' encoding='utf-8'?>
<svg xmlns="http://www.w3.org/2000/svg" id="Vrstva_1" data-name="Vrstva 1" viewBox="0 0 746.24 566.93" width="526.513" height="400.0">
  <defs>
    <style>
      .cls-1 {
        fill-rule: evenodd;
      }
    </style>
  </defs>
  <path class="cls-1" d="m325.33,20.89h-52.94l-21.22,84.89c17.78-4.71,36.41-8.42,55.69-11.02l18.47-73.87Zm-131.29,525.15h-52.94l28-112.01c-40.92-22.03-72.61-50.56-90.97-83.03H8.22v-52.1h105.49c4.92,26.35,24.95,55.4,65.88,80.98,14.68,9.18,31.43,17.43,49.89,24.44l-35.43,141.73Zm411.09,0h-52.94l-35.43-141.73c18.46-7.01,35.21-15.26,49.89-24.44,40.93-25.58,60.96-54.63,65.88-80.98h105.49v52.1h-69.92c-18.36,32.47-50.05,61.01-90.97,83.03l28,112.01ZM420.91,20.89h52.94l21.22,84.89c-17.78-4.71-36.41-8.42-55.69-11.02l-18.47-73.87Zm-114.05,73.87c-106.58,14.37-192.96,62.68-228.72,125.94h64.92c9.62-9.88,21.7-19.61,36.53-28.87,30.14-18.84,68.98-33.78,113.53-42.09l13.74-54.98Zm296.32,125.94c-9.62-9.88-21.7-19.61-36.53-28.87-30.15-18.84-68.98-33.78-113.53-42.09l-13.74-54.98c106.58,14.37,192.96,62.68,228.72,125.94h-64.92Zm-480.29-52.16H8.22v52.13h69.93c10.68-18.88,25.86-36.42,44.74-52.13Zm545.19,52.13h69.93v-52.13h-114.68c18.88,15.71,34.07,33.25,44.74,52.13Zm-190.95,66.32c.22-.64.24-.96.24-1.13s-.01-.49-.24-1.13c-.24-.69-.82-1.97-2.13-3.78-2.74-3.77-8.16-9.08-17.58-14.57-19.01-11.09-48.7-19.62-84.32-19.62s-65.31,8.53-84.32,19.62c-9.42,5.49-14.84,10.79-17.58,14.57-1.31,1.81-1.88,3.09-2.13,3.78-.22.64-.24.97-.24,1.13s.01.49.24,1.13c.24.69.82,1.97,2.13,3.78,2.74,3.77,8.16,9.08,17.58,14.57,19.01,11.09,48.7,19.62,84.32,19.62s65.31-8.53,84.32-19.62c9.42-5.49,14.84-10.8,17.58-14.57,1.31-1.81,1.88-3.09,2.13-3.78Zm-104.02,90.1c86.37,0,156.39-40.84,156.39-91.22s-70.02-91.23-156.39-91.23-156.39,40.84-156.39,91.23,70.02,91.22,156.39,91.22Z" fill="#51F093"></path>
</svg>