<?xml version='1.0' encoding='utf-8'?>
<!-- Generator: Adobe Illustrator 27.2.0, SVG Export Plug-In . SVG Version: 6.00 Build 0)  --><svg xmlns="http://www.w3.org/2000/svg" xmlns:xlink="http://www.w3.org/1999/xlink" version="1.1" id="Vrstva_1" x="0px" y="0px" viewBox="0 0 580.6 566.9" style="enable-background:new 0 0 580.6 566.9;" xml:space="preserve" width="409.66656" height="400.0">
<style type="text/css">
	.st0{fill-rule:evenodd;clip-rule:evenodd;}
</style>
<g>
	<path class="st0" d="M347.6,61.8H233.1v49.2c17.8-6.7,37-10.4,57.2-10.4s39.5,3.7,57.3,10.4C347.6,111,347.6,61.8,347.6,61.8z    M388.5,133.7V20.9H192.2v112.8c-38,29.1-62.5,74.7-62.5,126c0,87.9,71.9,159.1,160.6,159.1s160.6-71.2,160.6-159.1   C450.9,208.5,426.5,162.9,388.5,133.7L388.5,133.7z M508.3,280.2c0.6-6.7,0.9-13.5,0.9-20.5c0-6.9-0.3-13.7-0.9-20.5h68.3v40.9   H508.3z M430,428.4c10.5-8.7,20.2-18.4,28.9-28.9l50.3,50.3l-28.9,28.9L430,428.4z M269.9,477.8c6.7,0.6,13.5,0.9,20.5,0.9   s13.7-0.3,20.5-0.9V546h-40.9L269.9,477.8L269.9,477.8z M121.7,399.4c8.7,10.5,18.4,20.2,28.9,28.9l-46.2,46.2l-28.9-28.9   L121.7,399.4z M72.3,239.3c-0.6,6.7-0.9,13.6-0.9,20.5s0.3,13.7,0.9,20.5H4v-40.9L72.3,239.3L72.3,239.3z M150.6,91.2   c-10.5,8.7-20.2,18.4-28.9,28.9L75.5,73.9l28.9-28.9L150.6,91.2z M458.9,120.1c-8.7-10.5-18.4-20.2-28.9-28.9l50.3-50.3l28.9,28.9   L458.9,120.1z M290.3,378c66.5,0,119.7-53.3,119.7-118.2s-53.2-118.3-119.7-118.3s-119.7,53.3-119.7,118.3S223.8,378,290.3,378z" fill="#FFCE63"></path>
	<path d="M271.5,186v-23.7h37.7V186l-5.3,101.7h-27.1L271.5,186L271.5,186z M290.5,356.3c-4.1,0-7.8-0.9-11.2-2.8   c-3.4-2-6-4.7-8.1-8.1c-1.9-3.5-2.8-7.3-2.8-11.2s0.9-7.5,2.8-10.9c2-3.4,4.7-6,8.1-7.8c3.4-2,7.1-3.1,11.2-3.1s7.5,1,10.9,3.1   c3.4,1.9,6,4.5,7.8,7.8c2,3.2,3.1,6.8,3.1,10.9s-1,7.6-3.1,11.2c-1.9,3.4-4.5,6-7.8,8.1C298,355.3,294.4,356.3,290.5,356.3z" fill="#FFCE63"></path>
</g>
</svg>