<?xml version='1.0' encoding='utf-8'?>
<!-- Generator: Adobe Illustrator 27.2.0, SVG Export Plug-In . SVG Version: 6.00 Build 0)  --><svg xmlns="http://www.w3.org/2000/svg" xmlns:xlink="http://www.w3.org/1999/xlink" version="1.1" id="Vrstva_1" x="0px" y="0px" viewBox="0 0 745.8 566.9" style="enable-background:new 0 0 745.8 566.9;" xml:space="preserve" width="526.23035" height="400.0">
<style type="text/css">
	.st0{fill-rule:evenodd;clip-rule:evenodd;}
</style>
<g>
	<path class="st0" d="M372.9,493.9c116.2,0,210.5-94.2,210.5-210.4S489.1,73,372.9,73s-210.4,94.2-210.4,210.5   S256.7,493.9,372.9,493.9L372.9,493.9z M372.9,546.5c145.3,0,263.1-117.8,263.1-263.1S518.2,20.4,372.9,20.4   S109.8,138.2,109.8,283.5S227.6,546.5,372.9,546.5L372.9,546.5z"></path>
	<path class="st0" d="M112.5,23C45.8,89.7,4.6,181.7,4.6,283.4s41.2,193.8,107.9,260.4l37.2-37.2c-57.1-57.1-92.5-136-92.5-223.2   s35.3-166.1,92.5-223.2C149.7,60.2,112.5,23,112.5,23z M596.1,60.2L633.3,23C700,89.7,741.2,181.7,741.2,283.4   S700,477.2,633.3,543.9l-37.2-37.2c57.1-57.1,92.5-136,92.5-223.2S653.2,117.3,596.1,60.2L596.1,60.2z"></path>
	<path d="M513.2,320.3c0,0-3.8,18.4-15.4,29.4c-26.9,25.7-50,47.8-50,47.8L405.5,357l-3.8-25.7l-53.8-33.1L232.6,188   c23.1-22.1,53.8-25.7,73-3.7l34.6,29.4h80.7c7.7,0,15.4,3.7,19.2,11l19.2,36.8C467,287.2,486.3,309.2,513.2,320.3L513.2,320.3z"></path>
</g>
</svg>