<?xml version='1.0' encoding='utf-8'?>
<svg xmlns="http://www.w3.org/2000/svg" id="Vrstva_1" data-name="Vrstva 1" viewBox="0 0 560.47 566.93" width="395.4421" height="400.0">
  <defs>
    <style>
      .cls-1 {
        fill-rule: evenodd;
      }
    </style>
  </defs>
  <path d="m252.97,100.84V7.63h-62.14v33.72H4.4v26.06h186.43s0,33.43,0,33.43h62.14Z"></path>
  <path d="m97.62,240.19v-93.21h-62.14v34.71H4.4v23.2h31.07v35.31h62.14Z"></path>
  <path d="m315.11,286.33v93.21h-62.14v-33.03H4.4v-26.36h248.57v-33.82h62.14Z"></path>
  <path d="m377.25,67.41h-93.21v-26.06h93.21v26.06Z"></path>
  <path d="m377.25,181.68v23.2h-248.57v-23.2h248.57Z"></path>
  <path d="m377.25,346.51h-31.07v-26.36h31.07v26.36Z"></path>
  <path class="cls-1" d="m426.27,538.97c.27.25.54.5.82.74,3.7,3.3,7.73,6.24,12.02,8.79,10.67,6.33,22.98,10.17,36.15,10.73h.2s.15.01.15.01c.99.04,1.98.06,2.97.06,1.57,0,3.12-.05,4.67-.13.19-.01.39-.03.59-.04.2-.01.39-.03.58-.04,17.49-1.29,33.31-8.38,45.65-19.37,14.95-13.3,24.71-32.31,25.87-53.61.08-1.42.12-2.85.12-4.29,0-42.79-34.69-77.48-77.48-77.48s-77.48,34.69-77.48,77.48c0,.11,0,.22,0,.33.09,22.49,9.77,42.73,25.17,56.82Zm4.54-9.33c10.9-21.59,30.43-30.38,47.82-30.38s37.02,9.31,47.73,30.37c-12.23,12.22-29.12,19.78-47.78,19.78s-35.54-7.56-47.77-19.77Zm75.44-69.96c0,15.28-12.39,27.67-27.67,27.67s-27.67-12.39-27.67-27.67,12.39-27.68,27.67-27.68,27.67,12.39,27.67,27.68Z"></path>
</svg>