<?xml version='1.0' encoding='utf-8'?>
<svg xmlns="http://www.w3.org/2000/svg" id="Vrstva_1" data-name="Vrstva 1" viewBox="0 0 835.99 566.93" width="589.8365" height="400.0">
  <path d="m162.83,458.51c-32.6,0-60.9-7.5-84.9-22.4-23.7-15.3-41.9-36.1-54.4-62.6s-18.8-56.5-18.8-90,6.3-64.1,18.8-90.6c12.5-26.5,30.7-47.1,54.4-62.1,24.1-14.9,52.4-22.4,84.9-22.4s60.7,7.5,84.4,22.4c24.1,14.9,42.4,35.8,54.9,62.6,12.9,26.4,19.3,56.5,19.3,90s-6.4,63.6-19.3,90c-12.5,26.5-30.9,47.3-54.9,62.6-23.7,15-51.8,22.5-84.4,22.5h0Zm0-65.1c27.8,0,49-9.8,63.6-29.5,14.6-19.7,21.9-46.5,21.9-80.4s-7.3-60.7-21.9-80.4-35.8-29.5-63.6-29.5-49,9.8-63.6,29.5c-14.2,19.7-21.4,46.5-21.4,80.4s7.1,60.7,21.4,80.4c14.6,19.6,35.8,29.5,63.6,29.5Z"></path>
  <path d="m371.83,114.61h205.5v63.1h-135.8v80.9h121.1v61h-121.1v132.8h-69.7V114.61h0Z"></path>
  <path d="m626.43,114.61h205.5v63.1h-135.8v80.9h121.1v61h-121.1v132.8h-69.7V114.61Z"></path>
</svg>