<?xml version='1.0' encoding='utf-8'?>
<!-- Generator: Adobe Illustrator 27.2.0, SVG Export Plug-In . SVG Version: 6.00 Build 0)  --><svg xmlns="http://www.w3.org/2000/svg" xmlns:xlink="http://www.w3.org/1999/xlink" version="1.1" id="Vrstva_1" x="0px" y="0px" viewBox="0 0 766.4 566.9" style="enable-background:new 0 0 766.4 566.9;" xml:space="preserve" width="540.76556" height="400.0">
<style type="text/css">
	.st0{fill-rule:evenodd;clip-rule:evenodd;}
</style>
<g>
	<path class="st0" d="M739,210.5c12.5,0,22.6-10.1,22.6-22.5s-10.1-22.5-22.6-22.5h-62.7c-7.5,0-14.5,3.7-18.7,9.9l-29.8,43.9H601   l-22.4-91.1l-56.4-47.5H245.4l-51.4,42.4c0,0-19.9,61.3-31.2,96.2h-24.3l-29.8-43.9c-4.2-6.2-11.2-9.9-18.7-9.9H27.4   c-12.5,0-22.5,10.1-22.5,22.5s10.1,22.5,22.5,22.5H78l6,8.8h-5.5c-28.2,0-51.1,22.8-51.1,51v106.6c0,28.2,22.9,51,51.1,51H89v58.4   h116.5v-58.4h364.6v58.4h116.5v-58.4h4.9c28.2,0,51.1-22.8,51.1-51V270.3c0-28.2-22.9-51-51.1-51h-9.4l6-8.8L739,210.5L739,210.5z    M605.9,239.3v39.1H156.4v-39.1H605.9L605.9,239.3z M78.7,290.5h68.6l45.1,22.5l-3.8,41.2H78.7L78.7,290.5L78.7,290.5L78.7,290.5z    M511.9,379.5H238.5V313h273.5V379.5z M695.2,290.5v63.7h-110l-3.8-41.2l45.1-22.5H695.2L695.2,290.5L695.2,290.5z"></path>
</g>
</svg>