<?xml version='1.0' encoding='utf-8'?>
<!-- Generator: Adobe Illustrator 27.2.0, SVG Export Plug-In . SVG Version: 6.00 Build 0)  --><svg xmlns="http://www.w3.org/2000/svg" xmlns:xlink="http://www.w3.org/1999/xlink" version="1.1" id="Vrstva_1" x="0px" y="0px" viewBox="0 0 547.4 566.9" style="enable-background:new 0 0 547.4 566.9;" xml:space="preserve" width="386.24097" height="400.0">
<style type="text/css">
	.st0{fill-rule:evenodd;clip-rule:evenodd;}
</style>
<g>
	<path class="st0" d="M123.7,233.4c1.4-1.4,2.9-2.9,2.9-2.9l1.4-1.4l0,0l-11.5-11.5l-11.5-11.5l0,0l-1.4,1.4   c-1.4,1.4-2.9,2.9-4.4,4.4c-2.9,4.4-7.3,10.1-13.1,18.8c-8.7,15.9-17.4,37.9-17.4,65.3s8.7,50.8,17.4,65.3   c4.4,7.3,8.7,14.5,13.1,18.8c1.4,1.4,2.9,4.4,4.4,4.4l1.4,1.4l0,0l11.5-11.5l11.5-11.5l0,0l-1.4-1.4c0-1.4-1.4-1.4-2.9-2.9   c-2.9-2.9-5.8-8.7-10.1-14.5c-7.3-13.1-14.5-29.2-14.5-49.4s7.3-37.9,14.5-49.4C118,240.7,122.3,236.4,123.7,233.4L123.7,233.4z" fill="#FFCE63"></path>
	<path class="st0" d="M80.3,406.3C80.3,406.3,78.9,406.3,80.3,406.3c-2.9-2.9-4.4-4.4-5.8-7.3c-4.4-5.8-10.1-13.1-14.5-21.8   c-11.5-18.8-21.8-46.5-21.8-80s10.1-61,21.8-80c5.8-10.1,11.5-17.4,14.5-21.8c1.4-2.9,4.4-4.4,4.4-5.8l1.4-1.4l0,0l-11.5-11.5   l-11.5-11.5l0,0l-1.4,1.4c-1.4,1.4-2.9,4.4-5.8,7.3c-4.4,5.8-11.5,14.5-17.4,26.2c-13.1,23.2-26.2,55.2-26.2,95.9   s13.1,72.7,26.2,95.9c5.8,11.5,13.1,20.2,17.4,26.2c2.9,2.9,4.4,5.8,5.8,7.3l1.4,1.4l0,0l11.5-11.5   C76.5,410.3,80.3,407.3,80.3,406.3L80.3,406.3L80.3,406.3z" fill="#FFCE63"></path>
	<path class="st0" d="M540.8,171h-36.4V70.7c0,0-49.4-49.4-125.1-49.4S254.2,70.7,254.2,70.7v111.8L141.1,294.3l23.2,23.2l90.1-90.1   v268.8c0,0,49.4,49.4,125.1,49.4s125.1-49.4,125.1-49.4V203h36.4L540.8,171L540.8,171z M472.6,481.9c-4.4,2.9-10.1,7.3-18.8,11.5   c-18.8,10.1-45.1,20.2-75.6,20.2s-56.6-10.1-75.6-20.2c-7.3-4.4-13.1-8.7-18.8-11.5V85.3c4.4-2.8,10.1-7.3,18.8-11.5   c18.8-10.1,45.1-20.2,75.6-20.2s56.5,10,75.4,20.2c7.3,4.4,13.1,8.7,18.8,11.5v396.6H472.6z" fill="#FFCE63"></path>
	<path class="st0" d="M436.2,235l14.5-75.6c-8.7-7.3-36.4-21.8-69.7-21.8s-62.5,14.5-72.7,21.8l14.5,75.6H436.2z" fill="#FFCE63"></path>
	<path class="st0" d="M321.5,397.7l-13.1,53.8c8.7,7.3,36.4,26.2,69.7,26.2s62.5-15.9,72.7-26.2l-13.1-53.8H321.5z" fill="#FFCE63"></path>
</g>
</svg>