<?xml version='1.0' encoding='utf-8'?>
<svg xmlns="http://www.w3.org/2000/svg" id="Vrstva_1" data-name="Vrstva 1" viewBox="0 0 691.92 566.93" width="488.18726" height="400.0">
  <defs>
    <style>
      .cls-1 {
        fill-rule: evenodd;
      }
    </style>
  </defs>
  <path class="cls-1" d="m374.32,21.23v33.6l6.87,161.56h0v.26s1.86,43.46,1.86,43.46l.11,2.7.09,2.01h44.62s0,0,0,0l9.45-209.99V21.23h-63Zm12.6,354.36c5.95,3.15,12.42,4.72,19.42,4.72s12.77-1.57,18.37-4.72c5.6-3.5,9.97-8.05,13.12-13.65,3.5-5.95,5.25-12.42,5.25-19.42s-1.75-12.77-5.25-18.37c-3.15-5.6-7.52-9.98-13.12-13.13-5.6-3.5-11.72-5.25-18.37-5.25-7,0-13.48,1.75-19.42,5.25-5.6,3.15-10.15,7.52-13.65,13.13-3.15,5.6-4.72,11.72-4.72,18.37,0,7,1.57,13.47,4.72,19.42,3.5,5.6,8.05,10.15,13.65,13.65Zm-123.81-134.31c21.18-13.06,44.83-21.19,69.28-23.89l2.08,48.9c-16.09,2.24-31.66,7.83-45.76,16.52l-.83.51-.86.48-82.62,46.46-7.05,3.97-7.96,1.48c-59.66,11.07-91.61,17.08-112.05,27.95-8.2,4.36-12.5,8.63-15.49,13.38-3.13,4.97-6.59,13.35-8.63,28.39v34.68c0,.07.02.47.26,1.05.16.39.35.73.53.98h58.1l10.92,33.78c2.96,9.14,14.47,19.64,31.85,20.89,14.16,1.02,29.06-4.57,38.12-25.38l12.77-29.29h278.51l12.07,31.17c5.85,15.11,20.32,23.88,35.84,23.46,13.1-.35,29.28-7.59,37.14-33.7l4.86-16.15,13.8-9.7,50.69-35.64v-71.13l-139.82-58.63c-7.18-2.87-14.64-4.85-22.23-5.9l2.2-48.88c13.22,1.4,26.19,4.65,38.57,9.65l170.06,71.31v128.92l-71.42,50.22c-27.72,92.12-137.35,85.72-165.2,13.79h-213.13c-35.88,82.32-140.71,63.12-161.12,0h-22.3c-29.31.72-49.88-24.88-49.88-50.82v-37.83c9.93-83.78,61.88-93.4,168.18-113.08l7.87-1.46,82.62-46.46Z"></path>
</svg>