<?xml version='1.0' encoding='utf-8'?>
<svg xmlns="http://www.w3.org/2000/svg" id="Vrstva_1" data-name="Vrstva 1" viewBox="0 0 619.92 566.93" width="437.38733" height="400.0">
  <path d="m222.63,327.15c120.64,0,218.43,97.79,218.43,218.43H4.2c0-120.64,97.79-218.43,218.43-218.43Zm205.26-56.8c103.75,0,187.84,84.11,187.84,187.85h-145.9c-22.33-63.18-68.19-115.24-127.06-145.65v-21.86c25.55-13.01,54.48-20.35,85.12-20.35ZM222.63,21.35c72.38,0,131.06,58.68,131.06,131.06s-58.68,131.06-131.06,131.06-131.06-58.68-131.06-131.06S150.24,21.35,222.63,21.35Zm210.75,8.09c54.29,0,98.29,44.01,98.29,98.29,0,54.28-44.01,98.29-98.29,98.29-17.09,0-33.17-4.37-47.17-12.05,7.21-19.15,11.16-39.9,11.16-61.58,0-36.18-10.99-69.79-29.82-97.67,17.43-15.73,40.51-25.3,65.83-25.3Z"></path>
</svg>