<?xml version='1.0' encoding='utf-8'?>
<!-- Generator: Adobe Illustrator 27.2.0, SVG Export Plug-In . SVG Version: 6.00 Build 0)  --><svg xmlns="http://www.w3.org/2000/svg" xmlns:xlink="http://www.w3.org/1999/xlink" version="1.1" id="Vrstva_1" x="0px" y="0px" viewBox="0 0 869.6 566.9" style="enable-background:new 0 0 869.6 566.9;" xml:space="preserve" width="613.58264" height="400.0">
<g>
	<rect x="39.5" y="276.6" transform="matrix(0.7071 -0.7071 0.7071 0.7071 -76.4271 382.4181)" width="767.8" height="13.6"></rect>
	<rect x="416.6" y="-100.5" transform="matrix(0.7071 -0.7071 0.7071 0.7071 -76.42 382.421)" width="13.6" height="767.8"></rect>
	<polygon points="515.9,176.9 536.8,156 310,156 330.9,176.9  "></polygon>
	<polygon points="486.5,360.7 360.3,360.7 339.4,381.6 507.4,381.6  "></polygon>
	<path d="M649.5,176.9v183.8H514.7l20.9,20.9h134.8v-98.1c-0.8,0-0.1-27.9-0.1-27.9c0,0,0.1,0,0.1,0V156H565l-20.9,20.9L649.5,176.9   L649.5,176.9z"></path>
	<polygon points="77.2,360.7 77.2,176.9 302.7,176.9 281.9,156 56.3,156 56.3,381.6 311.2,381.6 332.1,360.7  "></polygon>
	<path d="M171.2,181.1c-48.7,0-88.4,39.7-88.4,88.4s39.7,88.4,88.4,88.4s88.4-39.7,88.4-88.4S220,181.1,171.2,181.1L171.2,181.1z    M237.4,282.7c-6.2,30.9-33.5,54.3-66.2,54.3s-60.1-23.4-66.2-54.3h12.4v-23.9h-12.8c5.1-32.2,33.1-56.9,66.7-56.9   s61.5,24.7,66.7,56.9h-12.4v23.9H237.4L237.4,282.7z"></path>
	<circle cx="171.2" cy="227.7" r="15.3"></circle>
	<circle cx="171.2" cy="312.6" r="15.3"></circle>
	<path d="M363.3,201.9c33.6,0,61.5,24.7,66.7,56.9h-12.4v4.8l5.8,5.8l24.8-24.8c-10.8-36.7-44.7-63.5-84.8-63.5   c-8.6,0-16.9,1.2-24.7,3.5l17.7,17.7C358.7,202.1,361,202,363.3,201.9L363.3,201.9L363.3,201.9z"></path>
	<path d="M448.2,294.2c2.3-7.9,3.5-16.1,3.5-24.7c0-0.1,0-0.2,0-0.3l-14.2,14.2L448.2,294.2L448.2,294.2z"></path>
	<path d="M389.1,331.9l-26,26c0.1,0,0.2,0,0.3,0c32.6,0,61.1-17.7,76.4-44l-15.4-15.4C417.1,313.5,404.5,325.5,389.1,331.9   L389.1,331.9z"></path>
	<path d="M297.1,282.7h12.4v-23.9h-12.8c3.5-22.3,18-40.9,37.7-50.3l-15.4-15.4c-26.3,15.3-44,43.8-44,76.4   c0,40.1,26.9,74,63.5,84.8l17.7-17.7C326.7,333.5,302.8,311.3,297.1,282.7L297.1,282.7z"></path>
	<path d="M348,227.7c0,8.5,6.9,15.3,15.3,15.3c1.7,0,3.3-0.3,4.8-0.8L348.8,223C348.3,224.5,348,226,348,227.7L348,227.7z"></path>
	<path d="M366.9,212.8l11.4,11.4C376.9,218.6,372.5,214.1,366.9,212.8z"></path>
	<path d="M363.3,297.3c-8.5,0-15.3,6.9-15.3,15.3s6.9,15.3,15.3,15.3c0.5,0,1,0,1.5-0.1l13.7-13.7c0-0.5,0.1-1,0.1-1.5   C378.7,304.2,371.8,297.3,363.3,297.3z"></path>
	<path d="M552.7,357.9c48.8,0,88.4-39.7,88.4-88.4s-39.7-88.4-88.4-88.4c-4.7,0-9.4,0.4-13.9,1.1l-73.4,73.4   c-0.7,4.5-1.1,9.2-1.1,13.9C464.3,318.2,504,357.9,552.7,357.9L552.7,357.9L552.7,357.9z M552.7,201.9c33.6,0,61.5,24.7,66.7,56.9   h-12.4v23.9H619c-6.2,30.9-33.5,54.3-66.2,54.3s-60.1-23.4-66.2-54.3h12.4v-23.9H486C491.2,226.6,519.1,201.9,552.7,201.9   L552.7,201.9z"></path>
	<circle cx="552.7" cy="227.7" r="15.3"></circle>
	<circle cx="552.7" cy="312.6" r="15.3"></circle>
	<path d="M574.3,493.7c-86.9-8.8-176-32.8-227.2-60.9c-14.2-7.9-28.3-13.3-42-16.9l-22.7,22.7c17,2.4,34.6,8,51.6,18.8   c55,30.3,145.7,54.8,237.4,64c20,2,45.6,3.8,73.4,3.8c2,0,4.1,0,6.1,0L622.8,497C607.2,496.4,591,495.4,574.3,493.7L574.3,493.7   L574.3,493.7z"></path>
	<path d="M865.3,392c-2.6-53.5-37.9-94.2-102.1-117.6c-45.6-16.6-91.4-18.8-94.4-18.9l0.5,27.9c15.2,0.9,163.5,12.5,168.3,109.9   c1.5,31.1-11.4,54.8-39.5,72.3c-32,20-83.5,30.9-146.7,31.6l27,27c47.8-2.7,97.7-12,134.5-34.9C849.1,466.6,867.3,433,865.3,392   L865.3,392L865.3,392z"></path>
	<path d="M165.9,435.4c-11.5-19.2-29.7-29.7-44.8-24.5l0-0.1l-72.6,27.7l5.4,14.2l-32.8,12.5v0c-17.7,6.9-18,11.4-16.2,16.2   c1.8,4.8,5.1,8,22.9,1.3l0,0l32.8-12.5l12.5,32.8l-32.8,12.5v0c-17.7,6.9-18,11.4-16.2,16.2c1.8,4.8,5.1,8,22.9,1.3l0,0l32.8-12.5   l6,15.6l72.6-27.7l0-0.1c14.7-6.2,21.2-26.2,17-48.1c0,0,35.1-20.9,80-23l25.9-25.9C216.2,403.9,165.9,435.4,165.9,435.4   L165.9,435.4L165.9,435.4z"></path>
</g>
</svg>