<?xml version='1.0' encoding='utf-8'?>
<!-- Generator: Adobe Illustrator 27.2.0, SVG Export Plug-In . SVG Version: 6.00 Build 0)  --><svg xmlns="http://www.w3.org/2000/svg" xmlns:xlink="http://www.w3.org/1999/xlink" version="1.1" id="Vrstva_1" x="0px" y="0px" viewBox="0 0 508.4 566.9" style="enable-background:new 0 0 508.4 566.9;" xml:space="preserve" width="358.72287" height="400.0">
<g>
	<path d="M426.6,236.5H209.3c-42.1,0-76.2,34.1-76.2,76.2v144.1l-46.6-33.4c2-9.7,0.8-20.1-4.5-29.4c-3.7-6.7-12.3-9.1-19-5.4   c-6.7,3.7-9.1,12.3-5.4,19c1.9,3.5,2.4,7.6,1.3,11.4c-1.1,3.9-3.7,7.1-7.1,9c-3.5,1.9-7.6,2.4-11.4,1.3c-3.9-1.1-7.1-3.7-8.9-7.1   c-3.7-6.7-12.3-9.1-19-5.4c-6.7,3.7-9.1,12.3-5.4,19c5.6,10.1,14.7,17.3,25.7,20.5c3.9,1.1,7.8,1.7,11.9,1.7   c7.3,0,14.4-1.9,20.7-5.4c2.4-1.3,4.9-3,6.9-4.7l60.8,43.6V517c0,12.5,10.1,22.5,22.5,22.5c18.1,0,22.5-1.7,22.5-12.7   c0-8.6,5.2-15.6,13-18.4c10.1-3.5,15.6-9,14.4-14c0,0-1.1-4.1-4.1-3.5c-5.8,1.1-11.5-0.4-16.2-4.1c-4.5-3.7-7.1-9.3-7.1-15.1V332.5   c0-10.8,8.8-19.6,19.6-19.6s19.4,8.8,19.4,19.6v121.9c12.3,4.9,22.2,15.5,26.1,29.4c5,18.5-1.7,41.2-26.1,55.2v8.6h201.6V332.5   c0-10.8,8.8-19.6,19.6-19.6s19.6,8.8,19.6,19.6v184.1c0,12.5,10.1,22.5,22.5,22.5s22.5-10.1,22.5-22.5V312.5   C502.7,270.4,468.7,236.5,426.6,236.5L426.6,236.5z M394.7,443.7l-12.3,28.3l-38.8-79.4c-2,0.2-4.1,0.4-6.1,0.4v85.9l-22.2-30.8   l-34.3,5l28.3-67.1c-20.5-10.2-34.5-31.5-34.5-55.9c0-34.7,28.1-62.6,62.6-62.6s62.6,28.1,62.6,62.6c0,20.1-9.5,38-24.2,49.6   l38,52.4L394.7,443.7L394.7,443.7z"></path>
	<circle cx="309.8" cy="110.9" r="91.5"></circle>
</g>
</svg>