<?xml version='1.0' encoding='utf-8'?>
<svg xmlns="http://www.w3.org/2000/svg" id="Vrstva_1" data-name="Vrstva 1" viewBox="0 0 608.83 566.93" width="429.56274" height="400.0">
  <defs>
    <style>
      .cls-1 {
        fill-rule: evenodd;
      }
    </style>
  </defs>
  <path d="m89.51,239.21v-33.08h62.02v33.08l-9.3,206.75h-43.93l-8.79-206.75Zm31.53,320.46c-6.89,0-13.27-1.55-19.12-4.65-5.51-3.45-9.99-7.93-13.44-13.44-3.1-5.86-4.65-12.23-4.65-19.12s1.55-12.58,4.65-18.09c3.44-5.51,7.93-9.82,13.44-12.92,5.86-3.44,12.23-5.17,19.12-5.17s12.58,1.72,18.09,5.17c5.51,3.1,9.82,7.41,12.92,12.92,3.44,5.51,5.17,11.54,5.17,18.09,0,6.89-1.72,13.27-5.17,19.12-3.1,5.51-7.41,9.99-12.92,13.44-5.51,3.1-11.54,4.65-18.09,4.65Z" fill="#FFCE63"></path>
  <path class="cls-1" d="m177.35,392.15v.18c34.14,29.73,78.76,47.74,127.58,47.74s93.21-17.91,127.31-47.51l.03-.62-23.63-27.19c-27.74,24.19-64.01,38.85-103.7,38.85s-76-14.66-103.74-38.87l-23.84,27.43Zm47.25-54.36c21.48,18.77,49.6,30.15,80.37,30.15s58.82-11.35,80.3-30.09l-23.93-27.53c-15.07,13.17-34.79,21.14-56.37,21.14s-41.36-8-56.44-21.2l-23.93,27.53Z" fill="#FFCE63"></path>
  <path class="cls-1" d="m349,7.27c0,16.34-8.91,30.55-22.1,38.19v71.94c67.1,1.4,177.93,5.84,242.06,8.63,24.43,1.07,40.28,26.06,30.99,48.68l-22.83,55.5c-4.97,12.06-16.19,20.38-29.17,21.58-47.63,4.4-165.71,14.48-248.02,14.33-31.74-.06-68.95-1.71-105.17-3.88l.95-21.02.04-1.99v-33.1c0-22.87-17.39-41.7-39.66-43.98l-4.53-.22h-62.02c-22.88,0-41.71,17.38-43.98,39.66l-.22,4.53v33.1c0,.62.02,1.24.04,1.86l.22,6c-6.57-3.9-11.83-9.88-14.76-17.26l-22.14-55.8c-8.91-22.47,6.76-47.02,30.9-48.21,64.87-3.16,178.51-8.26,243.1-8.85V45.46c-13.19-7.65-22.1-21.85-22.1-38.19h88.38Z" fill="#FFCE63"></path>
</svg>