<?xml version='1.0' encoding='utf-8'?>
<svg xmlns="http://www.w3.org/2000/svg" id="Vrstva_1" data-name="Vrstva 1" viewBox="0 0 512.25 566.93" width="361.4203" height="400.0">
  <path d="m362.27,546.17h-72.78v-242.6h72.78v242.6Zm145.65,0h-72.78v-242.6h72.78v242.6ZM343.57,22.99c31.15-6.8,65.1,1.9,89.38,26.18,13.06,13.06,21.65,28.98,25.7,45.75l3.11,12.85-133.17,101.23-11.56-6.45c-7.66-4.28-14.85-9.66-21.32-16.14-12.98-12.98-21.51-28.74-25.6-45.35-24.7,10.7-53.16,29.22-84.66,60.71-31.62,31.62-50.12,60.14-60.74,84.84,16.58,4.1,32.31,12.62,45.26,25.57,6.47,6.46,11.85,13.64,16.12,21.29l6.46,11.57-101.24,133.17-12.85-3.11c-16.77-4.06-32.68-12.64-45.74-25.69C7.69,424.36-.77,389.02,7.26,357.06c3.29-20.98,23.29-120.37,118.2-215.28C225.21,42.04,330.07,24.84,343.57,22.99Z"></path>
</svg>