<?xml version='1.0' encoding='utf-8'?>
<!-- Generator: Adobe Illustrator 27.2.0, SVG Export Plug-In . SVG Version: 6.00 Build 0)  --><svg xmlns="http://www.w3.org/2000/svg" xmlns:xlink="http://www.w3.org/1999/xlink" version="1.1" id="Vrstva_1" x="0px" y="0px" viewBox="0 0 613.4 566.9" style="enable-background:new 0 0 613.4 566.9;" xml:space="preserve" width="432.81003" height="400.0">
<g>
	<path d="M5.5,558.3v-439h144.8c21.2,0,41,2,59.4,6c18.4,4,34.7,10.7,48.9,20.1c14.2,9.4,25.3,22.1,33.5,38   c8.1,15.9,12.2,35.3,12.2,58.3s-4.3,42.1-12.8,57.5c-8.5,15.4-20.2,27.7-35.1,37c-14.8,9.3-31.6,16.2-50.3,20.6   c-18.7,4.4-38.6,7.1-59.6,8H66.9v193.5H5.5L5.5,558.3L5.5,558.3z M66.9,311.9h101c4.3,0,9.6-0.5,15.8-1.5c6.2-1,12.3-2.9,18.5-5.7   c6.2-2.8,12-6.8,17.4-11.9c5.4-5.1,9.9-11.7,13.5-20c3.6-8.2,5.4-18.6,5.4-31.2c0-11.7-1.8-21.5-5.4-29.4   c-3.6-7.9-8.1-14.4-13.5-19.5c-5.4-5.1-11.2-9.1-17.4-12.2c-6.2-3-12.3-5.2-18.5-6.6s-11.4-2.2-15.6-2.4s-7.2-0.3-8.9-0.3H66.9   V311.9z M317.6,136.2L537.1,8.6l22.4,40.3l-219.8,127c-2-6.9-5-13.6-9.1-20C326.5,149.5,322.1,142.9,317.6,136.2L317.6,136.2   L317.6,136.2z M339.7,307.3l219.8,131.5l-22.4,39.9L317.6,347.3c4.5-4.3,8.2-9.7,11-16.2C331.4,324.5,335.1,316.6,339.7,307.3   L339.7,307.3L339.7,307.3z M348.4,219.6h259.5v44.2H348.4V219.6L348.4,219.6z"></path>
</g>
</svg>