<?xml version='1.0' encoding='utf-8'?>
<svg xmlns="http://www.w3.org/2000/svg" id="Vrstva_1" data-name="Vrstva 1" viewBox="0 0 534.05 566.93" width="376.80136" height="400.0">
  <defs>
    <style>
      .cls-1 {
        fill-rule: evenodd;
      }
    </style>
  </defs>
  <path class="cls-1" d="m108.91,411.25c19.35-57.6,73.78-99.1,137.89-99.1,14.03,0,27.6,1.99,40.43,5.7-25.23,28.55-40.54,66.07-40.54,107.16,0,29.13,7.69,56.47,21.16,80.08-6.94.6-13.96.9-21.05.9-134.07,0-242.75-108.68-242.75-242.75S112.73,20.49,246.8,20.49s242.75,108.68,242.75,242.75c0,7.09-.3,14.11-.9,21.04-12.29-7.01-25.59-12.45-39.62-16.06.04-1.65.06-3.31.06-4.98,0-111.72-90.57-202.29-202.29-202.29S44.51,151.52,44.51,263.24c0,58.43,24.78,111.08,64.4,148.01Zm137.9-133.59c44.69,0,80.92-36.23,80.92-80.92s-36.23-80.92-80.92-80.92-80.92,36.23-80.92,80.92,36.23,80.92,80.92,80.92Zm283.2,147.35c0,67.06-54.37,121.43-121.43,121.43s-121.43-54.37-121.43-121.43,54.37-121.43,121.43-121.43,121.43,54.37,121.43,121.43Zm-141.6,20.29v60.69h40.46v-60.69h60.69v-40.46h-60.69v-60.69h-40.46v60.69h-60.69v40.46h60.69Z"></path>
</svg>