<?xml version='1.0' encoding='utf-8'?>
<!-- Generator: Adobe Illustrator 27.2.0, SVG Export Plug-In . SVG Version: 6.00 Build 0)  --><svg xmlns="http://www.w3.org/2000/svg" xmlns:xlink="http://www.w3.org/1999/xlink" version="1.1" id="Vrstva_1" x="0px" y="0px" viewBox="0 0 558.4 566.9" style="enable-background:new 0 0 558.4 566.9;" xml:space="preserve" width="394.00247" height="400.0">
<style type="text/css">
	.st0{fill-rule:evenodd;clip-rule:evenodd;}
</style>
<g>
	<path class="st0" d="M7.8,288.9c4.6-8.9,16.4-13.4,25.4-8.9c65.3,31.4,148.5,55.3,215.3,55.3c34.1,0,57.8-2.9,78.6-7.5   c22.3-4.5,41.6-13.4,69.7-23.9c31.2-12,69.7-15,99.4-2.9c16.2,5.9,29.7,16.4,40.1,31.4c10.4,15,16.2,33,16.2,53.9   c0,43.5-25.2,76.3-60.8,89.7c-35.6,12-77.2,4.5-114.3-25.4c-7.5-7.5-8.9-19.4-2.9-26.8c5.8-7.5,19.3-8.9,26.6-2.9   c26.6,22.5,56.4,25.4,77.2,19.4c20.8-7.5,35.6-25.4,35.6-52.4c0-15-2.9-25.4-8.9-33c-5.8-7.5-13.3-13.4-22.3-18   c-19.3-7.5-47.4-7.5-72.8,2.9c-28.3,10.5-50.5,19.4-75.7,25.4c-25.2,5.9-52,8.9-87.6,8.9c-74.2,0-163.3-26.8-231.5-58.3   C7.8,309.8,3.5,297.7,7.8,288.9L7.8,288.9z"></path>
	<path class="st0" d="M312,89.9c19.3-7.6,40.1-4.5,54.9,1.5c20.8,7.6,35.6,26.8,43.1,47.8c7.5,21,5.8,46.4-7.5,68.8   c-44.5,73.4-129.2,67.4-170.8,64.4c-44.5-4.5-86.1-15-133.5-39C89.4,229,85,217.1,89.4,208c4.4-8.9,16.2-13.4,25.2-8.9   c44.5,21,80.1,31.4,120.2,34.4c43.1,4.5,104,4.5,135-46.4c7.5-10.5,7.5-23.9,2.9-35.9c-4.4-12-11.9-21-20.8-23.9   c-7.5-2.9-19.3-4.5-28.3,0c-8.9,2.9-16.2,8.9-19.3,25.4c-1.5,10.5-11.9,16.4-22.3,14.9c-10.4-1.5-16.2-12-14.8-22.5   C273.5,115.4,291.2,97.3,312,89.9L312,89.9z"></path>
</g>
</svg>