<?xml version='1.0' encoding='utf-8'?>
<!-- Generator: Adobe Illustrator 27.2.0, SVG Export Plug-In . SVG Version: 6.00 Build 0)  --><svg xmlns="http://www.w3.org/2000/svg" xmlns:xlink="http://www.w3.org/1999/xlink" version="1.1" id="Vrstva_1" x="0px" y="0px" viewBox="0 0 579.4 566.9" style="enable-background:new 0 0 579.4 566.9;" xml:space="preserve" width="408.81992" height="400.0">
<style type="text/css">
	.st0{fill-rule:evenodd;clip-rule:evenodd;}
</style>
<g>
	<path class="st0" d="M345.7,59.9l52.3,81.5H80l52.3-81.5c4.7-1.5,10.7-1.5,18.4-3.1c21.5-3.1,53.7-6.1,89-6.1s67.6,3.1,89,6.1   C335,58.4,341.3,58.4,345.7,59.9L345.7,59.9z M144.4,258l-19.9-38.5H49.2v-27.7h142.9l12.2,24.6h86.1   c33.8-23.1,73.8-33.8,115.1-33.8l0,0c23.1,0,44.5,3.1,66,10.7v-12.2l-29.2-47.7h30.7V92.1h-56.9l-43-69.1c0,0-55.2-15.4-133.8-15.4   S105.8,23,105.8,23L63.1,92.1H6.2v41.4h29.2l-29.2,46v181.3c0,19.9,19.9,29.2,29.2,29.2h38.5c9.2,0,29.2-9.2,29.2-29.2v-29.2h101.4   c1.5-7.6,4.7-13.9,7.6-21.5c7.6-19.9,18.4-36.9,32.3-53.7L144.4,258L144.4,258z"></path>
	<path d="M405.7,444.1c-10.7,0-19.9-3.1-29.2-9.2c-9.2-6.1-15.4-13.9-18.4-23.1c-4.7-9.2-4.7-19.9-3.1-30.7   c1.5-10.7,7.6-19.9,13.9-26.1c7.7-7.6,17-12.2,26.1-13.9c10.7-1.5,19.9-1.5,30.7,3.1c9.2,4.7,17,10.7,23.1,19.9   c6.1,9.2,9.2,18.4,9.2,29.2c0,13.9-6.1,27.7-15.4,36.9C433.3,439.5,419.6,444.1,405.7,444.1L405.7,444.1z"></path>
	<path class="st0" d="M405.7,225.9c-32.3,0-64.6,9.2-92.2,27.7c-27.7,18.4-49.2,44.5-61.5,75.4s-15.4,64.6-9.2,96.8   c6.1,32.3,23.1,61.5,46,84.5c22.9,23.1,52.3,38.5,84.5,46c32.3,6.1,66,3.1,96.8-9.2s56.9-33.8,75.4-61.5   c18.3-27.7,27.7-59.9,27.7-92.2c0-44.5-17-86.1-49.2-118.3C493.3,242.9,450.1,225.9,405.7,225.9L405.7,225.9z M497.8,374.9   c1.5,10.7,1.5,23.1,0,35.3l26.1,15.4c-6.1,19.9-17,40-30.7,55.2l-26.1-15.4c-9.2,7.6-18.3,13.9-29.2,17v29.1   c-19.9,6.1-41.4,6.1-63,0v-29.2c-10.7-4.7-21.5-9.2-29.2-17l-26.3,15.6c-15.4-15.4-26.1-33.8-30.7-55.2l26.1-15.4   c-1.5-10.7-1.5-23.1,0-35.3l-26.1-15.6c6.1-19.9,17-40,30.7-55.2l26.1,15.4c9.2-7.6,18.4-13.9,29.2-17v-29.1c3.1,0,4.7-1.5,7.7-1.5   c4.7-1.5,10.7-1.5,15.4-1.5h7.7c7.7,0,15.4,1.5,23.1,3.1c3.1,0,4.7,1.5,7.7,1.5v29.2c10.7,4.7,21.5,9.2,29.2,17l26.1-15.4   c15.4,15.4,26.1,33.8,30.7,55.2L497.8,374.9L497.8,374.9z"></path>
</g>
</svg>